// Created by Crowbar 0.74
version 1
nodes
  0 "root" -1
  1 "g_r_hip_offset" 0
  2 "g_r_hip" 1
  3 "g_r_knee" 2
  4 "g_r_ankle" 3
  5 "g_r_ball" 4
  6 "g_r_thightwist" 2
  7 "g_l_hip_offset" 0
  8 "g_l_hip" 7
  9 "g_l_knee" 8
  10 "g_l_ankle" 9
  11 "g_l_ball" 10
  12 "g_l_thightwist" 8
  13 "g_spine01_offset" 0
  14 "g_spine01" 13
  15 "g_pelvis" 14
  16 "g_spine02_offset" 14
  17 "g_spine02" 16
  18 "g_spine03_offset" 17
  19 "g_spine03" 18
  20 "g_l_clavical" 19
  21 "g_l_shoulder" 20
  22 "g_l_elbow" 21
  23 "g_l_forarm" 22
  24 "g_l_wrist" 22
  25 "g_l_birdy1" 24
  26 "g_l_birdy2" 25
  27 "g_l_birdy3" 26
  28 "g_l_index1" 24
  29 "g_l_index2" 28
  30 "g_l_index3" 29
  31 "g_l_pinky1" 24
  32 "g_l_pinky2" 31
  33 "g_l_pinky3" 32
  34 "g_l_ring1" 24
  35 "g_l_ring2" 34
  36 "g_l_ring3" 35
  37 "g_l_thumb1" 24
  38 "g_l_thumb2" 37
  39 "g_l_thumb3" 38
  40 "g_l_palm" 24
  41 "g_l_biceptwist" 21
  42 "g_neck" 19
  43 "g_head" 42
  44 "g_jaw" 43
  45 "g_l_brow" 43
  46 "g_l_brow2" 45
  47 "g_l_eye" 43
  48 "g_topeyelid" 43
  49 "g_r_brow" 43
  50 "g_r_brow2" 49
  51 "g_r_eye" 43
  52 "g_r_clavical" 19
  53 "g_r_shoulder" 52
  54 "g_r_elbow" 53
  55 "g_r_forarm" 54
  56 "g_r_wrist" 54
  57 "g_r_birdy1" 56
  58 "g_r_birdy2" 57
  59 "g_r_birdy3" 58
  60 "g_r_index1" 56
  61 "g_r_index2" 60
  62 "g_r_index3" 61
  63 "g_r_pinky1" 56
  64 "g_r_pinky2" 63
  65 "g_r_pinky3" 64
  66 "g_r_ring1" 56
  67 "g_r_ring2" 66
  68 "g_r_ring3" 67
  69 "g_r_thumb1" 56
  70 "g_r_thumb2" 69
  71 "g_r_thumb3" 70
  72 "g_r_palm" 56
  73 "g_r_biceptwist" 53
  74 "g_throwable_attach_offset" 0
end
skeleton
  time 0
    0 0.000000 0.000000 -1.500000 0.000000 0.000000 0.000000
    1 -10.521344 -5.760963 66.994621 3.097005 -0.050653 -3.139334
    2 1.090248 22.882788 11.139239 0.192419 0.422994 0.361498
    3 -0.000034 0.000012 24.761454 -1.022563 -0.118649 0.419647
    4 0.000017 0.000000 24.344809 1.602709 -0.249656 -0.113570
    5 0.002333 -1.019846 24.031336 0.402652 -0.042938 0.016650
    6 0.000034 0.000008 13.404741 -0.000001 -0.000009 0.164652
    7 10.398263 -5.760962 66.994675 3.097005 0.050653 3.139334
    8 3.078053 16.846853 9.408397 0.710837 -0.368508 0.169793
    9 -0.000004 -0.000006 24.761459 -0.609686 0.070837 -0.679359
    10 -0.000007 0.000004 24.344891 0.789925 -0.102787 -0.074754
    11 -0.002360 -1.019903 24.031330 0.393742 0.089183 0.081486
    12 0.000000 -0.000002 13.404737 0.000001 0.000005 -0.361546
    13 -0.061540 -5.245835 72.927078 0.000000 0.000000 0.000000
    14 -2.358123 20.617276 -9.446106 -0.096129 -0.129582 0.434424
    15 0.000000 -0.005608 -1.146812 -0.062482 0.101510 -0.724566
    16 0.030770 -0.240000 8.906021 -0.004138 0.000000 0.000000
    17 0.738327 -0.471815 -0.055087 0.113789 0.095645 0.357971
    18 0.030770 -0.276858 8.905140 0.056125 0.004134 -0.000049
    19 -0.680974 0.063378 -0.032426 -0.013867 -0.227848 0.079912
    20 5.669724 4.435303 14.302868 0.217266 -1.016530 3.817441
    21 -1.044571 -2.839317 19.743267 -0.101921 -0.272029 0.081370
    22 2.655533 -1.533369 24.792658 -0.608815 0.087384 -0.245670
    23 1.120163 -0.154394 9.796035 -0.080098 -0.018514 -0.727978
    24 2.240311 -0.308786 19.592051 -0.172544 0.052141 -1.471356
    25 0.683151 2.877354 14.167051 -1.511326 -0.211747 1.554295
    26 0.144936 -0.145374 7.579252 -1.768092 -0.243253 0.235287
    27 0.091660 -0.906685 4.702850 -1.587437 -0.182568 0.191116
    28 0.506271 8.500866 13.617253 -1.470526 -0.303331 1.571638
    29 -0.384987 -0.460049 7.003448 -1.747476 -0.440889 0.551348
    30 0.561516 -0.596954 5.061852 -1.494372 -0.380569 0.386326
    31 -2.452171 -8.899406 11.597897 -1.564465 -0.075967 1.475308
    32 0.680496 -0.903999 6.074253 -1.628053 0.173822 -0.014264
    33 0.245514 -0.661150 3.388004 -1.484465 0.109507 -0.099205
    34 -0.717484 -3.784271 13.043911 -1.593590 -0.028658 1.464722
    35 1.099216 -1.407745 8.017889 -1.782123 0.031968 -0.017453
    36 0.068439 -0.807653 3.686054 -1.465865 0.034012 -0.009745
    37 -4.004929 6.172707 4.754754 0.109464 1.126798 2.530885
    38 0.158352 -1.149811 5.804394 -0.869542 -0.330219 0.145630
    39 -1.083523 -1.463142 5.544399 -0.797675 -0.152810 -0.023927
    40 -6.289886 0.932434 13.569063 -0.126803 0.612110 2.869610
    41 1.327774 -0.766687 12.396328 -0.019033 0.008932 -0.170446
    42 -0.096140 1.828087 23.185329 -0.132497 -0.070158 -1.651484
    43 2.325478 -0.000003 6.169296 -0.007118 -0.166732 1.221093
    44 0.000000 -3.152912 0.122169 1.961017 0.000000 0.000000
    45 1.068383 -10.478592 7.066338 0.292219 -1.282324 -3.141588
    46 0.000000 0.000000 2.279457 0.547137 -0.343566 0.107833
    47 2.479414 -8.323895 6.074242 -0.027505 -0.307196 1.102101
    48 0.000006 -5.070313 5.929688 0.000000 0.000000 0.000000
    49 -1.068383 -10.478611 7.065971 0.292219 1.282324 3.141588
    50 -0.000488 0.000015 2.279600 0.547136 0.343566 0.107835
    51 -2.479401 -8.323895 6.074234 -0.011431 -0.304881 1.103172
    52 -5.790000 4.432083 14.255558 -5.709893 1.047468 -1.508708
    53 1.044540 -2.839314 19.743252 -0.665035 0.317889 -0.078356
    54 -2.655510 -1.533379 24.792648 -1.367622 -0.140733 0.079424
    55 -1.120216 -0.154385 9.795983 -0.053852 0.005387 0.473289
    56 -2.240372 -0.308788 19.592047 0.019469 0.385886 0.984151
    57 -0.683205 2.877342 14.167089 -1.604576 0.208954 -1.789836
    58 -0.144958 -0.145317 7.579308 -1.541391 0.304896 -0.166506
    59 -0.038551 -0.936644 4.697678 -2.189615 0.238585 -0.365176
    60 -0.506317 8.500896 13.617329 -1.710239 0.278103 -1.993683
    61 0.385056 -0.460075 7.003435 -1.471905 0.596196 -0.385484
    62 -0.456360 -0.710276 5.057732 -1.989925 0.545821 -0.699361
    63 2.452194 -8.899408 11.597939 -1.419591 0.110567 -1.352644
    64 -0.680515 -0.903999 6.074242 -1.453600 -0.173887 -0.003174
    65 -0.248295 -0.666843 3.386627 -1.668601 -0.122156 0.124627
    66 0.717491 -3.784309 13.044010 -1.725758 0.009829 -1.454343
    67 -1.099228 -1.407673 8.017876 -1.350904 -0.015601 0.007733
    68 -0.064053 -0.807640 3.686100 -1.839908 -0.037754 0.018152
    69 4.004906 6.172710 4.754800 -0.720269 -0.940275 -1.497138
    70 -0.158381 -1.149773 5.804405 -0.345801 0.685529 0.599782
    71 1.078559 -2.386406 5.215008 -1.052487 1.087708 -0.156294
    72 6.289963 0.932404 13.569109 -0.126801 -0.612098 -2.869612
    73 -1.327759 -0.766682 12.396324 -0.011395 -0.005815 0.103361
    74 0.000017 -54.999996 0.000000 0.000000 0.000000 -1.570796
  time 1
    0 0.000000 0.000000 -1.500000 0.000000 0.000000 0.000000
    1 -10.521344 -5.760963 66.994621 3.097005 -0.050653 -3.139334
    2 1.090248 22.882788 11.139239 0.192419 0.422994 0.361498
    3 -0.000034 0.000012 24.761454 -1.022563 -0.118649 0.419647
    4 0.000017 0.000000 24.344809 1.602709 -0.249656 -0.113570
    5 0.002333 -1.019846 24.031336 0.402652 -0.042938 0.016650
    6 0.000034 0.000008 13.404741 -0.000001 -0.000009 0.164652
    7 10.398263 -5.760962 66.994675 3.097005 0.050653 3.139334
    8 3.078053 16.846853 9.408397 0.710837 -0.368508 0.169793
    9 -0.000004 -0.000006 24.761459 -0.609686 0.070837 -0.679359
    10 -0.000007 0.000004 24.344891 0.789925 -0.102787 -0.074754
    11 -0.002360 -1.019903 24.031330 0.393742 0.089183 0.081486
    12 0.000000 -0.000002 13.404737 0.000001 0.000005 -0.361546
    13 -0.061540 -5.245835 72.927078 0.000000 0.000000 0.000000
    14 -2.358123 20.617276 -9.446106 -0.096129 -0.129582 0.434424
    15 0.000000 -0.005608 -1.146812 -0.062482 0.101510 -0.724566
    16 0.030770 -0.240000 8.906021 -0.004138 0.000000 0.000000
    17 0.738327 -0.471815 -0.055087 0.113789 0.095645 0.357971
    18 0.030770 -0.276858 8.905140 0.056125 0.004134 -0.000049
    19 -0.680974 0.063378 -0.032426 -0.013867 -0.227848 0.079912
    20 5.669724 4.435303 14.302868 0.217266 -1.016530 3.817441
    21 -1.044571 -2.839317 19.743267 -0.101921 -0.272029 0.081370
    22 2.655533 -1.533369 24.792658 -0.608815 0.087384 -0.245670
    23 1.120163 -0.154394 9.796035 -0.080098 -0.018514 -0.727978
    24 2.240311 -0.308786 19.592051 -0.172544 0.052141 -1.471356
    25 0.683151 2.877354 14.167051 -1.511326 -0.211747 1.554295
    26 0.144936 -0.145374 7.579252 -1.768092 -0.243253 0.235287
    27 0.091660 -0.906685 4.702850 -1.587437 -0.182568 0.191116
    28 0.506271 8.500866 13.617253 -1.470526 -0.303331 1.571638
    29 -0.384987 -0.460049 7.003448 -1.747476 -0.440889 0.551348
    30 0.561516 -0.596954 5.061852 -1.494372 -0.380569 0.386326
    31 -2.452171 -8.899406 11.597897 -1.564465 -0.075967 1.475308
    32 0.680496 -0.903999 6.074253 -1.628053 0.173822 -0.014264
    33 0.245514 -0.661150 3.388004 -1.484465 0.109507 -0.099205
    34 -0.717484 -3.784271 13.043911 -1.593590 -0.028658 1.464722
    35 1.099216 -1.407745 8.017889 -1.782123 0.031968 -0.017453
    36 0.068439 -0.807653 3.686054 -1.465865 0.034012 -0.009745
    37 -4.004929 6.172707 4.754754 0.109464 1.126798 2.530885
    38 0.158352 -1.149811 5.804394 -0.869542 -0.330219 0.145630
    39 -1.083523 -1.463142 5.544399 -0.797675 -0.152810 -0.023927
    40 -6.289886 0.932434 13.569063 -0.126803 0.612110 2.869610
    41 1.327774 -0.766687 12.396328 -0.019033 0.008932 -0.170446
    42 -0.096140 1.828087 23.185329 -0.132497 -0.070158 -1.651484
    43 2.325478 -0.000003 6.169296 -0.007118 -0.166732 1.221093
    44 0.000000 -3.152912 0.122169 1.961017 0.000000 0.000000
    45 1.068383 -10.478592 7.066338 0.292219 -1.282324 -3.141588
    46 0.000000 0.000000 2.279457 0.547137 -0.343566 0.107833
    47 2.479414 -8.323895 6.074242 -0.027505 -0.307196 1.102101
    48 0.000006 -5.070313 5.929688 0.000000 0.000000 0.000000
    49 -1.068383 -10.478611 7.065971 0.292219 1.282324 3.141588
    50 -0.000488 0.000015 2.279600 0.547136 0.343566 0.107835
    51 -2.479401 -8.323895 6.074234 -0.011431 -0.304881 1.103172
    52 -5.790000 4.432083 14.255558 -5.709893 1.047468 -1.508708
    53 1.044540 -2.839314 19.743252 -0.665035 0.317889 -0.078356
    54 -2.655510 -1.533379 24.792648 -1.367622 -0.140733 0.079424
    55 -1.120216 -0.154385 9.795983 -0.053852 0.005387 0.473289
    56 -2.240372 -0.308788 19.592047 0.019469 0.385886 0.984151
    57 -0.683205 2.877342 14.167089 -1.604576 0.208954 -1.789836
    58 -0.144958 -0.145317 7.579308 -1.541391 0.304896 -0.166506
    59 -0.038551 -0.936644 4.697678 -2.189615 0.238585 -0.365176
    60 -0.506317 8.500896 13.617329 -1.710239 0.278103 -1.993683
    61 0.385056 -0.460075 7.003435 -1.471905 0.596196 -0.385484
    62 -0.456360 -0.710276 5.057732 -1.989925 0.545821 -0.699361
    63 2.452194 -8.899408 11.597939 -1.419591 0.110567 -1.352644
    64 -0.680515 -0.903999 6.074242 -1.453600 -0.173887 -0.003174
    65 -0.248295 -0.666843 3.386627 -1.668601 -0.122156 0.124627
    66 0.717491 -3.784309 13.044010 -1.725758 0.009829 -1.454343
    67 -1.099228 -1.407673 8.017876 -1.350904 -0.015601 0.007733
    68 -0.064053 -0.807640 3.686100 -1.839908 -0.037754 0.018152
    69 4.004906 6.172710 4.754800 -0.720269 -0.940275 -1.497138
    70 -0.158381 -1.149773 5.804405 -0.345801 0.685529 0.599782
    71 1.078559 -2.386406 5.215008 -1.052487 1.087708 -0.156294
    72 6.289963 0.932404 13.569109 -0.126801 -0.612098 -2.869612
    73 -1.327759 -0.766682 12.396324 -0.011395 -0.005815 0.103361
    74 0.000017 -54.999996 0.000000 0.000000 0.000000 -1.570796
  time 2
    0 0.000000 0.000000 -1.500000 0.000000 0.000000 0.000000
    1 -10.521344 -5.760963 66.994621 3.097005 -0.050653 -3.139334
    2 -1.808278 20.464221 11.475608 0.091102 0.490773 0.264943
    3 -0.000034 0.000012 24.761454 -0.944473 -0.109600 0.475594
    4 0.000017 0.000000 24.344809 1.574043 -0.331232 -0.153218
    5 0.002333 -1.019846 24.031336 0.395745 -0.042818 0.016937
    6 0.000034 0.000008 13.404741 -0.000001 -0.000009 0.179460
    7 10.398263 -5.760962 66.994675 3.097005 0.050653 3.139334
    8 -0.144702 15.972598 9.520798 0.751786 -0.283677 0.134971
    9 -0.000004 -0.000006 24.761459 -0.682503 0.079287 -0.595059
    10 -0.000007 0.000004 24.344891 0.864403 -0.139050 -0.095689
    11 -0.002360 -1.019903 24.031330 0.393189 0.082124 0.076153
    12 0.000000 -0.000002 13.404737 0.000001 0.000005 -0.332197
    13 -0.061540 -5.245835 72.927078 0.000000 0.000000 0.000000
    14 0.415399 18.835485 -9.739010 -0.072862 -0.191674 0.387222
    15 0.000000 -0.005608 -1.146812 -0.068320 0.110277 -0.601761
    16 0.030770 -0.240000 8.906021 -0.004138 0.000000 0.000000
    17 0.562540 -0.549942 -0.043368 0.097185 0.097988 0.127514
    18 0.030770 -0.276858 8.905140 0.056125 0.004134 -0.000049
    19 -0.712225 -0.069439 -0.032426 0.038714 -0.246897 0.042556
    20 5.669724 4.435303 14.302868 0.389154 -0.937253 3.906374
    21 -1.044571 -2.839317 19.743267 -0.057696 -0.355210 0.073530
    22 2.655533 -1.533369 24.792658 -0.472072 0.078046 -0.115385
    23 1.120163 -0.154394 9.796035 -0.080913 -0.019065 -0.736567
    24 2.240311 -0.308786 19.592051 -0.154745 0.110987 -1.497150
    25 0.683151 2.877354 14.167051 -1.511326 -0.211747 1.554295
    26 0.144936 -0.145374 7.579252 -1.768092 -0.243253 0.235287
    27 0.091660 -0.906685 4.702850 -1.587437 -0.182568 0.191116
    28 0.506271 8.500866 13.617253 -1.470526 -0.303331 1.571638
    29 -0.384987 -0.460049 7.003448 -1.747476 -0.440889 0.551348
    30 0.561516 -0.596954 5.061852 -1.494372 -0.380569 0.386326
    31 -2.452171 -8.899406 11.597897 -1.564465 -0.075967 1.475308
    32 0.680496 -0.903999 6.074253 -1.628053 0.173822 -0.014264
    33 0.245514 -0.661150 3.388004 -1.484465 0.109507 -0.099205
    34 -0.717484 -3.784271 13.043911 -1.593590 -0.028646 1.464722
    35 1.099216 -1.407745 8.017889 -1.782123 0.031968 -0.017453
    36 0.068439 -0.807653 3.686054 -1.465865 0.034012 -0.009745
    37 -4.004929 6.172707 4.754754 0.109464 1.126798 2.530885
    38 0.158352 -1.149811 5.804394 -0.869542 -0.330219 0.145630
    39 -1.083523 -1.463142 5.544399 -0.797675 -0.152810 -0.023927
    40 -6.289886 0.932434 13.569063 -0.126803 0.612110 2.869610
    41 1.327774 -0.766687 12.396328 -0.010860 0.005588 -0.098788
    42 -0.096140 1.828087 23.185329 -0.168469 -0.062797 -1.476796
    43 2.325478 -0.000003 6.169296 -0.063845 -0.117017 1.429996
    44 0.000000 -3.152912 0.122169 1.961017 0.000000 0.000000
    45 1.068383 -10.478592 7.066338 0.292219 -1.282324 -3.141588
    46 0.000000 0.000000 2.279457 0.547137 -0.343566 0.107833
    47 2.479414 -8.323895 6.074242 -0.030142 -0.311751 1.023881
    48 0.000006 -5.070313 5.929688 0.000000 0.000000 0.000000
    49 -1.068383 -10.478611 7.065971 0.292219 1.282324 3.141588
    50 -0.000488 0.000015 2.279600 0.547136 0.343566 0.107835
    51 -2.479401 -8.323895 6.074234 -0.014785 -0.309228 1.023844
    52 -5.790000 4.432083 14.255558 -5.644519 1.062878 -1.561119
    53 1.044540 -2.839314 19.743252 -0.648338 0.380255 -0.098686
    54 -2.655510 -1.533379 24.792648 -1.365156 -0.138145 0.025731
    55 -1.120216 -0.154385 9.795983 -0.051275 0.004512 0.449812
    56 -2.240372 -0.308788 19.592047 -0.066520 0.344303 0.906479
    57 -0.683205 2.877342 14.167089 -1.604576 0.208954 -1.789836
    58 -0.144958 -0.145317 7.579308 -1.541391 0.304896 -0.166506
    59 -0.038551 -0.936644 4.697678 -2.189566 0.238585 -0.365176
    60 -0.506317 8.500896 13.617329 -1.710239 0.278103 -1.993683
    61 0.385056 -0.460075 7.003435 -1.471905 0.596196 -0.385484
    62 -0.456360 -0.710276 5.057732 -1.989925 0.545821 -0.699361
    63 2.452194 -8.899408 11.597939 -1.419551 0.110567 -1.352644
    64 -0.680515 -0.903999 6.074242 -1.453600 -0.173887 -0.003174
    65 -0.248295 -0.666843 3.386627 -1.668601 -0.122156 0.124627
    66 0.717491 -3.784309 13.044010 -1.725758 0.009829 -1.454343
    67 -1.099228 -1.407673 8.017876 -1.350904 -0.015601 0.007733
    68 -0.064053 -0.807640 3.686100 -1.839908 -0.037754 0.018152
    69 4.004906 6.172710 4.754800 -0.720269 -0.940275 -1.497138
    70 -0.158381 -1.149773 5.804405 -0.345801 0.685529 0.599782
    71 1.078559 -2.386406 5.215008 -1.052487 1.087708 -0.156294
    72 6.289963 0.932404 13.569109 -0.126801 -0.612098 -2.869612
    73 -1.327759 -0.766682 12.396324 -0.008794 -0.004629 0.080321
    74 0.000017 -54.999996 0.000000 0.000000 0.000000 -1.570796
  time 3
    0 0.000000 0.000000 -1.500000 0.000000 0.000000 0.000000
    1 -10.521344 -5.760963 66.994621 3.097005 -0.050653 -3.139334
    2 -4.554455 17.333588 12.013797 -0.048543 0.531300 0.167165
    3 -0.000034 0.000012 24.761454 -0.826097 -0.095902 0.516760
    4 0.000017 0.000000 24.344809 1.539336 -0.426321 -0.185325
    5 0.002333 -1.019846 24.031336 0.391452 -0.042746 0.017117
    6 0.000034 0.000008 13.404741 -0.000001 -0.000009 0.186758
    7 10.398263 -5.760962 66.994675 3.097005 0.050653 3.139334
    8 -3.031509 14.174128 9.633198 0.773284 -0.214321 0.114837
    9 -0.000004 -0.000006 24.761459 -0.775833 0.090097 -0.527267
    10 -0.000007 0.000004 24.344891 0.963342 -0.162070 -0.118326
    11 -0.002360 -1.019903 24.031330 0.392613 0.074083 0.070089
    12 0.000000 -0.000002 13.404737 0.000001 0.000005 -0.311329
    13 -0.061540 -5.245835 72.927078 0.000000 0.000000 0.000000
    14 2.927194 16.261787 -10.212163 -0.042586 -0.252922 0.304588
    15 0.000000 -0.005608 -1.146812 -0.072020 0.119971 -0.458058
    16 0.030770 -0.240000 8.906021 -0.004138 0.000000 0.000000
    17 0.382847 -0.635882 -0.035556 0.089168 0.096937 -0.100627
    18 0.030770 -0.276858 8.905140 0.056125 0.004134 -0.000049
    19 -0.720037 -0.178817 -0.036333 0.089651 -0.252266 0.002899
    20 5.669724 4.435303 14.302868 0.357954 -0.907268 3.976620
    21 -1.044571 -2.839317 19.743267 0.009912 -0.390121 0.063040
    22 2.655533 -1.533369 24.792658 -0.332422 0.068593 0.011827
    23 1.120163 -0.154394 9.796035 -0.081297 -0.019305 -0.740361
    24 2.240311 -0.308786 19.592051 -0.140514 0.170156 -1.511433
    25 0.683151 2.877354 14.167051 -1.511326 -0.211747 1.554295
    26 0.144936 -0.145374 7.579252 -1.768092 -0.243253 0.235287
    27 0.091660 -0.906685 4.702850 -1.587437 -0.182568 0.191116
    28 0.506271 8.500866 13.617253 -1.470526 -0.303331 1.571638
    29 -0.384987 -0.460049 7.003448 -1.747476 -0.440889 0.551348
    30 0.561516 -0.596954 5.061852 -1.494372 -0.380569 0.386326
    31 -2.452171 -8.899406 11.597897 -1.564465 -0.075967 1.475308
    32 0.680496 -0.903999 6.074253 -1.628053 0.173822 -0.014264
    33 0.245514 -0.661150 3.388004 -1.484465 0.109507 -0.099205
    34 -0.717484 -3.784271 13.043911 -1.593546 -0.028646 1.464722
    35 1.099216 -1.407745 8.017889 -1.782123 0.031968 -0.017453
    36 0.068439 -0.807653 3.686054 -1.465865 0.034012 -0.009745
    37 -4.004929 6.172707 4.754754 0.109464 1.126798 2.530885
    38 0.158352 -1.149811 5.804394 -0.869542 -0.330219 0.145630
    39 -1.083523 -1.463142 5.544399 -0.797675 -0.152810 -0.023927
    40 -6.289886 0.932434 13.569063 -0.126803 0.612110 2.869610
    41 1.327774 -0.766687 12.396328 -0.002866 0.001621 -0.026477
    42 -0.096140 1.828087 23.185329 -0.204886 -0.044027 -1.296697
    43 2.325478 -0.000003 6.169296 -0.100183 -0.049910 1.644287
    44 0.000000 -3.152912 0.122169 1.961017 0.000000 0.000000
    45 1.068383 -10.478592 7.066338 0.292219 -1.282324 -3.141588
    46 0.000000 0.000000 2.279457 0.547137 -0.343566 0.107833
    47 2.479414 -8.323895 6.074242 -0.031800 -0.310530 0.969441
    48 0.000006 -5.070313 5.929688 0.000000 0.000000 0.000000
    49 -1.068383 -10.478611 7.065971 0.292219 1.282324 3.141588
    50 -0.000488 0.000015 2.279600 0.547136 0.343566 0.107835
    51 -2.479401 -8.323895 6.074234 -0.017054 -0.307858 0.968564
    52 -5.790000 4.432083 14.255558 -5.577514 1.078330 -1.617171
    53 1.044540 -2.839314 19.743252 -0.613498 0.409043 -0.107749
    54 -2.655510 -1.533379 24.792648 -1.357054 -0.135155 -0.017511
    55 -1.120216 -0.154385 9.795983 -0.047991 0.003493 0.420023
    56 -2.240372 -0.308788 19.592047 -0.134258 0.298264 0.825370
    57 -0.683205 2.877342 14.167089 -1.604576 0.208954 -1.789836
    58 -0.144958 -0.145317 7.579308 -1.541391 0.304896 -0.166506
    59 -0.038551 -0.936644 4.697678 -2.189566 0.238585 -0.365176
    60 -0.506317 8.500896 13.617329 -1.710239 0.278103 -1.993683
    61 0.385056 -0.460075 7.003435 -1.471905 0.596196 -0.385484
    62 -0.456360 -0.710276 5.057732 -1.989925 0.545821 -0.699361
    63 2.452194 -8.899408 11.597939 -1.419551 0.110567 -1.352644
    64 -0.680515 -0.903999 6.074242 -1.453600 -0.173887 -0.003174
    65 -0.248295 -0.666843 3.386627 -1.668601 -0.122156 0.124627
    66 0.717491 -3.784309 13.044010 -1.725758 0.009829 -1.454343
    67 -1.099228 -1.407673 8.017876 -1.350904 -0.015601 0.007733
    68 -0.064053 -0.807640 3.686100 -1.839908 -0.037754 0.018152
    69 4.004906 6.172710 4.754800 -0.720269 -0.940275 -1.497138
    70 -0.158381 -1.149773 5.804405 -0.345801 0.685529 0.599782
    71 1.078559 -2.386406 5.215008 -1.052487 1.087708 -0.156294
    72 6.289963 0.932404 13.569109 -0.126801 -0.612098 -2.869612
    73 -1.327759 -0.766682 12.396324 -0.006601 -0.003550 0.060520
    74 0.000017 -54.999996 0.000000 0.000000 0.000000 -1.570796
  time 4
    0 0.000000 0.000000 -1.500000 0.000000 0.000000 0.000000
    1 -10.521344 -5.760963 66.994621 3.097005 -0.050653 -3.139334
    2 -6.265445 13.846923 12.753806 -0.198025 0.528684 0.096694
    3 -0.000034 0.000012 24.761454 -0.684549 -0.079507 0.528364
    4 0.000017 0.000000 24.344809 1.513629 -0.516701 -0.196301
    5 0.002333 -1.019846 24.031336 0.389660 -0.042710 0.017201
    6 0.000034 0.000008 13.404741 -0.000001 -0.000009 0.188804
    7 10.398263 -5.760962 66.994675 3.097005 0.050653 3.139334
    8 -4.664371 11.314062 9.768079 0.774734 -0.192336 0.112279
    9 -0.000004 -0.000006 24.761459 -0.895452 0.103951 -0.495579
    10 -0.000007 0.000004 24.344891 1.086871 -0.156404 -0.135855
    11 -0.002360 -1.019903 24.031330 0.392036 0.065682 0.063761
    12 0.000000 -0.000002 13.404737 0.000001 0.000005 -0.303557
    13 -0.061540 -5.245835 72.927078 0.000000 0.000000 0.000000
    14 4.321768 13.035929 -10.820503 -0.003860 -0.307547 0.176494
    15 0.000000 -0.005608 -1.146812 -0.072403 0.130684 -0.305061
    16 0.030770 -0.240000 8.906021 -0.004138 0.000000 0.000000
    17 0.203154 -0.717916 -0.035556 0.092345 0.093810 -0.283922
    18 0.030770 -0.276858 8.905140 0.056125 0.004134 -0.000049
    19 -0.696599 -0.237413 -0.036333 0.120785 -0.244922 -0.027002
    20 5.669724 4.435303 14.302868 -0.062481 -0.971888 4.057887
    21 -1.044571 -2.839317 19.743267 0.089897 -0.459056 0.041353
    22 2.655533 -1.533369 24.792658 -0.211346 0.067632 0.019429
    23 1.120163 -0.154394 9.796035 -0.081548 -0.019484 -0.743086
    24 2.240311 -0.308786 19.592051 -0.136771 0.217813 -1.522629
    25 0.683151 2.877354 14.167051 -1.511326 -0.211747 1.554295
    26 0.144936 -0.145374 7.579252 -1.768092 -0.243253 0.235287
    27 0.091660 -0.906685 4.702850 -1.587437 -0.182568 0.191116
    28 0.506271 8.500866 13.617253 -1.470526 -0.303331 1.571638
    29 -0.384987 -0.460049 7.003448 -1.747476 -0.440889 0.551348
    30 0.561516 -0.596954 5.061852 -1.494372 -0.380569 0.386326
    31 -2.452171 -8.899406 11.597897 -1.564465 -0.075967 1.475308
    32 0.680496 -0.903999 6.074253 -1.628053 0.173822 -0.014264
    33 0.245514 -0.661150 3.388004 -1.484465 0.109507 -0.099205
    34 -0.717484 -3.784271 13.043911 -1.593590 -0.028634 1.464722
    35 1.099216 -1.407745 8.017889 -1.782123 0.031968 -0.017453
    36 0.068439 -0.807653 3.686054 -1.465865 0.034012 -0.009745
    37 -4.004929 6.172707 4.754754 0.109464 1.126798 2.530885
    38 0.158352 -1.149811 5.804394 -0.869542 -0.330219 0.145630
    39 -1.083523 -1.463142 5.544399 -0.797675 -0.152810 -0.023927
    40 -6.289886 0.932434 13.569063 -0.126803 0.612110 2.869610
    41 1.327774 -0.766687 12.396328 -0.000254 0.000147 -0.002273
    42 -0.096140 1.828087 23.185329 -0.235499 -0.017673 -1.143287
    43 2.325478 -0.000003 6.169296 -0.110067 0.014129 1.825250
    44 0.000000 -3.152912 0.122169 1.961017 0.000000 0.000000
    45 1.068383 -10.478592 7.066338 0.292219 -1.282324 -3.141588
    46 0.000000 0.000000 2.279457 0.547137 -0.343566 0.107833
    47 2.479414 -8.323895 6.074242 -0.031719 -0.307571 0.971924
    48 0.000006 -5.070313 5.929688 0.000000 0.000000 0.000000
    49 -1.068383 -10.478611 7.065971 0.292219 1.282324 3.141588
    50 -0.000488 0.000015 2.279600 0.547136 0.343566 0.107835
    51 -2.479401 -8.323895 6.074234 -0.016913 -0.304456 0.971246
    52 -5.790000 4.432083 14.255558 -5.521437 1.089171 -1.670827
    53 1.044540 -2.839314 19.743252 -0.560290 0.410993 -0.107150
    54 -2.655510 -1.533379 24.792648 -1.349656 -0.133550 -0.032657
    55 -1.120216 -0.154385 9.795983 -0.044192 0.002475 0.385991
    56 -2.240372 -0.308788 19.592047 -0.163048 0.263117 0.749674
    57 -0.683205 2.877342 14.167089 -1.604527 0.208954 -1.789836
    58 -0.144958 -0.145317 7.579308 -1.541391 0.304896 -0.166506
    59 -0.038551 -0.936644 4.697678 -2.189566 0.238585 -0.365176
    60 -0.506317 8.500896 13.617329 -1.710239 0.278103 -1.993683
    61 0.385056 -0.460075 7.003435 -1.471905 0.596196 -0.385484
    62 -0.456360 -0.710276 5.057732 -1.989925 0.545821 -0.699361
    63 2.452194 -8.899408 11.597939 -1.419551 0.110567 -1.352644
    64 -0.680515 -0.903999 6.074242 -1.453600 -0.173887 -0.003174
    65 -0.248295 -0.666843 3.386627 -1.668601 -0.122156 0.124627
    66 0.717491 -3.784309 13.044010 -1.725758 0.009829 -1.454343
    67 -1.099228 -1.407673 8.017876 -1.350904 -0.015601 0.007733
    68 -0.064053 -0.807640 3.686100 -1.839908 -0.037754 0.018152
    69 4.004906 6.172710 4.754800 -0.720269 -0.940275 -1.497138
    70 -0.158381 -1.149773 5.804405 -0.345801 0.685529 0.599782
    71 1.078559 -2.386406 5.215008 -1.052487 1.087708 -0.156294
    72 6.289963 0.932404 13.569109 -0.126801 -0.612098 -2.869612
    73 -1.327759 -0.766682 12.396324 -0.005894 -0.003203 0.054135
    74 0.000017 -54.999996 0.000000 0.000000 0.000000 -1.570796
  time 5
    0 0.000000 0.000000 -1.500000 0.000000 0.000000 0.000000
    1 -10.521344 -5.760963 66.994621 3.097005 -0.050653 -3.139334
    2 -1.167633 5.388076 19.189649 -0.142071 0.566874 0.538224
    3 -0.000034 0.000012 24.761454 -0.811665 -0.094224 -0.053619
    4 0.000017 0.000000 24.344809 1.910698 -0.568920 -0.265117
    5 0.002333 -1.019846 24.031336 0.389660 -0.042698 0.017201
    6 0.000034 0.000008 13.404741 -0.000001 -0.000009 -0.034680
    7 10.398263 -5.760962 66.994675 3.097005 0.050653 3.139334
    8 4.238244 -6.171057 18.040782 0.503278 -0.678161 0.455713
    9 -0.000004 -0.000006 24.761459 -1.652821 0.191546 -0.799080
    10 -0.000007 0.000004 24.344891 1.824107 0.150834 -0.004741
    11 -0.002360 -1.019903 24.031330 0.391022 0.047633 0.050206
    12 0.000000 -0.000002 13.404737 0.000001 0.000005 -0.375265
    13 -0.061540 -5.245835 72.927078 0.000000 0.000000 0.000000
    14 -1.920610 0.295540 -18.728919 0.128669 -0.328193 -0.681249
    15 0.000000 -0.005608 -1.146812 -0.040665 0.311516 0.057701
    16 0.030770 -0.240000 8.906021 -0.004138 0.000000 0.000000
    17 0.039087 -0.796043 -0.055087 0.119534 0.060272 -0.238717
    18 0.030770 -0.276858 8.905140 0.056125 0.004134 -0.000049
    19 -0.516906 -0.061626 -0.012895 0.055907 -0.184031 -0.013628
    20 5.669724 4.435303 14.302868 0.969704 -1.402101 1.680448
    21 -1.044571 -2.839317 19.743267 -0.243007 -0.360742 0.086785
    22 2.655533 -1.533369 24.792658 -0.060456 0.047420 0.296820
    23 1.120163 -0.154394 9.796035 -0.077617 -0.016896 -0.702384
    24 2.240311 -0.308786 19.592051 -0.187166 0.205104 -1.449992
    25 0.683151 2.877354 14.167051 -1.511326 -0.211747 1.554295
    26 0.144936 -0.145374 7.579252 -1.768092 -0.243253 0.235287
    27 0.091660 -0.906685 4.702850 -1.587437 -0.182568 0.191116
    28 0.506271 8.500866 13.617253 -1.470526 -0.303331 1.571638
    29 -0.384987 -0.460049 7.003448 -1.747476 -0.440889 0.551348
    30 0.561516 -0.596954 5.061852 -1.494407 -0.380569 0.386326
    31 -2.452171 -8.899406 11.597897 -1.564465 -0.075967 1.475308
    32 0.680496 -0.903999 6.074253 -1.628053 0.173822 -0.014264
    33 0.245514 -0.661150 3.388004 -1.484465 0.109507 -0.099205
    34 -0.717484 -3.784271 13.043911 -1.593590 -0.028646 1.464722
    35 1.099216 -1.407745 8.017889 -1.782123 0.031968 -0.017453
    36 0.068439 -0.807653 3.686054 -1.465865 0.034012 -0.009745
    37 -4.004929 6.172707 4.754754 0.109464 1.126798 2.530885
    38 0.158352 -1.149811 5.804394 -0.869542 -0.330219 0.145630
    39 -1.083523 -1.463142 5.544399 -0.797675 -0.152810 -0.023927
    40 -6.289886 0.932434 13.569063 -0.126803 0.612110 2.869610
    41 1.327774 -0.766687 12.396328 0.012402 -0.008194 0.120354
    42 -0.096140 1.828087 23.185329 -0.244299 0.001446 -1.054995
    43 2.325478 -0.000003 6.169296 -0.103000 0.052660 1.939640
    44 0.000000 -3.152912 0.122169 1.961017 0.000000 0.000000
    45 1.068383 -10.478592 7.066338 0.292219 -1.282324 -3.141588
    46 0.000000 0.000000 2.279457 0.547137 -0.343566 0.107833
    47 2.479414 -8.323895 6.074242 -0.005647 -0.456246 1.657193
    48 0.000006 -5.070313 5.929688 0.000000 0.000000 0.000000
    49 -1.068383 -10.478611 7.065971 0.292219 1.282324 3.141588
    50 -0.000488 0.000015 2.279600 0.547136 0.343566 0.107835
    51 -2.479401 -8.323895 6.074234 0.013815 -0.447201 1.663164
    52 -5.790000 4.432083 14.255558 -5.475234 1.085765 -1.711836
    53 1.044540 -2.839314 19.743252 -0.311172 0.391321 -0.092780
    54 -2.655510 -1.533379 24.792648 -1.309043 -0.130301 -0.012437
    55 -1.120216 -0.154385 9.795983 -0.036606 0.000809 0.318661
    56 -2.240372 -0.308788 19.592047 -0.080572 0.197723 0.633423
    57 -0.683205 2.877342 14.167089 -1.604576 0.208954 -1.789836
    58 -0.144958 -0.145317 7.579308 -1.541391 0.304896 -0.166506
    59 -0.038551 -0.936644 4.697678 -2.189566 0.238585 -0.365164
    60 -0.506317 8.500896 13.617329 -1.710239 0.278103 -1.993638
    61 0.385056 -0.460075 7.003435 -1.471905 0.596196 -0.385484
    62 -0.456360 -0.710276 5.057732 -1.989925 0.545821 -0.699361
    63 2.452194 -8.899408 11.597939 -1.419551 0.110567 -1.352644
    64 -0.680515 -0.903999 6.074242 -1.453600 -0.173887 -0.003174
    65 -0.248295 -0.666843 3.386627 -1.668601 -0.122156 0.124627
    66 0.717491 -3.784309 13.044010 -1.725758 0.009829 -1.454343
    67 -1.099228 -1.407673 8.017876 -1.350904 -0.015601 0.007733
    68 -0.064053 -0.807640 3.686100 -1.839908 -0.037754 0.018152
    69 4.004906 6.172710 4.754800 -0.720269 -0.940275 -1.497138
    70 -0.158381 -1.149773 5.804405 -0.345801 0.685529 0.599782
    71 1.078559 -2.386406 5.215008 -1.052487 1.087708 -0.156294
    72 6.289963 0.932404 13.569109 -0.126801 -0.612098 -2.869612
    73 -1.327759 -0.766682 12.396324 -0.007524 -0.004017 0.068755
    74 0.000017 -54.999996 0.000000 0.000000 0.000000 -1.570796
  time 6
    0 0.000000 0.000000 -1.500000 0.000000 0.000000 0.000000
    1 -10.521344 -5.760963 66.994621 3.097005 -0.050653 -3.139334
    2 -3.691148 9.476314 21.723622 0.399562 0.509867 1.060974
    3 -0.000034 0.000012 24.761454 -1.180615 -0.136913 -0.437958
    4 0.000017 0.000000 24.344809 2.020429 -0.526729 -0.358326
    5 0.002333 -1.019846 24.031336 0.389585 -0.046197 0.014576
    6 0.000034 0.000008 13.404741 -0.000001 -0.000009 -0.289783
    7 10.398263 -5.760962 66.994675 3.097005 0.050653 3.139334
    8 8.875104 -8.569017 20.243839 -0.016857 -0.789403 1.102560
    9 -0.000004 -0.000006 24.761459 -1.644132 0.190551 -1.023414
    10 -0.000007 0.000004 24.344891 1.956736 0.291488 0.163512
    11 -0.002360 -1.019903 24.031330 0.389824 0.016605 0.027016
    12 0.000000 -0.000002 13.404737 0.000001 0.000005 -0.453414
    13 -0.061540 -5.245835 72.927078 0.000000 0.000000 0.000000
    14 -3.319090 1.017573 -21.274933 0.284914 -0.284011 -1.288930
    15 0.000000 -0.005608 -1.146812 -0.052148 0.315908 0.169745
    16 0.030770 -0.240000 8.906021 -0.004138 0.000000 0.000000
    17 0.023461 -0.850733 -0.066807 0.127973 0.067058 -0.285599
    18 0.030770 -0.276858 8.905140 0.056125 0.004134 -0.000049
    19 -0.513000 -0.018656 -0.008988 0.043861 -0.180863 -0.018122
    20 5.669724 4.435303 14.302868 1.695728 -1.327369 0.798876
    21 -1.044571 -2.839317 19.743267 -0.597289 -0.454203 0.121359
    22 2.655533 -1.533369 24.792658 -0.106283 0.040042 0.368391
    23 1.120163 -0.154394 9.796035 -0.076886 -0.016416 -0.694899
    24 2.240311 -0.308786 19.592051 -0.190343 0.155145 -1.425028
    25 0.683151 2.877354 14.167051 -1.511326 -0.211747 1.554295
    26 0.144936 -0.145374 7.579252 -1.768092 -0.243253 0.235287
    27 0.091660 -0.906685 4.702850 -1.587437 -0.182568 0.191116
    28 0.506271 8.500866 13.617253 -1.470526 -0.303331 1.571638
    29 -0.384987 -0.460049 7.003448 -1.747476 -0.440889 0.551348
    30 0.561516 -0.596954 5.061852 -1.494372 -0.380569 0.386326
    31 -2.452171 -8.899406 11.597897 -1.564465 -0.075967 1.475308
    32 0.680496 -0.903999 6.074253 -1.628053 0.173822 -0.014264
    33 0.245514 -0.661150 3.388004 -1.484465 0.109507 -0.099205
    34 -0.717484 -3.784271 13.043911 -1.593590 -0.028634 1.464722
    35 1.099216 -1.407745 8.017889 -1.782123 0.031968 -0.017453
    36 0.068439 -0.807653 3.686054 -1.465865 0.034012 -0.009745
    37 -4.004929 6.172707 4.754754 0.109464 1.126798 2.530885
    38 0.158352 -1.149811 5.804394 -0.869542 -0.330219 0.145630
    39 -1.083523 -1.463142 5.544399 -0.797727 -0.152810 -0.023927
    40 -6.289886 0.932434 13.569063 -0.126803 0.612110 2.869610
    41 1.327774 -0.766687 12.396328 0.017484 -0.012209 0.172528
    42 -0.096140 1.828087 23.185329 -0.243683 0.014735 -0.997428
    43 2.325478 -0.000003 6.169296 -0.101998 0.059750 1.996276
    44 0.000000 -3.152912 0.122169 1.961017 0.000000 0.000000
    45 1.068383 -10.478592 7.066338 0.292219 -1.282324 -3.141588
    46 0.000000 0.000000 2.279457 0.547137 -0.343566 0.107833
    47 2.479414 -8.323895 6.074242 0.020234 -0.485126 2.212571
    48 0.000006 -5.070313 5.929688 0.000000 0.000000 0.000000
    49 -1.068383 -10.478611 7.065971 0.292219 1.282324 3.141588
    50 -0.000488 0.000015 2.279600 0.547136 0.343566 0.107835
    51 -2.479401 -8.323895 6.074234 0.035344 -0.468133 2.211370
    52 -5.790000 4.432083 14.255558 -5.510989 1.070521 -1.812826
    53 1.044540 -2.839314 19.743252 -0.248336 0.291730 -0.084153
    54 -2.655510 -1.533379 24.792648 -1.177039 -0.120271 -0.019177
    55 -1.120216 -0.154385 9.795983 -0.042550 0.002055 0.371355
    56 -2.240372 -0.308788 19.592047 -0.034828 0.140298 0.745636
    57 -0.683205 2.877342 14.167089 -1.604576 0.208954 -1.789836
    58 -0.144958 -0.145317 7.579308 -1.541391 0.304896 -0.166506
    59 -0.038551 -0.936644 4.697678 -2.189566 0.238585 -0.365176
    60 -0.506317 8.500896 13.617329 -1.710239 0.278103 -1.993638
    61 0.385056 -0.460075 7.003435 -1.471905 0.596196 -0.385484
    62 -0.456360 -0.710276 5.057732 -1.989925 0.545821 -0.699361
    63 2.452194 -8.899408 11.597939 -1.419551 0.110567 -1.352644
    64 -0.680515 -0.903999 6.074242 -1.453600 -0.173887 -0.003174
    65 -0.248295 -0.666843 3.386627 -1.668601 -0.122156 0.124627
    66 0.717491 -3.784309 13.044010 -1.725758 0.009829 -1.454343
    67 -1.099228 -1.407673 8.017876 -1.350904 -0.015601 0.007733
    68 -0.064053 -0.807640 3.686100 -1.839908 -0.037754 0.018152
    69 4.004906 6.172710 4.754800 -0.720269 -0.940275 -1.497138
    70 -0.158381 -1.149773 5.804405 -0.345801 0.685529 0.599782
    71 1.078559 -2.386406 5.215008 -1.052487 1.087708 -0.156294
    72 6.289963 0.932404 13.569109 -0.126801 -0.612098 -2.869612
    73 -1.327759 -0.766682 12.396324 -0.009082 -0.004761 0.082773
    74 0.000017 -54.999996 0.000000 0.000000 0.000000 -1.570796
  time 7
    0 0.000000 0.000000 -1.500000 0.000000 0.000000 0.000000
    1 -10.521344 -5.760963 66.994621 3.097005 -0.050653 -3.139334
    2 -6.659988 13.257627 23.338189 0.750176 0.262665 1.385328
    3 -0.000034 0.000012 24.761454 -1.403342 -0.162668 -0.711990
    4 0.000017 0.000000 24.344809 1.984243 -0.497847 -0.407761
    5 0.002333 -1.019846 24.031336 0.389436 -0.054539 0.008368
    6 0.000034 0.000008 13.404741 -0.000001 -0.000009 -0.560116
    7 10.398263 -5.760962 66.994675 3.097005 0.050653 3.139334
    8 12.047076 -7.132739 21.952332 -0.353064 -0.755676 1.545591
    9 -0.000004 -0.000006 24.761459 -1.580555 0.183205 -1.118588
    10 -0.000007 0.000004 24.344891 1.998235 0.397367 0.289729
    11 -0.002360 -1.019903 24.031330 0.389409 -0.018546 0.000806
    12 0.000000 -0.000002 13.404737 0.000001 0.000005 -0.482741
    13 -0.061540 -5.245835 72.927078 0.000000 0.000000 0.000000
    14 -3.873794 3.719374 -23.077421 0.416260 -0.198504 -1.693571
    15 0.000000 -0.005608 -1.146812 -0.084141 0.300976 0.248336
    16 0.030770 -0.240000 8.906021 -0.004138 0.000000 0.000000
    17 0.050806 -0.901515 -0.070713 0.129151 0.086163 -0.357160
    18 0.030770 -0.276858 8.905140 0.056125 0.004134 -0.000049
    19 -0.532532 -0.006937 -0.012895 0.039679 -0.186191 -0.026044
    20 5.669724 4.435303 14.302868 1.917478 -1.222229 0.427712
    21 -1.044571 -2.839317 19.743267 -0.771935 -0.473616 0.136672
    22 2.655533 -1.533369 24.792658 -0.175804 0.035085 0.414003
    23 1.120163 -0.154394 9.796035 -0.076695 -0.016297 -0.692795
    24 2.240311 -0.308786 19.592051 -0.193607 0.071020 -1.403862
    25 0.683151 2.877354 14.167051 -1.511326 -0.211747 1.554295
    26 0.144936 -0.145374 7.579252 -1.768092 -0.243253 0.235287
    27 0.091660 -0.906685 4.702850 -1.587437 -0.182568 0.191116
    28 0.506271 8.500866 13.617253 -1.470526 -0.303331 1.571638
    29 -0.384987 -0.460049 7.003448 -1.747476 -0.440889 0.551348
    30 0.561516 -0.596954 5.061852 -1.494372 -0.380569 0.386326
    31 -2.452171 -8.899406 11.597897 -1.564465 -0.075967 1.475308
    32 0.680496 -0.903999 6.074253 -1.628053 0.173822 -0.014264
    33 0.245514 -0.661150 3.388004 -1.484465 0.109507 -0.099205
    34 -0.717484 -3.784271 13.043911 -1.593590 -0.028634 1.464722
    35 1.099216 -1.407745 8.017889 -1.782123 0.031968 -0.017453
    36 0.068439 -0.807653 3.686054 -1.465865 0.034012 -0.009745
    37 -4.004929 6.172707 4.754754 0.109464 1.126798 2.530885
    38 0.158352 -1.149811 5.804394 -0.869542 -0.330219 0.145630
    39 -1.083523 -1.463142 5.544399 -0.797779 -0.152798 -0.023927
    40 -6.289886 0.932434 13.569063 -0.126803 0.612110 2.869610
    41 1.327774 -0.766687 12.396328 0.020612 -0.014930 0.205972
    42 -0.096140 1.828087 23.185329 -0.242296 0.026430 -0.940595
    43 2.325478 -0.000003 6.169296 -0.103621 0.068489 2.046167
    44 0.000000 -3.152912 0.122169 1.961017 0.000000 0.000000
    45 1.068383 -10.478592 7.066338 0.292219 -1.282324 -3.141588
    46 0.000000 0.000000 2.279457 0.547137 -0.343566 0.107833
    47 2.479414 -8.323895 6.074242 0.034697 -0.496960 2.584192
    48 0.000006 -5.070313 5.929688 0.000000 0.000000 0.000000
    49 -1.068383 -10.478611 7.065971 0.292231 1.282324 3.141588
    50 -0.000488 0.000015 2.279600 0.547136 0.343566 0.107835
    51 -2.479401 -8.323895 6.074234 0.044061 -0.475741 2.574383
    52 -5.790000 4.432083 14.255558 -5.624293 1.043315 -1.996695
    53 1.044540 -2.839314 19.743252 -0.226463 0.212617 -0.082384
    54 -2.655510 -1.533379 24.792648 -0.948360 -0.110124 0.022474
    55 -1.120216 -0.154385 9.795983 -0.055134 0.005830 0.485177
    56 -2.240372 -0.308788 19.592047 -0.033224 0.069508 0.975129
    57 -0.683205 2.877342 14.167089 -1.604576 0.208934 -1.789823
    58 -0.144958 -0.145317 7.579308 -1.541391 0.304896 -0.166506
    59 -0.038551 -0.936644 4.697678 -2.189566 0.238585 -0.365188
    60 -0.506317 8.500896 13.617329 -1.710239 0.278103 -1.993638
    61 0.385056 -0.460075 7.003435 -1.471905 0.596196 -0.385484
    62 -0.456360 -0.710276 5.057732 -1.989925 0.545821 -0.699361
    63 2.452194 -8.899408 11.597939 -1.419551 0.110567 -1.352620
    64 -0.680515 -0.903999 6.074242 -1.453600 -0.173887 -0.003174
    65 -0.248295 -0.666843 3.386627 -1.668601 -0.122156 0.124627
    66 0.717491 -3.784309 13.044010 -1.725758 0.009829 -1.454343
    67 -1.099228 -1.407673 8.017876 -1.350904 -0.015601 0.007733
    68 -0.064053 -0.807640 3.686100 -1.839908 -0.037754 0.018152
    69 4.004906 6.172710 4.754800 -0.720269 -0.940275 -1.497138
    70 -0.158381 -1.149773 5.804405 -0.345801 0.685529 0.599782
    71 1.078559 -2.386406 5.215008 -1.052487 1.087708 -0.156294
    72 6.289963 0.932404 13.569109 -0.126801 -0.612098 -2.869612
    73 -1.327759 -0.766682 12.396324 -0.014043 -0.006978 0.126817
    74 0.000017 -54.999996 0.000000 0.000000 0.000000 -1.570796
  time 8
    0 0.000000 0.000000 -1.500000 0.000000 0.000000 0.000000
    1 -10.521344 -5.760963 66.994621 3.097005 -0.050653 -3.139334
    2 -8.906150 16.572415 24.302444 0.942357 0.022810 1.509713
    3 -0.000034 0.000012 24.761454 -1.549036 -0.179518 -0.842044
    4 0.000017 0.000000 24.344809 1.885854 -0.459277 -0.411347
    5 0.002333 -1.019846 24.031336 0.389436 -0.064354 0.001058
    6 0.000034 0.000008 13.404741 -0.000001 -0.000009 -0.750125
    7 10.398263 -5.760962 66.994675 3.097005 0.050653 3.139334
    8 13.386961 -4.310141 22.963940 -0.521295 -0.725753 1.787364
    9 -0.000004 -0.000006 24.761459 -1.511918 0.175259 -1.150169
    10 -0.000007 0.000004 24.344891 1.987844 0.467383 0.363925
    11 -0.002360 -1.019903 24.031330 0.389709 -0.048400 -0.021486
    12 0.000000 -0.000002 13.404737 0.000001 0.000005 -0.493390
    13 -0.061540 -5.245835 72.927078 0.000000 0.000000 0.000000
    14 -3.807386 6.980168 -24.113852 0.510128 -0.118571 -1.908982
    15 0.000000 -0.005608 -1.146812 -0.116230 0.276523 0.296735
    16 0.030770 -0.240000 8.906021 -0.004138 0.000000 0.000000
    17 0.082057 -0.924954 -0.074619 0.125595 0.105407 -0.432914
    18 0.030770 -0.276858 8.905140 0.056125 0.004134 -0.000049
    19 -0.567689 0.000876 -0.012895 0.040644 -0.193535 -0.034768
    20 5.669724 4.435303 14.302868 1.982270 -1.138265 0.249366
    21 -1.044571 -2.839317 19.743267 -0.843212 -0.461770 0.132837
    22 2.655533 -1.533369 24.792658 -0.264897 0.031050 0.455814
    23 1.120163 -0.154394 9.796035 -0.076659 -0.016273 -0.692381
    24 2.240311 -0.308786 19.592051 -0.195043 -0.017986 -1.385702
    25 0.683151 2.877354 14.167051 -1.511326 -0.211747 1.554295
    26 0.144936 -0.145374 7.579252 -1.768092 -0.243253 0.235287
    27 0.091660 -0.906685 4.702850 -1.587437 -0.182568 0.191116
    28 0.506271 8.500866 13.617253 -1.470526 -0.303331 1.571638
    29 -0.384987 -0.460049 7.003448 -1.747476 -0.440889 0.551348
    30 0.561516 -0.596954 5.061852 -1.494407 -0.380569 0.386326
    31 -2.452171 -8.899406 11.597897 -1.564465 -0.075967 1.475308
    32 0.680496 -0.903999 6.074253 -1.628053 0.173822 -0.014264
    33 0.245514 -0.661150 3.388004 -1.484465 0.109507 -0.099205
    34 -0.717484 -3.784271 13.043911 -1.593590 -0.028658 1.464722
    35 1.099216 -1.407745 8.017889 -1.782123 0.031968 -0.017453
    36 0.068439 -0.807653 3.686054 -1.465865 0.034012 -0.009745
    37 -4.004929 6.172707 4.754754 0.109464 1.126798 2.530885
    38 0.158352 -1.149811 5.804394 -0.869542 -0.330219 0.145630
    39 -1.083523 -1.463142 5.544399 -0.797727 -0.152810 -0.023913
    40 -6.289886 0.932434 13.569063 -0.126803 0.612110 2.869610
    41 1.327774 -0.766687 12.396328 0.022889 -0.017015 0.230879
    42 -0.096140 1.828087 23.185329 -0.240807 0.034874 -0.895012
    43 2.325478 -0.000003 6.169296 -0.105436 0.077937 2.087157
    44 0.000000 -3.152912 0.122169 1.961017 0.000000 0.000000
    45 1.068383 -10.478592 7.066338 0.292219 -1.282324 -3.141588
    46 0.000000 0.000000 2.279457 0.547137 -0.343566 0.107833
    47 2.479414 -8.323895 6.074242 0.040760 -0.504192 2.789438
    48 0.000006 -5.070313 5.929688 0.000000 0.000000 0.000000
    49 -1.068383 -10.478611 7.065971 0.292219 1.282324 3.141588
    50 -0.000488 0.000015 2.279600 0.547136 0.343566 0.107835
    51 -2.479401 -8.323895 6.074234 0.046390 -0.480655 2.774715
    52 -5.790000 4.432083 14.255558 -5.733379 1.007385 -2.188038
    53 1.044540 -2.839314 19.743252 -0.225183 0.159790 -0.081894
    54 -2.655510 -1.533379 24.792648 -0.721090 -0.106241 0.105248
    55 -1.120216 -0.154385 9.795983 -0.067346 0.011092 0.600277
    56 -2.240372 -0.308788 19.592047 -0.068353 0.010054 1.207544
    57 -0.683205 2.877342 14.167089 -1.604576 0.208954 -1.789836
    58 -0.144958 -0.145317 7.579308 -1.541391 0.304896 -0.166506
    59 -0.038551 -0.936644 4.697678 -2.189566 0.238585 -0.365176
    60 -0.506317 8.500896 13.617329 -1.710239 0.278103 -1.993683
    61 0.385056 -0.460075 7.003435 -1.471905 0.596196 -0.385484
    62 -0.456360 -0.710276 5.057732 -1.989925 0.545821 -0.699361
    63 2.452194 -8.899408 11.597939 -1.419591 0.110544 -1.352644
    64 -0.680515 -0.903999 6.074242 -1.453600 -0.173887 -0.003174
    65 -0.248295 -0.666843 3.386627 -1.668601 -0.122156 0.124627
    66 0.717491 -3.784309 13.044010 -1.725758 0.009829 -1.454343
    67 -1.099228 -1.407673 8.017876 -1.350904 -0.015601 0.007733
    68 -0.064053 -0.807640 3.686100 -1.839908 -0.037754 0.018152
    69 4.004906 6.172710 4.754800 -0.720269 -0.940275 -1.497138
    70 -0.158381 -1.149773 5.804405 -0.345801 0.685529 0.599782
    71 1.078559 -2.386406 5.215008 -1.052487 1.087708 -0.156294
    72 6.289963 0.932404 13.569109 -0.126801 -0.612098 -2.869612
    73 -1.327759 -0.766682 12.396324 -0.020299 -0.009399 0.181132
    74 0.000017 -54.999996 0.000000 0.000000 0.000000 -1.570796
  time 9
    0 0.000000 0.000000 -1.500000 0.000000 0.000000 0.000000
    1 -10.521344 -5.760963 66.994621 3.097005 -0.050653 -3.139334
    2 -10.140563 18.868212 24.728510 1.042855 -0.107318 1.531252
    3 -0.000034 0.000012 24.761454 -1.629972 -0.188866 -0.858453
    4 0.000017 0.000000 24.344809 1.797329 -0.422654 -0.387084
    5 0.002333 -1.019846 24.031336 0.389436 -0.072348 -0.004899
    6 0.000034 0.000008 13.404741 -0.000001 -0.000009 -0.812076
    7 10.398263 -5.760962 66.994675 3.097005 0.050653 3.139334
    8 13.273676 -1.999607 23.233702 -0.579903 -0.741190 1.881763
    9 -0.000004 -0.000006 24.761459 -1.480020 0.171580 -1.157885
    10 -0.000007 0.000004 24.344891 1.950153 0.493358 0.387949
    11 -0.002360 -1.019903 24.031330 0.390124 -0.063632 -0.032871
    12 0.000000 -0.000002 13.404737 0.000001 0.000005 -0.495687
    13 -0.061540 -5.245835 72.927078 0.000000 0.000000 0.000000
    14 -3.342528 9.402473 -24.451818 0.552598 -0.080291 -1.970297
    15 0.000000 -0.005608 -1.146812 -0.128670 0.252917 0.315758
    16 0.030770 -0.240000 8.906021 -0.004138 0.000000 0.000000
    17 0.058619 -0.944485 -0.074619 0.123848 0.114029 -0.491537
    18 0.030770 -0.276858 8.905140 0.056125 0.004134 -0.000049
    19 -0.575502 -0.003031 -0.016801 0.043039 -0.196888 -0.041720
    20 5.669724 4.435303 14.302868 1.994329 -1.090593 0.183241
    21 -1.044571 -2.839317 19.743267 -0.890567 -0.464640 0.134980
    22 2.655533 -1.533369 24.792658 -0.371479 0.029052 0.490912
    23 1.120163 -0.154394 9.796035 -0.076407 -0.016141 -0.690070
    24 2.240311 -0.308786 19.592051 -0.192780 -0.082219 -1.369403
    25 0.683151 2.877354 14.167051 -1.511326 -0.211747 1.554295
    26 0.144936 -0.145374 7.579252 -1.768092 -0.243253 0.235287
    27 0.091660 -0.906685 4.702850 -1.587437 -0.182568 0.191116
    28 0.506271 8.500866 13.617253 -1.470526 -0.303331 1.571638
    29 -0.384987 -0.460049 7.003448 -1.747476 -0.440889 0.551348
    30 0.561516 -0.596954 5.061852 -1.494372 -0.380569 0.386326
    31 -2.452171 -8.899406 11.597897 -1.564465 -0.075967 1.475308
    32 0.680496 -0.903999 6.074253 -1.628053 0.173822 -0.014264
    33 0.245514 -0.661150 3.388004 -1.484465 0.109507 -0.099205
    34 -0.717484 -3.784271 13.043911 -1.593590 -0.028658 1.464722
    35 1.099216 -1.407745 8.017889 -1.782123 0.031968 -0.017453
    36 0.068439 -0.807653 3.686054 -1.465865 0.034012 -0.009745
    37 -4.004929 6.172707 4.754754 0.109464 1.126798 2.530885
    38 0.158352 -1.149811 5.804394 -0.869542 -0.330219 0.145630
    39 -1.083523 -1.463142 5.544399 -0.797675 -0.152810 -0.023927
    40 -6.289886 0.932434 13.569063 -0.126803 0.612110 2.869610
    41 1.327774 -0.766687 12.396328 0.024495 -0.018537 0.248856
    42 -0.096140 1.828087 23.185329 -0.239899 0.038603 -0.871227
    43 2.325478 -0.000003 6.169296 -0.105483 0.086763 2.117571
    44 0.000000 -3.152912 0.122169 1.961017 0.000000 0.000000
    45 1.068383 -10.478592 7.066338 0.292219 -1.282324 -3.141588
    46 0.000000 0.000000 2.279457 0.547137 -0.343566 0.107833
    47 2.479414 -8.323895 6.074242 0.042173 -0.500248 2.856007
    48 0.000006 -5.070313 5.929688 0.000000 0.000000 0.000000
    49 -1.068383 -10.478611 7.065971 0.292219 1.282324 3.141588
    50 -0.000488 0.000015 2.279600 0.547136 0.343566 0.107835
    51 -2.479401 -8.323895 6.074234 0.046611 -0.475977 2.839959
    52 -5.790000 4.432083 14.255558 -5.787442 0.982338 -2.337702
    53 1.044540 -2.839314 19.743252 -0.233587 0.123286 -0.081023
    54 -2.655510 -1.533379 24.792648 -0.592759 -0.107082 0.199304
    55 -1.120216 -0.154385 9.795983 -0.073123 0.014184 0.656944
    56 -2.240372 -0.308788 19.592047 -0.092256 -0.035440 1.325083
    57 -0.683205 2.877342 14.167089 -1.604527 0.208954 -1.789836
    58 -0.144958 -0.145317 7.579308 -1.541391 0.304896 -0.166506
    59 -0.038551 -0.936644 4.697678 -2.189566 0.238585 -0.365176
    60 -0.506317 8.500896 13.617329 -1.710239 0.278103 -1.993683
    61 0.385056 -0.460075 7.003435 -1.471905 0.596196 -0.385484
    62 -0.456360 -0.710276 5.057732 -1.989925 0.545821 -0.699361
    63 2.452194 -8.899408 11.597939 -1.419551 0.110567 -1.352644
    64 -0.680515 -0.903999 6.074242 -1.453600 -0.173887 -0.003174
    65 -0.248295 -0.666843 3.386627 -1.668601 -0.122156 0.124627
    66 0.717491 -3.784309 13.044010 -1.725758 0.009829 -1.454343
    67 -1.099228 -1.407673 8.017876 -1.350904 -0.015601 0.007733
    68 -0.064053 -0.807640 3.686100 -1.839908 -0.037754 0.018152
    69 4.004906 6.172710 4.754800 -0.720269 -0.940275 -1.497138
    70 -0.158381 -1.149773 5.804405 -0.345801 0.685529 0.599782
    71 1.078559 -2.386406 5.215008 -1.052487 1.087708 -0.156294
    72 6.289963 0.932404 13.569109 -0.126801 -0.612098 -2.869612
    73 -1.327759 -0.766682 12.396324 -0.025572 -0.011136 0.226102
    74 0.000017 -54.999996 0.000000 0.000000 0.000000 -1.570796
  time 10
    0 0.000000 0.000000 -1.500000 0.000000 0.000000 0.000000
    1 -10.521344 -5.760963 66.994621 3.097005 -0.050653 -3.139334
    2 -11.046841 20.378282 24.369718 1.092591 -0.143226 1.520985
    3 -0.000034 0.000012 24.761454 -1.643509 -0.190436 -0.813582
    4 0.000017 0.000000 24.344809 1.715832 -0.398050 -0.355366
    5 0.002333 -1.019846 24.031336 0.389473 -0.077465 -0.008722
    6 0.000034 0.000008 13.404741 -0.000001 -0.000009 -0.787207
    7 10.398263 -5.760962 66.994675 3.097005 0.050653 3.139334
    8 12.226769 -0.475904 22.649218 -0.571116 -0.784611 1.891335
    9 -0.000004 -0.000006 24.761459 -1.470505 0.170465 -1.167467
    10 -0.000007 0.000004 24.344891 1.887098 0.483359 0.370756
    11 -0.002360 -1.019903 24.031330 0.390239 -0.067803 -0.035999
    12 0.000000 -0.000002 13.404737 0.000001 0.000005 -0.500389
    13 -0.061540 -5.245835 72.927078 0.000000 0.000000 0.000000
    14 -2.358123 10.962996 -23.888541 0.542453 -0.082183 -1.960268
    15 0.000000 -0.005608 -1.146812 -0.120472 0.234205 0.320051
    16 0.030770 -0.240000 8.906021 -0.004138 0.000000 0.000000
    17 0.003930 -0.960111 -0.078526 0.125510 0.113661 -0.534306
    18 0.030770 -0.276858 8.905140 0.056125 0.004134 -0.000049
    19 -0.575502 -0.010843 -0.016801 0.045577 -0.197176 -0.046921
    20 5.669724 4.435303 14.302868 1.995382 -1.073610 0.179024
    21 -1.044571 -2.839317 19.743267 -0.945848 -0.487810 0.149222
    22 2.655533 -1.533369 24.792658 -0.505054 0.030051 0.518490
    23 1.120163 -0.154394 9.796035 -0.076119 -0.015949 -0.687069
    24 2.240311 -0.308786 19.592051 -0.188428 -0.124028 -1.356940
    25 0.683151 2.877354 14.167051 -1.511326 -0.211747 1.554295
    26 0.144936 -0.145374 7.579252 -1.768092 -0.243253 0.235287
    27 0.091660 -0.906685 4.702850 -1.587437 -0.182568 0.191116
    28 0.506271 8.500866 13.617253 -1.470526 -0.303331 1.571638
    29 -0.384987 -0.460049 7.003448 -1.747476 -0.440889 0.551348
    30 0.561516 -0.596954 5.061852 -1.494372 -0.380557 0.386326
    31 -2.452171 -8.899406 11.597897 -1.564465 -0.075967 1.475308
    32 0.680496 -0.903999 6.074253 -1.628053 0.173822 -0.014264
    33 0.245514 -0.661150 3.388004 -1.484465 0.109507 -0.099205
    34 -0.717484 -3.784271 13.043911 -1.593590 -0.028646 1.464722
    35 1.099216 -1.407745 8.017889 -1.782123 0.031968 -0.017453
    36 0.068439 -0.807653 3.686054 -1.465865 0.034012 -0.009745
    37 -4.004929 6.172707 4.754754 0.109464 1.126798 2.530885
    38 0.158352 -1.149811 5.804394 -0.869542 -0.330219 0.145630
    39 -1.083523 -1.463142 5.544399 -0.797675 -0.152810 -0.023927
    40 -6.289886 0.932434 13.569063 -0.126803 0.612110 2.869610
    41 1.327774 -0.766687 12.396328 0.025609 -0.019664 0.261611
    42 -0.096140 1.828087 23.185329 -0.239625 0.039017 -0.863585
    43 2.325478 -0.000003 6.169296 -0.103048 0.095893 2.146068
    44 0.000000 -3.152912 0.122169 1.961017 0.000000 0.000000
    45 1.068383 -10.478592 7.066338 0.292219 -1.282324 -3.141588
    46 0.000000 0.000000 2.279457 0.547137 -0.343566 0.107833
    47 2.479414 -8.323895 6.074242 0.041847 -0.490574 2.849417
    48 0.000006 -5.070313 5.929688 0.000000 0.000000 0.000000
    49 -1.068383 -10.478611 7.065971 0.292219 1.282324 3.141588
    50 -0.000488 0.000015 2.279600 0.547136 0.343566 0.107835
    51 -2.479401 -8.323895 6.074234 0.046370 -0.466763 2.833636
    52 -5.790000 4.432083 14.255558 -5.803546 0.970002 -2.459196
    53 1.044540 -2.839314 19.743252 -0.246555 0.091870 -0.079499
    54 -2.655510 -1.533379 24.792648 -0.563369 -0.107949 0.296769
    55 -1.120216 -0.154385 9.795983 -0.073099 0.014172 0.656726
    56 -2.240372 -0.308788 19.592047 -0.085841 -0.084003 1.329551
    57 -0.683205 2.877342 14.167089 -1.604527 0.208954 -1.789836
    58 -0.144958 -0.145317 7.579308 -1.541391 0.304896 -0.166506
    59 -0.038551 -0.936644 4.697678 -2.189566 0.238585 -0.365176
    60 -0.506317 8.500896 13.617329 -1.710239 0.278103 -1.993728
    61 0.385056 -0.460075 7.003435 -1.471905 0.596196 -0.385484
    62 -0.456360 -0.710276 5.057732 -1.989925 0.545821 -0.699361
    63 2.452194 -8.899408 11.597939 -1.419551 0.110567 -1.352644
    64 -0.680515 -0.903999 6.074242 -1.453600 -0.173887 -0.003174
    65 -0.248295 -0.666843 3.386627 -1.668601 -0.122156 0.124627
    66 0.717491 -3.784309 13.044010 -1.725758 0.009829 -1.454343
    67 -1.099228 -1.407673 8.017876 -1.350904 -0.015601 0.007733
    68 -0.064053 -0.807640 3.686100 -1.839908 -0.037754 0.018152
    69 4.004906 6.172710 4.754800 -0.720269 -0.940275 -1.497138
    70 -0.158381 -1.149773 5.804405 -0.345801 0.685529 0.599782
    71 1.078559 -2.386406 5.215008 -1.052487 1.087708 -0.156294
    72 6.289963 0.932404 13.569109 -0.126801 -0.612098 -2.869612
    73 -1.327759 -0.766682 12.396324 -0.029707 -0.012335 0.260985
    74 0.000017 -54.999996 0.000000 0.000000 0.000000 -1.570796
  time 11
    0 0.000000 0.000000 -1.500000 0.000000 0.000000 0.000000
    1 -10.521344 -5.760963 66.994621 3.097005 -0.050653 -3.139334
    2 -12.195313 21.949737 23.113944 1.115751 -0.141416 1.505650
    3 -0.000034 0.000012 24.761454 -1.599240 -0.185319 -0.739597
    4 0.000017 0.000000 24.344809 1.608627 -0.376343 -0.313212
    5 0.002333 -1.019846 24.031336 0.389473 -0.081085 -0.011406
    6 0.000034 0.000008 13.404741 -0.000001 -0.000009 -0.715173
    7 10.398263 -5.760962 66.994675 3.097005 0.050653 3.139334
    8 10.531405 1.122735 21.210487 -0.516517 -0.832385 1.854945
    9 -0.000004 -0.000006 24.761459 -1.439212 0.166858 -1.171953
    10 -0.000007 0.000004 24.344891 1.793257 0.458295 0.327920
    11 -0.002360 -1.019903 24.031330 0.390354 -0.070799 -0.038228
    12 0.000000 -0.000002 13.404737 0.000001 0.000005 -0.504232
    13 -0.061540 -5.245835 72.927078 0.000000 0.000000 0.000000
    14 -0.760418 12.523519 -22.401488 0.497711 -0.099525 -1.933304
    15 0.000000 -0.005608 -1.146812 -0.103917 0.216794 0.322769
    16 0.030770 -0.240000 8.906021 -0.004138 0.000000 0.000000
    17 -0.054666 -0.964017 -0.074619 0.126920 0.112281 -0.576316
    18 0.030770 -0.276858 8.905140 0.056125 0.004134 -0.000049
    19 -0.583315 -0.014750 -0.016801 0.049688 -0.198657 -0.052002
    20 5.669724 4.435303 14.302868 2.003708 -1.073540 0.189566
    21 -1.044571 -2.839317 19.743267 -0.986549 -0.506700 0.162166
    22 2.655533 -1.533369 24.792658 -0.667270 0.035354 0.538546
    23 1.120163 -0.154394 9.796035 -0.076047 -0.015913 -0.686310
    24 2.240311 -0.308786 19.592051 -0.184207 -0.164318 -1.349859
    25 0.683151 2.877354 14.167051 -1.511326 -0.211747 1.554295
    26 0.144936 -0.145374 7.579252 -1.768092 -0.243253 0.235287
    27 0.091660 -0.906685 4.702850 -1.587437 -0.182568 0.191116
    28 0.506271 8.500866 13.617253 -1.470526 -0.303331 1.571638
    29 -0.384987 -0.460049 7.003448 -1.747476 -0.440889 0.551348
    30 0.561516 -0.596954 5.061852 -1.494372 -0.380557 0.386326
    31 -2.452171 -8.899406 11.597897 -1.564465 -0.075967 1.475308
    32 0.680496 -0.903999 6.074253 -1.628053 0.173822 -0.014264
    33 0.245514 -0.661150 3.388004 -1.484465 0.109507 -0.099205
    34 -0.717484 -3.784271 13.043911 -1.593590 -0.028646 1.464722
    35 1.099216 -1.407745 8.017889 -1.782123 0.031968 -0.017453
    36 0.068439 -0.807653 3.686054 -1.465865 0.034012 -0.009745
    37 -4.004929 6.172707 4.754754 0.109464 1.126798 2.530885
    38 0.158352 -1.149811 5.804394 -0.869542 -0.330219 0.145630
    39 -1.083523 -1.463142 5.544399 -0.797675 -0.152810 -0.023927
    40 -6.289886 0.932434 13.569063 -0.126803 0.612110 2.869610
    41 1.327774 -0.766687 12.396328 0.026077 -0.020107 0.266884
    42 -0.096140 1.828087 23.185329 -0.239471 0.038698 -0.859029
    43 2.325478 -0.000003 6.169296 -0.098894 0.106629 2.179874
    44 0.000000 -3.152912 0.122169 1.961017 0.000000 0.000000
    45 1.068383 -10.478592 7.066338 0.292219 -1.282324 -3.141588
    46 0.000000 0.000000 2.279457 0.547137 -0.343566 0.107833
    47 2.479414 -8.323895 6.074242 0.040923 -0.480008 2.819714
    48 0.000006 -5.070313 5.929688 0.000000 0.000000 0.000000
    49 -1.068383 -10.478611 7.065971 0.292219 1.282324 3.141588
    50 -0.000488 0.000015 2.279600 0.547136 0.343566 0.107835
    51 -2.479401 -8.323895 6.074234 0.046029 -0.457502 2.804702
    52 -5.790000 4.432083 14.255558 -5.815145 0.953013 -2.581073
    53 1.044540 -2.839314 19.743252 -0.259968 0.070290 -0.077703
    54 -2.655510 -1.533379 24.792648 -0.563520 -0.107548 0.410061
    55 -1.120216 -0.154385 9.795983 -0.071757 0.013405 0.643260
    56 -2.240372 -0.308788 19.592047 -0.070491 -0.135883 1.307040
    57 -0.683205 2.877342 14.167089 -1.604576 0.208954 -1.789836
    58 -0.144958 -0.145317 7.579308 -1.541391 0.304896 -0.166506
    59 -0.038551 -0.936644 4.697678 -2.189566 0.238585 -0.365188
    60 -0.506317 8.500896 13.617329 -1.710239 0.278103 -1.993638
    61 0.385056 -0.460075 7.003435 -1.471905 0.596196 -0.385484
    62 -0.456360 -0.710276 5.057732 -1.989925 0.545821 -0.699361
    63 2.452194 -8.899408 11.597939 -1.419551 0.110567 -1.352644
    64 -0.680515 -0.903999 6.074242 -1.453600 -0.173887 -0.003174
    65 -0.248295 -0.666843 3.386627 -1.668601 -0.122156 0.124627
    66 0.717491 -3.784309 13.044010 -1.725758 0.009829 -1.454343
    67 -1.099228 -1.407673 8.017876 -1.350904 -0.015601 0.007733
    68 -0.064053 -0.807640 3.686100 -1.839908 -0.037754 0.018152
    69 4.004906 6.172710 4.754800 -0.720269 -0.940275 -1.497138
    70 -0.158381 -1.149773 5.804405 -0.345801 0.685529 0.599782
    71 1.078559 -2.386406 5.215008 -1.052487 1.087708 -0.156294
    72 6.289963 0.932404 13.569109 -0.126801 -0.612098 -2.869612
    73 -1.327759 -0.766682 12.396324 -0.034357 -0.013461 0.299848
    74 0.000017 -54.999996 0.000000 0.000000 0.000000 -1.570796
  time 12
    0 0.000000 0.000000 -1.500000 0.000000 0.000000 0.000000
    1 -10.521344 -5.760963 66.994621 3.097005 -0.050653 -3.139334
    2 -13.394569 23.484361 21.230282 1.107553 -0.104702 1.486033
    3 -0.000034 0.000012 24.761454 -1.507531 -0.174737 -0.645335
    4 0.000017 0.000000 24.344809 1.493348 -0.357375 -0.269070
    5 0.002333 -1.019846 24.031336 0.389548 -0.083410 -0.013156
    6 0.000034 0.000008 13.404741 -0.000001 -0.000009 -0.617068
    7 10.398263 -5.760962 66.994675 3.097005 0.050653 3.139334
    8 8.355557 2.721375 19.142311 -0.411416 -0.870831 1.765415
    9 -0.000004 -0.000006 24.761459 -1.381024 0.160147 -1.163663
    10 -0.000007 0.000004 24.344891 1.681087 0.421609 0.269194
    11 -0.002360 -1.019903 24.031330 0.390446 -0.072740 -0.039690
    12 0.000000 -0.000002 13.404737 0.000001 0.000005 -0.505735
    13 -0.061540 -5.245835 72.927078 0.000000 0.000000 0.000000
    14 1.208392 14.037459 -20.283565 0.429125 -0.127879 -1.883340
    15 0.000000 -0.005608 -1.146812 -0.080249 0.199447 0.319943
    16 0.030770 -0.240000 8.906021 -0.004138 0.000000 0.000000
    17 -0.121074 -0.964017 -0.078526 0.128920 0.109737 -0.615850
    18 0.030770 -0.276858 8.905140 0.056125 0.004134 -0.000049
    19 -0.583315 -0.018656 -0.016801 0.054513 -0.200344 -0.056808
    20 5.669724 4.435303 14.302868 2.015289 -1.086858 0.211799
    21 -1.044571 -2.839317 19.743267 -1.013211 -0.521364 0.172939
    22 2.655533 -1.533369 24.792658 -0.843851 0.045729 0.547684
    23 1.120163 -0.154394 9.796035 -0.076047 -0.015901 -0.686379
    24 2.240311 -0.308786 19.592051 -0.179202 -0.201753 -1.345705
    25 0.683151 2.877354 14.167051 -1.511326 -0.211747 1.554295
    26 0.144936 -0.145374 7.579252 -1.768092 -0.243253 0.235287
    27 0.091660 -0.906685 4.702850 -1.587437 -0.182568 0.191116
    28 0.506271 8.500866 13.617253 -1.470526 -0.303331 1.571638
    29 -0.384987 -0.460049 7.003448 -1.747476 -0.440889 0.551348
    30 0.561516 -0.596954 5.061852 -1.494372 -0.380569 0.386326
    31 -2.452171 -8.899406 11.597897 -1.564465 -0.075967 1.475308
    32 0.680496 -0.903999 6.074253 -1.628053 0.173822 -0.014264
    33 0.245514 -0.661150 3.388004 -1.484465 0.109507 -0.099205
    34 -0.717484 -3.784271 13.043911 -1.593590 -0.028646 1.464722
    35 1.099216 -1.407745 8.017889 -1.782123 0.031968 -0.017453
    36 0.068439 -0.807653 3.686054 -1.465865 0.034012 -0.009745
    37 -4.004929 6.172707 4.754754 0.109464 1.126798 2.530885
    38 0.158352 -1.149811 5.804394 -0.869542 -0.330219 0.145630
    39 -1.083523 -1.463142 5.544399 -0.797675 -0.152798 -0.023927
    40 -6.289886 0.932434 13.569063 -0.126803 0.612110 2.869610
    41 1.327774 -0.766687 12.396328 0.025837 -0.019855 0.264072
    42 -0.096140 1.828087 23.185329 -0.239437 0.037806 -0.856981
    43 2.325478 -0.000003 6.169296 -0.093498 0.117741 2.214319
    44 0.000000 -3.152912 0.122169 1.961017 0.000000 0.000000
    45 1.068383 -10.478592 7.066338 0.292219 -1.282324 -3.141588
    46 0.000000 0.000000 2.279457 0.547137 -0.343566 0.107833
    47 2.479414 -8.323895 6.074242 0.039455 -0.471320 2.766230
    48 0.000006 -5.070313 5.929688 0.000000 0.000000 0.000000
    49 -1.068383 -10.478611 7.065971 0.292219 1.282324 3.141588
    50 -0.000488 0.000015 2.279600 0.547136 0.343566 0.107835
    51 -2.479401 -8.323895 6.074234 0.045547 -0.450698 2.752104
    52 -5.790000 4.432083 14.255558 -5.819651 0.931705 -2.698159
    53 1.044540 -2.839314 19.743252 -0.270209 0.061344 -0.076233
    54 -2.655510 -1.533379 24.792648 -0.585311 -0.105205 0.531154
    55 -1.120216 -0.154385 9.795983 -0.069348 0.012098 0.619701
    56 -2.240372 -0.308788 19.592047 -0.044909 -0.186921 1.262877
    57 -0.683205 2.877342 14.167089 -1.604527 0.208954 -1.789836
    58 -0.144958 -0.145317 7.579308 -1.541391 0.304896 -0.166506
    59 -0.038551 -0.936644 4.697678 -2.189566 0.238585 -0.365176
    60 -0.506317 8.500896 13.617329 -1.710239 0.278103 -1.993683
    61 0.385056 -0.460075 7.003435 -1.471905 0.596196 -0.385484
    62 -0.456360 -0.710276 5.057732 -1.989925 0.545821 -0.699361
    63 2.452194 -8.899408 11.597939 -1.419551 0.110567 -1.352644
    64 -0.680515 -0.903999 6.074242 -1.453600 -0.173887 -0.003174
    65 -0.248295 -0.666843 3.386627 -1.668601 -0.122156 0.124627
    66 0.717491 -3.784309 13.044010 -1.725758 0.009829 -1.454343
    67 -1.099228 -1.407673 8.017876 -1.350904 -0.015601 0.007733
    68 -0.064053 -0.807640 3.686100 -1.839908 -0.037754 0.018152
    69 4.004906 6.172710 4.754800 -0.720269 -0.940275 -1.497138
    70 -0.158381 -1.149773 5.804405 -0.345801 0.685529 0.599782
    71 1.078559 -2.386406 5.215008 -1.052487 1.087708 -0.156294
    72 6.289963 0.932404 13.569109 -0.126801 -0.612098 -2.869612
    73 -1.327759 -0.766682 12.396324 -0.039499 -0.014528 0.342411
    74 0.000017 -54.999996 0.000000 0.000000 0.000000 -1.570796
  time 13
    0 0.000000 0.000000 -1.500000 0.000000 0.000000 0.000000
    1 -10.521344 -5.760963 66.994621 3.097005 -0.050653 -3.139334
    2 -14.476633 24.859384 18.965404 1.068679 -0.042630 1.460430
    3 -0.000034 0.000012 24.761454 -1.380293 -0.160008 -0.541667
    4 0.000017 0.000000 24.344809 1.380903 -0.342142 -0.229164
    5 0.002333 -1.019846 24.031336 0.389548 -0.084644 -0.014079
    6 0.000034 0.000008 13.404741 -0.000001 -0.000009 -0.513457
    7 10.398263 -5.760962 66.994675 3.097005 0.050653 3.139334
    8 5.867200 4.257568 16.736933 -0.263659 -0.883524 1.627447
    9 -0.000004 -0.000006 24.761459 -1.291819 0.149816 -1.138004
    10 -0.000007 0.000004 24.344891 1.559946 0.377235 0.205339
    11 -0.002360 -1.019903 24.031330 0.390515 -0.073819 -0.040493
    12 0.000000 -0.000002 13.404737 0.000001 0.000005 -0.503867
    13 -0.061540 -5.245835 72.927078 0.000000 0.000000 0.000000
    14 3.294393 15.434942 -17.737550 0.347258 -0.162254 -1.804670
    15 0.000000 -0.005608 -1.146812 -0.050680 0.180876 0.307605
    16 0.030770 -0.240000 8.906021 -0.004138 0.000000 0.000000
    17 -0.191389 -0.960111 -0.078526 0.132308 0.105888 -0.651551
    18 0.030770 -0.276858 8.905140 0.056125 0.004134 -0.000049
    19 -0.583315 -0.026469 -0.016801 0.059375 -0.201311 -0.061159
    20 5.669724 4.435303 14.302868 2.025816 -1.109761 0.244670
    21 -1.044571 -2.839317 19.743267 -1.026566 -0.532166 0.181230
    22 2.655533 -1.533369 24.792658 -1.020605 0.060293 0.544530
    23 1.120163 -0.154394 9.796035 -0.076000 -0.015865 -0.685724
    24 2.240311 -0.308786 19.592051 -0.172979 -0.235182 -1.341630
    25 0.683151 2.877354 14.167051 -1.511326 -0.211735 1.554295
    26 0.144936 -0.145374 7.579252 -1.768092 -0.243253 0.235287
    27 0.091660 -0.906685 4.702850 -1.587437 -0.182568 0.191116
    28 0.506271 8.500866 13.617253 -1.470526 -0.303331 1.571638
    29 -0.384987 -0.460049 7.003448 -1.747476 -0.440889 0.551348
    30 0.561516 -0.596954 5.061852 -1.494372 -0.380569 0.386326
    31 -2.452171 -8.899406 11.597897 -1.564465 -0.075967 1.475308
    32 0.680496 -0.903999 6.074253 -1.628053 0.173822 -0.014264
    33 0.245514 -0.661150 3.388004 -1.484465 0.109507 -0.099205
    34 -0.717484 -3.784271 13.043911 -1.593590 -0.028634 1.464722
    35 1.099216 -1.407745 8.017889 -1.782123 0.031968 -0.017453
    36 0.068439 -0.807653 3.686054 -1.465865 0.034012 -0.009745
    37 -4.004929 6.172707 4.754754 0.109464 1.126798 2.530885
    38 0.158352 -1.149811 5.804394 -0.869542 -0.330219 0.145630
    39 -1.083523 -1.463142 5.544399 -0.797675 -0.152810 -0.023927
    40 -6.289886 0.932434 13.569063 -0.126803 0.612110 2.869610
    41 1.327774 -0.766687 12.396328 0.024890 -0.018945 0.253476
    42 -0.096140 1.828087 23.185329 -0.239471 0.036532 -0.857103
    43 2.325478 -0.000003 6.169296 -0.087720 0.128144 2.244732
    44 0.000000 -3.152912 0.122169 1.961017 0.000000 0.000000
    45 1.068383 -10.478592 7.066338 0.292219 -1.282324 -3.141588
    46 0.000000 0.000000 2.279457 0.547137 -0.343566 0.107833
    47 2.479414 -8.323895 6.074242 0.037280 -0.468550 2.688200
    48 0.000006 -5.070313 5.929688 0.000000 0.000000 0.000000
    49 -1.068383 -10.478611 7.065971 0.292219 1.282324 3.141588
    50 -0.000488 0.000015 2.279600 0.547136 0.343566 0.107835
    51 -2.479401 -8.323895 6.074234 0.044804 -0.449894 2.675746
    52 -5.790000 4.432083 14.255558 -5.814858 0.907406 -2.806430
    53 1.044540 -2.839314 19.743252 -0.275886 0.067449 -0.075689
    54 -2.655510 -1.533379 24.792648 -0.620589 -0.100999 0.651413
    55 -1.120216 -0.154385 9.795983 -0.066220 0.010516 0.589287
    56 -2.240372 -0.308788 19.592047 -0.009703 -0.233009 1.202732
    57 -0.683205 2.877342 14.167089 -1.604576 0.208934 -1.789823
    58 -0.144958 -0.145317 7.579308 -1.541391 0.304896 -0.166506
    59 -0.038551 -0.936644 4.697678 -2.189566 0.238585 -0.365188
    60 -0.506317 8.500896 13.617329 -1.710239 0.278103 -1.993638
    61 0.385056 -0.460075 7.003435 -1.471905 0.596213 -0.385484
    62 -0.456360 -0.710276 5.057732 -1.989925 0.545821 -0.699361
    63 2.452194 -8.899408 11.597939 -1.419551 0.110567 -1.352620
    64 -0.680515 -0.903999 6.074242 -1.453600 -0.173887 -0.003174
    65 -0.248295 -0.666843 3.386627 -1.668601 -0.122156 0.124627
    66 0.717491 -3.784309 13.044010 -1.725758 0.009829 -1.454343
    67 -1.099228 -1.407673 8.017876 -1.350904 -0.015601 0.007733
    68 -0.064053 -0.807640 3.686100 -1.839908 -0.037754 0.018152
    69 4.004906 6.172710 4.754800 -0.720269 -0.940275 -1.497138
    70 -0.158381 -1.149773 5.804405 -0.345801 0.685529 0.599782
    71 1.078559 -2.386406 5.215008 -1.052487 1.087708 -0.156294
    72 6.289963 0.932404 13.569109 -0.126801 -0.612098 -2.869612
    73 -1.327759 -0.766682 12.396324 -0.044880 -0.015391 0.386594
    74 0.000017 -54.999996 0.000000 0.000000 0.000000 -1.570796
  time 14
    0 0.000000 0.000000 -1.500000 0.000000 0.000000 0.000000
    1 -10.521344 -5.760963 66.994621 3.097005 -0.050653 -3.139334
    2 -15.296970 25.976590 16.610827 1.004254 0.035475 1.423600
    3 -0.000034 0.000012 24.761454 -1.231266 -0.142786 -0.434374
    4 0.000017 0.000000 24.344809 1.278076 -0.332160 -0.196236
    5 0.002333 -1.019846 24.031336 0.389548 -0.084968 -0.014318
    6 0.000034 0.000008 13.404741 -0.000001 -0.000009 -0.416322
    7 10.398263 -5.760962 66.994675 3.097005 0.050653 3.139334
    8 3.265558 5.668866 14.129233 -0.101911 -0.859089 1.465220
    9 -0.000004 -0.000006 24.761459 -1.170879 0.135830 -1.094005
    10 -0.000007 0.000004 24.344891 1.435901 0.329707 0.145836
    11 -0.002360 -1.019903 24.031330 0.390515 -0.074143 -0.040745
    12 0.000000 -0.000002 13.404737 0.000001 0.000005 -0.497319
    13 -0.061540 -5.245835 72.927078 0.000000 0.000000 0.000000
    14 5.255391 16.669386 -15.146474 0.262447 -0.196474 -1.694111
    15 0.000000 -0.005608 -1.146812 -0.016327 0.159858 0.281870
    16 0.030770 -0.240000 8.906021 -0.004138 0.000000 0.000000
    17 -0.273423 -0.964017 -0.082432 0.137884 0.100659 -0.681661
    18 0.030770 -0.276858 8.905140 0.056125 0.004134 -0.000049
    19 -0.579408 -0.030375 -0.012895 0.063342 -0.200735 -0.064838
    20 5.669724 4.435303 14.302868 2.029740 -1.138583 0.287220
    21 -1.044571 -2.839317 19.743267 -1.027643 -0.540046 0.186955
    22 2.655533 -1.533369 24.792658 -1.183385 0.077316 0.528679
    23 1.120163 -0.154394 9.796035 -0.075724 -0.015697 -0.682930
    24 2.240311 -0.308786 19.592051 -0.165276 -0.263500 -1.334944
    25 0.683151 2.877354 14.167051 -1.511326 -0.211747 1.554295
    26 0.144936 -0.145374 7.579252 -1.768092 -0.243253 0.235287
    27 0.091660 -0.906685 4.702850 -1.587437 -0.182568 0.191116
    28 0.506271 8.500866 13.617253 -1.470526 -0.303331 1.571638
    29 -0.384987 -0.460049 7.003448 -1.747476 -0.440889 0.551348
    30 0.561516 -0.596954 5.061852 -1.494372 -0.380569 0.386326
    31 -2.452171 -8.899406 11.597897 -1.564465 -0.075967 1.475308
    32 0.680496 -0.903999 6.074253 -1.628053 0.173822 -0.014264
    33 0.245514 -0.661150 3.388004 -1.484465 0.109507 -0.099205
    34 -0.717484 -3.784271 13.043911 -1.593546 -0.028634 1.464722
    35 1.099216 -1.407745 8.017889 -1.782123 0.031968 -0.017453
    36 0.068439 -0.807653 3.686054 -1.465865 0.034012 -0.009745
    37 -4.004929 6.172707 4.754754 0.109464 1.126798 2.530885
    38 0.158352 -1.149811 5.804394 -0.869542 -0.330219 0.145630
    39 -1.083523 -1.463142 5.544399 -0.797675 -0.152810 -0.023927
    40 -6.289886 0.932434 13.569063 -0.126803 0.612110 2.869610
    41 1.327774 -0.766687 12.396328 0.023332 -0.017447 0.236001
    42 -0.096140 1.828087 23.185329 -0.239557 0.034938 -0.858815
    43 2.325478 -0.000003 6.169296 -0.082611 0.136927 2.266564
    44 0.000000 -3.152912 0.122169 1.961017 0.000000 0.000000
    45 1.068383 -10.478592 7.066338 0.292219 -1.282324 -3.141588
    46 0.000000 0.000000 2.279457 0.547137 -0.343566 0.107833
    47 2.479414 -8.323895 6.074242 0.034344 -0.473621 2.586675
    48 0.000006 -5.070313 5.929688 0.000000 0.000000 0.000000
    49 -1.068383 -10.478611 7.065971 0.292219 1.282324 3.141588
    50 -0.000488 0.000015 2.279600 0.547136 0.343566 0.107835
    51 -2.479401 -8.323895 6.074234 0.043639 -0.457124 2.576490
    52 -5.790000 4.432083 14.255558 -5.800383 0.882152 -2.903300
    53 1.044540 -2.839314 19.743252 -0.276498 0.089877 -0.076206
    54 -2.655510 -1.533379 24.792648 -0.661202 -0.095524 0.761298
    55 -1.120216 -0.154385 9.795983 -0.062613 0.008862 0.555227
    56 -2.240372 -0.308788 19.592047 0.032375 -0.270434 1.133137
    57 -0.683205 2.877342 14.167089 -1.604576 0.208954 -1.789836
    58 -0.144958 -0.145317 7.579308 -1.541391 0.304896 -0.166506
    59 -0.038551 -0.936644 4.697678 -2.189566 0.238585 -0.365176
    60 -0.506317 8.500896 13.617329 -1.710239 0.278103 -1.993683
    61 0.385056 -0.460075 7.003435 -1.471905 0.596196 -0.385484
    62 -0.456360 -0.710276 5.057732 -1.989925 0.545821 -0.699361
    63 2.452194 -8.899408 11.597939 -1.419551 0.110567 -1.352620
    64 -0.680515 -0.903999 6.074242 -1.453600 -0.173887 -0.003174
    65 -0.248295 -0.666843 3.386627 -1.668601 -0.122156 0.124627
    66 0.717491 -3.784309 13.044010 -1.725758 0.009829 -1.454343
    67 -1.099228 -1.407673 8.017876 -1.350904 -0.015601 0.007733
    68 -0.064053 -0.807640 3.686100 -1.839908 -0.037754 0.018152
    69 4.004906 6.172710 4.754800 -0.720269 -0.940275 -1.497138
    70 -0.158381 -1.149773 5.804405 -0.345801 0.685529 0.599782
    71 1.078559 -2.386406 5.215008 -1.052487 1.087708 -0.156294
    72 6.289963 0.932404 13.569109 -0.126801 -0.612098 -2.869612
    73 -1.327759 -0.766682 12.396324 -0.049985 -0.015990 0.428371
    74 0.000017 -54.999996 0.000000 0.000000 0.000000 -1.570796
  time 15
    0 0.000000 0.000000 -1.500000 0.000000 0.000000 0.000000
    1 -10.521344 -5.760963 66.994621 3.097005 -0.050653 -3.139334
    2 -15.750109 26.725487 14.390798 0.922067 0.123657 1.367983
    3 -0.000034 0.000012 24.761454 -1.078580 -0.125120 -0.322440
    4 0.000017 0.000000 24.344809 1.191339 -0.327927 -0.170438
    5 0.002333 -1.019846 24.031336 0.389548 -0.084620 -0.014067
    6 0.000034 0.000008 13.404741 -0.000001 -0.000009 -0.328047
    7 10.398263 -5.760962 66.994675 3.097005 0.050653 3.139334
    8 0.781107 6.917804 11.611453 0.038424 -0.798731 1.310749
    9 -0.000004 -0.000006 24.761459 -1.023486 0.118776 -1.034504
    10 -0.000007 0.000004 24.344891 1.313147 0.284444 0.097052
    11 -0.002360 -1.019903 24.031330 0.390515 -0.073843 -0.040517
    12 0.000000 -0.000002 13.404737 0.000001 0.000005 -0.485103
    13 -0.061540 -5.245835 72.927078 0.000000 0.000000 0.000000
    14 6.845283 17.670916 -12.690584 0.185413 -0.223881 -1.551424
    15 0.000000 -0.005608 -1.146812 0.021695 0.135170 0.238580
    16 0.030770 -0.240000 8.906021 -0.004138 0.000000 0.000000
    17 -0.363269 -0.967924 -0.086338 0.146386 0.093810 -0.704742
    18 0.030770 -0.276858 8.905140 0.056125 0.004134 -0.000049
    19 -0.567689 -0.034282 -0.012895 0.065487 -0.197711 -0.067642
    20 5.669724 4.435303 14.302868 2.022275 -1.169765 0.337725
    21 -1.044571 -2.839317 19.743267 -1.017125 -0.544638 0.189775
    22 2.655533 -1.533369 24.792658 -1.318088 0.094070 0.500698
    23 1.120163 -0.154394 9.796035 -0.075101 -0.015326 -0.676617
    24 2.240311 -0.308786 19.592051 -0.156268 -0.285509 -1.322877
    25 0.683151 2.877354 14.167051 -1.511326 -0.211747 1.554295
    26 0.144936 -0.145374 7.579252 -1.768092 -0.243253 0.235287
    27 0.091660 -0.906685 4.702850 -1.587437 -0.182568 0.191116
    28 0.506271 8.500866 13.617253 -1.470526 -0.303331 1.571638
    29 -0.384987 -0.460049 7.003448 -1.747476 -0.440889 0.551348
    30 0.561516 -0.596954 5.061852 -1.494372 -0.380569 0.386326
    31 -2.452171 -8.899406 11.597897 -1.564465 -0.075967 1.475308
    32 0.680496 -0.903999 6.074253 -1.628053 0.173822 -0.014264
    33 0.245514 -0.661150 3.388004 -1.484465 0.109507 -0.099205
    34 -0.717484 -3.784271 13.043911 -1.593590 -0.028658 1.464722
    35 1.099216 -1.407745 8.017889 -1.782123 0.031968 -0.017453
    36 0.068439 -0.807653 3.686054 -1.465865 0.034012 -0.009745
    37 -4.004929 6.172707 4.754754 0.109464 1.126798 2.530885
    38 0.158352 -1.149811 5.804394 -0.869542 -0.330219 0.145630
    39 -1.083523 -1.463142 5.544399 -0.797675 -0.152810 -0.023927
    40 -6.289886 0.932434 13.569063 -0.126803 0.612110 2.869610
    41 1.327774 -0.766687 12.396328 0.021235 -0.015469 0.212701
    42 -0.096140 1.828087 23.185329 -0.239676 0.033409 -0.861658
    43 2.325478 -0.000003 6.169296 -0.079412 0.143235 2.275106
    44 0.000000 -3.152912 0.122169 1.961017 0.000000 0.000000
    45 1.068383 -10.478592 7.066338 0.292219 -1.282324 -3.141588
    46 0.000000 0.000000 2.279457 0.547137 -0.343566 0.107833
    47 2.479414 -8.323895 6.074242 0.030293 -0.484234 2.463852
    48 0.000006 -5.070313 5.929688 0.000000 0.000000 0.000000
    49 -1.068383 -10.478611 7.065971 0.292219 1.282324 3.141588
    50 -0.000488 0.000015 2.279600 0.547136 0.343566 0.107835
    51 -2.479401 -8.323895 6.074234 0.041731 -0.469551 2.456444
    52 -5.790000 4.432083 14.255558 -5.777186 0.858683 -2.987713
    53 1.044540 -2.839314 19.743252 -0.272268 0.127865 -0.077703
    54 -2.655510 -1.533379 24.792648 -0.699601 -0.089946 0.852174
    55 -1.120216 -0.154385 9.795983 -0.058993 0.007304 0.520923
    56 -2.240372 -0.308788 19.592047 0.076438 -0.296572 1.060964
    57 -0.683205 2.877342 14.167089 -1.604576 0.208954 -1.789836
    58 -0.144958 -0.145317 7.579308 -1.541391 0.304896 -0.166506
    59 -0.038551 -0.936644 4.697678 -2.189566 0.238585 -0.365176
    60 -0.506317 8.500896 13.617329 -1.710239 0.278103 -1.993683
    61 0.385056 -0.460075 7.003435 -1.471905 0.596196 -0.385484
    62 -0.456360 -0.710276 5.057732 -1.989925 0.545821 -0.699361
    63 2.452194 -8.899408 11.597939 -1.419551 0.110567 -1.352644
    64 -0.680515 -0.903999 6.074242 -1.453600 -0.173887 -0.003174
    65 -0.248295 -0.666843 3.386627 -1.668601 -0.122156 0.124627
    66 0.717491 -3.784309 13.044010 -1.725758 0.009829 -1.454343
    67 -1.099228 -1.407673 8.017876 -1.350904 -0.015601 0.007733
    68 -0.064053 -0.807640 3.686100 -1.839908 -0.037754 0.018152
    69 4.004906 6.172710 4.754800 -0.720269 -0.940275 -1.497138
    70 -0.158381 -1.149773 5.804405 -0.345801 0.685529 0.599782
    71 1.078559 -2.386406 5.215008 -1.052487 1.087708 -0.156294
    72 6.289963 0.932404 13.569109 -0.126801 -0.612098 -2.869612
    73 -1.327759 -0.766682 12.396324 -0.054371 -0.016326 0.463764
    74 0.000017 -54.999996 0.000000 0.000000 0.000000 -1.570796
  time 16
    0 0.000000 0.000000 -1.500000 0.000000 0.000000 0.000000
    1 -10.521344 -5.760963 66.994621 3.097005 -0.050653 -3.139334
    2 -15.734484 27.093796 12.619259 0.832022 0.216486 1.286807
    3 -0.000034 0.000012 24.761454 -0.947887 -0.110008 -0.202078
    4 0.000017 0.000000 24.344809 1.130308 -0.327565 -0.151338
    5 0.002333 -1.019846 24.031336 0.389548 -0.083781 -0.013432
    6 0.000034 0.000008 13.404741 -0.000001 -0.000009 -0.246542
    7 10.398263 -5.760962 66.994675 3.097005 0.050653 3.139334
    8 -1.312706 8.029358 9.475837 0.136786 -0.717559 1.182023
    9 -0.000004 -0.000006 24.761459 -0.863169 0.100212 -0.964846
    10 -0.000007 0.000004 24.344891 1.196718 0.247581 0.061740
    11 -0.002360 -1.019903 24.031330 0.390446 -0.073100 -0.039966
    12 0.000000 -0.000002 13.404737 0.000001 0.000005 -0.467133
    13 -0.061540 -5.245835 72.927078 0.000000 0.000000 0.000000
    14 7.810156 18.369657 -10.662785 0.127261 -0.238143 -1.379491
    15 0.000000 -0.005608 -1.146812 0.062141 0.105792 0.173441
    16 0.030770 -0.240000 8.906021 -0.004138 0.000000 0.000000
    17 -0.460928 -0.983549 -0.094151 0.158360 0.085074 -0.719398
    18 0.030770 -0.276858 8.905140 0.056125 0.004134 -0.000049
    19 -0.540344 -0.018656 -0.012895 0.065022 -0.191375 -0.069440
    20 5.669724 4.435303 14.302868 2.000550 -1.200067 0.392541
    21 -1.044571 -2.839317 19.743267 -0.995453 -0.544899 0.188760
    22 2.655533 -1.533369 24.792658 -1.410870 0.108211 0.460747
    23 1.120163 -0.154394 9.796035 -0.073950 -0.014655 -0.665235
    24 2.240311 -0.308786 19.592051 -0.146041 -0.300612 -1.302384
    25 0.683151 2.877354 14.167051 -1.511326 -0.211747 1.554295
    26 0.144936 -0.145374 7.579252 -1.768092 -0.243253 0.235287
    27 0.091660 -0.906685 4.702850 -1.587437 -0.182568 0.191116
    28 0.506271 8.500866 13.617253 -1.470526 -0.303331 1.571638
    29 -0.384987 -0.460049 7.003448 -1.747476 -0.440889 0.551348
    30 0.561516 -0.596954 5.061852 -1.494372 -0.380569 0.386326
    31 -2.452171 -8.899406 11.597897 -1.564465 -0.075967 1.475308
    32 0.680496 -0.903999 6.074253 -1.628053 0.173822 -0.014264
    33 0.245514 -0.661150 3.388004 -1.484465 0.109507 -0.099205
    34 -0.717484 -3.784271 13.043911 -1.593546 -0.028646 1.464722
    35 1.099216 -1.407745 8.017889 -1.782123 0.031968 -0.017453
    36 0.068439 -0.807653 3.686054 -1.465865 0.034012 -0.009745
    37 -4.004929 6.172707 4.754754 0.109464 1.126798 2.530885
    38 0.158352 -1.149811 5.804394 -0.869542 -0.330219 0.145630
    39 -1.083523 -1.463142 5.544399 -0.797779 -0.152810 -0.023927
    40 -6.289886 0.932434 13.569063 -0.126803 0.612110 2.869610
    41 1.327774 -0.766687 12.396328 0.018598 -0.013156 0.184530
    42 -0.096140 1.828087 23.185329 -0.239779 0.032007 -0.865113
    43 2.325478 -0.000003 6.169296 -0.079364 0.146288 2.265527
    44 0.000000 -3.152912 0.122169 1.961017 0.000000 0.000000
    45 1.068383 -10.478592 7.066338 0.292219 -1.282324 -3.141588
    46 0.000000 0.000000 2.279457 0.547137 -0.343566 0.107833
    47 2.479414 -8.323895 6.074242 0.024937 -0.490762 2.322787
    48 0.000006 -5.070313 5.929688 0.000000 0.000000 0.000000
    49 -1.068383 -10.478611 7.065971 0.292219 1.282324 3.141588
    50 -0.000488 0.000015 2.279600 0.547136 0.343566 0.107835
    51 -2.479401 -8.323895 6.074234 0.038618 -0.477678 2.318387
    52 -5.790000 4.432083 14.255558 -5.746990 0.839867 -3.059574
    53 1.044540 -2.839314 19.743252 -0.262751 0.178742 -0.079962
    54 -2.655510 -1.533379 24.792648 -0.728387 -0.085454 0.916999
    55 -1.120216 -0.154385 9.795983 -0.055614 0.006010 0.489421
    56 -2.240372 -0.308788 19.592047 0.115615 -0.310730 0.994203
    57 -0.683205 2.877342 14.167089 -1.604576 0.208954 -1.789836
    58 -0.144958 -0.145317 7.579308 -1.541391 0.304896 -0.166506
    59 -0.038551 -0.936644 4.697678 -2.189566 0.238585 -0.365176
    60 -0.506317 8.500896 13.617329 -1.710239 0.278103 -1.993638
    61 0.385056 -0.460075 7.003435 -1.471905 0.596196 -0.385484
    62 -0.456360 -0.710276 5.057732 -1.989925 0.545821 -0.699361
    63 2.452194 -8.899408 11.597939 -1.419591 0.110567 -1.352620
    64 -0.680515 -0.903999 6.074242 -1.453600 -0.173887 -0.003174
    65 -0.248295 -0.666843 3.386627 -1.668601 -0.122156 0.124627
    66 0.717491 -3.784309 13.044010 -1.725758 0.009829 -1.454343
    67 -1.099228 -1.407673 8.017876 -1.350904 -0.015601 0.007733
    68 -0.064053 -0.807640 3.686100 -1.839908 -0.037754 0.018152
    69 4.004906 6.172710 4.754800 -0.720269 -0.940275 -1.497138
    70 -0.158381 -1.149773 5.804405 -0.345801 0.685529 0.599782
    71 1.078559 -2.386406 5.215008 -1.052487 1.087708 -0.156294
    72 6.289963 0.932404 13.569109 -0.126801 -0.612098 -2.869612
    73 -1.327759 -0.766682 12.396324 -0.057523 -0.016469 0.489302
    74 0.000017 -54.999996 0.000000 0.000000 0.000000 -1.570796
  time 17
    0 0.000000 0.000000 -1.500000 0.000000 0.000000 0.000000
    1 -10.521344 -5.760963 66.994621 3.097005 -0.050653 -3.139334
    2 -15.125090 27.118350 11.498032 0.747648 0.307423 1.177844
    3 -0.000034 0.000012 24.761454 -0.874715 -0.101535 -0.071861
    4 0.000017 0.000000 24.344809 1.111753 -0.325641 -0.139736
    5 0.002333 -1.019846 24.031336 0.389473 -0.082655 -0.012593
    6 0.000034 0.000008 13.404741 -0.000001 -0.000009 -0.169804
    7 10.398263 -5.760962 66.994675 3.097005 0.050653 3.139334
    8 -2.703374 9.003528 8.037106 0.196247 -0.642752 1.080033
    9 -0.000004 -0.000006 24.761459 -0.720891 0.083733 -0.893286
    10 -0.000007 0.000004 24.344891 1.098940 0.225183 0.040301
    11 -0.002360 -1.019903 24.031330 0.390400 -0.072009 -0.039151
    12 0.000000 -0.000002 13.404737 0.000001 0.000005 -0.446050
    13 -0.061540 -5.245835 72.927078 0.000000 0.000000 0.000000
    14 7.911722 18.730674 -9.333450 0.099897 -0.233705 -1.181795
    15 0.000000 -0.005608 -1.146812 0.103926 0.070642 0.082105
    16 0.030770 -0.240000 8.906021 -0.004138 0.000000 0.000000
    17 -0.578119 -1.010894 -0.105870 0.174248 0.074034 -0.724030
    18 0.030770 -0.276858 8.905140 0.056125 0.004134 -0.000049
    19 -0.509094 -0.003031 -0.005082 0.061162 -0.180822 -0.070087
    20 5.669724 4.435303 14.302868 1.964373 -1.226598 0.444867
    21 -1.044571 -2.839317 19.743267 -0.962970 -0.538898 0.182612
    22 2.655533 -1.533369 24.792658 -1.447757 0.117203 0.408504
    23 1.120163 -0.154394 9.796035 -0.072152 -0.013636 -0.647333
    24 2.240311 -0.308786 19.592051 -0.134813 -0.308164 -1.270456
    25 0.683151 2.877354 14.167051 -1.511326 -0.211747 1.554295
    26 0.144936 -0.145374 7.579252 -1.768092 -0.243253 0.235287
    27 0.091660 -0.906685 4.702850 -1.587437 -0.182568 0.191116
    28 0.506271 8.500866 13.617253 -1.470526 -0.303331 1.571638
    29 -0.384987 -0.460049 7.003448 -1.747476 -0.440889 0.551348
    30 0.561516 -0.596954 5.061852 -1.494372 -0.380569 0.386326
    31 -2.452171 -8.899406 11.597897 -1.564465 -0.075967 1.475308
    32 0.680496 -0.903999 6.074253 -1.628053 0.173822 -0.014264
    33 0.245514 -0.661150 3.388004 -1.484465 0.109507 -0.099205
    34 -0.717484 -3.784271 13.043911 -1.593546 -0.028646 1.464722
    35 1.099216 -1.407745 8.017889 -1.782123 0.031968 -0.017453
    36 0.068439 -0.807653 3.686054 -1.465865 0.034012 -0.009745
    37 -4.004929 6.172707 4.754754 0.109464 1.126798 2.530885
    38 0.158352 -1.149811 5.804394 -0.869499 -0.330219 0.145630
    39 -1.083523 -1.463142 5.544399 -0.797779 -0.152810 -0.023927
    40 -6.289886 0.932434 13.569063 -0.126803 0.612110 2.869610
    41 1.327774 -0.766687 12.396328 0.015458 -0.010567 0.151588
    42 -0.096140 1.828087 23.185329 -0.239899 0.030859 -0.868751
    43 2.325478 -0.000003 6.169296 -0.083518 0.145087 2.233237
    44 0.000000 -3.152912 0.122169 1.961017 0.000000 0.000000
    45 1.068383 -10.478592 7.066338 0.292219 -1.282324 -3.141588
    46 0.000000 0.000000 2.279457 0.547137 -0.343566 0.107833
    47 2.479414 -8.323895 6.074242 0.018168 -0.475641 2.167969
    48 0.000006 -5.070313 5.929688 0.000000 0.000000 0.000000
    49 -1.068383 -10.478611 7.065971 0.292219 1.282324 3.141588
    50 -0.000488 0.000015 2.279600 0.547136 0.343566 0.107835
    51 -2.479401 -8.323895 6.074234 0.033858 -0.463928 2.166629
    52 -5.790000 4.432083 14.255558 -5.712098 0.828818 -3.119938
    53 1.044540 -2.839314 19.743252 -0.246555 0.238267 -0.082384
    54 -2.655510 -1.533379 24.792648 -0.740767 -0.083189 0.950396
    55 -1.120216 -0.154385 9.795983 -0.052833 0.005027 0.464066
    56 -2.240372 -0.308788 19.592047 0.142954 -0.313700 0.941105
    57 -0.683205 2.877342 14.167089 -1.604576 0.208954 -1.789836
    58 -0.144958 -0.145317 7.579308 -1.541391 0.304896 -0.166506
    59 -0.038551 -0.936644 4.697678 -2.189566 0.238585 -0.365176
    60 -0.506317 8.500896 13.617329 -1.710239 0.278103 -1.993638
    61 0.385056 -0.460075 7.003435 -1.471905 0.596196 -0.385484
    62 -0.456360 -0.710276 5.057732 -1.989925 0.545821 -0.699361
    63 2.452194 -8.899408 11.597939 -1.419551 0.110567 -1.352620
    64 -0.680515 -0.903999 6.074242 -1.453600 -0.173887 -0.003174
    65 -0.248295 -0.666843 3.386627 -1.668601 -0.122156 0.124627
    66 0.717491 -3.784309 13.044010 -1.725758 0.009829 -1.454343
    67 -1.099228 -1.407673 8.017876 -1.350904 -0.015601 0.007733
    68 -0.064053 -0.807640 3.686100 -1.839908 -0.037754 0.018152
    69 4.004906 6.172710 4.754800 -0.720269 -0.940275 -1.497138
    70 -0.158381 -1.149773 5.804405 -0.345801 0.685529 0.599782
    71 1.078559 -2.386406 5.215008 -1.052487 1.087708 -0.156294
    72 6.289963 0.932404 13.569109 -0.126801 -0.612098 -2.869612
    73 -1.327759 -0.766682 12.396324 -0.059237 -0.016517 0.503228
    74 0.000017 -54.999996 0.000000 0.000000 0.000000 -1.570796
end
