// Created by Crowbar 0.74
version 1
nodes
  0 "root" -1
  1 "g_r_hip_offset" 0
  2 "g_r_hip" 1
  3 "g_r_knee" 2
  4 "g_r_ankle" 3
  5 "g_r_ball" 4
  6 "g_r_thightwist" 2
  7 "g_l_hip_offset" 0
  8 "g_l_hip" 7
  9 "g_l_knee" 8
  10 "g_l_ankle" 9
  11 "g_l_ball" 10
  12 "g_l_thightwist" 8
  13 "g_spine01_offset" 0
  14 "g_spine01" 13
  15 "g_pelvis" 14
  16 "g_spine02_offset" 14
  17 "g_spine02" 16
  18 "g_spine03_offset" 17
  19 "g_spine03" 18
  20 "g_l_clavical" 19
  21 "g_l_shoulder" 20
  22 "g_l_elbow" 21
  23 "g_l_forarm" 22
  24 "g_l_wrist" 22
  25 "g_l_birdy1" 24
  26 "g_l_birdy2" 25
  27 "g_l_birdy3" 26
  28 "g_l_index1" 24
  29 "g_l_index2" 28
  30 "g_l_index3" 29
  31 "g_l_pinky1" 24
  32 "g_l_pinky2" 31
  33 "g_l_pinky3" 32
  34 "g_l_ring1" 24
  35 "g_l_ring2" 34
  36 "g_l_ring3" 35
  37 "g_l_thumb1" 24
  38 "g_l_thumb2" 37
  39 "g_l_thumb3" 38
  40 "g_l_palm" 24
  41 "g_l_biceptwist" 21
  42 "g_neck" 19
  43 "g_head" 42
  44 "g_jaw" 43
  45 "g_l_brow" 43
  46 "g_l_brow2" 45
  47 "g_l_eye" 43
  48 "g_topeyelid" 43
  49 "g_r_brow" 43
  50 "g_r_brow2" 49
  51 "g_r_eye" 43
  52 "g_r_clavical" 19
  53 "g_r_shoulder" 52
  54 "g_r_elbow" 53
  55 "g_r_forarm" 54
  56 "g_r_wrist" 54
  57 "g_r_birdy1" 56
  58 "g_r_birdy2" 57
  59 "g_r_birdy3" 58
  60 "g_r_index1" 56
  61 "g_r_index2" 60
  62 "g_r_index3" 61
  63 "g_r_pinky1" 56
  64 "g_r_pinky2" 63
  65 "g_r_pinky3" 64
  66 "g_r_ring1" 56
  67 "g_r_ring2" 66
  68 "g_r_ring3" 67
  69 "g_r_thumb1" 56
  70 "g_r_thumb2" 69
  71 "g_r_thumb3" 70
  72 "g_r_palm" 56
  73 "g_r_biceptwist" 53
  74 "g_throwable_attach_offset" 0
end
skeleton
  time 0
    0 0.000000 0.000000 -1.500000 0.000000 0.000000 0.000000
    1 -10.521344 -5.760963 66.994621 3.097005 -0.050653 -3.139334
    2 8.438129 30.838279 23.293340 0.590582 0.356162 0.321740
    3 -0.000034 0.000012 24.761454 -1.851480 -0.214454 0.533332
    4 0.000017 0.000000 24.344809 2.116229 -0.058889 0.096701
    5 0.002333 -1.019846 24.031336 0.390444 -0.013623 0.038869
    6 0.000034 0.000008 13.404741 -0.000001 -0.000009 0.249658
    7 10.398263 -5.760962 66.994675 3.097005 0.050653 3.139334
    8 11.351743 26.301307 23.525944 1.258271 -0.631631 -0.230412
    9 -0.000004 -0.000006 24.761459 -0.852554 0.098965 -0.351490
    10 -0.000007 0.000004 24.344891 0.607600 0.399811 0.139509
    11 -0.002360 -1.019903 24.031330 0.389409 -0.020320 -0.000525
    12 0.000000 -0.000002 13.404737 0.000001 0.000005 -0.074500
    13 -0.061540 -5.245835 72.927078 0.000000 0.000000 0.000000
    14 -8.979419 29.770792 -22.288832 0.031952 0.356364 -0.076811
    15 0.000000 -0.005608 -1.146812 -0.051988 -0.288263 -0.134808
    16 0.030770 -0.240000 8.906021 -0.004138 0.000000 0.000000
    17 -0.359363 -0.335092 -0.008211 0.014083 -0.112938 0.506364
    18 0.030770 -0.276858 8.905140 0.056125 0.004134 -0.000049
    19 0.717506 -0.100690 -0.036333 0.052440 0.251486 0.040806
    20 5.669724 4.435303 14.302868 3.196201 -1.365739 0.930647
    21 -1.044571 -2.839317 19.743267 -0.188901 -0.403637 0.084106
    22 2.655533 -1.533369 24.792658 -0.498935 0.051954 0.025251
    23 1.120163 -0.154394 9.796035 -0.053049 -0.005103 -0.465968
    24 2.240311 -0.308786 19.592051 -0.096560 0.213623 -0.966338
    25 0.683151 2.877354 14.167051 -1.604473 -0.208955 1.789829
    26 0.144936 -0.145374 7.579252 -1.541338 -0.243037 0.192901
    27 0.091660 -0.906685 4.702850 -2.179566 -0.149705 0.299639
    28 0.506271 8.500866 13.617253 -1.710424 -0.277226 1.994248
    29 -0.384987 -0.460049 7.003448 -1.466275 -0.459230 0.447021
    30 0.561516 -0.596954 5.061852 -1.949558 -0.344315 0.554637
    31 -2.452171 -8.899406 11.597897 -1.419587 -0.110537 1.352647
    32 0.680496 -0.903999 6.074253 -1.454010 0.158683 -0.002608
    33 0.245514 -0.661150 3.388004 -1.667415 0.103003 -0.112663
    34 -0.717484 -3.784271 13.043911 -1.725743 -0.009830 1.454334
    35 1.099216 -1.407745 8.017889 -1.350749 0.021020 -0.003941
    36 0.068439 -0.807653 3.686054 -1.839852 0.041367 -0.021880
    37 -4.004929 6.172707 4.754754 -0.732396 0.947474 1.474407
    38 0.158352 -1.149811 5.804394 -0.581795 -0.633166 -0.073353
    39 -1.083523 -1.463142 5.544399 -1.425435 -0.590044 0.387375
    40 -6.289886 0.932434 13.569063 -0.126803 0.612110 2.869610
    41 1.327774 -0.766687 12.396328 -0.000517 0.000315 -0.004884
    42 -0.096140 1.828087 23.185329 0.154320 -0.059259 -1.689241
    43 2.325478 -0.000003 6.169296 -0.232786 -0.060270 1.364379
    44 0.000000 -3.152912 0.122169 1.961017 0.000000 0.000000
    45 1.068383 -10.478592 7.066338 0.292219 -1.282324 -3.141588
    46 0.000000 0.000000 2.279457 0.547137 -0.343566 0.107833
    47 2.479414 -8.323895 6.074242 -0.016739 -0.419477 1.405816
    48 -0.000006 -5.074219 5.929688 0.000000 0.000000 0.000000
    49 -1.068383 -10.478611 7.065971 0.292219 1.282324 3.141588
    50 -0.000488 0.000015 2.279600 0.547136 0.343566 0.107835
    51 -2.479401 -8.323895 6.074234 0.002126 -0.428395 1.410233
    52 -5.790000 4.432083 14.255558 -5.096404 1.370334 -1.415959
    53 1.044540 -2.839314 19.743252 -0.642828 0.740122 -0.239090
    54 -2.655510 -1.533379 24.792648 -1.189620 -0.118886 0.000740
    55 -1.120216 -0.154385 9.795983 -0.036067 0.000713 0.313873
    56 -2.240372 -0.308788 19.592047 -0.337928 0.464003 0.563055
    57 -0.683205 2.877342 14.167089 -1.511373 0.211739 -1.554289
    58 -0.144958 -0.145317 7.579308 -1.772247 0.309279 -0.224156
    59 -0.038551 -0.936644 4.697678 -1.586056 0.261752 -0.218437
    60 -0.506317 8.500896 13.617329 -1.470468 0.303320 -1.571570
    61 0.385056 -0.460075 7.003435 -1.777695 0.587339 -0.538339
    62 -0.456360 -0.710276 5.057732 -1.487158 0.565518 -0.447752
    63 2.452194 -8.899408 11.597939 -1.564403 0.075995 -1.475290
    64 -0.680515 -0.903999 6.074242 -1.628031 -0.189767 0.011189
    65 -0.248295 -0.666843 3.386627 -1.485218 -0.127720 0.108395
    66 0.717491 -3.784309 13.044010 -1.593579 0.028647 -1.464728
    67 -1.099228 -1.407673 8.017876 -1.782230 -0.025481 0.018644
    68 -0.064053 -0.807640 3.686100 -1.465933 -0.031321 0.006237
    69 4.004906 6.172710 4.754800 0.109551 -1.126781 -2.531025
    70 -0.158381 -1.149773 5.804405 -0.789206 0.528808 0.259739
    71 1.078559 -2.386406 5.215008 -0.656258 0.367225 0.154244
    72 6.289963 0.932404 13.569109 -0.126801 -0.612098 -2.869612
    73 -1.327759 -0.766682 12.396324 -0.008590 -0.004533 0.078517
    74 0.000017 -54.999996 0.000000 0.000000 0.000000 -1.570796
  time 1
    0 0.000000 0.000000 -1.500000 0.000000 0.000000 0.000000
    1 -10.521344 -5.760963 66.994621 3.097005 -0.050653 -3.139334
    2 8.438129 30.838279 23.293340 0.590582 0.356162 0.321740
    3 -0.000034 0.000012 24.761454 -1.851480 -0.214454 0.533332
    4 0.000017 0.000000 24.344809 2.116229 -0.058889 0.096701
    5 0.002333 -1.019846 24.031336 0.390444 -0.013623 0.038869
    6 0.000034 0.000008 13.404741 -0.000001 -0.000009 0.249658
    7 10.398263 -5.760962 66.994675 3.097005 0.050653 3.139334
    8 11.351743 26.301307 23.525944 1.258271 -0.631631 -0.230412
    9 -0.000004 -0.000006 24.761459 -0.852554 0.098965 -0.351490
    10 -0.000007 0.000004 24.344891 0.607600 0.399811 0.139509
    11 -0.002360 -1.019903 24.031330 0.389409 -0.020320 -0.000525
    12 0.000000 -0.000002 13.404737 0.000001 0.000005 -0.074500
    13 -0.061540 -5.245835 72.927078 0.000000 0.000000 0.000000
    14 -8.979419 29.770792 -22.288832 0.031952 0.356364 -0.076811
    15 0.000000 -0.005608 -1.146812 -0.051988 -0.288263 -0.134808
    16 0.030770 -0.240000 8.906021 -0.004138 0.000000 0.000000
    17 -0.359363 -0.335092 -0.008211 0.014083 -0.112938 0.506364
    18 0.030770 -0.276858 8.905140 0.056125 0.004134 -0.000049
    19 0.717506 -0.100690 -0.036333 0.052440 0.251486 0.040806
    20 5.669724 4.435303 14.302868 3.196201 -1.365739 0.930647
    21 -1.044571 -2.839317 19.743267 -0.188901 -0.403637 0.084106
    22 2.655533 -1.533369 24.792658 -0.498935 0.051954 0.025251
    23 1.120163 -0.154394 9.796035 -0.053049 -0.005103 -0.465968
    24 2.240311 -0.308786 19.592051 -0.096560 0.213623 -0.966338
    25 0.683151 2.877354 14.167051 -1.604473 -0.208955 1.789829
    26 0.144936 -0.145374 7.579252 -1.541338 -0.243037 0.192901
    27 0.091660 -0.906685 4.702850 -2.179566 -0.149705 0.299639
    28 0.506271 8.500866 13.617253 -1.710424 -0.277226 1.994248
    29 -0.384987 -0.460049 7.003448 -1.466275 -0.459230 0.447021
    30 0.561516 -0.596954 5.061852 -1.949558 -0.344315 0.554637
    31 -2.452171 -8.899406 11.597897 -1.419587 -0.110537 1.352647
    32 0.680496 -0.903999 6.074253 -1.454010 0.158683 -0.002608
    33 0.245514 -0.661150 3.388004 -1.667415 0.103003 -0.112663
    34 -0.717484 -3.784271 13.043911 -1.725743 -0.009830 1.454334
    35 1.099216 -1.407745 8.017889 -1.350749 0.021020 -0.003941
    36 0.068439 -0.807653 3.686054 -1.839852 0.041367 -0.021880
    37 -4.004929 6.172707 4.754754 -0.732396 0.947474 1.474407
    38 0.158352 -1.149811 5.804394 -0.581795 -0.633166 -0.073353
    39 -1.083523 -1.463142 5.544399 -1.425435 -0.590044 0.387375
    40 -6.289886 0.932434 13.569063 -0.126803 0.612110 2.869610
    41 1.327774 -0.766687 12.396328 -0.000517 0.000315 -0.004884
    42 -0.096140 1.828087 23.185329 0.154320 -0.059259 -1.689241
    43 2.325478 -0.000003 6.169296 -0.232786 -0.060270 1.364379
    44 0.000000 -3.152912 0.122169 1.961017 0.000000 0.000000
    45 1.068383 -10.478592 7.066338 0.292219 -1.282324 -3.141588
    46 0.000000 0.000000 2.279457 0.547137 -0.343566 0.107833
    47 2.479414 -8.323895 6.074242 -0.016739 -0.419477 1.405816
    48 -0.000006 -5.074219 5.929688 0.000000 0.000000 0.000000
    49 -1.068383 -10.478611 7.065971 0.292219 1.282324 3.141588
    50 -0.000488 0.000015 2.279600 0.547136 0.343566 0.107835
    51 -2.479401 -8.323895 6.074234 0.002126 -0.428395 1.410233
    52 -5.790000 4.432083 14.255558 -5.096404 1.370334 -1.415959
    53 1.044540 -2.839314 19.743252 -0.642828 0.740122 -0.239090
    54 -2.655510 -1.533379 24.792648 -1.189620 -0.118886 0.000740
    55 -1.120216 -0.154385 9.795983 -0.036067 0.000713 0.313873
    56 -2.240372 -0.308788 19.592047 -0.337928 0.464003 0.563055
    57 -0.683205 2.877342 14.167089 -1.511373 0.211739 -1.554289
    58 -0.144958 -0.145317 7.579308 -1.772247 0.309279 -0.224156
    59 -0.038551 -0.936644 4.697678 -1.586056 0.261752 -0.218437
    60 -0.506317 8.500896 13.617329 -1.470468 0.303320 -1.571570
    61 0.385056 -0.460075 7.003435 -1.777695 0.587339 -0.538339
    62 -0.456360 -0.710276 5.057732 -1.487158 0.565518 -0.447752
    63 2.452194 -8.899408 11.597939 -1.564403 0.075995 -1.475290
    64 -0.680515 -0.903999 6.074242 -1.628031 -0.189767 0.011189
    65 -0.248295 -0.666843 3.386627 -1.485218 -0.127720 0.108395
    66 0.717491 -3.784309 13.044010 -1.593579 0.028647 -1.464728
    67 -1.099228 -1.407673 8.017876 -1.782230 -0.025481 0.018644
    68 -0.064053 -0.807640 3.686100 -1.465933 -0.031321 0.006237
    69 4.004906 6.172710 4.754800 0.109551 -1.126781 -2.531025
    70 -0.158381 -1.149773 5.804405 -0.789206 0.528808 0.259739
    71 1.078559 -2.386406 5.215008 -0.656258 0.367225 0.154244
    72 6.289963 0.932404 13.569109 -0.126801 -0.612098 -2.869612
    73 -1.327759 -0.766682 12.396324 -0.008590 -0.004533 0.078517
    74 0.000017 -54.999996 0.000000 0.000000 0.000000 -1.570796
  time 2
    0 0.000000 0.000000 -1.500000 0.000000 0.000000 0.000000
    1 -10.521344 -5.760963 66.994621 3.097005 -0.050653 -3.139334
    2 7.606072 27.940909 22.956972 0.526704 0.334841 0.398067
    3 -0.000034 0.000012 24.761454 -1.806520 -0.209264 0.407595
    4 0.000017 0.000000 24.344809 2.155066 -0.098749 0.034843
    5 0.002333 -1.019846 24.031336 0.390220 -0.019196 0.034735
    6 0.000034 0.000008 13.404741 -0.000001 -0.000009 0.178595
    7 10.398263 -5.760962 66.994675 3.097005 0.050653 3.139334
    8 11.019701 21.442942 23.188742 1.269020 -0.749457 -0.196993
    9 -0.000004 -0.000006 24.761459 -1.087833 0.126206 -0.389530
    10 -0.000007 0.000004 24.344891 0.861047 0.425031 0.204057
    11 -0.002360 -1.019903 24.031330 0.389478 -0.030603 -0.008195
    12 0.000000 -0.000002 13.404737 0.000001 0.000005 -0.066728
    13 -0.061540 -5.245835 72.927078 0.000000 0.000000 0.000000
    14 -8.401276 25.648216 -22.086053 0.037265 0.324656 -0.219558
    15 0.000000 -0.005608 -1.146812 -0.051669 -0.256344 -0.087360
    16 0.030770 -0.240000 8.906021 -0.004138 0.000000 0.000000
    17 -0.511711 -0.213994 -0.004305 0.000131 -0.124054 0.319874
    18 0.030770 -0.276858 8.905140 0.056125 0.004134 -0.000049
    19 0.803447 -0.174911 -0.051958 0.070098 0.278620 0.020265
    20 5.669724 4.435303 14.302868 3.939068 -1.335720 0.368966
    21 -1.044571 -2.839317 19.743267 -0.226081 -0.361159 0.085854
    22 2.655533 -1.533369 24.792658 -0.369179 0.025478 0.015142
    23 1.120163 -0.154394 9.796035 -0.057208 -0.006613 -0.504152
    24 2.240311 -0.308786 19.592051 -0.053912 0.282921 -1.052150
    25 0.683151 2.877354 14.167051 -1.604473 -0.208955 1.789829
    26 0.144936 -0.145374 7.579252 -1.541338 -0.243025 0.192901
    27 0.091660 -0.906685 4.702850 -2.179566 -0.149705 0.299639
    28 0.506271 8.500866 13.617253 -1.710609 -0.276392 1.994772
    29 -0.384987 -0.460049 7.003448 -1.466275 -0.459218 0.447021
    30 0.561516 -0.596954 5.061852 -1.949558 -0.344315 0.554637
    31 -2.452171 -8.899406 11.597897 -1.419587 -0.110537 1.352647
    32 0.680496 -0.903999 6.074253 -1.454010 0.158683 -0.002608
    33 0.245514 -0.661150 3.388004 -1.667415 0.103003 -0.112663
    34 -0.717484 -3.784271 13.043911 -1.725743 -0.009830 1.454334
    35 1.099216 -1.407745 8.017889 -1.350749 0.021020 -0.003941
    36 0.068439 -0.807653 3.686054 -1.839852 0.041379 -0.021880
    37 -4.004929 6.172707 4.754754 -0.738792 0.950995 1.462733
    38 0.158352 -1.149811 5.804394 -0.581795 -0.633166 -0.073365
    39 -1.083523 -1.463142 5.544399 -1.425435 -0.590044 0.387375
    40 -6.289886 0.932434 13.569063 -0.126803 0.612110 2.869610
    41 1.327774 -0.766687 12.396328 0.000430 -0.000249 0.004004
    42 -0.096140 1.828087 23.185329 0.154320 -0.059259 -1.689241
    43 2.325478 -0.000003 6.169296 -0.204900 0.007734 1.650633
    44 0.000000 -3.152912 0.122169 1.961017 0.000000 0.000000
    45 1.068383 -10.478592 7.066338 0.292219 -1.282324 -3.141588
    46 0.000000 0.000000 2.279457 0.547137 -0.343566 0.107833
    47 2.479414 -8.323895 6.074242 -0.012770 -0.362279 1.489863
    48 -0.000006 -5.074219 5.929688 0.000000 0.000000 0.000000
    49 -1.068383 -10.478611 7.065971 0.292219 1.282324 3.141588
    50 -0.000488 0.000015 2.279600 0.547136 0.343566 0.107835
    51 -2.479401 -8.323895 6.074234 0.005902 -0.371883 1.495118
    52 -5.790000 4.432083 14.255558 -4.946195 1.407427 -1.402736
    53 1.044540 -2.839314 19.743252 -0.714736 0.711843 -0.245757
    54 -2.655510 -1.533379 24.792648 -1.160935 -0.120051 0.086012
    55 -1.120216 -0.154385 9.795983 -0.033310 0.000245 0.289743
    56 -2.240372 -0.308788 19.592047 -0.361831 0.469399 0.511159
    57 -0.683205 2.877342 14.167089 -1.511373 0.211739 -1.554302
    58 -0.144958 -0.145317 7.579308 -1.772247 0.309279 -0.224156
    59 -0.038551 -0.936644 4.697678 -1.586056 0.261752 -0.218437
    60 -0.506317 8.500896 13.617329 -1.470468 0.303320 -1.571570
    61 0.385056 -0.460075 7.003435 -1.777738 0.587339 -0.538339
    62 -0.456360 -0.710276 5.057732 -1.487158 0.565518 -0.447752
    63 2.452194 -8.899408 11.597939 -1.564403 0.075995 -1.475290
    64 -0.680515 -0.903999 6.074242 -1.628031 -0.189767 0.011189
    65 -0.248295 -0.666843 3.386627 -1.485218 -0.127720 0.108395
    66 0.717491 -3.784309 13.044010 -1.593579 0.028647 -1.464728
    67 -1.099228 -1.407673 8.017876 -1.782230 -0.025481 0.018644
    68 -0.064053 -0.807640 3.686100 -1.465933 -0.031321 0.006237
    69 4.004906 6.172710 4.754800 0.109551 -1.126781 -2.531025
    70 -0.158381 -1.149773 5.804405 -0.789206 0.528808 0.259739
    71 1.078559 -2.386406 5.215008 -0.640731 0.355921 0.149970
    72 6.289963 0.932404 13.569109 -0.126801 -0.612098 -2.869612
    73 -1.327759 -0.766682 12.396324 -0.013923 -0.006930 0.125753
    74 0.000017 -54.999996 0.000000 0.000000 0.000000 -1.570796
  time 3
    0 0.000000 0.000000 -1.500000 0.000000 0.000000 0.000000
    1 -10.521344 -5.760963 66.994621 3.097005 -0.050653 -3.139334
    2 6.207592 22.637248 22.261811 0.408375 0.335008 0.510874
    3 -0.000034 0.000012 24.761454 -1.682859 -0.194979 0.206936
    4 0.000017 0.000000 24.344809 2.178061 -0.174146 -0.070833
    5 0.002333 -1.019846 24.031336 0.390033 -0.025632 0.029941
    6 0.000034 0.000008 13.404741 -0.000001 -0.000009 0.067517
    7 10.398263 -5.760962 66.994675 3.097005 0.050653 3.139334
    8 10.593907 13.537170 22.424416 1.139264 -0.842188 -0.044750
    9 -0.000004 -0.000006 24.761459 -1.336477 0.154969 -0.375463
    10 -0.000007 0.000004 24.344891 1.237248 0.438030 0.275079
    11 -0.002360 -1.019903 24.031330 0.389594 -0.041413 -0.016260
    12 0.000000 -0.000002 13.404737 0.000001 0.000005 -0.028534
    13 -0.061540 -5.245835 72.927078 0.000000 0.000000 0.000000
    14 -7.541875 18.800548 -21.657962 0.044978 0.284999 -0.390591
    15 0.000000 -0.005608 -1.146812 -0.051574 -0.218009 -0.049342
    16 0.030770 -0.240000 8.906021 -0.004138 0.000000 0.000000
    17 -0.640621 -0.096803 -0.004305 -0.004919 -0.134245 0.133184
    18 0.030770 -0.276858 8.905140 0.056125 0.004134 -0.000049
    19 0.830791 -0.186630 -0.051958 0.065594 0.286108 -0.004795
    20 5.669724 4.435303 14.302868 4.110382 -1.277230 0.204803
    21 -1.044571 -2.839317 19.743267 -0.147466 -0.435469 0.079791
    22 2.655533 -1.533369 24.792658 -0.248797 0.001423 0.004872
    23 1.120163 -0.154394 9.796035 -0.059677 -0.007596 -0.527227
    24 2.240311 -0.308786 19.592051 -0.004954 0.278362 -1.087717
    25 0.683151 2.877354 14.167051 -1.604473 -0.208955 1.789829
    26 0.144936 -0.145374 7.579252 -1.541338 -0.243037 0.192901
    27 0.091660 -0.906685 4.702850 -2.179566 -0.149705 0.299639
    28 0.506271 8.500866 13.617253 -1.710733 -0.275579 1.995296
    29 -0.384987 -0.460049 7.003448 -1.466275 -0.459218 0.447009
    30 0.561516 -0.596954 5.061852 -1.949558 -0.344315 0.554637
    31 -2.452171 -8.899406 11.597897 -1.419587 -0.110537 1.352647
    32 0.680496 -0.903999 6.074253 -1.454010 0.158683 -0.002608
    33 0.245514 -0.661150 3.388004 -1.667415 0.103003 -0.112663
    34 -0.717484 -3.784271 13.043911 -1.725743 -0.009830 1.454334
    35 1.099216 -1.407745 8.017889 -1.350749 0.021020 -0.003953
    36 0.068439 -0.807653 3.686054 -1.839852 0.041379 -0.021880
    37 -4.004929 6.172707 4.754754 -0.736630 0.949833 1.466656
    38 0.158352 -1.149811 5.804394 -0.581795 -0.633166 -0.073365
    39 -1.083523 -1.463142 5.544399 -1.425435 -0.590044 0.387375
    40 -6.289886 0.932434 13.569063 -0.126803 0.612110 2.869610
    41 1.327774 -0.766687 12.396328 0.001436 -0.000848 0.013545
    42 -0.096140 1.828087 23.185329 0.154320 -0.059259 -1.689241
    43 2.325478 -0.000003 6.169296 -0.153950 0.052631 1.943911
    44 0.000000 -3.152912 0.122169 1.961017 0.000000 0.000000
    45 1.068383 -10.478592 7.066338 0.292219 -1.282324 -3.141588
    46 0.000000 0.000000 2.279457 0.547137 -0.343566 0.107833
    47 2.479414 -8.323895 6.074242 -0.007822 -0.290994 1.598265
    48 -0.000006 -5.074219 5.929688 0.000000 0.000000 0.000000
    49 -1.068383 -10.478611 7.065971 0.292219 1.282324 3.141588
    50 -0.000488 0.000015 2.279600 0.547136 0.343566 0.107835
    51 -2.479401 -8.323895 6.074234 0.010421 -0.299636 1.603955
    52 -5.790000 4.432083 14.255558 -4.786305 1.445184 -1.382232
    53 1.044540 -2.839314 19.743252 -0.784530 0.786505 -0.306311
    54 -2.655510 -1.533379 24.792648 -1.126261 -0.118951 0.141749
    55 -1.120216 -0.154385 9.795983 -0.030530 -0.000138 0.265368
    56 -2.240372 -0.308788 19.592047 -0.384512 0.467270 0.459263
    57 -0.683205 2.877342 14.167089 -1.511373 0.211739 -1.554302
    58 -0.144958 -0.145317 7.579308 -1.772247 0.309279 -0.224156
    59 -0.038551 -0.936644 4.697678 -1.586056 0.261752 -0.218437
    60 -0.506317 8.500896 13.617329 -1.470468 0.303320 -1.571570
    61 0.385056 -0.460075 7.003435 -1.777695 0.587339 -0.538339
    62 -0.456360 -0.710276 5.057732 -1.487158 0.565518 -0.447752
    63 2.452194 -8.899408 11.597939 -1.564403 0.075995 -1.475290
    64 -0.680515 -0.903999 6.074242 -1.628031 -0.189767 0.011189
    65 -0.248295 -0.666843 3.386627 -1.485218 -0.127720 0.108395
    66 0.717491 -3.784309 13.044010 -1.593579 0.028647 -1.464728
    67 -1.099228 -1.407673 8.017876 -1.782230 -0.025481 0.018644
    68 -0.064053 -0.807640 3.686100 -1.465933 -0.031321 0.006237
    69 4.004906 6.172710 4.754800 0.109551 -1.126781 -2.531025
    70 -0.158381 -1.149773 5.804405 -0.789206 0.528808 0.259739
    71 1.078559 -2.386406 5.215008 -0.645843 0.359689 0.151395
    72 6.289963 0.932404 13.569109 -0.126801 -0.612098 -2.869612
    73 -1.327759 -0.766682 12.396324 -0.017878 -0.008512 0.160359
    74 0.000017 -54.999996 0.000000 0.000000 0.000000 -1.570796
  time 4
    0 0.000000 0.000000 -1.500000 0.000000 0.000000 0.000000
    1 -10.521344 -5.760963 66.994621 3.097005 -0.050653 -3.139334
    2 4.203625 14.252063 20.983612 0.226783 0.393768 0.670517
    3 -0.000034 0.000012 24.761454 -1.400903 -0.162392 -0.063310
    4 0.000017 0.000000 24.344809 2.136018 -0.299814 -0.191158
    5 0.002333 -1.019846 24.031336 0.395148 -0.032235 0.024919
    6 0.000034 0.000008 13.404741 -0.000001 -0.000009 -0.063979
    7 10.398263 -5.760962 66.994675 3.097005 0.050653 3.139334
    8 10.429839 1.884587 21.098086 0.677737 -0.812851 0.359334
    9 -0.000004 -0.000006 24.761459 -1.484749 0.172119 -0.319801
    10 -0.000007 0.000004 24.344891 1.723554 0.426809 0.302235
    11 -0.002360 -1.019903 24.031330 0.389755 -0.051024 -0.023463
    12 0.000000 -0.000002 13.404737 0.000001 0.000005 -0.024283
    13 -0.061540 -5.245835 72.927078 0.000000 0.000000 0.000000
    14 -6.530125 8.540691 -20.824311 0.052275 0.239028 -0.599517
    15 0.000000 -0.005608 -1.146812 -0.051797 -0.173088 -0.023580
    16 0.030770 -0.240000 8.906021 -0.004138 0.000000 0.000000
    17 -0.718749 0.000856 -0.012117 -0.002584 -0.139943 -0.016886
    18 0.030770 -0.276858 8.905140 0.056125 0.004134 -0.000049
    19 0.795634 -0.124128 -0.044146 0.037249 0.266812 -0.028596
    20 5.669724 4.435303 14.302868 3.588212 -1.254751 0.429533
    21 -1.044571 -2.839317 19.743267 0.165723 -0.598544 -0.001230
    22 2.655533 -1.533369 24.792658 -0.168904 -0.007031 -0.123957
    23 1.120163 -0.154394 9.796035 -0.060012 -0.007728 -0.530332
    24 2.240311 -0.308786 19.592051 0.043874 0.127932 -1.073435
    25 0.683151 2.877354 14.167051 -1.604473 -0.208955 1.789829
    26 0.144936 -0.145374 7.579252 -1.541338 -0.243037 0.192901
    27 0.091660 -0.906685 4.702850 -2.179566 -0.149705 0.299639
    28 0.506271 8.500866 13.617253 -1.710918 -0.274876 1.995758
    29 -0.384987 -0.460049 7.003448 -1.466275 -0.459230 0.447021
    30 0.561516 -0.596954 5.061852 -1.949558 -0.344315 0.554637
    31 -2.452171 -8.899406 11.597897 -1.419587 -0.110537 1.352647
    32 0.680496 -0.903999 6.074253 -1.454010 0.158683 -0.002608
    33 0.245514 -0.661150 3.388004 -1.667415 0.103003 -0.112663
    34 -0.717484 -3.784271 13.043911 -1.725743 -0.009830 1.454334
    35 1.099216 -1.407745 8.017889 -1.350749 0.021020 -0.003941
    36 0.068439 -0.807653 3.686054 -1.839852 0.041367 -0.021880
    37 -4.004929 6.172707 4.754754 -0.720236 0.940309 1.497179
    38 0.158352 -1.149811 5.804394 -0.581795 -0.633166 -0.073365
    39 -1.083523 -1.463142 5.544399 -1.425435 -0.590044 0.387375
    40 -6.289886 0.932434 13.569063 -0.126803 0.612110 2.869610
    41 1.327774 -0.766687 12.396328 -0.003250 0.001813 -0.029942
    42 -0.096140 1.828087 23.185329 0.154320 -0.059259 -1.689241
    43 2.325478 -0.000003 6.169296 -0.099180 0.060560 2.177839
    44 0.000000 -3.152912 0.122169 1.961017 0.000000 0.000000
    45 1.068383 -10.478592 7.066338 0.292219 -1.282324 -3.141588
    46 0.000000 0.000000 2.279457 0.547137 -0.343566 0.107833
    47 2.479414 -8.323895 6.074242 -0.000128 -0.266481 1.773617
    48 -0.000006 -5.074219 5.929688 0.000000 0.000000 0.000000
    49 -1.068383 -10.478611 7.065971 0.292219 1.282324 3.141588
    50 -0.000488 0.000015 2.279600 0.547136 0.343566 0.107835
    51 -2.479401 -8.323895 6.074234 0.017490 -0.271947 1.777940
    52 -5.790000 4.432083 14.255558 -4.661498 1.476129 -1.380315
    53 1.044540 -2.839314 19.743252 -0.802507 0.944816 -0.404395
    54 -2.655510 -1.533379 24.792648 -1.082528 -0.113748 0.107974
    55 -1.120216 -0.154385 9.795983 -0.027857 -0.000462 0.242163
    56 -2.240372 -0.308788 19.592047 -0.402535 0.455637 0.410804
    57 -0.683205 2.877342 14.167089 -1.511373 0.211739 -1.554302
    58 -0.144958 -0.145317 7.579308 -1.772247 0.309279 -0.224156
    59 -0.038551 -0.936644 4.697678 -1.586056 0.261752 -0.218437
    60 -0.506317 8.500896 13.617329 -1.470468 0.303320 -1.571570
    61 0.385056 -0.460075 7.003435 -1.777738 0.587339 -0.538339
    62 -0.456360 -0.710276 5.057732 -1.487158 0.565518 -0.447752
    63 2.452194 -8.899408 11.597939 -1.564403 0.075995 -1.475290
    64 -0.680515 -0.903999 6.074242 -1.628031 -0.189767 0.011189
    65 -0.248295 -0.666843 3.386627 -1.485218 -0.127720 0.108395
    66 0.717491 -3.784309 13.044010 -1.593579 0.028647 -1.464728
    67 -1.099228 -1.407673 8.017876 -1.782230 -0.025469 0.018644
    68 -0.064053 -0.807640 3.686100 -1.465933 -0.031321 0.006237
    69 4.004906 6.172710 4.754800 0.109551 -1.126781 -2.531025
    70 -0.158381 -1.149773 5.804405 -0.789206 0.528808 0.259739
    71 1.078559 -2.386406 5.215008 -0.687550 0.389954 0.162246
    72 6.289963 0.932404 13.569109 -0.126801 -0.612098 -2.869612
    73 -1.327759 -0.766682 12.396324 -0.015290 -0.007493 0.137690
    74 0.000017 -54.999996 0.000000 0.000000 0.000000 -1.570796
  time 5
    0 0.000000 0.000000 -1.500000 0.000000 0.000000 0.000000
    1 -10.521344 -5.760963 66.994621 3.097005 -0.050653 -3.139334
    2 0.504293 -2.727015 14.637468 0.165843 0.627665 1.000376
    3 -0.000034 0.000012 24.761454 -0.996790 -0.115665 -0.357499
    4 0.000017 0.000000 24.344809 1.628046 -0.380938 -0.192779
    5 0.002333 -1.019846 24.031336 0.723314 -0.045934 0.002029
    6 0.000034 0.000008 13.404741 -0.000001 -0.000009 -0.186299
    7 10.398263 -5.760962 66.994675 3.097005 0.050653 3.139334
    8 11.164237 -19.921855 15.770285 -0.263915 -0.276654 0.984066
    9 -0.000004 -0.000006 24.761459 -0.932136 0.108181 -0.529851
    10 -0.000007 0.000004 24.344891 1.994298 0.362970 0.133225
    11 -0.002360 -1.019903 24.031330 0.389985 -0.059174 -0.029527
    12 0.000000 -0.000002 13.404737 0.000001 0.000005 -0.256818
    13 -0.061540 -5.245835 72.927078 0.000000 0.000000 0.000000
    14 -4.951952 -11.478257 -16.002656 0.049107 0.162192 -0.943203
    15 0.000000 -0.005608 -1.146812 -0.055337 -0.043781 -0.020319
    16 0.030770 -0.240000 8.906021 -0.004138 0.000000 0.000000
    17 -0.664060 -0.194463 -0.016024 0.049079 -0.119610 -0.010736
    18 0.030770 -0.276858 8.905140 0.056125 0.004134 -0.000049
    19 0.408903 0.610269 -0.055865 -0.226585 0.120343 -0.037141
    20 5.669724 4.435303 14.302868 1.159202 -1.155918 1.420165
    21 -1.044571 -2.839317 19.743267 0.032121 -0.455769 0.052154
    22 2.655533 -1.533369 24.792658 -0.369309 0.085386 -0.552174
    23 1.120163 -0.154394 9.796035 -0.066400 -0.010616 -0.590971
    24 2.240311 -0.308786 19.592051 0.060323 -0.375989 -1.229470
    25 0.683151 2.877354 14.167051 -1.604473 -0.208955 1.789829
    26 0.144936 -0.145374 7.579252 -1.541338 -0.243037 0.192901
    27 0.091660 -0.906685 4.702850 -2.179566 -0.149693 0.299639
    28 0.506271 8.500866 13.617253 -1.710980 -0.274612 1.995943
    29 -0.384987 -0.460049 7.003448 -1.466275 -0.459218 0.447009
    30 0.561516 -0.596954 5.061852 -1.949558 -0.344315 0.554649
    31 -2.452171 -8.899406 11.597897 -1.419587 -0.110537 1.352647
    32 0.680496 -0.903999 6.074253 -1.454010 0.158683 -0.002608
    33 0.245514 -0.661150 3.388004 -1.667415 0.103003 -0.112663
    34 -0.717484 -3.784271 13.043911 -1.725743 -0.009842 1.454334
    35 1.099216 -1.407745 8.017889 -1.350749 0.021020 -0.003941
    36 0.068439 -0.807653 3.686054 -1.839852 0.041379 -0.021880
    37 -4.004929 6.172707 4.754754 -0.597462 0.832044 1.745477
    38 0.158352 -1.149811 5.804394 -0.581795 -0.633166 -0.073365
    39 -1.083523 -1.463142 5.544399 -1.425435 -0.590044 0.387375
    40 -6.289886 0.932434 13.569063 -0.126803 0.612110 2.869610
    41 1.327774 -0.766687 12.396328 -0.032648 0.013054 -0.285541
    42 -0.096140 1.828087 23.185329 0.154320 -0.059259 -1.689241
    43 2.325478 -0.000003 6.169296 -0.024212 -0.056262 2.115016
    44 0.000000 -3.152912 0.122169 1.961017 0.000000 0.000000
    45 1.068383 -10.478592 7.066338 0.292219 -1.282324 -3.141588
    46 0.000000 0.000000 2.279457 0.547137 -0.343566 0.107833
    47 2.479414 -8.323895 6.074242 0.020751 -0.567682 2.199677
    48 -0.000006 -5.074219 5.929688 0.000000 0.000000 0.000000
    49 -1.068383 -10.478611 7.065971 0.292219 1.282324 3.141588
    50 -0.000488 0.000015 2.279600 0.547136 0.343566 0.107835
    51 -2.479401 -8.323895 6.074234 0.036911 -0.560509 2.196520
    52 -5.790000 4.432083 14.255558 -4.865962 1.470770 -1.651185
    53 1.044540 -2.839314 19.743252 0.022766 1.003960 0.000650
    54 -2.655510 -1.533379 24.792648 -1.001202 -0.095602 -0.107327
    55 -1.120216 -0.154385 9.795983 -0.025376 -0.000689 0.220563
    56 -2.240372 -0.308788 19.592047 -0.402611 0.421826 0.369905
    57 -0.683205 2.877342 14.167089 -1.511324 0.211739 -1.554302
    58 -0.144958 -0.145317 7.579308 -1.772301 0.309279 -0.224156
    59 -0.038551 -0.936644 4.697678 -1.586007 0.261752 -0.218437
    60 -0.506317 8.500896 13.617329 -1.470468 0.303320 -1.571615
    61 0.385056 -0.460075 7.003435 -1.777738 0.587339 -0.538339
    62 -0.456360 -0.710276 5.057732 -1.487158 0.565496 -0.447752
    63 2.452194 -8.899408 11.597939 -1.564403 0.075995 -1.475290
    64 -0.680515 -0.903999 6.074242 -1.628031 -0.189767 0.011189
    65 -0.248295 -0.666843 3.386627 -1.485218 -0.127720 0.108395
    66 0.717491 -3.784309 13.044010 -1.593579 0.028647 -1.464728
    67 -1.099228 -1.407673 8.017876 -1.782230 -0.025481 0.018644
    68 -0.064053 -0.807640 3.686100 -1.465877 -0.031321 0.006237
    69 4.004906 6.172710 4.754800 0.109551 -1.126781 -2.530943
    70 -0.158381 -1.149773 5.804405 -0.789206 0.528835 0.259739
    71 1.078559 -2.386406 5.215008 -1.110791 0.674280 0.190635
    72 6.289963 0.932404 13.569109 -0.126801 -0.612098 -2.869612
    73 -1.327759 -0.766682 12.396324 0.006690 0.004156 -0.063701
    74 0.000017 -54.999996 0.000000 0.000000 0.000000 -1.570796
  time 6
    0 0.000000 0.000000 -1.500000 0.000000 0.000000 0.000000
    1 -10.521344 -5.760963 66.994621 3.097005 -0.050653 -3.139334
    2 -0.702775 1.459439 11.722277 0.285128 0.512957 1.063770
    3 -0.000034 0.000012 24.761454 -1.046182 -0.121369 -0.354893
    4 0.000017 0.000000 24.344809 1.554131 -0.323219 -0.092115
    5 0.002333 -1.019846 24.031336 0.690684 -0.054215 -0.007955
    6 0.000034 0.000008 13.404741 -0.000001 -0.000009 -0.191952
    7 10.398263 -5.760962 66.994675 3.097005 0.050653 3.139334
    8 9.836071 -15.962724 11.881216 -0.191231 -0.334378 0.965830
    9 -0.000004 -0.000006 24.761459 -0.849695 0.098642 -0.508283
    10 -0.000007 0.000004 24.344891 1.783770 0.357326 0.116767
    11 -0.002360 -1.019903 24.031330 0.435752 -0.070284 -0.042423
    12 0.000000 -0.000002 13.404737 0.000001 0.000005 -0.248638
    13 -0.061540 -5.245835 72.927078 0.000000 0.000000 0.000000
    14 -3.533940 -7.041248 -12.442742 -0.000916 0.084702 -0.898102
    15 0.000000 -0.005608 -1.146812 -0.083375 -0.018026 -0.083746
    16 0.030770 -0.240000 8.906021 -0.004138 0.000000 0.000000
    17 -0.785157 -0.217901 -0.027743 0.076689 -0.127675 -0.211482
    18 0.030770 -0.276858 8.905140 0.056125 0.004134 -0.000049
    19 0.533907 0.614176 -0.067584 -0.226871 0.153834 -0.075384
    20 5.669724 4.435303 14.302868 0.105961 -1.014240 1.794682
    21 -1.044571 -2.839317 19.743267 -0.261255 -0.082184 0.077732
    22 2.655533 -1.533369 24.792658 -0.609379 0.095031 -0.579671
    23 1.120163 -0.154394 9.796035 -0.073615 -0.014463 -0.661751
    24 2.240311 -0.308786 19.592051 -0.010002 -0.414160 -1.345507
    25 0.683151 2.877354 14.167051 -1.604473 -0.208955 1.789829
    26 0.144936 -0.145374 7.579252 -1.541338 -0.243037 0.192901
    27 0.091660 -0.906685 4.702850 -2.179566 -0.149705 0.299639
    28 0.506271 8.500866 13.617253 -1.710856 -0.275535 1.995357
    29 -0.384987 -0.460049 7.003448 -1.466275 -0.459206 0.447009
    30 0.561516 -0.596954 5.061852 -1.949558 -0.344315 0.554637
    31 -2.452171 -8.899406 11.597897 -1.419587 -0.110537 1.352647
    32 0.680496 -0.903999 6.074253 -1.454010 0.158683 -0.002608
    33 0.245514 -0.661150 3.388004 -1.667415 0.103003 -0.112663
    34 -0.717484 -3.784271 13.043911 -1.725743 -0.009842 1.454334
    35 1.099216 -1.407745 8.017889 -1.350749 0.021020 -0.003953
    36 0.068439 -0.807653 3.686054 -1.839852 0.041379 -0.021880
    37 -4.004929 6.172707 4.754754 -0.472256 0.795797 1.859053
    38 0.158352 -1.149811 5.804394 -0.581795 -0.633166 -0.073365
    39 -1.083523 -1.463142 5.544399 -1.425435 -0.590044 0.387375
    40 -6.289886 0.932434 13.569063 -0.126803 0.612110 2.869610
    41 1.327774 -0.766687 12.396328 -0.035464 0.013713 -0.309042
    42 -0.096140 1.828087 23.185329 0.188357 -0.078794 -1.591472
    43 2.325478 -0.000003 6.169296 0.022869 0.024460 2.121801
    44 0.000000 -3.152912 0.122169 1.961017 0.000000 0.000000
    45 1.068383 -10.478592 7.066338 0.292219 -1.282324 -3.141588
    46 0.000000 0.000000 2.279457 0.547137 -0.343566 0.107833
    47 2.479414 -8.323895 6.074242 0.025155 -0.555801 2.303208
    48 -0.000006 -5.074219 5.929688 0.000000 0.000000 0.000000
    49 -1.068383 -10.478611 7.065971 0.292219 1.282324 3.141588
    50 -0.000488 0.000015 2.279600 0.547136 0.343566 0.107835
    51 -2.479401 -8.323895 6.074234 0.039763 -0.549547 2.297980
    52 -5.790000 4.432083 14.255558 -4.604654 1.407261 -1.497689
    53 1.044540 -2.839314 19.743252 0.255855 0.754622 0.067790
    54 -2.655510 -1.533379 24.792648 -0.902765 -0.088211 -0.101344
    55 -1.120216 -0.154385 9.795983 -0.022129 -0.000905 0.192216
    56 -2.240372 -0.308788 19.592047 -0.337623 0.291136 0.330124
    57 -0.683205 2.877342 14.167089 -1.511373 0.211739 -1.554302
    58 -0.144958 -0.145317 7.579308 -1.772301 0.309279 -0.224156
    59 -0.038551 -0.936644 4.697678 -1.586007 0.261752 -0.218437
    60 -0.506317 8.500896 13.617329 -1.470468 0.303320 -1.571570
    61 0.385056 -0.460075 7.003435 -1.777738 0.587339 -0.538339
    62 -0.456360 -0.710276 5.057732 -1.487158 0.565518 -0.447752
    63 2.452194 -8.899408 11.597939 -1.564403 0.075995 -1.475290
    64 -0.680515 -0.903999 6.074242 -1.628031 -0.189767 0.011189
    65 -0.248295 -0.666843 3.386627 -1.485218 -0.127720 0.108395
    66 0.717491 -3.784309 13.044010 -1.593579 0.028647 -1.464728
    67 -1.099228 -1.407673 8.017876 -1.782230 -0.025481 0.018644
    68 -0.064053 -0.807640 3.686100 -1.465933 -0.031321 0.006237
    69 4.004906 6.172710 4.754800 0.109551 -1.126781 -2.530943
    70 -0.158381 -1.149773 5.804405 -0.789206 0.528808 0.259768
    71 1.078559 -2.386406 5.215008 -0.982372 0.595096 0.199002
    72 6.289963 0.932404 13.569109 -0.126801 -0.612098 -2.869612
    73 -1.327759 -0.766682 12.396324 0.006450 0.003976 -0.061203
    74 0.000017 -54.999996 0.000000 0.000000 0.000000 -1.570796
  time 7
    0 0.000000 0.000000 -1.500000 0.000000 0.000000 0.000000
    1 -10.521344 -5.760963 66.994621 3.097005 -0.050653 -3.139334
    2 -1.226229 9.648192 9.255578 0.387060 0.293756 1.069144
    3 -0.000034 0.000012 24.761454 -1.126549 -0.130657 -0.379568
    4 0.000017 0.000000 24.344809 1.535144 -0.239923 0.094822
    5 0.002333 -1.019846 24.031336 0.607056 -0.062089 -0.011886
    6 0.000034 0.000008 13.404741 -0.000001 -0.000009 -0.208300
    7 10.398263 -5.760962 66.994675 3.097005 0.050653 3.139334
    8 8.785258 -7.594846 8.149507 -0.012421 -0.494893 0.873989
    9 -0.000004 -0.000006 24.761459 -0.808172 0.093848 -0.439271
    10 -0.000007 0.000004 24.344891 1.465331 0.392301 0.127781
    11 -0.002360 -1.019903 24.031330 0.520533 -0.078421 -0.059764
    12 0.000000 -0.000002 13.404737 0.000001 0.000005 -0.203617
    13 -0.061540 -5.245835 72.927078 0.000000 0.000000 0.000000
    14 -2.518284 1.762897 -9.063077 -0.069949 0.018757 -0.771690
    15 0.000000 -0.005608 -1.146812 -0.129850 -0.003094 -0.200328
    16 0.030770 -0.240000 8.906021 -0.004138 0.000000 0.000000
    17 -0.964850 -0.288215 -0.047275 0.128288 -0.123497 -0.501241
    18 0.030770 -0.276858 8.905140 0.056125 0.004134 -0.000049
    19 0.729226 0.618082 -0.083209 -0.232661 0.212997 -0.134360
    20 5.669724 4.435303 14.302868 -0.159814 -0.952967 1.756636
    21 -1.044571 -2.839317 19.743267 -0.566665 -0.040019 0.026181
    22 2.655533 -1.533369 24.792658 -0.920923 0.109633 -0.531471
    23 1.120163 -0.154394 9.796035 -0.075256 -0.015422 -0.678308
    24 2.240311 -0.308786 19.592051 -0.124978 -0.339382 -1.332847
    25 0.683151 2.877354 14.167051 -1.604473 -0.208955 1.789829
    26 0.144936 -0.145374 7.579252 -1.541338 -0.243013 0.192901
    27 0.091660 -0.906685 4.702850 -2.179566 -0.149693 0.299639
    28 0.506271 8.500866 13.617253 -1.710424 -0.277183 1.994279
    29 -0.384987 -0.460049 7.003448 -1.466275 -0.459206 0.447009
    30 0.561516 -0.596954 5.061852 -1.949558 -0.344315 0.554637
    31 -2.452171 -8.899406 11.597897 -1.419587 -0.110537 1.352647
    32 0.680496 -0.903999 6.074253 -1.454010 0.158683 -0.002608
    33 0.245514 -0.661150 3.388004 -1.667415 0.103003 -0.112663
    34 -0.717484 -3.784271 13.043911 -1.725743 -0.009830 1.454334
    35 1.099216 -1.407745 8.017889 -1.350749 0.021020 -0.003953
    36 0.068439 -0.807653 3.686054 -1.839852 0.041379 -0.021880
    37 -4.004929 6.172707 4.754754 -0.347770 0.772718 1.945646
    38 0.158352 -1.149811 5.804394 -0.581837 -0.633166 -0.073365
    39 -1.083523 -1.463142 5.544399 -1.425435 -0.590044 0.387375
    40 -6.289886 0.932434 13.569063 -0.126803 0.612110 2.869610
    41 1.327774 -0.766687 12.396328 -0.034745 0.013558 -0.303066
    42 -0.096140 1.828087 23.185329 0.238985 -0.133891 -1.409110
    43 2.325478 -0.000003 6.169296 0.064508 0.136840 2.137168
    44 0.000000 -3.152912 0.122169 1.961017 0.000000 0.000000
    45 1.068383 -10.478592 7.066338 0.292219 -1.282324 -3.141588
    46 0.000000 0.000000 2.279457 0.547137 -0.343566 0.107833
    47 2.479414 -8.323895 6.074242 0.026052 -0.503441 2.345327
    48 -0.000006 -5.074219 5.929688 0.000000 0.000000 0.000000
    49 -1.068383 -10.478611 7.065971 0.292219 1.282324 3.141588
    50 -0.000488 0.000015 2.279600 0.547136 0.343566 0.107835
    51 -2.479401 -8.323895 6.074234 0.039723 -0.500264 2.340231
    52 -5.790000 4.432083 14.255558 -4.282764 1.289711 -1.284117
    53 1.044540 -2.839314 19.743252 0.080927 0.605808 -0.021476
    54 -2.655510 -1.533379 24.792648 -0.812783 -0.096378 0.194836
    55 -1.120216 -0.154385 9.795983 -0.018497 -0.001061 0.160795
    56 -2.240372 -0.308788 19.592047 -0.225440 0.112081 0.291976
    57 -0.683205 2.877342 14.167089 -1.511373 0.211739 -1.554302
    58 -0.144958 -0.145317 7.579308 -1.772247 0.309267 -0.224156
    59 -0.038551 -0.936644 4.697678 -1.586056 0.261752 -0.218437
    60 -0.506317 8.500896 13.617329 -1.470468 0.303320 -1.571570
    61 0.385056 -0.460075 7.003435 -1.777695 0.587339 -0.538339
    62 -0.456360 -0.710276 5.057732 -1.487158 0.565518 -0.447752
    63 2.452194 -8.899408 11.597939 -1.564403 0.075995 -1.475290
    64 -0.680515 -0.903999 6.074242 -1.628031 -0.189767 0.011189
    65 -0.248295 -0.666843 3.386627 -1.485218 -0.127720 0.108395
    66 0.717491 -3.784309 13.044010 -1.593579 0.028647 -1.464728
    67 -1.099228 -1.407673 8.017876 -1.782230 -0.025481 0.018644
    68 -0.064053 -0.807640 3.686100 -1.465933 -0.031321 0.006237
    69 4.004906 6.172710 4.754800 0.109551 -1.126781 -2.530943
    70 -0.158381 -1.149773 5.804405 -0.789206 0.528808 0.259768
    71 1.078559 -2.386406 5.215008 -0.771730 0.450636 0.182122
    72 6.289963 0.932404 13.569109 -0.126801 -0.612098 -2.869612
    73 -1.327759 -0.766682 12.396324 -0.013636 -0.006810 0.123255
    74 0.000017 -54.999996 0.000000 0.000000 0.000000 -1.570796
  time 8
    0 0.000000 0.000000 -1.500000 0.000000 0.000000 0.000000
    1 -10.521344 -5.760963 66.994621 3.097005 -0.050653 -3.139334
    2 -1.784839 14.423941 8.089502 0.407009 0.195053 1.028862
    3 -0.000034 0.000012 24.761454 -1.100247 -0.127625 -0.368818
    4 0.000017 0.000000 24.344809 1.505060 -0.195604 0.198035
    5 0.002333 -1.019846 24.031336 0.546052 -0.065912 -0.011334
    6 0.000034 0.000008 13.404741 -0.000001 -0.000009 -0.201550
    7 10.398263 -5.760962 66.994675 3.097005 0.050653 3.139334
    8 7.457092 -2.336820 6.306133 0.110596 -0.555580 0.784789
    9 -0.000004 -0.000006 24.761459 -0.733925 0.085243 -0.405608
    10 -0.000007 0.000004 24.344891 1.238927 0.406166 0.120340
    11 -0.002360 -1.019903 24.031330 0.566138 -0.080255 -0.068154
    12 0.000000 -0.000002 13.404737 0.000001 0.000005 -0.180580
    13 -0.061540 -5.245835 72.927078 0.000000 0.000000 0.000000
    14 -1.553411 7.084980 -7.395776 -0.104162 -0.016444 -0.672962
    15 0.000000 -0.005608 -1.146812 -0.154794 0.007023 -0.262260
    16 0.030770 -0.240000 8.906021 -0.004138 0.000000 0.000000
    17 -1.093760 -0.432751 -0.070713 0.171407 -0.106633 -0.654905
    18 0.030770 -0.276858 8.905140 0.056125 0.004134 -0.000049
    19 0.815166 0.602457 -0.091022 -0.225906 0.245726 -0.163315
    20 5.669724 4.435303 14.302868 -0.093203 -0.945991 1.622086
    21 -1.044571 -2.839317 19.743267 -0.661766 -0.077279 0.015380
    22 2.655533 -1.533369 24.792658 -1.135953 0.124504 -0.515539
    23 1.120163 -0.154394 9.796035 -0.073279 -0.014259 -0.658578
    24 2.240311 -0.308786 19.592051 -0.154353 -0.286799 -1.287666
    25 0.683151 2.877354 14.167051 -1.604473 -0.208955 1.789829
    26 0.144936 -0.145374 7.579252 -1.541385 -0.243001 0.192769
    27 0.091660 -0.906685 4.702850 -2.179566 -0.149873 0.299591
    28 0.506271 8.500866 13.617253 -1.710238 -0.278083 1.993693
    29 -0.384987 -0.460049 7.003448 -1.466275 -0.459218 0.447009
    30 0.561516 -0.596954 5.061852 -1.949558 -0.344315 0.554637
    31 -2.452171 -8.899406 11.597897 -1.419587 -0.110537 1.352647
    32 0.680496 -0.903999 6.074253 -1.454010 0.158683 -0.002608
    33 0.245514 -0.661150 3.388004 -1.667415 0.103003 -0.112663
    34 -0.717484 -3.784271 13.043911 -1.725743 -0.009830 1.454334
    35 1.099216 -1.407745 8.017889 -1.350866 0.021056 -0.004025
    36 0.068439 -0.807653 3.686054 -1.839781 0.041271 -0.021904
    37 -4.004929 6.172707 4.754754 -0.298859 0.770553 1.971672
    38 0.158352 -1.149811 5.804394 -0.581795 -0.633166 -0.073365
    39 -1.083523 -1.463142 5.544399 -1.425435 -0.590044 0.387375
    40 -6.289886 0.932434 13.569063 -0.126803 0.612110 2.869610
    41 1.327774 -0.766687 12.396328 -0.035920 0.013809 -0.312708
    42 -0.096140 1.828087 23.185329 0.245354 -0.171462 -1.300396
    43 2.325478 -0.000003 6.169296 0.071479 0.198998 2.143155
    44 0.000000 -3.152912 0.122169 1.961017 0.000000 0.000000
    45 1.068383 -10.478592 7.066338 0.292219 -1.282324 -3.141588
    46 0.000000 0.000000 2.279457 0.547137 -0.343566 0.107833
    47 2.479414 -8.323895 6.074242 0.024312 -0.465075 2.316006
    48 -0.000006 -5.074219 5.929688 0.000000 0.000000 0.000000
    49 -1.068383 -10.478611 7.065971 0.292219 1.282324 3.141588
    50 -0.000488 0.000015 2.279600 0.547136 0.343566 0.107835
    51 -2.479401 -8.323895 6.074234 0.038156 -0.463503 2.311968
    52 -5.790000 4.432083 14.255558 -4.136294 1.233387 -1.211489
    53 1.044540 -2.839314 19.743252 -0.177708 0.638157 -0.088861
    54 -2.655510 -1.533379 24.792648 -0.764420 -0.097737 0.403549
    55 -1.120216 -0.154385 9.795983 -0.015058 -0.001073 0.130789
    56 -2.240372 -0.308788 19.592047 -0.153197 0.015153 0.245063
    57 -0.683205 2.877342 14.167089 -1.511324 0.211739 -1.554289
    58 -0.144958 -0.145317 7.579308 -1.772247 0.309267 -0.224156
    59 -0.038551 -0.936644 4.697678 -1.586007 0.261752 -0.218437
    60 -0.506317 8.500896 13.617329 -1.470468 0.303320 -1.571570
    61 0.385056 -0.460075 7.003435 -1.777695 0.587339 -0.538339
    62 -0.456360 -0.710276 5.057732 -1.487158 0.565518 -0.447752
    63 2.452194 -8.899408 11.597939 -1.564403 0.075995 -1.475290
    64 -0.680515 -0.903999 6.074242 -1.628031 -0.189767 0.011189
    65 -0.248295 -0.666843 3.386627 -1.485218 -0.127720 0.108395
    66 0.717491 -3.784309 13.044010 -1.593579 0.028647 -1.464728
    67 -1.099228 -1.407673 8.017876 -1.782230 -0.025469 0.018644
    68 -0.064053 -0.807640 3.686100 -1.465933 -0.031321 0.006237
    69 4.004906 6.172710 4.754800 0.109551 -1.126781 -2.531025
    70 -0.158381 -1.149773 5.804405 -0.789206 0.528808 0.259739
    71 1.078559 -2.386406 5.215008 -0.687550 0.389954 0.162246
    72 6.289963 0.932404 13.569109 -0.126801 -0.612098 -2.869612
    73 -1.327759 -0.766682 12.396324 -0.026076 -0.011304 0.230265
    74 0.000017 -54.999996 0.000000 0.000000 0.000000 -1.570796
  time 9
    0 0.000000 0.000000 -1.500000 0.000000 0.000000 0.000000
    1 -10.521344 -5.760963 66.994621 3.097005 -0.050653 -3.139334
    2 -2.468454 14.804528 7.753134 0.379955 0.229485 0.975997
    3 -0.000034 0.000012 24.761454 -1.039555 -0.120602 -0.306397
    4 0.000017 0.000000 24.344809 1.488169 -0.189787 0.189241
    5 0.002333 -1.019846 24.031336 0.520777 -0.065457 -0.008925
    6 0.000034 0.000008 13.404741 -0.000001 -0.000009 -0.170036
    7 10.398263 -5.760962 66.994675 3.097005 0.050653 3.139334
    8 5.824230 -1.237756 6.216212 0.201195 -0.551922 0.716630
    9 -0.000004 -0.000006 24.761459 -0.777483 0.090276 -0.385691
    10 -0.000007 0.000004 24.344891 1.223372 0.374458 0.113236
    11 -0.002360 -1.019903 24.031330 0.560032 -0.078301 -0.065181
    12 0.000000 -0.000002 13.404737 0.000001 0.000005 -0.162267
    13 -0.061540 -5.245835 72.927078 0.000000 0.000000 0.000000
    14 -0.526036 7.830304 -7.125402 -0.090656 -0.027025 -0.625940
    15 0.000000 -0.005608 -1.146812 -0.154187 0.017328 -0.251988
    16 0.030770 -0.240000 8.906021 -0.004138 0.000000 0.000000
    17 -1.113292 -0.651508 -0.094151 0.198617 -0.089807 -0.646479
    18 0.030770 -0.276858 8.905140 0.056125 0.004134 -0.000049
    19 0.822978 0.516516 -0.071490 -0.184263 0.257164 -0.157634
    20 5.669724 4.435303 14.302868 0.066051 -0.965229 1.515423
    21 -1.044571 -2.839317 19.743267 -0.649341 -0.146788 0.033570
    22 2.655533 -1.533369 24.792658 -1.196578 0.130422 -0.390916
    23 1.120163 -0.154394 9.796035 -0.068605 -0.011706 -0.612357
    24 2.240311 -0.308786 19.592051 -0.108223 -0.323589 -1.210361
    25 0.683151 2.877354 14.167051 -1.601401 -0.209710 1.781786
    26 0.144936 -0.145374 7.579252 -1.549144 -0.243193 0.194351
    27 0.091660 -0.906685 4.702850 -2.159511 -0.151826 0.296343
    28 0.506271 8.500866 13.617253 -1.702766 -0.281467 1.979671
    29 -0.384987 -0.460049 7.003448 -1.476270 -0.459014 0.450784
    30 0.561516 -0.596954 5.061852 -1.934528 -0.346676 0.549412
    31 -2.452171 -8.899406 11.597897 -1.424751 -0.110279 1.357022
    32 0.680496 -0.903999 6.074253 -1.460038 0.159246 -0.002980
    33 0.245514 -0.661150 3.388004 -1.661024 0.103279 -0.112232
    34 -0.717484 -3.784271 13.043911 -1.721157 -0.010453 1.454718
    35 1.099216 -1.407745 8.017889 -1.365612 0.021463 -0.004337
    36 0.068439 -0.807653 3.686054 -1.826881 0.041163 -0.021437
    37 -4.004929 6.172707 4.754754 -0.302642 0.793350 1.968610
    38 0.158352 -1.149811 5.804394 -0.591033 -0.625373 -0.058048
    39 -1.083523 -1.463142 5.544399 -1.401160 -0.568711 0.376532
    40 -6.289886 0.932434 13.569063 -0.126803 0.612110 2.869610
    41 1.327774 -0.766687 12.396328 -0.028429 0.011964 -0.250289
    42 -0.096140 1.828087 23.185329 0.211300 -0.164578 -1.285722
    43 2.325478 -0.000003 6.169296 0.040871 0.205032 2.128547
    44 0.000000 -3.152912 0.122169 1.961017 0.000000 0.000000
    45 1.068383 -10.478592 7.066338 0.292219 -1.282324 -3.141588
    46 0.000000 0.000000 2.279457 0.547137 -0.343566 0.107833
    47 2.479414 -8.323895 6.074242 0.020452 -0.432860 2.231004
    48 -0.000006 -5.074219 5.929688 0.000000 0.000000 0.000000
    49 -1.068383 -10.478611 7.065971 0.292219 1.282324 3.141588
    50 -0.000488 0.000015 2.279600 0.547136 0.343566 0.107835
    51 -2.479401 -8.323895 6.074234 0.035204 -0.431136 2.228520
    52 -5.790000 4.432083 14.255558 -4.060662 1.255194 -1.183128
    53 1.044540 -2.839314 19.743252 -0.292694 0.625141 -0.115995
    54 -2.655510 -1.533379 24.792648 -0.751889 -0.097310 0.484656
    55 -1.120216 -0.154385 9.795983 -0.011546 -0.001037 0.100728
    56 -2.240372 -0.308788 19.592047 -0.134105 0.011836 0.187324
    57 -0.683205 2.877342 14.167089 -1.514541 0.212316 -1.562356
    58 -0.144958 -0.145317 7.579308 -1.764400 0.309339 -0.222179
    59 -0.038551 -0.936644 4.697678 -1.606816 0.262363 -0.223542
    60 -0.506317 8.500896 13.617329 -1.478916 0.305084 -1.586127
    61 0.385056 -0.460075 7.003435 -1.767594 0.588268 -0.533347
    62 -0.456360 -0.710276 5.057732 -1.504647 0.566596 -0.456493
    63 2.452194 -8.899408 11.597939 -1.559745 0.078016 -1.471310
    64 -0.680515 -0.903999 6.074242 -1.621994 -0.189263 0.010674
    65 -0.248295 -0.666843 3.386627 -1.491462 -0.127612 0.109006
    66 0.717491 -3.784309 13.044010 -1.598063 0.027988 -1.464393
    67 -1.099228 -1.407673 8.017876 -1.767436 -0.025217 0.018189
    68 -0.064053 -0.807640 3.686100 -1.478707 -0.031632 0.006608
    69 4.004906 6.172710 4.754800 0.074691 -1.128975 -2.488292
    70 -0.158381 -1.149773 5.804405 -0.774033 0.535571 0.262757
    71 1.078559 -2.386406 5.215008 -0.737284 0.430847 0.148618
    72 6.289963 0.932404 13.569109 -0.126801 -0.612098 -2.869612
    73 -1.327759 -0.766682 12.396324 -0.031421 -0.012802 0.275651
    74 0.000017 -54.999996 0.000000 0.000000 0.000000 -1.570796
  time 10
    0 0.000000 0.000000 -1.500000 0.000000 0.000000 0.000000
    1 -10.521344 -5.760963 66.994621 3.097005 -0.050653 -3.139334
    2 -3.058316 14.779974 7.416766 0.329194 0.281147 0.900457
    3 -0.000034 0.000012 24.761454 -0.961505 -0.111590 -0.215026
    4 0.000017 0.000000 24.344809 1.471155 -0.183019 0.165258
    5 0.002333 -1.019846 24.031336 0.495838 -0.063611 -0.005402
    6 0.000034 0.000008 13.404741 -0.000001 -0.000009 -0.124791
    7 10.398263 -5.760962 66.994675 3.097005 0.050653 3.139334
    8 4.105428 -0.301053 6.351093 0.291112 -0.536046 0.644923
    9 -0.000004 -0.000006 24.761459 -0.827366 0.096053 -0.367711
    10 -0.000007 0.000004 24.344891 1.224405 0.336173 0.102159
    11 -0.002360 -1.019903 24.031330 0.543693 -0.074970 -0.059465
    12 0.000000 -0.000002 13.404737 0.000001 0.000005 -0.145950
    13 -0.061540 -5.245835 72.927078 0.000000 0.000000 0.000000
    14 0.454463 8.156383 -6.922623 -0.056923 -0.032169 -0.578978
    15 0.000000 -0.005608 -1.146812 -0.150519 0.028261 -0.227041
    16 0.030770 -0.240000 8.906021 -0.004138 0.000000 0.000000
    17 -1.062509 -0.901515 -0.125402 0.221681 -0.066866 -0.609501
    18 0.030770 -0.276858 8.905140 0.056125 0.004134 -0.000049
    19 0.799540 0.391513 -0.055865 -0.127536 0.265043 -0.143505
    20 5.669724 4.435303 14.302868 0.272297 -0.998948 1.432910
    21 -1.044571 -2.839317 19.743267 -0.577672 -0.209617 0.057146
    22 2.655533 -1.533369 24.792658 -1.204823 0.129730 -0.268880
    23 1.120163 -0.154394 9.796035 -0.061258 -0.008267 -0.542198
    24 2.240311 -0.308786 19.592051 -0.086812 -0.403846 -1.084354
    25 0.683151 2.877354 14.167051 -1.593008 -0.211496 1.760181
    26 0.144936 -0.145374 7.579252 -1.570007 -0.243564 0.198258
    27 0.091660 -0.906685 4.702850 -2.105390 -0.157243 0.287343
    28 0.506271 8.500866 13.617253 -1.682448 -0.289705 1.941828
    29 -0.384987 -0.460049 7.003448 -1.502947 -0.458331 0.460851
    30 0.561516 -0.596954 5.061852 -1.893936 -0.352644 0.535102
    31 -2.452171 -8.899406 11.597897 -1.438674 -0.109163 1.368645
    32 0.680496 -0.903999 6.074253 -1.476019 0.160721 -0.003975
    33 0.245514 -0.661150 3.388004 -1.644141 0.103950 -0.111033
    34 -0.717484 -3.784271 13.043911 -1.709031 -0.012131 1.455763
    35 1.099216 -1.407745 8.017889 -1.405234 0.022722 -0.005415
    36 0.068439 -0.807653 3.686054 -1.792517 0.040636 -0.020239
    37 -4.004929 6.172707 4.754754 -0.287599 0.835600 1.990426
    38 0.158352 -1.149811 5.804394 -0.616545 -0.603255 -0.019182
    39 -1.083523 -1.463142 5.544399 -1.337698 -0.512971 0.346561
    40 -6.289886 0.932434 13.569063 -0.126803 0.612110 2.869610
    41 1.327774 -0.766687 12.396328 -0.021346 0.009758 -0.190231
    42 -0.096140 1.828087 23.185329 0.164935 -0.149027 -1.283184
    43 2.325478 -0.000003 6.169296 -0.003680 0.201921 2.096457
    44 0.000000 -3.152912 0.122169 1.961017 0.000000 0.000000
    45 1.068383 -10.478592 7.066338 0.292219 -1.282324 -3.141588
    46 0.000000 0.000000 2.279457 0.547137 -0.343566 0.107833
    47 2.479414 -8.323895 6.074242 0.015857 -0.375240 2.133968
    48 -0.000006 -5.074219 5.929688 0.000000 0.000000 0.000000
    49 -1.068383 -10.478611 7.065971 0.292219 1.282324 3.141588
    50 -0.000488 0.000015 2.279600 0.547136 0.343566 0.107835
    51 -2.479401 -8.323895 6.074234 0.031388 -0.373631 2.133000
    52 -5.790000 4.432083 14.255558 -3.966817 1.282899 -1.130238
    53 1.044540 -2.839314 19.743252 -0.341282 0.608818 -0.124486
    54 -2.655510 -1.533379 24.792648 -0.742277 -0.096378 0.557735
    55 -1.120216 -0.154385 9.795983 -0.007771 -0.000809 0.067594
    56 -2.240372 -0.308788 19.592047 -0.117228 0.032776 0.122712
    57 -0.683205 2.877342 14.167089 -1.523203 0.213610 -1.583978
    58 -0.144958 -0.145317 7.579308 -1.743202 0.309423 -0.216870
    59 -0.038551 -0.936644 4.697678 -1.662438 0.263633 -0.237420
    60 -0.506317 8.500896 13.617329 -1.501543 0.308872 -1.625216
    61 0.385056 -0.460075 7.003435 -1.740270 0.590538 -0.519826
    62 -0.456360 -0.710276 5.057732 -1.551626 0.569011 -0.480170
    63 2.452194 -8.899408 11.597939 -1.547167 0.083244 -1.460585
    64 -0.680515 -0.903999 6.074242 -1.605987 -0.187909 0.009248
    65 -0.248295 -0.666843 3.386627 -1.508448 -0.127156 0.110516
    66 0.717491 -3.784309 13.044010 -1.610268 0.026190 -1.463550
    67 -1.099228 -1.407673 8.017876 -1.727817 -0.024498 0.017039
    68 -0.064053 -0.807640 3.686100 -1.513145 -0.032351 0.007579
    69 4.004906 6.172710 4.754800 -0.020402 -1.131441 -2.372619
    70 -0.158381 -1.149773 5.804405 -0.732804 0.553780 0.274332
    71 1.078559 -2.386406 5.215008 -0.798723 0.492356 0.104372
    72 6.289963 0.932404 13.569109 -0.126801 -0.612098 -2.869612
    73 -1.327759 -0.766682 12.396324 -0.036119 -0.013857 0.314282
    74 0.000017 -54.999996 0.000000 0.000000 0.000000 -1.570796
  time 11
    0 0.000000 0.000000 -1.500000 0.000000 0.000000 0.000000
    1 -10.521344 -5.760963 66.994621 3.097005 -0.050653 -3.139334
    2 -3.589582 14.436218 7.170096 0.256570 0.337151 0.807092
    3 -0.000034 0.000012 24.761454 -0.872236 -0.101235 -0.106431
    4 0.000017 0.000000 24.344809 1.453030 -0.181457 0.129176
    5 0.002333 -1.019846 24.031336 0.471832 -0.060723 -0.001207
    6 0.000034 0.000008 13.404741 -0.000001 -0.000009 -0.071572
    7 10.398263 -5.760962 66.994675 3.097005 0.050653 3.139334
    8 2.421782 0.523246 6.710776 0.373948 -0.510294 0.574867
    9 -0.000004 -0.000006 24.761459 -0.876973 0.101806 -0.351920
    10 -0.000007 0.000004 24.344891 1.236990 0.294932 0.087362
    11 -0.002360 -1.019903 24.031330 0.520095 -0.070427 -0.051974
    12 0.000000 -0.000002 13.404737 0.000001 0.000005 -0.132918
    13 -0.061540 -5.245835 72.927078 0.000000 0.000000 0.000000
    14 1.372460 8.179675 -6.832498 -0.008661 -0.033098 -0.536701
    15 0.000000 -0.005608 -1.146812 -0.144204 0.039240 -0.191414
    16 0.030770 -0.240000 8.906021 -0.004138 0.000000 0.000000
    17 -0.945318 -1.171055 -0.156653 0.242746 -0.041355 -0.548083
    18 0.030770 -0.276858 8.905140 0.056125 0.004134 -0.000049
    19 0.772196 0.243071 -0.036333 -0.060657 0.269939 -0.122592
    20 5.669724 4.435303 14.302868 0.514815 -1.044929 1.364773
    21 -1.044571 -2.839317 19.743267 -0.452093 -0.218749 0.070344
    22 2.655533 -1.533369 24.792658 -1.176442 0.124927 -0.182751
    23 1.120163 -0.154394 9.796035 -0.051875 -0.004695 -0.455137
    24 2.240311 -0.308786 19.592051 -0.114447 -0.513204 -0.919061
    25 0.683151 2.877354 14.167051 -1.580775 -0.213509 1.728860
    26 0.144936 -0.145374 7.579252 -1.600163 -0.243972 0.203878
    27 0.091660 -0.906685 4.702850 -2.026955 -0.164218 0.273776
    28 0.506271 8.500866 13.617253 -1.651817 -0.299460 1.886418
    29 -0.384987 -0.460049 7.003448 -1.541220 -0.456941 0.475257
    30 0.561516 -0.596954 5.061852 -1.834530 -0.360326 0.513806
    31 -2.452171 -8.899406 11.597897 -1.458571 -0.106753 1.385477
    32 0.680496 -0.903999 6.074253 -1.499098 0.162794 -0.005317
    33 0.245514 -0.661150 3.388004 -1.619803 0.104981 -0.109284
    34 -0.717484 -3.784271 13.043911 -1.691437 -0.014576 1.457269
    35 1.099216 -1.407745 8.017889 -1.462552 0.024388 -0.006949
    36 0.068439 -0.807653 3.686054 -1.742907 0.039917 -0.018489
    37 -4.004929 6.172707 4.754754 -0.255082 0.890736 2.036641
    38 0.158352 -1.149811 5.804394 -0.654431 -0.568326 0.031081
    39 -1.083523 -1.463142 5.544399 -1.249177 -0.436078 0.300416
    40 -6.289886 0.932434 13.569063 -0.126803 0.612110 2.869610
    41 1.327774 -0.766687 12.396328 -0.016816 0.008081 -0.151163
    42 -0.096140 1.828087 23.185329 0.110455 -0.128442 -1.291530
    43 2.325478 -0.000003 6.169296 -0.057208 0.188465 2.052154
    44 0.000000 -3.152912 0.122169 1.961017 0.000000 0.000000
    45 1.068383 -10.478592 7.066338 0.292219 -1.282324 -3.141588
    46 0.000000 0.000000 2.279457 0.547137 -0.343566 0.107833
    47 2.479414 -8.323895 6.074242 0.011154 -0.291511 2.033685
    48 -0.000006 -5.074219 5.929688 0.000000 0.000000 0.000000
    49 -1.068383 -10.478611 7.065971 0.292219 1.282324 3.141588
    50 -0.000488 0.000015 2.279600 0.547136 0.343566 0.107835
    51 -2.479401 -8.323895 6.074234 0.027150 -0.290233 2.034319
    52 -5.790000 4.432083 14.255558 -3.850638 1.312681 -1.050040
    53 1.044540 -2.839314 19.743252 -0.342451 0.601992 -0.123615
    54 -2.655510 -1.533379 24.792648 -0.734124 -0.095187 0.615290
    55 -1.120216 -0.154385 9.795983 -0.003792 -0.000474 0.033017
    56 -2.240372 -0.308788 19.592047 -0.106766 0.071488 0.055093
    57 -0.683205 2.877342 14.167089 -1.535676 0.214844 -1.615308
    58 -0.144958 -0.145317 7.579308 -1.712523 0.309363 -0.209152
    59 -0.038551 -0.936644 4.697678 -1.743159 0.264101 -0.257542
    60 -0.506317 8.500896 13.617329 -1.534654 0.311985 -1.681962
    61 0.385056 -0.460075 7.003435 -1.700427 0.593255 -0.500026
    62 -0.456360 -0.710276 5.057732 -1.619640 0.570779 -0.514555
    63 2.452194 -8.899408 11.597939 -1.528578 0.090028 -1.444807
    64 -0.680515 -0.903999 6.074242 -1.582757 -0.185896 0.007198
    65 -0.248295 -0.666843 3.386627 -1.532844 -0.126545 0.112722
    66 0.717491 -3.784309 13.044010 -1.627854 0.023637 -1.462260
    67 -1.099228 -1.407673 8.017876 -1.670434 -0.023371 0.015421
    68 -0.064053 -0.807640 3.686100 -1.562889 -0.033406 0.009077
    69 4.004906 6.172710 4.754800 -0.158261 -1.126028 -2.205781
    70 -0.158381 -1.149773 5.804405 -0.672287 0.579847 0.299737
    71 1.078559 -2.386406 5.215008 -0.863459 0.573837 0.041310
    72 6.289963 0.932404 13.569109 -0.126801 -0.612098 -2.869612
    73 -1.327759 -0.766682 12.396324 -0.039499 -0.014516 0.342365
    74 0.000017 -54.999996 0.000000 0.000000 0.000000 -1.570796
  time 12
    0 0.000000 0.000000 -1.500000 0.000000 0.000000 0.000000
    1 -10.521344 -5.760963 66.994621 3.097005 -0.050653 -3.139334
    2 -4.113035 13.908308 7.080398 0.168302 0.386558 0.704071
    3 -0.000034 0.000012 24.761454 -0.778575 -0.090401 0.006766
    4 0.000017 0.000000 24.344809 1.434105 -0.190217 0.084904
    5 0.002333 -1.019846 24.031336 0.449618 -0.057079 0.003215
    6 0.000034 0.000008 13.404741 -0.000001 -0.000009 -0.016666
    7 10.398263 -5.760962 66.994675 3.097005 0.050653 3.139334
    8 0.878767 1.247629 7.227820 0.446120 -0.478908 0.511164
    9 -0.000004 -0.000006 24.761459 -0.923831 0.107235 -0.338929
    10 -0.000007 0.000004 24.344891 1.257772 0.253847 0.070043
    11 -0.002360 -1.019903 24.031330 0.492188 -0.064974 -0.043705
    12 0.000000 -0.000002 13.404737 0.000001 0.000005 -0.123579
    13 -0.061540 -5.245835 72.927078 0.000000 0.000000 0.000000
    14 2.208423 8.004989 -6.967685 0.048467 -0.031137 -0.503071
    15 0.000000 -0.005608 -1.146812 -0.135464 0.049749 -0.149374
    16 0.030770 -0.240000 8.906021 -0.004138 0.000000 0.000000
    17 -0.773438 -1.452313 -0.191810 0.263958 -0.016249 -0.466179
    18 0.030770 -0.276858 8.905140 0.056125 0.004134 -0.000049
    19 0.740945 0.086816 -0.016801 0.010940 0.271934 -0.096837
    20 5.669724 4.435303 14.302868 0.782217 -1.099190 1.301427
    21 -1.044571 -2.839317 19.743267 -0.296771 -0.172149 0.077450
    22 2.655533 -1.533369 24.792658 -1.127143 0.119970 -0.170540
    23 1.120163 -0.154394 9.796035 -0.041088 -0.001723 -0.358280
    24 2.240311 -0.308786 19.592051 -0.211319 -0.624127 -0.715947
    25 0.683151 2.877354 14.167051 -1.566073 -0.214959 1.691669
    26 0.144936 -0.145374 7.579252 -1.635988 -0.244235 0.210578
    27 0.091660 -0.906685 4.702850 -1.933732 -0.171109 0.257022
    28 0.506271 8.500866 13.617253 -1.614269 -0.307589 1.819914
    29 -0.384987 -0.460049 7.003448 -1.586038 -0.454676 0.492047
    30 0.561516 -0.596954 5.061852 -1.763306 -0.367949 0.487727
    31 -2.452171 -8.899406 11.597897 -1.481911 -0.102651 1.405207
    32 0.680496 -0.903999 6.074253 -1.526619 0.165239 -0.007079
    33 0.245514 -0.661150 3.388004 -1.590991 0.106071 -0.107174
    34 -0.717484 -3.784271 13.043911 -1.670580 -0.017512 1.458959
    35 1.099216 -1.407745 8.017889 -1.530619 0.026257 -0.008987
    36 0.068439 -0.807653 3.686054 -1.683916 0.038850 -0.016487
    37 -4.004929 6.172707 4.754754 -0.204909 0.951435 2.106968
    38 0.158352 -1.149811 5.804394 -0.700284 -0.522478 0.080002
    39 -1.083523 -1.463142 5.544399 -1.148413 -0.352953 0.240721
    40 -6.289886 0.932434 13.569063 -0.126803 0.612110 2.869610
    41 1.327774 -0.766687 12.396328 -0.017008 0.008165 -0.152921
    42 -0.096140 1.828087 23.185329 0.051849 -0.106677 -1.309201
    43 2.325478 -0.000003 6.169296 -0.114174 0.164143 2.000906
    44 0.000000 -3.152912 0.122169 1.961017 0.000000 0.000000
    45 1.068383 -10.478592 7.066338 0.292219 -1.282324 -3.141588
    46 0.000000 0.000000 2.279457 0.547137 -0.343566 0.107833
    47 2.479414 -8.323895 6.074242 0.006750 -0.185147 1.935789
    48 -0.000006 -5.074219 5.929688 0.000000 0.000000 0.000000
    49 -1.068383 -10.478611 7.065971 0.292219 1.282324 3.141588
    50 -0.000488 0.000015 2.279600 0.547136 0.343566 0.107835
    51 -2.479401 -8.323895 6.074234 0.023033 -0.184580 1.937554
    52 -5.790000 4.432083 14.255558 -3.708193 1.340635 -0.940044
    53 1.044540 -2.839314 19.743252 -0.316682 0.612295 -0.119696
    54 -2.655510 -1.533379 24.792648 -0.725669 -0.094139 0.648309
    55 -1.120216 -0.154385 9.795983 0.000127 0.000018 -0.001151
    56 -2.240372 -0.308788 19.592047 -0.105544 0.121140 -0.012355
    57 -0.683205 2.877342 14.167089 -1.550525 0.215440 -1.652512
    58 -0.144958 -0.145317 7.579308 -1.676068 0.308991 -0.200019
    59 -0.038551 -0.936644 4.697678 -1.838624 0.262614 -0.281344
    60 -0.506317 8.500896 13.617329 -1.573723 0.311907 -1.749311
    61 0.385056 -0.460075 7.003435 -1.652728 0.595663 -0.476199
    62 -0.456360 -0.710276 5.057732 -1.700092 0.570348 -0.555223
    63 2.452194 -8.899408 11.597939 -1.506088 0.096882 -1.425693
    64 -0.680515 -0.903999 6.074242 -1.555269 -0.183463 0.004849
    65 -0.248295 -0.666843 3.386627 -1.561778 -0.125742 0.115286
    66 0.717491 -3.784309 13.044010 -1.648678 0.020629 -1.460685
    67 -1.099228 -1.407673 8.017876 -1.602348 -0.021921 0.013563
    68 -0.064053 -0.807640 3.686100 -1.621862 -0.034520 0.010899
    69 4.004906 6.172710 4.754800 -0.313135 -1.106406 -2.017659
    70 -0.158381 -1.149773 5.804405 -0.599736 0.609118 0.342754
    71 1.078559 -2.386406 5.215008 -0.924372 0.673146 -0.026758
    72 6.289963 0.932404 13.569109 -0.126801 -0.612098 -2.869612
    73 -1.327759 -0.766682 12.396324 -0.041176 -0.014828 0.356152
    74 0.000017 -54.999996 0.000000 0.000000 0.000000 -1.570796
  time 13
    0 0.000000 0.000000 -1.500000 0.000000 0.000000 0.000000
    1 -10.521344 -5.760963 66.994621 3.097005 -0.050653 -3.139334
    2 -4.656021 13.355843 7.259794 0.077096 0.423996 0.603628
    3 -0.000034 0.000012 24.761454 -0.690606 -0.080214 0.111370
    4 0.000017 0.000000 24.344809 1.416350 -0.213214 0.036658
    5 0.002333 -1.019846 24.031336 0.429869 -0.053113 0.007518
    6 0.000034 0.000008 13.404741 -0.000001 -0.000009 0.033388
    7 10.398263 -5.760962 66.994675 3.097005 0.050653 3.139334
    8 -0.445493 1.872098 7.902225 0.506093 -0.448217 0.459344
    9 -0.000004 -0.000006 24.761459 -0.969809 0.112556 -0.332326
    10 -0.000007 0.000004 24.344891 1.285782 0.215473 0.051946
    11 -0.002360 -1.019903 24.031330 0.462922 -0.058994 -0.035544
    12 0.000000 -0.000002 13.404737 0.000001 0.000005 -0.119800
    13 -0.061540 -5.245835 72.927078 0.000000 0.000000 0.000000
    14 2.966258 7.713847 -7.350713 0.108955 -0.027541 -0.482292
    15 0.000000 -0.005608 -1.146812 -0.124650 0.059207 -0.105133
    16 0.030770 -0.240000 8.906021 -0.004138 0.000000 0.000000
    17 -0.550775 -1.721853 -0.230874 0.286917 0.005591 -0.367663
    18 0.030770 -0.276858 8.905140 0.056125 0.004134 -0.000049
    19 0.705787 -0.065533 -0.005082 0.081465 0.271358 -0.068337
    20 5.669724 4.435303 14.302868 1.064070 -1.155847 1.233193
    21 -1.044571 -2.839317 19.743267 -0.139540 -0.125340 0.087772
    22 2.655533 -1.533369 24.792658 -1.070337 0.117011 -0.245104
    23 1.120163 -0.154394 9.796035 -0.029775 0.000206 -0.258698
    24 2.240311 -0.308786 19.592051 -0.378908 -0.703509 -0.480944
    25 0.683151 2.877354 14.167051 -1.550494 -0.215439 1.652530
    26 0.144936 -0.145374 7.579252 -1.673625 -0.244271 0.217637
    27 0.091660 -0.906685 4.702850 -1.835380 -0.176634 0.238757
    28 0.506271 8.500866 13.617253 -1.573757 -0.311917 1.749343
    29 -0.384987 -0.460049 7.003448 -1.632634 -0.451596 0.509377
    30 0.561516 -0.596954 5.061852 -1.687513 -0.374085 0.459503
    31 -2.452171 -8.899406 11.597897 -1.506061 -0.096895 1.425689
    32 0.680496 -0.903999 6.074253 -1.555528 0.167732 -0.008900
    33 0.245514 -0.661150 3.388004 -1.560741 0.107258 -0.104921
    34 -0.717484 -3.784271 13.043911 -1.648709 -0.020628 1.460696
    35 1.099216 -1.407745 8.017889 -1.602178 0.028067 -0.011096
    36 0.068439 -0.807653 3.686054 -1.621868 0.037772 -0.014438
    37 -4.004929 6.172707 4.754754 -0.137983 1.010162 2.199685
    38 0.158352 -1.149811 5.804394 -0.748722 -0.470025 0.117801
    39 -1.083523 -1.463142 5.544399 -1.046393 -0.276970 0.171842
    40 -6.289886 0.932434 13.569063 -0.126803 0.612110 2.869610
    41 1.327774 -0.766687 12.396328 -0.021970 0.009950 -0.195554
    42 -0.096140 1.828087 23.185329 -0.006775 -0.086920 -1.334025
    43 2.325478 -0.000003 6.169296 -0.169087 0.129837 1.947623
    44 0.000000 -3.152912 0.122169 1.961017 0.000000 0.000000
    45 1.068383 -10.478592 7.066338 0.292219 -1.282324 -3.141588
    46 0.000000 0.000000 2.279457 0.547137 -0.343566 0.107833
    47 2.479414 -8.323895 6.074242 0.002726 -0.064507 1.842574
    48 -0.000006 -5.074219 5.929688 0.000000 0.000000 0.000000
    49 -1.068383 -10.478611 7.065971 0.292219 1.282324 3.141588
    50 -0.000488 0.000015 2.279600 0.547136 0.343566 0.107835
    51 -2.479401 -8.323895 6.074234 0.019277 -0.064562 1.845676
    52 -5.790000 4.432083 14.255558 -3.541305 1.362899 -0.803603
    53 1.044540 -2.839314 19.743252 -0.284958 0.640955 -0.116131
    54 -2.655510 -1.533379 24.792648 -0.715604 -0.093647 0.649369
    55 -1.120216 -0.154385 9.795983 0.003770 0.000569 -0.033116
    56 -2.240372 -0.308788 19.592047 -0.113868 0.174258 -0.076194
    57 -0.683205 2.877342 14.167089 -1.566117 0.214963 -1.691665
    58 -0.144958 -0.145317 7.579308 -1.637761 0.308260 -0.190432
    59 -0.038551 -0.936644 4.697678 -1.939069 0.258696 -0.306104
    60 -0.506317 8.500896 13.617329 -1.614376 0.307600 -1.819896
    61 0.385056 -0.460075 7.003435 -1.601965 0.597193 -0.450764
    62 -0.456360 -0.710276 5.057732 -1.784090 0.566941 -0.597593
    63 2.452194 -8.899408 11.597939 -1.481966 0.102644 -1.405220
    64 -0.680515 -0.903999 6.074242 -1.526217 -0.180802 0.002452
    65 -0.248295 -0.666843 3.386627 -1.592127 -0.124819 0.117995
    66 0.717491 -3.784309 13.044010 -1.670598 0.017501 -1.458974
    67 -1.099228 -1.407673 8.017876 -1.530731 -0.020267 0.011741
    68 -0.064053 -0.807640 3.686100 -1.683930 -0.035611 0.012876
    69 4.004906 6.172710 4.754800 -0.457469 -1.072010 -1.839606
    70 -0.158381 -1.149773 5.804405 -0.523662 0.636499 0.401887
    71 1.078559 -2.386406 5.215008 -0.976304 0.783973 -0.086642
    72 6.289963 0.932404 13.569109 -0.126801 -0.612098 -2.869612
    73 -1.327759 -0.766682 12.396324 -0.040781 -0.014756 0.352960
    74 0.000017 -54.999996 0.000000 0.000000 0.000000 -1.570796
  time 14
    0 0.000000 0.000000 -1.500000 0.000000 0.000000 0.000000
    1 -10.521344 -5.760963 66.994621 3.097005 -0.050653 -3.139334
    2 -5.245883 12.938425 7.775559 0.000920 0.452444 0.520923
    3 -0.000034 0.000012 24.761454 -0.622922 -0.072364 0.194028
    4 0.000017 0.000000 24.344809 1.405192 -0.252191 -0.012172
    5 0.002333 -1.019846 24.031336 0.413292 -0.049230 0.011353
    6 0.000034 0.000008 13.404741 -0.000001 -0.000009 0.071546
    7 10.398263 -5.760962 66.994675 3.097005 0.050653 3.139334
    8 -1.511931 2.321715 8.733992 0.554805 -0.426854 0.425347
    9 -0.000004 -0.000006 24.761459 -1.020791 0.118440 -0.338749
    10 -0.000007 0.000004 24.344891 1.321537 0.181876 0.034605
    11 -0.002360 -1.019903 24.031330 0.435153 -0.053038 -0.028269
    12 0.000000 -0.000002 13.404737 0.000001 0.000005 -0.125039
    13 -0.061540 -5.245835 72.927078 0.000000 0.000000 0.000000
    14 3.630341 7.411059 -7.959053 0.167106 -0.023790 -0.479290
    15 0.000000 -0.005608 -1.146812 -0.112115 0.067065 -0.062821
    16 0.030770 -0.240000 8.906021 -0.004138 0.000000 0.000000
    17 -0.300767 -1.960141 -0.269938 0.311917 0.021619 -0.256048
    18 0.030770 -0.276858 8.905140 0.056125 0.004134 -0.000049
    19 0.674536 -0.198349 0.002731 0.145734 0.268828 -0.039215
    20 5.669724 4.435303 14.302868 1.349943 -1.207466 1.151735
    21 -1.044571 -2.839317 19.743267 -0.013375 -0.141778 0.091410
    22 2.655533 -1.533369 24.792658 -1.014052 0.114321 -0.371749
    23 1.120163 -0.154394 9.796035 -0.018797 0.001021 -0.163255
    24 2.240311 -0.308786 19.592051 -0.582792 -0.728190 -0.243766
    25 0.683151 2.877354 14.167051 -1.535683 -0.214863 1.615314
    26 0.144936 -0.145374 7.579252 -1.709403 -0.244079 0.224312
    27 0.091660 -0.906685 4.702850 -1.741652 -0.180254 0.220936
    28 0.506271 8.500866 13.617253 -1.534665 -0.311961 1.681976
    29 -0.384987 -0.460049 7.003448 -1.676420 -0.448036 0.525508
    30 0.561516 -0.596954 5.061852 -1.614826 -0.378076 0.432107
    31 -2.452171 -8.899406 11.597897 -1.528591 -0.090023 1.444802
    32 0.680496 -0.903999 6.074253 -1.582969 0.170104 -0.010986
    33 0.245514 -0.661150 3.388004 -1.531982 0.108049 -0.102812
    34 -0.717484 -3.784271 13.043911 -1.627852 -0.023636 1.462263
    35 1.099216 -1.407745 8.017889 -1.670245 0.029697 -0.013505
    36 0.068439 -0.807653 3.686054 -1.562806 0.036333 -0.012604
    37 -4.004929 6.172707 4.754754 -0.058805 1.060264 2.307520
    38 0.158352 -1.149811 5.804394 -0.794575 -0.417514 0.139829
    39 -1.083523 -1.463142 5.544399 -0.951750 -0.217826 0.100959
    40 -6.289886 0.932434 13.569063 -0.126803 0.612110 2.869610
    41 1.327774 -0.766687 12.396328 -0.028621 0.012024 -0.251997
    42 -0.096140 1.828087 23.185329 -0.060913 -0.071687 -1.363466
    43 2.325478 -0.000003 6.169296 -0.217267 0.087805 1.896016
    44 0.000000 -3.152912 0.122169 1.961017 0.000000 0.000000
    45 1.068383 -10.478592 7.066338 0.292219 -1.282324 -3.141588
    46 0.000000 0.000000 2.279457 0.547137 -0.343566 0.107833
    47 2.479414 -8.323895 6.074242 -0.000862 0.058058 1.756139
    48 -0.000006 -5.074219 5.929688 0.000000 0.000000 0.000000
    49 -1.068383 -10.478611 7.065971 0.292219 1.282324 3.141588
    50 -0.000488 0.000015 2.279600 0.547136 0.343566 0.107835
    51 -2.479401 -8.323895 6.074234 0.016004 0.057487 1.760312
    52 -5.790000 4.432083 14.255558 -3.364735 1.376689 -0.656718
    53 1.044540 -2.839314 19.743252 -0.268539 0.684200 -0.117029
    54 -2.655510 -1.533379 24.792648 -0.702922 -0.093712 0.615517
    55 -1.120216 -0.154385 9.795983 0.006946 0.001156 -0.061081
    56 -2.240372 -0.308788 19.592047 -0.129447 0.224653 -0.133417
    57 -0.683205 2.877342 14.167089 -1.580768 0.213490 -1.728843
    58 -0.144958 -0.145317 7.579308 -1.601306 0.307253 -0.181335
    59 -0.038551 -0.936644 4.697678 -2.034189 0.252787 -0.329079
    60 -0.506317 8.500896 13.617329 -1.651786 0.299454 -1.886391
    61 0.385056 -0.460075 7.003435 -1.553187 0.597641 -0.426263
    62 -0.456360 -0.710276 5.057732 -1.862987 0.561012 -0.637050
    63 2.452194 -8.899408 11.597939 -1.458640 0.106780 -1.385462
    64 -0.680515 -0.903999 6.074242 -1.498676 -0.178225 0.000259
    65 -0.248295 -0.666843 3.386627 -1.621019 -0.123873 0.120512
    66 0.717491 -3.784309 13.044010 -1.691472 0.014589 -1.457275
    67 -1.099228 -1.407673 8.017876 -1.462813 -0.018625 0.010147
    68 -0.064053 -0.807640 3.686100 -1.742960 -0.036510 0.014842
    69 4.004906 6.172710 4.754800 -0.573192 -1.028585 -1.692824
    70 -0.158381 -1.149773 5.804405 -0.453203 0.658459 0.469488
    71 1.078559 -2.386406 5.215008 -1.015671 0.895351 -0.129243
    72 6.289963 0.932404 13.569109 -0.126801 -0.612098 -2.869612
    73 -1.327759 -0.766682 12.396324 -0.038324 -0.014288 0.332557
    74 0.000017 -54.999996 0.000000 0.000000 0.000000 -1.570796
  time 15
    0 0.000000 0.000000 -1.500000 0.000000 0.000000 0.000000
    1 -10.521344 -5.760963 66.994621 3.097005 -0.050653 -3.139334
    2 -5.913872 12.803378 8.672540 -0.077237 0.476493 0.465393
    3 -0.000034 0.000012 24.761454 -0.520888 -0.060535 0.237759
    4 0.000017 0.000000 24.344809 1.373752 -0.351422 -0.064373
    5 0.002333 -1.019846 24.031336 0.400636 -0.045910 0.014421
    6 0.000034 0.000008 13.404741 -0.000001 -0.000009 0.091332
    7 10.398263 -5.760962 66.994675 3.097005 0.050653 3.139334
    8 -2.289299 2.583992 9.790560 0.593877 -0.425500 0.417013
    9 -0.000004 -0.000006 24.761459 -1.085523 0.125955 -0.367495
    10 -0.000007 0.000004 24.344891 1.366779 0.155167 0.019241
    11 -0.002360 -1.019903 24.031330 0.411740 -0.047800 -0.022432
    12 0.000000 -0.000002 13.404737 0.000001 0.000005 -0.144340
    13 -0.061540 -5.245835 72.927078 0.000000 0.000000 0.000000
    14 4.188952 7.201436 -8.950421 0.217353 -0.021210 -0.498687
    15 0.000000 -0.005608 -1.146812 -0.098176 0.072712 -0.026814
    16 0.030770 -0.240000 8.906021 -0.004138 0.000000 0.000000
    17 -0.019509 -2.167179 -0.316814 0.337717 0.029456 -0.135050
    18 0.030770 -0.276858 8.905140 0.056125 0.004134 -0.000049
    19 0.662817 -0.303821 0.006637 0.199030 0.265475 -0.011315
    20 5.669724 4.435303 14.302868 1.624810 -1.245484 1.053410
    21 -1.044571 -2.839317 19.743267 0.047434 -0.225638 0.080327
    22 2.655533 -1.533369 24.792658 -0.962757 0.110632 -0.490146
    23 1.120163 -0.154394 9.796035 -0.009102 0.000877 -0.079161
    24 2.240311 -0.308786 19.592051 -0.765874 -0.701437 -0.049751
    25 0.683151 2.877354 14.167051 -1.523230 -0.213617 1.583980
    26 0.144936 -0.145374 7.579252 -1.739466 -0.243732 0.229957
    27 0.091660 -0.906685 4.702850 -1.662577 -0.182003 0.205680
    28 0.506271 8.500866 13.617253 -1.501564 -0.308863 1.625211
    29 -0.384987 -0.460049 7.003448 -1.713021 -0.444573 0.538883
    30 0.561516 -0.596954 5.061852 -1.553099 -0.379981 0.408677
    31 -2.452171 -8.899406 11.597897 -1.547121 -0.083232 1.460613
    32 0.680496 -0.903999 6.074253 -1.606128 0.172034 -0.012651
    33 0.245514 -0.661150 3.388004 -1.507643 0.108816 -0.100966
    34 -0.717484 -3.784271 13.043911 -1.610258 -0.026189 1.463554
    35 1.099216 -1.407745 8.017889 -1.727679 0.030907 -0.015482
    36 0.068439 -0.807653 3.686054 -1.513054 0.035183 -0.011094
    37 -4.004929 6.172707 4.754754 0.021453 1.097250 2.414781
    38 0.158352 -1.149811 5.804394 -0.833097 -0.372472 0.147547
    39 -1.083523 -1.463142 5.544399 -0.872855 -0.179164 0.037853
    40 -6.289886 0.932434 13.569063 -0.126803 0.612110 2.869610
    41 1.327774 -0.766687 12.396328 -0.034038 0.013402 -0.297241
    42 -0.096140 1.828087 23.185329 -0.105685 -0.062319 -1.394741
    43 2.325478 -0.000003 6.169296 -0.255085 0.041765 1.848759
    44 0.000000 -3.152912 0.122169 1.961017 0.000000 0.000000
    45 1.068383 -10.478592 7.066338 0.292219 -1.282324 -3.141588
    46 0.000000 0.000000 2.279457 0.547137 -0.343566 0.107833
    47 2.479414 -8.323895 6.074242 -0.003934 0.167005 1.682598
    48 -0.000006 -5.074219 5.929688 0.000000 0.000000 0.000000
    49 -1.068383 -10.478611 7.065971 0.292219 1.282324 3.141588
    50 -0.000488 0.000015 2.279600 0.547136 0.343566 0.107835
    51 -2.479401 -8.323895 6.074234 0.013252 0.166779 1.687403
    52 -5.790000 4.432083 14.255558 -3.206762 1.381259 -0.529380
    53 1.044540 -2.839314 19.743252 -0.289132 0.736900 -0.130011
    54 -2.655510 -1.533379 24.792648 -0.687422 -0.093841 0.550389
    55 -1.120216 -0.154385 9.795983 0.009451 0.001708 -0.083253
    56 -2.240372 -0.308788 19.592047 -0.147851 0.266335 -0.179986
    57 -0.683205 2.877342 14.167089 -1.593043 0.211501 -1.760173
    58 -0.144958 -0.145317 7.579308 -1.570572 0.306139 -0.173701
    59 -0.038551 -0.936644 4.697678 -2.114121 0.246184 -0.347906
    60 -0.506317 8.500896 13.617329 -1.682408 0.289725 -1.941789
    61 0.385056 -0.460075 7.003435 -1.511704 0.597228 -0.405315
    62 -0.456360 -0.710276 5.057732 -1.928524 0.554177 -0.669398
    63 2.452194 -8.899408 11.597939 -1.438698 0.109196 -1.368684
    64 -0.680515 -0.903999 6.074242 -1.475446 -0.176044 -0.001371
    65 -0.248295 -0.666843 3.386627 -1.645415 -0.122830 0.122669
    66 0.717491 -3.784309 13.044010 -1.709008 0.012132 -1.455774
    67 -1.099228 -1.407673 8.017876 -1.405374 -0.017163 0.009045
    68 -0.064053 -0.807640 3.686100 -1.792760 -0.037001 0.016556
    69 4.004906 6.172710 4.754800 -0.654959 -0.985496 -1.585911
    70 -0.158381 -1.149773 5.804405 -0.396453 0.673656 0.533808
    71 1.078559 -2.386406 5.215008 -1.040036 0.993006 -0.151239
    72 6.289963 0.932404 13.569109 -0.126801 -0.612098 -2.869612
    73 -1.327759 -0.766682 12.396324 -0.034141 -0.013413 0.298043
    74 0.000017 -54.999996 0.000000 0.000000 0.000000 -1.570796
  time 16
    0 0.000000 0.000000 -1.500000 0.000000 0.000000 0.000000
    1 -10.521344 -5.760963 66.994621 3.097005 -0.050653 -3.139334
    2 -6.695145 13.134857 10.018012 -0.132097 0.500738 0.452679
    3 -0.000034 0.000012 24.761454 -0.410561 -0.047772 0.236090
    4 0.000017 0.000000 24.344809 1.332264 -0.487978 -0.102659
    5 0.002333 -1.019846 24.031336 0.392497 -0.043585 0.016458
    6 0.000034 0.000008 13.404741 -0.000001 -0.000009 0.088189
    7 10.398263 -5.760962 66.994675 3.097005 0.050653 3.139334
    8 -2.746344 2.559013 11.139370 0.623565 -0.456703 0.442263
    9 -0.000004 -0.000006 24.761459 -1.172529 0.136022 -0.429079
    10 -0.000007 0.000004 24.344891 1.422993 0.138147 0.007134
    11 -0.002360 -1.019903 24.031330 0.395585 -0.044085 -0.018597
    12 0.000000 -0.000002 13.404737 0.000001 0.000005 -0.183543
    13 -0.061540 -5.245835 72.927078 0.000000 0.000000 0.000000
    14 4.634278 7.166499 -10.324819 0.254126 -0.021141 -0.546009
    15 0.000000 -0.005608 -1.146812 -0.083152 0.075567 -0.001405
    16 0.030770 -0.240000 8.906021 -0.004138 0.000000 0.000000
    17 0.257844 -2.296089 -0.348065 0.360991 0.027494 -0.007701
    18 0.030770 -0.276858 8.905140 0.056125 0.004134 -0.000049
    19 0.658911 -0.374136 0.010544 0.237706 0.262595 0.013805
    20 5.669724 4.435303 14.302868 1.859480 -1.261762 0.949813
    21 -1.044571 -2.839317 19.743267 0.034959 -0.324213 0.068116
    22 2.655533 -1.533369 24.792658 -0.922659 0.107212 -0.554681
    23 1.120163 -0.154394 9.796035 -0.001527 0.000182 -0.013417
    24 2.240311 -0.308786 19.592051 -0.889249 -0.649176 0.077522
    25 0.683151 2.877354 14.167051 -1.514508 -0.212311 1.562350
    26 0.144936 -0.145374 7.579252 -1.760329 -0.243408 0.233840
    27 0.091660 -0.906685 4.702850 -1.607861 -0.182519 0.195073
    28 0.506271 8.500866 13.617253 -1.478899 -0.305063 1.586165
    29 -0.384987 -0.460049 7.003448 -1.738098 -0.441936 0.547979
    30 0.561516 -0.596954 5.061852 -1.510366 -0.380533 0.392402
    31 -2.452171 -8.899406 11.597897 -1.559778 -0.078014 1.471323
    32 0.680496 -0.903999 6.074253 -1.622069 0.173328 -0.013802
    33 0.245514 -0.661150 3.388004 -1.490761 0.109307 -0.099684
    34 -0.717484 -3.784271 13.043911 -1.598132 -0.027987 1.464399
    35 1.099216 -1.407745 8.017889 -1.767301 0.031674 -0.016896
    36 0.068439 -0.807653 3.686054 -1.478690 0.034320 -0.010100
    37 -4.004929 6.172707 4.754754 0.084506 1.119361 2.498025
    38 0.158352 -1.149811 5.804394 -0.859668 -0.341594 0.147032
    39 -1.083523 -1.463142 5.544399 -0.818183 -0.158934 -0.007007
    40 -6.289886 0.932434 13.569063 -0.126803 0.612110 2.869610
    41 1.327774 -0.766687 12.396328 -0.036759 0.013977 -0.319688
    42 -0.096140 1.828087 23.185329 -0.135853 -0.058749 -1.425160
    43 2.325478 -0.000003 6.169296 -0.280106 -0.003798 1.807090
    44 0.000000 -3.152912 0.122169 1.961017 0.000000 0.000000
    45 1.068383 -10.478592 7.066338 0.292219 -1.282324 -3.141588
    46 0.000000 0.000000 2.279457 0.547137 -0.343566 0.107833
    47 2.479414 -8.323895 6.074242 -0.006055 0.244912 1.633984
    48 -0.000006 -5.074219 5.929688 0.000000 0.000000 0.000000
    49 -1.068383 -10.478611 7.065971 0.292219 1.282324 3.141588
    50 -0.000488 0.000015 2.279600 0.547136 0.343566 0.107835
    51 -2.479401 -8.323895 6.074234 0.011485 0.245688 1.639403
    52 -5.790000 4.432083 14.255558 -3.097963 1.377520 -0.453207
    53 1.044540 -2.839314 19.743252 -0.368554 0.795705 -0.167051
    54 -2.655510 -1.533379 24.792648 -0.669858 -0.093363 0.464284
    55 -1.120216 -0.154385 9.795983 0.011093 0.002067 -0.097889
    56 -2.240372 -0.308788 19.592047 -0.163201 0.294552 -0.211518
    57 -0.683205 2.877342 14.167089 -1.601408 0.209690 -1.781769
    58 -0.144958 -0.145317 7.579308 -1.549321 0.305240 -0.168440
    59 -0.038551 -0.936644 4.697678 -2.169102 0.240779 -0.360538
    60 -0.506317 8.500896 13.617329 -1.702772 0.281449 -1.979710
    61 0.385056 -0.460075 7.003435 -1.482826 0.596523 -0.390752
    62 -0.456360 -0.710276 5.057732 -1.973268 0.548377 -0.691268
    63 2.452194 -8.899408 11.597939 -1.424766 0.110265 -1.356982
    64 -0.680515 -0.903999 6.074242 -1.459492 -0.174498 -0.002569
    65 -0.248295 -0.666843 3.386627 -1.662317 -0.122207 0.124119
    66 0.717491 -3.784309 13.044010 -1.721163 0.010454 -1.454720
    67 -1.099228 -1.407673 8.017876 -1.365755 -0.016097 0.008206
    68 -0.064053 -0.807640 3.686100 -1.827143 -0.037433 0.017742
    69 4.004906 6.172710 4.754800 -0.703597 -0.952938 -1.520092
    70 -0.158381 -1.149773 5.804405 -0.359271 0.682500 0.581425
    71 1.078559 -2.386406 5.215008 -1.050499 1.061867 -0.156756
    72 6.289963 0.932404 13.569109 -0.126801 -0.612098 -2.869612
    73 -1.327759 -0.766682 12.396324 -0.029216 -0.012191 0.256775
    74 0.000017 -54.999996 0.000000 0.000000 0.000000 -1.570796
  time 17
    0 0.000000 0.000000 -1.500000 0.000000 0.000000 0.000000
    1 -10.521344 -5.760963 66.994621 3.097005 -0.050653 -3.139334
    2 -7.667831 14.043355 11.856825 -0.017047 0.561752 0.517559
    3 -0.000034 0.000012 24.761454 -0.551783 -0.064131 0.180958
    4 0.000017 0.000000 24.344809 1.407288 -0.543433 -0.169077
    5 0.002333 -1.019846 24.031336 0.389660 -0.042710 0.017213
    6 0.000034 0.000008 13.404741 -0.000001 -0.000009 0.043977
    7 10.398263 -5.760962 66.994675 3.097005 0.050653 3.139334
    8 -2.769782 2.246779 12.825383 0.636532 -0.533339 0.510339
    9 -0.000004 -0.000006 24.761459 -1.287199 0.149289 -0.532866
    10 -0.000007 0.000004 24.344891 1.489986 0.134747 0.001291
    11 -0.002360 -1.019903 24.031330 0.389594 -0.042695 -0.017219
    12 0.000000 -0.000002 13.404737 0.000001 0.000005 -0.246556
    13 -0.061540 -5.245835 72.927078 0.000000 0.000000 0.000000
    14 4.950694 7.434350 -12.104775 0.271728 -0.024892 -0.626481
    15 0.000000 -0.005608 -1.146812 -0.067363 0.075112 0.008976
    16 0.030770 -0.240000 8.906021 -0.004138 0.000000 0.000000
    17 0.527383 -2.342966 -0.375410 0.376753 0.015289 0.122522
    18 0.030770 -0.276858 8.905140 0.056125 0.004134 -0.000049
    19 0.666724 -0.401480 0.010544 0.258867 0.261587 0.035066
    20 5.669724 4.435303 14.302868 2.009259 -1.249712 0.868067
    21 -1.044571 -2.839317 19.743267 -0.037590 -0.375927 0.069977
    22 2.655533 -1.533369 24.792658 -0.903738 0.105944 -0.552740
    23 1.120163 -0.154394 9.796035 0.003075 -0.000489 0.026975
    24 2.240311 -0.308786 19.592051 -0.941079 -0.599677 0.142365
    25 0.683151 2.877354 14.167051 -1.511326 -0.211747 1.554295
    26 0.144936 -0.145374 7.579252 -1.768042 -0.243277 0.235266
    27 0.091660 -0.906685 4.702850 -1.587439 -0.182555 0.191106
    28 0.506271 8.500866 13.617253 -1.470438 -0.303305 1.571620
    29 -0.384987 -0.460049 7.003448 -1.747417 -0.440906 0.551347
    30 0.561516 -0.596954 5.061852 -1.494372 -0.380557 0.386326
    31 -2.452171 -8.899406 11.597897 -1.564436 -0.075962 1.475269
    32 0.680496 -0.903999 6.074253 -1.628017 0.173820 -0.014245
    33 0.245514 -0.661150 3.388004 -1.484370 0.109511 -0.099205
    34 -0.717484 -3.784271 13.043911 -1.593590 -0.028646 1.464722
    35 1.099216 -1.407745 8.017889 -1.782086 0.031950 -0.017448
    36 0.068439 -0.807653 3.686054 -1.465861 0.033996 -0.009740
    37 -4.004929 6.172707 4.754754 0.109547 1.126790 2.530940
    38 0.158352 -1.149811 5.804394 -0.869542 -0.330219 0.145630
    39 -1.083523 -1.463142 5.544399 -0.797779 -0.152798 -0.023927
    40 -6.289886 0.932434 13.569063 -0.126803 0.612110 2.869610
    41 1.327774 -0.766687 12.396328 -0.036339 0.013893 -0.316323
    42 -0.096140 1.828087 23.185329 -0.146091 -0.060215 -1.452247
    43 2.325478 -0.000003 6.169296 -0.290802 -0.044007 1.771768
    44 0.000000 -3.152912 0.122169 1.961017 0.000000 0.000000
    45 1.068383 -10.478592 7.066338 0.292219 -1.282324 -3.141588
    46 0.000000 0.000000 2.279457 0.547137 -0.343566 0.107833
    47 2.479414 -8.323895 6.074242 -0.006381 0.272759 1.626726
    48 -0.000006 -5.074219 5.929688 0.000000 0.000000 0.000000
    49 -1.068383 -10.478611 7.065971 0.292219 1.282324 3.141588
    50 -0.000488 0.000015 2.279600 0.547136 0.343566 0.107835
    51 -2.479401 -8.323895 6.074234 0.011244 0.275267 1.632314
    52 -5.790000 4.432083 14.255558 -3.057320 1.366845 -0.449278
    53 1.044540 -2.839314 19.743252 -0.526395 0.858580 -0.243961
    54 -2.655510 -1.533379 24.792648 -0.651540 -0.091887 0.372045
    55 -1.120216 -0.154385 9.795983 0.011692 0.002223 -0.103139
    56 -2.240372 -0.308788 19.592047 -0.169463 0.304997 -0.223118
    57 -0.683205 2.877342 14.167089 -1.604576 0.208954 -1.789836
    58 -0.144958 -0.145317 7.579308 -1.541365 0.304893 -0.166486
    59 -0.038551 -0.936644 4.697678 -2.189566 0.238585 -0.365176
    60 -0.506317 8.500896 13.617329 -1.710239 0.278103 -1.993683
    61 0.385056 -0.460075 7.003435 -1.471905 0.596196 -0.385469
    62 -0.456360 -0.710276 5.057732 -1.989883 0.545811 -0.699342
    63 2.452194 -8.899408 11.597939 -1.419591 0.110567 -1.352644
    64 -0.680515 -0.903999 6.074242 -1.453509 -0.173947 -0.002953
    65 -0.248295 -0.666843 3.386627 -1.668562 -0.121883 0.124658
    66 0.717491 -3.784309 13.044010 -1.725747 0.009831 -1.454323
    67 -1.099228 -1.407673 8.017876 -1.350905 -0.015701 0.007954
    68 -0.064053 -0.807640 3.686100 -1.839916 -0.037517 0.018185
    69 4.004906 6.172710 4.754800 -0.720236 -0.940295 -1.497252
    70 -0.158381 -1.149773 5.804405 -0.345807 0.685485 0.599739
    71 1.078559 -2.386406 5.215008 -1.052506 1.087659 -0.156281
    72 6.289963 0.932404 13.569109 -0.126801 -0.612098 -2.869612
    73 -1.327759 -0.766682 12.396324 -0.024853 -0.010933 0.220087
    74 0.000017 -54.999996 0.000000 0.000000 0.000000 -1.570796
end
