// Created by Crowbar 0.74
version 1
nodes
  0 "root" -1
  1 "g_r_hip_offset" 0
  2 "g_r_hip" 1
  3 "g_r_knee" 2
  4 "g_r_ankle" 3
  5 "g_r_ball" 4
  6 "g_r_thightwist" 2
  7 "g_l_hip_offset" 0
  8 "g_l_hip" 7
  9 "g_l_knee" 8
  10 "g_l_ankle" 9
  11 "g_l_ball" 10
  12 "g_l_thightwist" 8
  13 "g_spine01_offset" 0
  14 "g_spine01" 13
  15 "g_pelvis" 14
  16 "g_spine02_offset" 14
  17 "g_spine02" 16
  18 "g_spine03_offset" 17
  19 "g_spine03" 18
  20 "g_l_clavical" 19
  21 "g_l_shoulder" 20
  22 "g_l_elbow" 21
  23 "g_l_forarm" 22
  24 "g_l_wrist" 22
  25 "g_l_birdy1" 24
  26 "g_l_birdy2" 25
  27 "g_l_birdy3" 26
  28 "g_l_index1" 24
  29 "g_l_index2" 28
  30 "g_l_index3" 29
  31 "g_l_pinky1" 24
  32 "g_l_pinky2" 31
  33 "g_l_pinky3" 32
  34 "g_l_ring1" 24
  35 "g_l_ring2" 34
  36 "g_l_ring3" 35
  37 "g_l_thumb1" 24
  38 "g_l_thumb2" 37
  39 "g_l_thumb3" 38
  40 "g_l_palm" 24
  41 "g_l_biceptwist" 21
  42 "g_neck" 19
  43 "g_head" 42
  44 "g_jaw" 43
  45 "g_l_brow" 43
  46 "g_l_brow2" 45
  47 "g_l_eye" 43
  48 "g_topeyelid" 43
  49 "g_r_brow" 43
  50 "g_r_brow2" 49
  51 "g_r_eye" 43
  52 "g_r_clavical" 19
  53 "g_r_shoulder" 52
  54 "g_r_elbow" 53
  55 "g_r_forarm" 54
  56 "g_r_wrist" 54
  57 "g_r_birdy1" 56
  58 "g_r_birdy2" 57
  59 "g_r_birdy3" 58
  60 "g_r_index1" 56
  61 "g_r_index2" 60
  62 "g_r_index3" 61
  63 "g_r_pinky1" 56
  64 "g_r_pinky2" 63
  65 "g_r_pinky3" 64
  66 "g_r_ring1" 56
  67 "g_r_ring2" 66
  68 "g_r_ring3" 67
  69 "g_r_thumb1" 56
  70 "g_r_thumb2" 69
  71 "g_r_thumb3" 70
  72 "g_r_palm" 56
  73 "g_r_biceptwist" 53
  74 "g_throwable_attach_offset" 0
end
skeleton
  time 0
    0 0.000000 0.000000 -1.500000 0.000000 0.000000 0.000000
    1 -10.521344 -5.760963 66.994621 3.097005 -0.050653 -3.139334
    2 -7.495951 19.187414 9.121031 -0.127861 0.426585 0.059164
    3 -0.000034 0.000012 24.761454 -0.508977 -0.059169 0.450104
    4 0.000017 0.000000 24.344809 1.285166 -0.513827 0.083522
    5 0.002333 -1.019846 24.031336 0.389660 -0.042698 0.017213
    6 0.000034 0.000008 13.404741 -0.000001 -0.000009 0.202789
    7 10.398263 -5.760962 66.994675 3.097005 0.050653 3.139334
    8 -6.523803 18.158237 9.588238 0.768507 -0.064231 0.022006
    9 -0.000004 -0.000006 24.761459 -0.555954 0.064617 0.061542
    10 -0.000007 0.000004 24.344891 0.775145 0.105794 -0.009029
    11 -0.002360 -1.019903 24.031330 0.389594 -0.042695 -0.017219
    12 0.000000 -0.000002 13.404737 0.000001 0.000005 0.051504
    13 -0.061540 -5.245835 72.927078 0.000000 0.000000 0.000000
    14 6.927317 19.231439 -8.544862 -0.013014 -0.063860 0.393227
    15 0.000000 -0.005608 -1.146812 -0.050553 0.053827 -0.442840
    16 0.030770 -0.240000 8.906021 -0.004138 0.000000 0.000000
    17 0.398473 0.496965 -0.000398 -0.063274 0.089632 0.465472
    18 0.030770 -0.276858 8.905140 0.056125 0.004134 -0.000049
    19 -0.317681 -0.608518 -0.016801 0.209503 -0.103967 0.053690
    20 5.669724 4.435303 14.302868 -0.037502 -1.044506 3.464773
    21 -1.044571 -2.839317 19.743267 -0.046004 -0.566503 0.057625
    22 2.655533 -1.533369 24.792658 -0.392266 0.085501 -0.569724
    23 1.120163 -0.154394 9.796035 -0.026431 0.000578 -0.229551
    24 2.240311 -0.308786 19.592051 -0.284429 -0.147373 -0.413648
    25 0.683151 2.877354 14.167051 -1.444729 -0.210069 1.522824
    26 0.144936 -0.145374 7.579252 -1.783515 -0.242953 0.238142
    27 0.091660 -0.906685 4.702850 -1.587437 -0.182568 0.191116
    28 0.506271 8.500866 13.617253 -1.380089 -0.291727 1.536981
    29 -0.384987 -0.460049 7.003448 -1.786828 -0.436208 0.565441
    30 0.561516 -0.596954 5.061852 -1.494372 -0.380569 0.386326
    31 -2.452171 -8.899406 11.597897 -1.551121 -0.077675 1.476612
    32 0.680496 -0.903999 6.074253 -1.698484 0.179333 -0.019674
    33 0.245514 -0.661150 3.388004 -1.484566 0.109479 -0.099287
    34 -0.717484 -3.784271 13.043911 -1.545835 -0.035753 1.467841
    35 1.099216 -1.407745 8.017889 -1.852055 0.033136 -0.020024
    36 0.068439 -0.807653 3.686054 -1.465865 0.034012 -0.009745
    37 -4.004929 6.172707 4.754754 0.144407 1.125681 2.527687
    38 0.158352 -1.149811 5.804394 -0.964808 -0.365530 0.160407
    39 -1.083523 -1.463142 5.544399 -1.228563 -0.221482 -0.054313
    40 -6.289886 0.932434 13.569063 -0.126803 0.612110 2.869610
    41 1.327774 -0.766687 12.396328 -0.033091 0.013174 -0.289357
    42 -0.096140 1.828087 23.185329 -0.092142 -0.198198 -2.059131
    43 2.325478 -0.000003 6.169296 0.091296 -0.062744 1.405170
    44 0.000000 -3.152912 0.122169 1.961052 0.000000 0.000000
    45 1.068383 -10.478592 7.066338 0.292219 -1.282324 -3.141588
    46 0.000000 0.000000 2.279457 0.547137 -0.343566 0.107833
    47 2.479414 -8.323895 6.074242 -0.013531 -0.073054 1.446025
    48 -0.000001 -5.070313 5.929688 0.000000 0.000000 0.000000
    49 -1.068383 -10.478611 7.065971 0.292219 1.282324 3.141588
    50 -0.000488 0.000015 2.279600 0.547136 0.343566 0.107835
    51 -2.479401 -8.323895 6.074234 0.003572 -0.075383 1.449993
    52 -5.790000 4.432083 14.255558 -2.938265 1.229815 -0.095432
    53 1.044540 -2.839314 19.743252 0.035567 0.733805 -0.020088
    54 -2.655510 -1.533379 24.792648 -0.854855 -0.084989 -0.097709
    55 -1.120216 -0.154385 9.795983 -0.017730 -0.001073 0.154130
    56 -2.240372 -0.308788 19.592047 -0.056898 -0.066330 0.307957
    57 -0.683205 2.877342 14.167089 -1.615713 0.184061 -1.699334
    58 -0.144958 -0.145317 7.579308 -1.541391 0.304896 -0.166506
    59 -0.038551 -0.936644 4.697678 -2.189566 0.238585 -0.365164
    60 -0.506317 8.500896 13.617329 -1.596199 0.298001 -1.767103
    61 0.385056 -0.460075 7.003435 -1.471905 0.596196 -0.385484
    62 -0.456360 -0.710276 5.057732 -1.989927 0.545821 -0.699363
    63 2.452194 -8.899408 11.597939 -1.419591 0.110567 -1.352644
    64 -0.680515 -0.903999 6.074242 -1.453600 -0.173888 -0.003175
    65 -0.248295 -0.666843 3.386627 -1.668601 -0.122155 0.124625
    66 0.717491 -3.784309 13.044010 -1.725758 0.009829 -1.454343
    67 -1.099228 -1.407673 8.017876 -1.350904 -0.015601 0.007733
    68 -0.064053 -0.807640 3.686100 -1.839908 -0.037751 0.018152
    69 4.004906 6.172710 4.754800 -0.720236 -0.940295 -1.497252
    70 -0.158381 -1.149773 5.804405 -0.345800 0.685529 0.599784
    71 1.078559 -2.386406 5.215008 -1.052491 1.087709 -0.156300
    72 6.289963 0.932404 13.569109 -0.126801 -0.612098 -2.869612
    73 -1.327759 -0.766682 12.396324 0.003838 0.002298 -0.036220
    74 0.000017 -54.999996 0.000000 0.000000 0.000000 -1.570796
  time 1
    0 0.000000 0.000000 -1.500000 0.000000 0.000000 0.000000
    1 -10.521344 -5.760963 66.994621 3.097005 -0.050653 -3.139334
    2 -7.495951 19.187414 9.121031 -0.127861 0.426585 0.059164
    3 -0.000034 0.000012 24.761454 -0.508977 -0.059169 0.450104
    4 0.000017 0.000000 24.344809 1.285166 -0.513827 0.083522
    5 0.002333 -1.019846 24.031336 0.389660 -0.042698 0.017213
    6 0.000034 0.000008 13.404741 -0.000001 -0.000009 0.202789
    7 10.398263 -5.760962 66.994675 3.097005 0.050653 3.139334
    8 -6.523803 18.158237 9.588238 0.768507 -0.064231 0.022006
    9 -0.000004 -0.000006 24.761459 -0.555954 0.064617 0.061542
    10 -0.000007 0.000004 24.344891 0.775145 0.105794 -0.009029
    11 -0.002360 -1.019903 24.031330 0.389594 -0.042695 -0.017219
    12 0.000000 -0.000002 13.404737 0.000001 0.000005 0.051504
    13 -0.061540 -5.245835 72.927078 0.000000 0.000000 0.000000
    14 6.927317 19.231439 -8.544862 -0.013014 -0.063860 0.393227
    15 0.000000 -0.005608 -1.146812 -0.050553 0.053827 -0.442840
    16 0.030770 -0.240000 8.906021 -0.004138 0.000000 0.000000
    17 0.398473 0.496965 -0.000398 -0.063274 0.089632 0.465472
    18 0.030770 -0.276858 8.905140 0.056125 0.004134 -0.000049
    19 -0.317681 -0.608518 -0.016801 0.209503 -0.103967 0.053690
    20 5.669724 4.435303 14.302868 -0.037502 -1.044506 3.464773
    21 -1.044571 -2.839317 19.743267 -0.046004 -0.566503 0.057625
    22 2.655533 -1.533369 24.792658 -0.392266 0.085501 -0.569724
    23 1.120163 -0.154394 9.796035 -0.026431 0.000578 -0.229551
    24 2.240311 -0.308786 19.592051 -0.284429 -0.147373 -0.413648
    25 0.683151 2.877354 14.167051 -1.444729 -0.210069 1.522824
    26 0.144936 -0.145374 7.579252 -1.783515 -0.242953 0.238142
    27 0.091660 -0.906685 4.702850 -1.587437 -0.182568 0.191116
    28 0.506271 8.500866 13.617253 -1.380089 -0.291727 1.536981
    29 -0.384987 -0.460049 7.003448 -1.786828 -0.436208 0.565441
    30 0.561516 -0.596954 5.061852 -1.494372 -0.380569 0.386326
    31 -2.452171 -8.899406 11.597897 -1.551121 -0.077675 1.476612
    32 0.680496 -0.903999 6.074253 -1.698484 0.179333 -0.019674
    33 0.245514 -0.661150 3.388004 -1.484566 0.109479 -0.099287
    34 -0.717484 -3.784271 13.043911 -1.545835 -0.035753 1.467841
    35 1.099216 -1.407745 8.017889 -1.852055 0.033136 -0.020024
    36 0.068439 -0.807653 3.686054 -1.465865 0.034012 -0.009745
    37 -4.004929 6.172707 4.754754 0.144407 1.125681 2.527687
    38 0.158352 -1.149811 5.804394 -0.964808 -0.365530 0.160407
    39 -1.083523 -1.463142 5.544399 -1.228563 -0.221482 -0.054313
    40 -6.289886 0.932434 13.569063 -0.126803 0.612110 2.869610
    41 1.327774 -0.766687 12.396328 -0.033091 0.013174 -0.289357
    42 -0.096140 1.828087 23.185329 -0.092142 -0.198198 -2.059131
    43 2.325478 -0.000003 6.169296 0.091296 -0.062744 1.405170
    44 0.000000 -3.152912 0.122169 1.961052 0.000000 0.000000
    45 1.068383 -10.478592 7.066338 0.292219 -1.282324 -3.141588
    46 0.000000 0.000000 2.279457 0.547137 -0.343566 0.107833
    47 2.479414 -8.323895 6.074242 -0.013531 -0.073054 1.446025
    48 -0.000001 -5.070313 5.929688 0.000000 0.000000 0.000000
    49 -1.068383 -10.478611 7.065971 0.292219 1.282324 3.141588
    50 -0.000488 0.000015 2.279600 0.547136 0.343566 0.107835
    51 -2.479401 -8.323895 6.074234 0.003572 -0.075383 1.449993
    52 -5.790000 4.432083 14.255558 -2.938265 1.229815 -0.095432
    53 1.044540 -2.839314 19.743252 0.035567 0.733805 -0.020088
    54 -2.655510 -1.533379 24.792648 -0.854855 -0.084989 -0.097709
    55 -1.120216 -0.154385 9.795983 -0.017730 -0.001073 0.154130
    56 -2.240372 -0.308788 19.592047 -0.056898 -0.066330 0.307957
    57 -0.683205 2.877342 14.167089 -1.615713 0.184061 -1.699334
    58 -0.144958 -0.145317 7.579308 -1.541391 0.304896 -0.166506
    59 -0.038551 -0.936644 4.697678 -2.189566 0.238585 -0.365164
    60 -0.506317 8.500896 13.617329 -1.596199 0.298001 -1.767103
    61 0.385056 -0.460075 7.003435 -1.471905 0.596196 -0.385484
    62 -0.456360 -0.710276 5.057732 -1.989927 0.545821 -0.699363
    63 2.452194 -8.899408 11.597939 -1.419591 0.110567 -1.352644
    64 -0.680515 -0.903999 6.074242 -1.453600 -0.173888 -0.003175
    65 -0.248295 -0.666843 3.386627 -1.668601 -0.122155 0.124625
    66 0.717491 -3.784309 13.044010 -1.725758 0.009829 -1.454343
    67 -1.099228 -1.407673 8.017876 -1.350904 -0.015601 0.007733
    68 -0.064053 -0.807640 3.686100 -1.839908 -0.037751 0.018152
    69 4.004906 6.172710 4.754800 -0.720236 -0.940295 -1.497252
    70 -0.158381 -1.149773 5.804405 -0.345800 0.685529 0.599784
    71 1.078559 -2.386406 5.215008 -1.052491 1.087709 -0.156300
    72 6.289963 0.932404 13.569109 -0.126801 -0.612098 -2.869612
    73 -1.327759 -0.766682 12.396324 0.003838 0.002298 -0.036220
    74 0.000017 -54.999996 0.000000 0.000000 0.000000 -1.570796
  time 2
    0 0.000000 0.000000 -1.500000 0.000000 0.000000 0.000000
    1 -10.521344 -5.760963 66.994621 3.097005 -0.050653 -3.139334
    2 -7.589704 19.285630 8.560417 -0.162909 0.401060 0.048809
    3 -0.000034 0.000012 24.761454 -0.422919 -0.049186 0.464518
    4 0.000017 0.000000 24.344809 1.230238 -0.509685 0.106446
    5 0.002333 -1.019846 24.031336 0.389660 -0.042698 0.017201
    6 0.000034 0.000008 13.404741 -0.000001 -0.000009 0.217048
    7 10.398263 -5.760962 66.994675 3.097005 0.050653 3.139334
    8 -6.683964 18.482961 9.026234 0.717747 -0.052599 0.016725
    9 -0.000004 -0.000006 24.761459 -0.452503 0.052633 0.074318
    10 -0.000007 0.000004 24.344891 0.721835 0.107438 -0.011299
    11 -0.002360 -1.019903 24.031330 0.389594 -0.042695 -0.017219
    12 0.000000 -0.000002 13.404737 0.000001 0.000005 0.053286
    13 -0.061540 -5.245835 72.927078 0.000000 0.000000 0.000000
    14 7.044508 19.534227 -7.981584 -0.033528 -0.054260 0.403677
    15 0.000000 -0.005608 -1.146812 -0.048639 0.052729 -0.441590
    16 0.030770 -0.240000 8.906021 -0.004138 0.000000 0.000000
    17 0.394567 0.489152 -0.000398 -0.059739 0.088100 0.482723
    18 0.030770 -0.276858 8.905140 0.056125 0.004134 -0.000049
    19 -0.305962 -0.581173 -0.012895 0.198744 -0.097693 0.056794
    20 5.669724 4.435303 14.302868 0.073134 -0.993416 3.282498
    21 -1.044571 -2.839317 19.743267 -0.117918 -0.550013 0.073813
    22 2.655533 -1.533369 24.792658 -0.529269 0.088191 -0.545219
    23 1.120163 -0.154394 9.796035 -0.026779 0.000554 -0.232483
    24 2.240311 -0.308786 19.592051 -0.286562 -0.145117 -0.418831
    25 0.683151 2.877354 14.167051 -1.441932 -0.209986 1.521500
    26 0.144936 -0.145374 7.579252 -1.784305 -0.242929 0.238214
    27 0.091660 -0.906685 4.702850 -1.587437 -0.182568 0.191116
    28 0.506271 8.500866 13.617253 -1.376322 -0.291156 1.535563
    29 -0.384987 -0.460049 7.003448 -1.788500 -0.435980 0.566028
    30 0.561516 -0.596954 5.061852 -1.494372 -0.380569 0.386326
    31 -2.452171 -8.899406 11.597897 -1.550564 -0.077755 1.476638
    32 0.680496 -0.903999 6.074253 -1.701577 0.179548 -0.020070
    33 0.245514 -0.661150 3.388004 -1.484566 0.109479 -0.099287
    34 -0.717484 -3.784271 13.043911 -1.543895 -0.036052 1.467964
    35 1.099216 -1.407745 8.017889 -1.855082 0.033184 -0.020276
    36 0.068439 -0.807653 3.686054 -1.465865 0.034012 -0.009745
    37 -4.004929 6.172707 4.754754 0.145848 1.125663 2.527496
    38 0.158352 -1.149811 5.804394 -0.963918 -0.365208 0.160263
    39 -1.083523 -1.463142 5.544399 -1.225738 -0.221026 -0.055197
    40 -6.289886 0.932434 13.569063 -0.126803 0.612110 2.869610
    41 1.327774 -0.766687 12.396328 -0.032996 0.013138 -0.288453
    42 -0.096140 1.828087 23.185329 -0.092313 -0.198261 -2.059131
    43 2.325478 -0.000003 6.169296 0.091296 -0.062744 1.405210
    44 0.000000 -3.152912 0.122169 1.961052 0.000000 0.000000
    45 1.068383 -10.478592 7.066338 0.292219 -1.282324 -3.141588
    46 0.000000 0.000000 2.279457 0.547137 -0.343566 0.107833
    47 2.479414 -8.323895 6.074242 -0.014401 -0.107240 1.425586
    48 -0.000001 -5.070313 5.929688 0.000000 0.000000 0.000000
    49 -1.068383 -10.478611 7.065971 0.292219 1.282324 3.141588
    50 -0.000488 0.000015 2.279600 0.547136 0.343566 0.107835
    51 -2.479401 -8.323895 6.074234 0.002708 -0.109829 1.429491
    52 -5.790000 4.432083 14.255558 -2.814416 1.229151 -0.079240
    53 1.044540 -2.839314 19.743252 0.179772 0.694206 0.025062
    54 -2.655510 -1.533379 24.792648 -0.955506 -0.090282 -0.131788
    55 -1.120216 -0.154385 9.795983 -0.017730 -0.001073 0.154130
    56 -2.240372 -0.308788 19.592047 -0.056898 -0.066330 0.307957
    57 -0.683205 2.877342 14.167089 -1.616307 0.183007 -1.695551
    58 -0.144958 -0.145317 7.579308 -1.541391 0.304896 -0.166506
    59 -0.038551 -0.936644 4.697678 -2.189566 0.238585 -0.365176
    60 -0.506317 8.500896 13.617329 -1.591146 0.298754 -1.758567
    61 0.385056 -0.460075 7.003435 -1.471905 0.596196 -0.385484
    62 -0.456360 -0.710276 5.057732 -1.989927 0.545821 -0.699363
    63 2.452194 -8.899408 11.597939 -1.419551 0.110567 -1.352644
    64 -0.680515 -0.903999 6.074242 -1.453600 -0.173888 -0.003175
    65 -0.248295 -0.666843 3.386627 -1.668601 -0.122155 0.124625
    66 0.717491 -3.784309 13.044010 -1.725758 0.009829 -1.454343
    67 -1.099228 -1.407673 8.017876 -1.350904 -0.015601 0.007733
    68 -0.064053 -0.807640 3.686100 -1.839908 -0.037751 0.018152
    69 4.004906 6.172710 4.754800 -0.720161 -0.940295 -1.497252
    70 -0.158381 -1.149773 5.804405 -0.345800 0.685529 0.599784
    71 1.078559 -2.386406 5.215008 -1.052491 1.087709 -0.156300
    72 6.289963 0.932404 13.569109 -0.126801 -0.612098 -2.869612
    73 -1.327759 -0.766682 12.396324 0.006019 0.003701 -0.057178
    74 0.000017 -54.999996 0.000000 0.000000 0.000000 -1.570796
  time 3
    0 0.000000 0.000000 -1.500000 0.000000 0.000000 0.000000
    1 -10.521344 -5.760963 66.994621 3.097005 -0.050653 -3.139334
    2 -7.644393 19.236522 8.089502 -0.208614 0.368967 0.030984
    3 -0.000034 0.000012 24.761454 -0.324096 -0.037741 0.485651
    4 0.000017 0.000000 24.344809 1.171673 -0.506878 0.132503
    5 0.002333 -1.019846 24.031336 0.389585 -0.042698 0.017201
    6 0.000034 0.000008 13.404741 -0.000001 -0.000009 0.236475
    7 10.398263 -5.760962 66.994675 3.097005 0.050653 3.139334
    8 -6.789436 18.745238 8.576630 0.667329 -0.039905 0.007153
    9 -0.000004 -0.000006 24.761459 -0.349273 0.040660 0.091149
    10 -0.000007 0.000004 24.344891 0.668848 0.110149 -0.014515
    11 -0.002360 -1.019903 24.031330 0.389594 -0.042695 -0.017219
    12 0.000000 -0.000002 13.404737 0.000001 0.000005 0.057623
    13 -0.061540 -5.245835 72.927078 0.000000 0.000000 0.000000
    14 7.118729 19.720558 -7.530962 -0.051739 -0.044470 0.411904
    15 0.000000 -0.005608 -1.146812 -0.045290 0.051537 -0.434361
    16 0.030770 -0.240000 8.906021 -0.004138 0.000000 0.000000
    17 0.390660 0.477433 0.003508 -0.056603 0.086720 0.500334
    18 0.030770 -0.276858 8.905140 0.056125 0.004134 -0.000049
    19 -0.290337 -0.553829 -0.012895 0.190165 -0.092467 0.059598
    20 5.669724 4.435303 14.302868 0.154005 -0.935033 3.137023
    21 -1.044571 -2.839317 19.743267 -0.191103 -0.542133 0.088054
    22 2.655533 -1.533369 24.792658 -0.681287 0.093801 -0.511577
    23 1.120163 -0.154394 9.796035 -0.027234 0.000506 -0.236450
    24 2.240311 -0.308786 19.592051 -0.281035 -0.132869 -0.428326
    25 0.683151 2.877354 14.167051 -1.441219 -0.209962 1.521188
    26 0.144936 -0.145374 7.579252 -1.784305 -0.242917 0.238298
    27 0.091660 -0.906685 4.702850 -1.587437 -0.182568 0.191116
    28 0.506271 8.500866 13.617253 -1.375457 -0.291002 1.535224
    29 -0.384987 -0.460049 7.003448 -1.788856 -0.435932 0.566172
    30 0.561516 -0.596954 5.061852 -1.494372 -0.380569 0.386326
    31 -2.452171 -8.899406 11.597897 -1.550513 -0.077795 1.476638
    32 0.680496 -0.903999 6.074253 -1.702093 0.179596 -0.020310
    33 0.245514 -0.661150 3.388004 -1.484566 0.109479 -0.099287
    34 -0.717484 -3.784271 13.043911 -1.543410 -0.036124 1.468010
    35 1.099216 -1.407745 8.017889 -1.855703 0.033196 -0.020156
    36 0.068439 -0.807653 3.686054 -1.465865 0.034012 -0.009745
    37 -4.004929 6.172707 4.754754 0.146118 1.125628 2.527496
    38 0.158352 -1.149811 5.804394 -0.960358 -0.363887 0.159664
    39 -1.083523 -1.463142 5.544399 -1.224116 -0.220703 -0.053829
    40 -6.289886 0.932434 13.569063 -0.126803 0.612110 2.869610
    41 1.327774 -0.766687 12.396328 -0.032396 0.012994 -0.283482
    42 -0.096140 1.828087 23.185329 -0.092279 -0.198229 -2.059131
    43 2.325478 -0.000003 6.169296 0.091296 -0.062744 1.405170
    44 0.000000 -3.152912 0.122169 1.961052 0.000000 0.000000
    45 1.068383 -10.478592 7.066338 0.292219 -1.282324 -3.141588
    46 0.000000 0.000000 2.279457 0.547137 -0.343566 0.107833
    47 2.479414 -8.323895 6.074242 -0.015570 -0.139877 1.397889
    48 -0.000001 -5.070313 5.929688 0.000000 0.000000 0.000000
    49 -1.068383 -10.478611 7.065971 0.292219 1.282324 3.141588
    50 -0.000488 0.000015 2.279600 0.547136 0.343566 0.107835
    51 -2.479401 -8.323895 6.074234 0.001564 -0.142857 1.401419
    52 -5.790000 4.432083 14.255558 -2.727569 1.229981 -0.070041
    53 1.044540 -2.839314 19.743252 0.330991 0.660373 0.070103
    54 -2.655510 -1.533379 24.792648 -1.014991 -0.094113 -0.147237
    55 -1.120216 -0.154385 9.795983 -0.017730 -0.001073 0.154130
    56 -2.240372 -0.308788 19.592047 -0.056898 -0.066330 0.307957
    57 -0.683205 2.877342 14.167089 -1.616406 0.182728 -1.694640
    58 -0.144958 -0.145317 7.579308 -1.541391 0.304896 -0.166506
    59 -0.038551 -0.936644 4.697678 -2.189566 0.238585 -0.365176
    60 -0.506317 8.500896 13.617329 -1.589788 0.298883 -1.757084
    61 0.385056 -0.460075 7.003435 -1.471905 0.596213 -0.385484
    62 -0.456360 -0.710276 5.057732 -1.989927 0.545821 -0.699363
    63 2.452194 -8.899408 11.597939 -1.419551 0.110567 -1.352620
    64 -0.680515 -0.903999 6.074242 -1.453600 -0.173888 -0.003175
    65 -0.248295 -0.666843 3.386627 -1.668601 -0.122155 0.124625
    66 0.717491 -3.784309 13.044010 -1.725758 0.009829 -1.454343
    67 -1.099228 -1.407673 8.017876 -1.350904 -0.015601 0.007733
    68 -0.064053 -0.807640 3.686100 -1.839908 -0.037751 0.018152
    69 4.004906 6.172710 4.754800 -0.720161 -0.940295 -1.497252
    70 -0.158381 -1.149773 5.804405 -0.345800 0.685529 0.599784
    71 1.078559 -2.386406 5.215008 -1.052491 1.087709 -0.156300
    72 6.289963 0.932404 13.569109 -0.126801 -0.612098 -2.869612
    73 -1.327759 -0.766682 12.396324 0.007637 0.004779 -0.072908
    74 0.000017 -54.999996 0.000000 0.000000 0.000000 -1.570796
  time 4
    0 0.000000 0.000000 -1.500000 0.000000 0.000000 0.000000
    1 -10.521344 -5.760963 66.994621 3.097005 -0.050653 -3.139334
    2 -7.652206 19.015536 7.730709 -0.271536 0.323094 0.004726
    3 -0.000034 0.000012 24.761454 -0.195801 -0.022868 0.517004
    4 0.000017 0.000000 24.344809 1.100225 -0.504592 0.166922
    5 0.002333 -1.019846 24.031336 0.389585 -0.042710 0.017201
    6 0.000034 0.000008 13.404741 -0.000001 -0.000009 0.264508
    7 10.398263 -5.760962 66.994675 3.097005 0.050653 3.139334
    8 -6.840219 18.932578 8.284388 0.621176 -0.026407 -0.008195
    9 -0.000004 -0.000006 24.761459 -0.255008 0.029718 0.113004
    10 -0.000007 0.000004 24.344891 0.620315 0.113749 -0.018425
    11 -0.002360 -1.019903 24.031330 0.389594 -0.042695 -0.017219
    12 0.000000 -0.000002 13.404737 0.000001 0.000005 0.065481
    13 -0.061540 -5.245835 72.927078 0.000000 0.000000 0.000000
    14 7.149980 19.778786 -7.238058 -0.067229 -0.034647 0.418029
    15 0.000000 -0.005608 -1.146812 -0.041175 0.050784 -0.420339
    16 0.030770 -0.240000 8.906021 -0.004138 0.000000 0.000000
    17 0.390660 0.473527 -0.000398 -0.054583 0.085833 0.516028
    18 0.030770 -0.276858 8.905140 0.056125 0.004134 -0.000049
    19 -0.282524 -0.546016 -0.012895 0.185876 -0.089629 0.061755
    20 5.669724 4.435303 14.302868 0.193914 -0.906880 3.078277
    21 -1.044571 -2.839317 19.743267 -0.257977 -0.519120 0.098291
    22 2.655533 -1.533369 24.792658 -0.832090 0.101871 -0.477934
    23 1.120163 -0.154394 9.796035 -0.027917 0.000434 -0.242417
    24 2.240311 -0.308786 19.592051 -0.272201 -0.110169 -0.442885
    25 0.683151 2.877354 14.167051 -1.444784 -0.210069 1.522849
    26 0.144936 -0.145374 7.579252 -1.783515 -0.242953 0.238142
    27 0.091660 -0.906685 4.702850 -1.587437 -0.182568 0.191116
    28 0.506271 8.500866 13.617253 -1.380151 -0.291727 1.537012
    29 -0.384987 -0.460049 7.003448 -1.786793 -0.436208 0.565429
    30 0.561516 -0.596954 5.061852 -1.494372 -0.380569 0.386326
    31 -2.452171 -8.899406 11.597897 -1.551121 -0.077675 1.476612
    32 0.680496 -0.903999 6.074253 -1.698445 0.179321 -0.019674
    33 0.245514 -0.661150 3.388004 -1.484566 0.109479 -0.099287
    34 -0.717484 -3.784271 13.043911 -1.545879 -0.035753 1.467841
    35 1.099216 -1.407745 8.017889 -1.852016 0.033136 -0.020024
    36 0.068439 -0.807653 3.686054 -1.465865 0.034012 -0.009745
    37 -4.004929 6.172707 4.754754 0.144407 1.125716 2.527687
    38 0.158352 -1.149811 5.804394 -0.953917 -0.361494 0.158585
    39 -1.083523 -1.463142 5.544399 -1.225581 -0.220727 -0.049133
    40 -6.289886 0.932434 13.569063 -0.126803 0.612110 2.869610
    41 1.327774 -0.766687 12.396328 -0.031797 0.012862 -0.278410
    42 -0.096140 1.828087 23.185329 -0.091748 -0.197975 -2.059131
    43 2.325478 -0.000003 6.169296 0.091296 -0.062744 1.405170
    44 0.000000 -3.152912 0.122169 1.961052 0.000000 0.000000
    45 1.068383 -10.478592 7.066338 0.292219 -1.282324 -3.141588
    46 0.000000 0.000000 2.279457 0.547137 -0.343566 0.107833
    47 2.479414 -8.323895 6.074242 -0.017147 -0.168429 1.360737
    48 -0.000001 -5.070313 5.929688 0.000000 0.000000 0.000000
    49 -1.068383 -10.478611 7.065971 0.292219 1.282324 3.141588
    50 -0.000488 0.000015 2.279600 0.547136 0.343566 0.107835
    51 -2.479401 -8.323895 6.074234 -0.000023 -0.171822 1.364054
    52 -5.790000 4.432083 14.255558 -2.692006 1.233553 -0.069562
    53 1.044540 -2.839314 19.743252 0.403734 0.672456 0.100693
    54 -2.655510 -1.533379 24.792648 -1.020376 -0.096197 -0.123230
    55 -1.120216 -0.154385 9.795983 -0.017730 -0.001073 0.154130
    56 -2.240372 -0.308788 19.592047 -0.056898 -0.066330 0.307957
    57 -0.683205 2.877342 14.167089 -1.615713 0.184081 -1.699398
    58 -0.144958 -0.145317 7.579308 -1.541391 0.304896 -0.166506
    59 -0.038551 -0.936644 4.697678 -2.189566 0.238585 -0.365176
    60 -0.506317 8.500896 13.617329 -1.596123 0.297846 -1.769440
    61 0.385056 -0.460075 7.003435 -1.471905 0.596196 -0.385484
    62 -0.456360 -0.710276 5.057732 -1.989927 0.545821 -0.699363
    63 2.452194 -8.899408 11.597939 -1.419551 0.110567 -1.352644
    64 -0.680515 -0.903999 6.074242 -1.453600 -0.173888 -0.003175
    65 -0.248295 -0.666843 3.386627 -1.668601 -0.122155 0.124625
    66 0.717491 -3.784309 13.044010 -1.725758 0.009829 -1.454343
    67 -1.099228 -1.407673 8.017876 -1.350904 -0.015601 0.007733
    68 -0.064053 -0.807640 3.686100 -1.839908 -0.037751 0.018152
    69 4.004906 6.172710 4.754800 -0.720161 -0.940295 -1.497252
    70 -0.158381 -1.149773 5.804405 -0.345800 0.685529 0.599784
    71 1.078559 -2.386406 5.215008 -1.052491 1.087709 -0.156300
    72 6.289963 0.932404 13.569109 -0.126801 -0.612098 -2.869612
    73 -1.327759 -0.766682 12.396324 0.007313 0.004563 -0.069901
    74 0.000017 -54.999996 0.000000 0.000000 0.000000 -1.570796
  time 5
    0 0.000000 0.000000 -1.500000 0.000000 0.000000 0.000000
    1 -10.521344 -5.760963 66.994621 3.097005 -0.050653 -3.139334
    2 -6.046688 11.993097 10.287107 -0.149996 0.450523 0.374299
    3 -0.000034 0.000012 24.761454 -0.481131 -0.055933 0.119758
    4 0.000017 0.000000 24.344809 1.407288 -0.488000 0.071509
    5 0.002333 -1.019846 24.031336 0.389585 -0.042710 0.017201
    6 0.000034 0.000008 13.404741 -0.000001 -0.000009 0.038472
    7 10.398263 -5.760962 66.994675 3.097005 0.050653 3.139334
    8 -2.640872 2.746354 12.600581 0.698467 -0.446058 0.376332
    9 -0.000004 -0.000006 24.761459 -1.265915 0.146820 -0.384722
    10 -0.000007 0.000004 24.344891 1.467655 0.138302 0.004780
    11 -0.002360 -1.019903 24.031330 0.389594 -0.042695 -0.017219
    12 0.000000 -0.000002 13.404737 0.000001 0.000005 -0.150738
    13 -0.061540 -5.245835 72.927078 0.000000 0.000000 0.000000
    14 4.532712 6.304718 -11.226063 0.213577 0.016933 -0.269343
    15 0.000000 -0.005608 -1.146812 0.036814 0.051772 -0.200491
    16 0.030770 -0.240000 8.906021 -0.004138 0.000000 0.000000
    17 0.402379 -0.667133 -0.031649 0.083528 0.090860 -0.094996
    18 0.030770 -0.276858 8.905140 0.056125 0.004134 -0.000049
    19 -0.415341 -0.538203 -0.020707 0.227161 -0.135606 -0.018733
    20 5.669724 4.435303 14.302868 0.134672 -1.486770 4.049454
    21 -1.044571 -2.839317 19.743267 -0.233468 -0.252095 0.082978
    22 2.655533 -1.533369 24.792658 -1.695334 0.182567 -0.227473
    23 1.120163 -0.154394 9.796035 -0.036438 -0.000788 -0.317026
    24 2.240311 -0.308786 19.592051 -0.242956 -0.021393 -0.605606
    25 0.683151 2.877354 14.167051 -1.489054 -0.211280 1.543754
    26 0.144936 -0.145374 7.579252 -1.773200 -0.243169 0.236249
    27 0.091660 -0.906685 4.702850 -1.587437 -0.182568 0.191116
    28 0.506271 8.500866 13.617253 -1.440116 -0.299768 1.559878
    29 -0.384987 -0.460049 7.003448 -1.760827 -0.439372 0.556033
    30 0.561516 -0.596954 5.061852 -1.494372 -0.380569 0.386326
    31 -2.452171 -8.899406 11.597897 -1.560031 -0.076560 1.475753
    32 0.680496 -0.903999 6.074253 -1.651771 0.175725 -0.016175
    33 0.245514 -0.661150 3.388004 -1.484566 0.109479 -0.099287
    34 -0.717484 -3.784271 13.043911 -1.577583 -0.031019 1.465813
    35 1.099216 -1.407745 8.017889 -1.805642 0.032369 -0.018430
    36 0.068439 -0.807653 3.686054 -1.465865 0.034012 -0.009745
    37 -4.004929 6.172707 4.754754 0.121167 1.126420 2.529984
    38 0.158352 -1.149811 5.804394 -0.897766 -0.340669 0.149740
    39 -1.083523 -1.463142 5.544399 -1.289618 -0.262481 0.248331
    40 -6.289886 0.932434 13.569063 -0.126803 0.612110 2.869610
    41 1.327774 -0.766687 12.396328 -0.021718 0.009866 -0.193294
    42 -0.096140 1.828087 23.185329 -0.181258 -0.269419 -1.470865
    43 2.325478 -0.000003 6.169296 -0.144257 0.076042 1.839898
    44 0.000000 -3.152912 0.122169 1.961052 0.000000 0.000000
    45 1.068383 -10.478592 7.066338 0.292219 -1.282324 -3.141588
    46 0.000000 0.000000 2.279457 0.547137 -0.343566 0.107833
    47 2.479414 -8.323895 6.074242 -0.007414 0.034719 1.597883
    48 -0.000001 -5.070313 5.929688 0.000000 0.000000 0.000000
    49 -1.068383 -10.478611 7.065971 0.292219 1.282324 3.141588
    50 -0.000488 0.000015 2.279600 0.547136 0.343566 0.107835
    51 -2.479401 -8.323895 6.074234 0.009778 0.030365 1.602997
    52 -5.790000 4.432083 14.255558 -3.168419 1.492702 -0.008432
    53 1.044540 -2.839314 19.743252 -0.131013 0.590842 -0.076451
    54 -2.655510 -1.533379 24.792648 -1.014991 -0.097517 -0.095286
    55 -1.120216 -0.154385 9.795983 -0.017706 -0.001073 0.154130
    56 -2.240372 -0.308788 19.592047 -0.056898 -0.066330 0.307957
    57 -0.683205 2.877342 14.167089 -1.607744 0.200776 -1.759416
    58 -0.144958 -0.145317 7.579308 -1.541391 0.304896 -0.166506
    59 -0.038551 -0.936644 4.697678 -2.189566 0.238585 -0.365188
    60 -0.506317 8.500896 13.617329 -1.672980 0.284692 -1.918741
    61 0.385056 -0.460075 7.003435 -1.471905 0.596196 -0.385484
    62 -0.456360 -0.710276 5.057732 -1.989927 0.545821 -0.699363
    63 2.452194 -8.899408 11.597939 -1.419551 0.110567 -1.352644
    64 -0.680515 -0.903999 6.074242 -1.453600 -0.173888 -0.003175
    65 -0.248295 -0.666843 3.386627 -1.668601 -0.122155 0.124625
    66 0.717491 -3.784309 13.044010 -1.725758 0.009829 -1.454343
    67 -1.099228 -1.407673 8.017876 -1.350904 -0.015601 0.007733
    68 -0.064053 -0.807640 3.686100 -1.839908 -0.037751 0.018152
    69 4.004906 6.172710 4.754800 -0.720161 -0.940295 -1.497252
    70 -0.158381 -1.149773 5.804405 -0.345800 0.685529 0.599784
    71 1.078559 -2.386406 5.215008 -1.052491 1.087709 -0.156300
    72 6.289963 0.932404 13.569109 -0.126801 -0.612098 -2.869612
    73 -1.327759 -0.766682 12.396324 -0.000057 -0.000063 0.000653
    74 0.000017 -54.999996 0.000000 0.000000 0.000000 -1.570796
  time 6
    0 0.000000 0.000000 -1.500000 0.000000 0.000000 0.000000
    1 -10.521344 -5.760963 66.994621 3.097005 -0.050653 -3.139334
    2 -7.593610 9.304436 14.368373 0.248577 0.564007 0.835097
    3 -0.000034 0.000012 24.761454 -0.921098 -0.106904 -0.144665
    4 0.000017 0.000000 24.344809 1.663863 -0.366180 -0.116271
    5 0.002333 -1.019846 24.031336 0.389660 -0.042710 0.017201
    6 0.000034 0.000008 13.404741 -0.000001 -0.000009 -0.126521
    7 10.398263 -5.760962 66.994675 3.097005 0.050653 3.139334
    8 1.359250 -6.283462 17.860941 0.366270 -0.638398 0.817383
    9 -0.000004 -0.000006 24.761459 -1.572470 0.182258 -0.709254
    10 -0.000007 0.000004 24.344891 1.896198 0.203874 0.058041
    11 -0.002360 -1.019903 24.031330 0.389594 -0.042695 -0.017219
    12 0.000000 -0.000002 13.404737 0.000001 0.000005 -0.296193
    13 -0.061540 -5.245835 72.927078 0.000000 0.000000 0.000000
    14 3.415491 0.516808 -16.340622 0.291923 0.070698 -0.548171
    15 0.000000 -0.005608 -1.146812 -0.078910 0.029029 -0.317372
    16 0.030770 -0.240000 8.906021 -0.004138 0.000000 0.000000
    17 0.332065 -1.280433 -0.121496 0.157434 0.150985 -0.356002
    18 0.030770 -0.276858 8.905140 0.056125 0.004134 -0.000049
    19 -0.497374 -0.471795 -0.012895 0.227233 -0.148566 -0.050840
    20 5.669724 4.435303 14.302868 0.632151 -0.948810 2.071641
    21 -1.044571 -2.839317 19.743267 -0.159940 -0.277665 0.082696
    22 2.655533 -1.533369 24.792658 -0.171551 0.082542 -0.292656
    23 1.120163 -0.154394 9.796035 0.008240 -0.001424 0.072609
    24 2.240311 -0.308786 19.592051 -0.163666 0.000202 0.164006
    25 0.683151 2.877354 14.167051 -1.511326 -0.211747 1.554295
    26 0.144936 -0.145374 7.579252 -1.768042 -0.243277 0.235266
    27 0.091660 -0.906685 4.702850 -1.587437 -0.182568 0.191116
    28 0.506271 8.500866 13.617253 -1.470438 -0.303305 1.571620
    29 -0.384987 -0.460049 7.003448 -1.747417 -0.440906 0.551347
    30 0.561516 -0.596954 5.061852 -1.494372 -0.380569 0.386326
    31 -2.452171 -8.899406 11.597897 -1.564436 -0.075962 1.475269
    32 0.680496 -0.903999 6.074253 -1.628017 0.173820 -0.014245
    33 0.245514 -0.661150 3.388004 -1.484566 0.109479 -0.099287
    34 -0.717484 -3.784271 13.043911 -1.593546 -0.028658 1.464722
    35 1.099216 -1.407745 8.017889 -1.782086 0.031962 -0.017448
    36 0.068439 -0.807653 3.686054 -1.465865 0.034012 -0.009745
    37 -4.004929 6.172707 4.754754 0.109547 1.126790 2.530940
    38 0.158352 -1.149811 5.804394 -0.869542 -0.330219 0.145630
    39 -1.083523 -1.463142 5.544399 -0.797779 -0.152810 -0.023927
    40 -6.289886 0.932434 13.569063 -0.126803 0.612110 2.869610
    41 1.327774 -0.766687 12.396328 -0.018422 0.008704 -0.165073
    42 -0.096140 1.828087 23.185329 -0.273320 -0.280764 -1.166980
    43 2.325478 -0.000003 6.169296 -0.207383 0.209445 2.033794
    44 0.000000 -3.152912 0.122169 1.961052 0.000000 0.000000
    45 1.068383 -10.478592 7.066338 0.292219 -1.282324 -3.141588
    46 0.000000 0.000000 2.279457 0.547137 -0.343566 0.107833
    47 2.479414 -8.323895 6.074242 -0.009426 0.040120 1.547072
    48 -0.000001 -5.070313 5.929688 0.000000 0.000000 0.000000
    49 -1.068383 -10.478611 7.065971 0.292219 1.282324 3.141588
    50 -0.000488 0.000015 2.279600 0.547136 0.343566 0.107835
    51 -2.479401 -8.323895 6.074234 0.007769 0.033106 1.552986
    52 -5.790000 4.432083 14.255558 -5.142512 1.343252 -1.972167
    53 1.044540 -2.839314 19.743252 -0.692196 0.575833 -0.176304
    54 -2.655510 -1.533379 24.792648 -0.458189 -0.040012 -0.403053
    55 -1.120216 -0.154385 9.795983 -0.036774 0.000845 0.320048
    56 -2.240372 -0.308788 19.592047 -0.184278 0.115249 0.616325
    57 -0.683205 2.877342 14.167089 -1.604576 0.208954 -1.789836
    58 -0.144958 -0.145317 7.579308 -1.541391 0.304896 -0.166506
    59 -0.038551 -0.936644 4.697678 -2.189566 0.238585 -0.365176
    60 -0.506317 8.500896 13.617329 -1.710239 0.278103 -1.993683
    61 0.385056 -0.460075 7.003435 -1.471905 0.596196 -0.385484
    62 -0.456360 -0.710276 5.057732 -1.989927 0.545821 -0.699363
    63 2.452194 -8.899408 11.597939 -1.419591 0.110544 -1.352644
    64 -0.680515 -0.903999 6.074242 -1.453600 -0.173888 -0.003175
    65 -0.248295 -0.666843 3.386627 -1.668601 -0.122155 0.124625
    66 0.717491 -3.784309 13.044010 -1.725758 0.009829 -1.454343
    67 -1.099228 -1.407673 8.017876 -1.350904 -0.015601 0.007733
    68 -0.064053 -0.807640 3.686100 -1.839908 -0.037751 0.018152
    69 4.004906 6.172710 4.754800 -0.720236 -0.940295 -1.497252
    70 -0.158381 -1.149773 5.804405 -0.345800 0.685529 0.599784
    71 1.078559 -2.386406 5.215008 -1.052491 1.087709 -0.156300
    72 6.289963 0.932404 13.569109 -0.126801 -0.612098 -2.869612
    73 -1.327759 -0.766682 12.396324 0.017536 0.012258 -0.173164
    74 0.000017 -54.999996 0.000000 0.000000 0.000000 -1.570796
  time 7
    0 0.000000 0.000000 -1.500000 0.000000 0.000000 0.000000
    1 -10.521344 -5.760963 66.994621 3.097005 -0.050653 -3.139334
    2 -9.054592 8.150399 15.444751 0.341423 0.582572 0.971060
    3 -0.000034 0.000012 24.761454 -0.939025 -0.108977 -0.241900
    4 0.000017 0.000000 24.344809 1.670706 -0.378154 -0.152959
    5 0.002333 -1.019846 24.031336 0.386113 -0.042638 0.017357
    6 0.000034 0.000008 13.404741 -0.000001 -0.000009 -0.195454
    7 10.398263 -5.760962 66.994675 3.097005 0.050653 3.139334
    8 2.296779 -9.031123 19.389593 0.186522 -0.647288 1.031843
    9 -0.000004 -0.000006 24.761459 -1.626918 0.188562 -0.856142
    10 -0.000007 0.000004 24.344891 2.019081 0.203718 0.085491
    11 -0.002360 -1.019903 24.031330 0.389594 -0.042695 -0.017219
    12 0.000000 -0.000002 13.404737 0.000001 0.000005 -0.372496
    13 -0.061540 -5.245835 72.927078 0.000000 0.000000 0.000000
    14 3.415491 -1.684228 -17.827675 0.337305 0.111318 -0.710015
    15 0.000000 -0.005608 -1.146812 -0.073742 0.011493 -0.287452
    16 0.030770 -0.240000 8.906021 -0.004138 0.000000 0.000000
    17 0.339877 -1.288246 -0.129308 0.153015 0.157505 -0.386751
    18 0.030770 -0.276858 8.905140 0.056125 0.004134 -0.000049
    19 -0.497374 -0.483514 -0.012895 0.230664 -0.144616 -0.054627
    20 5.669724 4.435303 14.302868 0.631193 -0.947929 2.074804
    21 -1.044571 -2.839317 19.743267 -0.087783 -0.254913 0.081934
    22 2.655533 -1.533369 24.792658 -0.150547 0.083349 -0.315543
    23 1.120163 -0.154394 9.796035 0.008192 -0.001424 0.072230
    24 2.240311 -0.308786 19.592051 -0.230380 -0.049204 0.167685
    25 0.683151 2.877354 14.167051 -1.511326 -0.211747 1.554295
    26 0.144936 -0.145374 7.579252 -1.768042 -0.243277 0.235266
    27 0.091660 -0.906685 4.702850 -1.587437 -0.182568 0.191116
    28 0.506271 8.500866 13.617253 -1.470438 -0.303305 1.571620
    29 -0.384987 -0.460049 7.003448 -1.747417 -0.440906 0.551347
    30 0.561516 -0.596954 5.061852 -1.494372 -0.380557 0.386326
    31 -2.452171 -8.899406 11.597897 -1.564436 -0.075962 1.475269
    32 0.680496 -0.903999 6.074253 -1.628017 0.173820 -0.014245
    33 0.245514 -0.661150 3.388004 -1.484566 0.109479 -0.099287
    34 -0.717484 -3.784271 13.043911 -1.593546 -0.028646 1.464722
    35 1.099216 -1.407745 8.017889 -1.782086 0.031962 -0.017448
    36 0.068439 -0.807653 3.686054 -1.465865 0.034012 -0.009745
    37 -4.004929 6.172707 4.754754 0.109547 1.126790 2.530940
    38 0.158352 -1.149811 5.804394 -0.868143 -0.328987 0.146289
    39 -1.083523 -1.463142 5.544399 -0.791082 -0.151623 -0.023802
    40 -6.289886 0.932434 13.569063 -0.126803 0.612110 2.869610
    41 1.327774 -0.766687 12.396328 -0.020028 0.009279 -0.178983
    42 -0.096140 1.828087 23.185329 -0.273320 -0.280764 -1.166980
    43 2.325478 -0.000003 6.169296 -0.207383 0.209445 2.033794
    44 0.000000 -3.152912 0.122169 1.961052 0.000000 0.000000
    45 1.068383 -10.478592 7.066338 0.292219 -1.282324 -3.141588
    46 0.000000 0.000000 2.279457 0.547137 -0.343566 0.107833
    47 2.479414 -8.323895 6.074242 -0.000482 0.159914 1.766072
    48 -0.000001 -5.070313 5.929688 0.000000 0.000000 0.000000
    49 -1.068383 -10.478611 7.065971 0.292219 1.282324 3.141588
    50 -0.000488 0.000015 2.279600 0.547136 0.343566 0.107835
    51 -2.479401 -8.323895 6.074234 0.016506 0.152651 1.771042
    52 -5.790000 4.432083 14.255558 -5.151714 1.328091 -1.958657
    53 1.044540 -2.839314 19.743252 -0.588564 0.557772 -0.154940
    54 -2.655510 -1.533379 24.792648 -0.475853 -0.049447 -0.307027
    55 -1.120216 -0.154385 9.795983 -0.036798 0.000845 0.320293
    56 -2.240372 -0.308788 19.592047 -0.183667 0.117972 0.616841
    57 -0.683205 2.877342 14.167089 -1.604527 0.208954 -1.789836
    58 -0.144958 -0.145317 7.579308 -1.541391 0.304896 -0.166506
    59 -0.038551 -0.936644 4.697678 -2.189566 0.238585 -0.365176
    60 -0.506317 8.500896 13.617329 -1.710088 0.278232 -1.994626
    61 0.385056 -0.460075 7.003435 -1.471905 0.596196 -0.385484
    62 -0.456360 -0.710276 5.057732 -1.989927 0.545821 -0.699363
    63 2.452194 -8.899408 11.597939 -1.419551 0.110567 -1.352644
    64 -0.680515 -0.903999 6.074242 -1.453600 -0.173888 -0.003175
    65 -0.248295 -0.666843 3.386627 -1.668601 -0.122155 0.124625
    66 0.717491 -3.784309 13.044010 -1.725758 0.009829 -1.454343
    67 -1.099228 -1.407673 8.017876 -1.350904 -0.015601 0.007733
    68 -0.064053 -0.807640 3.686100 -1.839908 -0.037751 0.018152
    69 4.004906 6.172710 4.754800 -0.721366 -0.942072 -1.494633
    70 -0.158381 -1.149773 5.804405 -0.345800 0.685529 0.599784
    71 1.078559 -2.386406 5.215008 -1.052491 1.087709 -0.156300
    72 6.289963 0.932404 13.569109 -0.126801 -0.612098 -2.869612
    73 -1.327759 -0.766682 12.396324 0.012479 0.008243 -0.120977
    74 0.000017 -54.999996 0.000000 0.000000 0.000000 -1.570796
  time 8
    0 0.000000 0.000000 -1.500000 0.000000 0.000000 0.000000
    1 -10.521344 -5.760963 66.994621 3.097005 -0.050653 -3.139334
    2 -10.054623 7.131408 16.162336 0.372166 0.608598 1.020823
    3 -0.000034 0.000012 24.761454 -0.928090 -0.107719 -0.273212
    4 0.000017 0.000000 24.344809 1.666267 -0.397733 -0.179340
    5 0.002333 -1.019846 24.031336 0.378497 -0.042506 0.017680
    6 0.000034 0.000008 13.404741 -0.000001 -0.000009 -0.231798
    7 10.398263 -5.760962 66.994675 3.097005 0.050653 3.139334
    8 2.570225 -10.729678 20.356240 0.058557 -0.640923 1.175009
    9 -0.000004 -0.000006 24.761459 -1.656726 0.192014 -0.981820
    10 -0.000007 0.000004 24.344891 2.085880 0.175410 0.114119
    11 -0.002360 -1.019903 24.031330 0.389594 -0.042695 -0.017219
    12 0.000000 -0.000002 13.404737 0.000001 0.000005 -0.446930
    13 -0.061540 -5.245835 72.927078 0.000000 0.000000 0.000000
    14 3.419397 -3.233106 -18.841574 0.379903 0.146897 -0.822195
    15 0.000000 -0.005608 -1.146812 -0.050872 -0.006121 -0.236362
    16 0.030770 -0.240000 8.906021 -0.004138 0.000000 0.000000
    17 0.343784 -1.280433 -0.125402 0.148764 0.161797 -0.406239
    18 0.030770 -0.276858 8.905140 0.056125 0.004134 -0.000049
    19 -0.493468 -0.506952 -0.012895 0.239100 -0.142847 -0.057683
    20 5.669724 4.435303 14.302868 0.638467 -0.946695 2.081033
    21 -1.044571 -2.839317 19.743267 -0.131566 -0.267698 0.082329
    22 2.655533 -1.533369 24.792658 -0.125117 0.083234 -0.295487
    23 1.120163 -0.154394 9.796035 0.006742 -0.001124 0.059226
    24 2.240311 -0.308786 19.592051 -0.299487 -0.099762 0.147152
    25 0.683151 2.877354 14.167051 -1.511326 -0.211747 1.554295
    26 0.144936 -0.145374 7.579252 -1.768042 -0.243277 0.235266
    27 0.091660 -0.906685 4.702850 -1.587437 -0.182568 0.191116
    28 0.506271 8.500866 13.617253 -1.470500 -0.303305 1.571620
    29 -0.384987 -0.460049 7.003448 -1.747417 -0.440906 0.551347
    30 0.561516 -0.596954 5.061852 -1.494407 -0.380569 0.386326
    31 -2.452171 -8.899406 11.597897 -1.564436 -0.075962 1.475269
    32 0.680496 -0.903999 6.074253 -1.628017 0.173820 -0.014245
    33 0.245514 -0.661150 3.388004 -1.484566 0.109479 -0.099287
    34 -0.717484 -3.784271 13.043911 -1.593590 -0.028646 1.464722
    35 1.099216 -1.407745 8.017889 -1.782086 0.031962 -0.017448
    36 0.068439 -0.807653 3.686054 -1.465865 0.034012 -0.009745
    37 -4.004929 6.172707 4.754754 0.109547 1.126790 2.531036
    38 0.158352 -1.149811 5.804394 -0.865940 -0.326903 0.147367
    39 -1.083523 -1.463142 5.544399 -0.780148 -0.149658 -0.023623
    40 -6.289886 0.932434 13.569063 -0.126803 0.612110 2.869610
    41 1.327774 -0.766687 12.396328 -0.018518 0.008728 -0.165927
    42 -0.096140 1.828087 23.185329 -0.273320 -0.280764 -1.166980
    43 2.325478 -0.000003 6.169296 -0.207383 0.209445 2.033794
    44 0.000000 -3.152912 0.122169 1.961052 0.000000 0.000000
    45 1.068383 -10.478592 7.066338 0.292219 -1.282324 -3.141588
    46 0.000000 0.000000 2.279457 0.547137 -0.343566 0.107833
    47 2.479414 -8.323895 6.074242 0.007538 0.270270 1.955082
    48 -0.000001 -5.070313 5.929688 0.000000 0.000000 0.000000
    49 -1.068383 -10.478611 7.065971 0.292219 1.282324 3.141588
    50 -0.000488 0.000015 2.279600 0.547136 0.343566 0.107835
    51 -2.479401 -8.323895 6.074234 0.023776 0.262273 1.957195
    52 -5.790000 4.432083 14.255558 -5.125257 1.315256 -1.917839
    53 1.044540 -2.839314 19.743252 -0.379518 0.571254 -0.125520
    54 -2.655510 -1.533379 24.792648 -0.514000 -0.060772 -0.185329
    55 -1.120216 -0.154385 9.795983 -0.036834 0.000857 0.320674
    56 -2.240372 -0.308788 19.592047 -0.182827 0.122378 0.617528
    57 -0.683205 2.877342 14.167089 -1.604576 0.208954 -1.789836
    58 -0.144958 -0.145317 7.579308 -1.541391 0.304896 -0.166506
    59 -0.038551 -0.936644 4.697678 -2.189566 0.238585 -0.365164
    60 -0.506317 8.500896 13.617329 -1.709711 0.278414 -1.996289
    61 0.385056 -0.460075 7.003435 -1.471905 0.596196 -0.385484
    62 -0.456360 -0.710276 5.057732 -1.989927 0.545821 -0.699363
    63 2.452194 -8.899408 11.597939 -1.419551 0.110567 -1.352644
    64 -0.680515 -0.903999 6.074242 -1.453600 -0.173888 -0.003175
    65 -0.248295 -0.666843 3.386627 -1.668601 -0.122155 0.124625
    66 0.717491 -3.784309 13.044010 -1.725758 0.009829 -1.454343
    67 -1.099228 -1.407673 8.017876 -1.350904 -0.015601 0.007733
    68 -0.064053 -0.807640 3.686100 -1.839908 -0.037751 0.018152
    69 4.004906 6.172710 4.754800 -0.723549 -0.944997 -1.490540
    70 -0.158381 -1.149773 5.804405 -0.345800 0.685529 0.599784
    71 1.078559 -2.386406 5.215008 -1.052491 1.087709 -0.156300
    72 6.289963 0.932404 13.569109 -0.126801 -0.612098 -2.869612
    73 -1.327759 -0.766682 12.396324 0.006223 0.003820 -0.059121
    74 0.000017 -54.999996 0.000000 0.000000 0.000000 -1.570796
  time 9
    0 0.000000 0.000000 -1.500000 0.000000 0.000000 0.000000
    1 -10.521344 -5.760963 66.994621 3.097005 -0.050653 -3.139334
    2 -10.542919 6.357958 16.924771 0.370868 0.639439 1.013177
    3 -0.000034 0.000012 24.761454 -0.931789 -0.108138 -0.264987
    4 0.000017 0.000000 24.344809 1.677425 -0.418579 -0.201400
    5 0.002333 -1.019846 24.031336 0.370806 -0.042374 0.018016
    6 0.000034 0.000008 13.404741 -0.000001 -0.000009 -0.245192
    7 10.398263 -5.760962 66.994675 3.097005 0.050653 3.139334
    8 2.429595 -11.666381 21.098086 -0.009862 -0.637264 1.245066
    9 -0.000004 -0.000006 24.761459 -1.686205 0.195405 -1.063034
    10 -0.000007 0.000004 24.344891 2.124797 0.140791 0.133981
    11 -0.002360 -1.019903 24.031330 0.389594 -0.042695 -0.017219
    12 0.000000 -0.000002 13.404737 0.000001 0.000005 -0.502042
    13 -0.061540 -5.245835 72.927078 0.000000 0.000000 0.000000
    14 3.419397 -4.176407 -19.720287 0.410083 0.171242 -0.884951
    15 0.000000 -0.005608 -1.146812 -0.027013 -0.021429 -0.182392
    16 0.030770 -0.240000 8.906021 -0.004138 0.000000 0.000000
    17 0.343784 -1.280433 -0.125402 0.145586 0.163886 -0.416502
    18 0.030770 -0.276858 8.905140 0.056125 0.004134 -0.000049
    19 -0.493468 -0.526484 -0.012895 0.247679 -0.140934 -0.059624
    20 5.669724 4.435303 14.302868 0.657800 -0.946942 2.083908
    21 -1.044571 -2.839317 19.743267 -0.262429 -0.292642 0.084303
    22 2.655533 -1.533369 24.792658 -0.105849 0.082196 -0.250845
    23 1.120163 -0.154394 9.796035 0.003962 -0.000633 0.034701
    24 2.240311 -0.308786 19.592051 -0.350708 -0.144841 0.104187
    25 0.683151 2.877354 14.167051 -1.511326 -0.211747 1.554295
    26 0.144936 -0.145374 7.579252 -1.768042 -0.243277 0.235278
    27 0.091660 -0.906685 4.702850 -1.587437 -0.182568 0.191116
    28 0.506271 8.500866 13.617253 -1.470500 -0.303305 1.571620
    29 -0.384987 -0.460049 7.003448 -1.747417 -0.440906 0.551347
    30 0.561516 -0.596954 5.061852 -1.494407 -0.380569 0.386326
    31 -2.452171 -8.899406 11.597897 -1.564436 -0.075962 1.475269
    32 0.680496 -0.903999 6.074253 -1.628017 0.173820 -0.014245
    33 0.245514 -0.661150 3.388004 -1.484566 0.109479 -0.099287
    34 -0.717484 -3.784271 13.043911 -1.593590 -0.028634 1.464722
    35 1.099216 -1.407745 8.017889 -1.782086 0.031962 -0.017448
    36 0.068439 -0.807653 3.686054 -1.465865 0.034012 -0.009745
    37 -4.004929 6.172707 4.754754 0.109547 1.126790 2.530940
    38 0.158352 -1.149811 5.804394 -0.865516 -0.326492 0.147583
    39 -1.083523 -1.463142 5.544399 -0.777898 -0.149274 -0.023581
    40 -6.289886 0.932434 13.569063 -0.126803 0.612110 2.869610
    41 1.327774 -0.766687 12.396328 -0.015294 0.007469 -0.137906
    42 -0.096140 1.828087 23.185329 -0.273303 -0.280764 -1.166980
    43 2.325478 -0.000003 6.169296 -0.207383 0.209445 2.033794
    44 0.000000 -3.152912 0.122169 1.961052 0.000000 0.000000
    45 1.068383 -10.478592 7.066338 0.292219 -1.282324 -3.141588
    46 0.000000 0.000000 2.279457 0.547137 -0.343566 0.107833
    47 2.479414 -8.323895 6.074242 0.013465 0.349444 2.090607
    48 -0.000001 -5.070313 5.929688 0.000000 0.000000 0.000000
    49 -1.068383 -10.478611 7.065971 0.292219 1.282324 3.141588
    50 -0.000488 0.000015 2.279600 0.547136 0.343566 0.107835
    51 -2.479401 -8.323895 6.074234 0.028918 0.340757 2.089887
    52 -5.790000 4.432083 14.255558 -5.080109 1.306118 -1.864566
    53 1.044540 -2.839314 19.743252 -0.121161 0.648629 -0.074056
    54 -2.655510 -1.533379 24.792648 -0.563520 -0.069328 -0.092030
    55 -1.120216 -0.154385 9.795983 -0.036846 0.000857 0.320728
    56 -2.240372 -0.308788 19.592047 -0.182598 0.123269 0.617786
    57 -0.683205 2.877342 14.167089 -1.604576 0.208954 -1.789836
    58 -0.144958 -0.145317 7.579308 -1.541391 0.304896 -0.166506
    59 -0.038551 -0.936644 4.697678 -2.189566 0.238585 -0.365176
    60 -0.506317 8.500896 13.617329 -1.709711 0.278492 -1.996558
    61 0.385056 -0.460075 7.003435 -1.471905 0.596196 -0.385484
    62 -0.456360 -0.710276 5.057732 -1.989927 0.545821 -0.699363
    63 2.452194 -8.899408 11.597939 -1.419551 0.110567 -1.352644
    64 -0.680515 -0.903999 6.074242 -1.453600 -0.173888 -0.003175
    65 -0.248295 -0.666843 3.386627 -1.668601 -0.122155 0.124625
    66 0.717491 -3.784309 13.044010 -1.725758 0.009829 -1.454343
    67 -1.099228 -1.407673 8.017876 -1.350904 -0.015601 0.007733
    68 -0.064053 -0.807640 3.686100 -1.839908 -0.037751 0.018152
    69 4.004906 6.172710 4.754800 -0.723926 -0.945582 -1.489557
    70 -0.158381 -1.149773 5.804405 -0.345800 0.685529 0.599784
    71 1.078559 -2.386406 5.215008 -1.052491 1.087709 -0.156300
    72 6.289963 0.932404 13.569109 -0.126801 -0.612098 -2.869612
    73 -1.327759 -0.766682 12.396324 0.002903 0.001723 -0.027522
    74 0.000017 -54.999996 0.000000 0.000000 0.000000 -1.570796
  time 10
    0 0.000000 0.000000 -1.500000 0.000000 0.000000 0.000000
    1 -10.521344 -5.760963 66.994621 3.097005 -0.050653 -3.139334
    2 -10.539013 5.879155 18.158120 0.367657 0.666467 0.980672
    3 -0.000034 0.000012 24.761454 -0.981668 -0.113915 -0.248048
    4 0.000017 0.000000 24.344809 1.725880 -0.436484 -0.226636
    5 0.002333 -1.019846 24.031336 0.367334 -0.042302 0.018172
    6 0.000034 0.000008 13.404741 -0.000001 -0.000009 -0.247280
    7 10.398263 -5.760962 66.994675 3.097005 0.050653 3.139334
    8 2.183494 -12.016083 22.042253 -0.007217 -0.644727 1.237392
    9 -0.000004 -0.000006 24.761459 -1.734493 0.200990 -1.070930
    10 -0.000007 0.000004 24.344891 2.163198 0.122837 0.136966
    11 -0.002360 -1.019903 24.031330 0.389594 -0.042695 -0.017219
    12 0.000000 -0.000002 13.404737 0.000001 0.000005 -0.513528
    13 -0.061540 -5.245835 72.927078 0.000000 0.000000 0.000000
    14 3.419397 -4.537423 -20.869373 0.417924 0.178794 -0.900144
    15 0.000000 -0.005608 -1.146812 -0.019166 -0.032017 -0.142553
    16 0.030770 -0.240000 8.906021 -0.004138 0.000000 0.000000
    17 0.347690 -1.268714 -0.117589 0.143440 0.161632 -0.412428
    18 0.030770 -0.276858 8.905140 0.056125 0.004134 -0.000049
    19 -0.477843 -0.557735 -0.016801 0.260118 -0.134536 -0.059960
    20 5.669724 4.435303 14.302868 0.693115 -0.950571 2.077008
    21 -1.044571 -2.839317 19.743267 -0.372353 -0.360220 0.092002
    22 2.655533 -1.533369 24.792658 -0.104547 0.080659 -0.209115
    23 1.120163 -0.154394 9.796035 -0.000017 -0.000009 -0.000137
    24 2.240311 -0.308786 19.592051 -0.366810 -0.172376 0.039621
    25 0.683151 2.877354 14.167051 -1.511326 -0.211747 1.554295
    26 0.144936 -0.145374 7.579252 -1.768042 -0.243277 0.235266
    27 0.091660 -0.906685 4.702850 -1.587437 -0.182568 0.191116
    28 0.506271 8.500866 13.617253 -1.470500 -0.303305 1.571620
    29 -0.384987 -0.460049 7.003448 -1.747417 -0.440906 0.551347
    30 0.561516 -0.596954 5.061852 -1.494407 -0.380569 0.386326
    31 -2.452171 -8.899406 11.597897 -1.564436 -0.075962 1.475269
    32 0.680496 -0.903999 6.074253 -1.628017 0.173820 -0.014245
    33 0.245514 -0.661150 3.388004 -1.484566 0.109479 -0.099287
    34 -0.717484 -3.784271 13.043911 -1.593590 -0.028634 1.464722
    35 1.099216 -1.407745 8.017889 -1.782086 0.031950 -0.017448
    36 0.068439 -0.807653 3.686054 -1.465865 0.034012 -0.009745
    37 -4.004929 6.172707 4.754754 0.109547 1.126790 2.530940
    38 0.158352 -1.149811 5.804394 -0.869542 -0.330219 0.145630
    39 -1.083523 -1.463142 5.544399 -0.797779 -0.152798 -0.023927
    40 -6.289886 0.932434 13.569063 -0.126803 0.612110 2.869610
    41 1.327774 -0.766687 12.396328 -0.012502 0.006307 -0.113250
    42 -0.096140 1.828087 23.185329 -0.273320 -0.280764 -1.166980
    43 2.325478 -0.000003 6.169296 -0.207383 0.209445 2.033794
    44 0.000000 -3.152912 0.122169 1.961052 0.000000 0.000000
    45 1.068383 -10.478592 7.066338 0.292219 -1.282324 -3.141588
    46 0.000000 0.000000 2.279457 0.547137 -0.343566 0.107833
    47 2.479414 -8.323895 6.074242 0.015422 0.389736 2.133490
    48 -0.000001 -5.070313 5.929688 0.000000 0.000000 0.000000
    49 -1.068383 -10.478611 7.065971 0.292219 1.282324 3.141588
    50 -0.000488 0.000015 2.279600 0.547136 0.343566 0.107835
    51 -2.479401 -8.323895 6.074234 0.030665 0.380826 2.131659
    52 -5.790000 4.432083 14.255558 -5.028921 1.302463 -1.809664
    53 1.044540 -2.839314 19.743252 0.140869 0.761151 0.023293
    54 -2.655510 -1.533379 24.792648 -0.618073 -0.074803 -0.042426
    55 -1.120216 -0.154385 9.795983 -0.036774 0.000845 0.320048
    56 -2.240372 -0.308788 19.592047 -0.184278 0.115249 0.616325
    57 -0.683205 2.877342 14.167089 -1.604576 0.208934 -1.789836
    58 -0.144958 -0.145317 7.579308 -1.541391 0.304896 -0.166506
    59 -0.038551 -0.936644 4.697678 -2.189615 0.238585 -0.365164
    60 -0.506317 8.500896 13.617329 -1.710239 0.278103 -1.993683
    61 0.385056 -0.460075 7.003435 -1.471905 0.596196 -0.385484
    62 -0.456360 -0.710276 5.057732 -1.989927 0.545821 -0.699363
    63 2.452194 -8.899408 11.597939 -1.419591 0.110567 -1.352644
    64 -0.680515 -0.903999 6.074242 -1.453600 -0.173888 -0.003175
    65 -0.248295 -0.666843 3.386627 -1.668601 -0.122155 0.124625
    66 0.717491 -3.784309 13.044010 -1.725758 0.009829 -1.454343
    67 -1.099228 -1.407673 8.017876 -1.350904 -0.015601 0.007733
    68 -0.064053 -0.807640 3.686100 -1.839908 -0.037751 0.018152
    69 4.004906 6.172710 4.754800 -0.720236 -0.940295 -1.497252
    70 -0.158381 -1.149773 5.804405 -0.345800 0.685529 0.599784
    71 1.078559 -2.386406 5.215008 -1.052491 1.087709 -0.156300
    72 6.289963 0.932404 13.569109 -0.126801 -0.612098 -2.869612
    73 -1.327759 -0.766682 12.396324 0.003706 0.002214 -0.034971
    74 0.000017 -54.999996 0.000000 0.000000 0.000000 -1.570796
  time 11
    0 0.000000 0.000000 -1.500000 0.000000 0.000000 0.000000
    1 -10.521344 -5.760963 66.994621 3.097005 -0.050653 -3.139334
    2 -9.929619 6.652606 20.131480 0.407966 0.669112 0.956730
    3 -0.000034 0.000012 24.761454 -1.109516 -0.128692 -0.246338
    4 0.000017 0.000000 24.344809 1.822851 -0.453098 -0.270518
    5 0.002333 -1.019846 24.031336 0.369686 -0.042350 0.018076
    6 0.000034 0.000008 13.404741 -0.000001 -0.000009 -0.254789
    7 10.398263 -5.760962 66.994675 3.097005 0.050653 3.139334
    8 2.152243 -10.904529 23.076341 0.082700 -0.684856 1.153390
    9 -0.000004 -0.000006 24.761459 -1.799939 0.208552 -0.997109
    10 -0.000007 0.000004 24.344891 2.178881 0.144679 0.125006
    11 -0.002360 -1.019903 24.031330 0.389594 -0.042695 -0.017219
    12 0.000000 -0.000002 13.404737 0.000001 0.000005 -0.475012
    13 -0.061540 -5.245835 72.927078 0.000000 0.000000 0.000000
    14 3.161577 -3.302980 -22.198708 0.397729 0.147551 -0.885311
    15 0.000000 -0.005608 -1.146812 -0.035880 -0.033413 -0.115894
    16 0.030770 -0.240000 8.906021 -0.004138 0.000000 0.000000
    17 0.269563 -1.167148 -0.090245 0.133949 0.138172 -0.392821
    18 0.030770 -0.276858 8.905140 0.056125 0.004134 -0.000049
    19 -0.419247 -0.628050 -0.024614 0.281530 -0.117277 -0.058582
    20 5.669724 4.435303 14.302868 0.771689 -1.023119 2.011458
    21 -1.044571 -2.839317 19.743267 -0.378272 -0.479930 0.109712
    22 2.655533 -1.533369 24.792658 -0.160138 0.080505 -0.227473
    23 1.120163 -0.154394 9.796035 -0.005566 0.000626 -0.048531
    24 2.240311 -0.308786 19.592051 -0.342353 -0.172514 -0.055013
    25 0.683151 2.877354 14.167051 -1.511326 -0.211735 1.554295
    26 0.144936 -0.145374 7.579252 -1.768042 -0.243277 0.235266
    27 0.091660 -0.906685 4.702850 -1.587437 -0.182568 0.191116
    28 0.506271 8.500866 13.617253 -1.470500 -0.303305 1.571620
    29 -0.384987 -0.460049 7.003448 -1.747417 -0.440906 0.551347
    30 0.561516 -0.596954 5.061852 -1.494407 -0.380569 0.386326
    31 -2.452171 -8.899406 11.597897 -1.564436 -0.075962 1.475269
    32 0.680496 -0.903999 6.074253 -1.628017 0.173820 -0.014245
    33 0.245514 -0.661150 3.388004 -1.484566 0.109479 -0.099287
    34 -0.717484 -3.784271 13.043911 -1.593590 -0.028646 1.464722
    35 1.099216 -1.407745 8.017889 -1.782086 0.031950 -0.017448
    36 0.068439 -0.807653 3.686054 -1.465865 0.034012 -0.009745
    37 -4.004929 6.172707 4.754754 0.109547 1.126790 2.531036
    38 0.158352 -1.149811 5.804394 -0.878611 -0.338556 0.141207
    39 -1.083523 -1.463142 5.544399 -0.841988 -0.160864 -0.024479
    40 -6.289886 0.932434 13.569063 -0.126803 0.612110 2.869610
    41 1.327774 -0.766687 12.396328 -0.013676 0.006810 -0.123695
    42 -0.096140 1.828087 23.185329 -0.261575 -0.278820 -1.180463
    43 2.325478 -0.000003 6.169296 -0.209484 0.205263 2.022898
    44 0.000000 -3.152912 0.122169 1.967643 0.000000 0.000000
    45 1.068383 -10.478592 7.066338 0.292219 -1.282324 -3.141588
    46 0.000000 0.000000 2.279457 0.547137 -0.343566 0.107833
    47 2.479414 -8.323895 6.074242 0.014906 0.355690 2.124131
    48 -0.000001 -5.070313 5.929688 0.000000 0.000000 0.000000
    49 -1.068383 -10.478611 7.065971 0.292219 1.282324 3.141588
    50 -0.000488 0.000015 2.279600 0.547136 0.343566 0.107835
    51 -2.479401 -8.323895 6.074234 0.030042 0.348506 2.122653
    52 -5.790000 4.432083 14.255558 -4.945524 1.328631 -1.735790
    53 1.044540 -2.839314 19.743252 0.243889 0.870748 0.091494
    54 -2.655510 -1.533379 24.792648 -0.695373 -0.079617 -0.024781
    55 -1.120216 -0.154385 9.795983 -0.036666 0.000821 0.319259
    56 -2.240372 -0.308788 19.592047 -0.187562 0.100299 0.614951
    57 -0.683205 2.877342 14.167089 -1.604576 0.208934 -1.789836
    58 -0.144958 -0.145317 7.579308 -1.541391 0.304896 -0.166506
    59 -0.038551 -0.936644 4.697678 -2.189566 0.238585 -0.365176
    60 -0.506317 8.500896 13.617329 -1.711596 0.277221 -1.987168
    61 0.385056 -0.460075 7.003435 -1.471905 0.596196 -0.385484
    62 -0.456360 -0.710276 5.057732 -1.989927 0.545821 -0.699363
    63 2.452194 -8.899408 11.597939 -1.419551 0.110567 -1.352644
    64 -0.680515 -0.903999 6.074242 -1.453600 -0.173888 -0.003175
    65 -0.248295 -0.666843 3.386627 -1.668601 -0.122155 0.124625
    66 0.717491 -3.784309 13.044010 -1.725758 0.009829 -1.454343
    67 -1.099228 -1.407673 8.017876 -1.350904 -0.015601 0.007733
    68 -0.064053 -0.807640 3.686100 -1.839908 -0.037751 0.018152
    69 4.004906 6.172710 4.754800 -0.712331 -0.928363 -1.513953
    70 -0.158381 -1.149773 5.804405 -0.345800 0.685529 0.599784
    71 1.078559 -2.386406 5.215008 -1.052491 1.087709 -0.156300
    72 6.289963 0.932404 13.569109 -0.126801 -0.612098 -2.869612
    73 -1.327759 -0.766682 12.396324 0.005060 0.003077 -0.048064
    74 0.000017 -54.999996 0.000000 0.000000 0.000000 -1.570796
  time 12
    0 0.000000 0.000000 -1.500000 0.000000 0.000000 0.000000
    1 -10.521344 -5.760963 66.994621 3.097005 -0.050653 -3.139334
    2 -8.206910 8.187230 21.880594 0.402842 0.658673 0.883462
    3 -0.000034 0.000012 24.761454 -1.233177 -0.142989 -0.213927
    4 0.000017 0.000000 24.344809 1.935788 -0.468897 -0.318830
    5 0.002333 -1.019846 24.031336 0.375174 -0.042446 0.017824
    6 0.000034 0.000008 13.404741 -0.000001 -0.000009 -0.223571
    7 10.398263 -5.760962 66.994675 3.097005 0.050653 3.139334
    8 2.195213 -8.256782 23.593385 0.299643 -0.727216 0.940580
    9 -0.000004 -0.000006 24.761459 -1.849767 0.214305 -0.824632
    10 -0.000007 0.000004 24.344891 2.135769 0.197430 0.105690
    11 -0.002360 -1.019903 24.031330 0.389594 -0.042695 -0.017219
    12 0.000000 -0.000002 13.404737 0.000001 0.000005 -0.377884
    13 -0.061540 -5.245835 72.927078 0.000000 0.000000 0.000000
    14 2.517026 -0.740927 -23.077421 0.347707 0.096023 -0.809403
    15 0.000000 -0.005608 -1.146812 -0.067331 -0.026700 -0.092768
    16 0.030770 -0.240000 8.906021 -0.004138 0.000000 0.000000
    17 0.097682 -0.940579 -0.043368 0.110275 0.089214 -0.362471
    18 0.030770 -0.276858 8.905140 0.056125 0.004134 -0.000049
    19 -0.313775 -0.713990 -0.032426 0.311412 -0.089958 -0.055286
    20 5.669724 4.435303 14.302868 0.972576 -1.185621 1.813465
    21 -1.044571 -2.839317 19.743267 -0.393584 -0.607050 0.135093
    22 2.655533 -1.533369 24.792658 -0.275095 0.081389 -0.273813
    23 1.120163 -0.154394 9.796035 -0.012613 0.001021 -0.109653
    24 2.240311 -0.308786 19.592051 -0.298616 -0.146268 -0.178646
    25 0.683151 2.877354 14.167051 -1.511326 -0.211747 1.554295
    26 0.144936 -0.145374 7.579252 -1.768042 -0.243277 0.235266
    27 0.091660 -0.906685 4.702850 -1.587437 -0.182568 0.191116
    28 0.506271 8.500866 13.617253 -1.470500 -0.303305 1.571620
    29 -0.384987 -0.460049 7.003448 -1.747417 -0.440906 0.551347
    30 0.561516 -0.596954 5.061852 -1.494407 -0.380569 0.386326
    31 -2.452171 -8.899406 11.597897 -1.564436 -0.075962 1.475269
    32 0.680496 -0.903999 6.074253 -1.628017 0.173820 -0.014245
    33 0.245514 -0.661150 3.388004 -1.484566 0.109479 -0.099287
    34 -0.717484 -3.784271 13.043911 -1.593590 -0.028646 1.464722
    35 1.099216 -1.407745 8.017889 -1.782086 0.031962 -0.017448
    36 0.068439 -0.807653 3.686054 -1.465865 0.034012 -0.009745
    37 -4.004929 6.172707 4.754754 0.109547 1.126790 2.531036
    38 0.158352 -1.149811 5.804394 -0.890646 -0.349695 0.135335
    39 -1.083523 -1.463142 5.544399 -0.901054 -0.171853 -0.024769
    40 -6.289886 0.932434 13.569063 -0.126803 0.612110 2.869610
    41 1.327774 -0.766687 12.396328 -0.016828 0.008093 -0.151264
    42 -0.096140 1.828087 23.185329 -0.230020 -0.272383 -1.216323
    43 2.325478 -0.000003 6.169296 -0.212922 0.193717 1.994161
    44 0.000000 -3.152912 0.122169 1.984927 0.000000 0.000000
    45 1.068383 -10.478592 7.066338 0.292219 -1.282324 -3.141588
    46 0.000000 0.000000 2.279457 0.547137 -0.343566 0.107833
    47 2.479414 -8.323895 6.074242 0.011888 0.256980 2.059663
    48 -0.000001 -5.070313 5.929688 0.000000 0.000000 0.000000
    49 -1.068383 -10.478611 7.065971 0.292219 1.282324 3.141588
    50 -0.000488 0.000015 2.279600 0.547136 0.343566 0.107835
    51 -2.479401 -8.323895 6.074234 0.027251 0.252445 2.059612
    52 -5.790000 4.432083 14.255558 -4.779882 1.388818 -1.593984
    53 1.044540 -2.839314 19.743252 0.140034 0.956263 0.057230
    54 -2.655510 -1.533379 24.792648 -0.798138 -0.085571 -0.025917
    55 -1.120216 -0.154385 9.795983 -0.036606 0.000809 0.318715
    56 -2.240372 -0.308788 19.592047 -0.191380 0.082329 0.614091
    57 -0.683205 2.877342 14.167089 -1.604576 0.208954 -1.789836
    58 -0.144958 -0.145317 7.579308 -1.541391 0.304896 -0.166506
    59 -0.038551 -0.936644 4.697678 -2.189566 0.238585 -0.365176
    60 -0.506317 8.500896 13.617329 -1.713331 0.276053 -1.978542
    61 0.385056 -0.460075 7.003435 -1.471905 0.596196 -0.385484
    62 -0.456360 -0.710276 5.057732 -1.989927 0.545821 -0.699363
    63 2.452194 -8.899408 11.597939 -1.419551 0.110567 -1.352644
    64 -0.680515 -0.903999 6.074242 -1.453600 -0.173888 -0.003175
    65 -0.248295 -0.666843 3.386627 -1.668601 -0.122155 0.124625
    66 0.717491 -3.784309 13.044010 -1.725758 0.009829 -1.454343
    67 -1.099228 -1.407673 8.017876 -1.350904 -0.015601 0.007733
    68 -0.064053 -0.807640 3.686100 -1.839908 -0.037751 0.018152
    69 4.004906 6.172710 4.754800 -0.702543 -0.912252 -1.535401
    70 -0.158381 -1.149773 5.804405 -0.345800 0.685529 0.599784
    71 1.078559 -2.386406 5.215008 -1.052491 1.087709 -0.156300
    72 6.289963 0.932404 13.569109 -0.126801 -0.612098 -2.869612
    73 -1.327759 -0.766682 12.396324 0.004437 0.002682 -0.041957
    74 0.000017 -54.999996 0.000000 0.000000 0.000000 -1.570796
  time 13
    0 0.000000 0.000000 -1.500000 0.000000 0.000000 0.000000
    1 -10.521344 -5.760963 66.994621 3.097005 -0.050653 -3.139334
    2 -5.316197 9.267605 22.687877 0.272625 0.645619 0.700838
    3 -0.000034 0.000012 24.761454 -1.286023 -0.149102 -0.101585
    4 0.000017 0.000000 24.344809 2.035595 -0.476638 -0.342791
    5 0.002333 -1.019846 24.031336 0.381745 -0.042566 0.017549
    6 0.000034 0.000008 13.404741 -0.000001 -0.000009 -0.123188
    7 10.398263 -5.760962 66.994675 3.097005 0.050653 3.139334
    8 1.995988 -4.260184 23.436024 0.661784 -0.662871 0.564387
    9 -0.000004 -0.000006 24.761459 -1.861042 0.215599 -0.520197
    10 -0.000007 0.000004 24.344891 2.016177 0.258980 0.078093
    11 -0.002360 -1.019903 24.031330 0.389594 -0.042695 -0.017219
    12 0.000000 -0.000002 13.404737 0.000001 0.000005 -0.200332
    13 -0.061540 -5.245835 72.927078 0.000000 0.000000 0.000000
    14 1.626374 2.415056 -23.099952 0.258575 0.055007 -0.623298
    15 0.000000 -0.005608 -1.146812 -0.102896 -0.017728 -0.076110
    16 0.030770 -0.240000 8.906021 -0.004138 0.000000 0.000000
    17 -0.109355 -0.639789 0.003508 0.075026 0.031785 -0.324974
    18 0.030770 -0.276858 8.905140 0.056125 0.004134 -0.000049
    19 -0.192678 -0.827275 -0.048052 0.345013 -0.059204 -0.049665
    20 5.669724 4.435303 14.302868 1.542790 -1.347453 1.266448
    21 -1.044571 -2.839317 19.743267 -0.472933 -0.717419 0.181625
    22 2.655533 -1.533369 24.792658 -0.407585 0.082004 -0.253838
    23 1.120163 -0.154394 9.796035 -0.020343 0.000973 -0.176742
    24 2.240311 -0.308786 19.592051 -0.261539 -0.099302 -0.316166
    25 0.683151 2.877354 14.167051 -1.511326 -0.211747 1.554295
    26 0.144936 -0.145374 7.579252 -1.768042 -0.243277 0.235266
    27 0.091660 -0.906685 4.702850 -1.587437 -0.182568 0.191116
    28 0.506271 8.500866 13.617253 -1.470438 -0.303305 1.571620
    29 -0.384987 -0.460049 7.003448 -1.747417 -0.440906 0.551347
    30 0.561516 -0.596954 5.061852 -1.494372 -0.380569 0.386326
    31 -2.452171 -8.899406 11.597897 -1.564436 -0.075962 1.475269
    32 0.680496 -0.903999 6.074253 -1.628017 0.173820 -0.014245
    33 0.245514 -0.661150 3.388004 -1.484566 0.109479 -0.099287
    34 -0.717484 -3.784271 13.043911 -1.593590 -0.028646 1.464722
    35 1.099216 -1.407745 8.017889 -1.782086 0.031962 -0.017448
    36 0.068439 -0.807653 3.686054 -1.465865 0.034012 -0.009745
    37 -4.004929 6.172707 4.754754 0.109547 1.126790 2.530940
    38 0.158352 -1.149811 5.804394 -0.904589 -0.362610 0.128480
    39 -1.083523 -1.463142 5.544399 -0.969695 -0.184929 -0.024452
    40 -6.289886 0.932434 13.569063 -0.126803 0.612110 2.869610
    41 1.327774 -0.766687 12.396328 -0.016876 0.008105 -0.151715
    42 -0.096140 1.828087 23.185329 -0.184563 -0.259987 -1.267623
    43 2.325478 -0.000003 6.169296 -0.213208 0.176427 1.953131
    44 0.000000 -3.152912 0.122169 2.009062 0.000000 0.000000
    45 1.068383 -10.478592 7.066338 0.292219 -1.282324 -3.141588
    46 0.000000 0.000000 2.279457 0.547137 -0.343566 0.107833
    47 2.479414 -8.323895 6.074242 0.004113 0.123849 1.875906
    48 -0.000001 -5.070313 5.929688 0.000000 0.000000 0.000000
    49 -1.068383 -10.478611 7.065971 0.292219 1.282324 3.141588
    50 -0.000488 0.000015 2.279600 0.547136 0.343566 0.107835
    51 -2.479401 -8.323895 6.074234 0.020462 0.121276 1.878921
    52 -5.790000 4.432083 14.255558 -4.462402 1.452536 -1.300022
    53 1.044540 -2.839314 19.743252 -0.008123 1.046781 -0.013121
    54 -2.655510 -1.533379 24.792648 -0.900651 -0.092534 -0.026674
    55 -1.120216 -0.154385 9.795983 -0.036462 0.000785 0.317518
    56 -2.240372 -0.308788 19.592047 -0.196344 0.059013 0.612373
    57 -0.683205 2.877342 14.167089 -1.604527 0.208954 -1.789836
    58 -0.144958 -0.145317 7.579308 -1.541391 0.304896 -0.166506
    59 -0.038551 -0.936644 4.697678 -2.189566 0.238585 -0.365164
    60 -0.506317 8.500896 13.617329 -1.715367 0.274730 -1.968433
    61 0.385056 -0.460075 7.003435 -1.471905 0.596196 -0.385484
    62 -0.456360 -0.710276 5.057732 -1.989927 0.545821 -0.699363
    63 2.452194 -8.899408 11.597939 -1.419551 0.110567 -1.352644
    64 -0.680515 -0.903999 6.074242 -1.453600 -0.173888 -0.003175
    65 -0.248295 -0.666843 3.386627 -1.668601 -0.122155 0.124625
    66 0.717491 -3.784309 13.044010 -1.725758 0.009829 -1.454343
    67 -1.099228 -1.407673 8.017876 -1.350904 -0.015601 0.007733
    68 -0.064053 -0.807640 3.686100 -1.839908 -0.037751 0.018152
    69 4.004906 6.172710 4.754800 -0.692153 -0.893298 -1.559141
    70 -0.158381 -1.149773 5.804405 -0.345800 0.685529 0.599784
    71 1.078559 -2.386406 5.215008 -1.052491 1.087709 -0.156300
    72 6.289963 0.932404 13.569109 -0.126801 -0.612098 -2.869612
    73 -1.327759 -0.766682 12.396324 0.003262 0.001951 -0.030761
    74 0.000017 -54.999996 0.000000 0.000000 0.000000 -1.570796
  time 14
    0 0.000000 0.000000 -1.500000 0.000000 0.000000 0.000000
    1 -10.521344 -5.760963 66.994621 3.097005 -0.050653 -3.139334
    2 -2.667679 9.869178 22.598179 0.108386 0.611799 0.486277
    3 -0.000034 0.000012 24.761454 -1.275210 -0.147855 0.048013
    4 0.000017 0.000000 24.344809 2.087748 -0.480916 -0.343850
    5 0.002333 -1.019846 24.031336 0.387308 -0.042662 0.017309
    6 0.000034 0.000008 13.404741 -0.000001 -0.000009 -0.017932
    7 10.398263 -5.760962 66.994675 3.097005 0.050653 3.139334
    8 1.808483 0.573203 22.671698 0.955165 -0.456008 0.253712
    9 -0.000004 -0.000006 24.761459 -1.806594 0.209307 -0.167601
    10 -0.000007 0.000004 24.344891 1.830690 0.315508 0.048099
    11 -0.002360 -1.019903 24.031330 0.389594 -0.042695 -0.017219
    12 0.000000 -0.000002 13.404737 0.000001 0.000005 0.004744
    13 -0.061540 -5.245835 72.927078 0.000000 0.000000 0.000000
    14 0.665407 5.873827 -22.469081 0.155681 0.023144 -0.389930
    15 0.000000 -0.005608 -1.146812 -0.132114 -0.012348 -0.067903
    16 0.030770 -0.240000 8.906021 -0.004138 0.000000 0.000000
    17 -0.289048 -0.338998 0.034759 0.033675 -0.017857 -0.282964
    18 0.030770 -0.276858 8.905140 0.056125 0.004134 -0.000049
    19 -0.091112 -0.940559 -0.063677 0.375717 -0.032132 -0.042271
    20 5.669724 4.435303 14.302868 2.560907 -1.362780 0.302554
    21 -1.044571 -2.839317 19.743267 -0.548564 -0.787815 0.227959
    22 2.655533 -1.533369 24.792658 -0.524973 0.081120 -0.150564
    23 1.120163 -0.154394 9.796035 -0.027941 0.000422 -0.242693
    24 2.240311 -0.308786 19.592051 -0.248353 -0.048145 -0.451906
    25 0.683151 2.877354 14.167051 -1.511326 -0.211747 1.554295
    26 0.144936 -0.145374 7.579252 -1.768042 -0.243277 0.235266
    27 0.091660 -0.906685 4.702850 -1.587437 -0.182568 0.191116
    28 0.506271 8.500866 13.617253 -1.470500 -0.303305 1.571620
    29 -0.384987 -0.460049 7.003448 -1.747417 -0.440906 0.551347
    30 0.561516 -0.596954 5.061852 -1.494372 -0.380569 0.386326
    31 -2.452171 -8.899406 11.597897 -1.564436 -0.075962 1.475269
    32 0.680496 -0.903999 6.074253 -1.628017 0.173820 -0.014245
    33 0.245514 -0.661150 3.388004 -1.484566 0.109479 -0.099287
    34 -0.717484 -3.784271 13.043911 -1.593590 -0.028646 1.464722
    35 1.099216 -1.407745 8.017889 -1.782086 0.031950 -0.017448
    36 0.068439 -0.807653 3.686054 -1.465865 0.034012 -0.009745
    37 -4.004929 6.172707 4.754754 0.109547 1.126790 2.531036
    38 0.158352 -1.149811 5.804394 -0.919336 -0.376303 0.121181
    39 -1.083523 -1.463142 5.544399 -1.042678 -0.199142 -0.023278
    40 -6.289886 0.932434 13.569063 -0.126803 0.612110 2.869610
    41 1.327774 -0.766687 12.396328 -0.012346 0.006235 -0.111894
    42 -0.096140 1.828087 23.185329 -0.131213 -0.240516 -1.327238
    43 2.325478 -0.000003 6.169296 -0.205950 0.155780 1.905275
    44 0.000000 -3.152912 0.122169 2.036257 0.000000 0.000000
    45 1.068383 -10.478592 7.066338 0.292219 -1.282324 -3.141588
    46 0.000000 0.000000 2.279457 0.547137 -0.343566 0.107833
    47 2.479414 -8.323895 6.074242 -0.004777 -0.004210 1.661300
    48 -0.000001 -5.070313 5.929688 0.000000 0.000000 0.000000
    49 -1.068383 -10.478611 7.065971 0.292219 1.282324 3.141588
    50 -0.000488 0.000015 2.279600 0.547136 0.343566 0.107835
    51 -2.479401 -8.323895 6.074234 0.012288 -0.005404 1.665750
    52 -5.790000 4.432083 14.255558 -3.960874 1.488216 -0.806382
    53 1.044540 -2.839314 19.743252 -0.207818 1.126530 -0.133304
    54 -2.655510 -1.533379 24.792648 -0.978555 -0.100235 0.004375
    55 -1.120216 -0.154385 9.795983 -0.036151 0.000725 0.314580
    56 -2.240372 -0.308788 19.592047 -0.202377 0.028123 0.607905
    57 -0.683205 2.877342 14.167089 -1.604576 0.208954 -1.789836
    58 -0.144958 -0.145317 7.579308 -1.541391 0.304896 -0.166506
    59 -0.038551 -0.936644 4.697678 -2.189566 0.238585 -0.365176
    60 -0.506317 8.500896 13.617329 -1.717555 0.273303 -1.957784
    61 0.385056 -0.460075 7.003435 -1.471905 0.596196 -0.385484
    62 -0.456360 -0.710276 5.057732 -1.989927 0.545821 -0.699363
    63 2.452194 -8.899408 11.597939 -1.419551 0.110567 -1.352620
    64 -0.680515 -0.903999 6.074242 -1.453600 -0.173888 -0.003175
    65 -0.248295 -0.666843 3.386627 -1.668601 -0.122155 0.124625
    66 0.717491 -3.784309 13.044010 -1.725758 0.009829 -1.454343
    67 -1.099228 -1.407673 8.017876 -1.350904 -0.015601 0.007733
    68 -0.064053 -0.807640 3.686100 -1.839908 -0.037751 0.018152
    69 4.004906 6.172710 4.754800 -0.682440 -0.872902 -1.583209
    70 -0.158381 -1.149773 5.804405 -0.345800 0.685529 0.599784
    71 1.078559 -2.386406 5.215008 -1.052491 1.087709 -0.156300
    72 6.289963 0.932404 13.569109 -0.126801 -0.612098 -2.869612
    73 -1.327759 -0.766682 12.396324 0.000027 -0.000003 -0.000272
    74 0.000017 -54.999996 0.000000 0.000000 0.000000 -1.570796
  time 15
    0 0.000000 0.000000 -1.500000 0.000000 0.000000 0.000000
    1 -10.521344 -5.760963 66.994621 3.097005 -0.050653 -3.139334
    2 -1.085599 10.163825 21.835745 -0.003520 0.572441 0.332750
    3 -0.000034 0.000012 24.761454 -1.236307 -0.143361 0.176479
    4 0.000017 0.000000 24.344809 2.082878 -0.474736 -0.325506
    5 0.002333 -1.019846 24.031336 0.389660 -0.042710 0.017201
    6 0.000034 0.000008 13.404741 -0.000001 -0.000009 0.057456
    7 10.398263 -5.760962 66.994675 3.097005 0.050653 3.139334
    8 1.968644 4.270057 21.525209 1.061376 -0.283458 0.120283
    9 -0.000004 -0.000006 24.761459 -1.703969 0.197467 0.071590
    10 -0.000007 0.000004 24.344891 1.669147 0.354393 0.024096
    11 -0.002360 -1.019903 24.031330 0.389594 -0.042695 -0.017219
    12 0.000000 -0.000002 13.404737 0.000001 0.000005 0.137060
    13 -0.061540 -5.245835 72.927078 0.000000 0.000000 0.000000
    14 -0.229152 8.342714 -21.432651 0.083799 0.010344 -0.215475
    15 0.000000 -0.005608 -1.146812 -0.144395 -0.016332 -0.069289
    16 0.030770 -0.240000 8.906021 -0.004138 0.000000 0.000000
    17 -0.367175 -0.085084 0.050385 -0.005256 -0.045457 -0.239356
    18 0.030770 -0.276858 8.905140 0.056125 0.004134 -0.000049
    19 -0.028610 -1.018687 -0.075397 0.394769 -0.015819 -0.034816
    20 5.669724 4.435303 14.302868 3.040966 -1.308025 -0.101097
    21 -1.044571 -2.839317 19.743267 -0.535454 -0.828571 0.237406
    22 2.655533 -1.533369 24.792658 -0.606732 0.079314 -0.045592
    23 1.120163 -0.154394 9.796035 -0.034593 -0.000477 -0.300745
    24 2.240311 -0.308786 19.592051 -0.262366 -0.015637 -0.569090
    25 0.683151 2.877354 14.167051 -1.511326 -0.211747 1.554295
    26 0.144936 -0.145374 7.579252 -1.768042 -0.243277 0.235266
    27 0.091660 -0.906685 4.702850 -1.587437 -0.182568 0.191116
    28 0.506271 8.500866 13.617253 -1.470500 -0.303305 1.571620
    29 -0.384987 -0.460049 7.003448 -1.747417 -0.440906 0.551347
    30 0.561516 -0.596954 5.061852 -1.494372 -0.380569 0.386326
    31 -2.452171 -8.899406 11.597897 -1.564436 -0.075962 1.475269
    32 0.680496 -0.903999 6.074253 -1.628017 0.173820 -0.014245
    33 0.245514 -0.661150 3.388004 -1.484566 0.109479 -0.099287
    34 -0.717484 -3.784271 13.043911 -1.593590 -0.028646 1.464722
    35 1.099216 -1.407745 8.017889 -1.782086 0.031950 -0.017448
    36 0.068439 -0.807653 3.686054 -1.465865 0.034012 -0.009745
    37 -4.004929 6.172707 4.754754 0.109547 1.126790 2.531036
    38 0.158352 -1.149811 5.804394 -0.933872 -0.389820 0.113954
    39 -1.083523 -1.463142 5.544399 -1.114720 -0.213452 -0.021275
    40 -6.289886 0.932434 13.569063 -0.126803 0.612110 2.869610
    41 1.327774 -0.766687 12.396328 -0.006821 0.003658 -0.062582
    42 -0.096140 1.828087 23.185329 -0.075449 -0.214481 -1.387740
    43 2.325478 -0.000003 6.169296 -0.187327 0.134959 1.855744
    44 0.000000 -3.152912 0.122169 2.062704 0.000000 0.000000
    45 1.068383 -10.478592 7.066338 0.292219 -1.282324 -3.141588
    46 0.000000 0.000000 2.279457 0.547137 -0.343566 0.107833
    47 2.479414 -8.323895 6.074242 -0.010133 -0.055397 1.531314
    48 -0.000001 -5.070313 5.929688 0.000000 0.000000 0.000000
    49 -1.068383 -10.478611 7.065971 0.292219 1.282324 3.141588
    50 -0.000488 0.000015 2.279600 0.547136 0.343566 0.107835
    51 -2.479401 -8.323895 6.074234 0.007127 -0.055632 1.535740
    52 -5.790000 4.432083 14.255558 -3.793411 1.494322 -0.614943
    53 1.044540 -2.839314 19.743252 -0.422596 1.164772 -0.277109
    54 -2.655510 -1.533379 24.792648 -1.008147 -0.107082 0.099871
    55 -1.120216 -0.154385 9.795983 -0.035503 0.000617 0.309085
    56 -2.240372 -0.308788 19.592047 -0.209555 -0.012718 0.599657
    57 -0.683205 2.877342 14.167089 -1.604576 0.208954 -1.789836
    58 -0.144958 -0.145317 7.579308 -1.541391 0.304896 -0.166506
    59 -0.038551 -0.936644 4.697678 -2.189566 0.238585 -0.365176
    60 -0.506317 8.500896 13.617329 -1.719893 0.271876 -1.947316
    61 0.385056 -0.460075 7.003435 -1.471905 0.596213 -0.385484
    62 -0.456360 -0.710276 5.057732 -1.989927 0.545821 -0.699363
    63 2.452194 -8.899408 11.597939 -1.419551 0.110567 -1.352620
    64 -0.680515 -0.903999 6.074242 -1.453600 -0.173888 -0.003175
    65 -0.248295 -0.666843 3.386627 -1.668601 -0.122155 0.124625
    66 0.717491 -3.784309 13.044010 -1.725758 0.009829 -1.454343
    67 -1.099228 -1.407673 8.017876 -1.350904 -0.015601 0.007733
    68 -0.064053 -0.807640 3.686100 -1.839908 -0.037751 0.018152
    69 4.004906 6.172710 4.754800 -0.674083 -0.852507 -1.605885
    70 -0.158381 -1.149773 5.804405 -0.345800 0.685529 0.599784
    71 1.078559 -2.386406 5.215008 -1.052491 1.087709 -0.156300
    72 6.289963 0.932404 13.569109 -0.126801 -0.612098 -2.869612
    73 -1.327759 -0.766682 12.396324 -0.006529 -0.003514 0.059918
    74 0.000017 -54.999996 0.000000 0.000000 0.000000 -1.570796
  time 16
    0 0.000000 0.000000 -1.500000 0.000000 0.000000 0.000000
    1 -10.521344 -5.760963 66.994621 3.097005 -0.050653 -3.139334
    2 0.027716 10.875891 20.490272 -0.042735 0.536339 0.262278
    3 -0.000034 0.000012 24.761454 -1.205087 -0.139754 0.265651
    4 0.000017 0.000000 24.344809 2.042746 -0.446330 -0.289812
    5 0.002333 -1.019846 24.031336 0.389585 -0.042710 0.017213
    6 0.000034 0.000008 13.404741 -0.000001 -0.000009 0.102047
    7 10.398263 -5.760962 66.994675 3.097005 0.050653 3.139334
    8 2.554599 6.480676 19.749275 1.065812 -0.237879 0.074734
    9 -0.000004 -0.000006 24.761459 -1.575880 0.182666 0.159479
    10 -0.000007 0.000004 24.344891 1.533485 0.382102 0.007323
    11 -0.002360 -1.019903 24.031330 0.401577 -0.042491 -0.017699
    12 0.000000 -0.000002 13.404737 0.000001 0.000005 0.181201
    13 -0.061540 -5.245835 72.927078 0.000000 0.000000 0.000000
    14 -1.201838 9.914883 -19.787880 0.050195 0.010481 -0.120890
    15 0.000000 -0.005608 -1.146812 -0.134347 -0.035044 -0.090866
    16 0.030770 -0.240000 8.906021 -0.004138 0.000000 0.000000
    17 -0.312486 0.090702 0.042572 -0.034360 -0.045166 -0.194990
    18 0.030770 -0.276858 8.905140 0.056125 0.004134 -0.000049
    19 -0.016891 -0.936653 -0.055865 0.352447 -0.013371 -0.028009
    20 5.669724 4.435303 14.302868 3.082598 -1.366832 -0.006414
    21 -1.044571 -2.839317 19.743267 -0.365406 -0.904133 0.187688
    22 2.655533 -1.533369 24.792658 -0.660587 0.081735 -0.045512
    23 1.120163 -0.154394 9.796035 -0.040453 -0.001579 -0.352726
    24 2.240311 -0.308786 19.592051 -0.288912 -0.007764 -0.670726
    25 0.683151 2.877354 14.167051 -1.511326 -0.211747 1.554295
    26 0.144936 -0.145374 7.579252 -1.768042 -0.243277 0.235266
    27 0.091660 -0.906685 4.702850 -1.587437 -0.182568 0.191116
    28 0.506271 8.500866 13.617253 -1.470438 -0.303305 1.571620
    29 -0.384987 -0.460049 7.003448 -1.747417 -0.440906 0.551347
    30 0.561516 -0.596954 5.061852 -1.494372 -0.380569 0.386326
    31 -2.452171 -8.899406 11.597897 -1.564436 -0.075962 1.475269
    32 0.680496 -0.903999 6.074253 -1.628017 0.173820 -0.014245
    33 0.245514 -0.661150 3.388004 -1.484566 0.109479 -0.099287
    34 -0.717484 -3.784271 13.043911 -1.593590 -0.028646 1.464722
    35 1.099216 -1.407745 8.017889 -1.782086 0.031962 -0.017448
    36 0.068439 -0.807653 3.686054 -1.465865 0.034012 -0.009745
    37 -4.004929 6.172707 4.754754 0.109547 1.126790 2.531036
    38 0.158352 -1.149811 5.804394 -0.949128 -0.403982 0.106368
    39 -1.083523 -1.463142 5.544399 -1.197120 -0.229787 -0.018430
    40 -6.289886 0.932434 13.569063 -0.126803 0.612110 2.869610
    41 1.327774 -0.766687 12.396328 -0.004904 0.002700 -0.045107
    42 -0.096140 1.828087 23.185329 -0.016363 -0.177962 -1.452461
    43 2.325478 -0.000003 6.169296 -0.116323 0.107121 1.810163
    44 0.000000 -3.152912 0.122169 2.091266 0.000000 0.000000
    45 1.068383 -10.478592 7.066338 0.292219 -1.282324 -3.141588
    46 0.000000 0.000000 2.279457 0.547137 -0.343566 0.107833
    47 2.479414 -8.323895 6.074242 -0.011193 -0.034453 1.504571
    48 -0.000001 -5.070313 5.929688 0.000000 0.000000 0.000000
    49 -1.068383 -10.478611 7.065971 0.292219 1.282324 3.141588
    50 -0.000488 0.000015 2.279600 0.547136 0.343566 0.107835
    51 -2.479401 -8.323895 6.074234 0.005982 -0.034133 1.509010
    52 -5.790000 4.432083 14.255558 -4.521929 1.450210 -1.278081
    53 1.044540 -2.839314 19.743252 -0.616726 0.937693 -0.312952
    54 -2.655510 -1.533379 24.792648 -0.979411 -0.110991 0.316535
    55 -1.120216 -0.154385 9.795983 -0.032651 0.000162 0.284003
    56 -2.240372 -0.308788 19.592047 -0.220858 -0.130190 0.562024
    57 -0.683205 2.877342 14.167089 -1.604576 0.208954 -1.789836
    58 -0.144958 -0.145317 7.579308 -1.541391 0.304896 -0.166506
    59 -0.038551 -0.936644 4.697678 -2.189566 0.238585 -0.365176
    60 -0.506317 8.500896 13.617329 -1.722231 0.270449 -1.936308
    61 0.385056 -0.460075 7.003435 -1.471905 0.596196 -0.385484
    62 -0.456360 -0.710276 5.057732 -1.989927 0.545821 -0.699363
    63 2.452194 -8.899408 11.597939 -1.419591 0.110567 -1.352644
    64 -0.680515 -0.903999 6.074242 -1.453600 -0.173888 -0.003175
    65 -0.248295 -0.666843 3.386627 -1.668601 -0.122155 0.124625
    66 0.717491 -3.784309 13.044010 -1.725758 0.009829 -1.454343
    67 -1.099228 -1.407673 8.017876 -1.350904 -0.015601 0.007733
    68 -0.064053 -0.807640 3.686100 -1.839908 -0.037751 0.018152
    69 4.004906 6.172710 4.754800 -0.666177 -0.830858 -1.628562
    70 -0.158381 -1.149773 5.804405 -0.345800 0.685529 0.599784
    71 1.078559 -2.386406 5.215008 -1.052491 1.087709 -0.156300
    72 6.289963 0.932404 13.569109 -0.126801 -0.612098 -2.869612
    73 -1.327759 -0.766682 12.396324 -0.023799 -0.010573 0.211019
    74 0.000017 -54.999996 0.000000 0.000000 0.000000 -1.570796
  time 17
    0 0.000000 0.000000 -1.500000 0.000000 0.000000 0.000000
    1 -10.521344 -5.760963 66.994621 3.097005 -0.050653 -3.139334
    2 1.152750 12.226360 18.651460 -0.045468 0.497230 0.236370
    3 -0.000034 0.000012 24.761454 -1.163379 -0.134936 0.331737
    4 0.000017 0.000000 24.344809 1.979126 -0.408643 -0.247097
    5 0.002333 -1.019846 24.031336 0.389585 -0.042710 0.017201
    6 0.000034 0.000008 13.404741 -0.000001 -0.000009 0.130207
    7 10.398263 -5.760962 66.994675 3.097005 0.050653 3.139334
    8 3.386656 8.304124 17.253976 1.028617 -0.262753 0.057818
    9 -0.000004 -0.000006 24.761459 -1.407423 0.163191 0.169743
    10 -0.000007 0.000004 24.344891 1.369619 0.406922 -0.017058
    11 -0.002360 -1.019903 24.031330 0.430890 -0.041964 -0.018933
    12 0.000000 -0.000002 13.404737 0.000001 0.000005 0.180299
    13 -0.061540 -5.245835 72.927078 0.000000 0.000000 0.000000
    14 -2.350310 11.428823 -17.602364 0.029840 0.010808 -0.052189
    15 0.000000 -0.005608 -1.146812 -0.110073 -0.064704 -0.137308
    16 0.030770 -0.240000 8.906021 -0.004138 0.000000 0.000000
    17 -0.164044 0.211800 0.015227 -0.050374 -0.024985 -0.152381
    18 0.030770 -0.276858 8.905140 0.056125 0.004134 -0.000049
    19 -0.036423 -0.631956 -0.020707 0.228734 -0.020612 -0.020878
    20 5.669724 4.435303 14.302868 2.070798 -1.449210 1.185277
    21 -1.044571 -2.839317 19.743267 0.007466 -0.939201 0.013124
    22 2.655533 -1.533369 24.792658 -0.698646 0.085040 -0.076000
    23 1.120163 -0.154394 9.796035 -0.046050 -0.002982 -0.401914
    24 2.240311 -0.308786 19.592051 -0.315937 -0.011171 -0.765598
    25 0.683151 2.877354 14.167051 -1.511326 -0.211735 1.554295
    26 0.144936 -0.145374 7.579252 -1.768042 -0.243277 0.235278
    27 0.091660 -0.906685 4.702850 -1.587437 -0.182568 0.191116
    28 0.506271 8.500866 13.617253 -1.470438 -0.303305 1.571620
    29 -0.384987 -0.460049 7.003448 -1.747417 -0.440906 0.551347
    30 0.561516 -0.596954 5.061852 -1.494372 -0.380569 0.386326
    31 -2.452171 -8.899406 11.597897 -1.564436 -0.075962 1.475269
    32 0.680496 -0.903999 6.074253 -1.628017 0.173820 -0.014245
    33 0.245514 -0.661150 3.388004 -1.484566 0.109479 -0.099287
    34 -0.717484 -3.784271 13.043911 -1.593546 -0.028646 1.464722
    35 1.099216 -1.407745 8.017889 -1.782086 0.031962 -0.017448
    36 0.068439 -0.807653 3.686054 -1.465865 0.034012 -0.009745
    37 -4.004929 6.172707 4.754754 0.109547 1.126790 2.530940
    38 0.158352 -1.149811 5.804394 -0.965698 -0.419421 0.098027
    39 -1.083523 -1.463142 5.544399 -1.293542 -0.248794 -0.013982
    40 -6.289886 0.932434 13.569063 -0.126803 0.612110 2.869610
    41 1.327774 -0.766687 12.396328 -0.002339 0.001249 -0.020652
    42 -0.096140 1.828087 23.185329 0.041370 -0.129589 -1.521584
    43 2.325478 -0.000003 6.169296 0.017283 0.076939 1.769253
    44 0.000000 -3.152912 0.122169 2.123457 0.000000 0.000000
    45 1.068383 -10.478592 7.066338 0.292219 -1.282324 -3.141588
    46 0.000000 0.000000 2.279457 0.547137 -0.343566 0.107833
    47 2.479414 -8.323895 6.074242 -0.010731 0.006872 1.514313
    48 -0.000001 -5.070313 5.929688 0.000000 0.000000 0.000000
    49 -1.068383 -10.478611 7.065971 0.292219 1.282324 3.141588
    50 -0.000488 0.000015 2.279600 0.547136 0.343566 0.107835
    51 -2.479401 -8.323895 6.074234 0.006384 0.007590 1.518399
    52 -5.790000 4.432083 14.255558 -5.014350 1.291414 -1.672552
    53 1.044540 -2.839314 19.743252 -0.598916 0.644559 -0.188469
    54 -2.655510 -1.533379 24.792648 -0.890284 -0.105594 0.429978
    55 -1.120216 -0.154385 9.795983 -0.031045 -0.000066 0.269938
    56 -2.240372 -0.308788 19.592047 -0.228189 -0.211574 0.546128
    57 -0.683205 2.877342 14.167089 -1.604576 0.208934 -1.789836
    58 -0.144958 -0.145317 7.579308 -1.541391 0.304896 -0.166506
    59 -0.038551 -0.936644 4.697678 -2.189566 0.238585 -0.365176
    60 -0.506317 8.500896 13.617329 -1.724871 0.268841 -1.924312
    61 0.385056 -0.460075 7.003435 -1.471905 0.596196 -0.385484
    62 -0.456360 -0.710276 5.057732 -1.989927 0.545821 -0.699363
    63 2.452194 -8.899408 11.597939 -1.419591 0.110567 -1.352644
    64 -0.680515 -0.903999 6.074242 -1.453600 -0.173888 -0.003175
    65 -0.248295 -0.666843 3.386627 -1.668601 -0.122155 0.124625
    66 0.717491 -3.784309 13.044010 -1.725758 0.009829 -1.454343
    67 -1.099228 -1.407673 8.017876 -1.350904 -0.015601 0.007733
    68 -0.064053 -0.807640 3.686100 -1.839908 -0.037751 0.018152
    69 4.004906 6.172710 4.754800 -0.658949 -0.806930 -1.652056
    70 -0.158381 -1.149773 5.804405 -0.345800 0.685529 0.599784
    71 1.078559 -2.386406 5.215008 -1.052491 1.087709 -0.156300
    72 6.289963 0.932404 13.569109 -0.126801 -0.612098 -2.869612
    73 -1.327759 -0.766682 12.396324 -0.031685 -0.012838 0.277455
    74 0.000017 -54.999996 0.000000 0.000000 0.000000 -1.570796
end
