// Created by Crowbar 0.74
version 1
nodes
  0 "root" -1
  1 "g_r_hip_offset" 0
  2 "g_r_hip" 1
  3 "g_r_knee" 2
  4 "g_r_ankle" 3
  5 "g_r_ball" 4
  6 "g_r_thightwist" 2
  7 "g_l_hip_offset" 0
  8 "g_l_hip" 7
  9 "g_l_knee" 8
  10 "g_l_ankle" 9
  11 "g_l_ball" 10
  12 "g_l_thightwist" 8
  13 "g_spine01_offset" 0
  14 "g_spine01" 13
  15 "g_pelvis" 14
  16 "g_spine02_offset" 14
  17 "g_spine02" 16
  18 "g_spine03_offset" 17
  19 "g_spine03" 18
  20 "g_l_clavical" 19
  21 "g_l_shoulder" 20
  22 "g_l_elbow" 21
  23 "g_l_forarm" 22
  24 "g_l_wrist" 22
  25 "g_l_birdy1" 24
  26 "g_l_birdy2" 25
  27 "g_l_birdy3" 26
  28 "g_l_index1" 24
  29 "g_l_index2" 28
  30 "g_l_index3" 29
  31 "g_l_pinky1" 24
  32 "g_l_pinky2" 31
  33 "g_l_pinky3" 32
  34 "g_l_ring1" 24
  35 "g_l_ring2" 34
  36 "g_l_ring3" 35
  37 "g_l_thumb1" 24
  38 "g_l_thumb2" 37
  39 "g_l_thumb3" 38
  40 "g_l_palm" 24
  41 "g_l_biceptwist" 21
  42 "g_neck" 19
  43 "g_head" 42
  44 "g_jaw" 43
  45 "g_l_brow" 43
  46 "g_l_brow2" 45
  47 "g_l_eye" 43
  48 "g_topeyelid" 43
  49 "g_r_brow" 43
  50 "g_r_brow2" 49
  51 "g_r_eye" 43
  52 "g_r_clavical" 19
  53 "g_r_shoulder" 52
  54 "g_r_elbow" 53
  55 "g_r_forarm" 54
  56 "g_r_wrist" 54
  57 "g_r_birdy1" 56
  58 "g_r_birdy2" 57
  59 "g_r_birdy3" 58
  60 "g_r_index1" 56
  61 "g_r_index2" 60
  62 "g_r_index3" 61
  63 "g_r_pinky1" 56
  64 "g_r_pinky2" 63
  65 "g_r_pinky3" 64
  66 "g_r_ring1" 56
  67 "g_r_ring2" 66
  68 "g_r_ring3" 67
  69 "g_r_thumb1" 56
  70 "g_r_thumb2" 69
  71 "g_r_thumb3" 70
  72 "g_r_palm" 56
  73 "g_r_biceptwist" 53
  74 "g_throwable_attach_offset" 0
end
skeleton
  time 0
    0 0.000000 0.000000 -1.500000 0.000000 0.000000 0.000000
    1 -10.521344 -5.760963 66.994621 3.097005 -0.050653 -3.139334
    2 -7.878775 18.512179 15.108383 0.427232 0.556408 0.783018
    3 -0.000034 0.000012 24.761454 -1.041873 -0.120890 0.020528
    4 0.000017 0.000000 24.344809 1.596113 -0.449815 -0.250576
    5 0.002333 -1.019846 24.031336 0.389660 -0.042698 0.017213
    6 0.000034 0.000008 13.404741 -0.000001 -0.000009 -0.091970
    7 10.398263 -5.760962 66.994675 3.097005 0.050653 3.139334
    8 -0.328301 3.845418 14.668757 0.562398 -0.732740 0.702025
    9 -0.000004 -0.000006 24.761459 -1.359850 0.157690 -0.710294
    10 -0.000007 0.000004 24.344891 1.496698 0.214051 0.013566
    11 -0.002360 -1.019903 24.031330 0.389594 -0.042419 -0.017015
    12 0.000000 -0.000002 13.404737 0.000001 0.000005 -0.344864
    13 -0.061540 -5.245835 72.927078 0.000000 0.000000 0.000000
    14 3.372521 10.776665 -14.583196 0.272593 -0.064428 -0.805860
    15 0.000000 -0.005608 -1.146812 -0.042164 0.060133 0.011286
    16 0.030770 -0.240000 8.906021 -0.004138 0.000000 0.000000
    17 0.785203 -2.159366 -0.351972 0.360718 0.009959 0.260692
    18 0.030770 -0.276858 8.905140 0.056125 0.004134 -0.000049
    19 0.545626 -0.354604 0.018356 0.237742 0.209541 0.044869
    20 5.669724 4.435303 14.302868 2.154253 -1.260247 0.752971
    21 -1.044571 -2.839317 19.743267 -0.117771 -0.442253 0.075899
    22 2.655533 -1.533369 24.792658 -0.936719 0.108711 -0.495564
    23 1.120163 -0.154394 9.796035 0.005244 -0.000836 0.046015
    24 2.240311 -0.308786 19.592051 -0.863399 -0.526465 0.164085
    25 0.683151 2.877354 14.167051 -1.511326 -0.211759 1.554295
    26 0.144936 -0.145374 7.579252 -1.768042 -0.243277 0.235266
    27 0.091660 -0.906685 4.702850 -1.587439 -0.182555 0.191106
    28 0.506271 8.500866 13.617253 -1.470526 -0.303331 1.571638
    29 -0.384987 -0.460049 7.003448 -1.747475 -0.440890 0.551344
    30 0.561516 -0.596954 5.061852 -1.494372 -0.380557 0.386314
    31 -2.452171 -8.899406 11.597897 -1.564465 -0.075967 1.475308
    32 0.680496 -0.903999 6.074253 -1.628053 0.173825 -0.014264
    33 0.245514 -0.661150 3.388004 -1.484370 0.109511 -0.099205
    34 -0.717484 -3.784271 13.043911 -1.593546 -0.028658 1.464722
    35 1.099216 -1.407745 8.017889 -1.782123 0.031969 -0.017454
    36 0.068439 -0.807653 3.686054 -1.465865 0.034013 -0.009744
    37 -4.004929 6.172707 4.754754 0.109467 1.126800 2.530891
    38 0.158352 -1.149811 5.804394 -0.869542 -0.330219 0.145630
    39 -1.083523 -1.463142 5.544399 -0.797671 -0.152792 -0.023938
    40 -6.289886 0.932434 13.569063 -0.126803 0.612110 2.869610
    41 1.327774 -0.766687 12.396328 -0.033211 0.013198 -0.290412
    42 -0.096140 1.828087 23.185329 -0.119947 -0.070349 -1.476338
    43 2.325478 -0.000003 6.169296 -0.240474 -0.082639 1.741793
    44 0.000000 -3.152912 0.122169 1.961017 0.000000 0.000000
    45 1.068383 -10.478592 7.066338 0.292219 -1.282324 -3.141588
    46 0.000000 0.000000 2.279457 0.547137 -0.343566 0.107833
    47 2.479414 -8.323895 6.074242 0.000769 0.184099 1.794820
    48 0.000000 -5.074219 5.929688 0.000000 0.000000 0.000000
    49 -1.068383 -10.478611 7.065971 0.292219 1.282324 3.141588
    50 -0.000488 0.000015 2.279600 0.547136 0.343566 0.107835
    51 -2.479401 -8.323895 6.074234 0.017711 0.191586 1.800072
    52 -5.790000 4.432083 14.255558 -3.116560 1.388278 -0.606894
    53 1.044540 -2.839314 19.743252 -0.479421 0.947699 -0.251228
    54 -2.655510 -1.533379 24.792648 -0.626276 -0.087409 0.220206
    55 -1.120216 -0.154385 9.795983 -0.004727 -0.000570 0.041124
    56 -2.240372 -0.308788 19.592047 -0.124254 0.298463 0.075026
    57 -0.683205 2.877342 14.167089 -1.604576 0.208954 -1.789823
    58 -0.144958 -0.145317 7.579308 -1.541391 0.304896 -0.166506
    59 -0.038551 -0.936644 4.697678 -2.189615 0.238585 -0.365176
    60 -0.506317 8.500896 13.617329 -1.710280 0.278186 -1.993619
    61 0.385056 -0.460075 7.003435 -1.471905 0.596196 -0.385484
    62 -0.456360 -0.710276 5.057732 -1.989932 0.545832 -0.699272
    63 2.452194 -8.899408 11.597939 -1.419591 0.110567 -1.352620
    64 -0.680515 -0.903999 6.074242 -1.453600 -0.173887 -0.003174
    65 -0.248295 -0.666843 3.386627 -1.668601 -0.122156 0.124627
    66 0.717491 -3.784309 13.044010 -1.725758 0.009831 -1.454341
    67 -1.099228 -1.407673 8.017876 -1.350904 -0.015601 0.007733
    68 -0.064053 -0.807640 3.686100 -1.839904 -0.037754 0.018152
    69 4.004906 6.172710 4.754800 -0.720270 -0.940273 -1.497138
    70 -0.158381 -1.149773 5.804405 -0.345802 0.685528 0.599784
    71 1.078559 -2.386406 5.215008 -1.052491 1.087709 -0.156300
    72 6.289963 0.932404 13.569109 -0.126801 -0.612098 -2.869612
    73 -1.327759 -0.766682 12.396324 -0.014810 -0.007289 0.133572
    74 0.000017 -54.999996 0.000000 0.000000 0.000000 -1.570796
  time 1
    0 0.000000 0.000000 -1.500000 0.000000 0.000000 0.000000
    1 -10.521344 -5.760963 66.994621 3.097005 -0.050653 -3.139334
    2 -7.878775 18.512179 15.108383 0.427232 0.556408 0.783018
    3 -0.000034 0.000012 24.761454 -1.041873 -0.120890 0.020528
    4 0.000017 0.000000 24.344809 1.596113 -0.449815 -0.250576
    5 0.002333 -1.019846 24.031336 0.389660 -0.042698 0.017213
    6 0.000034 0.000008 13.404741 -0.000001 -0.000009 -0.091970
    7 10.398263 -5.760962 66.994675 3.097005 0.050653 3.139334
    8 -0.328301 3.845418 14.668757 0.562398 -0.732740 0.702025
    9 -0.000004 -0.000006 24.761459 -1.359850 0.157690 -0.710294
    10 -0.000007 0.000004 24.344891 1.496698 0.214051 0.013566
    11 -0.002360 -1.019903 24.031330 0.389594 -0.042419 -0.017015
    12 0.000000 -0.000002 13.404737 0.000001 0.000005 -0.344864
    13 -0.061540 -5.245835 72.927078 0.000000 0.000000 0.000000
    14 3.372521 10.776665 -14.583196 0.272593 -0.064428 -0.805860
    15 0.000000 -0.005608 -1.146812 -0.042164 0.060133 0.011286
    16 0.030770 -0.240000 8.906021 -0.004138 0.000000 0.000000
    17 0.785203 -2.159366 -0.351972 0.360718 0.009959 0.260692
    18 0.030770 -0.276858 8.905140 0.056125 0.004134 -0.000049
    19 0.545626 -0.354604 0.018356 0.237742 0.209541 0.044869
    20 5.669724 4.435303 14.302868 2.154253 -1.260247 0.752971
    21 -1.044571 -2.839317 19.743267 -0.117771 -0.442253 0.075899
    22 2.655533 -1.533369 24.792658 -0.936719 0.108711 -0.495564
    23 1.120163 -0.154394 9.796035 0.005244 -0.000836 0.046015
    24 2.240311 -0.308786 19.592051 -0.863399 -0.526465 0.164085
    25 0.683151 2.877354 14.167051 -1.511326 -0.211759 1.554295
    26 0.144936 -0.145374 7.579252 -1.768042 -0.243277 0.235266
    27 0.091660 -0.906685 4.702850 -1.587439 -0.182555 0.191106
    28 0.506271 8.500866 13.617253 -1.470526 -0.303331 1.571638
    29 -0.384987 -0.460049 7.003448 -1.747475 -0.440890 0.551344
    30 0.561516 -0.596954 5.061852 -1.494372 -0.380557 0.386314
    31 -2.452171 -8.899406 11.597897 -1.564465 -0.075967 1.475308
    32 0.680496 -0.903999 6.074253 -1.628053 0.173825 -0.014264
    33 0.245514 -0.661150 3.388004 -1.484370 0.109511 -0.099205
    34 -0.717484 -3.784271 13.043911 -1.593546 -0.028658 1.464722
    35 1.099216 -1.407745 8.017889 -1.782123 0.031969 -0.017454
    36 0.068439 -0.807653 3.686054 -1.465865 0.034013 -0.009744
    37 -4.004929 6.172707 4.754754 0.109467 1.126800 2.530891
    38 0.158352 -1.149811 5.804394 -0.869542 -0.330219 0.145630
    39 -1.083523 -1.463142 5.544399 -0.797671 -0.152792 -0.023938
    40 -6.289886 0.932434 13.569063 -0.126803 0.612110 2.869610
    41 1.327774 -0.766687 12.396328 -0.033211 0.013198 -0.290412
    42 -0.096140 1.828087 23.185329 -0.119947 -0.070349 -1.476338
    43 2.325478 -0.000003 6.169296 -0.240474 -0.082639 1.741793
    44 0.000000 -3.152912 0.122169 1.961017 0.000000 0.000000
    45 1.068383 -10.478592 7.066338 0.292219 -1.282324 -3.141588
    46 0.000000 0.000000 2.279457 0.547137 -0.343566 0.107833
    47 2.479414 -8.323895 6.074242 0.000769 0.184099 1.794820
    48 0.000000 -5.074219 5.929688 0.000000 0.000000 0.000000
    49 -1.068383 -10.478611 7.065971 0.292219 1.282324 3.141588
    50 -0.000488 0.000015 2.279600 0.547136 0.343566 0.107835
    51 -2.479401 -8.323895 6.074234 0.017711 0.191586 1.800072
    52 -5.790000 4.432083 14.255558 -3.116560 1.388278 -0.606894
    53 1.044540 -2.839314 19.743252 -0.479421 0.947699 -0.251228
    54 -2.655510 -1.533379 24.792648 -0.626276 -0.087409 0.220206
    55 -1.120216 -0.154385 9.795983 -0.004727 -0.000570 0.041124
    56 -2.240372 -0.308788 19.592047 -0.124254 0.298463 0.075026
    57 -0.683205 2.877342 14.167089 -1.604576 0.208954 -1.789823
    58 -0.144958 -0.145317 7.579308 -1.541391 0.304896 -0.166506
    59 -0.038551 -0.936644 4.697678 -2.189615 0.238585 -0.365176
    60 -0.506317 8.500896 13.617329 -1.710280 0.278186 -1.993619
    61 0.385056 -0.460075 7.003435 -1.471905 0.596196 -0.385484
    62 -0.456360 -0.710276 5.057732 -1.989932 0.545832 -0.699272
    63 2.452194 -8.899408 11.597939 -1.419591 0.110567 -1.352620
    64 -0.680515 -0.903999 6.074242 -1.453600 -0.173887 -0.003174
    65 -0.248295 -0.666843 3.386627 -1.668601 -0.122156 0.124627
    66 0.717491 -3.784309 13.044010 -1.725758 0.009831 -1.454341
    67 -1.099228 -1.407673 8.017876 -1.350904 -0.015601 0.007733
    68 -0.064053 -0.807640 3.686100 -1.839904 -0.037754 0.018152
    69 4.004906 6.172710 4.754800 -0.720270 -0.940273 -1.497138
    70 -0.158381 -1.149773 5.804405 -0.345802 0.685528 0.599784
    71 1.078559 -2.386406 5.215008 -1.052491 1.087709 -0.156300
    72 6.289963 0.932404 13.569109 -0.126801 -0.612098 -2.869612
    73 -1.327759 -0.766682 12.396324 -0.014810 -0.007289 0.133572
    74 0.000017 -54.999996 0.000000 0.000000 0.000000 -1.570796
  time 2
    0 0.000000 0.000000 -1.500000 0.000000 0.000000 0.000000
    1 -10.521344 -5.760963 66.994621 3.097005 -0.050653 -3.139334
    2 -7.128752 26.001144 19.369045 0.886609 0.202457 1.115018
    3 -0.000034 0.000012 24.761454 -1.499766 -0.173838 -0.302203
    4 0.000017 0.000000 24.344809 1.678720 -0.313939 -0.218901
    5 0.002333 -1.019846 24.031336 0.389660 -0.042710 0.017201
    6 0.000034 0.000008 13.404741 -0.000001 -0.000009 -0.348676
    7 10.398263 -5.760962 66.994675 3.097005 0.050653 3.139334
    8 5.312496 8.079315 16.264849 0.226959 -0.961514 1.095051
    9 -0.000004 -0.000006 24.761459 -1.282689 0.148749 -0.898382
    10 -0.000007 0.000004 24.344891 1.388787 0.387546 0.048015
    11 -0.002360 -1.019903 24.031330 0.389594 -0.040981 -0.015961
    12 0.000000 -0.000002 13.404737 0.000001 0.000005 -0.424430
    13 -0.061540 -5.245835 72.927078 0.000000 0.000000 0.000000
    14 -0.401032 17.438002 -17.467177 0.263727 -0.144464 -1.062529
    15 0.000000 -0.005608 -1.146812 -0.006247 0.029061 0.002726
    16 0.030770 -0.240000 8.906021 -0.004138 0.000000 0.000000
    17 1.031305 -1.682789 -0.289470 0.309918 0.031709 0.398583
    18 0.030770 -0.276858 8.905140 0.056125 0.004134 -0.000049
    19 0.197959 -0.210068 0.030075 0.162856 0.083459 0.049735
    20 5.669724 4.435303 14.302868 2.439648 -1.314896 0.496137
    21 -1.044571 -2.839317 19.743267 -0.168110 -0.576888 0.084557
    22 2.655533 -1.533369 24.792658 -1.021169 0.115128 -0.403289
    23 1.120163 -0.154394 9.796035 0.006395 -0.001052 0.056156
    24 2.240311 -0.308786 19.592051 -0.656643 -0.410477 0.166815
    25 0.683151 2.877354 14.167051 -1.511326 -0.211747 1.554295
    26 0.144936 -0.145374 7.579252 -1.768042 -0.243277 0.235266
    27 0.091660 -0.906685 4.702850 -1.587439 -0.182555 0.191106
    28 0.506271 8.500866 13.617253 -1.470526 -0.303331 1.571638
    29 -0.384987 -0.460049 7.003448 -1.747475 -0.440890 0.551344
    30 0.561516 -0.596954 5.061852 -1.494372 -0.380557 0.386326
    31 -2.452171 -8.899406 11.597897 -1.564465 -0.075967 1.475308
    32 0.680496 -0.903999 6.074253 -1.628053 0.173825 -0.014264
    33 0.245514 -0.661150 3.388004 -1.484370 0.109511 -0.099205
    34 -0.717484 -3.784271 13.043911 -1.593590 -0.028646 1.464722
    35 1.099216 -1.407745 8.017889 -1.782123 0.031969 -0.017454
    36 0.068439 -0.807653 3.686054 -1.465865 0.034013 -0.009744
    37 -4.004929 6.172707 4.754754 0.109467 1.126800 2.530891
    38 0.158352 -1.149811 5.804394 -0.869499 -0.330219 0.145630
    39 -1.083523 -1.463142 5.544399 -0.797671 -0.152792 -0.023938
    40 -6.289886 0.932434 13.569063 -0.126803 0.612110 2.869610
    41 1.327774 -0.766687 12.396328 -0.027890 0.011808 -0.245720
    42 -0.096140 1.828087 23.185329 -0.058841 -0.087557 -1.499786
    43 2.325478 -0.000003 6.169296 -0.758755 -0.019077 3.011294
    44 0.000000 -3.152912 0.122169 1.961017 0.000000 0.000000
    45 1.068383 -10.478592 7.066338 0.292219 -1.282324 -3.141588
    46 0.000000 0.000000 2.279457 0.547137 -0.343566 0.107833
    47 2.479414 -8.323895 6.074242 -0.042022 -0.387403 0.579387
    48 0.000000 -5.074219 5.929688 0.000000 0.000000 0.000000
    49 -1.068383 -10.478611 7.065971 0.292219 1.282324 3.141588
    50 -0.000488 0.000015 2.279600 0.547136 0.343566 0.107835
    51 -2.479401 -8.323895 6.074234 -0.031795 -0.372072 0.582749
    52 -5.790000 4.432083 14.255558 -3.501812 1.425911 -1.138382
    53 1.044540 -2.839314 19.743252 -0.007233 0.918487 -0.021993
    54 -2.655510 -1.533379 24.792648 -0.594420 -0.075903 -0.006606
    55 -1.120216 -0.154385 9.795983 -0.040537 0.001600 0.353264
    56 -2.240372 -0.308788 19.592047 -0.083092 0.268117 0.705253
    57 -0.683205 2.877342 14.167089 -1.604576 0.208954 -1.789836
    58 -0.144958 -0.145317 7.579308 -1.541391 0.304896 -0.166506
    59 -0.038551 -0.936644 4.697678 -2.189566 0.238585 -0.365164
    60 -0.506317 8.500896 13.617329 -1.710280 0.278186 -1.993619
    61 0.385056 -0.460075 7.003435 -1.471905 0.596196 -0.385484
    62 -0.456360 -0.710276 5.057732 -1.989932 0.545832 -0.699272
    63 2.452194 -8.899408 11.597939 -1.419591 0.110567 -1.352644
    64 -0.680515 -0.903999 6.074242 -1.453600 -0.173887 -0.003174
    65 -0.248295 -0.666843 3.386627 -1.668601 -0.122156 0.124627
    66 0.717491 -3.784309 13.044010 -1.725758 0.009831 -1.454341
    67 -1.099228 -1.407673 8.017876 -1.350904 -0.015601 0.007733
    68 -0.064053 -0.807640 3.686100 -1.839904 -0.037754 0.018152
    69 4.004906 6.172710 4.754800 -0.720270 -0.940273 -1.497138
    70 -0.158381 -1.149773 5.804405 -0.345802 0.685528 0.599784
    71 1.078559 -2.386406 5.215008 -1.052491 1.087709 -0.156300
    72 6.289963 0.932404 13.569109 -0.126801 -0.612098 -2.869612
    73 -1.327759 -0.766682 12.396324 0.002352 0.001388 -0.022109
    74 0.000017 -54.999996 0.000000 0.000000 0.000000 -1.570796
  time 3
    0 0.000000 0.000000 -1.500000 0.000000 0.000000 0.000000
    1 -10.521344 -5.760963 66.994621 3.097005 -0.050653 -3.139334
    2 -5.394325 31.918654 23.024245 1.062394 -0.234358 1.211660
    3 -0.000034 0.000012 24.761454 -1.791723 -0.207562 -0.560397
    4 0.000017 0.000000 24.344809 1.701221 -0.204092 -0.106980
    5 0.002333 -1.019846 24.031336 0.389585 -0.042698 0.017213
    6 0.000034 0.000008 13.404741 -0.000001 -0.000009 -0.533939
    7 10.398263 -5.760962 66.994675 3.097005 0.050653 3.139334
    8 10.601720 12.962659 17.388857 -0.121703 -1.025932 1.402012
    9 -0.000004 -0.000006 24.761459 -1.081564 0.125475 -0.970839
    10 -0.000007 0.000004 24.344891 1.190199 0.536932 0.030927
    11 -0.002360 -1.019903 24.031330 0.389548 -0.037470 -0.013312
    12 0.000000 -0.000002 13.404737 0.000001 0.000005 -0.440747
    13 -0.061540 -5.245835 72.927078 0.000000 0.000000 0.000000
    14 -4.225368 23.633511 -19.765349 0.244717 -0.224620 -1.186539
    15 0.000000 -0.005608 -1.146812 0.028967 -0.003925 -0.034042
    16 0.030770 -0.240000 8.906021 -0.004138 0.000000 0.000000
    17 1.195372 -1.096834 -0.207436 0.247712 0.076401 0.512354
    18 0.030770 -0.276858 8.905140 0.056125 0.004134 -0.000049
    19 -0.247367 -0.006937 0.018356 0.060947 -0.069551 0.070193
    20 5.669724 4.435303 14.302868 2.913582 -1.356261 0.047157
    21 -1.044571 -2.839317 19.743267 -0.200544 -0.731039 0.100801
    22 2.655533 -1.533369 24.792658 -1.123064 0.122583 -0.293708
    23 1.120163 -0.154394 9.796035 0.007030 -0.001184 0.061744
    24 2.240311 -0.308786 19.592051 -0.403409 -0.280813 0.159021
    25 0.683151 2.877354 14.167051 -1.511326 -0.211747 1.554295
    26 0.144936 -0.145374 7.579252 -1.768042 -0.243277 0.235266
    27 0.091660 -0.906685 4.702850 -1.587439 -0.182555 0.191106
    28 0.506271 8.500866 13.617253 -1.470526 -0.303331 1.571638
    29 -0.384987 -0.460049 7.003448 -1.747475 -0.440890 0.551344
    30 0.561516 -0.596954 5.061852 -1.494372 -0.380557 0.386326
    31 -2.452171 -8.899406 11.597897 -1.564465 -0.075967 1.475308
    32 0.680496 -0.903999 6.074253 -1.628053 0.173825 -0.014264
    33 0.245514 -0.661150 3.388004 -1.484370 0.109499 -0.099205
    34 -0.717484 -3.784271 13.043911 -1.593546 -0.028634 1.464722
    35 1.099216 -1.407745 8.017889 -1.782123 0.031969 -0.017454
    36 0.068439 -0.807653 3.686054 -1.465865 0.034013 -0.009744
    37 -4.004929 6.172707 4.754754 0.109467 1.126800 2.530891
    38 0.158352 -1.149811 5.804394 -0.869542 -0.330219 0.145630
    39 -1.083523 -1.463142 5.544399 -0.797671 -0.152792 -0.023938
    40 -6.289886 0.932434 13.569063 -0.126803 0.612110 2.869610
    41 1.327774 -0.766687 12.396328 -0.021131 0.009675 -0.188323
    42 -0.096140 1.828087 23.185329 0.015329 -0.104574 -1.523724
    43 2.325478 -0.000003 6.169296 -0.050332 0.338941 2.125354
    44 0.000000 -3.152912 0.122169 1.961017 0.000000 0.000000
    45 1.068383 -10.478592 7.066338 0.292219 -1.282324 -3.141588
    46 0.000000 0.000000 2.279457 0.547137 -0.343566 0.107833
    47 2.479414 -8.323895 6.074242 -0.005511 -0.293108 1.651749
    48 0.000000 -5.074219 5.929688 0.000000 0.000000 0.000000
    49 -1.068383 -10.478611 7.065971 0.292219 1.282324 3.141588
    50 -0.000488 0.000015 2.279600 0.547136 0.343566 0.107835
    51 -2.479401 -8.323895 6.074234 0.012590 -0.289666 1.656074
    52 -5.790000 4.432083 14.255558 -4.059799 1.388527 -1.779003
    53 1.044540 -2.839314 19.743252 0.332438 0.685684 0.078322
    54 -2.655510 -1.533379 24.792648 -0.575397 -0.065781 -0.149433
    55 -1.120216 -0.154385 9.795983 -0.072644 0.013896 0.652047
    56 -2.240372 -0.308788 19.592047 -0.106613 0.273117 1.290371
    57 -0.683205 2.877342 14.167089 -1.604576 0.208954 -1.789836
    58 -0.144958 -0.145317 7.579308 -1.541391 0.304896 -0.166506
    59 -0.038551 -0.936644 4.697678 -2.189566 0.238585 -0.365176
    60 -0.506317 8.500896 13.617329 -1.710280 0.278186 -1.993619
    61 0.385056 -0.460075 7.003435 -1.471905 0.596196 -0.385484
    62 -0.456360 -0.710276 5.057732 -1.989932 0.545854 -0.699289
    63 2.452194 -8.899408 11.597939 -1.419551 0.110567 -1.352644
    64 -0.680515 -0.903999 6.074242 -1.453600 -0.173887 -0.003174
    65 -0.248295 -0.666843 3.386627 -1.668601 -0.122156 0.124627
    66 0.717491 -3.784309 13.044010 -1.725758 0.009831 -1.454341
    67 -1.099228 -1.407673 8.017876 -1.350904 -0.015601 0.007733
    68 -0.064053 -0.807640 3.686100 -1.839904 -0.037754 0.018152
    69 4.004906 6.172710 4.754800 -0.720270 -0.940273 -1.497138
    70 -0.158381 -1.149773 5.804405 -0.345802 0.685528 0.599784
    71 1.078559 -2.386406 5.215008 -1.052491 1.087709 -0.156300
    72 6.289963 0.932404 13.569109 -0.126801 -0.612098 -2.869612
    73 -1.327759 -0.766682 12.396324 0.010825 0.007020 -0.104414
    74 0.000017 -54.999996 0.000000 0.000000 0.000000 -1.570796
  time 4
    0 0.000000 0.000000 -1.500000 0.000000 0.000000 0.000000
    1 -10.521344 -5.760963 66.994621 3.097005 -0.050653 -3.139334
    2 -2.843465 33.220015 24.549114 1.077492 -0.187984 1.107591
    3 -0.000034 0.000012 24.761454 -1.914042 -0.221680 -0.395081
    4 0.000017 0.000000 24.344809 1.780808 -0.153797 -0.027988
    5 0.002333 -1.019846 24.031336 0.389585 -0.042698 0.017201
    6 0.000034 0.000008 13.404741 -0.000001 -0.000009 -0.421448
    7 10.398263 -5.760962 66.994675 3.097005 0.050653 3.139334
    8 10.914229 15.560448 17.973342 0.040386 -1.070634 1.224519
    9 -0.000004 -0.000006 24.761459 -1.037181 0.120346 -0.893609
    10 -0.000007 0.000004 24.344891 1.078417 0.546331 -0.023154
    11 -0.002360 -1.019903 24.031330 0.389478 -0.030902 -0.008422
    12 0.000000 -0.000002 13.404737 0.000001 0.000005 -0.415821
    13 -0.061540 -5.245835 72.927078 0.000000 0.000000 0.000000
    14 -5.920732 25.589988 -20.711655 0.211912 -0.263692 -0.970347
    15 0.000000 -0.005608 -1.146812 0.052476 -0.024598 -0.113231
    16 0.030770 -0.240000 8.906021 -0.004138 0.000000 0.000000
    17 1.269593 -0.573380 -0.141028 0.193756 0.122866 0.595456
    18 0.030770 -0.276858 8.905140 0.056125 0.004134 -0.000049
    19 -0.645816 0.161037 -0.020707 -0.033634 -0.200735 0.106734
    20 5.669724 4.435303 14.302868 3.379095 -1.347417 -0.395210
    21 -1.044571 -2.839317 19.743267 -0.222461 -0.862021 0.119385
    22 2.655533 -1.533369 24.792658 -1.208512 0.128078 -0.185420
    23 1.120163 -0.154394 9.796035 0.007665 -0.001316 0.067332
    24 2.240311 -0.308786 19.592051 -0.184903 -0.167541 0.151979
    25 0.683151 2.877354 14.167051 -1.511326 -0.211747 1.554295
    26 0.144936 -0.145374 7.579252 -1.768042 -0.243277 0.235266
    27 0.091660 -0.906685 4.702850 -1.587439 -0.182555 0.191106
    28 0.506271 8.500866 13.617253 -1.470526 -0.303331 1.571638
    29 -0.384987 -0.460049 7.003448 -1.747475 -0.440890 0.551344
    30 0.561516 -0.596954 5.061852 -1.494407 -0.380557 0.386326
    31 -2.452171 -8.899406 11.597897 -1.564465 -0.075967 1.475308
    32 0.680496 -0.903999 6.074253 -1.628053 0.173825 -0.014264
    33 0.245514 -0.661150 3.388004 -1.484423 0.109499 -0.099205
    34 -0.717484 -3.784271 13.043911 -1.593590 -0.028646 1.464722
    35 1.099216 -1.407745 8.017889 -1.782123 0.031969 -0.017454
    36 0.068439 -0.807653 3.686054 -1.465865 0.034013 -0.009744
    37 -4.004929 6.172707 4.754754 0.109467 1.126800 2.530891
    38 0.158352 -1.149811 5.804394 -0.869542 -0.330219 0.145630
    39 -1.083523 -1.463142 5.544399 -0.797671 -0.152792 -0.023938
    40 -6.289886 0.932434 13.569063 -0.126803 0.612110 2.869610
    41 1.327774 -0.766687 12.396328 -0.014252 0.007050 -0.128616
    42 -0.096140 1.828087 23.185329 0.080013 -0.116014 -1.548457
    43 2.325478 -0.000003 6.169296 0.132218 0.390812 1.746223
    44 0.000000 -3.152912 0.122169 1.961017 0.000000 0.000000
    45 1.068383 -10.478592 7.066338 0.292219 -1.282324 -3.141588
    46 0.000000 0.000000 2.279457 0.547137 -0.343566 0.107833
    47 2.479414 -8.323895 6.074242 -0.000128 -0.187636 1.773426
    48 0.000000 -5.074219 5.929688 0.000000 0.000000 0.000000
    49 -1.068383 -10.478611 7.065971 0.292219 1.282324 3.141588
    50 -0.000488 0.000015 2.279600 0.547136 0.343566 0.107835
    51 -2.479401 -8.323895 6.074234 0.017028 -0.183351 1.777078
    52 -5.790000 4.432083 14.255558 -4.327722 1.297229 -1.946296
    53 1.044540 -2.839314 19.743252 0.412527 0.514442 0.048521
    54 -2.655510 -1.533379 24.792648 -0.571371 -0.063827 -0.173667
    55 -1.120216 -0.154385 9.795983 -0.082831 0.020392 0.756565
    56 -2.240372 -0.308788 19.592047 -0.167554 0.285344 1.478279
    57 -0.683205 2.877342 14.167089 -1.604576 0.208954 -1.789836
    58 -0.144958 -0.145317 7.579308 -1.541391 0.304896 -0.166506
    59 -0.038551 -0.936644 4.697678 -2.189615 0.238585 -0.365164
    60 -0.506317 8.500896 13.617329 -1.710280 0.278186 -1.993619
    61 0.385056 -0.460075 7.003435 -1.471905 0.596213 -0.385484
    62 -0.456360 -0.710276 5.057732 -1.989932 0.545854 -0.699272
    63 2.452194 -8.899408 11.597939 -1.419591 0.110567 -1.352620
    64 -0.680515 -0.903999 6.074242 -1.453600 -0.173887 -0.003174
    65 -0.248295 -0.666843 3.386627 -1.668601 -0.122156 0.124627
    66 0.717491 -3.784309 13.044010 -1.725758 0.009831 -1.454341
    67 -1.099228 -1.407673 8.017876 -1.350904 -0.015601 0.007733
    68 -0.064053 -0.807640 3.686100 -1.839904 -0.037754 0.018152
    69 4.004906 6.172710 4.754800 -0.720270 -0.940273 -1.497138
    70 -0.158381 -1.149773 5.804405 -0.345802 0.685528 0.599784
    71 1.078559 -2.386406 5.215008 -1.052491 1.087709 -0.156300
    72 6.289963 0.932404 13.569109 -0.126801 -0.612098 -2.869612
    73 -1.327759 -0.766682 12.396324 0.009770 0.006265 -0.094051
    74 0.000017 -54.999996 0.000000 0.000000 0.000000 -1.570796
  time 5
    0 0.000000 0.000000 -1.500000 0.000000 0.000000 0.000000
    1 -10.521344 -5.760963 66.994621 3.097005 -0.050653 -3.139334
    2 -8.984278 6.235188 18.045998 0.009324 0.709305 0.509083
    3 -0.000034 0.000012 24.761454 -0.909431 -0.105550 0.090726
    4 0.000017 0.000000 24.344809 1.741785 -0.491531 -0.245066
    5 0.002333 -1.019846 24.031336 0.389585 -0.042710 0.017201
    6 0.000034 0.000008 13.404741 -0.000001 -0.000009 -0.037106
    7 10.398263 -5.760962 66.994675 3.097005 0.050653 3.139334
    8 -3.355738 -5.683972 16.399730 0.565810 -0.495588 0.543593
    9 -0.000004 -0.000006 24.761459 -1.573185 0.182342 -0.713488
    10 -0.000007 0.000004 24.344891 1.816104 0.062043 -0.098421
    11 -0.002360 -1.019903 24.031330 0.389548 -0.000881 0.013977
    12 0.000000 -0.000002 13.404737 0.000001 0.000005 -0.377369
    13 -0.061540 -5.245835 72.927078 0.000000 0.000000 0.000000
    14 5.396020 0.353768 -17.354522 0.128349 -0.140731 -0.107739
    15 0.000000 -0.005608 -1.146812 0.001982 -0.024817 -0.504392
    16 0.030770 -0.240000 8.906021 -0.004138 0.000000 0.000000
    17 1.285219 -0.319466 -0.109777 0.167325 0.143984 0.640980
    18 0.030770 -0.276858 8.905140 0.056125 0.004134 -0.000049
    19 -0.833322 0.223539 -0.048052 -0.077457 -0.261832 0.131026
    20 5.669724 4.435303 14.302868 3.606108 -1.328849 -0.591382
    21 -1.044571 -2.839317 19.743267 -0.250296 -0.909926 0.136447
    22 2.655533 -1.533369 24.792658 -1.239714 0.128347 -0.103739
    23 1.120163 -0.154394 9.796035 0.007209 -0.001196 0.062675
    24 2.240311 -0.308786 19.592051 -0.068752 -0.100269 0.132039
    25 0.683151 2.877354 14.167051 -1.511326 -0.211747 1.554295
    26 0.144936 -0.145374 7.579252 -1.768042 -0.243277 0.235266
    27 0.091660 -0.906685 4.702850 -1.587439 -0.182555 0.191106
    28 0.506271 8.500866 13.617253 -1.470526 -0.303331 1.571638
    29 -0.384987 -0.460049 7.003448 -1.747475 -0.440890 0.551344
    30 0.561516 -0.596954 5.061852 -1.494372 -0.380557 0.386326
    31 -2.452171 -8.899406 11.597897 -1.564465 -0.075967 1.475308
    32 0.680496 -0.903999 6.074253 -1.628053 0.173825 -0.014264
    33 0.245514 -0.661150 3.388004 -1.484370 0.109499 -0.099205
    34 -0.717484 -3.784271 13.043911 -1.593546 -0.028646 1.464722
    35 1.099216 -1.407745 8.017889 -1.782123 0.031969 -0.017454
    36 0.068439 -0.807653 3.686054 -1.465865 0.034013 -0.009744
    37 -4.004929 6.172707 4.754754 0.109467 1.126800 2.530891
    38 0.158352 -1.149811 5.804394 -0.869542 -0.330219 0.145630
    39 -1.083523 -1.463142 5.544399 -0.797671 -0.152792 -0.023938
    40 -6.289886 0.932434 13.569063 -0.126803 0.612110 2.869610
    41 1.327774 -0.766687 12.396328 -0.009542 0.005013 -0.087791
    42 -0.096140 1.828087 23.185329 0.110797 -0.117862 -1.576675
    43 2.325478 -0.000003 6.169296 -0.024212 0.056263 1.026519
    44 0.000000 -3.152912 0.122169 1.961017 0.000000 0.000000
    45 1.068383 -10.478592 7.066338 0.292219 -1.282324 -3.141588
    46 0.000000 0.000000 2.279457 0.547137 -0.343566 0.107833
    47 2.479414 -8.323895 6.074242 -0.014102 -0.143822 1.435901
    48 0.000000 -5.074219 5.929688 0.000000 0.000000 0.000000
    49 -1.068383 -10.478611 7.065971 0.292219 1.282324 3.141588
    50 -0.000488 0.000015 2.279600 0.547136 0.343566 0.107835
    51 -2.479401 -8.323895 6.074234 0.003251 -0.135108 1.441466
    52 -5.790000 4.432083 14.255558 -5.240191 0.973367 -1.404173
    53 1.044540 -2.839314 19.743252 -0.101904 0.434778 -0.074056
    54 -2.655510 -1.533379 24.792648 -0.642129 -0.090088 0.294194
    55 -1.120216 -0.154385 9.795983 -0.013739 -0.001073 0.119445
    56 -2.240372 -0.308788 19.592047 -0.103482 -0.063459 0.230972
    57 -0.683205 2.877342 14.167089 -1.604576 0.208954 -1.789836
    58 -0.144958 -0.145317 7.579308 -1.541391 0.304896 -0.166506
    59 -0.038551 -0.936644 4.697678 -2.189615 0.238585 -0.365176
    60 -0.506317 8.500896 13.617329 -1.710280 0.278186 -1.993619
    61 0.385056 -0.460075 7.003435 -1.471905 0.596196 -0.385484
    62 -0.456360 -0.710276 5.057732 -1.989932 0.545832 -0.699272
    63 2.452194 -8.899408 11.597939 -1.419591 0.110567 -1.352644
    64 -0.680515 -0.903999 6.074242 -1.453600 -0.173887 -0.003174
    65 -0.248295 -0.666843 3.386627 -1.668601 -0.122156 0.124627
    66 0.717491 -3.784309 13.044010 -1.725758 0.009831 -1.454341
    67 -1.099228 -1.407673 8.017876 -1.350904 -0.015601 0.007733
    68 -0.064053 -0.807640 3.686100 -1.839904 -0.037754 0.018152
    69 4.004906 6.172710 4.754800 -0.720270 -0.940273 -1.497138
    70 -0.158381 -1.149773 5.804405 -0.345802 0.685528 0.599784
    71 1.078559 -2.386406 5.215008 -1.052491 1.087709 -0.156300
    72 6.289963 0.932404 13.569109 -0.126801 -0.612098 -2.869612
    73 -1.327759 -0.766682 12.396324 -0.020467 -0.009458 0.182566
    74 0.000017 -54.999996 0.000000 0.000000 0.000000 -1.570796
  time 6
    0 0.000000 0.000000 -1.500000 0.000000 0.000000 0.000000
    1 -10.521344 -5.760963 66.994621 3.097005 -0.050653 -3.139334
    2 -9.843679 4.319977 14.480496 -0.205266 0.664101 0.422140
    3 -0.000034 0.000012 24.761454 -0.554669 -0.064454 0.172488
    4 0.000017 0.000000 24.344809 1.486566 -0.517109 -0.159635
    5 0.002333 -1.019846 24.031336 0.421991 -0.043237 0.015799
    6 0.000034 0.000008 13.404741 -0.000001 -0.000009 0.052035
    7 10.398263 -5.760962 66.994675 3.097005 0.050653 3.139334
    8 -5.738623 -5.808866 14.983479 0.587308 -0.375421 0.418993
    9 -0.000004 -0.000006 24.761459 -1.492119 0.172970 -0.707100
    10 -0.000007 0.000004 24.344891 1.776090 -0.029038 -0.157084
    11 -0.002360 -1.019903 24.031330 0.390101 0.025461 0.033643
    12 0.000000 -0.000002 13.404737 0.000001 0.000005 -0.366484
    13 -0.061540 -5.245835 72.927078 0.000000 0.000000 0.000000
    14 7.876564 -0.601179 -14.785976 0.058228 0.003634 0.121305
    15 0.000000 -0.005608 -1.146812 0.045331 -0.029225 -0.625458
    16 0.030770 -0.240000 8.906021 -0.004138 0.000000 0.000000
    17 1.296938 -0.264777 -0.105870 0.165915 0.145174 0.674484
    18 0.030770 -0.276858 8.905140 0.056125 0.004134 -0.000049
    19 -0.848948 0.254790 -0.055865 -0.091755 -0.267304 0.138900
    20 5.669724 4.435303 14.302868 3.675974 -1.343788 -0.664790
    21 -1.044571 -2.839317 19.743267 -0.203626 -0.940245 0.117186
    22 2.655533 -1.533369 24.792658 -1.223223 0.123044 -0.018905
    23 1.120163 -0.154394 9.796035 0.004417 -0.000525 0.031804
    24 2.240311 -0.308786 19.592051 -0.037941 -0.066564 0.067552
    25 0.683151 2.877354 14.167051 -1.511326 -0.211747 1.554295
    26 0.144936 -0.145374 7.579252 -1.768042 -0.243277 0.235266
    27 0.091660 -0.906685 4.702850 -1.587439 -0.182555 0.191106
    28 0.506271 8.500866 13.617253 -1.470526 -0.303331 1.571638
    29 -0.384987 -0.460049 7.003448 -1.747475 -0.440890 0.551344
    30 0.561516 -0.596954 5.061852 -1.494407 -0.380557 0.386326
    31 -2.452171 -8.899406 11.597897 -1.564465 -0.075967 1.475308
    32 0.680496 -0.903999 6.074253 -1.628053 0.173825 -0.014264
    33 0.245514 -0.661150 3.388004 -1.484423 0.109511 -0.099205
    34 -0.717484 -3.784271 13.043911 -1.593590 -0.028646 1.464722
    35 1.099216 -1.407745 8.017889 -1.782123 0.031969 -0.017454
    36 0.068439 -0.807653 3.686054 -1.465865 0.034013 -0.009744
    37 -4.004929 6.172707 4.754754 0.109467 1.126800 2.530891
    38 0.158352 -1.149811 5.804394 -0.869542 -0.330219 0.145630
    39 -1.083523 -1.463142 5.544399 -0.797671 -0.152792 -0.023938
    40 -6.289886 0.932434 13.569063 -0.126803 0.612110 2.869610
    41 1.327774 -0.766687 12.396328 -0.003406 0.002220 -0.038629
    42 -0.096140 1.828087 23.185329 0.108931 -0.111074 -1.607767
    43 2.325478 -0.000003 6.169296 -0.027937 0.053094 1.025202
    44 0.000000 -3.152912 0.122169 1.961017 0.000000 0.000000
    45 1.068383 -10.478592 7.066338 0.292219 -1.282324 -3.141588
    46 0.000000 0.000000 2.279457 0.547137 -0.343566 0.107833
    47 2.479414 -8.323895 6.074242 -0.024786 -0.198483 1.156445
    48 0.000000 -5.074219 5.929688 0.000000 0.000000 0.000000
    49 -1.068383 -10.478611 7.065971 0.292219 1.282324 3.141588
    50 -0.000488 0.000015 2.279600 0.547136 0.343566 0.107835
    51 -2.479401 -8.323895 6.074234 -0.008759 -0.198141 1.158070
    52 -5.790000 4.432083 14.255558 -5.478972 0.939846 -1.608164
    53 1.044540 -2.839314 19.743252 -0.355697 0.404252 -0.096917
    54 -2.655510 -1.533379 24.792648 -0.687724 -0.093647 0.385373
    55 -1.120216 -0.154385 9.795983 -0.010935 -0.001001 0.095070
    56 -2.240372 -0.308788 19.592047 -0.144033 0.029707 0.174350
    57 -0.683205 2.877342 14.167089 -1.604527 0.208954 -1.789836
    58 -0.144958 -0.145317 7.579308 -1.541391 0.304896 -0.166506
    59 -0.038551 -0.936644 4.697678 -2.189566 0.238585 -0.365188
    60 -0.506317 8.500896 13.617329 -1.710280 0.278186 -1.993619
    61 0.385056 -0.460075 7.003435 -1.471905 0.596196 -0.385484
    62 -0.456360 -0.710276 5.057732 -1.989932 0.545854 -0.699289
    63 2.452194 -8.899408 11.597939 -1.419551 0.110544 -1.352620
    64 -0.680515 -0.903999 6.074242 -1.453600 -0.173887 -0.003174
    65 -0.248295 -0.666843 3.386627 -1.668601 -0.122156 0.124627
    66 0.717491 -3.784309 13.044010 -1.725758 0.009831 -1.454341
    67 -1.099228 -1.407673 8.017876 -1.350904 -0.015601 0.007733
    68 -0.064053 -0.807640 3.686100 -1.839904 -0.037754 0.018152
    69 4.004906 6.172710 4.754800 -0.720270 -0.940273 -1.497138
    70 -0.158381 -1.149773 5.804405 -0.345802 0.685528 0.599784
    71 1.078559 -2.386406 5.215008 -1.052491 1.087709 -0.156300
    72 6.289963 0.932404 13.569109 -0.126801 -0.612098 -2.869612
    73 -1.327759 -0.766682 12.396324 -0.026088 -0.011292 0.230543
    74 0.000017 -54.999996 0.000000 0.000000 0.000000 -1.570796
  time 7
    0 0.000000 0.000000 -1.500000 0.000000 0.000000 0.000000
    1 -10.521344 -5.760963 66.994621 3.097005 -0.050653 -3.139334
    2 -10.343694 3.632466 11.924098 -0.275840 0.638076 0.375042
    3 -0.000034 0.000012 24.761454 -0.415521 -0.048323 0.235072
    4 0.000017 0.000000 24.344809 1.302488 -0.511473 -0.118734
    5 0.002333 -1.019846 24.031336 0.491283 -0.044232 0.012719
    6 0.000034 0.000008 13.404741 -0.000001 -0.000009 0.100781
    7 10.398263 -5.760962 66.994675 3.097005 0.050653 3.139334
    8 -7.105852 -5.159418 13.477308 0.577583 -0.296700 0.343573
    9 -0.000004 -0.000006 24.761459 -1.383609 0.160422 -0.730104
    10 -0.000007 0.000004 24.344891 1.717681 -0.095943 -0.190504
    11 -0.002360 -1.019903 24.031330 0.391276 0.052702 0.054017
    12 0.000000 -0.000002 13.404737 0.000001 0.000005 -0.375866
    13 -0.061540 -5.245835 72.927078 0.000000 0.000000 0.000000
    14 9.255513 -0.414848 -12.780708 -0.004500 0.114862 0.281708
    15 0.000000 -0.005608 -1.146812 0.106669 -0.033726 -0.713587
    16 0.030770 -0.240000 8.906021 -0.004138 0.000000 0.000000
    17 1.293031 -0.217901 -0.105870 0.164210 0.143313 0.704874
    18 0.030770 -0.276858 8.905140 0.056125 0.004134 -0.000049
    19 -0.841135 0.274322 -0.051958 -0.101084 -0.262408 0.143107
    20 5.669724 4.435303 14.302868 3.861355 -1.386669 -0.851761
    21 -1.044571 -2.839317 19.743267 -0.144873 -0.978913 0.089633
    22 2.655533 -1.533369 24.792658 -1.191457 0.113130 0.104182
    23 1.120163 -0.154394 9.796035 -0.003169 0.000506 -0.033147
    24 2.240311 -0.308786 19.592051 -0.026539 -0.029313 -0.064033
    25 0.683151 2.877354 14.167051 -1.511326 -0.211747 1.554295
    26 0.144936 -0.145374 7.579252 -1.768042 -0.243277 0.235266
    27 0.091660 -0.906685 4.702850 -1.587439 -0.182555 0.191106
    28 0.506271 8.500866 13.617253 -1.470526 -0.303331 1.571638
    29 -0.384987 -0.460049 7.003448 -1.747475 -0.440890 0.551344
    30 0.561516 -0.596954 5.061852 -1.494372 -0.380557 0.386326
    31 -2.452171 -8.899406 11.597897 -1.564465 -0.075967 1.475308
    32 0.680496 -0.903999 6.074253 -1.628053 0.173825 -0.014264
    33 0.245514 -0.661150 3.388004 -1.484423 0.109511 -0.099205
    34 -0.717484 -3.784271 13.043911 -1.593590 -0.028658 1.464722
    35 1.099216 -1.407745 8.017889 -1.782123 0.031969 -0.017454
    36 0.068439 -0.807653 3.686054 -1.465865 0.034013 -0.009744
    37 -4.004929 6.172707 4.754754 0.109467 1.126800 2.530891
    38 0.158352 -1.149811 5.804394 -0.869542 -0.330219 0.145630
    39 -1.083523 -1.463142 5.544399 -0.797671 -0.152792 -0.023938
    40 -6.289886 0.932434 13.569063 -0.126803 0.612110 2.869610
    41 1.327774 -0.766687 12.396328 0.004013 -0.002130 0.031924
    42 -0.096140 1.828087 23.185329 0.099018 -0.099634 -1.645309
    43 2.325478 -0.000003 6.169296 -0.022111 0.022304 1.022727
    44 0.000000 -3.152912 0.122169 1.961017 0.000000 0.000000
    45 1.068383 -10.478592 7.066338 0.292219 -1.282324 -3.141588
    46 0.000000 0.000000 2.279457 0.547137 -0.343566 0.107833
    47 2.479414 -8.323895 6.074242 -0.031066 -0.279771 0.982812
    48 0.000000 -5.074219 5.929688 0.000000 0.000000 0.000000
    49 -1.068383 -10.478611 7.065971 0.292219 1.282324 3.141588
    50 -0.000488 0.000015 2.279600 0.547136 0.343566 0.107835
    51 -2.479401 -8.323895 6.074234 -0.016391 -0.284941 0.981210
    52 -5.790000 4.432083 14.255558 -5.818213 0.840822 -1.952237
    53 1.044540 -2.839314 19.743252 -0.601587 0.363678 -0.094223
    54 -2.655510 -1.533379 24.792648 -0.748819 -0.096805 0.547890
    55 -1.120216 -0.154385 9.795983 -0.016376 -0.001073 0.142160
    56 -2.240372 -0.308788 19.592047 -0.252779 0.254454 0.252624
    57 -0.683205 2.877342 14.167089 -1.604527 0.208954 -1.789836
    58 -0.144958 -0.145317 7.579308 -1.541391 0.304896 -0.166506
    59 -0.038551 -0.936644 4.697678 -2.189566 0.238585 -0.365176
    60 -0.506317 8.500896 13.617329 -1.710280 0.278186 -1.993619
    61 0.385056 -0.460075 7.003435 -1.471905 0.596196 -0.385484
    62 -0.456360 -0.710276 5.057732 -1.989932 0.545832 -0.699289
    63 2.452194 -8.899408 11.597939 -1.419551 0.110567 -1.352644
    64 -0.680515 -0.903999 6.074242 -1.453600 -0.173887 -0.003174
    65 -0.248295 -0.666843 3.386627 -1.668601 -0.122156 0.124627
    66 0.717491 -3.784309 13.044010 -1.725758 0.009831 -1.454341
    67 -1.099228 -1.407673 8.017876 -1.350904 -0.015601 0.007733
    68 -0.064053 -0.807640 3.686100 -1.839904 -0.037754 0.018152
    69 4.004906 6.172710 4.754800 -0.720270 -0.940273 -1.497138
    70 -0.158381 -1.149773 5.804405 -0.345802 0.685528 0.599784
    71 1.078559 -2.386406 5.215008 -1.052491 1.087709 -0.156300
    72 6.289963 0.932404 13.569109 -0.126801 -0.612098 -2.869612
    73 -1.327759 -0.766682 12.396324 -0.037509 -0.014132 0.325987
    74 0.000017 -54.999996 0.000000 0.000000 0.000000 -1.570796
  time 8
    0 0.000000 0.000000 -1.500000 0.000000 0.000000 0.000000
    1 -10.521344 -5.760963 66.994621 3.097005 -0.050653 -3.139334
    2 -10.414009 4.197208 10.331956 -0.210800 0.650045 0.367527
    3 -0.000034 0.000012 24.761454 -0.495725 -0.057623 0.264348
    4 0.000017 0.000000 24.344809 1.241211 -0.478652 -0.130078
    5 0.002333 -1.019846 24.031336 0.555983 -0.044951 0.009783
    6 0.000034 0.000008 13.404741 -0.000001 -0.000009 0.109915
    7 10.398263 -5.760962 66.994675 3.097005 0.050653 3.139334
    8 -7.668369 -3.785587 12.150978 0.569393 -0.254340 0.302067
    9 -0.000004 -0.000006 24.761459 -1.276144 0.147994 -0.767212
    10 -0.000007 0.000004 24.344891 1.646171 -0.144005 -0.207003
    11 -0.002360 -1.019903 24.031330 0.392728 0.075916 0.071479
    12 0.000000 -0.000002 13.404737 0.000001 0.000005 -0.395704
    13 -0.061540 -5.245835 72.927078 0.000000 0.000000 0.000000
    14 9.728183 0.749722 -11.293656 -0.056539 0.187878 0.380916
    15 0.000000 -0.005608 -1.146812 0.160544 -0.035044 -0.774161
    16 0.030770 -0.240000 8.906021 -0.004138 0.000000 0.000000
    17 1.277406 -0.190556 -0.098058 0.162253 0.139426 0.727276
    18 0.030770 -0.276858 8.905140 0.056125 0.004134 -0.000049
    19 -0.813790 0.286041 -0.051958 -0.105660 -0.252225 0.144114
    20 5.669724 4.435303 14.302868 4.231449 -1.425814 -1.212000
    21 -1.044571 -2.839317 19.743267 -0.116059 -0.989506 0.074771
    22 2.655533 -1.533369 24.792658 -1.154006 0.101986 0.213926
    23 1.120163 -0.154394 9.796035 -0.012901 0.001021 -0.111688
    24 2.240311 -0.308786 19.592051 -0.033937 0.004162 -0.222442
    25 0.683151 2.877354 14.167051 -1.511326 -0.211735 1.554295
    26 0.144936 -0.145374 7.579252 -1.768042 -0.243277 0.235278
    27 0.091660 -0.906685 4.702850 -1.587439 -0.182555 0.191106
    28 0.506271 8.500866 13.617253 -1.470526 -0.303331 1.571638
    29 -0.384987 -0.460049 7.003448 -1.747475 -0.440890 0.551344
    30 0.561516 -0.596954 5.061852 -1.494372 -0.380557 0.386326
    31 -2.452171 -8.899406 11.597897 -1.564465 -0.075967 1.475308
    32 0.680496 -0.903999 6.074253 -1.628053 0.173825 -0.014264
    33 0.245514 -0.661150 3.388004 -1.484370 0.109511 -0.099205
    34 -0.717484 -3.784271 13.043911 -1.593590 -0.028634 1.464722
    35 1.099216 -1.407745 8.017889 -1.782123 0.031969 -0.017454
    36 0.068439 -0.807653 3.686054 -1.465865 0.034013 -0.009744
    37 -4.004929 6.172707 4.754754 0.109467 1.126800 2.530891
    38 0.158352 -1.149811 5.804394 -0.869542 -0.330219 0.145630
    39 -1.083523 -1.463142 5.544399 -0.797671 -0.152792 -0.023938
    40 -6.289886 0.932434 13.569063 -0.126803 0.612110 2.869610
    41 1.327774 -0.766687 12.396328 0.009334 -0.005977 0.090074
    42 -0.096140 1.828087 23.185329 0.084088 -0.087907 -1.683738
    43 2.325478 -0.000003 6.169296 -0.011224 -0.018715 1.020053
    44 0.000000 -3.152912 0.122169 1.961017 0.000000 0.000000
    45 1.068383 -10.478592 7.066338 0.292219 -1.282324 -3.141588
    46 0.000000 0.000000 2.279457 0.547137 -0.343566 0.107833
    47 2.479414 -8.323895 6.074242 -0.034383 -0.344200 0.894849
    48 0.000000 -5.074219 5.929688 0.000000 0.000000 0.000000
    49 -1.068383 -10.478611 7.065971 0.292219 1.282324 3.141588
    50 -0.000488 0.000015 2.279600 0.547136 0.343566 0.107835
    51 -2.479401 -8.323895 6.074234 -0.020468 -0.352274 0.891439
    52 -5.790000 4.432083 14.255558 0.233187 0.711061 -2.218508
    53 1.044540 -2.839314 19.743252 -0.780745 0.261840 -0.050379
    54 -2.655510 -1.533379 24.792648 -0.819627 -0.096754 0.734111
    55 -1.120216 -0.154385 9.795983 -0.024861 -0.000725 0.216047
    56 -2.240372 -0.308788 19.592047 -0.306007 0.513259 0.399978
    57 -0.683205 2.877342 14.167089 -1.604527 0.208954 -1.789836
    58 -0.144958 -0.145317 7.579308 -1.541391 0.304896 -0.166506
    59 -0.038551 -0.936644 4.697678 -2.189566 0.238585 -0.365176
    60 -0.506317 8.500896 13.617329 -1.710280 0.278186 -1.993619
    61 0.385056 -0.460075 7.003435 -1.471905 0.596196 -0.385484
    62 -0.456360 -0.710276 5.057732 -1.989932 0.545832 -0.699289
    63 2.452194 -8.899408 11.597939 -1.419551 0.110567 -1.352644
    64 -0.680515 -0.903999 6.074242 -1.453600 -0.173887 -0.003174
    65 -0.248295 -0.666843 3.386627 -1.668601 -0.122156 0.124627
    66 0.717491 -3.784309 13.044010 -1.725758 0.009831 -1.454341
    67 -1.099228 -1.407673 8.017876 -1.350904 -0.015601 0.007733
    68 -0.064053 -0.807640 3.686100 -1.839904 -0.037754 0.018152
    69 4.004906 6.172710 4.754800 -0.720270 -0.940273 -1.497138
    70 -0.158381 -1.149773 5.804405 -0.345802 0.685528 0.599784
    71 1.078559 -2.386406 5.215008 -1.052491 1.087709 -0.156300
    72 6.289963 0.932404 13.569109 -0.126801 -0.612098 -2.869612
    73 -1.327759 -0.766682 12.396324 -0.052658 -0.016218 0.449931
    74 0.000017 -54.999996 0.000000 0.000000 0.000000 -1.570796
  time 9
    0 0.000000 0.000000 -1.500000 0.000000 0.000000 0.000000
    1 -10.521344 -5.760963 66.994621 3.097005 -0.050653 -3.139334
    2 -10.062436 5.891432 9.502248 -0.107024 0.660121 0.392736
    3 -0.000034 0.000012 24.761454 -0.614223 -0.071358 0.268827
    4 0.000017 0.000000 24.344809 1.241704 -0.441554 -0.145224
    5 0.002333 -1.019846 24.031336 0.583909 -0.045215 0.008488
    6 0.000034 0.000008 13.404741 -0.000001 -0.000009 0.102152
    7 10.398263 -5.760962 66.994675 3.097005 0.050653 3.139334
    8 -7.512114 -1.849735 11.206810 0.577668 -0.247390 0.284326
    9 -0.000004 -0.000006 24.761459 -1.193153 0.138407 -0.800767
    10 -0.000007 0.000004 24.344891 1.567562 -0.173780 -0.210492
    11 -0.002360 -1.019903 24.031330 0.393834 0.090214 0.082265
    12 0.000000 -0.000002 13.404737 0.000001 0.000005 -0.414039
    13 -0.061540 -5.245835 72.927078 0.000000 0.000000 0.000000
    14 9.497707 2.729490 -10.369881 -0.091616 0.218984 0.427097
    15 0.000000 -0.005608 -1.146812 0.181309 -0.030088 -0.811554
    16 0.030770 -0.240000 8.906021 -0.004138 0.000000 0.000000
    17 1.253968 -0.178837 -0.094151 0.160001 0.134539 0.736860
    18 0.030770 -0.276858 8.905140 0.056125 0.004134 -0.000049
    19 -0.790352 0.293853 -0.048052 -0.105803 -0.241631 0.142747
    20 5.669724 4.435303 14.302868 4.691506 -1.434447 -1.644305
    21 -1.044571 -2.839317 19.743267 -0.148640 -0.947655 0.090620
    22 2.655533 -1.533369 24.792658 -1.118985 0.095492 0.255656
    23 1.120163 -0.154394 9.796035 -0.021182 0.000937 -0.183813
    24 2.240311 -0.308786 19.592051 -0.049691 0.025435 -0.367598
    25 0.683151 2.877354 14.167051 -1.511326 -0.211747 1.554295
    26 0.144936 -0.145374 7.579252 -1.768042 -0.243277 0.235278
    27 0.091660 -0.906685 4.702850 -1.587439 -0.182555 0.191106
    28 0.506271 8.500866 13.617253 -1.470526 -0.303331 1.571638
    29 -0.384987 -0.460049 7.003448 -1.747475 -0.440890 0.551344
    30 0.561516 -0.596954 5.061852 -1.494407 -0.380557 0.386326
    31 -2.452171 -8.899406 11.597897 -1.564465 -0.075967 1.475308
    32 0.680496 -0.903999 6.074253 -1.628053 0.173825 -0.014264
    33 0.245514 -0.661150 3.388004 -1.484423 0.109499 -0.099205
    34 -0.717484 -3.784271 13.043911 -1.593590 -0.028658 1.464722
    35 1.099216 -1.407745 8.017889 -1.782123 0.031969 -0.017454
    36 0.068439 -0.807653 3.686054 -1.465865 0.034013 -0.009744
    37 -4.004929 6.172707 4.754754 0.109467 1.126800 2.530891
    38 0.158352 -1.149811 5.804394 -0.869542 -0.330219 0.145630
    39 -1.083523 -1.463142 5.544399 -0.797671 -0.152792 -0.023938
    40 -6.289886 0.932434 13.569063 -0.126803 0.612110 2.869610
    41 1.327774 -0.766687 12.396328 0.010748 -0.006984 0.103833
    42 -0.096140 1.828087 23.185329 0.067908 -0.079335 -1.717183
    43 2.325478 -0.000003 6.169296 0.000045 -0.052616 1.017658
    44 0.000000 -3.152912 0.122169 1.961017 0.000000 0.000000
    45 1.068383 -10.478592 7.066338 0.292219 -1.282324 -3.141588
    46 0.000000 0.000000 2.279457 0.547137 -0.343566 0.107833
    47 2.479414 -8.323895 6.074242 -0.035443 -0.379044 0.874506
    48 0.000000 -5.074219 5.929688 0.000000 0.000000 0.000000
    49 -1.068383 -10.478611 7.065971 0.292219 1.282324 3.141588
    50 -0.000488 0.000015 2.279600 0.547136 0.343566 0.107835
    51 -2.479401 -8.323895 6.074234 -0.021613 -0.387901 0.870649
    52 -5.790000 4.432083 14.255558 0.129085 0.649711 -2.324479
    53 1.044540 -2.839314 19.743252 -0.853376 0.154448 -0.003378
    54 -2.655510 -1.533379 24.792648 -0.887617 -0.096534 0.842935
    55 -1.120216 -0.154385 9.795983 -0.031309 -0.000030 0.272142
    56 -2.240372 -0.308788 19.592047 -0.275842 0.657810 0.537880
    57 -0.683205 2.877342 14.167089 -1.604576 0.208954 -1.789836
    58 -0.144958 -0.145317 7.579308 -1.541391 0.304896 -0.166506
    59 -0.038551 -0.936644 4.697678 -2.189566 0.238585 -0.365176
    60 -0.506317 8.500896 13.617329 -1.710280 0.278186 -1.993619
    61 0.385056 -0.460075 7.003435 -1.471905 0.596196 -0.385484
    62 -0.456360 -0.710276 5.057732 -1.989932 0.545832 -0.699272
    63 2.452194 -8.899408 11.597939 -1.419591 0.110567 -1.352644
    64 -0.680515 -0.903999 6.074242 -1.453600 -0.173887 -0.003174
    65 -0.248295 -0.666843 3.386627 -1.668601 -0.122156 0.124627
    66 0.717491 -3.784309 13.044010 -1.725758 0.009831 -1.454341
    67 -1.099228 -1.407673 8.017876 -1.350904 -0.015601 0.007733
    68 -0.064053 -0.807640 3.686100 -1.839904 -0.037754 0.018152
    69 4.004906 6.172710 4.754800 -0.720270 -0.940273 -1.497138
    70 -0.158381 -1.149773 5.804405 -0.345802 0.685528 0.599784
    71 1.078559 -2.386406 5.215008 -1.052491 1.087709 -0.156300
    72 6.289963 0.932404 13.569109 -0.126801 -0.612098 -2.869612
    73 -1.327759 -0.766682 12.396324 -0.062605 -0.016529 0.530524
    74 0.000017 -54.999996 0.000000 0.000000 0.000000 -1.570796
  time 10
    0 0.000000 0.000000 -1.500000 0.000000 0.000000 0.000000
    1 -10.521344 -5.760963 66.994621 3.097005 -0.050653 -3.139334
    2 -9.078031 8.285446 9.143455 -0.025314 0.640107 0.428344
    3 -0.000034 0.000012 24.761454 -0.691257 -0.080286 0.262312
    4 0.000017 0.000000 24.344809 1.280234 -0.408530 -0.148140
    5 0.002333 -1.019846 24.031336 0.567482 -0.045059 0.009243
    6 0.000034 0.000008 13.404741 -0.000001 -0.000009 0.095803
    7 10.398263 -5.760962 66.994675 3.097005 0.050653 3.139334
    8 -6.555054 0.473288 10.577366 0.599934 -0.270691 0.273681
    9 -0.000004 -0.000006 24.761459 -1.135351 0.131707 -0.820757
    10 -0.000007 0.000004 24.344891 1.481983 -0.184423 -0.202715
    11 -0.002360 -1.019903 24.031330 0.394410 0.097045 0.087418
    12 0.000000 -0.000002 13.404737 0.000001 0.000005 -0.423829
    13 -0.061540 -5.245835 72.927078 0.000000 0.000000 0.000000
    14 8.525022 5.221668 -9.784072 -0.112835 0.219862 0.445474
    15 0.000000 -0.005608 -1.146812 0.168774 -0.019014 -0.835930
    16 0.030770 -0.240000 8.906021 -0.004138 0.000000 0.000000
    17 1.226623 -0.190556 -0.098058 0.157918 0.129209 0.738538
    18 0.030770 -0.276858 8.905140 0.056125 0.004134 -0.000049
    19 -0.759101 0.289947 -0.044146 -0.103301 -0.231407 0.140219
    20 5.669724 4.435303 14.302868 5.083325 -1.419296 -1.999560
    21 -1.044571 -2.839317 19.743267 -0.199272 -0.862334 0.109571
    22 2.655533 -1.533369 24.792658 -1.088477 0.094570 0.231151
    23 1.120163 -0.154394 9.796035 -0.028624 0.000350 -0.248626
    24 2.240311 -0.308786 19.592051 -0.068839 0.035473 -0.497877
    25 0.683151 2.877354 14.167051 -1.511326 -0.211747 1.554295
    26 0.144936 -0.145374 7.579252 -1.768042 -0.243277 0.235266
    27 0.091660 -0.906685 4.702850 -1.587439 -0.182555 0.191106
    28 0.506271 8.500866 13.617253 -1.470526 -0.303331 1.571638
    29 -0.384987 -0.460049 7.003448 -1.747475 -0.440890 0.551344
    30 0.561516 -0.596954 5.061852 -1.494372 -0.380557 0.386326
    31 -2.452171 -8.899406 11.597897 -1.564465 -0.075967 1.475308
    32 0.680496 -0.903999 6.074253 -1.628053 0.173825 -0.014264
    33 0.245514 -0.661150 3.388004 -1.484423 0.109511 -0.099205
    34 -0.717484 -3.784271 13.043911 -1.593590 -0.028646 1.464722
    35 1.099216 -1.407745 8.017889 -1.782123 0.031969 -0.017454
    36 0.068439 -0.807653 3.686054 -1.465865 0.034013 -0.009744
    37 -4.004929 6.172707 4.754754 0.109467 1.126800 2.530891
    38 0.158352 -1.149811 5.804394 -0.869542 -0.330219 0.145630
    39 -1.083523 -1.463142 5.544399 -0.797671 -0.152792 -0.023938
    40 -6.289886 0.932434 13.569063 -0.126803 0.612110 2.869610
    41 1.327774 -0.766687 12.396328 0.008447 -0.005342 0.081035
    42 -0.096140 1.828087 23.185329 0.052191 -0.073153 -1.747297
    43 2.325478 -0.000003 6.169296 0.010693 -0.077951 1.015383
    44 0.000000 -3.152912 0.122169 1.961017 0.000000 0.000000
    45 1.068383 -10.478592 7.066338 0.292219 -1.282324 -3.141588
    46 0.000000 0.000000 2.279457 0.547137 -0.343566 0.107833
    47 2.479414 -8.323895 6.074242 -0.035144 -0.391582 0.891984
    48 0.000000 -5.074219 5.929688 0.000000 0.000000 0.000000
    49 -1.068383 -10.478611 7.065971 0.292219 1.282324 3.141588
    50 -0.000488 0.000015 2.279600 0.547136 0.343566 0.107835
    51 -2.479401 -8.323895 6.074234 -0.021031 -0.399997 0.888565
    52 -5.790000 4.432083 14.255558 0.088154 0.673636 -2.301005
    53 1.044540 -2.839314 19.743252 -0.854824 0.094202 0.016598
    54 -2.655510 -1.533379 24.792648 -0.949719 -0.100934 0.835968
    55 -1.120216 -0.154385 9.795983 -0.035204 0.000557 0.306283
    56 -2.240372 -0.308788 19.592047 -0.217803 0.680730 0.629643
    57 -0.683205 2.877342 14.167089 -1.604576 0.208954 -1.789836
    58 -0.144958 -0.145317 7.579308 -1.541391 0.304896 -0.166506
    59 -0.038551 -0.936644 4.697678 -2.189566 0.238585 -0.365176
    60 -0.506317 8.500896 13.617329 -1.710280 0.278186 -1.993619
    61 0.385056 -0.460075 7.003435 -1.471905 0.596196 -0.385484
    62 -0.456360 -0.710276 5.057732 -1.989932 0.545854 -0.699272
    63 2.452194 -8.899408 11.597939 -1.419591 0.110567 -1.352644
    64 -0.680515 -0.903999 6.074242 -1.453600 -0.173887 -0.003174
    65 -0.248295 -0.666843 3.386627 -1.668601 -0.122156 0.124627
    66 0.717491 -3.784309 13.044010 -1.725758 0.009831 -1.454341
    67 -1.099228 -1.407673 8.017876 -1.350904 -0.015601 0.007733
    68 -0.064053 -0.807640 3.686100 -1.839904 -0.037754 0.018152
    69 4.004906 6.172710 4.754800 -0.720270 -0.940273 -1.497138
    70 -0.158381 -1.149773 5.804405 -0.345802 0.685528 0.599784
    71 1.078559 -2.386406 5.215008 -1.052491 1.087709 -0.156300
    72 6.289963 0.932404 13.569109 -0.126801 -0.612098 -2.869612
    73 -1.327759 -0.766682 12.396324 -0.062377 -0.016541 0.528627
    74 0.000017 -54.999996 0.000000 0.000000 0.000000 -1.570796
  time 11
    0 0.000000 0.000000 -1.500000 0.000000 0.000000 0.000000
    1 -10.521344 -5.760963 66.994621 3.097005 -0.050653 -3.139334
    2 -7.370947 10.937276 9.053757 0.054893 0.606705 0.461199
    3 -0.000034 0.000012 24.761454 -0.782925 -0.090892 0.255512
    4 0.000017 0.000000 24.344809 1.339353 -0.373129 -0.149307
    5 0.002333 -1.019846 24.031336 0.547919 -0.044867 0.010130
    6 0.000034 0.000008 13.404741 -0.000001 -0.000009 0.090467
    7 10.398263 -5.760962 66.994675 3.097005 0.050653 3.139334
    8 -4.840158 3.021120 10.060322 0.626892 -0.310528 0.258498
    9 -0.000004 -0.000006 24.761459 -1.083709 0.125751 -0.829190
    10 -0.000007 0.000004 24.344891 1.385560 -0.180446 -0.187435
    11 -0.002360 -1.019903 24.031330 0.394802 0.101372 0.090678
    12 0.000000 -0.000002 13.404737 0.000001 0.000005 -0.426513
    13 -0.061540 -5.245835 72.927078 0.000000 0.000000 0.000000
    14 6.786687 7.958407 -9.401043 -0.128229 0.206064 0.458025
    15 0.000000 -0.005608 -1.146812 0.142682 -0.004552 -0.854681
    16 0.030770 -0.240000 8.906021 -0.004138 0.000000 0.000000
    17 1.199279 -0.202275 -0.094151 0.156256 0.123537 0.739616
    18 0.030770 -0.276858 8.905140 0.056125 0.004134 -0.000049
    19 -0.723944 0.289947 -0.040239 -0.099905 -0.219928 0.137174
    20 5.669724 4.435303 14.302868 5.416094 -1.387585 3.985437
    21 -1.044571 -2.839317 19.743267 -0.226325 -0.762036 0.111912
    22 2.655533 -1.533369 24.792658 -1.058490 0.095492 0.181173
    23 1.120163 -0.154394 9.796035 -0.036486 -0.000800 -0.317405
    24 2.240311 -0.308786 19.592051 -0.094602 0.037453 -0.635516
    25 0.683151 2.877354 14.167051 -1.511326 -0.211747 1.554295
    26 0.144936 -0.145374 7.579252 -1.768042 -0.243277 0.235278
    27 0.091660 -0.906685 4.702850 -1.587439 -0.182555 0.191106
    28 0.506271 8.500866 13.617253 -1.470526 -0.303331 1.571638
    29 -0.384987 -0.460049 7.003448 -1.747475 -0.440890 0.551344
    30 0.561516 -0.596954 5.061852 -1.494372 -0.380557 0.386326
    31 -2.452171 -8.899406 11.597897 -1.564465 -0.075967 1.475308
    32 0.680496 -0.903999 6.074253 -1.628053 0.173825 -0.014264
    33 0.245514 -0.661150 3.388004 -1.484370 0.109487 -0.099205
    34 -0.717484 -3.784271 13.043911 -1.593546 -0.028634 1.464722
    35 1.099216 -1.407745 8.017889 -1.782123 0.031969 -0.017454
    36 0.068439 -0.807653 3.686054 -1.465865 0.034013 -0.009744
    37 -4.004929 6.172707 4.754754 0.109467 1.126800 2.530891
    38 0.158352 -1.149811 5.804394 -0.869542 -0.330219 0.145630
    39 -1.083523 -1.463142 5.544399 -0.797671 -0.152792 -0.023938
    40 -6.289886 0.932434 13.569063 -0.126803 0.612110 2.869610
    41 1.327774 -0.766687 12.396328 0.005044 -0.003065 0.047842
    42 -0.096140 1.828087 23.185329 0.035635 -0.067322 -1.778083
    43 2.325478 -0.000003 6.169296 0.022487 -0.103937 1.012629
    44 0.000000 -3.152912 0.122169 1.961017 0.000000 0.000000
    45 1.068383 -10.478592 7.066338 0.292219 -1.282324 -3.141588
    46 0.000000 0.000000 2.279457 0.547137 -0.343566 0.107833
    47 2.479414 -8.323895 6.074242 -0.034301 -0.392334 0.921496
    48 0.000000 -5.074219 5.929688 0.000000 0.000000 0.000000
    49 -1.068383 -10.478611 7.065971 0.292219 1.282324 3.141588
    50 -0.000488 0.000015 2.279600 0.547136 0.343566 0.107835
    51 -2.479401 -8.323895 6.074234 -0.019785 -0.399903 0.918648
    52 -5.790000 4.432083 14.255558 0.066682 0.731663 -2.228281
    53 1.044540 -2.839314 19.743252 -0.835066 0.059563 0.023402
    54 -2.655510 -1.533379 24.792648 -1.012374 -0.107884 0.778261
    55 -1.120216 -0.154385 9.795983 -0.039327 0.001348 0.342791
    56 -2.240372 -0.308788 19.592047 -0.137465 0.678552 0.731716
    57 -0.683205 2.877342 14.167089 -1.604576 0.208954 -1.789836
    58 -0.144958 -0.145317 7.579308 -1.541391 0.304896 -0.166506
    59 -0.038551 -0.936644 4.697678 -2.189566 0.238585 -0.365176
    60 -0.506317 8.500896 13.617329 -1.710280 0.278186 -1.993619
    61 0.385056 -0.460075 7.003435 -1.471905 0.596213 -0.385484
    62 -0.456360 -0.710276 5.057732 -1.989932 0.545854 -0.699289
    63 2.452194 -8.899408 11.597939 -1.419551 0.110567 -1.352620
    64 -0.680515 -0.903999 6.074242 -1.453600 -0.173887 -0.003174
    65 -0.248295 -0.666843 3.386627 -1.668601 -0.122156 0.124627
    66 0.717491 -3.784309 13.044010 -1.725758 0.009831 -1.454341
    67 -1.099228 -1.407673 8.017876 -1.350904 -0.015601 0.007733
    68 -0.064053 -0.807640 3.686100 -1.839904 -0.037754 0.018152
    69 4.004906 6.172710 4.754800 -0.720270 -0.940273 -1.497138
    70 -0.158381 -1.149773 5.804405 -0.345802 0.685528 0.599784
    71 1.078559 -2.386406 5.215008 -1.052491 1.087709 -0.156300
    72 6.289963 0.932404 13.569109 -0.126801 -0.612098 -2.869612
    73 -1.327759 -0.766682 12.396324 -0.057499 -0.016469 0.489163
    74 0.000017 -54.999996 0.000000 0.000000 0.000000 -1.570796
  time 12
    0 0.000000 0.000000 -1.500000 0.000000 0.000000 0.000000
    1 -10.521344 -5.760963 66.994621 3.097005 -0.050653 -3.139334
    2 -5.191193 13.711876 9.143455 0.123075 0.560806 0.486102
    3 -0.000034 0.000012 24.761454 -0.870162 -0.100995 0.252784
    4 0.000017 0.000000 24.344809 1.404514 -0.336755 -0.145180
    5 0.002333 -1.019846 24.031336 0.526452 -0.044639 0.011125
    6 0.000034 0.000008 13.404741 -0.000001 -0.000009 0.088737
    7 10.398263 -5.760962 66.994675 3.097005 0.050653 3.139334
    8 -2.629153 5.668866 9.700639 0.652741 -0.358046 0.240757
    9 -0.000004 -0.000006 24.761459 -1.028161 0.119303 -0.829154
    10 -0.000007 0.000004 24.344891 1.279199 -0.165514 -0.165912
    11 -0.002360 -1.019903 24.031330 0.394986 0.103589 0.092380
    12 0.000000 -0.000002 13.404737 0.000001 0.000005 -0.423743
    13 -0.061540 -5.245835 72.927078 0.000000 0.000000 0.000000
    14 4.544431 10.776665 -9.175732 -0.138182 0.180515 0.466192
    15 0.000000 -0.005608 -1.146812 0.107563 0.012105 -0.868459
    16 0.030770 -0.240000 8.906021 -0.004138 0.000000 0.000000
    17 1.171934 -0.210088 -0.094151 0.154698 0.117688 0.738498
    18 0.030770 -0.276858 8.905140 0.056125 0.004134 -0.000049
    19 -0.688787 0.278228 -0.036333 -0.095723 -0.208305 0.133831
    20 5.669724 4.435303 14.302868 5.658038 -1.343542 3.780545
    21 -1.044571 -2.839317 19.743267 -0.230581 -0.653181 0.103565
    22 2.655533 -1.533369 24.792658 -1.027852 0.097490 0.112431
    23 1.120163 -0.154394 9.796035 -0.044396 -0.002514 -0.387772
    24 2.240311 -0.308786 19.592051 -0.122323 0.031237 -0.775844
    25 0.683151 2.877354 14.167051 -1.511326 -0.211747 1.554295
    26 0.144936 -0.145374 7.579252 -1.768042 -0.243277 0.235266
    27 0.091660 -0.906685 4.702850 -1.587439 -0.182555 0.191106
    28 0.506271 8.500866 13.617253 -1.470526 -0.303331 1.571638
    29 -0.384987 -0.460049 7.003448 -1.747475 -0.440890 0.551344
    30 0.561516 -0.596954 5.061852 -1.494372 -0.380557 0.386326
    31 -2.452171 -8.899406 11.597897 -1.564465 -0.075967 1.475308
    32 0.680496 -0.903999 6.074253 -1.628053 0.173825 -0.014264
    33 0.245514 -0.661150 3.388004 -1.484370 0.109499 -0.099205
    34 -0.717484 -3.784271 13.043911 -1.593590 -0.028646 1.464722
    35 1.099216 -1.407745 8.017889 -1.782123 0.031969 -0.017454
    36 0.068439 -0.807653 3.686054 -1.465865 0.034013 -0.009744
    37 -4.004929 6.172707 4.754754 0.109467 1.126800 2.530891
    38 0.158352 -1.149811 5.804394 -0.869542 -0.330219 0.145630
    39 -1.083523 -1.463142 5.544399 -0.797671 -0.152792 -0.023938
    40 -6.289886 0.932434 13.569063 -0.126803 0.612110 2.869610
    41 1.327774 -0.766687 12.396328 0.000765 -0.000440 0.007268
    42 -0.096140 1.828087 23.185329 0.018222 -0.062542 -1.807279
    43 2.325478 -0.000003 6.169296 0.034711 -0.129243 1.009596
    44 0.000000 -3.152912 0.122169 1.961017 0.000000 0.000000
    45 1.068383 -10.478592 7.066338 0.292219 -1.282324 -3.141588
    46 0.000000 0.000000 2.279457 0.547137 -0.343566 0.107833
    47 2.479414 -8.323895 6.074242 -0.033078 -0.384398 0.958935
    48 0.000000 -5.074219 5.929688 0.000000 0.000000 0.000000
    49 -1.068383 -10.478611 7.065971 0.292219 1.282324 3.141588
    50 -0.000488 0.000015 2.279600 0.547136 0.343566 0.107835
    51 -2.479401 -8.323895 6.074234 -0.018118 -0.390783 0.956875
    52 -5.790000 4.432083 14.255558 0.077226 0.810334 -2.113302
    53 1.044540 -2.839314 19.743252 -0.804900 0.049388 0.020163
    54 -2.655510 -1.533379 24.792648 -1.074023 -0.116025 0.681857
    55 -1.120216 -0.154385 9.795983 -0.043461 0.002295 0.379489
    56 -2.240372 -0.308788 19.592047 -0.052163 0.652711 0.831986
    57 -0.683205 2.877342 14.167089 -1.604576 0.208934 -1.789836
    58 -0.144958 -0.145317 7.579308 -1.541391 0.304896 -0.166506
    59 -0.038551 -0.936644 4.697678 -2.189566 0.238585 -0.365176
    60 -0.506317 8.500896 13.617329 -1.710280 0.278186 -1.993619
    61 0.385056 -0.460075 7.003435 -1.471905 0.596196 -0.385484
    62 -0.456360 -0.710276 5.057732 -1.989932 0.545832 -0.699289
    63 2.452194 -8.899408 11.597939 -1.419591 0.110567 -1.352620
    64 -0.680515 -0.903999 6.074242 -1.453600 -0.173887 -0.003174
    65 -0.248295 -0.666843 3.386627 -1.668601 -0.122156 0.124627
    66 0.717491 -3.784309 13.044010 -1.725758 0.009831 -1.454341
    67 -1.099228 -1.407673 8.017876 -1.350904 -0.015601 0.007733
    68 -0.064053 -0.807640 3.686100 -1.839904 -0.037754 0.018152
    69 4.004906 6.172710 4.754800 -0.720270 -0.940273 -1.497138
    70 -0.158381 -1.149773 5.804405 -0.345802 0.685528 0.599784
    71 1.078559 -2.386406 5.215008 -1.052491 1.087709 -0.156300
    72 6.289963 0.932404 13.569109 -0.126801 -0.612098 -2.869612
    73 -1.327759 -0.766682 12.396324 -0.049470 -0.015930 0.423930
    74 0.000017 -54.999996 0.000000 0.000000 0.000000 -1.570796
  time 13
    0 0.000000 0.000000 -1.500000 0.000000 0.000000 0.000000
    1 -10.521344 -5.760963 66.994621 3.097005 -0.050653 -3.139334
    2 -2.796589 16.461922 9.390125 0.175339 0.506555 0.501219
    3 -0.000034 0.000012 24.761454 -0.942521 -0.109385 0.256001
    4 0.000017 0.000000 24.344809 1.466778 -0.300607 -0.135241
    5 0.002333 -1.019846 24.031336 0.503902 -0.044388 0.012144
    6 0.000034 0.000008 13.404741 -0.000001 -0.000009 0.091416
    7 10.398263 -5.760962 66.994675 3.097005 0.050653 3.139334
    8 -0.172047 8.304124 9.453357 0.671424 -0.404722 0.224254
    9 -0.000004 -0.000006 24.761459 -0.960184 0.111441 -0.823735
    10 -0.000007 0.000004 24.344891 1.165932 -0.142983 -0.139996
    11 -0.002360 -1.019903 24.031330 0.395032 0.104128 0.092787
    12 0.000000 -0.000002 13.404737 0.000001 0.000005 -0.417324
    13 -0.061540 -5.245835 72.927078 0.000000 0.000000 0.000000
    14 2.059981 13.536694 -9.018015 -0.143367 0.146106 0.470816
    15 0.000000 -0.005608 -1.146812 0.067787 0.029861 -0.877617
    16 0.030770 -0.240000 8.906021 -0.004138 0.000000 0.000000
    17 1.140683 -0.233526 -0.090245 0.153078 0.111851 0.733706
    18 0.030770 -0.276858 8.905140 0.056125 0.004134 -0.000049
    19 -0.649723 0.274322 -0.036333 -0.090861 -0.197649 0.130283
    20 5.669724 4.435303 14.302868 -0.455544 -1.294143 3.654140
    21 -1.044571 -2.839317 19.743267 -0.216199 -0.542133 0.092707
    22 2.655533 -1.533369 24.792658 -0.995001 0.099642 0.030751
    23 1.120163 -0.154394 9.796035 -0.052114 -0.004779 -0.457379
    24 2.240311 -0.308786 19.592051 -0.147869 0.018620 -0.914116
    25 0.683151 2.877354 14.167051 -1.511326 -0.211747 1.554295
    26 0.144936 -0.145374 7.579252 -1.768042 -0.243277 0.235266
    27 0.091660 -0.906685 4.702850 -1.587439 -0.182555 0.191106
    28 0.506271 8.500866 13.617253 -1.470526 -0.303331 1.571638
    29 -0.384987 -0.460049 7.003448 -1.747475 -0.440890 0.551344
    30 0.561516 -0.596954 5.061852 -1.494372 -0.380557 0.386326
    31 -2.452171 -8.899406 11.597897 -1.564465 -0.075967 1.475308
    32 0.680496 -0.903999 6.074253 -1.628053 0.173825 -0.014264
    33 0.245514 -0.661150 3.388004 -1.484370 0.109511 -0.099205
    34 -0.717484 -3.784271 13.043911 -1.593590 -0.028646 1.464722
    35 1.099216 -1.407745 8.017889 -1.782123 0.031969 -0.017454
    36 0.068439 -0.807653 3.686054 -1.465865 0.034013 -0.009744
    37 -4.004929 6.172707 4.754754 0.109467 1.126800 2.530891
    38 0.158352 -1.149811 5.804394 -0.869542 -0.330219 0.145630
    39 -1.083523 -1.463142 5.544399 -0.797671 -0.152792 -0.023938
    40 -6.289886 0.932434 13.569063 -0.126803 0.612110 2.869610
    41 1.327774 -0.766687 12.396328 -0.004197 0.002316 -0.038629
    42 -0.096140 1.828087 23.185329 0.000091 -0.059100 -1.832654
    43 2.325478 -0.000003 6.169296 0.046506 -0.152480 1.006363
    44 0.000000 -3.152912 0.122169 1.961017 0.000000 0.000000
    45 1.068383 -10.478592 7.066338 0.292219 -1.282324 -3.141588
    46 0.000000 0.000000 2.279457 0.547137 -0.343566 0.107833
    47 2.479414 -8.323895 6.074242 -0.031528 -0.371061 1.001818
    48 0.000000 -5.074219 5.929688 0.000000 0.000000 0.000000
    49 -1.068383 -10.478611 7.065971 0.292219 1.282324 3.141588
    50 -0.000488 0.000015 2.279600 0.547136 0.343566 0.107835
    51 -2.479401 -8.323895 6.074234 -0.016170 -0.375994 1.000467
    52 -5.790000 4.432083 14.255558 0.132153 0.893657 -1.960190
    53 1.044540 -2.839314 19.743252 -0.770615 0.058758 0.010529
    54 -2.655510 -1.533379 24.792648 -1.133357 -0.123726 0.562809
    55 -1.120216 -0.154385 9.795983 -0.047356 0.003325 0.414365
    56 -2.240372 -0.308788 19.592047 0.024280 0.608454 0.919796
    57 -0.683205 2.877342 14.167089 -1.604576 0.208954 -1.789836
    58 -0.144958 -0.145317 7.579308 -1.541391 0.304896 -0.166506
    59 -0.038551 -0.936644 4.697678 -2.189566 0.238585 -0.365164
    60 -0.506317 8.500896 13.617329 -1.710280 0.278186 -1.993619
    61 0.385056 -0.460075 7.003435 -1.471905 0.596196 -0.385484
    62 -0.456360 -0.710276 5.057732 -1.989932 0.545832 -0.699289
    63 2.452194 -8.899408 11.597939 -1.419551 0.110567 -1.352644
    64 -0.680515 -0.903999 6.074242 -1.453600 -0.173887 -0.003174
    65 -0.248295 -0.666843 3.386627 -1.668601 -0.122156 0.124627
    66 0.717491 -3.784309 13.044010 -1.725758 0.009831 -1.454341
    67 -1.099228 -1.407673 8.017876 -1.350904 -0.015601 0.007733
    68 -0.064053 -0.807640 3.686100 -1.839904 -0.037754 0.018152
    69 4.004906 6.172710 4.754800 -0.720270 -0.940273 -1.497138
    70 -0.158381 -1.149773 5.804405 -0.345802 0.685528 0.599784
    71 1.078559 -2.386406 5.215008 -1.052491 1.087709 -0.156300
    72 6.289963 0.932404 13.569109 -0.126801 -0.612098 -2.869612
    73 -1.327759 -0.766682 12.396324 -0.040134 -0.014636 0.347454
    74 0.000017 -54.999996 0.000000 0.000000 0.000000 -1.570796
  time 14
    0 0.000000 0.000000 -1.500000 0.000000 0.000000 0.000000
    1 -10.521344 -5.760963 66.994621 3.097005 -0.050653 -3.139334
    2 -0.421517 19.052367 9.704069 0.211890 0.449939 0.506811
    3 -0.000034 0.000012 24.761454 -0.995977 -0.115581 0.265407
    4 0.000017 0.000000 24.344809 1.520596 -0.265953 -0.120938
    5 0.002333 -1.019846 24.031336 0.481464 -0.044100 0.013138
    6 0.000034 0.000008 13.404741 -0.000001 -0.000009 0.097955
    7 10.398263 -5.760962 66.994675 3.097005 0.050653 3.139334
    8 2.242090 10.789509 9.318476 0.678931 -0.443461 0.212784
    9 -0.000004 -0.000006 24.761459 -0.876203 0.101722 -0.815804
    10 -0.000007 0.000004 24.344891 1.050148 -0.116319 -0.112714
    11 -0.002360 -1.019903 24.031330 0.394963 0.103421 0.092248
    12 0.000000 -0.000002 13.404737 0.000001 0.000005 -0.409595
    13 -0.061540 -5.245835 72.927078 0.000000 0.000000 0.000000
    14 -0.404938 16.110393 -9.018015 -0.144199 0.105589 0.472618
    15 0.000000 -0.005608 -1.146812 0.027723 0.047381 -0.882101
    16 0.030770 -0.240000 8.906021 -0.004138 0.000000 0.000000
    17 1.105526 -0.256964 -0.086338 0.151142 0.106116 0.723642
    18 0.030770 -0.276858 8.905140 0.056125 0.004134 -0.000049
    19 -0.622378 0.266509 -0.028520 -0.085750 -0.189112 0.126712
    20 5.669724 4.435303 14.302868 -0.332563 -1.245590 3.583799
    21 -1.044571 -2.839317 19.743267 -0.188412 -0.434947 0.084613
    22 2.655533 -1.533369 24.792658 -0.958244 0.101179 -0.056267
    23 1.120163 -0.154394 9.796035 -0.059317 -0.007452 -0.523951
    24 2.240311 -0.308786 19.592051 -0.168583 0.003011 -1.046018
    25 0.683151 2.877354 14.167051 -1.511326 -0.211735 1.554295
    26 0.144936 -0.145374 7.579252 -1.768042 -0.243277 0.235266
    27 0.091660 -0.906685 4.702850 -1.587439 -0.182555 0.191106
    28 0.506271 8.500866 13.617253 -1.470526 -0.303331 1.571638
    29 -0.384987 -0.460049 7.003448 -1.747475 -0.440890 0.551344
    30 0.561516 -0.596954 5.061852 -1.494372 -0.380557 0.386326
    31 -2.452171 -8.899406 11.597897 -1.564465 -0.075967 1.475308
    32 0.680496 -0.903999 6.074253 -1.628053 0.173825 -0.014264
    33 0.245514 -0.661150 3.388004 -1.484370 0.109511 -0.099205
    34 -0.717484 -3.784271 13.043911 -1.593546 -0.028658 1.464722
    35 1.099216 -1.407745 8.017889 -1.782123 0.031969 -0.017454
    36 0.068439 -0.807653 3.686054 -1.465865 0.034013 -0.009744
    37 -4.004929 6.172707 4.754754 0.109467 1.126800 2.530891
    38 0.158352 -1.149811 5.804394 -0.869542 -0.330219 0.145630
    39 -1.083523 -1.463142 5.544399 -0.797671 -0.152792 -0.023938
    40 -6.289886 0.932434 13.569063 -0.126803 0.612110 2.869610
    41 1.327774 -0.766687 12.396328 -0.009494 0.004953 -0.086485
    42 -0.096140 1.828087 23.185329 -0.018760 -0.057507 -1.852097
    43 2.325478 -0.000003 6.169296 0.057011 -0.172389 1.003330
    44 0.000000 -3.152912 0.122169 1.961017 0.000000 0.000000
    45 1.068383 -10.478592 7.066338 0.292219 -1.282324 -3.141588
    46 0.000000 0.000000 2.279457 0.547137 -0.343566 0.107833
    47 2.479414 -8.323895 6.074242 -0.029870 -0.354813 1.046993
    48 0.000000 -5.074219 5.929688 0.000000 0.000000 0.000000
    49 -1.068383 -10.478611 7.065971 0.292219 1.282324 3.141588
    50 -0.000488 0.000015 2.279600 0.547136 0.343566 0.107835
    51 -2.479401 -8.323895 6.074234 -0.014122 -0.358275 1.046550
    52 -5.790000 4.432083 14.255558 0.233570 0.964602 -1.778811
    53 1.044540 -2.839314 19.743252 -0.736275 0.081525 -0.002317
    54 -2.655510 -1.533379 24.792648 -1.189671 -0.129874 0.437400
    55 -1.120216 -0.154385 9.795983 -0.050784 0.004344 0.445296
    56 -2.240372 -0.308788 19.592047 0.083388 0.554347 0.988962
    57 -0.683205 2.877342 14.167089 -1.604576 0.208954 -1.789836
    58 -0.144958 -0.145317 7.579308 -1.541391 0.304896 -0.166506
    59 -0.038551 -0.936644 4.697678 -2.189566 0.238585 -0.365176
    60 -0.506317 8.500896 13.617329 -1.710280 0.278186 -1.993619
    61 0.385056 -0.460075 7.003435 -1.471905 0.596196 -0.385484
    62 -0.456360 -0.710276 5.057732 -1.989932 0.545832 -0.699272
    63 2.452194 -8.899408 11.597939 -1.419551 0.110567 -1.352644
    64 -0.680515 -0.903999 6.074242 -1.453600 -0.173887 -0.003174
    65 -0.248295 -0.666843 3.386627 -1.668601 -0.122156 0.124627
    66 0.717491 -3.784309 13.044010 -1.725758 0.009831 -1.454341
    67 -1.099228 -1.407673 8.017876 -1.350904 -0.015601 0.007733
    68 -0.064053 -0.807640 3.686100 -1.839904 -0.037754 0.018152
    69 4.004906 6.172710 4.754800 -0.720270 -0.940273 -1.497138
    70 -0.158381 -1.149773 5.804405 -0.345802 0.685528 0.599784
    71 1.078559 -2.386406 5.215008 -1.052491 1.087709 -0.156300
    72 6.289963 0.932404 13.569109 -0.126801 -0.612098 -2.869612
    73 -1.327759 -0.766682 12.396324 -0.031157 -0.012706 0.273060
    74 0.000017 -54.999996 0.000000 0.000000 0.000000 -1.570796
  time 15
    0 0.000000 0.000000 -1.500000 0.000000 0.000000 0.000000
    1 -10.521344 -5.760963 66.994621 3.097005 -0.050653 -3.139334
    2 1.668391 21.311333 10.062862 0.235665 0.398026 0.504146
    3 -0.000034 0.000012 24.761454 -1.031303 -0.119655 0.280473
    4 0.000017 0.000000 24.344809 1.563563 -0.234287 -0.104863
    5 0.002333 -1.019846 24.031336 0.460109 -0.043813 0.014109
    6 0.000034 0.000008 13.404741 -0.000001 -0.000009 0.107341
    7 10.398263 -5.760962 66.994675 3.097005 0.050653 3.139334
    8 4.374967 13.012617 9.251036 0.674410 -0.469141 0.208823
    9 -0.000004 -0.000006 24.761459 -0.778693 0.090408 -0.807191
    10 -0.000007 0.000004 24.344891 0.938559 -0.089566 -0.087996
    11 -0.002360 -1.019903 24.031330 0.394848 0.101863 0.091074
    12 0.000000 -0.000002 13.404737 0.000001 0.000005 -0.402746
    13 -0.061540 -5.245835 72.927078 0.000000 0.000000 0.000000
    14 -2.604224 18.358012 -9.063077 -0.141415 0.061717 0.471897
    15 0.000000 -0.005608 -1.146812 -0.008065 0.063395 -0.881313
    16 0.030770 -0.240000 8.906021 -0.004138 0.000000 0.000000
    17 1.066462 -0.284309 -0.082432 0.148743 0.100634 0.706870
    18 0.030770 -0.276858 8.905140 0.056125 0.004134 -0.000049
    19 -0.602846 0.254790 -0.028520 -0.080459 -0.183784 0.123200
    20 5.669724 4.435303 14.302868 -0.238005 -1.202956 3.553899
    21 -1.044571 -2.839317 19.743267 -0.154901 -0.335798 0.081568
    22 2.655533 -1.533369 24.792658 -0.915672 0.101410 -0.139646
    23 1.120163 -0.154394 9.796035 -0.065777 -0.010304 -0.585004
    24 2.240311 -0.308786 19.592051 -0.183032 -0.011263 -1.167435
    25 0.683151 2.877354 14.167051 -1.511326 -0.211747 1.554295
    26 0.144936 -0.145374 7.579252 -1.768042 -0.243277 0.235266
    27 0.091660 -0.906685 4.702850 -1.587439 -0.182555 0.191106
    28 0.506271 8.500866 13.617253 -1.470526 -0.303331 1.571638
    29 -0.384987 -0.460049 7.003448 -1.747475 -0.440890 0.551344
    30 0.561516 -0.596954 5.061852 -1.494372 -0.380557 0.386326
    31 -2.452171 -8.899406 11.597897 -1.564465 -0.075967 1.475308
    32 0.680496 -0.903999 6.074253 -1.628053 0.173825 -0.014264
    33 0.245514 -0.661150 3.388004 -1.484370 0.109511 -0.099205
    34 -0.717484 -3.784271 13.043911 -1.593590 -0.028646 1.464722
    35 1.099216 -1.407745 8.017889 -1.782123 0.031969 -0.017454
    36 0.068439 -0.807653 3.686054 -1.465865 0.034013 -0.009744
    37 -4.004929 6.172707 4.754754 0.109467 1.126800 2.530891
    38 0.158352 -1.149811 5.804394 -0.869542 -0.330219 0.145630
    39 -1.083523 -1.463142 5.544399 -0.797671 -0.152792 -0.023938
    40 -6.289886 0.932434 13.569063 -0.126803 0.612110 2.869610
    41 1.327774 -0.766687 12.396328 -0.014539 0.007182 -0.131227
    42 -0.096140 1.828087 23.185329 -0.038107 -0.057730 -1.863440
    43 2.325478 -0.000003 6.169296 0.065319 -0.187654 1.000695
    44 0.000000 -3.152912 0.122169 1.961017 0.000000 0.000000
    45 1.068383 -10.478592 7.066338 0.292219 -1.282324 -3.141588
    46 0.000000 0.000000 2.279457 0.547137 -0.343566 0.107833
    47 2.479414 -8.323895 6.074242 -0.028130 -0.337813 1.092455
    48 0.000000 -5.074219 5.929688 0.000000 0.000000 0.000000
    49 -1.068383 -10.478611 7.065971 0.292219 1.282324 3.141588
    50 -0.000488 0.000015 2.279600 0.547136 0.343566 0.107835
    51 -2.479401 -8.323895 6.074234 -0.012013 -0.339752 1.092729
    52 -5.790000 4.432083 14.255558 -5.922602 1.011082 -1.597145
    53 1.044540 -2.839314 19.743252 -0.704885 0.112390 -0.016006
    54 -2.655510 -1.533379 24.792648 -1.242110 -0.134223 0.320548
    55 -1.120216 -0.154385 9.795983 -0.053504 0.005255 0.470133
    56 -2.240372 -0.308788 19.592047 0.121877 0.500487 1.037765
    57 -0.683205 2.877342 14.167089 -1.604576 0.208954 -1.789836
    58 -0.144958 -0.145317 7.579308 -1.541391 0.304896 -0.166506
    59 -0.038551 -0.936644 4.697678 -2.189566 0.238585 -0.365164
    60 -0.506317 8.500896 13.617329 -1.710280 0.278186 -1.993619
    61 0.385056 -0.460075 7.003435 -1.471905 0.596196 -0.385484
    62 -0.456360 -0.710276 5.057732 -1.989932 0.545832 -0.699272
    63 2.452194 -8.899408 11.597939 -1.419551 0.110567 -1.352644
    64 -0.680515 -0.903999 6.074242 -1.453600 -0.173887 -0.003174
    65 -0.248295 -0.666843 3.386627 -1.668601 -0.122156 0.124627
    66 0.717491 -3.784309 13.044010 -1.725758 0.009831 -1.454341
    67 -1.099228 -1.407673 8.017876 -1.350904 -0.015601 0.007733
    68 -0.064053 -0.807640 3.686100 -1.839904 -0.037754 0.018152
    69 4.004906 6.172710 4.754800 -0.720270 -0.940273 -1.497138
    70 -0.158381 -1.149773 5.804405 -0.345802 0.685528 0.599784
    71 1.078559 -2.386406 5.215008 -1.052491 1.087709 -0.156300
    72 6.289963 0.932404 13.569109 -0.126801 -0.612098 -2.869612
    73 -1.327759 -0.766682 12.396324 -0.023655 -0.010537 0.209770
    74 0.000017 -54.999996 0.000000 0.000000 0.000000 -1.570796
  time 16
    0 0.000000 0.000000 -1.500000 0.000000 0.000000 0.000000
    1 -10.521344 -5.760963 66.994621 3.097005 -0.050653 -3.139334
    2 3.223126 23.103774 10.399230 0.250285 0.358389 0.494316
    3 -0.000034 0.000012 24.761454 -1.052970 -0.122160 0.300384
    4 0.000017 0.000000 24.344809 1.595188 -0.207329 -0.089696
    5 0.002333 -1.019846 24.031336 0.440882 -0.043537 0.014948
    6 0.000034 0.000008 13.404741 -0.000001 -0.000009 0.118500
    7 10.398263 -5.760962 66.994675 3.097005 0.050653 3.139334
    8 5.933608 14.848554 9.228555 0.661272 -0.478908 0.212124
    9 -0.000004 -0.000006 24.761459 -0.677828 0.078735 -0.798399
    10 -0.000007 0.000004 24.344891 0.840136 -0.067657 -0.069226
    11 -0.002360 -1.019903 24.031330 0.394663 0.099886 0.089564
    12 0.000000 -0.000002 13.404737 0.000001 0.000005 -0.398302
    13 -0.061540 -5.245835 72.927078 0.000000 0.000000 0.000000
    14 -4.276150 20.116511 -9.108139 -0.135302 0.017243 0.469255
    15 0.000000 -0.005608 -1.146812 -0.035210 0.076696 -0.874220
    16 0.030770 -0.240000 8.906021 -0.004138 0.000000 0.000000
    17 1.023492 -0.315560 -0.082432 0.145818 0.095443 0.681992
    18 0.030770 -0.276858 8.905140 0.056125 0.004134 -0.000049
    19 -0.595034 0.239164 -0.024614 -0.075348 -0.182776 0.119785
    20 5.669724 4.435303 14.302868 -0.161728 -1.170223 3.557540
    21 -1.044571 -2.839317 19.743267 -0.125941 -0.245885 0.083062
    22 2.655533 -1.533369 24.792658 -0.865071 0.100257 -0.210490
    23 1.120163 -0.154394 9.796035 -0.071242 -0.013109 -0.638158
    24 2.240311 -0.308786 19.592051 -0.191344 -0.019643 -1.274413
    25 0.683151 2.877354 14.167051 -1.511326 -0.211747 1.554295
    26 0.144936 -0.145374 7.579252 -1.768042 -0.243277 0.235266
    27 0.091660 -0.906685 4.702850 -1.587439 -0.182555 0.191118
    28 0.506271 8.500866 13.617253 -1.470526 -0.303331 1.571638
    29 -0.384987 -0.460049 7.003448 -1.747475 -0.440890 0.551344
    30 0.561516 -0.596954 5.061852 -1.494372 -0.380557 0.386326
    31 -2.452171 -8.899406 11.597897 -1.564465 -0.075967 1.475308
    32 0.680496 -0.903999 6.074253 -1.628053 0.173825 -0.014264
    33 0.245514 -0.661150 3.388004 -1.484370 0.109511 -0.099205
    34 -0.717484 -3.784271 13.043911 -1.593546 -0.028646 1.464722
    35 1.099216 -1.407745 8.017889 -1.782123 0.031969 -0.017454
    36 0.068439 -0.807653 3.686054 -1.465865 0.034013 -0.009744
    37 -4.004929 6.172707 4.754754 0.109467 1.126800 2.530891
    38 0.158352 -1.149811 5.804394 -0.869542 -0.330219 0.145630
    39 -1.083523 -1.463142 5.544399 -0.797671 -0.152792 -0.023938
    40 -6.289886 0.932434 13.569063 -0.126803 0.612110 2.869610
    41 1.327774 -0.766687 12.396328 -0.018758 0.008824 -0.167885
    42 -0.096140 1.828087 23.185329 -0.057865 -0.059737 -1.864418
    43 2.325478 -0.000003 6.169296 0.070429 -0.196943 0.998979
    44 0.000000 -3.152912 0.122169 1.961017 0.000000 0.000000
    45 1.068383 -10.478592 7.066338 0.292219 -1.282324 -3.141588
    46 0.000000 0.000000 2.279457 0.547137 -0.343566 0.107833
    47 2.479414 -8.323895 6.074242 -0.026472 -0.321847 1.135911
    48 0.000000 -5.074219 5.929688 0.000000 0.000000 0.000000
    49 -1.068383 -10.478611 7.065971 0.292219 1.282324 3.141588
    50 -0.000488 0.000015 2.279600 0.547136 0.343566 0.107835
    51 -2.479401 -8.323895 6.074234 -0.010065 -0.322269 1.136896
    52 -5.790000 4.432083 14.255558 -5.815049 1.032224 -1.463579
    53 1.044540 -2.839314 19.743252 -0.680508 0.147156 -0.028879
    54 -2.655510 -1.533379 24.792648 -1.289517 -0.137239 0.225280
    55 -1.120216 -0.154385 9.795983 -0.055326 0.005902 0.486918
    56 -2.240372 -0.308788 19.592047 0.140052 0.457023 1.065517
    57 -0.683205 2.877342 14.167089 -1.604576 0.208954 -1.789836
    58 -0.144958 -0.145317 7.579308 -1.541391 0.304896 -0.166506
    59 -0.038551 -0.936644 4.697678 -2.189566 0.238585 -0.365176
    60 -0.506317 8.500896 13.617329 -1.710280 0.278186 -1.993619
    61 0.385056 -0.460075 7.003435 -1.471905 0.596196 -0.385484
    62 -0.456360 -0.710276 5.057732 -1.989932 0.545832 -0.699272
    63 2.452194 -8.899408 11.597939 -1.419551 0.110567 -1.352620
    64 -0.680515 -0.903999 6.074242 -1.453600 -0.173887 -0.003174
    65 -0.248295 -0.666843 3.386627 -1.668601 -0.122156 0.124627
    66 0.717491 -3.784309 13.044010 -1.725758 0.009831 -1.454341
    67 -1.099228 -1.407673 8.017876 -1.350904 -0.015601 0.007733
    68 -0.064053 -0.807640 3.686100 -1.839904 -0.037754 0.018152
    69 4.004906 6.172710 4.754800 -0.720270 -0.940273 -1.497138
    70 -0.158381 -1.149773 5.804405 -0.345802 0.685528 0.599784
    71 1.078559 -2.386406 5.215008 -1.052491 1.087709 -0.156300
    72 6.289963 0.932404 13.569109 -0.126801 -0.612098 -2.869612
    73 -1.327759 -0.766682 12.396324 -0.018166 -0.008608 0.162673
    74 0.000017 -54.999996 0.000000 0.000000 0.000000 -1.570796
  time 17
    0 0.000000 0.000000 -1.500000 0.000000 0.000000 0.000000
    1 -10.521344 -5.760963 66.994621 3.097005 -0.050653 -3.139334
    2 3.992681 24.257811 10.690749 0.259030 0.338682 0.477670
    3 -0.000034 0.000012 24.761454 -1.067158 -0.123802 0.325222
    4 0.000017 0.000000 24.344809 1.615840 -0.186799 -0.077574
    5 0.002333 -1.019846 24.031336 0.424866 -0.043285 0.015667
    6 0.000034 0.000008 13.404741 -0.000001 -0.000009 0.130523
    7 10.398263 -5.760962 66.994675 3.097005 0.050653 3.139334
    8 6.648474 16.197406 9.251036 0.648646 -0.473055 0.218725
    9 -0.000004 -0.000006 24.761459 -0.593462 0.068968 -0.788530
    10 -0.000007 0.000004 24.344891 0.767658 -0.056658 -0.058759
    11 -0.002360 -1.019903 24.031330 0.394456 0.097848 0.088042
    12 0.000000 -0.000002 13.404737 0.000001 0.000005 -0.396799
    13 -0.061540 -5.245835 72.927078 0.000000 0.000000 0.000000
    14 -5.155083 21.269435 -9.175732 -0.126245 -0.025029 0.465051
    15 0.000000 -0.005608 -1.146812 -0.049309 0.086123 -0.859627
    16 0.030770 -0.240000 8.906021 -0.004138 0.000000 0.000000
    17 0.968803 -0.354624 -0.078526 0.142367 0.090480 0.647409
    18 0.030770 -0.276858 8.905140 0.056125 0.004134 -0.000049
    19 -0.598940 0.219632 -0.024614 -0.070379 -0.187199 0.116441
    20 5.669724 4.435303 14.302868 -0.100189 -1.150316 3.594053
    21 -1.044571 -2.839317 19.743267 -0.114738 -0.163434 0.087095
    22 2.655533 -1.533369 24.792658 -0.804360 0.097721 -0.260954
    23 1.120163 -0.154394 9.796035 -0.075532 -0.015589 -0.681171
    24 2.240311 -0.308786 19.592051 -0.194564 -0.017755 -1.362717
    25 0.683151 2.877354 14.167051 -1.511326 -0.211747 1.554295
    26 0.144936 -0.145374 7.579252 -1.768042 -0.243277 0.235266
    27 0.091660 -0.906685 4.702850 -1.587439 -0.182555 0.191106
    28 0.506271 8.500866 13.617253 -1.470526 -0.303331 1.571638
    29 -0.384987 -0.460049 7.003448 -1.747475 -0.440890 0.551344
    30 0.561516 -0.596954 5.061852 -1.494372 -0.380557 0.386326
    31 -2.452171 -8.899406 11.597897 -1.564465 -0.075967 1.475308
    32 0.680496 -0.903999 6.074253 -1.628053 0.173825 -0.014264
    33 0.245514 -0.661150 3.388004 -1.484370 0.109511 -0.099205
    34 -0.717484 -3.784271 13.043911 -1.593590 -0.028646 1.464722
    35 1.099216 -1.407745 8.017889 -1.782123 0.031969 -0.017454
    36 0.068439 -0.807653 3.686054 -1.465865 0.034013 -0.009744
    37 -4.004929 6.172707 4.754754 0.109467 1.126800 2.530891
    38 0.158352 -1.149811 5.804394 -0.869542 -0.330219 0.145630
    39 -1.083523 -1.463142 5.544399 -0.797671 -0.152792 -0.023938
    40 -6.289886 0.932434 13.569063 -0.126803 0.612110 2.869610
    41 1.327774 -0.766687 12.396328 -0.021550 0.009806 -0.191989
    42 -0.096140 1.828087 23.185329 -0.078120 -0.063306 -1.852923
    43 2.325478 -0.000003 6.169296 0.071479 -0.199012 0.998420
    44 0.000000 -3.152912 0.122169 1.961017 0.000000 0.000000
    45 1.068383 -10.478592 7.066338 0.292219 -1.282324 -3.141588
    46 0.000000 0.000000 2.279457 0.547137 -0.343566 0.107833
    47 2.479414 -8.323895 6.074242 -0.024949 -0.307806 1.174496
    48 0.000000 -5.074219 5.929688 0.000000 0.000000 0.000000
    49 -1.068383 -10.478611 7.065971 0.292219 1.282324 3.141588
    50 -0.000488 0.000015 2.279600 0.547136 0.343566 0.107835
    51 -2.479401 -8.323895 6.074234 -0.008277 -0.306913 1.176081
    52 -5.790000 4.432083 14.255558 -5.774789 1.035090 -1.428990
    53 1.044540 -2.839314 19.743252 -0.670323 0.183151 -0.039629
    54 -2.655510 -1.533379 24.792648 -1.330129 -0.139724 0.162651
    55 -1.120216 -0.154385 9.795983 -0.056045 0.006178 0.493474
    56 -2.240372 -0.308788 19.592047 0.138143 0.433261 1.071790
    57 -0.683205 2.877342 14.167089 -1.604576 0.208954 -1.789836
    58 -0.144958 -0.145317 7.579308 -1.541391 0.304896 -0.166506
    59 -0.038551 -0.936644 4.697678 -2.189566 0.238585 -0.365176
    60 -0.506317 8.500896 13.617329 -1.710280 0.278186 -1.993619
    61 0.385056 -0.460075 7.003435 -1.471905 0.596196 -0.385484
    62 -0.456360 -0.710276 5.057732 -1.989932 0.545832 -0.699272
    63 2.452194 -8.899408 11.597939 -1.419551 0.110567 -1.352620
    64 -0.680515 -0.903999 6.074242 -1.453600 -0.173887 -0.003174
    65 -0.248295 -0.666843 3.386627 -1.668601 -0.122156 0.124627
    66 0.717491 -3.784309 13.044010 -1.725758 0.009831 -1.454341
    67 -1.099228 -1.407673 8.017876 -1.350904 -0.015601 0.007733
    68 -0.064053 -0.807640 3.686100 -1.839904 -0.037754 0.018152
    69 4.004906 6.172710 4.754800 -0.720270 -0.940273 -1.497138
    70 -0.158381 -1.149773 5.804405 -0.345802 0.685528 0.599784
    71 1.078559 -2.386406 5.215008 -1.052491 1.087709 -0.156300
    72 6.289963 0.932404 13.569109 -0.126801 -0.612098 -2.869612
    73 -1.327759 -0.766682 12.396324 -0.014906 -0.007325 0.134451
    74 0.000017 -54.999996 0.000000 0.000000 0.000000 -1.570796
end
