// Created by Crowbar 0.74
version 1
nodes
  0 "root" -1
  1 "g_r_hip_offset" 0
  2 "g_r_hip" 1
  3 "g_r_knee" 2
  4 "g_r_ankle" 3
  5 "g_r_ball" 4
  6 "g_r_thightwist" 2
  7 "g_l_hip_offset" 0
  8 "g_l_hip" 7
  9 "g_l_knee" 8
  10 "g_l_ankle" 9
  11 "g_l_ball" 10
  12 "g_l_thightwist" 8
  13 "g_spine01_offset" 0
  14 "g_spine01" 13
  15 "g_pelvis" 14
  16 "g_spine02_offset" 14
  17 "g_spine02" 16
  18 "g_spine03_offset" 17
  19 "g_spine03" 18
  20 "g_l_clavical" 19
  21 "g_l_shoulder" 20
  22 "g_l_elbow" 21
  23 "g_l_forarm" 22
  24 "g_l_wrist" 22
  25 "g_l_birdy1" 24
  26 "g_l_birdy2" 25
  27 "g_l_birdy3" 26
  28 "g_l_index1" 24
  29 "g_l_index2" 28
  30 "g_l_index3" 29
  31 "g_l_pinky1" 24
  32 "g_l_pinky2" 31
  33 "g_l_pinky3" 32
  34 "g_l_ring1" 24
  35 "g_l_ring2" 34
  36 "g_l_ring3" 35
  37 "g_l_thumb1" 24
  38 "g_l_thumb2" 37
  39 "g_l_thumb3" 38
  40 "g_l_palm" 24
  41 "g_l_biceptwist" 21
  42 "g_neck" 19
  43 "g_head" 42
  44 "g_jaw" 43
  45 "g_l_brow" 43
  46 "g_l_brow2" 45
  47 "g_l_eye" 43
  48 "g_topeyelid" 43
  49 "g_r_brow" 43
  50 "g_r_brow2" 49
  51 "g_r_eye" 43
  52 "g_r_clavical" 19
  53 "g_r_shoulder" 52
  54 "g_r_elbow" 53
  55 "g_r_forarm" 54
  56 "g_r_wrist" 54
  57 "g_r_birdy1" 56
  58 "g_r_birdy2" 57
  59 "g_r_birdy3" 58
  60 "g_r_index1" 56
  61 "g_r_index2" 60
  62 "g_r_index3" 61
  63 "g_r_pinky1" 56
  64 "g_r_pinky2" 63
  65 "g_r_pinky3" 64
  66 "g_r_ring1" 56
  67 "g_r_ring2" 66
  68 "g_r_ring3" 67
  69 "g_r_thumb1" 56
  70 "g_r_thumb2" 69
  71 "g_r_thumb3" 70
  72 "g_r_palm" 56
  73 "g_r_biceptwist" 53
  74 "g_throwable_attach_offset" 0
end
skeleton
  time 0
    0 0.000000 0.000000 -1.500000 0.000000 0.000000 0.000000
    1 -10.521344 -5.760963 66.994621 3.097005 -0.050653 -3.139334
    2 -8.242068 26.037975 11.228938 0.574801 0.404512 0.876821
    3 -0.000034 0.000012 24.761454 -1.016872 -0.117990 0.123016
    4 0.000017 0.000000 24.344809 1.349094 -0.289833 -0.099634
    5 0.002333 -1.019846 24.031336 0.389473 -0.075284 -0.007092
    6 0.000034 0.000008 13.404741 -0.000001 -0.000009 -0.038245
    7 10.398263 -5.760962 66.994675 3.097005 0.050653 3.139334
    8 0.062335 10.527232 8.216948 0.267225 -0.625486 0.863427
    9 -0.000004 -0.000006 24.761459 -0.638120 0.074121 -0.728848
    10 -0.000007 0.000004 24.344891 1.032335 0.276467 0.052030
    11 -0.002360 -1.019903 24.031330 0.390193 -0.065717 -0.034429
    12 0.000000 -0.000002 13.404737 0.000001 0.000005 -0.367085
    13 -0.061540 -5.245835 72.927078 0.000000 0.000000 0.000000
    14 2.798284 18.101806 -9.175732 0.106874 -0.135432 -0.560722
    15 0.000000 -0.005608 -1.146812 0.133750 -0.031640 -0.290142
    16 0.030770 -0.240000 8.906021 -0.004138 0.000000 0.000000
    17 -0.949224 -1.292152 -0.203529 0.257287 0.017796 -0.615331
    18 0.030770 -0.276858 8.905140 0.056125 0.004134 -0.000049
    19 -0.200490 0.137599 0.018356 0.022843 -0.081565 -0.065161
    20 5.669724 4.435303 14.302868 1.858427 -1.278675 0.622159
    21 -1.044571 -2.839317 19.743267 -0.734805 -0.486662 0.140846
    22 2.655533 -1.533369 24.792658 -1.345124 0.117472 0.268919
    23 1.120163 -0.154394 9.796035 -0.052713 -0.004995 -0.462967
    24 2.240311 -0.308786 19.592051 -0.115622 -0.287213 -0.914828
    25 0.683151 2.877354 14.167051 -1.536889 -0.214947 1.618324
    26 0.144936 -0.145374 7.579252 -1.706522 -0.244103 0.223785
    27 0.091660 -0.906685 4.702850 -1.749253 -0.180014 0.222386
    28 0.506271 8.500866 13.617253 -1.537753 -0.312071 1.687493
    29 -0.384987 -0.460049 7.003448 -1.672899 -0.448348 0.524226
    30 0.561516 -0.596954 5.061852 -1.620753 -0.377764 0.434432
    31 -2.452171 -8.899406 11.597897 -1.526768 -0.090641 1.443272
    32 0.680496 -0.903999 6.074253 -1.580748 0.169913 -0.010830
    33 0.245514 -0.661150 3.388004 -1.534325 0.107977 -0.102992
    34 -0.717484 -3.784271 13.043911 -1.629483 -0.023397 1.462140
    35 1.099216 -1.407745 8.017889 -1.664774 0.029565 -0.013313
    36 0.068439 -0.807653 3.686054 -1.567568 0.036441 -0.012748
    37 -4.004929 6.172707 4.754754 -0.171221 1.124959 2.190117
    38 0.158352 -1.149811 5.804394 -0.790931 -0.421814 0.138583
    39 -1.083523 -1.463142 5.544399 -0.959336 -0.222093 0.106857
    40 -6.289886 0.932434 13.569063 -0.126803 0.612110 2.869610
    41 1.327774 -0.766687 12.396328 0.007201 -0.004479 0.068682
    42 -0.096140 1.828087 23.185329 -0.150851 -0.055627 -1.084497
    43 2.325478 -0.000003 6.169296 -0.091970 0.137853 2.048482
    44 0.000000 -3.152912 0.122169 1.961017 0.000000 0.000000
    45 1.068383 -10.478592 7.066338 0.292219 -1.282324 -3.141588
    46 0.000000 0.000000 2.279457 0.547137 -0.343566 0.107833
    47 2.479414 -8.323895 6.074242 0.005173 -0.303345 1.894530
    48 0.000005 -5.074219 5.929688 0.000000 0.000000 0.000000
    49 -1.068383 -10.478611 7.065971 0.292219 1.282324 3.141588
    50 -0.000488 0.000015 2.279600 0.547136 0.343566 0.107835
    51 -2.479401 -8.323895 6.074234 0.022290 -0.295809 1.897220
    52 -5.790000 4.432083 14.255558 -5.565819 0.939099 -3.211633
    53 1.044540 -2.839314 19.743252 -0.037287 0.495533 -0.060612
    54 -2.655510 -1.533379 24.792648 -0.640267 -0.071243 0.811053
    55 -1.120216 -0.154385 9.795983 -0.047248 0.003302 0.413412
    56 -2.240372 -0.308788 19.592047 0.188698 -0.323601 0.838172
    57 -0.683205 2.877342 14.167089 -1.579580 0.213650 -1.725842
    58 -0.144958 -0.145317 7.579308 -1.604248 0.307337 -0.182066
    59 -0.038551 -0.936644 4.697678 -2.026447 0.253338 -0.327257
    60 -0.506317 8.500896 13.617329 -1.648920 0.300284 -1.881090
    61 0.385056 -0.460075 7.003435 -1.557201 0.597641 -0.428269
    62 -0.456360 -0.710276 5.057732 -1.856623 0.561572 -0.633873
    63 2.452194 -8.899408 11.597939 -1.460551 0.106501 -1.387083
    64 -0.680515 -0.903999 6.074242 -1.500832 -0.178429 0.000439
    65 -0.248295 -0.666843 3.386627 -1.618646 -0.123957 0.120320
    66 0.717491 -3.784309 13.044010 -1.689778 0.014817 -1.457411
    67 -1.099228 -1.407673 8.017876 -1.468305 -0.018745 0.010267
    68 -0.064053 -0.807640 3.686100 -1.738177 -0.036450 0.014686
    69 4.004906 6.172710 4.754800 -0.564684 -1.032431 -1.703794
    70 -0.158381 -1.149773 5.804405 -0.458749 0.656844 0.463657
    71 1.078559 -2.386406 5.215008 -0.978788 0.865393 -0.121205
    72 6.289963 0.932404 13.569109 -0.126801 -0.612098 -2.869612
    73 -1.327759 -0.766682 12.396324 -0.049038 -0.015882 0.420460
    74 0.000017 -54.999996 0.000000 0.000000 0.000000 -1.570796
  time 1
    0 0.000000 0.000000 -1.500000 0.000000 0.000000 0.000000
    1 -10.521344 -5.760963 66.994621 3.097005 -0.050653 -3.139334
    2 -8.242068 26.037975 11.228938 0.574801 0.404512 0.876821
    3 -0.000034 0.000012 24.761454 -1.016872 -0.117990 0.123016
    4 0.000017 0.000000 24.344809 1.349094 -0.289833 -0.099634
    5 0.002333 -1.019846 24.031336 0.389473 -0.075284 -0.007092
    6 0.000034 0.000008 13.404741 -0.000001 -0.000009 -0.038245
    7 10.398263 -5.760962 66.994675 3.097005 0.050653 3.139334
    8 0.062335 10.527232 8.216948 0.267225 -0.625486 0.863427
    9 -0.000004 -0.000006 24.761459 -0.638120 0.074121 -0.728848
    10 -0.000007 0.000004 24.344891 1.032335 0.276467 0.052030
    11 -0.002360 -1.019903 24.031330 0.390193 -0.065717 -0.034429
    12 0.000000 -0.000002 13.404737 0.000001 0.000005 -0.367085
    13 -0.061540 -5.245835 72.927078 0.000000 0.000000 0.000000
    14 2.798284 18.101806 -9.175732 0.106874 -0.135432 -0.560722
    15 0.000000 -0.005608 -1.146812 0.133750 -0.031640 -0.290142
    16 0.030770 -0.240000 8.906021 -0.004138 0.000000 0.000000
    17 -0.949224 -1.292152 -0.203529 0.257287 0.017796 -0.615331
    18 0.030770 -0.276858 8.905140 0.056125 0.004134 -0.000049
    19 -0.200490 0.137599 0.018356 0.022843 -0.081565 -0.065161
    20 5.669724 4.435303 14.302868 1.858427 -1.278675 0.622159
    21 -1.044571 -2.839317 19.743267 -0.734805 -0.486662 0.140846
    22 2.655533 -1.533369 24.792658 -1.345124 0.117472 0.268919
    23 1.120163 -0.154394 9.796035 -0.052713 -0.004995 -0.462967
    24 2.240311 -0.308786 19.592051 -0.115622 -0.287213 -0.914828
    25 0.683151 2.877354 14.167051 -1.536889 -0.214947 1.618324
    26 0.144936 -0.145374 7.579252 -1.706522 -0.244103 0.223785
    27 0.091660 -0.906685 4.702850 -1.749253 -0.180014 0.222386
    28 0.506271 8.500866 13.617253 -1.537753 -0.312071 1.687493
    29 -0.384987 -0.460049 7.003448 -1.672899 -0.448348 0.524226
    30 0.561516 -0.596954 5.061852 -1.620753 -0.377764 0.434432
    31 -2.452171 -8.899406 11.597897 -1.526768 -0.090641 1.443272
    32 0.680496 -0.903999 6.074253 -1.580748 0.169913 -0.010830
    33 0.245514 -0.661150 3.388004 -1.534325 0.107977 -0.102992
    34 -0.717484 -3.784271 13.043911 -1.629483 -0.023397 1.462140
    35 1.099216 -1.407745 8.017889 -1.664774 0.029565 -0.013313
    36 0.068439 -0.807653 3.686054 -1.567568 0.036441 -0.012748
    37 -4.004929 6.172707 4.754754 -0.171221 1.124959 2.190117
    38 0.158352 -1.149811 5.804394 -0.790931 -0.421814 0.138583
    39 -1.083523 -1.463142 5.544399 -0.959336 -0.222093 0.106857
    40 -6.289886 0.932434 13.569063 -0.126803 0.612110 2.869610
    41 1.327774 -0.766687 12.396328 0.007201 -0.004479 0.068682
    42 -0.096140 1.828087 23.185329 -0.150851 -0.055627 -1.084497
    43 2.325478 -0.000003 6.169296 -0.091970 0.137853 2.048482
    44 0.000000 -3.152912 0.122169 1.961017 0.000000 0.000000
    45 1.068383 -10.478592 7.066338 0.292219 -1.282324 -3.141588
    46 0.000000 0.000000 2.279457 0.547137 -0.343566 0.107833
    47 2.479414 -8.323895 6.074242 0.005173 -0.303345 1.894530
    48 0.000005 -5.074219 5.929688 0.000000 0.000000 0.000000
    49 -1.068383 -10.478611 7.065971 0.292219 1.282324 3.141588
    50 -0.000488 0.000015 2.279600 0.547136 0.343566 0.107835
    51 -2.479401 -8.323895 6.074234 0.022290 -0.295809 1.897220
    52 -5.790000 4.432083 14.255558 -5.565819 0.939099 -3.211633
    53 1.044540 -2.839314 19.743252 -0.037287 0.495533 -0.060612
    54 -2.655510 -1.533379 24.792648 -0.640267 -0.071243 0.811053
    55 -1.120216 -0.154385 9.795983 -0.047248 0.003302 0.413412
    56 -2.240372 -0.308788 19.592047 0.188698 -0.323601 0.838172
    57 -0.683205 2.877342 14.167089 -1.579580 0.213650 -1.725842
    58 -0.144958 -0.145317 7.579308 -1.604248 0.307337 -0.182066
    59 -0.038551 -0.936644 4.697678 -2.026447 0.253338 -0.327257
    60 -0.506317 8.500896 13.617329 -1.648920 0.300284 -1.881090
    61 0.385056 -0.460075 7.003435 -1.557201 0.597641 -0.428269
    62 -0.456360 -0.710276 5.057732 -1.856623 0.561572 -0.633873
    63 2.452194 -8.899408 11.597939 -1.460551 0.106501 -1.387083
    64 -0.680515 -0.903999 6.074242 -1.500832 -0.178429 0.000439
    65 -0.248295 -0.666843 3.386627 -1.618646 -0.123957 0.120320
    66 0.717491 -3.784309 13.044010 -1.689778 0.014817 -1.457411
    67 -1.099228 -1.407673 8.017876 -1.468305 -0.018745 0.010267
    68 -0.064053 -0.807640 3.686100 -1.738177 -0.036450 0.014686
    69 4.004906 6.172710 4.754800 -0.564684 -1.032431 -1.703794
    70 -0.158381 -1.149773 5.804405 -0.458749 0.656844 0.463657
    71 1.078559 -2.386406 5.215008 -0.978788 0.865393 -0.121205
    72 6.289963 0.932404 13.569109 -0.126801 -0.612098 -2.869612
    73 -1.327759 -0.766682 12.396324 -0.049038 -0.015882 0.420460
    74 0.000017 -54.999996 0.000000 0.000000 0.000000 -1.570796
  time 2
    0 0.000000 0.000000 -1.500000 0.000000 0.000000 0.000000
    1 -10.521344 -5.760963 66.994621 3.097005 -0.050653 -3.139334
    2 -2.695023 24.257811 11.834400 0.450870 0.381158 0.741120
    3 -0.000034 0.000012 24.761454 -1.107118 -0.128404 0.157830
    4 0.000017 0.000000 24.344809 1.541679 -0.269008 -0.075003
    5 0.002333 -1.019846 24.031336 0.389436 -0.069220 -0.002562
    6 0.000034 0.000008 13.404741 -0.000001 -0.000009 0.006178
    7 10.398263 -5.760962 66.994675 3.097005 0.050653 3.139334
    8 3.878858 10.314912 9.498317 0.298875 -0.670480 0.741963
    9 -0.000004 -0.000006 24.761459 -0.688772 0.080018 -0.639667
    10 -0.000007 0.000004 24.344891 1.071898 0.341061 0.083789
    11 -0.002360 -1.019903 24.031330 0.390032 -0.060408 -0.030462
    12 0.000000 -0.000002 13.404737 0.000001 0.000005 -0.300036
    13 -0.061540 -5.245835 72.927078 0.000000 0.000000 0.000000
    14 -1.498722 16.832426 -10.054445 0.123101 -0.054432 -0.182986
    15 0.000000 -0.005608 -1.146812 0.123447 -0.097298 -0.546106
    16 0.030770 -0.240000 8.906021 -0.004138 0.000000 0.000000
    17 -1.164075 -1.538254 -0.285563 0.311265 -0.036949 -0.498685
    18 0.030770 -0.276858 8.905140 0.056125 0.004134 -0.000049
    19 0.065143 0.192288 0.030075 0.007473 0.006419 -0.062956
    20 5.669724 4.435303 14.302868 1.784160 -1.294671 0.762171
    21 -1.044571 -2.839317 19.743267 -0.577379 -0.483322 0.129199
    22 2.655533 -1.533369 24.792658 -1.244314 0.110786 0.216756
    23 1.120163 -0.154394 9.796035 -0.035336 -0.000609 -0.307333
    24 2.240311 -0.308786 19.592051 -0.109659 -0.284773 -0.608969
    25 0.683151 2.877354 14.167051 -1.560917 -0.215259 1.678706
    26 0.144936 -0.145374 7.579252 -1.648441 -0.244271 0.212915
    27 0.091660 -0.906685 4.702850 -1.901177 -0.173135 0.251041
    28 0.506271 8.500866 13.617253 -1.600930 -0.309501 1.796586
    29 -0.384987 -0.460049 7.003448 -1.601546 -0.453729 0.497836
    30 0.561516 -0.596954 5.061852 -1.738316 -0.370202 0.478451
    31 -2.452171 -8.899406 11.597897 -1.489961 -0.100918 1.411998
    32 0.680496 -0.903999 6.074253 -1.536097 0.166078 -0.007774
    33 0.245514 -0.661150 3.388004 -1.581085 0.106371 -0.106455
    34 -0.717484 -3.784271 13.043911 -1.663304 -0.018555 1.459528
    35 1.099216 -1.407745 8.017889 -1.554330 0.026892 -0.009718
    36 0.068439 -0.807653 3.686054 -1.663340 0.038467 -0.015804
    37 -4.004929 6.172707 4.754754 -0.412175 1.084804 1.895891
    38 0.158352 -1.149811 5.804394 -0.716345 -0.505497 0.094144
    39 -1.083523 -1.463142 5.544399 -1.114249 -0.326359 0.218595
    40 -6.289886 0.932434 13.569063 -0.126803 0.612110 2.869610
    41 1.327774 -0.766687 12.396328 0.004157 -0.002502 0.039205
    42 -0.096140 1.828087 23.185329 -0.046514 -0.097595 -1.294893
    43 2.325478 -0.000003 6.169296 -0.098512 0.131197 1.898570
    44 0.000000 -3.152912 0.122169 1.961017 0.000000 0.000000
    45 1.068383 -10.478592 7.066338 0.292219 -1.282324 -3.141588
    46 0.000000 0.000000 2.279457 0.547137 -0.343566 0.107833
    47 2.479414 -8.323895 6.074242 -0.000400 -0.178619 1.768173
    48 0.000005 -5.074219 5.929688 0.000000 0.000000 0.000000
    49 -1.068383 -10.478611 7.065971 0.292219 1.282324 3.141588
    50 -0.000488 0.000015 2.279600 0.547136 0.343566 0.107835
    51 -2.479401 -8.323895 6.074234 0.016787 -0.174846 1.771809
    52 -5.790000 4.432083 14.255558 -5.515015 1.043522 -3.274488
    53 1.044540 -2.839314 19.743252 0.167472 0.560104 -0.005991
    54 -2.655510 -1.533379 24.792648 -0.545906 -0.060022 0.685719
    55 -1.120216 -0.154385 9.795983 -0.044600 0.002558 0.389473
    56 -2.240372 -0.308788 19.592047 0.203666 -0.326670 0.791345
    57 -0.683205 2.877342 14.167089 -1.555673 0.215401 -1.665490
    58 -0.144958 -0.145317 7.579308 -1.663372 0.308799 -0.196843
    59 -0.038551 -0.936644 4.697678 -1.871958 0.261596 -0.289589
    60 -0.506317 8.500896 13.617329 -1.587299 0.310947 -1.772720
    61 0.385056 -0.460075 7.003435 -1.636023 0.596282 -0.467746
    62 -0.456360 -0.710276 5.057732 -1.727929 0.569658 -0.569282
    63 2.452194 -8.899408 11.597939 -1.498167 0.098973 -1.418948
    64 -0.680515 -0.903999 6.074242 -1.545621 -0.182588 0.004046
    65 -0.248295 -0.666843 3.386627 -1.571811 -0.125455 0.116185
    66 0.717491 -3.784309 13.044010 -1.655901 0.019598 -1.460127
    67 -1.099228 -1.407673 8.017876 -1.578587 -0.021406 0.012964
    68 -0.064053 -0.807640 3.686100 -1.642458 -0.034904 0.011546
    69 4.004906 6.172710 4.754800 -0.363430 -1.096459 -1.956097
    70 -0.158381 -1.149773 5.804405 -0.574343 0.618537 0.360863
    71 1.078559 -2.386406 5.215008 -0.890213 0.674065 -0.044369
    72 6.289963 0.932404 13.569109 -0.126801 -0.612098 -2.869612
    73 -1.327759 -0.766682 12.396324 -0.040601 -0.014732 0.351433
    74 0.000017 -54.999996 0.000000 0.000000 0.000000 -1.570796
  time 3
    0 0.000000 0.000000 -1.500000 0.000000 0.000000 0.000000
    1 -10.521344 -5.760963 66.994621 3.097005 -0.050653 -3.139334
    2 2.543418 21.311333 12.955627 0.303301 0.341132 0.651424
    3 -0.000034 0.000012 24.761454 -1.143012 -0.132575 0.164141
    4 0.000017 0.000000 24.344809 1.720517 -0.254364 -0.074117
    5 0.002333 -1.019846 24.031336 0.389436 -0.062748 0.002232
    6 0.000034 0.000008 13.404741 -0.000001 -0.000009 0.031237
    7 10.398263 -5.760962 66.994675 3.097005 0.050653 3.139334
    8 8.066486 8.691294 10.959529 0.321397 -0.709987 0.623964
    9 -0.000004 -0.000006 24.761459 -0.758289 0.088047 -0.541264
    10 -0.000007 0.000004 24.344891 1.155283 0.408521 0.126183
    11 -0.002360 -1.019903 24.031330 0.389824 -0.054332 -0.025932
    12 0.000000 -0.000002 13.404737 0.000001 0.000005 -0.220449
    13 -0.061540 -5.245835 72.927078 0.000000 0.000000 0.000000
    14 -5.682443 14.666326 -11.406311 0.143711 0.031299 0.164544
    15 0.000000 -0.005608 -1.146812 0.109795 -0.168116 -0.805983
    16 0.030770 -0.240000 8.906021 -0.004138 0.000000 0.000000
    17 -1.324236 -1.803887 -0.371503 0.353731 -0.106114 -0.355683
    18 0.030770 -0.276858 8.905140 0.056125 0.004134 -0.000049
    19 0.346401 0.192288 0.033982 0.011226 0.099690 -0.058019
    20 5.669724 4.435303 14.302868 1.714964 -1.294319 0.903430
    21 -1.044571 -2.839317 19.743267 -0.435411 -0.506335 0.121106
    22 2.655533 -1.533369 24.792658 -1.141030 0.101948 0.198075
    23 1.120163 -0.154394 9.796035 -0.016916 0.001069 -0.146940
    24 2.240311 -0.308786 19.592051 -0.117275 -0.297988 -0.288907
    25 0.683151 2.877354 14.167051 -1.585273 -0.212850 1.740287
    26 0.144936 -0.145374 7.579252 -1.589151 -0.243840 0.201805
    27 0.091660 -0.906685 4.702850 -2.055618 -0.161797 0.278798
    28 0.506271 8.500866 13.617253 -1.663118 -0.296209 1.906757
    29 -0.384987 -0.460049 7.003448 -1.527312 -0.457504 0.470031
    30 0.561516 -0.596954 5.061852 -1.856343 -0.357666 0.521668
    31 -2.452171 -8.899406 11.597897 -1.451331 -0.107749 1.379329
    32 0.680496 -0.903999 6.074253 -1.490533 0.162039 -0.004838
    33 0.245514 -0.661150 3.388004 -1.628750 0.104585 -0.109931
    34 -0.717484 -3.784271 13.043911 -1.697831 -0.013677 1.456731
    35 1.099216 -1.407745 8.017889 -1.441596 0.023764 -0.006362
    36 0.068439 -0.807653 3.686054 -1.761031 0.040204 -0.019112
    37 -4.004929 6.172707 4.754754 -0.604668 1.013454 1.651995
    38 0.158352 -1.149811 5.804394 -0.640531 -0.581520 0.013631
    39 -1.083523 -1.463142 5.544399 -1.281090 -0.463498 0.317680
    40 -6.289886 0.932434 13.569063 -0.126803 0.612110 2.869610
    41 1.327774 -0.766687 12.396328 0.003342 -0.001986 0.031422
    42 -0.096140 1.828087 23.185329 0.067446 -0.096734 -1.514155
    43 2.325478 -0.000003 6.169296 -0.109160 0.117177 1.722436
    44 0.000000 -3.152912 0.122169 1.961017 0.000000 0.000000
    45 1.068383 -10.478592 7.066338 0.292219 -1.282324 -3.141588
    46 0.000000 0.000000 2.279457 0.547137 -0.343566 0.107833
    47 2.479414 -8.323895 6.074242 -0.005783 -0.068592 1.638378
    48 0.000005 -5.074219 5.929688 0.000000 0.000000 0.000000
    49 -1.068383 -10.478611 7.065971 0.292219 1.282324 3.141588
    50 -0.000488 0.000015 2.279600 0.547136 0.343566 0.107835
    51 -2.479401 -8.323895 6.074234 0.011445 -0.069996 1.642757
    52 -5.790000 4.432083 14.255558 -5.539650 1.139555 -3.361009
    53 1.044540 -2.839314 19.743252 0.307504 0.511771 0.019020
    54 -2.655510 -1.533379 24.792648 -0.449734 -0.049564 0.560689
    55 -1.120216 -0.154385 9.795983 -0.042778 0.002115 0.373368
    56 -2.240372 -0.308788 19.592047 0.198702 -0.319591 0.762046
    57 -0.683205 2.877342 14.167089 -1.531172 0.214465 -1.603868
    58 -0.144958 -0.145317 7.579308 -1.723694 0.309411 -0.211860
    59 -0.038551 -0.936644 4.697678 -1.713622 0.264208 -0.250160
    60 -0.506317 8.500896 13.617329 -1.522586 0.311181 -1.661205
    61 0.385056 -0.460075 7.003435 -1.715017 0.592344 -0.507269
    62 -0.456360 -0.710276 5.057732 -1.594815 0.570391 -0.501970
    63 2.452194 -8.899408 11.597939 -1.535385 0.087658 -1.450575
    64 -0.680515 -0.903999 6.074242 -1.591272 -0.186639 0.007941
    65 -0.248295 -0.666843 3.386627 -1.523935 -0.126785 0.111919
    66 0.717491 -3.784309 13.044010 -1.621377 0.024572 -1.462744
    67 -1.099228 -1.407673 8.017876 -1.691392 -0.023815 0.016104
    68 -0.064053 -0.807640 3.686100 -1.544714 -0.032926 0.008550
    69 4.004906 6.172710 4.754800 -0.108267 -1.129226 -2.266360
    70 -0.158381 -1.149773 5.804405 -0.694506 0.570455 0.289276
    71 1.078559 -2.386406 5.215008 -0.785155 0.504180 0.062903
    72 6.289963 0.932404 13.569109 -0.126801 -0.612098 -2.869612
    73 -1.327759 -0.766682 12.396324 -0.033602 -0.013306 0.293648
    74 0.000017 -54.999996 0.000000 0.000000 0.000000 -1.570796
  time 4
    0 0.000000 0.000000 -1.500000 0.000000 0.000000 0.000000
    1 -10.521344 -5.760963 66.994621 3.097005 -0.050653 -3.139334
    2 6.121652 17.407250 14.570194 0.155732 0.332725 0.626871
    3 -0.000034 0.000012 24.761454 -1.126427 -0.130645 0.143904
    4 0.000017 0.000000 24.344809 1.857620 -0.249294 -0.122083
    5 0.002333 -1.019846 24.031336 0.389436 -0.056828 0.006667
    6 0.000034 0.000008 13.404741 -0.000001 -0.000009 0.033873
    7 10.398263 -5.760962 66.994675 3.097005 0.050653 3.139334
    8 11.453308 5.231738 12.240898 0.308430 -0.725497 0.552835
    9 -0.000004 -0.000006 24.761459 -0.841885 0.097743 -0.453805
    10 -0.000007 0.000004 24.344891 1.290429 0.455695 0.169335
    11 -0.002360 -1.019903 24.031330 0.389686 -0.047992 -0.021174
    12 0.000000 -0.000002 13.404737 0.000001 0.000005 -0.159905
    13 -0.061540 -5.245835 72.927078 0.000000 0.000000 0.000000
    14 -8.772381 11.452115 -13.006019 0.165634 0.109563 0.423674
    15 0.000000 -0.005608 -1.146812 0.102937 -0.240408 -1.040859
    16 0.030770 -0.240000 8.906021 -0.004138 0.000000 0.000000
    17 -1.375019 -2.049988 -0.445724 0.373849 -0.179039 -0.192873
    18 0.030770 -0.276858 8.905140 0.056125 0.004134 -0.000049
    19 0.592503 0.129786 0.026169 0.035354 0.176400 -0.043973
    20 5.669724 4.435303 14.302868 1.680223 -1.274905 1.003959
    21 -1.044571 -2.839317 19.743267 -0.328471 -0.543020 0.112307
    22 2.655533 -1.533369 24.792658 -1.060009 0.093686 0.208750
    23 1.120163 -0.154394 9.796035 -0.001180 0.000134 -0.010209
    24 2.240311 -0.308786 19.592051 -0.141471 -0.316590 -0.010663
    25 0.683151 2.877354 14.167051 -1.604528 -0.208955 1.789829
    26 0.144936 -0.145374 7.579252 -1.541338 -0.243037 0.192901
    27 0.091660 -0.906685 4.702850 -2.179566 -0.149705 0.299639
    28 0.506271 8.500866 13.617253 -1.710300 -0.278083 1.993693
    29 -0.384987 -0.460049 7.003448 -1.466275 -0.459230 0.447021
    30 0.561516 -0.596954 5.061852 -1.949558 -0.344315 0.554637
    31 -2.452171 -8.899406 11.597897 -1.419587 -0.110537 1.352647
    32 0.680496 -0.903999 6.074253 -1.454010 0.158683 -0.002608
    33 0.245514 -0.661150 3.388004 -1.667415 0.103003 -0.112663
    34 -0.717484 -3.784271 13.043911 -1.725743 -0.009830 1.454334
    35 1.099216 -1.407745 8.017889 -1.350749 0.021056 -0.004049
    36 0.068439 -0.807653 3.686054 -1.839852 0.041259 -0.021904
    37 -4.004929 6.172707 4.754754 -0.720236 0.940309 1.497275
    38 0.158352 -1.149811 5.804394 -0.581710 -0.633034 -0.073401
    39 -1.083523 -1.463142 5.544399 -1.425487 -0.590164 0.387402
    40 -6.289886 0.932434 13.569063 -0.126803 0.612110 2.869610
    41 1.327774 -0.766687 12.396328 0.004444 -0.002694 0.042168
    42 -0.096140 1.828087 23.185329 0.154799 -0.063402 -1.689302
    43 2.325478 -0.000003 6.169296 -0.121289 0.089715 1.529817
    44 0.000000 -3.152912 0.122169 1.961017 0.000000 0.000000
    45 1.068383 -10.478592 7.066338 0.292219 -1.282324 -3.141588
    46 0.000000 0.000000 2.279457 0.547137 -0.343566 0.107833
    47 2.479414 -8.323895 6.074242 -0.010024 -0.003412 1.532555
    48 0.000005 -5.074219 5.929688 0.000000 0.000000 0.000000
    49 -1.068383 -10.478611 7.065971 0.292219 1.282324 3.141588
    50 -0.000488 0.000015 2.279600 0.547136 0.343566 0.107835
    51 -2.479401 -8.323895 6.074234 0.007167 -0.010082 1.537657
    52 -5.790000 4.432083 14.255558 -5.649791 1.197582 2.844660
    53 1.044540 -2.839314 19.743252 0.254575 0.384198 -0.026511
    54 -2.655510 -1.533379 24.792648 -0.368760 -0.043934 0.426343
    55 -1.120216 -0.154385 9.795983 -0.042407 0.002019 0.370022
    56 -2.240372 -0.308788 19.592047 0.162657 -0.295483 0.759984
    57 -0.683205 2.877342 14.167089 -1.511373 0.211739 -1.554302
    58 -0.144958 -0.145317 7.579308 -1.772247 0.309279 -0.224156
    59 -0.038551 -0.936644 4.697678 -1.586056 0.261752 -0.218437
    60 -0.506317 8.500896 13.617329 -1.470468 0.303320 -1.571570
    61 0.385056 -0.460075 7.003435 -1.777695 0.587339 -0.538339
    62 -0.456360 -0.710276 5.057732 -1.487158 0.565518 -0.447752
    63 2.452194 -8.899408 11.597939 -1.564403 0.075995 -1.475290
    64 -0.680515 -0.903999 6.074242 -1.628031 -0.189767 0.011189
    65 -0.248295 -0.666843 3.386627 -1.485218 -0.127720 0.108395
    66 0.717491 -3.784309 13.044010 -1.593579 0.028647 -1.464728
    67 -1.099228 -1.407673 8.017876 -1.782230 -0.025481 0.018644
    68 -0.064053 -0.807640 3.686100 -1.465933 -0.031321 0.006237
    69 4.004906 6.172710 4.754800 0.109551 -1.126781 -2.531025
    70 -0.158381 -1.149773 5.804405 -0.789206 0.528808 0.259739
    71 1.078559 -2.386406 5.215008 -0.687550 0.389954 0.162209
    72 6.289963 0.932404 13.569109 -0.126801 -0.612098 -2.869612
    73 -1.327759 -0.766682 12.396324 -0.027442 -0.011700 0.241785
    74 0.000017 -54.999996 0.000000 0.000000 0.000000 -1.570796
  time 5
    0 0.000000 0.000000 -1.500000 0.000000 0.000000 0.000000
    1 -10.521344 -5.760963 66.994621 3.097005 -0.050653 -3.139334
    2 2.594200 1.091129 20.333301 -0.372238 0.667859 0.547137
    3 -0.000034 0.000012 24.761454 -0.623979 -0.072484 0.242198
    4 0.000017 0.000000 24.344809 1.857373 -0.477317 -0.575274
    5 0.002333 -1.019846 24.031336 0.389473 -0.050464 0.011425
    6 0.000034 0.000008 13.404741 -0.000001 -0.000009 0.102279
    7 10.398263 -5.760962 66.994675 3.097005 0.050653 3.139334
    8 8.609471 -11.129338 17.478778 0.237793 -0.518341 0.560014
    9 -0.000004 -0.000006 24.761459 -1.351766 0.156743 -0.287789
    10 -0.000007 0.000004 24.344891 1.980874 0.335395 0.176060
    11 -0.002360 -1.019903 24.031330 0.389594 -0.043055 -0.017483
    12 0.000000 -0.000002 13.404737 0.000001 0.000005 -0.106790
    13 -0.061540 -5.245835 72.927078 0.000000 0.000000 0.000000
    14 -5.373840 -4.083241 -19.292196 0.200807 0.192541 0.561617
    15 0.000000 -0.005608 -1.146812 0.098950 -0.341984 -1.196274
    16 0.030770 -0.240000 8.906021 -0.004138 0.000000 0.000000
    17 -1.066416 -2.178898 -0.437912 0.307835 -0.280273 0.210815
    18 0.030770 -0.276858 8.905140 0.056125 0.004134 -0.000049
    19 0.557345 -0.006937 0.033982 0.079928 0.141121 0.017412
    20 5.669724 4.435303 14.302868 1.873262 -1.099296 0.876309
    21 -1.044571 -2.839317 19.743267 -0.217128 -0.697641 0.103480
    22 2.655533 -1.533369 24.792658 -1.121111 0.107712 0.082671
    23 1.120163 -0.154394 9.796035 0.005148 -0.000836 0.045187
    24 2.240311 -0.308786 19.592051 -0.145606 -0.321425 0.102486
    25 0.683151 2.877354 14.167051 -1.604473 -0.208955 1.789829
    26 0.144936 -0.145374 7.579252 -1.541338 -0.243037 0.192901
    27 0.091660 -0.906685 4.702850 -2.179566 -0.149693 0.299639
    28 0.506271 8.500866 13.617253 -1.710300 -0.278083 1.993693
    29 -0.384987 -0.460049 7.003448 -1.466275 -0.459230 0.447021
    30 0.561516 -0.596954 5.061852 -1.949558 -0.344315 0.554637
    31 -2.452171 -8.899406 11.597897 -1.419587 -0.110537 1.352647
    32 0.680496 -0.903999 6.074253 -1.454010 0.158683 -0.002608
    33 0.245514 -0.661150 3.388004 -1.667415 0.103003 -0.112663
    34 -0.717484 -3.784271 13.043911 -1.725743 -0.009830 1.454334
    35 1.099216 -1.407745 8.017889 -1.350749 0.021020 -0.003941
    36 0.068439 -0.807653 3.686054 -1.839852 0.041379 -0.021880
    37 -4.004929 6.172707 4.754754 -0.720236 0.940309 1.497179
    38 0.158352 -1.149811 5.804394 -0.581795 -0.633166 -0.073365
    39 -1.083523 -1.463142 5.544399 -1.425435 -0.590044 0.387375
    40 -6.289886 0.932434 13.569063 -0.126803 0.612110 2.869610
    41 1.327774 -0.766687 12.396328 -0.000781 0.000446 -0.007194
    42 -0.096140 1.828087 23.185329 0.154320 -0.059259 -1.689241
    43 2.325478 -0.000003 6.169296 -0.093498 -0.068141 1.044799
    44 0.000000 -3.152912 0.122169 1.961017 0.000000 0.000000
    45 1.068383 -10.478592 7.066338 0.292219 -1.282324 -3.141576
    46 0.000000 0.000000 2.279457 0.547137 -0.343566 0.107833
    47 2.479414 -8.323895 6.074242 -0.016277 0.057918 1.373726
    48 0.000005 -5.074219 5.929688 0.000000 0.000000 0.000000
    49 -1.068383 -10.478611 7.065971 0.292219 1.282324 3.141588
    50 -0.000488 0.000015 2.279600 0.547136 0.343566 0.107835
    51 -2.479401 -8.323895 6.074234 0.000620 0.049502 1.379192
    52 -5.790000 4.432083 14.255558 -0.016618 1.053367 -3.094930
    53 1.044540 -2.839314 19.743252 -0.501795 0.248527 -0.071607
    54 -2.655510 -1.533379 24.792648 -0.366093 -0.083280 0.325319
    55 -1.120216 -0.154385 9.795983 -0.048782 0.003745 0.427205
    56 -2.240372 -0.308788 19.592047 -0.153273 0.011935 0.847537
    57 -0.683205 2.877342 14.167089 -1.511373 0.211739 -1.554289
    58 -0.144958 -0.145317 7.579308 -1.772247 0.309267 -0.224156
    59 -0.038551 -0.936644 4.697678 -1.586056 0.261752 -0.218437
    60 -0.506317 8.500896 13.617329 -1.470468 0.303320 -1.571570
    61 0.385056 -0.460075 7.003435 -1.777695 0.587339 -0.538339
    62 -0.456360 -0.710276 5.057732 -1.487158 0.565518 -0.447752
    63 2.452194 -8.899408 11.597939 -1.564403 0.075995 -1.475290
    64 -0.680515 -0.903999 6.074242 -1.628031 -0.189767 0.011189
    65 -0.248295 -0.666843 3.386627 -1.485218 -0.127720 0.108395
    66 0.717491 -3.784309 13.044010 -1.593579 0.028647 -1.464716
    67 -1.099228 -1.407673 8.017876 -1.782230 -0.025481 0.018644
    68 -0.064053 -0.807640 3.686100 -1.465933 -0.031321 0.006237
    69 4.004906 6.172710 4.754800 0.109551 -1.126781 -2.531025
    70 -0.158381 -1.149773 5.804405 -0.789206 0.528808 0.259739
    71 1.078559 -2.386406 5.215008 -0.687550 0.389954 0.162209
    72 6.289963 0.932404 13.569109 -0.126801 -0.612098 -2.869612
    73 -1.327759 -0.766682 12.396324 -0.020012 -0.009291 0.178680
    74 0.000017 -54.999996 0.000000 0.000000 0.000000 -1.570796
  time 6
    0 0.000000 0.000000 -1.500000 0.000000 0.000000 0.000000
    1 -10.521344 -5.760963 66.994621 3.097005 -0.050653 -3.139334
    2 0.711331 1.483993 23.853953 -0.302894 0.717823 0.460019
    3 -0.000034 0.000012 24.761454 -0.866666 -0.100600 0.173913
    4 0.000017 0.000000 24.344809 2.032759 -0.471930 -0.584284
    5 0.002333 -1.019846 24.031336 0.389585 -0.043585 0.016566
    6 0.000034 0.000008 13.404741 -0.000001 -0.000009 0.081861
    7 10.398263 -5.760962 66.994675 3.097005 0.050653 3.139334
    8 5.558597 -8.356697 22.019773 0.568455 -0.500527 0.345306
    9 -0.000004 -0.000006 24.761459 -1.713924 0.198605 -0.207437
    10 -0.000007 0.000004 24.344891 2.087106 0.282222 0.157942
    11 -0.002360 -1.019903 24.031330 0.389525 -0.035924 -0.012174
    12 0.000000 -0.000002 13.404737 0.000001 0.000005 -0.046976
    13 -0.061540 -5.245835 72.927078 0.000000 0.000000 0.000000
    14 -2.647194 -2.161702 -23.280201 0.216009 0.258917 0.618188
    15 0.000000 -0.005608 -1.146812 0.081566 -0.358327 -1.111053
    16 0.030770 -0.240000 8.906021 -0.004138 0.000000 0.000000
    17 -0.757812 -2.116396 -0.387129 0.275848 -0.274373 0.362124
    18 0.030770 -0.276858 8.905140 0.056125 0.004134 -0.000049
    19 0.518282 0.000876 0.033982 0.072565 0.129436 0.036372
    20 5.669724 4.435303 14.302868 1.937193 -1.066422 0.901993
    21 -1.044571 -2.839317 19.743267 -0.010097 -0.745233 0.035487
    22 2.655533 -1.533369 24.792658 -1.142983 0.104830 0.138310
    23 1.120163 -0.154394 9.796035 0.005304 -0.000836 0.046567
    24 2.240311 -0.308786 19.592051 -0.124978 -0.305954 0.103119
    25 0.683151 2.877354 14.167051 -1.604473 -0.208955 1.789829
    26 0.144936 -0.145374 7.579252 -1.541338 -0.243037 0.192901
    27 0.091660 -0.906685 4.702850 -2.179566 -0.149705 0.299639
    28 0.506271 8.500866 13.617253 -1.710300 -0.278083 1.993693
    29 -0.384987 -0.460049 7.003448 -1.466275 -0.459218 0.447009
    30 0.561516 -0.596954 5.061852 -1.949558 -0.344315 0.554637
    31 -2.452171 -8.899406 11.597897 -1.419587 -0.110537 1.352647
    32 0.680496 -0.903999 6.074253 -1.454010 0.158683 -0.002608
    33 0.245514 -0.661150 3.388004 -1.667415 0.103003 -0.112663
    34 -0.717484 -3.784271 13.043911 -1.725743 -0.009854 1.454334
    35 1.099216 -1.407745 8.017889 -1.350749 0.021008 -0.003953
    36 0.068439 -0.807653 3.686054 -1.839852 0.041379 -0.021880
    37 -4.004929 6.172707 4.754754 -0.720236 0.940309 1.497179
    38 0.158352 -1.149811 5.804394 -0.581795 -0.633180 -0.073365
    39 -1.083523 -1.463142 5.544399 -1.425435 -0.590044 0.387375
    40 -6.289886 0.932434 13.569063 -0.126803 0.612110 2.869610
    41 1.327774 -0.766687 12.396328 0.004193 -0.002526 0.039607
    42 -0.096140 1.828087 23.185329 0.154320 -0.059259 -1.689241
    43 2.325478 -0.000003 6.169296 -0.099562 -0.071657 1.045238
    44 0.000000 -3.152912 0.122169 1.961017 0.000000 0.000000
    45 1.068383 -10.478592 7.066338 0.292219 -1.282324 -3.141588
    46 0.000000 0.000000 2.279457 0.547137 -0.343566 0.107833
    47 2.479414 -8.323895 6.074242 -0.025683 0.027112 1.109360
    48 0.000005 -5.074219 5.929688 0.000000 0.000000 0.000000
    49 -1.068383 -10.478611 7.065971 0.292219 1.282324 3.141588
    50 -0.000488 0.000015 2.279600 0.547136 0.343566 0.107835
    51 -2.479401 -8.323895 6.074234 -0.010386 0.015670 1.112370
    52 -5.790000 4.432083 14.255558 -0.128197 1.209088 -2.901575
    53 1.044540 -2.839314 19.743252 -0.502741 0.148555 -0.054352
    54 -2.655510 -1.533379 24.792648 -0.485163 -0.078983 0.128648
    55 -1.120216 -0.154385 9.795983 -0.050700 0.004320 0.444561
    56 -2.240372 -0.308788 19.592047 -0.205890 0.102378 0.863261
    57 -0.683205 2.877342 14.167089 -1.511373 0.211739 -1.554302
    58 -0.144958 -0.145317 7.579308 -1.772247 0.309279 -0.224156
    59 -0.038551 -0.936644 4.697678 -1.586056 0.261752 -0.218437
    60 -0.506317 8.500896 13.617329 -1.470468 0.303320 -1.571570
    61 0.385056 -0.460075 7.003435 -1.777738 0.587339 -0.538339
    62 -0.456360 -0.710276 5.057732 -1.487158 0.565518 -0.447752
    63 2.452194 -8.899408 11.597939 -1.564403 0.075995 -1.475290
    64 -0.680515 -0.903999 6.074242 -1.628031 -0.189767 0.011201
    65 -0.248295 -0.666843 3.386627 -1.485218 -0.127720 0.108395
    66 0.717491 -3.784309 13.044010 -1.593579 0.028647 -1.464728
    67 -1.099228 -1.407673 8.017876 -1.782230 -0.025481 0.018644
    68 -0.064053 -0.807640 3.686100 -1.465933 -0.031321 0.006237
    69 4.004906 6.172710 4.754800 0.109551 -1.126781 -2.531025
    70 -0.158381 -1.149773 5.804405 -0.789206 0.528808 0.259739
    71 1.078559 -2.386406 5.215008 -0.687550 0.389954 0.162246
    72 6.289963 0.932404 13.569109 -0.126801 -0.612098 -2.869612
    73 -1.327759 -0.766682 12.396324 -0.009633 -0.005012 0.087677
    74 0.000017 -54.999996 0.000000 0.000000 0.000000 -1.570796
  time 7
    0 0.000000 0.000000 -1.500000 0.000000 0.000000 0.000000
    1 -10.521344 -5.760963 66.994621 3.097005 -0.050653 -3.139334
    2 -1.323888 4.160377 26.006709 -0.190578 0.703209 0.364819
    3 -0.000034 0.000012 24.761454 -1.112443 -0.129027 0.121876
    4 0.000017 0.000000 24.344809 2.177074 -0.480373 -0.537549
    5 0.002333 -1.019846 24.031336 0.389772 -0.036742 0.021647
    6 0.000034 0.000008 13.404741 -0.000001 -0.000009 0.058574
    7 10.398263 -5.760962 66.994675 3.097005 0.050653 3.139334
    8 2.472565 -2.773948 25.189477 0.963696 -0.416318 0.121851
    9 -0.000004 -0.000006 24.761459 -1.957012 0.226673 -0.162075
    10 -0.000007 0.000004 24.344891 1.982939 0.232249 0.091629
    11 -0.002360 -1.019903 24.031330 0.389432 -0.028649 -0.006757
    12 0.000000 -0.000002 13.404737 0.000001 0.000005 -0.005905
    13 -0.061540 -5.245835 72.927078 0.000000 0.000000 0.000000
    14 0.044294 2.263662 -25.736091 0.222218 0.306040 0.651037
    15 0.000000 -0.005608 -1.146812 0.040993 -0.374608 -0.981916
    16 0.030770 -0.240000 8.906021 -0.004138 0.000000 0.000000
    17 -0.437490 -1.956235 -0.324627 0.244472 -0.248988 0.493266
    18 0.030770 -0.276858 8.905140 0.056125 0.004134 -0.000049
    19 0.463592 0.036033 0.022263 0.053941 0.116003 0.051760
    20 5.669724 4.435303 14.302868 1.978442 -1.047818 0.955563
    21 -1.044571 -2.839317 19.743267 0.217872 -0.723316 -0.045365
    22 2.655533 -1.533369 24.792658 -1.164985 0.099988 0.195649
    23 1.120163 -0.154394 9.796035 0.003758 -0.000597 0.032942
    24 2.240311 -0.308786 19.592051 -0.093427 -0.268288 0.072260
    25 0.683151 2.877354 14.167051 -1.604473 -0.208955 1.789829
    26 0.144936 -0.145374 7.579252 -1.541338 -0.243037 0.192901
    27 0.091660 -0.906685 4.702850 -2.179566 -0.149693 0.299639
    28 0.506271 8.500866 13.617253 -1.710238 -0.278083 1.993693
    29 -0.384987 -0.460049 7.003448 -1.466275 -0.459230 0.447009
    30 0.561516 -0.596954 5.061852 -1.949558 -0.344315 0.554637
    31 -2.452171 -8.899406 11.597897 -1.419587 -0.110537 1.352647
    32 0.680496 -0.903999 6.074253 -1.454010 0.158683 -0.002608
    33 0.245514 -0.661150 3.388004 -1.667415 0.103003 -0.112663
    34 -0.717484 -3.784271 13.043911 -1.725743 -0.009854 1.454334
    35 1.099216 -1.407745 8.017889 -1.350749 0.021008 -0.003953
    36 0.068439 -0.807653 3.686054 -1.839852 0.041379 -0.021880
    37 -4.004929 6.172707 4.754754 -0.720146 0.940309 1.497179
    38 0.158352 -1.149811 5.804394 -0.581795 -0.633180 -0.073365
    39 -1.083523 -1.463142 5.544399 -1.425435 -0.590044 0.387375
    40 -6.289886 0.932434 13.569063 -0.126803 0.612110 2.869610
    41 1.327774 -0.766687 12.396328 0.009034 -0.005762 0.086760
    42 -0.096140 1.828087 23.185329 0.154320 -0.059259 -1.689241
    43 2.325478 -0.000003 6.169296 -0.114079 -0.080049 1.046355
    44 0.000000 -3.152912 0.122169 1.961017 0.000000 0.000000
    45 1.068383 -10.478592 7.066338 0.292219 -1.282324 -3.141588
    46 0.000000 0.000000 2.279457 0.547137 -0.343566 0.107833
    47 2.479414 -8.323895 6.074242 -0.031501 -0.025530 0.916816
    48 0.000005 -5.074219 5.929688 0.000000 0.000000 0.000000
    49 -1.068383 -10.478611 7.065971 0.292219 1.282324 3.141588
    50 -0.000488 0.000015 2.279600 0.547136 0.343566 0.107835
    51 -2.479401 -8.323895 6.074234 -0.018058 -0.038291 0.916445
    52 -5.790000 4.432083 14.255558 0.173947 1.382172 -2.383885
    53 1.044540 -2.839314 19.743252 -0.656409 0.238352 -0.055958
    54 -2.655510 -1.533379 24.792648 -0.759438 -0.067179 -0.255455
    55 -1.120216 -0.154385 9.795983 -0.051982 0.004752 0.456286
    56 -2.240372 -0.308788 19.592047 -0.214367 0.166387 0.878383
    57 -0.683205 2.877342 14.167089 -1.511373 0.211739 -1.554302
    58 -0.144958 -0.145317 7.579308 -1.772247 0.309279 -0.224156
    59 -0.038551 -0.936644 4.697678 -1.586056 0.261752 -0.218437
    60 -0.506317 8.500896 13.617329 -1.470468 0.303320 -1.571570
    61 0.385056 -0.460075 7.003435 -1.777738 0.587339 -0.538339
    62 -0.456360 -0.710276 5.057732 -1.487158 0.565518 -0.447734
    63 2.452194 -8.899408 11.597939 -1.564403 0.075995 -1.475290
    64 -0.680515 -0.903999 6.074242 -1.628031 -0.189767 0.011189
    65 -0.248295 -0.666843 3.386627 -1.485218 -0.127720 0.108395
    66 0.717491 -3.784309 13.044010 -1.593579 0.028647 -1.464728
    67 -1.099228 -1.407673 8.017876 -1.782230 -0.025481 0.018644
    68 -0.064053 -0.807640 3.686100 -1.465933 -0.031321 0.006237
    69 4.004906 6.172710 4.754800 0.109551 -1.126781 -2.531025
    70 -0.158381 -1.149773 5.804405 -0.789206 0.528808 0.259739
    71 1.078559 -2.386406 5.215008 -0.687550 0.389954 0.162209
    72 6.289963 0.932404 13.569109 -0.126801 -0.612098 -2.869612
    73 -1.327759 -0.766682 12.396324 0.009231 0.005894 -0.088499
    74 0.000017 -54.999996 0.000000 0.000000 0.000000 -1.570796
  time 8
    0 0.000000 0.000000 -1.500000 0.000000 0.000000 0.000000
    1 -10.521344 -5.760963 66.994621 3.097005 -0.050653 -3.139334
    2 -2.976282 7.880305 27.172785 -0.072523 0.667469 0.268919
    3 -0.000034 0.000012 24.761454 -1.323341 -0.153440 0.114302
    4 0.000017 0.000000 24.344809 2.273244 -0.502419 -0.484052
    5 0.002333 -1.019846 24.031336 0.389884 -0.030689 0.026166
    6 0.000034 0.000008 13.404741 -0.000001 -0.000009 0.044989
    7 10.398263 -5.760962 66.994675 3.097005 0.050653 3.139334
    8 0.199058 3.757993 27.100291 1.306642 -0.287811 -0.023543
    9 -0.000004 -0.000006 24.761459 -2.036043 0.235793 -0.134836
    10 -0.000007 0.000004 24.344891 1.725361 0.187875 0.007996
    11 -0.002360 -1.019903 24.031330 0.389409 -0.022345 -0.002047
    12 0.000000 -0.000002 13.404737 0.000001 0.000005 0.004572
    13 -0.061540 -5.245835 72.927078 0.000000 0.000000 0.000000
    14 2.028730 7.574099 -27.087957 0.218825 0.338213 0.661666
    15 0.000000 -0.005608 -1.146812 -0.003345 -0.386451 -0.844789
    16 0.030770 -0.240000 8.906021 -0.004138 0.000000 0.000000
    17 -0.171857 -1.757010 -0.258219 0.218819 -0.217413 0.594737
    18 0.030770 -0.276858 8.905140 0.056125 0.004134 -0.000049
    19 0.404997 0.075097 0.018356 0.032637 0.105635 0.062906
    20 5.669724 4.435303 14.302868 2.011843 -1.041723 1.017089
    21 -1.044571 -2.839317 19.743267 0.373440 -0.683447 -0.093053
    22 2.655533 -1.533369 24.792658 -1.179740 0.095953 0.229049
    23 1.120163 -0.154394 9.796035 0.000942 -0.000141 0.008245
    24 2.240311 -0.308786 19.592051 -0.062137 -0.220355 0.019602
    25 0.683151 2.877354 14.167051 -1.604528 -0.208955 1.789829
    26 0.144936 -0.145374 7.579252 -1.541338 -0.243013 0.192901
    27 0.091660 -0.906685 4.702850 -2.179566 -0.149693 0.299639
    28 0.506271 8.500866 13.617253 -1.710300 -0.278083 1.993693
    29 -0.384987 -0.460049 7.003448 -1.466275 -0.459218 0.447021
    30 0.561516 -0.596954 5.061852 -1.949558 -0.344315 0.554637
    31 -2.452171 -8.899406 11.597897 -1.419587 -0.110537 1.352647
    32 0.680496 -0.903999 6.074253 -1.454010 0.158683 -0.002608
    33 0.245514 -0.661150 3.388004 -1.667415 0.103003 -0.112663
    34 -0.717484 -3.784271 13.043911 -1.725743 -0.009830 1.454334
    35 1.099216 -1.407745 8.017889 -1.350749 0.021020 -0.003941
    36 0.068439 -0.807653 3.686054 -1.839852 0.041379 -0.021880
    37 -4.004929 6.172707 4.754754 -0.720236 0.940309 1.497179
    38 0.158352 -1.149811 5.804394 -0.581795 -0.633166 -0.073365
    39 -1.083523 -1.463142 5.544399 -1.425383 -0.590044 0.387375
    40 -6.289886 0.932434 13.569063 -0.126803 0.612110 2.869610
    41 1.327774 -0.766687 12.396328 0.011851 -0.007787 0.114730
    42 -0.096140 1.828087 23.185329 0.154320 -0.059259 -1.689241
    43 2.325478 -0.000003 6.169296 -0.131603 -0.090119 1.047792
    44 0.000000 -3.152912 0.122169 1.961017 0.000000 0.000000
    45 1.068383 -10.478592 7.066338 0.292219 -1.282324 -3.141588
    46 0.000000 0.000000 2.279457 0.547137 -0.343566 0.107833
    47 2.479414 -8.323895 6.074242 -0.034709 -0.074275 0.793420
    48 0.000005 -5.074219 5.929688 0.000000 0.000000 0.000000
    49 -1.068383 -10.478611 7.065971 0.292219 1.282324 3.141588
    50 -0.000488 0.000015 2.279600 0.547136 0.343566 0.107835
    51 -2.479401 -8.323895 6.074234 -0.022778 -0.087243 0.790075
    52 -5.790000 4.432083 14.255558 -5.122765 1.411830 -1.275014
    53 1.044540 -2.839314 19.743252 -0.773009 0.472681 -0.136352
    54 -2.655510 -1.533379 24.792648 -1.053188 -0.063452 -0.542321
    55 -1.120216 -0.154385 9.795983 -0.052701 0.004979 0.462788
    56 -2.240372 -0.308788 19.592047 -0.203599 0.212772 0.890583
    57 -0.683205 2.877342 14.167089 -1.511324 0.211739 -1.554302
    58 -0.144958 -0.145317 7.579308 -1.772301 0.309279 -0.224156
    59 -0.038551 -0.936644 4.697678 -1.586007 0.261752 -0.218437
    60 -0.506317 8.500896 13.617329 -1.470468 0.303320 -1.571570
    61 0.385056 -0.460075 7.003435 -1.777738 0.587339 -0.538339
    62 -0.456360 -0.710276 5.057732 -1.487158 0.565518 -0.447752
    63 2.452194 -8.899408 11.597939 -1.564403 0.075995 -1.475290
    64 -0.680515 -0.903999 6.074242 -1.628031 -0.189767 0.011189
    65 -0.248295 -0.666843 3.386627 -1.485218 -0.127720 0.108395
    66 0.717491 -3.784309 13.044010 -1.593579 0.028647 -1.464728
    67 -1.099228 -1.407673 8.017876 -1.782230 -0.025481 0.018644
    68 -0.064053 -0.807640 3.686100 -1.465877 -0.031321 0.006237
    69 4.004906 6.172710 4.754800 0.109551 -1.126781 -2.531025
    70 -0.158381 -1.149773 5.804405 -0.789206 0.528808 0.259739
    71 1.078559 -2.386406 5.215008 -0.687550 0.389954 0.162246
    72 6.289963 0.932404 13.569109 -0.126801 -0.612098 -2.869612
    73 -1.327759 -0.766682 12.396324 0.022042 0.016224 -0.221649
    74 0.000017 -54.999996 0.000000 0.000000 0.000000 -1.570796
  time 9
    0 0.000000 0.000000 -1.500000 0.000000 0.000000 0.000000
    1 -10.521344 -5.760963 66.994621 3.097005 -0.050653 -3.139334
    2 -3.507548 11.366970 27.688550 0.030776 0.646259 0.203515
    3 -0.000034 0.000012 24.761454 -1.482856 -0.171872 0.149238
    4 0.000017 0.000000 24.344809 2.315534 -0.501242 -0.444383
    5 0.002333 -1.019846 24.031336 0.389996 -0.026159 0.029521
    6 0.000034 0.000008 13.404741 -0.000001 -0.000009 0.047563
    7 10.398263 -5.760962 66.994675 3.097005 0.050653 3.139334
    8 -0.550964 9.190869 28.021978 1.500210 -0.198847 -0.088731
    9 -0.000004 -0.000006 24.761459 -1.982641 0.229621 -0.100850
    10 -0.000007 0.000004 24.344891 1.474173 0.162633 -0.027736
    11 -0.002360 -1.019903 24.031330 0.389409 -0.018079 0.001141
    12 0.000000 -0.000002 13.404737 0.000001 0.000005 0.014212
    13 -0.061540 -5.245835 72.927078 0.000000 0.000000 0.000000
    14 2.653749 12.150857 -27.583641 0.205896 0.359461 0.652538
    15 0.000000 -0.005608 -1.146812 -0.031255 -0.390372 -0.737447
    16 0.030770 -0.240000 8.906021 -0.004138 0.000000 0.000000
    17 -0.003883 -1.577317 -0.211342 0.200006 -0.191573 0.658431
    18 0.030770 -0.276858 8.905140 0.056125 0.004134 -0.000049
    19 0.373746 0.102441 0.018356 0.017768 0.102919 0.069090
    20 5.669724 4.435303 14.302868 2.048307 -1.048699 1.068360
    21 -1.044571 -2.839317 19.743267 0.433807 -0.660017 -0.107520
    22 2.655533 -1.533369 24.792658 -1.176789 0.093225 0.243040
    23 1.120163 -0.154394 9.796035 -0.002714 0.000326 -0.023558
    24 2.240311 -0.308786 19.592051 -0.039856 -0.176106 -0.046151
    25 0.683151 2.877354 14.167051 -1.604473 -0.208955 1.789841
    26 0.144936 -0.145374 7.579252 -1.541338 -0.243025 0.192901
    27 0.091660 -0.906685 4.702850 -2.179657 -0.149705 0.299639
    28 0.506271 8.500866 13.617253 -1.710300 -0.278083 1.993693
    29 -0.384987 -0.460049 7.003448 -1.466275 -0.459218 0.447009
    30 0.561516 -0.596954 5.061852 -1.949558 -0.344315 0.554637
    31 -2.452171 -8.899406 11.597897 -1.419587 -0.110537 1.352647
    32 0.680496 -0.903999 6.074253 -1.454010 0.158683 -0.002608
    33 0.245514 -0.661150 3.388004 -1.667415 0.103003 -0.112663
    34 -0.717484 -3.784271 13.043911 -1.725743 -0.009830 1.454334
    35 1.099216 -1.407745 8.017889 -1.350749 0.021008 -0.003953
    36 0.068439 -0.807653 3.686054 -1.839852 0.041379 -0.021880
    37 -4.004929 6.172707 4.754754 -0.720236 0.940309 1.497179
    38 0.158352 -1.149811 5.804394 -0.581795 -0.633166 -0.073365
    39 -1.083523 -1.463142 5.544399 -1.425435 -0.590044 0.387375
    40 -6.289886 0.932434 13.569063 -0.126803 0.612110 2.869610
    41 1.327774 -0.766687 12.396328 0.012917 -0.008590 0.125526
    42 -0.096140 1.828087 23.185329 0.154320 -0.059259 -1.689241
    43 2.325478 -0.000003 6.169296 -0.146501 -0.098670 1.049189
    44 0.000000 -3.152912 0.122169 1.961017 0.000000 0.000000
    45 1.068383 -10.478592 7.066338 0.292219 -1.282324 -3.141588
    46 0.000000 0.000000 2.279457 0.547137 -0.343566 0.107833
    47 2.479414 -8.323895 6.074242 -0.036150 -0.113157 0.737548
    48 0.000005 -5.074219 5.929688 0.000000 0.000000 0.000000
    49 -1.068383 -10.478611 7.065971 0.292219 1.282324 3.141588
    50 -0.000488 0.000015 2.279600 0.547136 0.343566 0.107835
    51 -2.479401 -8.323895 6.074234 -0.024887 -0.125894 0.732591
    52 -5.790000 4.432083 14.255558 -4.808640 1.372328 -0.922893
    53 1.044540 -2.839314 19.743252 -0.811078 0.604324 -0.207574
    54 -2.655510 -1.533379 24.792648 -1.199082 -0.072525 -0.590561
    55 -1.120216 -0.154385 9.795983 -0.052881 0.005039 0.464529
    56 -2.240372 -0.308788 19.592047 -0.197795 0.252573 0.893677
    57 -0.683205 2.877342 14.167089 -1.511324 0.211739 -1.554302
    58 -0.144958 -0.145317 7.579308 -1.772301 0.309279 -0.224156
    59 -0.038551 -0.936644 4.697678 -1.586056 0.261752 -0.218437
    60 -0.506317 8.500896 13.617329 -1.470468 0.303320 -1.571570
    61 0.385056 -0.460075 7.003435 -1.777738 0.587339 -0.538339
    62 -0.456360 -0.710276 5.057732 -1.487158 0.565518 -0.447734
    63 2.452194 -8.899408 11.597939 -1.564403 0.075995 -1.475290
    64 -0.680515 -0.903999 6.074242 -1.628031 -0.189767 0.011189
    65 -0.248295 -0.666843 3.386627 -1.485218 -0.127720 0.108395
    66 0.717491 -3.784309 13.044010 -1.593579 0.028647 -1.464728
    67 -1.099228 -1.407673 8.017876 -1.782230 -0.025469 0.018644
    68 -0.064053 -0.807640 3.686100 -1.465933 -0.031321 0.006237
    69 4.004906 6.172710 4.754800 0.109551 -1.126781 -2.531025
    70 -0.158381 -1.149773 5.804405 -0.789206 0.528808 0.259739
    71 1.078559 -2.386406 5.215008 -0.687550 0.389954 0.162246
    72 6.289963 0.932404 13.569109 -0.126801 -0.612098 -2.869612
    73 -1.327759 -0.766682 12.396324 0.023361 0.017459 -0.236130
    74 0.000017 -54.999996 0.000000 0.000000 0.000000 -1.570796
  time 10
    0 0.000000 0.000000 -1.500000 0.000000 0.000000 0.000000
    1 -10.521344 -5.760963 66.994621 3.097005 -0.050653 -3.139334
    2 -2.859091 14.473049 27.733399 0.122597 0.635904 0.171229
    3 -0.000034 0.000012 24.761454 -1.608102 -0.186362 0.215609
    4 0.000017 0.000000 24.344809 2.319171 -0.462627 -0.402014
    5 0.002333 -1.019846 24.031336 0.390145 -0.022708 0.032122
    6 0.000034 0.000008 13.404741 -0.000001 -0.000009 0.064227
    7 10.398263 -5.760962 66.994675 3.097005 0.050653 3.139334
    8 0.019365 13.412276 28.201820 1.583132 -0.169546 -0.134363
    9 -0.000004 -0.000006 24.761459 -1.868301 0.216426 -0.071925
    10 -0.000007 0.000004 24.344891 1.279457 0.160167 -0.015461
    11 -0.002360 -1.019903 24.031330 0.389409 -0.015226 0.003275
    12 0.000000 -0.000002 13.404737 0.000001 0.000005 0.033663
    13 -0.061540 -5.245835 72.927078 0.000000 0.000000 0.000000
    14 2.024823 15.854187 -27.561110 0.186661 0.374411 0.630378
    15 0.000000 -0.005608 -1.146812 -0.042036 -0.389023 -0.661764
    16 0.030770 -0.240000 8.906021 -0.004138 0.000000 0.000000
    17 0.082057 -1.432782 -0.180091 0.184475 -0.172506 0.696008
    18 0.030770 -0.276858 8.905140 0.056125 0.004134 -0.000049
    19 0.369840 0.121973 0.010544 0.008259 0.105553 0.071942
    20 5.669724 4.435303 14.302868 2.080082 -1.064097 1.114456
    21 -1.044571 -2.839317 19.743267 0.428769 -0.646240 -0.100582
    22 2.655533 -1.533369 24.792658 -1.153919 0.090804 0.240613
    23 1.120163 -0.154394 9.796035 -0.006681 0.000710 -0.058120
    24 2.240311 -0.308786 19.592051 -0.027105 -0.135447 -0.116256
    25 0.683151 2.877354 14.167051 -1.604528 -0.208955 1.789829
    26 0.144936 -0.145374 7.579252 -1.541338 -0.243037 0.192901
    27 0.091660 -0.906685 4.702850 -2.179566 -0.149693 0.299639
    28 0.506271 8.500866 13.617253 -1.710300 -0.278083 1.993693
    29 -0.384987 -0.460049 7.003448 -1.466275 -0.459218 0.447021
    30 0.561516 -0.596954 5.061852 -1.949558 -0.344315 0.554637
    31 -2.452171 -8.899406 11.597897 -1.419587 -0.110537 1.352647
    32 0.680496 -0.903999 6.074253 -1.454010 0.158683 -0.002608
    33 0.245514 -0.661150 3.388004 -1.667415 0.103003 -0.112663
    34 -0.717484 -3.784271 13.043911 -1.725743 -0.009842 1.454334
    35 1.099216 -1.407745 8.017889 -1.350749 0.021008 -0.003953
    36 0.068439 -0.807653 3.686054 -1.839852 0.041379 -0.021880
    37 -4.004929 6.172707 4.754754 -0.720236 0.940309 1.497179
    38 0.158352 -1.149811 5.804394 -0.581795 -0.633166 -0.073365
    39 -1.083523 -1.463142 5.544399 -1.425435 -0.590044 0.387375
    40 -6.289886 0.932434 13.569063 -0.126803 0.612110 2.869610
    41 1.327774 -0.766687 12.396328 0.012534 -0.008278 0.121509
    42 -0.096140 1.828087 23.185329 0.154320 -0.059259 -1.689241
    43 2.325478 -0.000003 6.169296 -0.159776 -0.106252 1.050546
    44 0.000000 -3.152912 0.122169 1.961017 0.000000 0.000000
    45 1.068383 -10.478592 7.066338 0.292219 -1.282324 -3.141588
    46 0.000000 0.000000 2.279457 0.547137 -0.343566 0.107833
    47 2.479414 -8.323895 6.074242 -0.036558 -0.147814 0.726660
    48 0.000005 -5.074219 5.929688 0.000000 0.000000 0.000000
    49 -1.068383 -10.478611 7.065971 0.292219 1.282324 3.141588
    50 -0.000488 0.000015 2.279600 0.547136 0.343566 0.107835
    51 -2.479401 -8.323895 6.074234 -0.025409 -0.160104 0.721286
    52 -5.790000 4.432083 14.255558 -4.856568 1.373906 -0.966489
    53 1.044540 -2.839314 19.743252 -0.794102 0.644644 -0.227686
    54 -2.655510 -1.533379 24.792648 -1.211663 -0.081132 -0.519072
    55 -1.120216 -0.154385 9.795983 -0.052534 0.004919 0.461319
    56 -2.240372 -0.308788 19.592047 -0.203217 0.290047 0.884569
    57 -0.683205 2.877342 14.167089 -1.511373 0.211739 -1.554302
    58 -0.144958 -0.145317 7.579308 -1.772247 0.309279 -0.224156
    59 -0.038551 -0.936644 4.697678 -1.586056 0.261752 -0.218437
    60 -0.506317 8.500896 13.617329 -1.470468 0.303320 -1.571570
    61 0.385056 -0.460075 7.003435 -1.777695 0.587339 -0.538339
    62 -0.456360 -0.710276 5.057732 -1.487158 0.565518 -0.447734
    63 2.452194 -8.899408 11.597939 -1.564403 0.075995 -1.475290
    64 -0.680515 -0.903999 6.074242 -1.628031 -0.189767 0.011201
    65 -0.248295 -0.666843 3.386627 -1.485218 -0.127720 0.108395
    66 0.717491 -3.784309 13.044010 -1.593579 0.028647 -1.464728
    67 -1.099228 -1.407673 8.017876 -1.782230 -0.025481 0.018644
    68 -0.064053 -0.807640 3.686100 -1.465933 -0.031321 0.006225
    69 4.004906 6.172710 4.754800 0.109551 -1.126781 -2.531025
    70 -0.158381 -1.149773 5.804405 -0.789206 0.528808 0.259739
    71 1.078559 -2.386406 5.215008 -0.687550 0.389954 0.162209
    72 6.289963 0.932404 13.569109 -0.126801 -0.612098 -2.869612
    73 -1.327759 -0.766682 12.396324 0.019502 0.013935 -0.194029
    74 0.000017 -54.999996 0.000000 0.000000 0.000000 -1.570796
  time 11
    0 0.000000 0.000000 -1.500000 0.000000 0.000000 0.000000
    1 -10.521344 -5.760963 66.994621 3.097005 -0.050653 -3.139334
    2 -1.644210 17.763283 27.352182 0.219610 0.624436 0.151787
    3 -0.000034 0.000012 24.761454 -1.715461 -0.198754 0.302135
    4 0.000017 0.000000 24.344809 2.295252 -0.408892 -0.335877
    5 0.002333 -1.019846 24.031336 0.390220 -0.019400 0.034579
    6 0.000034 0.000008 13.404741 -0.000001 -0.000009 0.092660
    7 10.398263 -5.760962 66.994675 3.097005 0.050653 3.139334
    8 1.167838 17.496301 27.842137 1.605654 -0.165559 -0.178179
    9 -0.000004 -0.000006 24.761459 -1.703584 0.197431 -0.054376
    10 -0.000007 0.000004 24.344891 1.096165 0.166566 0.009131
    11 -0.002360 -1.019903 24.031330 0.389409 -0.012614 0.005240
    12 0.000000 -0.000002 13.404737 0.000001 0.000005 0.048992
    13 -0.061540 -5.245835 72.927078 0.000000 0.000000 0.000000
    14 0.825568 19.557518 -26.997832 0.165122 0.385354 0.599331
    15 0.000000 -0.005608 -1.146812 -0.049149 -0.386655 -0.593255
    16 0.030770 -0.240000 8.906021 -0.004138 0.000000 0.000000
    17 0.140653 -1.284340 -0.152747 0.168714 -0.154616 0.724441
    18 0.030770 -0.276858 8.905140 0.056125 0.004134 -0.000049
    19 0.358120 0.141505 0.002731 -0.002142 0.108762 0.073548
    20 5.669724 4.435303 14.302868 2.095107 -1.081538 1.171572
    21 -1.044571 -2.839317 19.743267 0.397411 -0.635751 -0.085636
    22 2.655533 -1.533369 24.792658 -1.117596 0.087922 0.220638
    23 1.120163 -0.154394 9.796035 -0.010803 0.000961 -0.094062
    24 2.240311 -0.308786 19.592051 -0.021752 -0.089863 -0.188418
    25 0.683151 2.877354 14.167051 -1.604473 -0.208955 1.789829
    26 0.144936 -0.145374 7.579252 -1.541338 -0.243037 0.192901
    27 0.091660 -0.906685 4.702850 -2.179566 -0.149705 0.299639
    28 0.506271 8.500866 13.617253 -1.710300 -0.278083 1.993693
    29 -0.384987 -0.460049 7.003448 -1.466275 -0.459230 0.447021
    30 0.561516 -0.596954 5.061852 -1.949558 -0.344315 0.554637
    31 -2.452171 -8.899406 11.597897 -1.419587 -0.110537 1.352647
    32 0.680496 -0.903999 6.074253 -1.454010 0.158683 -0.002608
    33 0.245514 -0.661150 3.388004 -1.667415 0.103003 -0.112663
    34 -0.717484 -3.784271 13.043911 -1.725743 -0.009854 1.454334
    35 1.099216 -1.407745 8.017889 -1.350749 0.021020 -0.003941
    36 0.068439 -0.807653 3.686054 -1.839852 0.041379 -0.021880
    37 -4.004929 6.172707 4.754754 -0.720236 0.940309 1.497179
    38 0.158352 -1.149811 5.804394 -0.581795 -0.633166 -0.073365
    39 -1.083523 -1.463142 5.544399 -1.425435 -0.590044 0.387375
    40 -6.289886 0.932434 13.569063 -0.126803 0.612110 2.869610
    41 1.327774 -0.766687 12.396328 0.010856 -0.007056 0.104787
    42 -0.096140 1.828087 23.185329 0.154320 -0.059259 -1.689241
    43 2.325478 -0.000003 6.169296 -0.175103 -0.114962 1.052302
    44 0.000000 -3.152912 0.122169 1.961017 0.000000 0.000000
    45 1.068383 -10.478592 7.066338 0.292219 -1.282324 -3.141588
    46 0.000000 0.000000 2.279457 0.547137 -0.343566 0.107833
    47 2.479414 -8.323895 6.074242 -0.036585 -0.182752 0.734969
    48 0.000005 -5.074219 5.929688 0.000000 0.000000 0.000000
    49 -1.068383 -10.478611 7.065971 0.292219 1.282324 3.141588
    50 -0.000488 0.000015 2.279600 0.547136 0.343566 0.107835
    51 -2.479401 -8.323895 6.074234 -0.025308 -0.194361 0.729525
    52 -5.790000 4.432083 14.255558 -4.934117 1.369877 -1.033368
    53 1.044540 -2.839314 19.743252 -0.771840 0.691789 -0.249486
    54 -2.655510 -1.533379 24.792648 -1.222936 -0.089739 -0.442357
    55 -1.120216 -0.154385 9.795983 -0.051683 0.004644 0.453402
    56 -2.240372 -0.308788 19.592047 -0.210472 0.322571 0.866182
    57 -0.683205 2.877342 14.167089 -1.511373 0.211739 -1.554302
    58 -0.144958 -0.145317 7.579308 -1.772247 0.309279 -0.224156
    59 -0.038551 -0.936644 4.697678 -1.586056 0.261752 -0.218437
    60 -0.506317 8.500896 13.617329 -1.470468 0.303320 -1.571570
    61 0.385056 -0.460075 7.003435 -1.777695 0.587339 -0.538339
    62 -0.456360 -0.710276 5.057732 -1.487158 0.565518 -0.447734
    63 2.452194 -8.899408 11.597939 -1.564403 0.075995 -1.475290
    64 -0.680515 -0.903999 6.074242 -1.628031 -0.189767 0.011189
    65 -0.248295 -0.666843 3.386627 -1.485218 -0.127720 0.108395
    66 0.717491 -3.784309 13.044010 -1.593579 0.028647 -1.464728
    67 -1.099228 -1.407673 8.017876 -1.782230 -0.025469 0.018644
    68 -0.064053 -0.807640 3.686100 -1.465933 -0.031321 0.006237
    69 4.004906 6.172710 4.754800 0.109551 -1.126781 -2.531025
    70 -0.158381 -1.149773 5.804405 -0.789206 0.528808 0.259739
    71 1.078559 -2.386406 5.215008 -0.687550 0.389923 0.162209
    72 6.289963 0.932404 13.569109 -0.126801 -0.612098 -2.869612
    73 -1.327759 -0.766682 12.396324 0.015163 0.010328 -0.148458
    74 0.000017 -54.999996 0.000000 0.000000 0.000000 -1.570796
  time 12
    0 0.000000 0.000000 -1.500000 0.000000 0.000000 0.000000
    1 -10.521344 -5.760963 66.994621 3.097005 -0.050653 -3.139334
    2 -0.019161 21.053517 26.679445 0.315666 0.609016 0.144228
    3 -0.000034 0.000012 24.761454 -1.797942 -0.208269 0.398718
    4 0.000017 0.000000 24.344809 2.252839 -0.344745 -0.250230
    5 0.002333 -1.019846 24.031336 0.390369 -0.016368 0.036844
    6 0.000034 0.000008 13.404741 -0.000001 -0.000009 0.132928
    7 10.398263 -5.760962 66.994675 3.097005 0.050653 3.139334
    8 2.722573 21.330538 27.100291 1.579719 -0.181398 -0.217952
    9 -0.000004 -0.000006 24.761459 -1.504769 0.174432 -0.052043
    10 -0.000007 0.000004 24.344891 0.927458 0.181898 0.035467
    11 -0.002360 -1.019903 24.031330 0.389432 -0.010325 0.006942
    12 0.000000 -0.000002 13.404737 0.000001 0.000005 0.054381
    13 -0.061540 -5.245835 72.927078 0.000000 0.000000 0.000000
    14 -0.779950 23.097809 -26.164182 0.142207 0.392648 0.558254
    15 0.000000 -0.005608 -1.146812 -0.053264 -0.382969 -0.530344
    16 0.030770 -0.240000 8.906021 -0.004138 0.000000 0.000000
    17 0.167997 -1.139804 -0.125402 0.152320 -0.138335 0.744128
    18 0.030770 -0.276858 8.905140 0.056125 0.004134 -0.000049
    19 0.358120 0.161037 -0.001176 -0.011936 0.113370 0.073992
    20 5.669724 4.435303 14.302868 2.099893 -1.100705 1.236452
    21 -1.044571 -2.839317 19.743267 0.345164 -0.629072 -0.065331
    22 2.655533 -1.533369 24.792658 -1.069643 0.084963 0.188047
    23 1.120163 -0.154394 9.796035 -0.015178 0.001057 -0.131763
    24 2.240311 -0.308786 19.592051 -0.024450 -0.042804 -0.263864
    25 0.683151 2.877354 14.167051 -1.604473 -0.208955 1.789829
    26 0.144936 -0.145374 7.579252 -1.541338 -0.243037 0.192901
    27 0.091660 -0.906685 4.702850 -2.179566 -0.149705 0.299639
    28 0.506271 8.500866 13.617253 -1.710300 -0.278083 1.993693
    29 -0.384987 -0.460049 7.003448 -1.466275 -0.459218 0.447021
    30 0.561516 -0.596954 5.061852 -1.949558 -0.344315 0.554637
    31 -2.452171 -8.899406 11.597897 -1.419587 -0.110537 1.352647
    32 0.680496 -0.903999 6.074253 -1.454010 0.158683 -0.002608
    33 0.245514 -0.661150 3.388004 -1.667415 0.103003 -0.112663
    34 -0.717484 -3.784271 13.043911 -1.725743 -0.009830 1.454334
    35 1.099216 -1.407745 8.017889 -1.350749 0.021020 -0.003941
    36 0.068439 -0.807653 3.686054 -1.839852 0.041379 -0.021880
    37 -4.004929 6.172707 4.754754 -0.720236 0.940309 1.497179
    38 0.158352 -1.149811 5.804394 -0.581795 -0.633166 -0.073365
    39 -1.083523 -1.463142 5.544399 -1.425383 -0.590044 0.387375
    40 -6.289886 0.932434 13.569063 -0.126803 0.612110 2.869610
    41 1.327774 -0.766687 12.396328 0.008399 -0.005306 0.080382
    42 -0.096140 1.828087 23.185329 0.154320 -0.059259 -1.689241
    43 2.325478 -0.000003 6.169296 -0.191195 -0.124063 1.054178
    44 0.000000 -3.152912 0.122169 1.961017 0.000000 0.000000
    45 1.068383 -10.478592 7.066338 0.292219 -1.282324 -3.141588
    46 0.000000 0.000000 2.279457 0.547137 -0.343566 0.107833
    47 2.479414 -8.323895 6.074242 -0.036340 -0.219099 0.761043
    48 0.000005 -5.074219 5.929688 0.000000 0.000000 0.000000
    49 -1.068383 -10.478611 7.065971 0.292219 1.282324 3.141588
    50 -0.000488 0.000015 2.279600 0.547136 0.343566 0.107835
    51 -2.479401 -8.323895 6.074234 -0.024626 -0.229941 0.755968
    52 -5.790000 4.432083 14.255558 -5.024032 1.361528 -1.110404
    53 1.044540 -2.839314 19.743252 -0.746739 0.742157 -0.270251
    54 -2.655510 -1.533379 24.792648 -1.232498 -0.097673 -0.365112
    55 -1.120216 -0.154385 9.795983 -0.050364 0.004224 0.441623
    56 -2.240372 -0.308788 19.592047 -0.220018 0.350491 0.840148
    57 -0.683205 2.877342 14.167089 -1.511373 0.211739 -1.554302
    58 -0.144958 -0.145317 7.579308 -1.772247 0.309279 -0.224156
    59 -0.038551 -0.936644 4.697678 -1.586056 0.261752 -0.218437
    60 -0.506317 8.500896 13.617329 -1.470468 0.303320 -1.571570
    61 0.385056 -0.460075 7.003435 -1.777695 0.587339 -0.538339
    62 -0.456360 -0.710276 5.057732 -1.487158 0.565518 -0.447752
    63 2.452194 -8.899408 11.597939 -1.564403 0.075995 -1.475290
    64 -0.680515 -0.903999 6.074242 -1.628031 -0.189767 0.011189
    65 -0.248295 -0.666843 3.386627 -1.485218 -0.127720 0.108395
    66 0.717491 -3.784309 13.044010 -1.593579 0.028647 -1.464728
    67 -1.099228 -1.407673 8.017876 -1.782230 -0.025481 0.018644
    68 -0.064053 -0.807640 3.686100 -1.465933 -0.031321 0.006237
    69 4.004906 6.172710 4.754800 0.109551 -1.126781 -2.531025
    70 -0.158381 -1.149773 5.804405 -0.789206 0.528808 0.259739
    71 1.078559 -2.386406 5.215008 -0.687550 0.389954 0.162209
    72 6.289963 0.932404 13.569109 -0.126801 -0.612098 -2.869612
    73 -1.327759 -0.766682 12.396324 0.010765 0.006972 -0.103720
    74 0.000017 -54.999996 0.000000 0.000000 0.000000 -1.570796
  time 13
    0 0.000000 0.000000 -1.500000 0.000000 0.000000 0.000000
    1 -10.521344 -5.760963 66.994621 3.097005 -0.050653 -3.139334
    2 1.855897 24.196426 25.849737 0.403388 0.586609 0.146456
    3 -0.000034 0.000012 24.761454 -1.851114 -0.214430 0.493713
    4 0.000017 0.000000 24.344809 2.201548 -0.274577 -0.155249
    5 0.002333 -1.019846 24.031336 0.390444 -0.013671 0.038833
    6 0.000034 0.000008 13.404741 -0.000001 -0.000009 0.181906
    7 10.398263 -5.760962 66.994675 3.097005 0.050653 3.139334
    8 4.511690 24.677689 26.133644 1.517955 -0.211614 -0.248648
    9 -0.000004 -0.000006 24.761459 -1.284614 0.148977 -0.063814
    10 -0.000007 0.000004 24.344891 0.771724 0.205807 0.056885
    11 -0.002360 -1.019903 24.031330 0.389432 -0.008479 0.008308
    12 0.000000 -0.000002 13.404737 0.000001 0.000005 0.049443
    13 -0.061540 -5.245835 72.927078 0.000000 0.000000 0.000000
    14 -2.623756 26.300375 -25.105220 0.118876 0.396674 0.506128
    15 0.000000 -0.005608 -1.146812 -0.055082 -0.377683 -0.471619
    16 0.030770 -0.240000 8.906021 -0.004138 0.000000 0.000000
    17 0.171903 -0.999175 -0.098058 0.135149 -0.124117 0.755509
    18 0.030770 -0.276858 8.905140 0.056125 0.004134 -0.000049
    19 0.362027 0.168850 -0.005082 -0.019765 0.120097 0.073285
    20 5.669724 4.435303 14.302868 2.099988 -1.121740 1.305356
    21 -1.044571 -2.839317 19.743267 0.277947 -0.624114 -0.041586
    22 2.655533 -1.533369 24.792658 -1.011969 0.082196 0.148743
    23 1.120163 -0.154394 9.796035 -0.019792 0.000997 -0.171775
    24 2.240311 -0.308786 19.592051 -0.035330 0.002597 -0.344097
    25 0.683151 2.877354 14.167051 -1.604528 -0.208955 1.789829
    26 0.144936 -0.145374 7.579252 -1.541338 -0.243037 0.192901
    27 0.091660 -0.906685 4.702850 -2.179566 -0.149693 0.299627
    28 0.506271 8.500866 13.617253 -1.710300 -0.278083 1.993693
    29 -0.384987 -0.460049 7.003448 -1.466275 -0.459218 0.447009
    30 0.561516 -0.596954 5.061852 -1.949558 -0.344315 0.554637
    31 -2.452171 -8.899406 11.597897 -1.419587 -0.110537 1.352647
    32 0.680496 -0.903999 6.074253 -1.454010 0.158683 -0.002608
    33 0.245514 -0.661150 3.388004 -1.667415 0.103003 -0.112675
    34 -0.717484 -3.784271 13.043911 -1.725743 -0.009842 1.454334
    35 1.099216 -1.407745 8.017889 -1.350749 0.021008 -0.003953
    36 0.068439 -0.807653 3.686054 -1.839852 0.041379 -0.021880
    37 -4.004929 6.172707 4.754754 -0.720236 0.940309 1.497275
    38 0.158352 -1.149811 5.804394 -0.581795 -0.633180 -0.073365
    39 -1.083523 -1.463142 5.544399 -1.425435 -0.590056 0.387375
    40 -6.289886 0.932434 13.569063 -0.126803 0.612110 2.869610
    41 1.327774 -0.766687 12.396328 0.005583 -0.003425 0.053065
    42 -0.096140 1.828087 23.185329 0.154320 -0.059259 -1.689241
    43 2.325478 -0.000003 6.169296 -0.206714 -0.132788 1.056134
    44 0.000000 -3.152912 0.122169 1.961017 0.000000 0.000000
    45 1.068383 -10.478592 7.066338 0.292219 -1.282324 -3.141588
    46 0.000000 0.000000 2.279457 0.547137 -0.343566 0.107833
    47 2.479414 -8.323895 6.074242 -0.035715 -0.257841 0.805072
    48 0.000005 -5.074219 5.929688 0.000000 0.000000 0.000000
    49 -1.068383 -10.478611 7.065971 0.292219 1.282324 3.141588
    50 -0.000488 0.000015 2.279600 0.547136 0.343566 0.107835
    51 -2.479401 -8.323895 6.074234 -0.023280 -0.267978 0.800518
    52 -5.790000 4.432083 14.255558 -5.111262 1.350521 -1.186577
    53 1.044540 -2.839314 19.743252 -0.720191 0.791762 -0.287778
    54 -2.655510 -1.533379 24.792648 -1.239493 -0.104532 -0.292033
    55 -1.120216 -0.154385 9.795983 -0.048734 0.003721 0.426824
    56 -2.240372 -0.308788 19.592047 -0.231931 0.374352 0.808100
    57 -0.683205 2.877342 14.167089 -1.511324 0.211739 -1.554289
    58 -0.144958 -0.145317 7.579308 -1.772301 0.309267 -0.224156
    59 -0.038551 -0.936644 4.697678 -1.586056 0.261752 -0.218437
    60 -0.506317 8.500896 13.617329 -1.470468 0.303320 -1.571570
    61 0.385056 -0.460075 7.003435 -1.777738 0.587339 -0.538339
    62 -0.456360 -0.710276 5.057732 -1.487158 0.565518 -0.447752
    63 2.452194 -8.899408 11.597939 -1.564403 0.075995 -1.475290
    64 -0.680515 -0.903999 6.074242 -1.628031 -0.189767 0.011189
    65 -0.248295 -0.666843 3.386627 -1.485218 -0.127720 0.108395
    66 0.717491 -3.784309 13.044010 -1.593579 0.028647 -1.464728
    67 -1.099228 -1.407673 8.017876 -1.782230 -0.025469 0.018644
    68 -0.064053 -0.807640 3.686100 -1.465933 -0.031321 0.006237
    69 4.004906 6.172710 4.754800 0.109551 -1.126781 -2.531025
    70 -0.158381 -1.149773 5.804405 -0.789206 0.528808 0.259768
    71 1.078559 -2.386406 5.215008 -0.687550 0.389923 0.162209
    72 6.289963 0.932404 13.569109 -0.126801 -0.612098 -2.869612
    73 -1.327759 -0.766682 12.396324 0.006654 0.004120 -0.063470
    74 0.000017 -54.999996 0.000000 0.000000 0.000000 -1.570796
  time 14
    0 0.000000 0.000000 -1.500000 0.000000 0.000000 0.000000
    1 -10.521344 -5.760963 66.994621 3.097005 -0.050653 -3.139334
    2 3.809081 27.020134 24.975180 0.476831 0.555573 0.155806
    3 -0.000034 0.000012 24.761454 -1.875342 -0.217222 0.574579
    4 0.000017 0.000000 24.344809 2.150874 -0.203481 -0.063854
    5 0.002333 -1.019846 24.031336 0.390556 -0.011430 0.040511
    6 0.000034 0.000008 13.404741 -0.000001 -0.000009 0.231877
    7 10.398263 -5.760962 66.994675 3.097005 0.050653 3.139334
    8 6.371122 27.400372 25.122036 1.432048 -0.252255 -0.265894
    9 -0.000004 -0.000006 24.761459 -1.055165 0.122419 -0.087715
    10 -0.000007 0.000004 24.344891 0.628898 0.237315 0.069412
    11 -0.002360 -1.019903 24.031330 0.389478 -0.007233 0.009243
    12 0.000000 -0.000002 13.404737 0.000001 0.000005 0.035681
    13 -0.061540 -5.245835 72.927078 0.000000 0.000000 0.000000
    14 -4.506626 29.013822 -24.023727 0.096057 0.397879 0.441871
    15 0.000000 -0.005608 -1.146812 -0.055274 -0.370421 -0.415474
    16 0.030770 -0.240000 8.906021 -0.004138 0.000000 0.000000
    17 0.152372 -0.862452 -0.078526 0.116967 -0.112533 0.759024
    18 0.030770 -0.276858 8.905140 0.056125 0.004134 -0.000049
    19 0.381559 0.168850 -0.005082 -0.024233 0.129786 0.071535
    20 5.669724 4.435303 14.302868 2.101998 -1.145242 1.374739
    21 -1.044571 -2.839317 19.743267 0.201729 -0.618583 -0.016149
    22 2.655533 -1.533369 24.792658 -0.946180 0.079852 0.108630
    23 1.120163 -0.154394 9.796035 -0.024694 0.000734 -0.214443
    24 2.240311 -0.308786 19.592051 -0.053912 0.042656 -0.430383
    25 0.683151 2.877354 14.167051 -1.604473 -0.208955 1.789829
    26 0.144936 -0.145374 7.579252 -1.541338 -0.243013 0.192901
    27 0.091660 -0.906685 4.702850 -2.179566 -0.149693 0.299639
    28 0.506271 8.500866 13.617253 -1.710238 -0.278083 1.993693
    29 -0.384987 -0.460049 7.003448 -1.466275 -0.459218 0.447009
    30 0.561516 -0.596954 5.061852 -1.949558 -0.344315 0.554649
    31 -2.452171 -8.899406 11.597897 -1.419587 -0.110537 1.352647
    32 0.680496 -0.903999 6.074253 -1.454010 0.158683 -0.002608
    33 0.245514 -0.661150 3.388004 -1.667361 0.103003 -0.112663
    34 -0.717484 -3.784271 13.043911 -1.725699 -0.009830 1.454334
    35 1.099216 -1.407745 8.017889 -1.350749 0.021008 -0.003953
    36 0.068439 -0.807653 3.686054 -1.839816 0.041379 -0.021880
    37 -4.004929 6.172707 4.754754 -0.720146 0.940309 1.497179
    38 0.158352 -1.149811 5.804394 -0.581837 -0.633166 -0.073365
    39 -1.083523 -1.463142 5.544399 -1.425435 -0.590056 0.387375
    40 -6.289886 0.932434 13.569063 -0.126803 0.612110 2.869610
    41 1.327774 -0.766687 12.396328 0.002886 -0.001723 0.027254
    42 -0.096140 1.828087 23.185329 0.154320 -0.059259 -1.689241
    43 2.325478 -0.000003 6.169296 -0.220227 -0.140355 1.058010
    44 0.000000 -3.152912 0.122169 1.961017 0.000000 0.000000
    45 1.068383 -10.478592 7.066338 0.292219 -1.282324 -3.141588
    46 0.000000 0.000000 2.279457 0.547137 -0.343566 0.107833
    47 2.479414 -8.323895 6.074242 -0.034546 -0.299212 0.867534
    48 0.000005 -5.074219 5.929688 0.000000 0.000000 0.000000
    49 -1.068383 -10.478611 7.065971 0.292219 1.282324 3.141588
    50 -0.000488 0.000015 2.279600 0.547136 0.343566 0.107835
    51 -2.479401 -8.323895 6.074234 -0.021171 -0.308661 0.864134
    52 -5.790000 4.432083 14.255558 -5.185073 1.338849 -1.255181
    53 1.044540 -2.839314 19.743252 -0.692251 0.836067 -0.299725
    54 -2.655510 -1.533379 24.792648 -1.243419 -0.109955 -0.227056
    55 -1.120216 -0.154385 9.795983 -0.046877 0.003194 0.409985
    56 -2.240372 -0.308788 19.592047 -0.245830 0.394698 0.771498
    57 -0.683205 2.877342 14.167089 -1.511373 0.211739 -1.554289
    58 -0.144958 -0.145317 7.579308 -1.772247 0.309279 -0.224156
    59 -0.038551 -0.936644 4.697678 -1.586056 0.261752 -0.218437
    60 -0.506317 8.500896 13.617329 -1.470468 0.303320 -1.571570
    61 0.385056 -0.460075 7.003435 -1.777695 0.587339 -0.538339
    62 -0.456360 -0.710276 5.057732 -1.487158 0.565518 -0.447734
    63 2.452194 -8.899408 11.597939 -1.564403 0.075995 -1.475290
    64 -0.680515 -0.903999 6.074242 -1.627977 -0.189767 0.011201
    65 -0.248295 -0.666843 3.386627 -1.485218 -0.127720 0.108395
    66 0.717491 -3.784309 13.044010 -1.593579 0.028647 -1.464728
    67 -1.099228 -1.407673 8.017876 -1.782230 -0.025481 0.018644
    68 -0.064053 -0.807640 3.686100 -1.465933 -0.031321 0.006237
    69 4.004906 6.172710 4.754800 0.109551 -1.126781 -2.531025
    70 -0.158381 -1.149773 5.804405 -0.789206 0.528808 0.259739
    71 1.078559 -2.386406 5.215008 -0.687550 0.389923 0.162209
    72 6.289963 0.932404 13.569109 -0.126801 -0.612098 -2.869612
    73 -1.327759 -0.766682 12.396324 0.003203 0.001915 -0.030159
    74 0.000017 -54.999996 0.000000 0.000000 0.000000 -1.570796
  time 15
    0 0.000000 0.000000 -1.500000 0.000000 0.000000 0.000000
    1 -10.521344 -5.760963 66.994621 3.097005 -0.050653 -3.139334
    2 5.660700 29.352763 24.190321 0.533263 0.516269 0.171534
    3 -0.000034 0.000012 24.761454 -1.877008 -0.217414 0.630445
    4 0.000017 0.000000 24.344809 2.108646 -0.137975 0.013172
    5 0.002333 -1.019846 24.031336 0.390593 -0.009704 0.041793
    6 0.000034 0.000008 13.404741 -0.000001 -0.000009 0.272861
    7 10.398263 -5.760962 66.994675 3.097005 0.050653 3.139334
    8 8.136801 29.336224 24.245310 1.334538 -0.301456 -0.267132
    9 -0.000004 -0.000006 24.761459 -0.834515 0.096892 -0.123029
    10 -0.000007 0.000004 24.344891 0.503304 0.274112 0.071682
    11 -0.002360 -1.019903 24.031330 0.389478 -0.006657 0.009650
    12 0.000000 -0.000002 13.404737 0.000001 0.000005 0.014899
    13 -0.061540 -5.245835 72.927078 0.000000 0.000000 0.000000
    14 -6.276211 31.075110 -23.099952 0.074742 0.396743 0.364342
    15 0.000000 -0.005608 -1.146812 -0.054444 -0.360853 -0.360363
    16 0.030770 -0.240000 8.906021 -0.004138 0.000000 0.000000
    17 0.109402 -0.741354 -0.058994 0.097796 -0.104202 0.755110
    18 0.030770 -0.276858 8.905140 0.056125 0.004134 -0.000049
    19 0.412810 0.157130 -0.008988 -0.024018 0.143219 0.068874
    20 5.669724 4.435303 14.302868 2.112430 -1.172302 1.440385
    21 -1.044571 -2.839317 19.743267 0.122918 -0.611068 0.008781
    22 2.655533 -1.533369 24.792658 -0.874011 0.078354 0.074341
    23 1.120163 -0.154394 9.796035 -0.029991 0.000182 -0.260319
    24 2.240311 -0.308786 19.592051 -0.078587 0.074151 -0.523593
    25 0.683151 2.877354 14.167051 -1.604473 -0.208955 1.789829
    26 0.144936 -0.145374 7.579252 -1.541338 -0.243013 0.192901
    27 0.091660 -0.906685 4.702850 -2.179566 -0.149693 0.299639
    28 0.506271 8.500866 13.617253 -1.710238 -0.278083 1.993693
    29 -0.384987 -0.460049 7.003448 -1.466275 -0.459218 0.447009
    30 0.561516 -0.596954 5.061852 -1.949558 -0.344315 0.554649
    31 -2.452171 -8.899406 11.597897 -1.419587 -0.110537 1.352647
    32 0.680496 -0.903999 6.074253 -1.454010 0.158695 -0.002608
    33 0.245514 -0.661150 3.388004 -1.667415 0.103003 -0.112663
    34 -0.717484 -3.784271 13.043911 -1.725699 -0.009830 1.454334
    35 1.099216 -1.407745 8.017889 -1.350749 0.021020 -0.003941
    36 0.068439 -0.807653 3.686054 -1.839816 0.041379 -0.021880
    37 -4.004929 6.172707 4.754754 -0.720146 0.940309 1.497179
    38 0.158352 -1.149811 5.804394 -0.581795 -0.633166 -0.073365
    39 -1.083523 -1.463142 5.544399 -1.425435 -0.590032 0.387388
    40 -6.289886 0.932434 13.569063 -0.126803 0.612110 2.869610
    41 1.327774 -0.766687 12.396328 0.000705 -0.000416 0.006816
    42 -0.096140 1.828087 23.185329 0.154320 -0.059259 -1.689241
    43 2.325478 -0.000003 6.169296 -0.230446 -0.146027 1.059487
    44 0.000000 -3.152912 0.122169 1.961017 0.000000 0.000000
    45 1.068383 -10.478592 7.066338 0.292219 -1.282324 -3.141588
    46 0.000000 0.000000 2.279457 0.547137 -0.343566 0.107833
    47 2.479414 -8.323895 6.074242 -0.032752 -0.341946 0.950817
    48 0.000005 -5.074219 5.929688 0.000000 0.000000 0.000000
    49 -1.068383 -10.478611 7.065971 0.292219 1.282324 3.141588
    50 -0.000488 0.000015 2.279600 0.547136 0.343566 0.107835
    51 -2.479401 -8.323895 6.074234 -0.018118 -0.350762 0.948923
    52 -5.790000 4.432083 14.255558 -5.238465 1.329088 -1.313341
    53 1.044540 -2.839314 19.743252 -0.662086 0.869857 -0.303644
    54 -2.655510 -1.533379 24.792648 -1.243469 -0.113864 -0.172985
    55 -1.120216 -0.154385 9.795983 -0.044851 0.002630 0.391894
    56 -2.240372 -0.308788 19.592047 -0.261638 0.412024 0.732490
    57 -0.683205 2.877342 14.167089 -1.511373 0.211739 -1.554302
    58 -0.144958 -0.145317 7.579308 -1.772247 0.309279 -0.224156
    59 -0.038551 -0.936644 4.697678 -1.586056 0.261752 -0.218437
    60 -0.506317 8.500896 13.617329 -1.470468 0.303320 -1.571570
    61 0.385056 -0.460075 7.003435 -1.777695 0.587339 -0.538339
    62 -0.456360 -0.710276 5.057732 -1.487158 0.565518 -0.447734
    63 2.452194 -8.899408 11.597939 -1.564403 0.075995 -1.475290
    64 -0.680515 -0.903999 6.074242 -1.628031 -0.189767 0.011201
    65 -0.248295 -0.666843 3.386627 -1.485218 -0.127720 0.108395
    66 0.717491 -3.784309 13.044010 -1.593579 0.028647 -1.464728
    67 -1.099228 -1.407673 8.017876 -1.782230 -0.025481 0.018644
    68 -0.064053 -0.807640 3.686100 -1.465933 -0.031321 0.006237
    69 4.004906 6.172710 4.754800 0.109551 -1.126781 -2.531025
    70 -0.158381 -1.149773 5.804405 -0.789206 0.528835 0.259739
    71 1.078559 -2.386406 5.215008 -0.687550 0.389954 0.162246
    72 6.289963 0.932404 13.569109 -0.126801 -0.612098 -2.869612
    73 -1.327759 -0.766682 12.396324 0.000530 0.000309 -0.004945
    74 0.000017 -54.999996 0.000000 0.000000 0.000000 -1.570796
  time 16
    0 0.000000 0.000000 -1.500000 0.000000 0.000000 0.000000
    1 -10.521344 -5.760963 66.994621 3.097005 -0.050653 -3.139334
    2 7.223248 31.046987 23.607283 0.573366 0.471232 0.194515
    3 -0.000034 0.000012 24.761454 -1.867984 -0.216359 0.654061
    4 0.000017 0.000000 24.344809 2.080967 -0.085734 0.069867
    5 0.002333 -1.019846 24.031336 0.390668 -0.008626 0.042620
    6 0.000034 0.000008 13.404741 -0.000001 -0.000009 0.297034
    7 10.398263 -5.760962 66.994675 3.097005 0.050653 3.139334
    8 9.656378 30.297906 23.638345 1.246584 -0.360094 -0.254672
    9 -0.000004 -0.000006 24.761459 -0.661219 0.076818 -0.170329
    10 -0.000007 0.000004 24.344891 0.411658 0.311575 0.067542
    11 -0.002360 -1.019903 24.031330 0.389478 -0.006897 0.009483
    12 0.000000 -0.000002 13.404737 0.000001 0.000005 -0.011036
    13 -0.061540 -5.245835 72.927078 0.000000 0.000000 0.000000
    14 -7.752819 32.309553 -22.424019 0.055924 0.393749 0.272280
    15 0.000000 -0.005608 -1.146812 -0.053424 -0.348697 -0.304708
    16 0.030770 -0.240000 8.906021 -0.004138 0.000000 0.000000
    17 0.039087 -0.635882 -0.043368 0.077657 -0.099809 0.744168
    18 0.030770 -0.276858 8.905140 0.056125 0.004134 -0.000049
    19 0.459686 0.125880 -0.016801 -0.018085 0.161280 0.065567
    20 5.669724 4.435303 14.302868 2.138271 -1.204295 1.497694
    21 -1.044571 -2.839317 19.743267 0.047385 -0.602301 0.031116
    22 2.655533 -1.533369 24.792658 -0.797156 0.078046 0.052182
    23 1.120163 -0.154394 9.796035 -0.035599 -0.000645 -0.309713
    24 2.240311 -0.308786 19.592051 -0.106961 0.094135 -0.624438
    25 0.683151 2.877354 14.167051 -1.604473 -0.208955 1.789829
    26 0.144936 -0.145374 7.579252 -1.541338 -0.243025 0.192901
    27 0.091660 -0.906685 4.702850 -2.179566 -0.149705 0.299639
    28 0.506271 8.500866 13.617253 -1.710238 -0.278083 1.993693
    29 -0.384987 -0.460049 7.003448 -1.466275 -0.459230 0.447021
    30 0.561516 -0.596954 5.061852 -1.949558 -0.344315 0.554637
    31 -2.452171 -8.899406 11.597897 -1.419587 -0.110537 1.352647
    32 0.680496 -0.903999 6.074253 -1.454010 0.158695 -0.002608
    33 0.245514 -0.661150 3.388004 -1.667415 0.103003 -0.112663
    34 -0.717484 -3.784271 13.043911 -1.725743 -0.009842 1.454334
    35 1.099216 -1.407745 8.017889 -1.350749 0.021020 -0.003941
    36 0.068439 -0.807653 3.686054 -1.839852 0.041379 -0.021880
    37 -4.004929 6.172707 4.754754 -0.720236 0.940309 1.497179
    38 0.158352 -1.149811 5.804394 -0.581795 -0.633166 -0.073365
    39 -1.083523 -1.463142 5.544399 -1.425435 -0.590032 0.387388
    40 -6.289886 0.932434 13.569063 -0.126803 0.612110 2.869610
    41 1.327774 -0.766687 12.396328 -0.000469 0.000279 -0.004332
    42 -0.096140 1.828087 23.185329 0.154320 -0.059259 -1.689241
    43 2.325478 -0.000003 6.169296 -0.235937 -0.149051 1.060285
    44 0.000000 -3.152912 0.122169 1.961017 0.000000 0.000000
    45 1.068383 -10.478592 7.066338 0.292219 -1.282324 -3.141588
    46 0.000000 0.000000 2.279457 0.547137 -0.343566 0.107833
    47 2.479414 -8.323895 6.074242 -0.029870 -0.382519 1.058072
    48 0.000005 -5.074219 5.929688 0.000000 0.000000 0.000000
    49 -1.068383 -10.478611 7.065971 0.292219 1.282324 3.141588
    50 -0.000488 0.000015 2.279600 0.547136 0.343566 0.107835
    51 -2.479401 -8.323895 6.074234 -0.013800 -0.390736 1.058047
    52 -5.790000 4.432083 14.255558 -5.266839 1.323688 -1.360386
    53 1.044540 -2.839314 19.743252 -0.628135 0.886901 -0.296840
    54 -2.655510 -1.533379 24.792648 -1.239443 -0.116323 -0.129592
    55 -1.120216 -0.154385 9.795983 -0.042790 0.002115 0.373504
    56 -2.240372 -0.308788 19.592047 -0.278515 0.427024 0.692537
    57 -0.683205 2.877342 14.167089 -1.511324 0.211739 -1.554302
    58 -0.144958 -0.145317 7.579308 -1.772301 0.309279 -0.224156
    59 -0.038551 -0.936644 4.697678 -1.586056 0.261752 -0.218437
    60 -0.506317 8.500896 13.617329 -1.470468 0.303320 -1.571570
    61 0.385056 -0.460075 7.003435 -1.777738 0.587339 -0.538339
    62 -0.456360 -0.710276 5.057732 -1.487158 0.565518 -0.447752
    63 2.452194 -8.899408 11.597939 -1.564403 0.075995 -1.475290
    64 -0.680515 -0.903999 6.074242 -1.628031 -0.189767 0.011189
    65 -0.248295 -0.666843 3.386627 -1.485218 -0.127720 0.108395
    66 0.717491 -3.784309 13.044010 -1.593579 0.028647 -1.464728
    67 -1.099228 -1.407673 8.017876 -1.782230 -0.025481 0.018644
    68 -0.064053 -0.807640 3.686100 -1.465933 -0.031321 0.006237
    69 4.004906 6.172710 4.754800 0.109551 -1.126781 -2.530943
    70 -0.158381 -1.149773 5.804405 -0.789206 0.528808 0.259739
    71 1.078559 -2.386406 5.215008 -0.687550 0.389954 0.162246
    72 6.289963 0.932404 13.569109 -0.126801 -0.612098 -2.869612
    73 -1.327759 -0.766682 12.396324 -0.001424 -0.000818 0.013237
    74 0.000017 -54.999996 0.000000 0.000000 0.000000 -1.570796
  time 17
    0 0.000000 0.000000 -1.500000 0.000000 0.000000 0.000000
    1 -10.521344 -5.760963 66.994621 3.097005 -0.050653 -3.139334
    2 8.297500 31.930931 23.383038 0.600284 0.424553 0.227195
    3 -0.000034 0.000012 24.761454 -1.862293 -0.215724 0.641357
    4 0.000017 0.000000 24.344809 2.072829 -0.054996 0.104653
    5 0.002333 -1.019846 24.031336 0.390668 -0.008218 0.042920
    6 0.000034 0.000008 13.404741 -0.000001 -0.000009 0.299776
    7 10.398263 -5.760962 66.994675 3.097005 0.050653 3.139334
    8 10.781413 30.160523 23.458504 1.208792 -0.433584 -0.242047
    9 -0.000004 -0.000006 24.761459 -0.609521 0.070825 -0.230333
    10 -0.000007 0.000004 24.344891 0.392554 0.342528 0.071598
    11 -0.002360 -1.019903 24.031330 0.389432 -0.008072 0.008620
    12 0.000000 -0.000002 13.404737 0.000001 0.000005 -0.038646
    13 -0.061540 -5.245835 72.927078 0.000000 0.000000 0.000000
    14 -8.748943 32.577404 -22.243770 0.040402 0.389448 0.164544
    15 0.000000 -0.005608 -1.146812 -0.052754 -0.333577 -0.247042
    16 0.030770 -0.240000 8.906021 -0.004138 0.000000 0.000000
    17 -0.042947 -0.542129 -0.031649 0.056781 -0.100100 0.726518
    18 0.030770 -0.276858 8.905140 0.056125 0.004134 -0.000049
    19 0.518282 0.079003 -0.020707 -0.005359 0.184979 0.061971
    20 5.669724 4.435303 14.302868 2.188038 -1.243018 1.539956
    21 -1.044571 -2.839317 19.743267 -0.019832 -0.594474 0.049475
    22 2.655533 -1.533369 24.792658 -0.717176 0.079391 0.049109
    23 1.120163 -0.154394 9.796035 -0.041628 -0.001855 -0.363040
    24 2.240311 -0.308786 19.592051 -0.135248 0.100489 -0.733038
    25 0.683151 2.877354 14.167051 -1.604473 -0.208955 1.789829
    26 0.144936 -0.145374 7.579252 -1.541338 -0.243037 0.192901
    27 0.091660 -0.906685 4.702850 -2.179566 -0.149693 0.299639
    28 0.506271 8.500866 13.617253 -1.710300 -0.278083 1.993693
    29 -0.384987 -0.460049 7.003448 -1.466275 -0.459230 0.447009
    30 0.561516 -0.596954 5.061852 -1.949558 -0.344315 0.554637
    31 -2.452171 -8.899406 11.597897 -1.419587 -0.110537 1.352647
    32 0.680496 -0.903999 6.074253 -1.454010 0.158683 -0.002608
    33 0.245514 -0.661150 3.388004 -1.667415 0.103003 -0.112663
    34 -0.717484 -3.784271 13.043911 -1.725743 -0.009830 1.454334
    35 1.099216 -1.407745 8.017889 -1.350749 0.021008 -0.003953
    36 0.068439 -0.807653 3.686054 -1.839852 0.041379 -0.021880
    37 -4.004929 6.172707 4.754754 -0.720236 0.940309 1.497179
    38 0.158352 -1.149811 5.804394 -0.581795 -0.633166 -0.073353
    39 -1.083523 -1.463142 5.544399 -1.425435 -0.590044 0.387375
    40 -6.289886 0.932434 13.569063 -0.126803 0.612110 2.869610
    41 1.327774 -0.766687 12.396328 -0.000278 0.000147 -0.002474
    42 -0.096140 1.828087 23.185329 0.154320 -0.059259 -1.689241
    43 2.325478 -0.000003 6.169296 -0.235317 -0.148747 1.060165
    44 0.000000 -3.152912 0.122169 1.961017 0.000000 0.000000
    45 1.068383 -10.478592 7.066338 0.292219 -1.282324 -3.141588
    46 0.000000 0.000000 2.279457 0.547137 -0.343566 0.107833
    47 2.479414 -8.323895 6.074242 -0.025357 -0.414311 1.193216
    48 0.000005 -5.074219 5.929688 0.000000 0.000000 0.000000
    49 -1.068383 -10.478611 7.065971 0.292219 1.282324 3.141588
    50 -0.000488 0.000015 2.279600 0.547136 0.343566 0.107835
    51 -2.479401 -8.323895 6.074234 -0.007856 -0.422016 1.194955
    52 -5.790000 4.432083 14.255558 -5.266072 1.325308 -1.396412
    53 1.044540 -2.839314 19.743252 -0.589899 0.880584 -0.278089
    54 -2.655510 -1.533379 24.792648 -1.231290 -0.117812 -0.092787
    55 -1.120216 -0.154385 9.795983 -0.040789 0.001660 0.355631
    56 -2.240372 -0.308788 19.592047 -0.295850 0.440588 0.653615
    57 -0.683205 2.877342 14.167089 -1.511373 0.211739 -1.554302
    58 -0.144958 -0.145317 7.579308 -1.772247 0.309279 -0.224156
    59 -0.038551 -0.936644 4.697678 -1.586056 0.261752 -0.218437
    60 -0.506317 8.500896 13.617329 -1.470468 0.303320 -1.571570
    61 0.385056 -0.460075 7.003435 -1.777695 0.587339 -0.538354
    62 -0.456360 -0.710276 5.057732 -1.487158 0.565518 -0.447752
    63 2.452194 -8.899408 11.597939 -1.564403 0.075995 -1.475290
    64 -0.680515 -0.903999 6.074242 -1.628031 -0.189767 0.011189
    65 -0.248295 -0.666843 3.386627 -1.485218 -0.127720 0.108395
    66 0.717491 -3.784309 13.044010 -1.593579 0.028647 -1.464728
    67 -1.099228 -1.407673 8.017876 -1.782230 -0.025481 0.018644
    68 -0.064053 -0.807640 3.686100 -1.465933 -0.031321 0.006237
    69 4.004906 6.172710 4.754800 0.109551 -1.126781 -2.531025
    70 -0.158381 -1.149773 5.804405 -0.789240 0.528698 0.259797
    71 1.078559 -2.386406 5.215008 -0.687503 0.390045 0.162283
    72 6.289963 0.932404 13.569109 -0.126801 -0.612098 -2.869612
    73 -1.327759 -0.766682 12.396324 -0.002982 -0.001680 0.027672
    74 0.000017 -54.999996 0.000000 0.000000 0.000000 -1.570796
end
