// Created by Crowbar 0.74
version 1
nodes
  0 "root" -1
  1 "g_r_hip_offset" 0
  2 "g_r_hip" 1
  3 "g_r_knee" 2
  4 "g_r_ankle" 3
  5 "g_r_ball" 4
  6 "g_r_thightwist" 2
  7 "g_l_hip_offset" 0
  8 "g_l_hip" 7
  9 "g_l_knee" 8
  10 "g_l_ankle" 9
  11 "g_l_ball" 10
  12 "g_l_thightwist" 8
  13 "g_spine01_offset" 0
  14 "g_spine01" 13
  15 "g_pelvis" 14
  16 "g_spine02_offset" 14
  17 "g_spine02" 16
  18 "g_spine03_offset" 17
  19 "g_spine03" 18
  20 "g_l_clavical" 19
  21 "g_l_shoulder" 20
  22 "g_l_elbow" 21
  23 "g_l_forarm" 22
  24 "g_l_wrist" 22
  25 "g_l_birdy1" 24
  26 "g_l_birdy2" 25
  27 "g_l_birdy3" 26
  28 "g_l_index1" 24
  29 "g_l_index2" 28
  30 "g_l_index3" 29
  31 "g_l_pinky1" 24
  32 "g_l_pinky2" 31
  33 "g_l_pinky3" 32
  34 "g_l_ring1" 24
  35 "g_l_ring2" 34
  36 "g_l_ring3" 35
  37 "g_l_thumb1" 24
  38 "g_l_thumb2" 37
  39 "g_l_thumb3" 38
  40 "g_l_palm" 24
  41 "g_l_biceptwist" 21
  42 "g_neck" 19
  43 "g_head" 42
  44 "g_jaw" 43
  45 "g_l_brow" 43
  46 "g_l_brow2" 45
  47 "g_l_eye" 43
  48 "g_topeyelid" 43
  49 "g_r_brow" 43
  50 "g_r_brow2" 49
  51 "g_r_eye" 43
  52 "g_r_clavical" 19
  53 "g_r_shoulder" 52
  54 "g_r_elbow" 53
  55 "g_r_forarm" 54
  56 "g_r_wrist" 54
  57 "g_r_birdy1" 56
  58 "g_r_birdy2" 57
  59 "g_r_birdy3" 58
  60 "g_r_index1" 56
  61 "g_r_index2" 60
  62 "g_r_index3" 61
  63 "g_r_pinky1" 56
  64 "g_r_pinky2" 63
  65 "g_r_pinky3" 64
  66 "g_r_ring1" 56
  67 "g_r_ring2" 66
  68 "g_r_ring3" 67
  69 "g_r_thumb1" 56
  70 "g_r_thumb2" 69
  71 "g_r_thumb3" 70
  72 "g_r_palm" 56
  73 "g_r_biceptwist" 53
  74 "g_throwable_attach_offset" 0
end
skeleton
  time 0
    0 0.000000 0.000000 -1.500000 0.000000 0.000000 0.000000
    1 -10.521344 -5.760963 66.994621 3.097005 -0.050653 -3.139334
    2 2.859834 15.320162 14.301100 -0.019370 0.415729 0.283293
    3 -0.000034 0.000012 24.761454 -1.005409 -0.116647 0.372007
    4 0.000017 0.000000 24.344809 1.804727 -0.339154 -0.167327
    5 0.002333 -1.019846 24.031336 0.389660 -0.042710 0.017201
    6 0.000034 0.000008 13.404741 -0.000001 -0.000009 0.145352
    7 10.398263 -5.760962 66.994675 3.097005 0.050653 3.139334
    8 4.960922 10.202508 11.386652 0.837608 -0.393712 0.114507
    9 -0.000004 -0.000006 24.761459 -1.005062 0.116642 0.059173
    10 -0.000007 0.000004 24.344891 1.039757 0.428875 -0.090707
    11 -0.002360 -1.019903 24.031330 0.501521 -0.040526 -0.021773
    12 0.000000 -0.000002 13.404737 0.000001 0.000005 0.097728
    13 -0.061540 -5.245835 72.927078 0.000000 0.000000 0.000000
    14 -4.283963 13.629860 -12.375149 0.015630 0.011531 0.018614
    15 0.000000 -0.005608 -1.146812 -0.056581 -0.124794 -0.271337
    16 0.030770 -0.240000 8.906021 -0.004138 0.000000 0.000000
    17 0.175810 0.274302 0.007414 -0.039158 0.032153 -0.096554
    18 0.030770 -0.276858 8.905140 0.056125 0.004134 -0.000049
    19 -0.126269 0.278228 -0.012895 -0.118170 -0.043878 -0.003261
    20 5.669724 4.435303 14.302868 0.960612 -1.044612 2.387413
    21 -1.044571 -2.839317 19.743267 0.059713 -0.232056 0.078804
    22 2.655533 -1.533369 24.792658 -0.743171 0.091419 -0.171348
    23 1.120163 -0.154394 9.796035 -0.053720 -0.005331 -0.472211
    24 2.240311 -0.308786 19.592051 -0.368464 -0.025445 -0.896787
    25 0.683151 2.877354 14.167051 -1.511326 -0.211747 1.554295
    26 0.144936 -0.145374 7.579252 -1.768092 -0.243254 0.235289
    27 0.091660 -0.906685 4.702850 -1.587456 -0.182548 0.191105
    28 0.506271 8.500866 13.617253 -1.470526 -0.303331 1.571638
    29 -0.384987 -0.460049 7.003448 -1.747475 -0.440888 0.551346
    30 0.561516 -0.596954 5.061852 -1.494372 -0.380545 0.386290
    31 -2.452171 -8.899406 11.597897 -1.564465 -0.075967 1.475308
    32 0.680496 -0.903999 6.074253 -1.627761 0.173777 -0.014057
    33 0.245514 -0.661150 3.388004 -1.484718 0.109694 -0.099192
    34 -0.717484 -3.784271 13.043911 -1.593590 -0.028658 1.464722
    35 1.099216 -1.407745 8.017889 -1.782123 0.031968 -0.017453
    36 0.068439 -0.807653 3.686054 -1.465843 0.034030 -0.009756
    37 -4.004929 6.172707 4.754754 0.109475 1.126800 2.530902
    38 0.158352 -1.149811 5.804394 -0.997524 -0.449199 0.081848
    39 -1.083523 -1.463142 5.544399 -1.461220 -0.282579 -0.001358
    40 -6.289886 0.932434 13.569063 -0.126803 0.612110 2.869610
    41 1.327774 -0.766687 12.396328 -0.017643 0.008392 -0.158344
    42 -0.096140 1.828087 23.185329 0.117697 -0.037558 -1.628525
    43 2.325478 -0.000003 6.169296 0.293900 0.047929 1.710621
    44 0.000000 -3.152912 0.122169 2.175878 0.000000 0.000000
    45 1.068383 -10.478592 7.066338 0.292219 -1.282324 -3.141588
    46 0.000000 0.000000 2.279457 0.547137 -0.343566 0.107833
    47 2.479414 -8.323895 6.074242 -0.008882 0.058669 1.560061
    48 0.000003 -5.074219 5.929688 0.000000 0.000000 0.000000
    49 -1.068383 -10.478611 7.065971 0.292219 1.282324 3.141588
    50 -0.000488 0.000015 2.279600 0.547136 0.343566 0.107835
    51 -2.479401 -8.323895 6.074234 0.008211 0.060086 1.564003
    52 -5.790000 4.432083 14.255558 -5.476001 0.819140 -1.898964
    53 1.044540 -2.839314 19.743252 -0.245442 0.384834 -0.088099
    54 -2.655510 -1.533379 24.792648 -0.697135 -0.093854 0.588406
    55 -1.120216 -0.154385 9.795983 -0.051575 0.004608 0.452478
    56 -2.240372 -0.308788 19.592047 -0.253161 0.051934 0.876321
    57 -0.683205 2.877342 14.167089 -1.604576 0.208954 -1.789836
    58 -0.144958 -0.145317 7.579308 -1.541390 0.304895 -0.166504
    59 -0.038551 -0.936644 4.697678 -2.189566 0.238585 -0.365176
    60 -0.506317 8.500896 13.617329 -1.730150 0.265806 -1.901218
    61 0.385056 -0.460075 7.003435 -1.471905 0.596196 -0.385484
    62 -0.456360 -0.710276 5.057732 -1.989928 0.545818 -0.699362
    63 2.452194 -8.899408 11.597939 -1.419551 0.110567 -1.352620
    64 -0.680515 -0.903999 6.074242 -1.453600 -0.173888 -0.003175
    65 -0.248295 -0.666843 3.386627 -1.668562 -0.122159 0.124610
    66 0.717491 -3.784309 13.044010 -1.725758 0.009829 -1.454343
    67 -1.099228 -1.407673 8.017876 -1.350904 -0.015601 0.007733
    68 -0.064053 -0.807640 3.686100 -1.839904 -0.037752 0.018151
    69 4.004906 6.172710 4.754800 -0.647956 -0.760079 -1.694380
    70 -0.158381 -1.149773 5.804405 -0.345802 0.685528 0.599784
    71 1.078559 -2.386406 5.215008 -1.052490 1.087709 -0.156294
    72 6.289963 0.932404 13.569109 -0.126801 -0.612098 -2.869612
    73 -1.327759 -0.766682 12.396324 -0.037509 -0.014132 0.325987
    74 0.000017 -54.999996 0.000000 0.000000 0.000000 -1.570796
  time 1
    0 0.000000 0.000000 -1.500000 0.000000 0.000000 0.000000
    1 -10.521344 -5.760963 66.994621 3.097005 -0.050653 -3.139334
    2 2.859834 15.320162 14.301100 -0.019370 0.415729 0.283293
    3 -0.000034 0.000012 24.761454 -1.005409 -0.116647 0.372007
    4 0.000017 0.000000 24.344809 1.804727 -0.339154 -0.167327
    5 0.002333 -1.019846 24.031336 0.389660 -0.042710 0.017201
    6 0.000034 0.000008 13.404741 -0.000001 -0.000009 0.145352
    7 10.398263 -5.760962 66.994675 3.097005 0.050653 3.139334
    8 4.960922 10.202508 11.386652 0.837608 -0.393712 0.114507
    9 -0.000004 -0.000006 24.761459 -1.005062 0.116642 0.059173
    10 -0.000007 0.000004 24.344891 1.039757 0.428875 -0.090707
    11 -0.002360 -1.019903 24.031330 0.501521 -0.040526 -0.021773
    12 0.000000 -0.000002 13.404737 0.000001 0.000005 0.097728
    13 -0.061540 -5.245835 72.927078 0.000000 0.000000 0.000000
    14 -4.283963 13.629860 -12.375149 0.015630 0.011531 0.018614
    15 0.000000 -0.005608 -1.146812 -0.056581 -0.124794 -0.271337
    16 0.030770 -0.240000 8.906021 -0.004138 0.000000 0.000000
    17 0.175810 0.274302 0.007414 -0.039158 0.032153 -0.096554
    18 0.030770 -0.276858 8.905140 0.056125 0.004134 -0.000049
    19 -0.126269 0.278228 -0.012895 -0.118170 -0.043878 -0.003261
    20 5.669724 4.435303 14.302868 0.960612 -1.044612 2.387413
    21 -1.044571 -2.839317 19.743267 0.059713 -0.232056 0.078804
    22 2.655533 -1.533369 24.792658 -0.743171 0.091419 -0.171348
    23 1.120163 -0.154394 9.796035 -0.053720 -0.005331 -0.472211
    24 2.240311 -0.308786 19.592051 -0.368464 -0.025445 -0.896787
    25 0.683151 2.877354 14.167051 -1.511326 -0.211747 1.554295
    26 0.144936 -0.145374 7.579252 -1.768092 -0.243254 0.235289
    27 0.091660 -0.906685 4.702850 -1.587456 -0.182548 0.191105
    28 0.506271 8.500866 13.617253 -1.470526 -0.303331 1.571638
    29 -0.384987 -0.460049 7.003448 -1.747475 -0.440888 0.551346
    30 0.561516 -0.596954 5.061852 -1.494372 -0.380545 0.386290
    31 -2.452171 -8.899406 11.597897 -1.564465 -0.075967 1.475308
    32 0.680496 -0.903999 6.074253 -1.627761 0.173777 -0.014057
    33 0.245514 -0.661150 3.388004 -1.484718 0.109694 -0.099192
    34 -0.717484 -3.784271 13.043911 -1.593590 -0.028658 1.464722
    35 1.099216 -1.407745 8.017889 -1.782123 0.031968 -0.017453
    36 0.068439 -0.807653 3.686054 -1.465843 0.034030 -0.009756
    37 -4.004929 6.172707 4.754754 0.109475 1.126800 2.530902
    38 0.158352 -1.149811 5.804394 -0.997524 -0.449199 0.081848
    39 -1.083523 -1.463142 5.544399 -1.461220 -0.282579 -0.001358
    40 -6.289886 0.932434 13.569063 -0.126803 0.612110 2.869610
    41 1.327774 -0.766687 12.396328 -0.017643 0.008392 -0.158344
    42 -0.096140 1.828087 23.185329 0.117697 -0.037558 -1.628525
    43 2.325478 -0.000003 6.169296 0.293900 0.047929 1.710621
    44 0.000000 -3.152912 0.122169 2.175878 0.000000 0.000000
    45 1.068383 -10.478592 7.066338 0.292219 -1.282324 -3.141588
    46 0.000000 0.000000 2.279457 0.547137 -0.343566 0.107833
    47 2.479414 -8.323895 6.074242 -0.008882 0.058669 1.560061
    48 0.000003 -5.074219 5.929688 0.000000 0.000000 0.000000
    49 -1.068383 -10.478611 7.065971 0.292219 1.282324 3.141588
    50 -0.000488 0.000015 2.279600 0.547136 0.343566 0.107835
    51 -2.479401 -8.323895 6.074234 0.008211 0.060086 1.564003
    52 -5.790000 4.432083 14.255558 -5.476001 0.819140 -1.898964
    53 1.044540 -2.839314 19.743252 -0.245442 0.384834 -0.088099
    54 -2.655510 -1.533379 24.792648 -0.697135 -0.093854 0.588406
    55 -1.120216 -0.154385 9.795983 -0.051575 0.004608 0.452478
    56 -2.240372 -0.308788 19.592047 -0.253161 0.051934 0.876321
    57 -0.683205 2.877342 14.167089 -1.604576 0.208954 -1.789836
    58 -0.144958 -0.145317 7.579308 -1.541390 0.304895 -0.166504
    59 -0.038551 -0.936644 4.697678 -2.189566 0.238585 -0.365176
    60 -0.506317 8.500896 13.617329 -1.730150 0.265806 -1.901218
    61 0.385056 -0.460075 7.003435 -1.471905 0.596196 -0.385484
    62 -0.456360 -0.710276 5.057732 -1.989928 0.545818 -0.699362
    63 2.452194 -8.899408 11.597939 -1.419551 0.110567 -1.352620
    64 -0.680515 -0.903999 6.074242 -1.453600 -0.173888 -0.003175
    65 -0.248295 -0.666843 3.386627 -1.668562 -0.122159 0.124610
    66 0.717491 -3.784309 13.044010 -1.725758 0.009829 -1.454343
    67 -1.099228 -1.407673 8.017876 -1.350904 -0.015601 0.007733
    68 -0.064053 -0.807640 3.686100 -1.839904 -0.037752 0.018151
    69 4.004906 6.172710 4.754800 -0.647956 -0.760079 -1.694380
    70 -0.158381 -1.149773 5.804405 -0.345802 0.685528 0.599784
    71 1.078559 -2.386406 5.215008 -1.052490 1.087709 -0.156294
    72 6.289963 0.932404 13.569109 -0.126801 -0.612098 -2.869612
    73 -1.327759 -0.766682 12.396324 -0.037509 -0.014132 0.325987
    74 0.000017 -54.999996 0.000000 0.000000 0.000000 -1.570796
  time 2
    0 0.000000 0.000000 -1.500000 0.000000 0.000000 0.000000
    1 -10.521344 -5.760963 66.994621 3.097005 -0.050653 -3.139334
    2 3.086403 16.339152 12.170768 -0.025246 0.378458 0.334542
    3 -0.000034 0.000012 24.761454 -0.876829 -0.101774 0.348513
    4 0.000017 0.000000 24.344809 1.702269 -0.325098 -0.140081
    5 0.002333 -1.019846 24.031336 0.389660 -0.042710 0.017201
    6 0.000034 0.000008 13.404741 -0.000001 -0.000009 0.138433
    7 10.398263 -5.760962 66.994675 3.097005 0.050653 3.139334
    8 5.320308 10.077614 8.891353 0.704524 -0.437681 0.182418
    9 -0.000004 -0.000006 24.761459 -0.816256 0.094771 -0.008368
    10 -0.000007 0.000004 24.344891 0.924812 0.422676 -0.126481
    11 -0.002360 -1.019903 24.031330 0.522884 -0.040034 -0.022624
    12 0.000000 -0.000002 13.404737 0.000001 0.000005 0.048477
    13 -0.061540 -5.245835 72.927078 0.000000 0.000000 0.000000
    14 -4.612098 13.967585 -10.031914 0.015118 0.011634 0.026421
    15 0.000000 -0.005608 -1.146812 -0.046310 -0.138816 -0.337590
    16 0.030770 -0.240000 8.906021 -0.004138 0.000000 0.000000
    17 0.246125 0.207893 0.023040 -0.018535 0.043851 -0.090963
    18 0.030770 -0.276858 8.905140 0.056125 0.004134 -0.000049
    19 -0.149708 0.664958 -0.055865 -0.262365 -0.048548 0.003726
    20 5.669724 4.435303 14.302868 0.738862 -0.823551 2.442229
    21 -1.044571 -2.839317 19.743267 -0.085777 -0.077957 0.094004
    22 2.655533 -1.533369 24.792658 -0.760703 0.094493 -0.234671
    23 1.120163 -0.154394 9.796035 -0.054979 -0.005774 -0.483594
    24 2.240311 -0.308786 19.592051 -0.395750 -0.021761 -0.914868
    25 0.683151 2.877354 14.167051 -1.511326 -0.211747 1.554295
    26 0.144936 -0.145374 7.579252 -1.768092 -0.243254 0.235289
    27 0.091660 -0.906685 4.702850 -1.587456 -0.182548 0.191105
    28 0.506271 8.500866 13.617253 -1.470526 -0.303331 1.571638
    29 -0.384987 -0.460049 7.003448 -1.747475 -0.440888 0.551346
    30 0.561516 -0.596954 5.061852 -1.494372 -0.380545 0.386290
    31 -2.452171 -8.899406 11.597897 -1.564465 -0.075967 1.475308
    32 0.680496 -0.903999 6.074253 -1.627761 0.173777 -0.014057
    33 0.245514 -0.661150 3.388004 -1.484718 0.109694 -0.099192
    34 -0.717484 -3.784271 13.043911 -1.593590 -0.028646 1.464722
    35 1.099216 -1.407745 8.017889 -1.782123 0.031968 -0.017453
    36 0.068439 -0.807653 3.686054 -1.465843 0.034030 -0.009756
    37 -4.004929 6.172707 4.754754 0.109475 1.126800 2.530902
    38 0.158352 -1.149811 5.804394 -1.010068 -0.460999 0.075376
    39 -1.083523 -1.463142 5.544399 -1.498366 -0.290932 0.004235
    40 -6.289886 0.932434 13.569063 -0.126803 0.612110 2.869610
    41 1.327774 -0.766687 12.396328 -0.021083 0.009663 -0.187921
    42 -0.096140 1.828087 23.185329 0.128261 -0.020956 -1.645767
    43 2.325478 -0.000003 6.169296 0.345518 0.045874 1.702280
    44 0.000000 -3.152912 0.122169 2.184585 0.000000 0.000000
    45 1.068383 -10.478592 7.066338 0.292219 -1.282324 -3.141588
    46 0.000000 0.000000 2.279457 0.547137 -0.343566 0.107833
    47 2.479414 -8.323895 6.074242 -0.008583 0.016781 1.568848
    48 0.000003 -5.074219 5.929688 0.000000 0.000000 0.000000
    49 -1.068383 -10.478611 7.065971 0.292219 1.282324 3.141588
    50 -0.000488 0.000015 2.279600 0.547136 0.343566 0.107835
    51 -2.479401 -8.323895 6.074234 0.008593 0.018316 1.572913
    52 -5.790000 4.432083 14.255558 -5.650270 0.594550 -1.967376
    53 1.044540 -2.839314 19.743252 -0.167134 0.283420 -0.082765
    54 -2.655510 -1.533379 24.792648 -0.656371 -0.092211 0.580151
    55 -1.120216 -0.154385 9.795983 -0.059113 0.007352 0.522038
    56 -2.240372 -0.308788 19.592047 -0.205508 0.171585 1.011731
    57 -0.683205 2.877342 14.167089 -1.604576 0.208954 -1.789836
    58 -0.144958 -0.145317 7.579308 -1.541390 0.304895 -0.166504
    59 -0.038551 -0.936644 4.697678 -2.189566 0.238585 -0.365176
    60 -0.506317 8.500896 13.617329 -1.732338 0.264560 -1.892007
    61 0.385056 -0.460075 7.003435 -1.471905 0.596196 -0.385484
    62 -0.456360 -0.710276 5.057732 -1.989928 0.545818 -0.699362
    63 2.452194 -8.899408 11.597939 -1.419551 0.110567 -1.352644
    64 -0.680515 -0.903999 6.074242 -1.453600 -0.173888 -0.003175
    65 -0.248295 -0.666843 3.386627 -1.668562 -0.122147 0.124610
    66 0.717491 -3.784309 13.044010 -1.725758 0.009829 -1.454343
    67 -1.099228 -1.407673 8.017876 -1.350904 -0.015601 0.007733
    68 -0.064053 -0.807640 3.686100 -1.839904 -0.037752 0.018151
    69 4.004906 6.172710 4.754800 -0.644719 -0.741251 -1.710098
    70 -0.158381 -1.149773 5.804405 -0.345802 0.685528 0.599784
    71 1.078559 -2.386406 5.215008 -1.052490 1.087709 -0.156294
    72 6.289963 0.932404 13.569109 -0.126801 -0.612098 -2.869612
    73 -1.327759 -0.766682 12.396324 -0.036550 -0.013953 0.318076
    74 0.000017 -54.999996 0.000000 0.000000 0.000000 -1.570796
  time 3
    0 0.000000 0.000000 -1.500000 0.000000 0.000000 0.000000
    1 -10.521344 -5.760963 66.994621 3.097005 -0.050653 -3.139334
    2 3.039527 16.056781 10.242258 -0.090627 0.339990 0.376134
    3 -0.000034 0.000012 24.761454 -0.679305 -0.078908 0.313699
    4 0.000017 0.000000 24.344809 1.587729 -0.339584 -0.117092
    5 0.002333 -1.019846 24.031336 0.389660 -0.042710 0.017201
    6 0.000034 0.000008 13.404741 -0.000001 -0.000009 0.133455
    7 10.398263 -5.760962 66.994675 3.097005 0.050653 3.139334
    8 5.445312 8.753741 6.868137 0.571270 -0.454069 0.250659
    9 -0.000004 -0.000006 24.761459 -0.674583 0.078364 -0.073863
    10 -0.000007 0.000004 24.344891 0.875052 0.405500 -0.133039
    11 -0.002360 -1.019903 24.031330 0.533369 -0.039819 -0.023044
    12 0.000000 -0.000002 13.404737 0.000001 0.000005 0.002318
    13 -0.061540 -5.245835 72.927078 0.000000 0.000000 0.000000
    14 -4.612098 13.129095 -8.094240 0.015118 0.011634 0.026421
    15 0.000000 -0.005608 -1.146812 -0.050999 -0.142204 -0.390718
    16 0.030770 -0.240000 8.906021 -0.004138 0.000000 0.000000
    17 0.238312 0.129766 0.050385 0.001036 0.043674 -0.093598
    18 0.030770 -0.276858 8.905140 0.056125 0.004134 -0.000049
    19 -0.149708 0.914966 -0.102741 -0.357304 -0.048260 0.007142
    20 5.669724 4.435303 14.302868 0.416526 -0.643432 2.355500
    21 -1.044571 -2.839317 19.743267 -0.005841 0.058243 0.114309
    22 2.655533 -1.533369 24.792658 -0.845196 0.090458 -0.915047
    23 1.120163 -0.154394 9.796035 -0.052330 -0.004851 -0.459345
    24 2.240311 -0.308786 19.592051 -0.475780 -0.031845 -0.836257
    25 0.683151 2.877354 14.167051 -1.511326 -0.211747 1.554295
    26 0.144936 -0.145374 7.579252 -1.768092 -0.243254 0.235289
    27 0.091660 -0.906685 4.702850 -1.587456 -0.182548 0.191105
    28 0.506271 8.500866 13.617253 -1.470526 -0.303331 1.571638
    29 -0.384987 -0.460049 7.003448 -1.747475 -0.440888 0.551346
    30 0.561516 -0.596954 5.061852 -1.494407 -0.380545 0.386290
    31 -2.452171 -8.899406 11.597897 -1.564465 -0.075967 1.475308
    32 0.680496 -0.903999 6.074253 -1.627761 0.173777 -0.014057
    33 0.245514 -0.661150 3.388004 -1.484718 0.109694 -0.099192
    34 -0.717484 -3.784271 13.043911 -1.593590 -0.028646 1.464722
    35 1.099216 -1.407745 8.017889 -1.782123 0.031968 -0.017453
    36 0.068439 -0.807653 3.686054 -1.465843 0.034030 -0.009756
    37 -4.004929 6.172707 4.754754 0.109475 1.126800 2.530902
    38 0.158352 -1.149811 5.804394 -1.012780 -0.463523 0.073986
    39 -1.083523 -1.463142 5.544399 -1.501557 -0.291951 0.005382
    40 -6.289886 0.932434 13.569063 -0.126803 0.612110 2.869610
    41 1.327774 -0.766687 12.396328 -0.051727 0.016134 -0.442315
    42 -0.096140 1.828087 23.185329 0.128261 -0.020956 -1.645767
    43 2.325478 -0.000003 6.169296 0.345518 0.045874 1.702280
    44 0.000000 -3.152912 0.122169 2.184585 0.000000 0.000000
    45 1.068383 -10.478592 7.066338 0.292219 -1.282324 -3.141588
    46 0.000000 0.000000 2.279457 0.547137 -0.343566 0.107833
    47 2.479414 -8.323895 6.074242 -0.008964 -0.019191 1.559297
    48 0.000003 -5.074219 5.929688 0.000000 0.000000 0.000000
    49 -1.068383 -10.478611 7.065971 0.292219 1.282324 3.141588
    50 -0.000488 0.000015 2.279600 0.547136 0.343566 0.107835
    51 -2.479401 -8.323895 6.074234 0.008191 -0.017878 1.563045
    52 -5.790000 4.432083 14.255558 -5.749866 0.408091 -2.079575
    53 1.044540 -2.839314 19.743252 -0.210434 0.239751 -0.083037
    54 -2.655510 -1.533379 24.792648 -0.697185 -0.082788 0.923133
    55 -1.120216 -0.154385 9.795983 -0.060611 0.007987 0.536076
    56 -2.240372 -0.308788 19.592047 -0.169081 0.220148 1.045240
    57 -0.683205 2.877342 14.167089 -1.604576 0.208954 -1.789836
    58 -0.144958 -0.145317 7.579308 -1.541390 0.304895 -0.166504
    59 -0.038551 -0.936644 4.697678 -2.189566 0.238585 -0.365176
    60 -0.506317 8.500896 13.617329 -1.732715 0.264327 -1.890031
    61 0.385056 -0.460075 7.003435 -1.471905 0.596213 -0.385484
    62 -0.456360 -0.710276 5.057732 -1.989928 0.545818 -0.699362
    63 2.452194 -8.899408 11.597939 -1.419551 0.110567 -1.352644
    64 -0.680515 -0.903999 6.074242 -1.453600 -0.173888 -0.003175
    65 -0.248295 -0.666843 3.386627 -1.668562 -0.122147 0.124610
    66 0.717491 -3.784309 13.044010 -1.725758 0.009829 -1.454343
    67 -1.099228 -1.407673 8.017876 -1.350904 -0.015601 0.007733
    68 -0.064053 -0.807640 3.686100 -1.839904 -0.037752 0.018151
    69 4.004906 6.172710 4.754800 -0.643966 -0.737197 -1.713290
    70 -0.158381 -1.149773 5.804405 -0.345802 0.685528 0.599784
    71 1.078559 -2.386406 5.215008 -1.052490 1.087709 -0.156294
    72 6.289963 0.932404 13.569109 -0.126801 -0.612098 -2.869612
    73 -1.327759 -0.766682 12.396324 -0.056828 -0.016458 0.483704
    74 0.000017 -54.999996 0.000000 0.000000 0.000000 -1.570796
  time 4
    0 0.000000 0.000000 -1.500000 0.000000 0.000000 0.000000
    1 -10.521344 -5.760963 66.994621 3.097005 -0.050653 -3.139334
    2 3.051246 12.889317 9.547097 -0.288001 0.292365 0.368663
    3 -0.000034 0.000012 24.761454 -0.354950 -0.041312 0.295905
    4 0.000017 0.000000 24.344809 1.462277 -0.407760 -0.078309
    5 0.002333 -1.019846 24.031336 0.389585 -0.042698 0.017201
    6 0.000034 0.000008 13.404741 -0.000001 -0.000009 0.153789
    7 10.398263 -5.760962 66.994675 3.097005 0.050653 3.139334
    8 5.546878 5.169292 6.171252 0.509079 -0.456081 0.276982
    9 -0.000004 -0.000006 24.761459 -0.724521 0.084140 -0.122203
    10 -0.000007 0.000004 24.344891 0.980316 0.387235 -0.073935
    11 -0.002360 -1.019903 24.031330 0.538024 -0.039711 -0.023211
    12 0.000000 -0.000002 13.404737 0.000001 0.000005 -0.027074
    13 -0.061540 -5.245835 72.927078 0.000000 0.000000 0.000000
    14 -4.612098 9.786781 -7.553493 0.015118 0.011634 0.026421
    15 0.000000 -0.005608 -1.146812 -0.067076 -0.141028 -0.412268
    16 0.030770 -0.240000 8.906021 -0.004138 0.000000 0.000000
    17 0.234405 0.106328 0.054291 0.006739 0.043610 -0.094637
    18 0.030770 -0.276858 8.905140 0.056125 0.004134 -0.000049
    19 -0.145801 0.989187 -0.122273 -0.385650 -0.048157 0.008136
    20 5.669724 4.435303 14.302868 0.209993 -0.471135 2.252766
    21 -1.044571 -2.839317 19.743267 -0.345642 0.007259 0.062166
    22 2.655533 -1.533369 24.792658 -0.905908 0.031396 -1.632947
    23 1.120163 -0.154394 9.796035 -0.043773 -0.002358 -0.382253
    24 2.240311 -0.308786 19.592051 -0.576482 -0.042021 -0.633142
    25 0.683151 2.877354 14.167051 -1.511326 -0.211747 1.554295
    26 0.144936 -0.145374 7.579252 -1.768092 -0.243254 0.235289
    27 0.091660 -0.906685 4.702850 -1.587456 -0.182548 0.191105
    28 0.506271 8.500866 13.617253 -1.470526 -0.303331 1.571638
    29 -0.384987 -0.460049 7.003448 -1.747475 -0.440888 0.551346
    30 0.561516 -0.596954 5.061852 -1.494372 -0.380545 0.386290
    31 -2.452171 -8.899406 11.597897 -1.564465 -0.075967 1.475308
    32 0.680496 -0.903999 6.074253 -1.627761 0.173777 -0.014057
    33 0.245514 -0.661150 3.388004 -1.484718 0.109694 -0.099192
    34 -0.717484 -3.784271 13.043911 -1.593590 -0.028646 1.464722
    35 1.099216 -1.407745 8.017889 -1.782123 0.031968 -0.017453
    36 0.068439 -0.807653 3.686054 -1.465843 0.034030 -0.009756
    37 -4.004929 6.172707 4.754754 0.109475 1.126800 2.530902
    38 0.158352 -1.149811 5.804394 -1.010068 -0.460984 0.075364
    39 -1.083523 -1.463142 5.544399 -1.498366 -0.290932 0.004235
    40 -6.289886 0.932434 13.569063 -0.126803 0.612110 2.869610
    41 1.327774 -0.766687 12.396328 -0.109973 0.006762 -0.924638
    42 -0.096140 1.828087 23.185329 0.128261 -0.020956 -1.645767
    43 2.325478 -0.000003 6.169296 0.345518 0.045874 1.702280
    44 0.000000 -3.152912 0.122169 2.184585 0.000000 0.000000
    45 1.068383 -10.478592 7.066338 0.292219 -1.282324 -3.141588
    46 0.000000 0.000000 2.279457 0.547137 -0.343566 0.107833
    47 2.479414 -8.323895 6.074242 -0.009453 -0.047132 1.547072
    48 0.000003 -5.074219 5.929688 0.000000 0.000000 0.000000
    49 -1.068383 -10.478611 7.065971 0.292219 1.282324 3.141588
    50 -0.000488 0.000015 2.279600 0.547136 0.343566 0.107835
    51 -2.479401 -8.323895 6.074234 0.007709 -0.045804 1.551069
    52 -5.790000 4.432083 14.255558 -5.756193 0.247551 -2.157952
    53 1.044540 -2.839314 19.743252 -0.466676 0.181031 -0.063497
    54 -2.655510 -1.533379 24.792648 -0.739509 -0.053240 1.345708
    55 -1.120216 -0.154385 9.795983 -0.061043 0.008155 0.540102
    56 -2.240372 -0.308788 19.592047 -0.155946 0.233514 1.055980
    57 -0.683205 2.877342 14.167089 -1.604576 0.208954 -1.789836
    58 -0.144958 -0.145317 7.579308 -1.541390 0.304895 -0.166504
    59 -0.038551 -0.936644 4.697678 -2.189566 0.238585 -0.365176
    60 -0.506317 8.500896 13.617329 -1.732338 0.264586 -1.892007
    61 0.385056 -0.460075 7.003435 -1.471905 0.596196 -0.385484
    62 -0.456360 -0.710276 5.057732 -1.989928 0.545818 -0.699362
    63 2.452194 -8.899408 11.597939 -1.419551 0.110567 -1.352644
    64 -0.680515 -0.903999 6.074242 -1.453600 -0.173888 -0.003175
    65 -0.248295 -0.666843 3.386627 -1.668562 -0.122159 0.124610
    66 0.717491 -3.784309 13.044010 -1.725758 0.009829 -1.454343
    67 -1.099228 -1.407673 8.017876 -1.350904 -0.015601 0.007733
    68 -0.064053 -0.807640 3.686100 -1.839904 -0.037752 0.018151
    69 4.004906 6.172710 4.754800 -0.644719 -0.741251 -1.710098
    70 -0.158381 -1.149773 5.804405 -0.345802 0.685528 0.599784
    71 1.078559 -2.386406 5.215008 -1.052490 1.087709 -0.156294
    72 6.289963 0.932404 13.569109 -0.126801 -0.612098 -2.869612
    73 -1.327759 -0.766682 12.396324 -0.089414 -0.013401 0.749541
    74 0.000017 -54.999996 0.000000 0.000000 0.000000 -1.570796
  time 5
    0 0.000000 0.000000 -1.500000 0.000000 0.000000 0.000000
    1 -10.521344 -5.760963 66.994621 3.097005 -0.050653 -3.139334
    2 3.340317 4.946104 15.175657 -0.358165 0.390734 0.035440
    3 -0.000034 0.000012 24.761454 -0.847520 -0.098383 0.441391
    4 0.000017 0.000000 24.344809 1.750909 -0.507896 -0.238066
    5 0.002333 -1.019846 24.031336 0.561658 -0.045011 0.009519
    6 0.000034 0.000008 13.404741 -0.000001 -0.000009 0.185893
    7 10.398263 -5.760962 66.994675 3.097005 0.050653 3.139334
    8 5.246087 0.847969 14.196673 0.755966 -0.463397 0.152547
    9 -0.000004 -0.000006 24.761459 -1.330482 0.154274 -0.079174
    10 -0.000007 0.000004 24.344891 1.489276 0.359593 0.081624
    11 -0.002360 -1.019903 24.031330 0.463797 -0.041317 -0.020263
    12 0.000000 -0.000002 13.404737 0.000001 0.000005 0.059555
    13 -0.061540 -5.245835 72.927078 0.000000 0.000000 0.000000
    14 -4.612098 1.332007 -14.808507 0.489357 0.002963 0.030024
    15 0.000000 -0.005608 -1.146812 -0.117250 -0.124841 -0.192719
    16 0.030770 -0.240000 8.906021 -0.004138 0.000000 0.000000
    17 0.226593 -0.167118 -0.012117 0.035085 0.040964 0.016379
    18 0.030770 -0.276858 8.905140 0.056125 0.004134 -0.000049
    19 -0.134082 0.274322 -0.008988 -0.096974 -0.038900 0.009730
    20 5.669724 4.435303 14.302868 0.436145 -0.240878 2.065508
    21 -1.044571 -2.839317 19.743267 -0.499302 -0.089594 0.045865
    22 2.655533 -1.533369 24.792658 -1.143330 0.029782 -1.785634
    23 1.120163 -0.154394 9.796035 -0.023028 0.000841 -0.199887
    24 2.240311 -0.308786 19.592051 -0.666565 -0.073977 -0.249384
    25 0.683151 2.877354 14.167051 -1.511326 -0.211747 1.554295
    26 0.144936 -0.145374 7.579252 -1.768092 -0.243254 0.235289
    27 0.091660 -0.906685 4.702850 -1.587456 -0.182548 0.191105
    28 0.506271 8.500866 13.617253 -1.470526 -0.303331 1.571638
    29 -0.384987 -0.460049 7.003448 -1.747475 -0.440888 0.551346
    30 0.561516 -0.596954 5.061852 -1.494372 -0.380545 0.386290
    31 -2.452171 -8.899406 11.597897 -1.564465 -0.075967 1.475308
    32 0.680496 -0.903999 6.074253 -1.627761 0.173777 -0.014057
    33 0.245514 -0.661150 3.388004 -1.484718 0.109694 -0.099192
    34 -0.717484 -3.784271 13.043911 -1.593590 -0.028646 1.464722
    35 1.099216 -1.407745 8.017889 -1.782123 0.031968 -0.017453
    36 0.068439 -0.807653 3.686054 -1.465843 0.034030 -0.009756
    37 -4.004929 6.172707 4.754754 0.109475 1.126800 2.530902
    38 0.158352 -1.149811 5.804394 -1.010068 -0.460984 0.075364
    39 -1.083523 -1.463142 5.544399 -1.498366 -0.290932 0.004235
    40 -6.289886 0.932434 13.569063 -0.126803 0.612110 2.869610
    41 1.327774 -0.766687 12.396328 -0.122353 0.000674 -1.036318
    42 -0.096140 1.828087 23.185329 0.055461 -0.135325 -1.603517
    43 2.325478 -0.000003 6.169296 0.187608 0.011626 1.588648
    44 0.000000 -3.152912 0.122169 2.184585 0.000000 0.000000
    45 1.068383 -10.478592 7.066338 0.292219 -1.282324 -3.141588
    46 0.000000 0.000000 2.279457 0.547137 -0.343566 0.107833
    47 2.479414 -8.323895 6.074242 -0.010541 -0.136355 1.523768
    48 0.000003 -5.074219 5.929688 0.000000 0.000000 0.000000
    49 -1.068383 -10.478611 7.065971 0.292219 1.282324 3.141588
    50 -0.000488 0.000015 2.279600 0.547136 0.343566 0.107835
    51 -2.479401 -8.323895 6.074234 0.006946 -0.135817 1.530184
    52 -5.790000 4.432083 14.255558 -5.841314 0.137977 -2.100080
    53 1.044540 -2.839314 19.743252 -0.479922 0.411968 -0.104619
    54 -2.655510 -1.533379 24.792648 -1.349857 -0.076951 1.537456
    55 -1.120216 -0.154385 9.795983 -0.018737 -0.001061 0.162944
    56 -2.240372 -0.308788 19.592047 -0.274849 -0.207415 0.305895
    57 -0.683205 2.877342 14.167089 -1.604576 0.208954 -1.789836
    58 -0.144958 -0.145317 7.579308 -1.541390 0.304895 -0.166504
    59 -0.038551 -0.936644 4.697678 -2.189566 0.238585 -0.365164
    60 -0.506317 8.500896 13.617329 -1.732338 0.264560 -1.892007
    61 0.385056 -0.460075 7.003435 -1.471905 0.596196 -0.385484
    62 -0.456360 -0.710276 5.057732 -1.989928 0.545818 -0.699362
    63 2.452194 -8.899408 11.597939 -1.419551 0.110567 -1.352620
    64 -0.680515 -0.903999 6.074242 -1.453600 -0.173888 -0.003175
    65 -0.248295 -0.666843 3.386627 -1.668562 -0.122147 0.124610
    66 0.717491 -3.784309 13.044010 -1.725758 0.009829 -1.454343
    67 -1.099228 -1.407673 8.017876 -1.350904 -0.015601 0.007733
    68 -0.064053 -0.807640 3.686100 -1.839904 -0.037752 0.018151
    69 4.004906 6.172710 4.754800 -0.644719 -0.741251 -1.710098
    70 -0.158381 -1.149773 5.804405 -0.345802 0.685528 0.599784
    71 1.078559 -2.386406 5.215008 -1.052490 1.087709 -0.156294
    72 6.289963 0.932404 13.569109 -0.126801 -0.612098 -2.869612
    73 -1.327759 -0.766682 12.396324 -0.102082 -0.009806 0.856274
    74 0.000017 -54.999996 0.000000 0.000000 0.000000 -1.570796
  time 6
    0 0.000000 0.000000 -1.500000 0.000000 0.000000 0.000000
    1 -10.521344 -5.760963 66.994621 3.097005 -0.050653 -3.139334
    2 2.910616 -4.544010 24.818209 -0.645378 0.283903 -0.283977
    3 -0.000034 0.000012 24.761454 -1.019067 -0.118229 0.455723
    4 0.000017 0.000000 24.344809 2.078378 -0.674806 -0.437880
    5 0.002333 -1.019846 24.031336 0.739032 -0.045958 0.001298
    6 0.000034 0.000008 13.404741 -0.000001 -0.000009 0.187095
    7 10.398263 -5.760962 66.994675 3.097005 0.050653 3.139334
    8 5.410155 -5.121950 22.581777 0.789152 -0.387968 0.076797
    9 -0.000004 -0.000006 24.761459 -1.733998 0.200918 0.055333
    10 -0.000007 0.000004 24.344891 1.997654 0.336684 0.177048
    11 -0.002360 -1.019903 24.031330 0.389594 -0.042695 -0.017219
    12 0.000000 -0.000002 13.404737 0.000001 0.000005 0.170767
    13 -0.061540 -5.245835 72.927078 0.000000 0.000000 0.000000
    14 -4.612098 -7.763281 -25.060158 0.839164 -0.003042 0.028703
    15 0.000000 -0.005608 -1.146812 -0.155814 -0.099086 0.022482
    16 0.030770 -0.240000 8.906021 -0.004138 0.000000 0.000000
    17 0.199248 -0.663227 0.085542 0.062337 0.036077 -0.029904
    18 0.030770 -0.276858 8.905140 0.056125 0.004134 -0.000049
    19 0.002641 -1.397604 -0.165243 0.574852 0.009155 0.001377
    20 5.669724 4.435303 14.302868 0.626217 -1.256266 1.563148
    21 -1.044571 -2.839317 19.743267 -0.478364 -0.332197 0.088308
    22 2.655533 -1.533369 24.792658 -0.843677 0.083157 -1.035870
    23 1.120163 -0.154394 9.796035 -0.026347 0.000590 -0.228758
    24 2.240311 -0.308786 19.592051 -0.630575 -0.034516 -0.316087
    25 0.683151 2.877354 14.167051 -1.511326 -0.211747 1.554295
    26 0.144936 -0.145374 7.579252 -1.768092 -0.243254 0.235289
    27 0.091660 -0.906685 4.702850 -1.587456 -0.182548 0.191105
    28 0.506271 8.500866 13.617253 -1.470526 -0.303331 1.571638
    29 -0.384987 -0.460049 7.003448 -1.747475 -0.440888 0.551346
    30 0.561516 -0.596954 5.061852 -1.494372 -0.380545 0.386290
    31 -2.452171 -8.899406 11.597897 -1.564465 -0.075967 1.475308
    32 0.680496 -0.903999 6.074253 -1.627761 0.173777 -0.014057
    33 0.245514 -0.661150 3.388004 -1.484718 0.109694 -0.099192
    34 -0.717484 -3.784271 13.043911 -1.593590 -0.028634 1.464722
    35 1.099216 -1.407745 8.017889 -1.782123 0.031968 -0.017453
    36 0.068439 -0.807653 3.686054 -1.465843 0.034030 -0.009756
    37 -4.004929 6.172707 4.754754 0.109475 1.126800 2.530902
    38 0.158352 -1.149811 5.804394 -1.010068 -0.460984 0.075364
    39 -1.083523 -1.463142 5.544399 -1.498366 -0.290932 0.004235
    40 -6.289886 0.932434 13.569063 -0.126803 0.612110 2.869610
    41 1.327774 -0.766687 12.396328 -0.068674 0.016362 -0.579655
    42 -0.096140 1.828087 23.185329 0.080749 -0.174234 -1.637758
    43 2.325478 -0.000003 6.169296 -0.062699 0.054136 1.713455
    44 0.000000 -3.152912 0.122169 2.184585 0.000000 0.000000
    45 1.068383 -10.478592 7.066338 0.292219 -1.282324 -3.141588
    46 0.000000 0.000000 2.279457 0.547137 -0.343566 0.107833
    47 2.479414 -8.323895 6.074242 -0.010350 -0.291746 1.538190
    48 0.000003 -5.074219 5.929688 0.000000 0.000000 0.000000
    49 -1.068383 -10.478611 7.065971 0.292219 1.282324 3.141588
    50 -0.000488 0.000015 2.279600 0.547136 0.343566 0.107835
    51 -2.479401 -8.323895 6.074234 0.007970 -0.295053 1.546950
    52 -5.790000 4.432083 14.255558 -5.319753 1.190230 -1.160515
    53 1.044540 -2.839314 19.743252 -0.611717 0.321408 -0.082030
    54 -2.655510 -1.533379 24.792648 -0.750178 -0.081339 0.989852
    55 -1.120216 -0.154385 9.795983 -0.028660 -0.000378 0.249127
    56 -2.240372 -0.308788 19.592047 -0.480734 -0.088508 0.422231
    57 -0.683205 2.877342 14.167089 -1.604576 0.208934 -1.789836
    58 -0.144958 -0.145317 7.579308 -1.541390 0.304895 -0.166504
    59 -0.038551 -0.936644 4.697678 -2.189566 0.238585 -0.365176
    60 -0.506317 8.500896 13.617329 -1.732338 0.264560 -1.892007
    61 0.385056 -0.460075 7.003435 -1.471905 0.596196 -0.385484
    62 -0.456360 -0.710276 5.057732 -1.989928 0.545818 -0.699362
    63 2.452194 -8.899408 11.597939 -1.419551 0.110544 -1.352644
    64 -0.680515 -0.903999 6.074242 -1.453600 -0.173888 -0.003175
    65 -0.248295 -0.666843 3.386627 -1.668562 -0.122135 0.124610
    66 0.717491 -3.784309 13.044010 -1.725758 0.009829 -1.454343
    67 -1.099228 -1.407673 8.017876 -1.350904 -0.015601 0.007733
    68 -0.064053 -0.807640 3.686100 -1.839904 -0.037752 0.018151
    69 4.004906 6.172710 4.754800 -0.644719 -0.741251 -1.710098
    70 -0.158381 -1.149773 5.804405 -0.345802 0.685528 0.599784
    71 1.078559 -2.386406 5.215008 -1.052490 1.087709 -0.156294
    72 6.289963 0.932404 13.569109 -0.126801 -0.612098 -2.869612
    73 -1.327759 -0.766682 12.396324 -0.067171 -0.016434 0.567397
    74 0.000017 -54.999996 0.000000 0.000000 0.000000 -1.570796
  time 7
    0 0.000000 0.000000 -1.500000 0.000000 0.000000 0.000000
    1 -10.521344 -5.760963 66.994621 3.097005 -0.050653 -3.139334
    2 2.637171 -6.115465 27.441880 -0.698325 0.263778 -0.263792
    3 -0.000034 0.000012 24.761454 -1.004270 -0.116527 0.368342
    4 0.000017 0.000000 24.344809 2.183671 -0.707106 -0.464499
    5 0.002333 -1.019846 24.031336 0.739704 -0.045958 0.001274
    6 0.000034 0.000008 13.404741 -0.000001 -0.000009 0.154021
    7 10.398263 -5.760962 66.994675 3.097005 0.050653 3.139334
    8 5.390623 -6.570717 25.549160 0.800242 -0.361923 0.062604
    9 -0.000004 -0.000006 24.761459 -1.870831 0.216726 0.102202
    10 -0.000007 0.000004 24.344891 2.142610 0.335684 0.206012
    11 -0.002360 -1.019903 24.031330 0.389594 -0.042695 -0.017219
    12 0.000000 -0.000002 13.404737 0.000001 0.000005 0.213491
    13 -0.061540 -5.245835 72.927078 0.000000 0.000000 0.000000
    14 -4.389435 -9.032661 -27.831483 0.815865 -0.005278 0.018854
    15 0.000000 -0.005608 -1.146812 -0.154475 -0.075339 0.018324
    16 0.030770 -0.240000 8.906021 -0.004138 0.000000 0.000000
    17 0.238312 -1.046051 0.058197 0.122228 0.040952 -0.011655
    18 0.030770 -0.276858 8.905140 0.056125 0.004134 -0.000049
    19 -0.005172 -1.444481 -0.173056 0.615316 0.005308 0.003115
    20 5.669724 4.435303 14.302868 0.707662 -1.214161 1.431665
    21 -1.044571 -2.839317 19.743267 -0.413691 -0.337833 0.089492
    22 2.655533 -1.533369 24.792658 -1.157868 0.107481 -1.005623
    23 1.120163 -0.154394 9.796035 -0.023747 0.000794 -0.206096
    24 2.240311 -0.308786 19.592051 -0.572347 0.011207 -0.298521
    25 0.683151 2.877354 14.167051 -1.511326 -0.211747 1.554295
    26 0.144936 -0.145374 7.579252 -1.768092 -0.243254 0.235289
    27 0.091660 -0.906685 4.702850 -1.587456 -0.182548 0.191105
    28 0.506271 8.500866 13.617253 -1.470526 -0.303331 1.571638
    29 -0.384987 -0.460049 7.003448 -1.747475 -0.440888 0.551346
    30 0.561516 -0.596954 5.061852 -1.494372 -0.380545 0.386290
    31 -2.452171 -8.899406 11.597897 -1.564465 -0.075967 1.475308
    32 0.680496 -0.903999 6.074253 -1.627761 0.173777 -0.014057
    33 0.245514 -0.661150 3.388004 -1.484718 0.109694 -0.099192
    34 -0.717484 -3.784271 13.043911 -1.593590 -0.028658 1.464722
    35 1.099216 -1.407745 8.017889 -1.782123 0.031968 -0.017453
    36 0.068439 -0.807653 3.686054 -1.465843 0.034030 -0.009756
    37 -4.004929 6.172707 4.754754 0.109475 1.126800 2.530902
    38 0.158352 -1.149811 5.804394 -1.006804 -0.457946 0.077042
    39 -1.083523 -1.463142 5.544399 -1.481781 -0.287637 0.002620
    40 -6.289886 0.932434 13.569063 -0.126803 0.612110 2.869610
    41 1.327774 -0.766687 12.396328 -0.067583 0.016410 -0.570867
    42 -0.096140 1.828087 23.185329 0.071521 -0.172641 -1.629320
    43 2.325478 -0.000003 6.169296 0.047795 0.059967 1.690386
    44 0.000000 -3.152912 0.122169 2.179377 0.000000 0.000000
    45 1.068383 -10.478592 7.066338 0.292219 -1.282324 -3.141588
    46 0.000000 0.000000 2.279457 0.547137 -0.343566 0.107833
    47 2.479414 -8.323895 6.074242 -0.009725 -0.151664 1.544398
    48 0.000003 -5.074219 5.929688 0.000000 0.000000 0.000000
    49 -1.068383 -10.478611 7.065971 0.292219 1.282324 3.141588
    50 -0.000488 0.000015 2.279600 0.547136 0.343566 0.107835
    51 -2.479401 -8.323895 6.074234 0.007930 -0.155804 1.553560
    52 -5.790000 4.432083 14.255558 -5.290133 1.225121 -1.143556
    53 1.044540 -2.839314 19.743252 -0.565466 0.258406 -0.069021
    54 -2.655510 -1.533379 24.792648 -1.094908 -0.102397 1.004165
    55 -1.120216 -0.154385 9.795983 -0.026407 -0.000593 0.229485
    56 -2.240372 -0.308788 19.592047 -0.438961 -0.109745 0.396799
    57 -0.683205 2.877342 14.167089 -1.604576 0.208954 -1.789836
    58 -0.144958 -0.145317 7.579308 -1.541390 0.304895 -0.166504
    59 -0.038551 -0.936644 4.697678 -2.189566 0.238585 -0.365164
    60 -0.506317 8.500896 13.617329 -1.731734 0.264897 -1.894389
    61 0.385056 -0.460075 7.003435 -1.471905 0.596196 -0.385484
    62 -0.456360 -0.710276 5.057732 -1.989928 0.545818 -0.699362
    63 2.452194 -8.899408 11.597939 -1.419551 0.110567 -1.352620
    64 -0.680515 -0.903999 6.074242 -1.453600 -0.173888 -0.003175
    65 -0.248295 -0.666843 3.386627 -1.668562 -0.122147 0.124610
    66 0.717491 -3.784309 13.044010 -1.725758 0.009829 -1.454343
    67 -1.099228 -1.407673 8.017876 -1.350904 -0.015601 0.007733
    68 -0.064053 -0.807640 3.686100 -1.839904 -0.037752 0.018151
    69 4.004906 6.172710 4.754800 -0.645472 -0.746120 -1.706004
    70 -0.158381 -1.149773 5.804405 -0.345802 0.685528 0.599784
    71 1.078559 -2.386406 5.215008 -1.052490 1.087709 -0.156294
    72 6.289963 0.932404 13.569109 -0.126801 -0.612098 -2.869612
    73 -1.327759 -0.766682 12.396324 -0.069832 -0.016290 0.589095
    74 0.000017 -54.999996 0.000000 0.000000 0.000000 -1.570796
  time 8
    0 0.000000 0.000000 -1.500000 0.000000 0.000000 0.000000
    1 -10.521344 -5.760963 66.994621 3.097005 -0.050653 -3.139334
    2 2.094185 -4.458071 26.701870 -0.640664 0.317333 -0.259685
    3 -0.000034 0.000012 24.761454 -1.069271 -0.124054 0.378929
    4 0.000017 0.000000 24.344809 2.175102 -0.684720 -0.475324
    5 0.002333 -1.019846 24.031336 0.722866 -0.045934 0.002053
    6 0.000034 0.000008 13.404741 -0.000001 -0.000009 0.153093
    7 10.398263 -5.760962 66.994675 3.097005 0.050653 3.139334
    8 4.773417 -5.096971 25.189477 0.858253 -0.374178 0.059056
    9 -0.000004 -0.000006 24.761459 -1.873911 0.217073 0.059675
    10 -0.000007 0.000004 24.344891 2.075747 0.321663 0.191887
    11 -0.002360 -1.019903 24.031330 0.389594 -0.042695 -0.017219
    12 0.000000 -0.000002 13.404737 0.000001 0.000005 0.183219
    13 -0.061540 -5.245835 72.927078 0.000000 0.000000 0.000000
    14 -3.780041 -7.344036 -27.110488 0.783061 -0.007618 -0.004927
    15 0.000000 -0.005608 -1.146812 -0.151125 -0.051749 0.013650
    16 0.030770 -0.240000 8.906021 -0.004138 0.000000 0.000000
    17 0.293001 -1.319497 0.015227 0.166588 0.045497 0.012385
    18 0.030770 -0.276858 8.905140 0.056125 0.004134 -0.000049
    19 -0.028610 -1.428855 -0.165243 0.622036 -0.003435 0.002899
    20 5.669724 4.435303 14.302868 0.687947 -1.170153 1.401094
    21 -1.044571 -2.839317 19.743267 -0.414327 -0.291337 0.082752
    22 2.655533 -1.533369 24.792658 -1.034058 0.092072 -1.085121
    23 1.120163 -0.154394 9.796035 -0.021254 0.000937 -0.184503
    24 2.240311 -0.308786 19.592051 -0.518080 0.044728 -0.276880
    25 0.683151 2.877354 14.167051 -1.511326 -0.211747 1.554295
    26 0.144936 -0.145374 7.579252 -1.768092 -0.243254 0.235289
    27 0.091660 -0.906685 4.702850 -1.587456 -0.182548 0.191105
    28 0.506271 8.500866 13.617253 -1.470526 -0.303331 1.571638
    29 -0.384987 -0.460049 7.003448 -1.747475 -0.440888 0.551346
    30 0.561516 -0.596954 5.061852 -1.494407 -0.380545 0.386290
    31 -2.452171 -8.899406 11.597897 -1.564465 -0.075967 1.475308
    32 0.680496 -0.903999 6.074253 -1.627761 0.173777 -0.014057
    33 0.245514 -0.661150 3.388004 -1.484718 0.109694 -0.099192
    34 -0.717484 -3.784271 13.043911 -1.593590 -0.028646 1.464722
    35 1.099216 -1.407745 8.017889 -1.782123 0.031968 -0.017453
    36 0.068439 -0.807653 3.686054 -1.465843 0.034030 -0.009756
    37 -4.004929 6.172707 4.754754 0.109475 1.126800 2.530902
    38 0.158352 -1.149811 5.804394 -0.997990 -0.449640 0.081596
    39 -1.083523 -1.463142 5.544399 -1.436631 -0.278540 -0.001565
    40 -6.289886 0.932434 13.569063 -0.126803 0.612110 2.869610
    41 1.327774 -0.766687 12.396328 -0.072257 0.016086 -0.608730
    42 -0.096140 1.828087 23.185329 0.058406 -0.167128 -1.619904
    43 2.325478 -0.000003 6.169296 0.165929 0.050244 1.658456
    44 0.000000 -3.152912 0.122169 2.165088 0.000000 0.000000
    45 1.068383 -10.478592 7.066338 0.292219 -1.282324 -3.141588
    46 0.000000 0.000000 2.279457 0.547137 -0.343566 0.107833
    47 2.479414 -8.323895 6.074242 -0.009263 0.017391 1.551561
    48 0.000003 -5.074219 5.929688 0.000000 0.000000 0.000000
    49 -1.068383 -10.478611 7.065971 0.292219 1.282324 3.141588
    50 -0.000488 0.000015 2.279600 0.547136 0.343566 0.107835
    51 -2.479401 -8.323895 6.074234 0.008091 0.014441 1.560554
    52 -5.790000 4.432083 14.255558 -5.318698 1.280199 -1.189068
    53 1.044540 -2.839314 19.743252 -0.571421 0.154872 -0.046487
    54 -2.655510 -1.533379 24.792648 -0.999893 -0.086606 1.125711
    55 -1.120216 -0.154385 9.795983 -0.023423 -0.000833 0.203506
    56 -2.240372 -0.308788 19.592047 -0.377868 -0.142566 0.362602
    57 -0.683205 2.877342 14.167089 -1.604576 0.208954 -1.789836
    58 -0.144958 -0.145317 7.579308 -1.541390 0.304895 -0.166504
    59 -0.038551 -0.936644 4.697678 -2.189566 0.238585 -0.365176
    60 -0.506317 8.500896 13.617329 -1.730226 0.265754 -1.900814
    61 0.385056 -0.460075 7.003435 -1.471905 0.596196 -0.385484
    62 -0.456360 -0.710276 5.057732 -1.989928 0.545818 -0.699362
    63 2.452194 -8.899408 11.597939 -1.419551 0.110567 -1.352644
    64 -0.680515 -0.903999 6.074242 -1.453600 -0.173888 -0.003175
    65 -0.248295 -0.666843 3.386627 -1.668562 -0.122135 0.124610
    66 0.717491 -3.784309 13.044010 -1.725758 0.009829 -1.454343
    67 -1.099228 -1.407673 8.017876 -1.350904 -0.015601 0.007733
    68 -0.064053 -0.807640 3.686100 -1.839904 -0.037752 0.018151
    69 4.004906 6.172710 4.754800 -0.647806 -0.759390 -1.694871
    70 -0.158381 -1.149773 5.804405 -0.345802 0.685528 0.599784
    71 1.078559 -2.386406 5.215008 -1.052490 1.087709 -0.156294
    72 6.289963 0.932404 13.569109 -0.126801 -0.612098 -2.869612
    73 -1.327759 -0.766682 12.396324 -0.078317 -0.015439 0.658076
    74 0.000017 -54.999996 0.000000 0.000000 0.000000 -1.570796
  time 9
    0 0.000000 0.000000 -1.500000 0.000000 0.000000 0.000000
    1 -10.521344 -5.760963 66.994621 3.097005 -0.050653 -3.139334
    2 1.238690 -1.671194 25.333973 -0.549116 0.398889 -0.248063
    3 -0.000034 0.000012 24.761454 -1.154842 -0.133929 0.408165
    4 0.000017 0.000000 24.344809 2.140333 -0.647463 -0.477787
    5 0.002333 -1.019846 24.031336 0.692215 -0.045838 0.003491
    6 0.000034 0.000008 13.404741 -0.000001 -0.000009 0.155856
    7 10.398263 -5.760962 66.994675 3.097005 0.050653 3.139334
    8 3.804637 -2.798927 24.245310 0.929572 -0.402235 0.064007
    9 -0.000004 -0.000006 24.761459 -1.850647 0.214401 -0.018488
    10 -0.000007 0.000004 24.344891 1.958801 0.300709 0.162966
    11 -0.002360 -1.019903 24.031330 0.389594 -0.042695 -0.017219
    12 0.000000 -0.000002 13.404737 0.000001 0.000005 0.121344
    13 -0.061540 -5.245835 72.927078 0.000000 0.000000 0.000000
    14 -2.865951 -4.653880 -25.736091 0.741999 -0.010027 -0.041560
    15 0.000000 -0.005608 -1.146812 -0.146086 -0.028739 0.008867
    16 0.030770 -0.240000 8.906021 -0.004138 0.000000 0.000000
    17 0.335971 -1.514815 -0.043368 0.202742 0.045649 0.029637
    18 0.030770 -0.276858 8.905140 0.056125 0.004134 -0.000049
    19 0.026079 -1.315571 -0.126179 0.580715 0.017692 0.013050
    20 5.669724 4.435303 14.302868 0.569559 -1.199186 1.453131
    21 -1.044571 -2.839317 19.743267 -0.378664 -0.236805 0.077366
    22 2.655533 -1.533369 24.792658 -0.852530 0.079506 -1.096604
    23 1.120163 -0.154394 9.796035 -0.023903 0.000782 -0.207510
    24 2.240311 -0.308786 19.592051 -0.502631 0.015996 -0.323208
    25 0.683151 2.877354 14.167051 -1.511326 -0.211747 1.554295
    26 0.144936 -0.145374 7.579252 -1.768092 -0.243254 0.235289
    27 0.091660 -0.906685 4.702850 -1.587456 -0.182548 0.191105
    28 0.506271 8.500866 13.617253 -1.470526 -0.303331 1.571638
    29 -0.384987 -0.460049 7.003448 -1.747475 -0.440888 0.551346
    30 0.561516 -0.596954 5.061852 -1.494372 -0.380545 0.386290
    31 -2.452171 -8.899406 11.597897 -1.564465 -0.075967 1.475308
    32 0.680496 -0.903999 6.074253 -1.627761 0.173777 -0.014057
    33 0.245514 -0.661150 3.388004 -1.484718 0.109694 -0.099192
    34 -0.717484 -3.784271 13.043911 -1.593590 -0.028634 1.464722
    35 1.099216 -1.407745 8.017889 -1.782123 0.031968 -0.017453
    36 0.068439 -0.807653 3.686054 -1.465843 0.034030 -0.009756
    37 -4.004929 6.172707 4.754754 0.109475 1.126800 2.530902
    38 0.158352 -1.149811 5.804394 -0.984683 -0.437194 0.088379
    39 -1.083523 -1.463142 5.544399 -1.369194 -0.264926 -0.007159
    40 -6.289886 0.932434 13.569063 -0.126803 0.612110 2.869610
    41 1.327774 -0.766687 12.396328 -0.071418 0.016158 -0.601951
    42 -0.096140 1.828087 23.185329 0.042004 -0.158396 -1.609173
    43 2.325478 -0.000003 6.169296 0.124625 0.036831 1.647080
    44 0.000000 -3.152912 0.122169 2.143768 0.000000 0.000000
    45 1.068383 -10.478592 7.066338 0.292219 -1.282324 -3.141588
    46 0.000000 0.000000 2.279457 0.547137 -0.343566 0.107833
    47 2.479414 -8.323895 6.074242 -0.009861 -0.015105 1.535993
    48 0.000003 -5.074219 5.929688 0.000000 0.000000 0.000000
    49 -1.068383 -10.478611 7.065971 0.292219 1.282324 3.141588
    50 -0.000488 0.000015 2.279600 0.547136 0.343566 0.107835
    51 -2.479401 -8.323895 6.074234 0.007448 -0.018020 1.544746
    52 -5.790000 4.432083 14.255558 -5.450119 1.334571 -1.286129
    53 1.044540 -2.839314 19.743252 -0.551051 0.133080 -0.045208
    54 -2.655510 -1.533379 24.792648 -0.852641 -0.070803 1.208106
    55 -1.120216 -0.154385 9.795983 -0.019876 -0.001025 0.172792
    56 -2.240372 -0.308788 19.592047 -0.301654 -0.176179 0.318181
    57 -0.683205 2.877342 14.167089 -1.604576 0.208954 -1.789836
    58 -0.144958 -0.145317 7.579308 -1.541390 0.304895 -0.166504
    59 -0.038551 -0.936644 4.697678 -2.189566 0.238585 -0.365164
    60 -0.506317 8.500896 13.617329 -1.728039 0.266999 -1.910473
    61 0.385056 -0.460075 7.003435 -1.471905 0.596196 -0.385484
    62 -0.456360 -0.710276 5.057732 -1.989928 0.545818 -0.699362
    63 2.452194 -8.899408 11.597939 -1.419591 0.110567 -1.352620
    64 -0.680515 -0.903999 6.074242 -1.453600 -0.173888 -0.003175
    65 -0.248295 -0.666843 3.386627 -1.668562 -0.122147 0.124610
    66 0.717491 -3.784309 13.044010 -1.725758 0.009829 -1.454343
    67 -1.099228 -1.407673 8.017876 -1.350904 -0.015601 0.007733
    68 -0.064053 -0.807640 3.686100 -1.839904 -0.037752 0.018151
    69 4.004906 6.172710 4.754800 -0.651947 -0.779096 -1.677761
    70 -0.158381 -1.149773 5.804405 -0.345802 0.685528 0.599784
    71 1.078559 -2.386406 5.215008 -1.052490 1.087709 -0.156294
    72 6.289963 0.932404 13.569109 -0.126801 -0.612098 -2.869612
    73 -1.327759 -0.766682 12.396324 -0.082859 -0.014732 0.695319
    74 0.000017 -54.999996 0.000000 0.000000 0.000000 -1.570796
  time 10
    0 0.000000 0.000000 -1.500000 0.000000 0.000000 0.000000
    1 -10.521344 -5.760963 66.994621 3.097005 -0.050653 -3.139334
    2 0.144907 1.557654 23.540010 -0.447936 0.486625 -0.216607
    3 -0.000034 0.000012 24.761454 -1.213136 -0.140676 0.443426
    4 0.000017 0.000000 24.344809 2.072583 -0.608305 -0.460394
    5 0.002333 -1.019846 24.031336 0.651334 -0.045670 0.005372
    6 0.000034 0.000008 13.404741 -0.000001 -0.000009 0.161446
    7 10.398263 -5.760962 66.994675 3.097005 0.050653 3.139334
    8 2.597569 -0.338521 22.896499 0.981526 -0.435523 0.078447
    9 -0.000004 -0.000006 24.761459 -1.799445 0.208480 -0.109966
    10 -0.000007 0.000004 24.344891 1.828302 0.273934 0.125343
    11 -0.002360 -1.019903 24.031330 0.389594 -0.042695 -0.017219
    12 0.000000 -0.000002 13.404737 0.000001 0.000005 0.044355
    13 -0.061540 -5.245835 72.927078 0.000000 0.000000 0.000000
    14 -1.737010 -1.672583 -23.911072 0.694089 -0.012470 -0.089302
    15 0.000000 -0.005608 -1.146812 -0.139483 -0.006827 0.004465
    16 0.030770 -0.240000 8.906021 -0.004138 0.000000 0.000000
    17 0.363316 -1.694508 -0.117589 0.239253 0.042041 0.043134
    18 0.030770 -0.276858 8.905140 0.056125 0.004134 -0.000049
    19 0.151083 -1.131971 -0.079303 0.515158 0.061406 0.026713
    20 5.669724 4.435303 14.302868 0.480457 -1.245484 1.501336
    21 -1.044571 -2.839317 19.743267 -0.358557 -0.208104 0.075702
    22 2.655533 -1.533369 24.792658 -0.689446 0.074549 -1.057301
    23 1.120163 -0.154394 9.796035 -0.024981 0.000710 -0.216892
    24 2.240311 -0.308786 19.592051 -0.463334 -0.001041 -0.351258
    25 0.683151 2.877354 14.167051 -1.511326 -0.211747 1.554295
    26 0.144936 -0.145374 7.579252 -1.768092 -0.243254 0.235289
    27 0.091660 -0.906685 4.702850 -1.587456 -0.182548 0.191105
    28 0.506271 8.500866 13.617253 -1.470526 -0.303331 1.571638
    29 -0.384987 -0.460049 7.003448 -1.747475 -0.440888 0.551346
    30 0.561516 -0.596954 5.061852 -1.494372 -0.380545 0.386290
    31 -2.452171 -8.899406 11.597897 -1.564465 -0.075967 1.475308
    32 0.680496 -0.903999 6.074253 -1.627761 0.173777 -0.014057
    33 0.245514 -0.661150 3.388004 -1.484718 0.109694 -0.099192
    34 -0.717484 -3.784271 13.043911 -1.593546 -0.028646 1.464722
    35 1.099216 -1.407745 8.017889 -1.782123 0.031968 -0.017453
    36 0.068439 -0.807653 3.686054 -1.465843 0.034030 -0.009756
    37 -4.004929 6.172707 4.754754 0.109475 1.126800 2.530902
    38 0.158352 -1.149811 5.804394 -0.968198 -0.421799 0.096733
    39 -1.083523 -1.463142 5.544399 -1.286113 -0.248063 -0.012988
    40 -6.289886 0.932434 13.569063 -0.126803 0.612110 2.869610
    41 1.327774 -0.766687 12.396328 -0.067319 0.016422 -0.568708
    42 -0.096140 1.828087 23.185329 0.022845 -0.147307 -1.596975
    43 2.325478 -0.000003 6.169296 0.050183 0.018600 1.639737
    44 0.000000 -3.152912 0.122169 2.117387 0.000000 0.000000
    45 1.068383 -10.478592 7.066338 0.292219 -1.282324 -3.141588
    46 0.000000 0.000000 2.279457 0.547137 -0.343566 0.107833
    47 2.479414 -8.323895 6.074242 -0.010568 -0.078689 1.520712
    48 0.000003 -5.074219 5.929688 0.000000 0.000000 0.000000
    49 -1.068383 -10.478611 7.065971 0.292219 1.282324 3.141588
    50 -0.000488 0.000015 2.279600 0.547136 0.343566 0.107835
    51 -2.479401 -8.323895 6.074234 0.006866 -0.081762 1.529321
    52 -5.790000 4.432083 14.255558 -5.602916 1.372868 -1.413947
    53 1.044540 -2.839314 19.743252 -0.553333 0.147368 -0.047494
    54 -2.655510 -1.533379 24.792648 -0.718372 -0.058999 1.272628
    55 -1.120216 -0.154385 9.795983 -0.016005 -0.001073 0.139059
    56 -2.240372 -0.308788 19.592047 -0.216047 -0.200584 0.263965
    57 -0.683205 2.877342 14.167089 -1.604576 0.208954 -1.789836
    58 -0.144958 -0.145317 7.579308 -1.541390 0.304895 -0.166504
    59 -0.038551 -0.936644 4.697678 -2.189566 0.238585 -0.365164
    60 -0.506317 8.500896 13.617329 -1.725323 0.268607 -1.922470
    61 0.385056 -0.460075 7.003435 -1.471905 0.596213 -0.385484
    62 -0.456360 -0.710276 5.057732 -1.989928 0.545818 -0.699362
    63 2.452194 -8.899408 11.597939 -1.419551 0.110567 -1.352620
    64 -0.680515 -0.903999 6.074242 -1.453600 -0.173888 -0.003175
    65 -0.248295 -0.666843 3.386627 -1.668562 -0.122135 0.124610
    66 0.717491 -3.784309 13.044010 -1.725758 0.009829 -1.454343
    67 -1.099228 -1.407673 8.017876 -1.350904 -0.015601 0.007733
    68 -0.064053 -0.807640 3.686100 -1.839904 -0.037752 0.018151
    69 4.004906 6.172710 4.754800 -0.657895 -0.803253 -1.655576
    70 -0.158381 -1.149773 5.804405 -0.345802 0.685528 0.599784
    71 1.078559 -2.386406 5.215008 -1.052490 1.087709 -0.156294
    72 6.289963 0.932404 13.569109 -0.126801 -0.612098 -2.869612
    73 -1.327759 -0.766682 12.396324 -0.086346 -0.014073 0.724188
    74 0.000017 -54.999996 0.000000 0.000000 0.000000 -1.570796
  time 11
    0 0.000000 0.000000 -1.500000 0.000000 0.000000 0.000000
    1 -10.521344 -5.760963 66.994621 3.097005 -0.050653 -3.139334
    2 -1.112944 4.455024 21.589075 -0.355022 0.556797 -0.156752
    3 -0.000034 0.000012 24.761454 -1.212201 -0.140569 0.465170
    4 0.000017 0.000000 24.344809 1.982701 -0.578359 -0.425111
    5 0.002333 -1.019846 24.031336 0.603957 -0.045371 0.007565
    6 0.000034 0.000008 13.404741 -0.000001 -0.000009 0.164990
    7 10.398263 -5.760962 66.994675 3.097005 0.050653 3.139334
    8 1.273310 1.572353 21.345368 0.994493 -0.461056 0.105595
    9 -0.000004 -0.000006 24.761459 -1.730423 0.200523 -0.193333
    10 -0.000007 0.000004 24.344891 1.718907 0.243426 0.087005
    11 -0.002360 -1.019903 24.031330 0.389594 -0.042695 -0.017219
    12 0.000000 -0.000002 13.404737 0.000001 0.000005 -0.027138
    13 -0.061540 -5.245835 72.927078 0.000000 0.000000 0.000000
    14 -0.479159 0.924407 -21.928335 0.640514 -0.014913 -0.147014
    15 0.000000 -0.005608 -1.146812 -0.131540 0.013548 0.000742
    16 0.030770 -0.240000 8.906021 -0.004138 0.000000 0.000000
    17 0.382847 -1.866389 -0.187904 0.274627 0.035470 0.057430
    18 0.030770 -0.276858 8.905140 0.056125 0.004134 -0.000049
    19 0.287806 -0.932747 -0.044146 0.441238 0.115921 0.036612
    20 5.669724 4.435303 14.302868 0.653493 -1.273813 1.353369
    21 -1.044571 -2.839317 19.743267 -0.387225 -0.250112 0.078409
    22 2.655533 -1.533369 24.792658 -0.564247 0.077508 -0.940117
    23 1.120163 -0.154394 9.796035 -0.018857 0.001021 -0.163669
    24 2.240311 -0.308786 19.592051 -0.318374 0.042380 -0.284318
    25 0.683151 2.877354 14.167051 -1.511326 -0.211747 1.554295
    26 0.144936 -0.145374 7.579252 -1.768092 -0.243254 0.235289
    27 0.091660 -0.906685 4.702850 -1.587456 -0.182548 0.191105
    28 0.506271 8.500866 13.617253 -1.470526 -0.303331 1.571638
    29 -0.384987 -0.460049 7.003448 -1.747475 -0.440888 0.551346
    30 0.561516 -0.596954 5.061852 -1.494372 -0.380545 0.386290
    31 -2.452171 -8.899406 11.597897 -1.564465 -0.075967 1.475308
    32 0.680496 -0.903999 6.074253 -1.627761 0.173777 -0.014057
    33 0.245514 -0.661150 3.388004 -1.484718 0.109694 -0.099192
    34 -0.717484 -3.784271 13.043911 -1.593590 -0.028646 1.464722
    35 1.099216 -1.407745 8.017889 -1.782123 0.031968 -0.017453
    36 0.068439 -0.807653 3.686054 -1.465843 0.034030 -0.009756
    37 -4.004929 6.172707 4.754754 0.109475 1.126800 2.530902
    38 0.158352 -1.149811 5.804394 -0.949806 -0.404628 0.106021
    39 -1.083523 -1.463142 5.544399 -1.193929 -0.229367 -0.018071
    40 -6.289886 0.932434 13.569063 -0.126803 0.612110 2.869610
    41 1.327774 -0.766687 12.396328 -0.059098 0.016518 -0.502021
    42 -0.096140 1.828087 23.185329 0.001529 -0.134464 -1.583064
    43 2.325478 -0.000003 6.169296 -0.039493 -0.001859 1.639617
    44 0.000000 -3.152912 0.122169 2.087995 0.000000 0.000000
    45 1.068383 -10.478592 7.066338 0.292219 -1.282324 -3.141588
    46 0.000000 0.000000 2.279457 0.547137 -0.343566 0.107833
    47 2.479414 -8.323895 6.074242 -0.011329 -0.105409 1.503043
    48 0.000003 -5.074219 5.929688 0.000000 0.000000 0.000000
    49 -1.068383 -10.478611 7.065971 0.292219 1.282324 3.141588
    50 -0.000488 0.000015 2.279600 0.547136 0.343566 0.107835
    51 -2.479401 -8.323895 6.074234 0.006163 -0.108364 1.511597
    52 -5.790000 4.432083 14.255558 -5.765299 1.393844 -1.590247
    53 1.044540 -2.839314 19.743252 -0.599361 0.206088 -0.053971
    54 -2.655510 -1.533379 24.792648 -0.617570 -0.050962 1.325260
    55 -1.120216 -0.154385 9.795983 -0.011954 -0.001037 0.103830
    56 -2.240372 -0.308788 19.592047 -0.129065 -0.207267 0.201845
    57 -0.683205 2.877342 14.167089 -1.604527 0.208954 -1.789836
    58 -0.144958 -0.145317 7.579308 -1.541390 0.304895 -0.166504
    59 -0.038551 -0.936644 4.697678 -2.189566 0.238585 -0.365188
    60 -0.506317 8.500896 13.617329 -1.722382 0.270372 -1.935814
    61 0.385056 -0.460075 7.003435 -1.471905 0.596196 -0.385484
    62 -0.456360 -0.710276 5.057732 -1.989928 0.545818 -0.699362
    63 2.452194 -8.899408 11.597939 -1.419551 0.110567 -1.352644
    64 -0.680515 -0.903999 6.074242 -1.453600 -0.173888 -0.003175
    65 -0.248295 -0.666843 3.386627 -1.668562 -0.122159 0.124610
    66 0.717491 -3.784309 13.044010 -1.725758 0.009829 -1.454343
    67 -1.099228 -1.407673 8.017876 -1.350904 -0.015601 0.007733
    68 -0.064053 -0.807640 3.686100 -1.839904 -0.037752 0.018151
    69 4.004906 6.172710 4.754800 -0.665876 -0.829875 -1.629462
    70 -0.158381 -1.149773 5.804405 -0.345802 0.685528 0.599784
    71 1.078559 -2.386406 5.215008 -1.052490 1.087709 -0.156294
    72 6.289963 0.932404 13.569109 -0.126801 -0.612098 -2.869612
    73 -1.327759 -0.766682 12.396324 -0.089594 -0.013353 0.751022
    74 0.000017 -54.999996 0.000000 0.000000 0.000000 -1.570796
  time 12
    0 0.000000 0.000000 -1.500000 0.000000 0.000000 0.000000
    1 -10.521344 -5.760963 66.994621 3.097005 -0.050653 -3.139334
    2 -2.452829 6.394789 19.570866 -0.290529 0.591257 -0.069503
    3 -0.000034 0.000012 24.761454 -1.129394 -0.131005 0.456090
    4 0.000017 0.000000 24.344809 1.883142 -0.568128 -0.379889
    5 0.002333 -1.019846 24.031336 0.553780 -0.044927 0.009878
    6 0.000034 0.000008 13.404741 -0.000001 -0.000009 0.159611
    7 10.398263 -5.760962 66.994675 3.097005 0.050653 3.139334
    8 -0.039230 2.284247 19.726795 0.960795 -0.470567 0.149659
    9 -0.000004 -0.000006 24.761459 -1.658651 0.192217 -0.257930
    10 -0.000007 0.000004 24.344891 1.655852 0.211851 0.052934
    11 -0.002360 -1.019903 24.031330 0.389594 -0.042695 -0.017219
    12 0.000000 -0.000002 13.404737 0.000001 0.000005 -0.080962
    13 -0.061540 -5.245835 72.927078 0.000000 0.000000 0.000000
    14 0.817755 2.449993 -19.900536 0.582522 -0.017270 -0.213193
    15 0.000000 -0.005608 -1.146812 -0.122513 0.031868 -0.001894
    16 0.030770 -0.240000 8.906021 -0.004138 0.000000 0.000000
    17 0.406286 -2.018737 -0.246500 0.306677 0.027633 0.073683
    18 0.030770 -0.276858 8.905140 0.056125 0.004134 -0.000049
    19 0.432341 -0.733522 -0.016801 0.374145 0.169324 0.040363
    20 5.669724 4.435303 14.302868 0.958028 -1.286885 1.122314
    21 -1.044571 -2.839317 19.743267 -0.427242 -0.311063 0.085375
    22 2.655533 -1.533369 24.792658 -0.462395 0.081658 -0.797702
    23 1.120163 -0.154394 9.796035 -0.010312 0.000937 -0.089750
    24 2.240311 -0.308786 19.592051 -0.134552 0.044544 -0.165709
    25 0.683151 2.877354 14.167051 -1.511326 -0.211747 1.554295
    26 0.144936 -0.145374 7.579252 -1.768092 -0.243254 0.235289
    27 0.091660 -0.906685 4.702850 -1.587456 -0.182548 0.191105
    28 0.506271 8.500866 13.617253 -1.470526 -0.303331 1.571638
    29 -0.384987 -0.460049 7.003448 -1.747475 -0.440888 0.551346
    30 0.561516 -0.596954 5.061852 -1.494372 -0.380545 0.386290
    31 -2.452171 -8.899406 11.597897 -1.564465 -0.075967 1.475308
    32 0.680496 -0.903999 6.074253 -1.627761 0.173777 -0.014057
    33 0.245514 -0.661150 3.388004 -1.484718 0.109694 -0.099192
    34 -0.717484 -3.784271 13.043911 -1.593546 -0.028646 1.464722
    35 1.099216 -1.407745 8.017889 -1.782123 0.031968 -0.017453
    36 0.068439 -0.807653 3.686054 -1.465843 0.034030 -0.009756
    37 -4.004929 6.172707 4.754754 0.109475 1.126800 2.530902
    38 0.158352 -1.149811 5.804394 -0.930736 -0.386826 0.115548
    39 -1.083523 -1.463142 5.544399 -1.098763 -0.210252 -0.021786
    40 -6.289886 0.932434 13.569063 -0.126803 0.612110 2.869610
    41 1.327774 -0.766687 12.396328 -0.049678 0.015955 -0.425643
    42 -0.096140 1.828087 23.185329 -0.021534 -0.120603 -1.567289
    43 2.325478 -0.000003 6.169296 -0.126637 -0.020799 1.647559
    44 0.000000 -3.152912 0.122169 2.057577 0.000000 0.000000
    45 1.068383 -10.478592 7.066338 0.292219 -1.282324 -3.141588
    46 0.000000 0.000000 2.279457 0.547137 -0.343566 0.107833
    47 2.479414 -8.323895 6.074242 -0.011873 -0.058167 1.488144
    48 0.000003 -5.074219 5.929688 0.000000 0.000000 0.000000
    49 -1.068383 -10.478611 7.065971 0.292219 1.282324 3.141588
    50 -0.000488 0.000015 2.279600 0.547136 0.343566 0.107835
    51 -2.479401 -8.323895 6.074234 0.005480 -0.060546 1.496172
    52 -5.790000 4.432083 14.255558 -5.914550 1.402982 -1.772296
    53 1.044540 -2.839314 19.743252 -0.662753 0.302838 -0.073920
    54 -2.655510 -1.533379 24.792648 -0.533879 -0.046535 1.353129
    55 -1.120216 -0.154385 9.795983 -0.007879 -0.000821 0.068682
    56 -2.240372 -0.308788 19.592047 -0.051934 -0.190733 0.136374
    57 -0.683205 2.877342 14.167089 -1.604576 0.208934 -1.789836
    58 -0.144958 -0.145317 7.579308 -1.541390 0.304895 -0.166504
    59 -0.038551 -0.936644 4.697678 -2.189566 0.238585 -0.365176
    60 -0.506317 8.500896 13.617329 -1.719365 0.272214 -1.949607
    61 0.385056 -0.460075 7.003435 -1.471905 0.596196 -0.385484
    62 -0.456360 -0.710276 5.057732 -1.989928 0.545818 -0.699362
    63 2.452194 -8.899408 11.597939 -1.419551 0.110567 -1.352644
    64 -0.680515 -0.903999 6.074242 -1.453600 -0.173888 -0.003175
    65 -0.248295 -0.666843 3.386627 -1.668562 -0.122147 0.124610
    66 0.717491 -3.784309 13.044010 -1.725758 0.009829 -1.454343
    67 -1.099228 -1.407673 8.017876 -1.350904 -0.015601 0.007733
    68 -0.064053 -0.807640 3.686100 -1.839904 -0.037752 0.018151
    69 4.004906 6.172710 4.754800 -0.675739 -0.857042 -1.600974
    70 -0.158381 -1.149773 5.804405 -0.345802 0.685528 0.599784
    71 1.078559 -2.386406 5.215008 -1.052490 1.087709 -0.156294
    72 6.289963 0.932404 13.569109 -0.126801 -0.612098 -2.869612
    73 -1.327759 -0.766682 12.396324 -0.090769 -0.013090 0.760784
    74 0.000017 -54.999996 0.000000 0.000000 0.000000 -1.570796
  time 13
    0 0.000000 0.000000 -1.500000 0.000000 0.000000 0.000000
    1 -10.521344 -5.760963 66.994621 3.097005 -0.050653 -3.139334
    2 -3.788807 7.831197 17.552658 -0.243184 0.600136 0.035309
    3 -0.000034 0.000012 24.761454 -0.997156 -0.115701 0.424208
    4 0.000017 0.000000 24.344809 1.777294 -0.568309 -0.329806
    5 0.002333 -1.019846 24.031336 0.504499 -0.044400 0.012120
    6 0.000034 0.000008 13.404741 -0.000001 -0.000009 0.146786
    7 10.398263 -5.760962 66.994675 3.097005 0.050653 3.139334
    8 -1.238485 2.321715 18.085743 0.900908 -0.477298 0.207503
    9 -0.000004 -0.000006 24.761459 -1.583305 0.183517 -0.318365
    10 -0.000007 0.000004 24.344891 1.615902 0.182409 0.026072
    11 -0.002360 -1.019903 24.031330 0.389594 -0.042695 -0.017219
    12 0.000000 -0.000002 13.404737 0.000001 0.000005 -0.126327
    13 -0.061540 -5.245835 72.927078 0.000000 0.000000 0.000000
    14 2.075606 3.404940 -17.940330 0.521458 -0.019455 -0.286578
    15 0.000000 -0.005608 -1.146812 -0.112529 0.047647 -0.003253
    16 0.030770 -0.240000 8.906021 -0.004138 0.000000 0.000000
    17 0.437537 -2.139834 -0.297282 0.332645 0.021530 0.089617
    18 0.030770 -0.276858 8.905140 0.056125 0.004134 -0.000049
    19 0.537813 -0.608518 -0.001176 0.328856 0.209356 0.040495
    20 5.669724 4.435303 14.302868 1.236436 -1.286286 0.957097
    21 -1.044571 -2.839317 19.743267 -0.436879 -0.362986 0.093807
    22 2.655533 -1.533369 24.792658 -0.433753 0.084771 -0.664101
    23 1.120163 -0.154394 9.796035 -0.003828 0.000458 -0.033423
    24 2.240311 -0.308786 19.592051 -0.052041 -0.039351 -0.062055
    25 0.683151 2.877354 14.167051 -1.511326 -0.211747 1.554295
    26 0.144936 -0.145374 7.579252 -1.768092 -0.243254 0.235289
    27 0.091660 -0.906685 4.702850 -1.587456 -0.182548 0.191105
    28 0.506271 8.500866 13.617253 -1.470526 -0.303331 1.571638
    29 -0.384987 -0.460049 7.003448 -1.747475 -0.440888 0.551346
    30 0.561516 -0.596954 5.061852 -1.494372 -0.380545 0.386302
    31 -2.452171 -8.899406 11.597897 -1.564465 -0.075967 1.475308
    32 0.680496 -0.903999 6.074253 -1.627761 0.173777 -0.014057
    33 0.245514 -0.661150 3.388004 -1.484718 0.109694 -0.099192
    34 -0.717484 -3.784271 13.043911 -1.593590 -0.028658 1.464722
    35 1.099216 -1.407745 8.017889 -1.782123 0.031968 -0.017453
    36 0.068439 -0.807653 3.686054 -1.465843 0.034030 -0.009756
    37 -4.004929 6.172707 4.754754 0.109475 1.126800 2.530902
    38 0.158352 -1.149811 5.804394 -0.912132 -0.369610 0.124741
    39 -1.083523 -1.463142 5.544399 -1.007050 -0.192155 -0.023954
    40 -6.289886 0.932434 13.569063 -0.126803 0.612110 2.869610
    41 1.327774 -0.766687 12.396328 -0.041277 0.014840 -0.356847
    42 -0.096140 1.828087 23.185329 -0.045726 -0.106454 -1.549374
    43 2.325478 -0.000003 6.169296 -0.193392 -0.034935 1.661848
    44 0.000000 -3.152912 0.122169 2.028234 0.000000 0.000000
    45 1.068383 -10.478592 7.066338 0.292219 -1.282324 -3.141588
    46 0.000000 0.000000 2.279457 0.547137 -0.343566 0.107833
    47 2.479414 -8.323895 6.074242 -0.011764 0.051343 1.488431
    48 0.000003 -5.074219 5.929688 0.000000 0.000000 0.000000
    49 -1.068383 -10.478611 7.065971 0.292219 1.282324 3.141588
    50 -0.000488 0.000015 2.279600 0.547136 0.343566 0.107835
    51 -2.479401 -8.323895 6.074234 0.005440 0.050636 1.495981
    52 -5.790000 4.432083 14.255558 -5.859336 1.410916 -1.791459
    53 1.044540 -2.839314 19.743252 -0.708058 0.461064 -0.128868
    54 -2.655510 -1.533379 24.792648 -0.497695 -0.049616 1.313068
    55 -1.120216 -0.154385 9.795983 -0.004056 -0.000498 0.035221
    56 -2.240372 -0.308788 19.592047 0.004043 -0.148556 0.071847
    57 -0.683205 2.877342 14.167089 -1.604527 0.208954 -1.789836
    58 -0.144958 -0.145317 7.579308 -1.541390 0.304895 -0.166504
    59 -0.038551 -0.936644 4.697678 -2.189566 0.238585 -0.365164
    60 -0.506317 8.500896 13.617329 -1.716499 0.274004 -1.962996
    61 0.385056 -0.460075 7.003435 -1.471905 0.596196 -0.385484
    62 -0.456360 -0.710276 5.057732 -1.989928 0.545818 -0.699362
    63 2.452194 -8.899408 11.597939 -1.419551 0.110567 -1.352644
    64 -0.680515 -0.903999 6.074242 -1.453600 -0.173888 -0.003175
    65 -0.248295 -0.666843 3.386627 -1.668562 -0.122147 0.124610
    66 0.717491 -3.784309 13.044010 -1.725758 0.009829 -1.454343
    67 -1.099228 -1.407673 8.017876 -1.350904 -0.015601 0.007733
    68 -0.064053 -0.807640 3.686100 -1.839904 -0.037752 0.018151
    69 4.004906 6.172710 4.754800 -0.687033 -0.882912 -1.571666
    70 -0.158381 -1.149773 5.804405 -0.345802 0.685528 0.599784
    71 1.078559 -2.386406 5.215008 -1.052490 1.087709 -0.156294
    72 6.289963 0.932404 13.569109 -0.126801 -0.612098 -2.869612
    73 -1.327759 -0.766682 12.396324 -0.086262 -0.014097 0.723494
    74 0.000017 -54.999996 0.000000 0.000000 0.000000 -1.570796
  time 14
    0 0.000000 0.000000 -1.500000 0.000000 0.000000 0.000000
    1 -10.521344 -5.760963 66.994621 3.097005 -0.050653 -3.139334
    2 -5.066190 9.255328 15.713846 -0.199869 0.595432 0.150126
    3 -0.000034 0.000012 24.761454 -0.848861 -0.098539 0.378440
    4 0.000017 0.000000 24.344809 1.668548 -0.569486 -0.278102
    5 0.002333 -1.019846 24.031336 0.459736 -0.043801 0.014109
    6 0.000034 0.000008 13.404741 -0.000001 -0.000009 0.129110
    7 10.398263 -5.760962 66.994675 3.097005 0.050653 3.139334
    8 -2.207265 2.221800 16.489651 0.831977 -0.490504 0.274919
    9 -0.000004 -0.000006 24.761459 -1.504054 0.174348 -0.383142
    10 -0.000007 0.000004 24.344891 1.580147 0.158278 0.008101
    11 -0.002360 -1.019903 24.031330 0.389594 -0.042695 -0.017219
    12 0.000000 -0.000002 13.404737 0.000001 0.000005 -0.169094
    13 -0.061540 -5.245835 72.927078 0.000000 0.000000 0.000000
    14 3.204547 4.290013 -16.115311 0.458537 -0.021399 -0.365909
    15 0.000000 -0.005608 -1.146812 -0.101844 0.060384 -0.002981
    16 0.030770 -0.240000 8.906021 -0.004138 0.000000 0.000000
    17 0.468788 -2.225775 -0.324627 0.350659 0.018606 0.102036
    18 0.030770 -0.276858 8.905140 0.056125 0.004134 -0.000049
    19 0.604222 -0.538203 0.002731 0.307409 0.234473 0.040770
    20 5.669724 4.435303 14.302868 1.444692 -1.278745 0.895284
    21 -1.044571 -2.839317 19.743267 -0.330575 -0.382450 0.092961
    22 2.655533 -1.533369 24.792658 -0.522022 0.087922 -0.559615
    23 1.120163 -0.154394 9.796035 -0.000521 0.000062 -0.004414
    24 2.240311 -0.308786 19.592051 -0.191779 -0.205989 0.009751
    25 0.683151 2.877354 14.167051 -1.511326 -0.211747 1.554295
    26 0.144936 -0.145374 7.579252 -1.768092 -0.243254 0.235289
    27 0.091660 -0.906685 4.702850 -1.587456 -0.182548 0.191105
    28 0.506271 8.500866 13.617253 -1.470526 -0.303331 1.571638
    29 -0.384987 -0.460049 7.003448 -1.747475 -0.440888 0.551346
    30 0.561516 -0.596954 5.061852 -1.494372 -0.380545 0.386290
    31 -2.452171 -8.899406 11.597897 -1.564465 -0.075967 1.475308
    32 0.680496 -0.903999 6.074253 -1.627761 0.173777 -0.014057
    33 0.245514 -0.661150 3.388004 -1.484718 0.109694 -0.099192
    34 -0.717484 -3.784271 13.043911 -1.593546 -0.028646 1.464722
    35 1.099216 -1.407745 8.017889 -1.782123 0.031968 -0.017453
    36 0.068439 -0.807653 3.686054 -1.465843 0.034030 -0.009756
    37 -4.004929 6.172707 4.754754 0.109475 1.126800 2.530902
    38 0.158352 -1.149811 5.804394 -0.895435 -0.354142 0.132974
    39 -1.083523 -1.463142 5.544399 -0.924807 -0.176336 -0.024755
    40 -6.289886 0.932434 13.569063 -0.126803 0.612110 2.869610
    41 1.327774 -0.766687 12.396328 -0.035009 0.013618 -0.305175
    42 -0.096140 1.828087 23.185329 -0.070655 -0.092624 -1.529074
    43 2.325478 -0.000003 6.169296 -0.237465 -0.044658 1.681445
    44 0.000000 -3.152912 0.122169 2.001869 0.000000 0.000000
    45 1.068383 -10.478592 7.066338 0.292219 -1.282324 -3.141588
    46 0.000000 0.000000 2.279457 0.547137 -0.343566 0.107833
    47 2.479414 -8.323895 6.074242 -0.011030 0.176726 1.510015
    48 0.000003 -5.074219 5.929688 0.000000 0.000000 0.000000
    49 -1.068383 -10.478611 7.065971 0.292219 1.282324 3.141588
    50 -0.000488 0.000015 2.279600 0.547136 0.343566 0.107835
    51 -2.479401 -8.323895 6.074234 0.006364 0.177694 1.516962
    52 -5.790000 4.432083 14.255558 -5.312659 1.427614 -1.530937
    53 1.044540 -2.839314 19.743252 -0.775291 0.722400 -0.267366
    54 -2.655510 -1.533379 24.792648 -0.493367 -0.067334 1.085650
    55 -1.120216 -0.154385 9.795983 0.000486 0.000066 -0.004388
    56 -2.240372 -0.308788 19.592047 0.015498 -0.040242 -0.007801
    57 -0.683205 2.877342 14.167089 -1.604576 0.208954 -1.789836
    58 -0.144958 -0.145317 7.579308 -1.541390 0.304895 -0.166504
    59 -0.038551 -0.936644 4.697678 -2.189566 0.238585 -0.365164
    60 -0.506317 8.500896 13.617329 -1.714010 0.275586 -1.975037
    61 0.385056 -0.460075 7.003435 -1.471905 0.596196 -0.385484
    62 -0.456360 -0.710276 5.057732 -1.989928 0.545818 -0.699362
    63 2.452194 -8.899408 11.597939 -1.419551 0.110567 -1.352644
    64 -0.680515 -0.903999 6.074242 -1.453600 -0.173888 -0.003175
    65 -0.248295 -0.666843 3.386627 -1.668562 -0.122135 0.124610
    66 0.717491 -3.784309 13.044010 -1.725758 0.009829 -1.454343
    67 -1.099228 -1.407673 8.017876 -1.350904 -0.015601 0.007733
    68 -0.064053 -0.807640 3.686100 -1.839904 -0.037752 0.018151
    69 4.004906 6.172710 4.754800 -0.698853 -0.905732 -1.543669
    70 -0.158381 -1.149773 5.804405 -0.345802 0.685528 0.599784
    71 1.078559 -2.386406 5.215008 -1.052490 1.087709 -0.156294
    72 6.289963 0.932404 13.569109 -0.126801 -0.612098 -2.869612
    73 -1.327759 -0.766682 12.396324 -0.069544 -0.016302 0.586689
    74 0.000017 -54.999996 0.000000 0.000000 0.000000 -1.570796
  time 15
    0 0.000000 0.000000 -1.500000 0.000000 0.000000 0.000000
    1 -10.521344 -5.760963 66.994621 3.097005 -0.050653 -3.139334
    2 -6.195130 10.605797 14.099279 -0.163524 0.581570 0.268788
    3 -0.000034 0.000012 24.761454 -0.694468 -0.080658 0.320702
    4 0.000017 0.000000 24.344809 1.559187 -0.571048 -0.226982
    5 0.002333 -1.019846 24.031336 0.423223 -0.043249 0.015727
    6 0.000034 0.000008 13.404741 -0.000001 -0.000009 0.107004
    7 10.398263 -5.760962 66.994675 3.097005 0.050653 3.139334
    8 -2.847910 1.984502 15.028440 0.762023 -0.495552 0.350587
    9 -0.000004 -0.000006 24.761459 -1.427662 0.165528 -0.433278
    10 -0.000007 0.000004 24.344891 1.553170 0.140324 -0.002387
    11 -0.002360 -1.019903 24.031330 0.389594 -0.042695 -0.017219
    12 0.000000 -0.000002 13.404737 0.000001 0.000005 -0.198228
    13 -0.061540 -5.245835 72.927078 0.000000 0.000000 0.000000
    14 4.114731 5.093566 -14.493072 0.395137 -0.023033 -0.449743
    15 0.000000 -0.005608 -1.146812 -0.090584 0.069497 -0.000970
    16 0.030770 -0.240000 8.906021 -0.004138 0.000000 0.000000
    17 0.492226 -2.284370 -0.344159 0.362296 0.017226 0.110901
    18 0.030770 -0.276858 8.905140 0.056125 0.004134 -0.000049
    19 0.647192 -0.499140 0.002731 0.295470 0.251363 0.041082
    20 5.669724 4.435303 14.302868 1.640697 -1.263700 0.870942
    21 -1.044571 -2.839317 19.743267 -0.143112 -0.360220 0.080383
    22 2.655533 -1.533369 24.792658 -0.686625 0.094032 -0.517157
    23 1.120163 -0.154394 9.796035 0.001625 -0.000237 0.014212
    24 2.240311 -0.308786 19.592051 -0.494319 -0.396709 0.077522
    25 0.683151 2.877354 14.167051 -1.511326 -0.211735 1.554295
    26 0.144936 -0.145374 7.579252 -1.768092 -0.243254 0.235289
    27 0.091660 -0.906685 4.702850 -1.587456 -0.182548 0.191105
    28 0.506271 8.500866 13.617253 -1.470526 -0.303331 1.571638
    29 -0.384987 -0.460049 7.003448 -1.747475 -0.440888 0.551346
    30 0.561516 -0.596954 5.061852 -1.494372 -0.380545 0.386290
    31 -2.452171 -8.899406 11.597897 -1.564465 -0.075967 1.475308
    32 0.680496 -0.903999 6.074253 -1.627761 0.173777 -0.014057
    33 0.245514 -0.661150 3.388004 -1.484718 0.109694 -0.099192
    34 -0.717484 -3.784271 13.043911 -1.593590 -0.028646 1.464722
    35 1.099216 -1.407745 8.017889 -1.782123 0.031968 -0.017453
    36 0.068439 -0.807653 3.686054 -1.465843 0.034030 -0.009756
    37 -4.004929 6.172707 4.754754 0.109475 1.126800 2.530902
    38 0.158352 -1.149811 5.804394 -0.881959 -0.341638 0.139577
    39 -1.083523 -1.463142 5.544399 -0.858363 -0.163884 -0.024617
    40 -6.289886 0.932434 13.569063 -0.126803 0.612110 2.869610
    41 1.327774 -0.766687 12.396328 -0.033235 0.013210 -0.290462
    42 -0.096140 1.828087 23.185329 -0.095857 -0.079845 -1.506237
    43 2.325478 -0.000003 6.169296 -0.268503 -0.050373 1.706830
    44 0.000000 -3.152912 0.122169 1.980516 0.000000 0.000000
    45 1.068383 -10.478592 7.066338 0.292219 -1.282324 -3.141588
    46 0.000000 0.000000 2.279457 0.547137 -0.343566 0.107833
    47 2.479414 -8.323895 6.074242 -0.009725 0.261066 1.545353
    48 0.000003 -5.074219 5.929688 0.000000 0.000000 0.000000
    49 -1.068383 -10.478611 7.065971 0.292219 1.282324 3.141588
    50 -0.000488 0.000015 2.279600 0.547136 0.343566 0.107835
    51 -2.479401 -8.323895 6.074234 0.007930 0.262982 1.551740
    52 -5.790000 4.432083 14.255558 -4.293405 1.430854 -1.007306
    53 1.044540 -2.839314 19.743252 -0.741897 0.924762 -0.364987
    54 -2.655510 -1.533379 24.792648 -0.495832 -0.084989 0.705788
    55 -1.120216 -0.154385 9.795983 0.005688 0.000929 -0.049955
    56 -2.240372 -0.308788 19.592047 -0.033377 0.119061 -0.102228
    57 -0.683205 2.877342 14.167089 -1.604576 0.208954 -1.789836
    58 -0.144958 -0.145317 7.579308 -1.541390 0.304895 -0.166504
    59 -0.038551 -0.936644 4.697678 -2.189615 0.238585 -0.365164
    60 -0.506317 8.500896 13.617329 -1.712049 0.276883 -1.984787
    61 0.385056 -0.460075 7.003435 -1.471905 0.596213 -0.385484
    62 -0.456360 -0.710276 5.057732 -1.989928 0.545818 -0.699362
    63 2.452194 -8.899408 11.597939 -1.419591 0.110567 -1.352620
    64 -0.680515 -0.903999 6.074242 -1.453600 -0.173888 -0.003175
    65 -0.248295 -0.666843 3.386627 -1.668562 -0.122147 0.124610
    66 0.717491 -3.784309 13.044010 -1.725758 0.009829 -1.454343
    67 -1.099228 -1.407673 8.017876 -1.350904 -0.015601 0.007733
    68 -0.064053 -0.807640 3.686100 -1.839904 -0.037752 0.018151
    69 4.004906 6.172710 4.754800 -0.709470 -0.923933 -1.520011
    70 -0.158381 -1.149773 5.804405 -0.345802 0.685528 0.599784
    71 1.078559 -2.386406 5.215008 -1.052490 1.087709 -0.156294
    72 6.289963 0.932404 13.569109 -0.126801 -0.612098 -2.869612
    73 -1.327759 -0.766682 12.396324 -0.043969 -0.015247 0.379007
    74 0.000017 -54.999996 0.000000 0.000000 0.000000 -1.570796
  time 16
    0 0.000000 0.000000 -1.500000 0.000000 0.000000 0.000000
    1 -10.521344 -5.760963 66.994621 3.097005 -0.050653 -3.139334
    2 -7.089689 12.128144 12.776231 -0.114949 0.568210 0.389809
    3 -0.000034 0.000012 24.761454 -0.573653 -0.066660 0.254657
    4 0.000017 0.000000 24.344809 1.462339 -0.565593 -0.185001
    5 0.002333 -1.019846 24.031336 0.398620 -0.042866 0.016818
    6 0.000034 0.000008 13.404741 -0.000001 -0.000009 0.079899
    7 10.398263 -5.760962 66.994675 3.097005 0.050653 3.139334
    8 -3.062760 1.884587 13.792030 0.698723 -0.501514 0.430463
    9 -0.000004 -0.000006 24.761459 -1.355506 0.157174 -0.474189
    10 -0.000007 0.000004 24.344891 1.526579 0.130814 -0.005414
    11 -0.002360 -1.019903 24.031330 0.389594 -0.042695 -0.017219
    12 0.000000 -0.000002 13.404737 0.000001 0.000005 -0.218710
    13 -0.061540 -5.245835 72.927078 0.000000 0.000000 0.000000
    14 4.728031 6.060158 -13.141206 0.332408 -0.024186 -0.537061
    15 0.000000 -0.005608 -1.146812 -0.078973 0.074610 0.002970
    16 0.030770 -0.240000 8.906021 -0.004138 0.000000 0.000000
    17 0.511758 -2.323434 -0.359784 0.370167 0.016479 0.117331
    18 0.030770 -0.276858 8.905140 0.056125 0.004134 -0.000049
    19 0.670630 -0.460076 0.002731 0.282781 0.260332 0.039848
    20 5.669724 4.435303 14.302868 1.828089 -1.250981 0.866534
    21 -1.044571 -2.839317 19.743267 -0.015674 -0.346965 0.070344
    22 2.655533 -1.533369 24.792658 -0.844632 0.102255 -0.540448
    23 1.120163 -0.154394 9.796035 0.002739 -0.000429 0.024043
    24 2.240311 -0.308786 19.592051 -0.801689 -0.541752 0.125472
    25 0.683151 2.877354 14.167051 -1.511326 -0.211747 1.554295
    26 0.144936 -0.145374 7.579252 -1.768092 -0.243254 0.235289
    27 0.091660 -0.906685 4.702850 -1.587456 -0.182548 0.191105
    28 0.506271 8.500866 13.617253 -1.470526 -0.303331 1.571638
    29 -0.384987 -0.460049 7.003448 -1.747475 -0.440888 0.551346
    30 0.561516 -0.596954 5.061852 -1.494372 -0.380545 0.386290
    31 -2.452171 -8.899406 11.597897 -1.564465 -0.075967 1.475308
    32 0.680496 -0.903999 6.074253 -1.627761 0.173777 -0.014057
    33 0.245514 -0.661150 3.388004 -1.484718 0.109694 -0.099192
    34 -0.717484 -3.784271 13.043911 -1.593546 -0.028634 1.464722
    35 1.099216 -1.407745 8.017889 -1.782123 0.031968 -0.017453
    36 0.068439 -0.807653 3.686054 -1.465843 0.034030 -0.009756
    37 -4.004929 6.172707 4.754754 0.109475 1.126800 2.530902
    38 0.158352 -1.149811 5.804394 -0.872805 -0.333287 0.144012
    39 -1.083523 -1.463142 5.544399 -0.813945 -0.155722 -0.024175
    40 -6.289886 0.932434 13.569063 -0.126803 0.612110 2.869610
    41 1.327774 -0.766687 12.396328 -0.035464 0.013713 -0.309042
    42 -0.096140 1.828087 23.185329 -0.121077 -0.068787 -1.480740
    43 2.325478 -0.000003 6.169296 -0.286457 -0.050547 1.737123
    44 0.000000 -3.152912 0.122169 1.966260 0.000000 0.000000
    45 1.068383 -10.478592 7.066338 0.292219 -1.282324 -3.141588
    46 0.000000 0.000000 2.279457 0.547137 -0.343566 0.107833
    47 2.479414 -8.323895 6.074242 -0.008121 0.293656 1.586899
    48 0.000003 -5.074219 5.929688 0.000000 0.000000 0.000000
    49 -1.068383 -10.478611 7.065971 0.292219 1.282324 3.141588
    50 -0.000488 0.000015 2.279600 0.547136 0.343566 0.107835
    51 -2.479401 -8.323895 6.074234 0.009657 0.296105 1.592745
    52 -5.790000 4.432083 14.255558 -3.378826 1.394841 -0.562053
    53 1.044540 -2.839314 19.743252 -0.604426 0.927772 -0.303127
    54 -2.655510 -1.533379 24.792648 -0.542937 -0.088625 0.444216
    55 -1.120216 -0.154385 9.795983 0.009918 0.001803 -0.087524
    56 -2.240372 -0.308788 19.592047 -0.116159 0.252523 -0.185484
    57 -0.683205 2.877342 14.167089 -1.604576 0.208954 -1.789836
    58 -0.144958 -0.145317 7.579308 -1.541390 0.304895 -0.166504
    59 -0.038551 -0.936644 4.697678 -2.189566 0.238585 -0.365176
    60 -0.506317 8.500896 13.617329 -1.710767 0.277791 -1.991302
    61 0.385056 -0.460075 7.003435 -1.471905 0.596213 -0.385484
    62 -0.456360 -0.710276 5.057732 -1.989928 0.545818 -0.699362
    63 2.452194 -8.899408 11.597939 -1.419591 0.110567 -1.352644
    64 -0.680515 -0.903999 6.074242 -1.453600 -0.173888 -0.003175
    65 -0.248295 -0.666843 3.386627 -1.668562 -0.122159 0.124610
    66 0.717491 -3.784309 13.044010 -1.725758 0.009829 -1.454343
    67 -1.099228 -1.407673 8.017876 -1.350904 -0.015601 0.007733
    68 -0.064053 -0.807640 3.686100 -1.839904 -0.037752 0.018151
    69 4.004906 6.172710 4.754800 -0.717300 -0.935949 -1.503392
    70 -0.158381 -1.149773 5.804405 -0.345802 0.685528 0.599784
    71 1.078559 -2.386406 5.215008 -1.052490 1.087709 -0.156294
    72 6.289963 0.932404 13.569109 -0.126801 -0.612098 -2.869612
    73 -1.327759 -0.766682 12.396324 -0.028233 -0.011915 0.248540
    74 0.000017 -54.999996 0.000000 0.000000 0.000000 -1.570796
  time 17
    0 0.000000 0.000000 -1.500000 0.000000 0.000000 0.000000
    1 -10.521344 -5.760963 66.994621 3.097005 -0.050653 -3.139334
    2 -7.667831 14.043355 11.856825 -0.017047 0.561752 0.517559
    3 -0.000034 0.000012 24.761454 -0.551783 -0.064131 0.180958
    4 0.000017 0.000000 24.344809 1.407288 -0.543433 -0.169077
    5 0.002333 -1.019846 24.031336 0.389660 -0.042710 0.017213
    6 0.000034 0.000008 13.404741 -0.000001 -0.000009 0.043977
    7 10.398263 -5.760962 66.994675 3.097005 0.050653 3.139334
    8 -2.769782 2.246779 12.825383 0.636532 -0.533339 0.510339
    9 -0.000004 -0.000006 24.761459 -1.287199 0.149289 -0.532866
    10 -0.000007 0.000004 24.344891 1.489986 0.134747 0.001291
    11 -0.002360 -1.019903 24.031330 0.389594 -0.042695 -0.017219
    12 0.000000 -0.000002 13.404737 0.000001 0.000005 -0.246556
    13 -0.061540 -5.245835 72.927078 0.000000 0.000000 0.000000
    14 4.950694 7.434350 -12.104775 0.271728 -0.024892 -0.626481
    15 0.000000 -0.005608 -1.146812 -0.067363 0.075112 0.008976
    16 0.030770 -0.240000 8.906021 -0.004138 0.000000 0.000000
    17 0.527383 -2.342966 -0.375410 0.376753 0.015289 0.122522
    18 0.030770 -0.276858 8.905140 0.056125 0.004134 -0.000049
    19 0.666724 -0.401480 0.010544 0.258867 0.261587 0.035066
    20 5.669724 4.435303 14.302868 2.009259 -1.249712 0.868067
    21 -1.044571 -2.839317 19.743267 -0.037590 -0.375927 0.069977
    22 2.655533 -1.533369 24.792658 -0.903738 0.105944 -0.552740
    23 1.120163 -0.154394 9.796035 0.003075 -0.000489 0.026975
    24 2.240311 -0.308786 19.592051 -0.941079 -0.599677 0.142365
    25 0.683151 2.877354 14.167051 -1.511326 -0.211747 1.554295
    26 0.144936 -0.145374 7.579252 -1.768092 -0.243254 0.235289
    27 0.091660 -0.906685 4.702850 -1.587456 -0.182548 0.191105
    28 0.506271 8.500866 13.617253 -1.470526 -0.303331 1.571638
    29 -0.384987 -0.460049 7.003448 -1.747475 -0.440888 0.551346
    30 0.561516 -0.596954 5.061852 -1.494372 -0.380545 0.386290
    31 -2.452171 -8.899406 11.597897 -1.564465 -0.075967 1.475308
    32 0.680496 -0.903999 6.074253 -1.627761 0.173777 -0.014057
    33 0.245514 -0.661150 3.388004 -1.484718 0.109694 -0.099192
    34 -0.717484 -3.784271 13.043911 -1.593590 -0.028634 1.464722
    35 1.099216 -1.407745 8.017889 -1.782123 0.031968 -0.017453
    36 0.068439 -0.807653 3.686054 -1.465843 0.034030 -0.009756
    37 -4.004929 6.172707 4.754754 0.109475 1.126800 2.530902
    38 0.158352 -1.149811 5.804394 -0.869542 -0.330219 0.145630
    39 -1.083523 -1.463142 5.544399 -0.797779 -0.152798 -0.023927
    40 -6.289886 0.932434 13.569063 -0.126803 0.612110 2.869610
    41 1.327774 -0.766687 12.396328 -0.036339 0.013893 -0.316323
    42 -0.096140 1.828087 23.185329 -0.146091 -0.060215 -1.452247
    43 2.325478 -0.000003 6.169296 -0.290802 -0.044007 1.771768
    44 0.000000 -3.152912 0.122169 1.961052 0.000000 0.000000
    45 1.068383 -10.478592 7.066338 0.292219 -1.282324 -3.141588
    46 0.000000 0.000000 2.279457 0.547137 -0.343566 0.107833
    47 2.479414 -8.323895 6.074242 -0.006381 0.272759 1.626726
    48 0.000003 -5.074219 5.929688 0.000000 0.000000 0.000000
    49 -1.068383 -10.478611 7.065971 0.292219 1.282324 3.141588
    50 -0.000488 0.000015 2.279600 0.547136 0.343566 0.107835
    51 -2.479401 -8.323895 6.074234 0.011244 0.275267 1.632314
    52 -5.790000 4.432083 14.255558 -3.057320 1.366845 -0.449278
    53 1.044540 -2.839314 19.743252 -0.526395 0.858580 -0.243961
    54 -2.655510 -1.533379 24.792648 -0.651540 -0.091887 0.372045
    55 -1.120216 -0.154385 9.795983 0.011692 0.002223 -0.103139
    56 -2.240372 -0.308788 19.592047 -0.169463 0.304997 -0.223118
    57 -0.683205 2.877342 14.167089 -1.604576 0.208954 -1.789836
    58 -0.144958 -0.145317 7.579308 -1.541390 0.304895 -0.166504
    59 -0.038551 -0.936644 4.697678 -2.189566 0.238585 -0.365176
    60 -0.506317 8.500896 13.617329 -1.710239 0.278103 -1.993683
    61 0.385056 -0.460075 7.003435 -1.471905 0.596196 -0.385484
    62 -0.456360 -0.710276 5.057732 -1.989928 0.545818 -0.699362
    63 2.452194 -8.899408 11.597939 -1.419591 0.110567 -1.352644
    64 -0.680515 -0.903999 6.074242 -1.453600 -0.173888 -0.003175
    65 -0.248295 -0.666843 3.386627 -1.668562 -0.122147 0.124610
    66 0.717491 -3.784309 13.044010 -1.725758 0.009829 -1.454343
    67 -1.099228 -1.407673 8.017876 -1.350904 -0.015601 0.007733
    68 -0.064053 -0.807640 3.686100 -1.839904 -0.037752 0.018151
    69 4.004906 6.172710 4.754800 -0.720236 -0.940295 -1.497252
    70 -0.158381 -1.149773 5.804405 -0.345802 0.685528 0.599784
    71 1.078559 -2.386406 5.215008 -1.052490 1.087709 -0.156294
    72 6.289963 0.932404 13.569109 -0.126801 -0.612098 -2.869612
    73 -1.327759 -0.766682 12.396324 -0.024853 -0.010933 0.220087
    74 0.000017 -54.999996 0.000000 0.000000 0.000000 -1.570796
end
