// Created by Crowbar 0.74
version 1
nodes
  0 "root" -1
  1 "g_r_hip_offset" 0
  2 "g_r_hip" 1
  3 "g_r_knee" 2
  4 "g_r_ankle" 3
  5 "g_r_ball" 4
  6 "g_r_thightwist" 2
  7 "g_l_hip_offset" 0
  8 "g_l_hip" 7
  9 "g_l_knee" 8
  10 "g_l_ankle" 9
  11 "g_l_ball" 10
  12 "g_l_thightwist" 8
  13 "g_spine01_offset" 0
  14 "g_spine01" 13
  15 "g_pelvis" 14
  16 "g_spine02_offset" 14
  17 "g_spine02" 16
  18 "g_spine03_offset" 17
  19 "g_spine03" 18
  20 "g_l_clavical" 19
  21 "g_l_shoulder" 20
  22 "g_l_elbow" 21
  23 "g_l_forarm" 22
  24 "g_l_wrist" 22
  25 "g_l_birdy1" 24
  26 "g_l_birdy2" 25
  27 "g_l_birdy3" 26
  28 "g_l_index1" 24
  29 "g_l_index2" 28
  30 "g_l_index3" 29
  31 "g_l_pinky1" 24
  32 "g_l_pinky2" 31
  33 "g_l_pinky3" 32
  34 "g_l_ring1" 24
  35 "g_l_ring2" 34
  36 "g_l_ring3" 35
  37 "g_l_thumb1" 24
  38 "g_l_thumb2" 37
  39 "g_l_thumb3" 38
  40 "g_l_palm" 24
  41 "g_l_biceptwist" 21
  42 "g_neck" 19
  43 "g_head" 42
  44 "g_jaw" 43
  45 "g_l_brow" 43
  46 "g_l_brow2" 45
  47 "g_l_eye" 43
  48 "g_topeyelid" 43
  49 "g_r_brow" 43
  50 "g_r_brow2" 49
  51 "g_r_eye" 43
  52 "g_r_clavical" 19
  53 "g_r_shoulder" 52
  54 "g_r_elbow" 53
  55 "g_r_forarm" 54
  56 "g_r_wrist" 54
  57 "g_r_birdy1" 56
  58 "g_r_birdy2" 57
  59 "g_r_birdy3" 58
  60 "g_r_index1" 56
  61 "g_r_index2" 60
  62 "g_r_index3" 61
  63 "g_r_pinky1" 56
  64 "g_r_pinky2" 63
  65 "g_r_pinky3" 64
  66 "g_r_ring1" 56
  67 "g_r_ring2" 66
  68 "g_r_ring3" 67
  69 "g_r_thumb1" 56
  70 "g_r_thumb2" 69
  71 "g_r_thumb3" 70
  72 "g_r_palm" 56
  73 "g_r_biceptwist" 53
  74 "g_throwable_attach_offset" 0
end
skeleton
  time 0
    0 0.000000 0.000000 -1.500000 0.000000 0.000000 0.000000
    1 -10.521344 -5.760963 66.994621 3.097005 -0.050653 -3.139334
    2 -7.480326 17.321311 11.655004 0.193170 0.539233 0.670866
    3 -0.000034 0.000012 24.761454 -0.719062 -0.083510 0.096630
    4 0.000017 0.000000 24.344809 1.436756 -0.476389 -0.185886
    5 0.002333 -1.019846 24.031336 0.389660 -0.042710 0.017201
    6 0.000034 0.000008 13.404741 -0.000001 -0.000009 -0.006985
    7 10.398263 -5.760962 66.994675 3.097005 0.050653 3.139334
    8 -1.554901 4.107695 12.218418 0.584749 -0.606171 0.575857
    9 -0.000004 -0.000006 24.761459 -1.209378 0.140276 -0.604713
    10 -0.000007 0.000004 24.344891 1.412603 0.163211 0.024348
    11 -0.002360 -1.019903 24.031330 0.389594 -0.042695 -0.017219
    12 0.000000 -0.000002 13.404737 0.000001 0.000005 -0.276205
    13 -0.061540 -5.245835 72.927078 0.000000 0.000000 0.000000
    14 4.356926 10.334128 -11.586560 0.202151 -0.023687 -0.755716
    15 0.000000 -0.005608 -1.146812 -0.056231 0.069293 0.059386
    16 0.030770 -0.240000 8.906021 -0.004138 0.000000 0.000000
    17 0.394567 -2.034362 -0.285563 0.323197 0.016745 0.082668
    18 0.030770 -0.276858 8.905140 0.056125 0.004134 -0.000049
    19 0.608128 -0.362417 0.006637 0.227483 0.237909 0.022003
    20 5.669724 4.435303 14.302868 2.138079 -1.269831 0.974155
    21 -1.044571 -2.839317 19.743267 -0.129414 -0.502317 0.076548
    22 2.655533 -1.533369 24.792658 -0.860428 0.103600 -0.481492
    23 1.120163 -0.154394 9.796035 0.002859 -0.000453 0.025181
    24 2.240311 -0.308786 19.592051 -0.849168 -0.559341 0.131525
    25 0.683151 2.877354 14.167051 -1.511326 -0.211747 1.554295
    26 0.144936 -0.145374 7.579252 -1.768042 -0.243277 0.235266
    27 0.091660 -0.906685 4.702850 -1.587439 -0.182555 0.191118
    28 0.506271 8.500866 13.617253 -1.470438 -0.303305 1.571620
    29 -0.384987 -0.460049 7.003448 -1.747417 -0.440906 0.551347
    30 0.561516 -0.596954 5.061852 -1.494372 -0.380557 0.386326
    31 -2.452171 -8.899406 11.597897 -1.564436 -0.075962 1.475269
    32 0.680496 -0.903999 6.074253 -1.628017 0.173820 -0.014245
    33 0.245514 -0.661150 3.388004 -1.484370 0.109511 -0.099205
    34 -0.717484 -3.784271 13.043911 -1.593546 -0.028646 1.464722
    35 1.099216 -1.407745 8.017889 -1.782086 0.031962 -0.017448
    36 0.068439 -0.807653 3.686054 -1.465865 0.034016 -0.009744
    37 -4.004929 6.172707 4.754754 0.109547 1.126790 2.530940
    38 0.158352 -1.149811 5.804394 -0.869542 -0.330219 0.145630
    39 -1.083523 -1.463142 5.544399 -0.870030 -0.162625 -0.004342
    40 -6.289886 0.932434 13.569063 -0.126803 0.612110 2.869610
    41 1.327774 -0.766687 12.396328 -0.031761 0.012851 -0.278159
    42 -0.096140 1.828087 23.185329 -0.184888 -0.056359 -1.384591
    43 2.325478 -0.000003 6.169296 -0.259669 -0.007473 1.829880
    44 0.000000 -3.152912 0.122169 1.961017 0.000000 0.000000
    45 1.068383 -10.478592 7.066338 0.292219 -1.282324 -3.141588
    46 0.000000 0.000000 2.279457 0.547137 -0.343566 0.107833
    47 2.479414 -8.323895 6.074242 -0.002711 0.175881 1.712301
    48 0.000002 -5.070313 5.929688 0.000000 0.000000 0.000000
    49 -1.068383 -10.478611 7.065971 0.292219 1.282324 3.141588
    50 -0.000488 0.000015 2.279600 0.547136 0.343566 0.107835
    51 -2.479401 -8.323895 6.074234 0.014437 0.177694 1.717103
    52 -5.790000 4.432083 14.255558 -3.626714 1.353678 -0.927013
    53 1.044540 -2.839314 19.743252 -0.283288 0.700650 -0.123316
    54 -2.655510 -1.533379 24.792648 -0.926720 -0.102888 0.156744
    55 -1.120216 -0.154385 9.795983 0.000402 0.000054 -0.003654
    56 -2.240372 -0.308788 19.592047 -0.141589 0.268216 -0.018369
    57 -0.683205 2.877342 14.167089 -1.611258 0.211123 -1.749708
    58 -0.144958 -0.145317 7.579308 -1.541391 0.304896 -0.166506
    59 -0.038551 -0.936644 4.697678 -2.189566 0.238585 -0.365176
    60 -0.506317 8.500896 13.617329 -1.721854 0.271980 -1.936892
    61 0.385056 -0.460075 7.003435 -1.471905 0.596196 -0.385484
    62 -0.456360 -0.710276 5.057732 -1.989932 0.545832 -0.699272
    63 2.452194 -8.899408 11.597939 -1.419551 0.110567 -1.352644
    64 -0.680515 -0.903999 6.074242 -1.453600 -0.173888 -0.003175
    65 -0.248295 -0.666843 3.386627 -1.668601 -0.122155 0.124625
    66 0.717491 -3.784309 13.044010 -1.725758 0.009829 -1.454343
    67 -1.099228 -1.407673 8.017876 -1.350904 -0.015601 0.007733
    68 -0.064053 -0.807640 3.686100 -1.839904 -0.037751 0.018152
    69 4.004906 6.172710 4.754800 -0.708566 -0.933128 -1.530898
    70 -0.158381 -1.149773 5.804405 -0.345801 0.685529 0.599782
    71 1.078559 -2.386406 5.215008 -1.052553 1.087659 -0.156281
    72 6.289963 0.932404 13.569109 -0.126801 -0.612098 -2.869612
    73 -1.327759 -0.766682 12.396324 -0.013264 -0.006630 0.120016
    74 0.000017 -54.999996 0.000000 0.000000 0.000000 -1.570796
  time 1
    0 0.000000 0.000000 -1.500000 0.000000 0.000000 0.000000
    1 -10.521344 -5.760963 66.994621 3.097005 -0.050653 -3.139334
    2 -7.480326 17.321311 11.655004 0.193170 0.539233 0.670866
    3 -0.000034 0.000012 24.761454 -0.719062 -0.083510 0.096630
    4 0.000017 0.000000 24.344809 1.436756 -0.476389 -0.185886
    5 0.002333 -1.019846 24.031336 0.389660 -0.042710 0.017201
    6 0.000034 0.000008 13.404741 -0.000001 -0.000009 -0.006985
    7 10.398263 -5.760962 66.994675 3.097005 0.050653 3.139334
    8 -1.554901 4.107695 12.218418 0.584749 -0.606171 0.575857
    9 -0.000004 -0.000006 24.761459 -1.209378 0.140276 -0.604713
    10 -0.000007 0.000004 24.344891 1.412603 0.163211 0.024348
    11 -0.002360 -1.019903 24.031330 0.389594 -0.042695 -0.017219
    12 0.000000 -0.000002 13.404737 0.000001 0.000005 -0.276205
    13 -0.061540 -5.245835 72.927078 0.000000 0.000000 0.000000
    14 4.356926 10.334128 -11.586560 0.202151 -0.023687 -0.755716
    15 0.000000 -0.005608 -1.146812 -0.056231 0.069293 0.059386
    16 0.030770 -0.240000 8.906021 -0.004138 0.000000 0.000000
    17 0.394567 -2.034362 -0.285563 0.323197 0.016745 0.082668
    18 0.030770 -0.276858 8.905140 0.056125 0.004134 -0.000049
    19 0.608128 -0.362417 0.006637 0.227483 0.237909 0.022003
    20 5.669724 4.435303 14.302868 2.138079 -1.269831 0.974155
    21 -1.044571 -2.839317 19.743267 -0.129414 -0.502317 0.076548
    22 2.655533 -1.533369 24.792658 -0.860428 0.103600 -0.481492
    23 1.120163 -0.154394 9.796035 0.002859 -0.000453 0.025181
    24 2.240311 -0.308786 19.592051 -0.849168 -0.559341 0.131525
    25 0.683151 2.877354 14.167051 -1.511326 -0.211747 1.554295
    26 0.144936 -0.145374 7.579252 -1.768042 -0.243277 0.235266
    27 0.091660 -0.906685 4.702850 -1.587439 -0.182555 0.191118
    28 0.506271 8.500866 13.617253 -1.470438 -0.303305 1.571620
    29 -0.384987 -0.460049 7.003448 -1.747417 -0.440906 0.551347
    30 0.561516 -0.596954 5.061852 -1.494372 -0.380557 0.386326
    31 -2.452171 -8.899406 11.597897 -1.564436 -0.075962 1.475269
    32 0.680496 -0.903999 6.074253 -1.628017 0.173820 -0.014245
    33 0.245514 -0.661150 3.388004 -1.484370 0.109511 -0.099205
    34 -0.717484 -3.784271 13.043911 -1.593546 -0.028646 1.464722
    35 1.099216 -1.407745 8.017889 -1.782086 0.031962 -0.017448
    36 0.068439 -0.807653 3.686054 -1.465865 0.034016 -0.009744
    37 -4.004929 6.172707 4.754754 0.109547 1.126790 2.530940
    38 0.158352 -1.149811 5.804394 -0.869542 -0.330219 0.145630
    39 -1.083523 -1.463142 5.544399 -0.870030 -0.162625 -0.004342
    40 -6.289886 0.932434 13.569063 -0.126803 0.612110 2.869610
    41 1.327774 -0.766687 12.396328 -0.031761 0.012851 -0.278159
    42 -0.096140 1.828087 23.185329 -0.184888 -0.056359 -1.384591
    43 2.325478 -0.000003 6.169296 -0.259669 -0.007473 1.829880
    44 0.000000 -3.152912 0.122169 1.961017 0.000000 0.000000
    45 1.068383 -10.478592 7.066338 0.292219 -1.282324 -3.141588
    46 0.000000 0.000000 2.279457 0.547137 -0.343566 0.107833
    47 2.479414 -8.323895 6.074242 -0.002711 0.175881 1.712301
    48 0.000002 -5.070313 5.929688 0.000000 0.000000 0.000000
    49 -1.068383 -10.478611 7.065971 0.292219 1.282324 3.141588
    50 -0.000488 0.000015 2.279600 0.547136 0.343566 0.107835
    51 -2.479401 -8.323895 6.074234 0.014437 0.177694 1.717103
    52 -5.790000 4.432083 14.255558 -3.626714 1.353678 -0.927013
    53 1.044540 -2.839314 19.743252 -0.283288 0.700650 -0.123316
    54 -2.655510 -1.533379 24.792648 -0.926720 -0.102888 0.156744
    55 -1.120216 -0.154385 9.795983 0.000402 0.000054 -0.003654
    56 -2.240372 -0.308788 19.592047 -0.141589 0.268216 -0.018369
    57 -0.683205 2.877342 14.167089 -1.611258 0.211123 -1.749708
    58 -0.144958 -0.145317 7.579308 -1.541391 0.304896 -0.166506
    59 -0.038551 -0.936644 4.697678 -2.189566 0.238585 -0.365176
    60 -0.506317 8.500896 13.617329 -1.721854 0.271980 -1.936892
    61 0.385056 -0.460075 7.003435 -1.471905 0.596196 -0.385484
    62 -0.456360 -0.710276 5.057732 -1.989932 0.545832 -0.699272
    63 2.452194 -8.899408 11.597939 -1.419551 0.110567 -1.352644
    64 -0.680515 -0.903999 6.074242 -1.453600 -0.173888 -0.003175
    65 -0.248295 -0.666843 3.386627 -1.668601 -0.122155 0.124625
    66 0.717491 -3.784309 13.044010 -1.725758 0.009829 -1.454343
    67 -1.099228 -1.407673 8.017876 -1.350904 -0.015601 0.007733
    68 -0.064053 -0.807640 3.686100 -1.839904 -0.037751 0.018152
    69 4.004906 6.172710 4.754800 -0.708566 -0.933128 -1.530898
    70 -0.158381 -1.149773 5.804405 -0.345801 0.685529 0.599782
    71 1.078559 -2.386406 5.215008 -1.052553 1.087659 -0.156281
    72 6.289963 0.932404 13.569109 -0.126801 -0.612098 -2.869612
    73 -1.327759 -0.766682 12.396324 -0.013264 -0.006630 0.120016
    74 0.000017 -54.999996 0.000000 0.000000 0.000000 -1.570796
  time 2
    0 0.000000 0.000000 -1.500000 0.000000 0.000000 0.000000
    1 -10.521344 -5.760963 66.994621 3.097005 -0.050653 -3.139334
    2 -6.999842 21.028963 11.408334 0.369024 0.469896 0.798354
    3 -0.000034 0.000012 24.761454 -0.851260 -0.098802 0.024478
    4 0.000017 0.000000 24.344809 1.439776 -0.402644 -0.177590
    5 0.002333 -1.019846 24.031336 0.389660 -0.042710 0.017201
    6 0.000034 0.000008 13.404741 -0.000001 -0.000009 -0.047484
    7 10.398263 -5.760962 66.994675 3.097005 0.050653 3.139334
    8 -0.183766 6.742952 11.476572 0.534587 -0.660895 0.618848
    9 -0.000004 -0.000006 24.761459 -1.092288 0.126734 -0.652121
    10 -0.000007 0.000004 24.344891 1.299916 0.197430 0.046250
    11 -0.002360 -1.019903 24.031330 0.389594 -0.042695 -0.017219
    12 0.000000 -0.000002 13.404737 0.000001 0.000005 -0.289924
    13 -0.061540 -5.245835 72.927078 0.000000 0.000000 0.000000
    14 3.622528 13.862774 -10.955689 0.125341 -0.020436 -0.920442
    15 0.000000 -0.005608 -1.146812 -0.045066 0.057011 0.162598
    16 0.030770 -0.240000 8.906021 -0.004138 0.000000 0.000000
    17 0.183623 -1.284340 -0.113683 0.194598 0.020036 -0.017884
    18 0.030770 -0.276858 8.905140 0.056125 0.004134 -0.000049
    19 0.475312 -0.381948 -0.008988 0.196063 0.187920 0.002000
    20 5.669724 4.435303 14.302868 2.171576 -1.291994 1.244214
    21 -1.044571 -2.839317 19.743267 -0.138317 -0.691901 0.079424
    22 2.655533 -1.533369 24.792658 -0.792252 0.098259 -0.320072
    23 1.120163 -0.154394 9.796035 0.002284 -0.000369 0.020214
    24 2.240311 -0.308786 19.592051 -0.643413 -0.457995 0.103554
    25 0.683151 2.877354 14.167051 -1.511326 -0.211747 1.554295
    26 0.144936 -0.145374 7.579252 -1.768042 -0.243277 0.235266
    27 0.091660 -0.906685 4.702850 -1.587439 -0.182555 0.191106
    28 0.506271 8.500866 13.617253 -1.470438 -0.303305 1.571620
    29 -0.384987 -0.460049 7.003448 -1.747417 -0.440906 0.551335
    30 0.561516 -0.596954 5.061852 -1.494372 -0.380557 0.386326
    31 -2.452171 -8.899406 11.597897 -1.564436 -0.075962 1.475296
    32 0.680496 -0.903999 6.074253 -1.628017 0.173820 -0.014245
    33 0.245514 -0.661150 3.388004 -1.484370 0.109511 -0.099205
    34 -0.717484 -3.784271 13.043911 -1.593546 -0.028646 1.464722
    35 1.099216 -1.407745 8.017889 -1.782086 0.031950 -0.017448
    36 0.068439 -0.807653 3.686054 -1.465865 0.034016 -0.009744
    37 -4.004929 6.172707 4.754754 0.109547 1.126790 2.530940
    38 0.158352 -1.149811 5.804394 -0.869542 -0.330219 0.145630
    39 -1.083523 -1.463142 5.544399 -1.033941 -0.185096 0.042909
    40 -6.289886 0.932434 13.569063 -0.126803 0.612110 2.869610
    41 1.327774 -0.766687 12.396328 -0.020771 0.009543 -0.185109
    42 -0.096140 1.828087 23.185329 -0.240584 -0.049030 -1.275694
    43 2.325478 -0.000003 6.169296 -0.186945 0.053354 1.916171
    44 0.000000 -3.152912 0.122169 1.961017 0.000000 0.000000
    45 1.068383 -10.478592 7.066338 0.292219 -1.282324 -3.141588
    46 0.000000 0.000000 2.279457 0.547137 -0.343566 0.107833
    47 2.479414 -8.323895 6.074242 0.002183 0.070925 1.829107
    48 0.000002 -5.070313 5.929688 0.000000 0.000000 0.000000
    49 -1.068383 -10.478611 7.065971 0.292219 1.282324 3.141588
    50 -0.000488 0.000015 2.279600 0.547136 0.343566 0.107835
    51 -2.479401 -8.323895 6.074234 0.018695 0.070434 1.832263
    52 -5.790000 4.432083 14.255558 -4.375267 1.260719 -1.515319
    53 1.044540 -2.839314 19.743252 -0.100457 0.424942 -0.074274
    54 -2.655510 -1.533379 24.792648 -1.094153 -0.101348 -0.143602
    55 -1.120216 -0.154385 9.795983 -0.024801 -0.000725 0.215693
    56 -2.240372 -0.308788 19.592047 -0.138000 0.179852 0.416990
    57 -0.683205 2.877342 14.167089 -1.625464 0.215819 -1.661296
    58 -0.144958 -0.145317 7.579308 -1.541391 0.304896 -0.166506
    59 -0.038551 -0.936644 4.697678 -2.189615 0.238585 -0.365176
    60 -0.506317 8.500896 13.617329 -1.750666 0.259346 -1.812887
    61 0.385056 -0.460075 7.003435 -1.471905 0.596196 -0.385484
    62 -0.456360 -0.710276 5.057732 -1.989932 0.545832 -0.699272
    63 2.452194 -8.899408 11.597939 -1.419591 0.110567 -1.352644
    64 -0.680515 -0.903999 6.074242 -1.453600 -0.173888 -0.003175
    65 -0.248295 -0.666843 3.386627 -1.668601 -0.122155 0.124625
    66 0.717491 -3.784309 13.044010 -1.725758 0.009829 -1.454343
    67 -1.099228 -1.407673 8.017876 -1.350904 -0.015601 0.007733
    68 -0.064053 -0.807640 3.686100 -1.839904 -0.037751 0.018152
    69 4.004906 6.172710 4.754800 -0.685301 -0.914467 -1.603429
    70 -0.158381 -1.149773 5.804405 -0.345801 0.685529 0.599782
    71 1.078559 -2.386406 5.215008 -1.052553 1.087659 -0.156281
    72 6.289963 0.932404 13.569109 -0.126801 -0.612098 -2.869612
    73 -1.327759 -0.766682 12.396324 0.000182 0.000081 -0.001614
    74 0.000017 -54.999996 0.000000 0.000000 0.000000 -1.570796
  time 3
    0 0.000000 0.000000 -1.500000 0.000000 0.000000 0.000000
    1 -10.521344 -5.760963 66.994621 3.097005 -0.050653 -3.139334
    2 -6.909996 23.140605 9.502248 0.362875 0.407963 0.845495
    3 -0.000034 0.000012 24.761454 -0.737355 -0.085619 -0.006101
    4 0.000017 0.000000 24.344809 1.335839 -0.373016 -0.141118
    5 0.002333 -1.019846 24.031336 0.389585 -0.042710 0.017201
    6 0.000034 0.000008 13.404741 -0.000001 -0.000009 -0.050838
    7 10.398263 -5.760962 66.994675 3.097005 0.050653 3.139334
    8 0.234216 8.304124 9.340956 0.439125 -0.622303 0.663572
    9 -0.000004 -0.000006 24.761459 -0.876808 0.101794 -0.662671
    10 -0.000007 0.000004 24.344891 1.167481 0.212540 0.045136
    11 -0.002360 -1.019903 24.031330 0.389594 -0.042695 -0.017219
    12 0.000000 -0.000002 13.404737 0.000001 0.000005 -0.292715
    13 -0.061540 -5.245835 72.927078 0.000000 0.000000 0.000000
    14 3.583465 15.865833 -8.882828 0.059700 -0.016943 -1.058205
    15 0.000000 -0.005608 -1.146812 -0.032052 0.040181 0.267630
    16 0.030770 -0.240000 8.906021 -0.004138 0.000000 0.000000
    17 0.101589 -0.464002 -0.012117 0.059096 0.020366 -0.131416
    18 0.030770 -0.276858 8.905140 0.056125 0.004134 -0.000049
    19 0.338589 -0.378042 -0.012895 0.155707 0.135340 -0.018362
    20 5.669724 4.435303 14.302868 2.164015 -1.291430 1.553086
    21 -1.044571 -2.839317 19.743267 -0.039596 -0.797000 0.043468
    22 2.655533 -1.533369 24.792658 -0.731627 0.088537 -0.113606
    23 1.120163 -0.154394 9.796035 0.001445 -0.000213 0.012729
    24 2.240311 -0.308786 19.592051 -0.430347 -0.325845 0.068383
    25 0.683151 2.877354 14.167051 -1.511326 -0.211759 1.554295
    26 0.144936 -0.145374 7.579252 -1.768042 -0.243277 0.235266
    27 0.091660 -0.906685 4.702850 -1.587439 -0.182555 0.191106
    28 0.506271 8.500866 13.617253 -1.470438 -0.303305 1.571620
    29 -0.384987 -0.460049 7.003448 -1.747417 -0.440906 0.551335
    30 0.561516 -0.596954 5.061852 -1.494372 -0.380557 0.386326
    31 -2.452171 -8.899406 11.597897 -1.564436 -0.075962 1.475269
    32 0.680496 -0.903999 6.074253 -1.628017 0.173820 -0.014245
    33 0.245514 -0.661150 3.388004 -1.484370 0.109511 -0.099205
    34 -0.717484 -3.784271 13.043911 -1.593546 -0.028646 1.464722
    35 1.099216 -1.407745 8.017889 -1.782086 0.031950 -0.017448
    36 0.068439 -0.807653 3.686054 -1.465865 0.034016 -0.009744
    37 -4.004929 6.172707 4.754754 0.109547 1.126790 2.530940
    38 0.158352 -1.149811 5.804394 -0.869542 -0.330219 0.145630
    39 -1.083523 -1.463142 5.544399 -1.210409 -0.208406 0.097949
    40 -6.289886 0.932434 13.569063 -0.126803 0.612110 2.869610
    41 1.327774 -0.766687 12.396328 -0.006833 0.003658 -0.062582
    42 -0.096140 1.828087 23.185329 -0.294037 -0.032810 -1.175846
    43 2.325478 -0.000003 6.169296 -0.104767 0.105327 2.000786
    44 0.000000 -3.152912 0.122169 1.961017 0.000000 0.000000
    45 1.068383 -10.478592 7.066338 0.292219 -1.282324 -3.141588
    46 0.000000 0.000000 2.279457 0.547137 -0.343566 0.107833
    47 2.479414 -8.323895 6.074242 0.006206 0.038194 1.927193
    48 0.000002 -5.070313 5.929688 0.000000 0.000000 0.000000
    49 -1.068383 -10.478611 7.065971 0.292219 1.282324 3.141588
    50 -0.000488 0.000015 2.279600 0.547136 0.343566 0.107835
    51 -2.479401 -8.323895 6.074234 0.022210 0.034098 1.929219
    52 -5.790000 4.432083 14.255558 -4.964121 1.145205 -1.938823
    53 1.044540 -2.839314 19.743252 -0.184999 0.432658 -0.084180
    54 -2.655510 -1.533379 24.792648 -0.675193 -0.079540 -0.008423
    55 -1.120216 -0.154385 9.795983 -0.049753 0.004045 0.436073
    56 -2.240372 -0.308788 19.592047 -0.231320 0.126734 0.837399
    57 -0.683205 2.877342 14.167089 -1.638877 0.220315 -1.572718
    58 -0.144958 -0.145317 7.579308 -1.541391 0.304896 -0.166506
    59 -0.038551 -0.936644 4.697678 -2.189566 0.238585 -0.365176
    60 -0.506317 8.500896 13.617329 -1.783625 0.248346 -1.690139
    61 0.385056 -0.460075 7.003435 -1.471905 0.596196 -0.385484
    62 -0.456360 -0.710276 5.057732 -1.989932 0.545832 -0.699289
    63 2.452194 -8.899408 11.597939 -1.419551 0.110567 -1.352620
    64 -0.680515 -0.903999 6.074242 -1.453600 -0.173888 -0.003175
    65 -0.248295 -0.666843 3.386627 -1.668601 -0.122155 0.124625
    66 0.717491 -3.784309 13.044010 -1.725758 0.009829 -1.454343
    67 -1.099228 -1.407673 8.017876 -1.350904 -0.015601 0.007733
    68 -0.064053 -0.807640 3.686100 -1.839904 -0.037751 0.018152
    69 4.004906 6.172710 4.754800 -0.665876 -0.890560 -1.674487
    70 -0.158381 -1.149773 5.804405 -0.345801 0.685529 0.599782
    71 1.078559 -2.386406 5.215008 -1.052553 1.087659 -0.156281
    72 6.289963 0.932404 13.569109 -0.126801 -0.612098 -2.869612
    73 -1.327759 -0.766682 12.396324 -0.004587 -0.002519 0.042245
    74 0.000017 -54.999996 0.000000 0.000000 0.000000 -1.570796
  time 4
    0 0.000000 0.000000 -1.500000 0.000000 0.000000 0.000000
    1 -10.521344 -5.760963 66.994621 3.097005 -0.050653 -3.139334
    2 -6.921715 23.030112 7.730709 0.243385 0.393072 0.822601
    3 -0.000034 0.000012 24.761454 -0.516254 -0.060008 0.007865
    4 0.000017 0.000000 24.344809 1.217662 -0.387140 -0.105446
    5 0.002333 -1.019846 24.031336 0.389585 -0.042710 0.017201
    6 0.000034 0.000008 13.404741 -0.000001 -0.000009 -0.029386
    7 10.398263 -5.760962 66.994675 3.097005 0.050653 3.139334
    8 -0.078294 8.304124 7.407661 0.359104 -0.542155 0.682303
    9 -0.000004 -0.000006 24.761459 -0.687287 0.079838 -0.643795
    10 -0.000007 0.000004 24.344891 1.079449 0.211229 0.032356
    11 -0.002360 -1.019903 24.031330 0.389594 -0.042695 -0.017219
    12 0.000000 -0.000002 13.404737 0.000001 0.000005 -0.289795
    13 -0.061540 -5.245835 72.927078 0.000000 0.000000 0.000000
    14 3.810034 15.842542 -7.012747 0.023823 -0.015343 -1.105347
    15 0.000000 -0.005608 -1.146812 -0.015529 0.020795 0.323557
    16 0.030770 -0.240000 8.906021 -0.004138 0.000000 0.000000
    17 0.156278 0.039920 -0.000398 -0.020934 0.022125 -0.200141
    18 0.030770 -0.276858 8.905140 0.056125 0.004134 -0.000049
    19 0.252648 -0.260851 -0.001176 0.090509 0.100986 -0.032755
    20 5.669724 4.435303 14.302868 2.186698 -1.281282 1.750694
    21 -1.044571 -2.839317 19.743267 0.028110 -0.769238 0.019272
    22 2.655533 -1.533369 24.792658 -0.726159 0.085232 -0.048180
    23 1.120163 -0.154394 9.796035 0.000354 -0.000057 0.003209
    24 2.240311 -0.308786 19.592051 -0.310541 -0.203457 0.038711
    25 0.683151 2.877354 14.167051 -1.511326 -0.211747 1.554295
    26 0.144936 -0.145374 7.579252 -1.768042 -0.243277 0.235266
    27 0.091660 -0.906685 4.702850 -1.587439 -0.182555 0.191106
    28 0.506271 8.500866 13.617253 -1.470438 -0.303305 1.571620
    29 -0.384987 -0.460049 7.003448 -1.747417 -0.440906 0.551347
    30 0.561516 -0.596954 5.061852 -1.494372 -0.380557 0.386326
    31 -2.452171 -8.899406 11.597897 -1.564385 -0.075962 1.475269
    32 0.680496 -0.903999 6.074253 -1.627978 0.173856 -0.014557
    33 0.245514 -0.661150 3.388004 -1.484370 0.109499 -0.099205
    34 -0.717484 -3.784271 13.043911 -1.593546 -0.028634 1.464722
    35 1.099216 -1.407745 8.017889 -1.782086 0.031962 -0.017448
    36 0.068439 -0.807653 3.686054 -1.465865 0.034016 -0.009744
    37 -4.004929 6.172707 4.754754 0.109547 1.126790 2.530940
    38 0.158352 -1.149811 5.804394 -0.869542 -0.330219 0.145630
    39 -1.083523 -1.463142 5.544399 -1.321375 -0.219588 0.133500
    40 -6.289886 0.932434 13.569063 -0.126803 0.612110 2.869610
    41 1.327774 -0.766687 12.396328 -0.002926 0.001645 -0.027080
    42 -0.096140 1.828087 23.185329 -0.324907 -0.018088 -1.130691
    43 2.325478 -0.000003 6.169296 -0.058975 0.136536 2.038544
    44 0.000000 -3.152912 0.122169 1.961017 0.000000 0.000000
    45 1.068383 -10.478592 7.066338 0.292219 -1.282324 -3.141588
    46 0.000000 0.000000 2.279457 0.547137 -0.343566 0.107833
    47 2.479414 -8.323895 6.074242 0.007946 0.059890 1.968835
    48 0.000002 -5.070313 5.929688 0.000000 0.000000 0.000000
    49 -1.068383 -10.478611 7.065971 0.292219 1.282324 3.141588
    50 -0.000488 0.000015 2.279600 0.547136 0.343566 0.107835
    51 -2.479401 -8.323895 6.074234 0.023676 0.051581 1.971087
    52 -5.790000 4.432083 14.255558 -5.369599 1.077707 -2.311544
    53 1.044540 -2.839314 19.743252 -0.489273 0.371818 -0.096318
    54 -2.655510 -1.533379 24.792648 -0.382348 -0.081365 0.247393
    55 -1.120216 -0.154385 9.795983 -0.060899 0.008095 0.538660
    56 -2.240372 -0.308788 19.592047 -0.329910 0.115447 1.022643
    57 -0.683205 2.877342 14.167089 -1.644669 0.222246 -1.532398
    58 -0.144958 -0.145317 7.579308 -1.541391 0.304896 -0.166506
    59 -0.038551 -0.936644 4.697678 -2.189566 0.238585 -0.365176
    60 -0.506317 8.500896 13.617329 -1.799917 0.244117 -1.634831
    61 0.385056 -0.460075 7.003435 -1.471905 0.596213 -0.385484
    62 -0.456360 -0.710276 5.057732 -1.989932 0.545854 -0.699289
    63 2.452194 -8.899408 11.597939 -1.419551 0.110567 -1.352644
    64 -0.680515 -0.903999 6.074242 -1.453600 -0.173888 -0.003175
    65 -0.248295 -0.666843 3.386627 -1.668601 -0.122155 0.124625
    66 0.717491 -3.784309 13.044010 -1.725758 0.009829 -1.454343
    67 -1.099228 -1.407673 8.017876 -1.350904 -0.015601 0.007733
    68 -0.064053 -0.807640 3.686100 -1.839904 -0.037751 0.018152
    69 4.004906 6.172710 4.754800 -0.661208 -0.872317 -1.710425
    70 -0.158381 -1.149773 5.804405 -0.345801 0.685529 0.599782
    71 1.078559 -2.386406 5.215008 -1.052553 1.087659 -0.156281
    72 6.289963 0.932404 13.569109 -0.126801 -0.612098 -2.869612
    73 -1.327759 -0.766682 12.396324 -0.016224 -0.007865 0.145971
    74 0.000017 -54.999996 0.000000 0.000000 0.000000 -1.570796
  time 5
    0 0.000000 0.000000 -1.500000 0.000000 0.000000 0.000000
    1 -10.521344 -5.760963 66.994621 3.097005 -0.050653 -3.139334
    2 -6.507640 10.519858 9.883465 -0.152592 0.549170 0.332619
    3 -0.000034 0.000012 24.761454 -0.560035 -0.065090 0.324163
    4 0.000017 0.000000 24.344809 1.344285 -0.481233 -0.147471
    5 0.002333 -1.019846 24.031336 0.398321 -0.042866 0.016830
    6 0.000034 0.000008 13.404741 -0.000001 -0.000009 0.105928
    7 10.398263 -5.760962 66.994675 3.097005 0.050653 3.139334
    8 -3.437771 1.484927 8.846392 0.542009 -0.354351 0.406946
    9 -0.000004 -0.000006 24.761459 -1.008582 0.117050 -0.351848
    10 -0.000007 0.000004 24.344891 1.376009 0.119215 -0.001673
    11 -0.002360 -1.019903 24.031330 0.389594 -0.042695 -0.017219
    12 0.000000 -0.000002 13.404737 0.000001 0.000005 -0.165573
    13 -0.061540 -5.245835 72.927078 0.000000 0.000000 0.000000
    14 4.364738 5.419645 -9.175732 0.197382 -0.027352 -0.529254
    15 0.000000 -0.005608 -1.146812 0.009191 -0.011062 0.082295
    16 0.030770 -0.240000 8.906021 -0.004138 0.000000 0.000000
    17 0.089870 -1.065583 -0.101964 0.180119 -0.004892 0.027280
    18 0.030770 -0.276858 8.905140 0.056125 0.004134 -0.000049
    19 0.467499 0.254790 -0.012895 -0.057297 0.174323 -0.030706
    20 5.669724 4.435303 14.302868 1.823016 -1.354887 1.806278
    21 -1.044571 -2.839317 19.743267 0.067197 -0.625158 0.022684
    22 2.655533 -1.533369 24.792658 -1.292137 0.116550 0.205758
    23 1.120163 -0.154394 9.796035 -0.001971 0.000230 -0.017004
    24 2.240311 -0.308786 19.592051 -0.463595 -0.142538 0.021066
    25 0.683151 2.877354 14.167051 -1.437379 -0.209842 1.519352
    26 0.144936 -0.145374 7.579252 -1.785188 -0.242917 0.238478
    27 0.091660 -0.906685 4.702850 -1.587439 -0.182555 0.191106
    28 0.506271 8.500866 13.617253 -1.370146 -0.290255 1.533252
    29 -0.384987 -0.460049 7.003448 -1.791168 -0.435656 0.566831
    30 0.561516 -0.596954 5.061852 -1.494372 -0.380557 0.386326
    31 -2.452171 -8.899406 11.597897 -1.549703 -0.077874 1.476746
    32 0.680496 -0.903999 6.074253 -1.706257 0.179908 -0.020310
    33 0.245514 -0.661150 3.388004 -1.484423 0.109499 -0.099205
    34 -0.717484 -3.784271 13.043911 -1.540632 -0.036544 1.468179
    35 1.099216 -1.407745 8.017889 -1.859777 0.033256 -0.020312
    36 0.068439 -0.807653 3.686054 -1.465865 0.034016 -0.009744
    37 -4.004929 6.172707 4.754754 0.148190 1.125575 2.527400
    38 0.158352 -1.149811 5.804394 -0.869542 -0.330219 0.145630
    39 -1.083523 -1.463142 5.544399 -1.060257 -0.185552 0.049303
    40 -6.289886 0.932434 13.569063 -0.126803 0.612110 2.869610
    41 1.327774 -0.766687 12.396328 0.006386 -0.003952 0.060748
    42 -0.096140 1.828087 23.185329 -0.237280 -0.053492 -1.286639
    43 2.325478 -0.000003 6.169296 -0.159250 0.018383 1.570328
    44 0.000000 -3.152912 0.122169 1.961017 0.000000 0.000000
    45 1.068383 -10.478592 7.066338 0.292219 -1.282324 -3.141588
    46 0.000000 0.000000 2.279457 0.547137 -0.343566 0.107833
    47 2.479414 -8.323895 6.074242 -0.005538 0.013118 1.643249
    48 0.000002 -5.070313 5.929688 0.000000 0.000000 0.000000
    49 -1.068383 -10.478611 7.065971 0.292219 1.282324 3.141588
    50 -0.000488 0.000015 2.279600 0.547136 0.343566 0.107835
    51 -2.479401 -8.323895 6.074234 0.011646 0.004330 1.649080
    52 -5.790000 4.432083 14.255558 0.169250 1.174903 2.787937
    53 1.044540 -2.839314 19.743252 0.364552 0.460640 0.018258
    54 -2.655510 -1.533379 24.792648 -1.648791 -0.178203 0.524717
    55 -1.120216 -0.154385 9.795983 -0.042646 0.002079 0.372144
    56 -2.240372 -0.308788 19.592047 -0.318531 -0.037519 0.712814
    57 -0.683205 2.877342 14.167089 -1.641204 0.187484 -1.561471
    58 -0.144958 -0.145317 7.579308 -1.541391 0.304896 -0.166506
    59 -0.038551 -0.936644 4.697678 -2.189566 0.238585 -0.365176
    60 -0.506317 8.500896 13.617329 -1.622144 0.285964 -1.582219
    61 0.385056 -0.460075 7.003435 -1.471905 0.596196 -0.385484
    62 -0.456360 -0.710276 5.057732 -1.989932 0.545854 -0.699289
    63 2.452194 -8.899408 11.597939 -1.419551 0.110567 -1.352644
    64 -0.680515 -0.903999 6.074242 -1.453600 -0.173888 -0.003175
    65 -0.248295 -0.666843 3.386627 -1.668601 -0.122155 0.124625
    66 0.717491 -3.784309 13.044010 -1.725758 0.009829 -1.454343
    67 -1.099228 -1.407673 8.017876 -1.350904 -0.015601 0.007733
    68 -0.064053 -0.807640 3.686100 -1.839904 -0.037751 0.018152
    69 4.004906 6.172710 4.754800 -0.686957 -0.909159 -1.608751
    70 -0.158381 -1.149773 5.804405 -0.345801 0.685529 0.599782
    71 1.078559 -2.386406 5.215008 -1.052553 1.087659 -0.156281
    72 6.289963 0.932404 13.569109 -0.126801 -0.612098 -2.869612
    73 -1.327759 -0.766682 12.396324 -0.037653 -0.014168 0.327005
    74 0.000017 -54.999996 0.000000 0.000000 0.000000 -1.570796
  time 6
    0 0.000000 0.000000 -1.500000 0.000000 0.000000 0.000000
    1 -10.521344 -5.760963 66.994621 3.097005 -0.050653 -3.139334
    2 -6.738116 -0.774974 11.744702 -0.502523 0.494391 -0.065265
    3 -0.000034 0.000012 24.761454 -0.629101 -0.073071 0.605322
    4 0.000017 0.000000 24.344809 1.391198 -0.421409 -0.140578
    5 0.002333 -1.019846 24.031336 0.429383 -0.043357 0.015451
    6 0.000034 0.000008 13.404741 -0.000001 -0.000009 0.227088
    7 10.398263 -5.760962 66.994675 3.097005 0.050653 3.139334
    8 -4.937817 -5.596546 9.925441 0.501060 -0.171449 0.248431
    9 -0.000004 -0.000006 24.761459 -1.133206 0.131455 -0.134764
    10 -0.000007 0.000004 24.344891 1.600026 0.070664 -0.036185
    11 -0.002360 -1.019903 24.031330 0.389594 -0.042695 -0.017219
    12 0.000000 -0.000002 13.404737 0.000001 0.000005 -0.071258
    13 -0.061540 -5.245835 72.927078 0.000000 0.000000 0.000000
    14 4.919443 -5.003251 -11.293656 0.371262 -0.047120 0.038972
    15 0.000000 -0.005608 -1.146812 0.054709 -0.155207 -0.236498
    16 0.030770 -0.240000 8.906021 -0.004138 0.000000 0.000000
    17 0.457068 -2.049988 -0.351972 0.322460 -0.166530 0.610071
    18 0.030770 -0.276858 8.905140 0.056125 0.004134 -0.000049
    19 0.381559 0.336823 0.018356 -0.040318 0.113143 0.057753
    20 5.669724 4.435303 14.302868 2.088217 -1.307497 1.021784
    21 -1.044571 -2.839317 19.743267 -0.595088 -0.511188 0.139803
    22 2.655533 -1.533369 24.792658 -0.855568 0.066710 0.337983
    23 1.120163 -0.154394 9.796035 -0.009845 0.000913 -0.085611
    24 2.240311 -0.308786 19.592051 -0.402800 -0.042021 -0.113249
    25 0.683151 2.877354 14.167051 -1.363541 -0.206941 1.484484
    26 0.144936 -0.145374 7.579252 -1.802287 -0.242498 0.241654
    27 0.091660 -0.906685 4.702850 -1.587485 -0.182555 0.191106
    28 0.506271 8.500866 13.617253 -1.270903 -0.273601 1.496580
    29 -0.384987 -0.460049 7.003448 -1.834527 -0.429808 0.582255
    30 0.561516 -0.596954 5.061852 -1.494407 -0.380557 0.386326
    31 -2.452171 -8.899406 11.597897 -1.534970 -0.079786 1.478169
    32 0.680496 -0.903999 6.074253 -1.784457 0.185505 -0.026721
    33 0.245514 -0.661150 3.388004 -1.484370 0.109487 -0.099205
    34 -0.717484 -3.784271 13.043911 -1.487718 -0.044609 1.471191
    35 1.099216 -1.407745 8.017889 -1.937274 0.034371 -0.023188
    36 0.068439 -0.807653 3.686054 -1.465865 0.034016 -0.009744
    37 -4.004929 6.172707 4.754754 0.186743 1.124431 2.523573
    38 0.158352 -1.149811 5.804394 -0.869542 -0.330219 0.145630
    39 -1.083523 -1.463142 5.544399 -0.797779 -0.152798 -0.023927
    40 -6.289886 0.932434 13.569063 -0.126803 0.612110 2.869610
    41 1.327774 -0.766687 12.396328 0.011995 -0.007883 0.116136
    42 -0.096140 1.828087 23.185329 0.102528 -0.198070 -2.057816
    43 2.325478 -0.000003 6.169296 -0.253032 -0.009484 1.403174
    44 0.000000 -3.152912 0.122169 1.961017 0.000000 0.000000
    45 1.068383 -10.478592 7.066338 0.292219 -1.282324 -3.141588
    46 0.000000 0.000000 2.279457 0.547137 -0.343566 0.107833
    47 2.479414 -8.323895 6.074242 -0.011193 0.038194 1.502470
    48 0.000002 -5.070313 5.929688 0.000000 0.000000 0.000000
    49 -1.068383 -10.478611 7.065971 0.292219 1.282324 3.141588
    50 -0.000488 0.000015 2.279600 0.547136 0.343566 0.107835
    51 -2.479401 -8.323895 6.074234 0.005962 0.040997 1.508531
    52 -5.790000 4.432083 14.255558 -5.886847 0.931497 -2.104008
    53 1.044540 -2.839314 19.743252 -0.104965 0.207487 -0.084915
    54 -2.655510 -1.533379 24.792648 -0.255377 -0.077352 0.164166
    55 -1.120216 -0.154385 9.795983 -0.005266 -0.000605 0.045858
    56 -2.240372 -0.308788 19.592047 0.118898 -0.197317 0.106989
    57 -0.683205 2.877342 14.167089 -1.635561 0.152702 -1.590159
    58 -0.144958 -0.145317 7.579308 -1.541391 0.304896 -0.166506
    59 -0.038551 -0.936644 4.697678 -2.189566 0.238585 -0.365176
    60 -0.506317 8.500896 13.617329 -1.440375 0.315617 -1.530010
    61 0.385056 -0.460075 7.003435 -1.471905 0.596196 -0.385484
    62 -0.456360 -0.710276 5.057732 -1.989932 0.545854 -0.699289
    63 2.452194 -8.899408 11.597939 -1.419551 0.110567 -1.352644
    64 -0.680515 -0.903999 6.074242 -1.453600 -0.173888 -0.003175
    65 -0.248295 -0.666843 3.386627 -1.668601 -0.122155 0.124625
    66 0.717491 -3.784309 13.044010 -1.725758 0.009829 -1.454343
    67 -1.099228 -1.407673 8.017876 -1.350904 -0.015601 0.007733
    68 -0.064053 -0.807640 3.686100 -1.839904 -0.037751 0.018152
    69 4.004906 6.172710 4.754800 -0.720161 -0.940295 -1.497252
    70 -0.158381 -1.149773 5.804405 -0.345801 0.685529 0.599782
    71 1.078559 -2.386406 5.215008 -1.052553 1.087659 -0.156281
    72 6.289963 0.932404 13.569109 -0.126801 -0.612098 -2.869612
    73 -1.327759 -0.766682 12.396324 -0.013672 -0.006810 0.123440
    74 0.000017 -54.999996 0.000000 0.000000 0.000000 -1.570796
  time 7
    0 0.000000 0.000000 -1.500000 0.000000 0.000000 0.000000
    1 -10.521344 -5.760963 66.994621 3.097005 -0.050653 -3.139334
    2 -7.050625 -3.868776 12.551985 -0.585257 0.463466 -0.156620
    3 -0.000034 0.000012 24.761454 -0.650890 -0.075600 0.681994
    4 0.000017 0.000000 24.344809 1.391568 -0.403256 -0.137769
    5 0.002333 -1.019846 24.031336 0.467240 -0.043908 0.013773
    6 0.000034 0.000008 13.404741 -0.000001 -0.000009 0.257505
    7 10.398263 -5.760962 66.994675 3.097005 0.050653 3.139334
    8 -5.117510 -8.643953 10.127762 0.429741 -0.146245 0.257838
    9 -0.000004 -0.000006 24.761459 -1.132986 0.131443 -0.130278
    10 -0.000007 0.000004 24.344891 1.672826 0.058976 -0.043710
    11 -0.002360 -1.019903 24.031330 0.389594 -0.042695 -0.017219
    12 0.000000 -0.000002 13.404737 0.000001 0.000005 -0.083023
    13 -0.061540 -5.245835 72.927078 0.000000 0.000000 0.000000
    14 4.919443 -8.636708 -12.217431 0.424421 -0.070725 0.082150
    15 0.000000 -0.005608 -1.146812 0.122746 -0.192114 -0.264706
    16 0.030770 -0.240000 8.906021 -0.004138 0.000000 0.000000
    17 0.640668 -2.155460 -0.394942 0.345272 -0.172101 0.659988
    18 0.030770 -0.276858 8.905140 0.056125 0.004134 -0.000049
    19 0.377652 0.297760 0.026169 -0.017942 0.110387 0.064919
    20 5.669724 4.435303 14.302868 2.038450 -1.302247 1.079380
    21 -1.044571 -2.839317 19.743267 -0.519555 -0.535297 0.138703
    22 2.655533 -1.533369 24.792658 -0.786567 0.064443 0.309759
    23 1.120163 -0.154394 9.796035 -0.018270 0.001033 -0.158633
    24 2.240311 -0.308786 19.592051 -0.306450 -0.008777 -0.274111
    25 0.683151 2.877354 14.167051 -1.363541 -0.206941 1.484484
    26 0.144936 -0.145374 7.579252 -1.802287 -0.242498 0.241654
    27 0.091660 -0.906685 4.702850 -1.587439 -0.182555 0.191106
    28 0.506271 8.500866 13.617253 -1.270903 -0.273601 1.496580
    29 -0.384987 -0.460049 7.003448 -1.834670 -0.429796 0.582291
    30 0.561516 -0.596954 5.061852 -1.494372 -0.380557 0.386326
    31 -2.452171 -8.899406 11.597897 -1.534970 -0.079786 1.478169
    32 0.680496 -0.903999 6.074253 -1.784615 0.185517 -0.026829
    33 0.245514 -0.661150 3.388004 -1.484423 0.109511 -0.099205
    34 -0.717484 -3.784271 13.043911 -1.487718 -0.044609 1.471191
    35 1.099216 -1.407745 8.017889 -1.937430 0.034359 -0.023272
    36 0.068439 -0.807653 3.686054 -1.465865 0.034016 -0.009744
    37 -4.004929 6.172707 4.754754 0.186743 1.124431 2.523573
    38 0.158352 -1.149811 5.804394 -0.869542 -0.330219 0.145630
    39 -1.083523 -1.463142 5.544399 -0.797779 -0.152798 -0.023927
    40 -6.289886 0.932434 13.569063 -0.126803 0.612110 2.869610
    41 1.327774 -0.766687 12.396328 0.010736 -0.006972 0.103582
    42 -0.096140 1.828087 23.185329 0.102528 -0.198102 -2.057816
    43 2.325478 -0.000003 6.169296 -0.253032 -0.009484 1.403174
    44 0.000000 -3.152912 0.122169 1.961017 0.000000 0.000000
    45 1.068383 -10.478592 7.066338 0.292219 -1.282324 -3.141588
    46 0.000000 0.000000 2.279457 0.547137 -0.343566 0.107833
    47 2.479414 -8.323895 6.074242 -0.015543 0.082008 1.393400
    48 0.000002 -5.070313 5.929688 0.000000 0.000000 0.000000
    49 -1.068383 -10.478611 7.065971 0.292219 1.282324 3.141588
    50 -0.000488 0.000015 2.279600 0.547136 0.343566 0.107835
    51 -2.479401 -8.323895 6.074234 0.001443 0.085223 1.398928
    52 -5.790000 4.432083 14.255558 -5.898541 0.931331 -2.102954
    53 1.044540 -2.839314 19.743252 0.001616 0.192054 -0.085813
    54 -2.655510 -1.533379 24.792648 -0.315315 -0.078465 0.185976
    55 -1.120216 -0.154385 9.795983 -0.005266 -0.000605 0.045858
    56 -2.240372 -0.308788 19.592047 0.118898 -0.197317 0.106989
    57 -0.683205 2.877342 14.167089 -1.635561 0.152702 -1.590146
    58 -0.144958 -0.145317 7.579308 -1.541391 0.304896 -0.166506
    59 -0.038551 -0.936644 4.697678 -2.189566 0.238585 -0.365176
    60 -0.506317 8.500896 13.617329 -1.440375 0.315617 -1.530010
    61 0.385056 -0.460075 7.003435 -1.471905 0.596196 -0.385484
    62 -0.456360 -0.710276 5.057732 -1.989932 0.545854 -0.699272
    63 2.452194 -8.899408 11.597939 -1.419551 0.110567 -1.352644
    64 -0.680515 -0.903999 6.074242 -1.453600 -0.173888 -0.003175
    65 -0.248295 -0.666843 3.386627 -1.668601 -0.122155 0.124625
    66 0.717491 -3.784309 13.044010 -1.725758 0.009829 -1.454343
    67 -1.099228 -1.407673 8.017876 -1.350904 -0.015601 0.007733
    68 -0.064053 -0.807640 3.686100 -1.839904 -0.037751 0.018152
    69 4.004906 6.172710 4.754800 -0.720161 -0.940295 -1.497252
    70 -0.158381 -1.149773 5.804405 -0.345801 0.685529 0.599782
    71 1.078559 -2.386406 5.215008 -1.052553 1.087659 -0.156281
    72 6.289963 0.932404 13.569109 -0.126801 -0.612098 -2.869612
    73 -1.327759 -0.766682 12.396324 -0.016153 -0.007841 0.145323
    74 0.000017 -54.999996 0.000000 0.000000 0.000000 -1.570796
  time 8
    0 0.000000 0.000000 -1.500000 0.000000 0.000000 0.000000
    1 -10.521344 -5.760963 66.994621 3.097005 -0.050653 -3.139334
    2 -7.222505 -5.710324 12.843504 -0.637453 0.426529 -0.216781
    3 -0.000034 0.000012 24.761454 -0.648898 -0.075372 0.746369
    4 0.000017 0.000000 24.344809 1.378499 -0.388362 -0.131352
    5 0.002333 -1.019846 24.031336 0.491171 -0.044220 0.012719
    6 0.000034 0.000008 13.404741 -0.000001 -0.000009 0.291887
    7 10.398263 -5.760962 66.994675 3.097005 0.050653 3.139334
    8 -5.230795 -10.492380 10.127762 0.379152 -0.129344 0.261056
    9 -0.000004 -0.000006 24.761459 -1.115497 0.129406 -0.125397
    10 -0.000007 0.000004 24.344891 1.707161 0.051999 -0.046863
    11 -0.002360 -1.019903 24.031330 0.389594 -0.042695 -0.017219
    12 0.000000 -0.000002 13.404737 0.000001 0.000005 -0.089507
    13 -0.061540 -5.245835 72.927078 0.000000 0.000000 0.000000
    14 4.915536 -10.895972 -12.690584 0.453673 -0.094003 0.113378
    15 0.000000 -0.005608 -1.146812 0.189922 -0.206889 -0.291555
    16 0.030770 -0.240000 8.906021 -0.004138 0.000000 0.000000
    17 0.750046 -2.202336 -0.422286 0.357730 -0.172708 0.684947
    18 0.030770 -0.276858 8.905140 0.056125 0.004134 -0.000049
    19 0.369840 0.239164 0.037888 0.007831 0.106355 0.069677
    20 5.669724 4.435303 14.302868 1.875941 -1.310597 1.262327
    21 -1.044571 -2.839317 19.743267 -0.312719 -0.632568 0.121670
    22 2.655533 -1.533369 24.792658 -0.752631 0.065711 0.268272
    23 1.120163 -0.154394 9.796035 -0.025245 0.000686 -0.219134
    24 2.240311 -0.308786 19.592051 -0.228813 0.036348 -0.414044
    25 0.683151 2.877354 14.167051 -1.363541 -0.206929 1.484484
    26 0.144936 -0.145374 7.579252 -1.802287 -0.242498 0.241654
    27 0.091660 -0.906685 4.702850 -1.587439 -0.182555 0.191106
    28 0.506271 8.500866 13.617253 -1.270903 -0.273601 1.496580
    29 -0.384987 -0.460049 7.003448 -1.834670 -0.429796 0.582291
    30 0.561516 -0.596954 5.061852 -1.494372 -0.380557 0.386326
    31 -2.452171 -8.899406 11.597897 -1.534970 -0.079786 1.478169
    32 0.680496 -0.903999 6.074253 -1.784655 0.185517 -0.026685
    33 0.245514 -0.661150 3.388004 -1.484370 0.109511 -0.099205
    34 -0.717484 -3.784271 13.043911 -1.487718 -0.044609 1.471191
    35 1.099216 -1.407745 8.017889 -1.937468 0.034383 -0.023128
    36 0.068439 -0.807653 3.686054 -1.465865 0.034016 -0.009744
    37 -4.004929 6.172707 4.754754 0.186743 1.124431 2.523573
    38 0.158352 -1.149811 5.804394 -0.869542 -0.330219 0.145630
    39 -1.083523 -1.463142 5.544399 -0.797779 -0.152810 -0.023927
    40 -6.289886 0.932434 13.569063 -0.126803 0.612110 2.869610
    41 1.327774 -0.766687 12.396328 0.009550 -0.006097 0.091681
    42 -0.096140 1.828087 23.185329 0.102528 -0.198070 -2.057816
    43 2.325478 -0.000003 6.169296 -0.253032 -0.009484 1.403174
    44 0.000000 -3.152912 0.122169 1.961017 0.000000 0.000000
    45 1.068383 -10.478592 7.066338 0.292219 -1.282324 -3.141588
    46 0.000000 0.000000 2.279457 0.547137 -0.343566 0.107833
    47 2.479414 -8.323895 6.074242 -0.018316 0.072428 1.319477
    48 0.000002 -5.070313 5.929688 0.000000 0.000000 0.000000
    49 -1.068383 -10.478611 7.065971 0.292219 1.282324 3.141588
    50 -0.000488 0.000015 2.279600 0.547136 0.343566 0.107835
    51 -2.479401 -8.323895 6.074234 -0.001670 0.075159 1.324199
    52 -5.790000 4.432083 14.255558 -5.857610 0.931954 -2.106883
    53 1.044540 -2.839314 19.743252 0.038962 0.197990 -0.084316
    54 -2.655510 -1.533379 24.792648 -0.432926 -0.080756 0.204000
    55 -1.120216 -0.154385 9.795983 -0.005266 -0.000605 0.045858
    56 -2.240372 -0.308788 19.592047 0.118898 -0.197317 0.106989
    57 -0.683205 2.877342 14.167089 -1.635561 0.152702 -1.590146
    58 -0.144958 -0.145317 7.579308 -1.541391 0.304896 -0.166506
    59 -0.038551 -0.936644 4.697678 -2.189566 0.238585 -0.365176
    60 -0.506317 8.500896 13.617329 -1.440375 0.315617 -1.530010
    61 0.385056 -0.460075 7.003435 -1.471905 0.596213 -0.385484
    62 -0.456360 -0.710276 5.057732 -1.989932 0.545854 -0.699289
    63 2.452194 -8.899408 11.597939 -1.419551 0.110567 -1.352620
    64 -0.680515 -0.903999 6.074242 -1.453600 -0.173888 -0.003175
    65 -0.248295 -0.666843 3.386627 -1.668601 -0.122155 0.124625
    66 0.717491 -3.784309 13.044010 -1.725758 0.009829 -1.454343
    67 -1.099228 -1.407673 8.017876 -1.350904 -0.015601 0.007733
    68 -0.064053 -0.807640 3.686100 -1.839904 -0.037751 0.018152
    69 4.004906 6.172710 4.754800 -0.720161 -0.940295 -1.497252
    70 -0.158381 -1.149773 5.804405 -0.345801 0.685529 0.599782
    71 1.078559 -2.386406 5.215008 -1.052506 1.087659 -0.156281
    72 6.289963 0.932404 13.569109 -0.126801 -0.612098 -2.869612
    73 -1.327759 -0.766682 12.396324 -0.017914 -0.008524 0.160498
    74 0.000017 -54.999996 0.000000 0.000000 0.000000 -1.570796
  time 9
    0 0.000000 0.000000 -1.500000 0.000000 0.000000 0.000000
    1 -10.521344 -5.760963 66.994621 3.097005 -0.050653 -3.139334
    2 -7.191254 -6.545160 13.090174 -0.661570 0.406989 -0.237709
    3 -0.000034 0.000012 24.761454 -0.643370 -0.074737 0.769945
    4 0.000017 0.000000 24.344809 1.377451 -0.385759 -0.129278
    5 0.002333 -1.019846 24.031336 0.499235 -0.044340 0.012335
    6 0.000034 0.000008 13.404741 -0.000001 -0.000009 0.307412
    7 10.398263 -5.760962 66.994675 3.097005 0.050653 3.139334
    8 -5.230795 -11.129338 10.420004 0.372071 -0.121224 0.250494
    9 -0.000004 -0.000006 24.761459 -1.130181 0.131120 -0.112550
    10 -0.000007 0.000004 24.344891 1.730718 0.050266 -0.049133
    11 -0.002360 -1.019903 24.031330 0.389594 -0.042695 -0.017219
    12 0.000000 -0.000002 13.404737 0.000001 0.000005 -0.082229
    13 -0.061540 -5.245835 72.927078 0.000000 0.000000 0.000000
    14 4.919443 -11.769399 -13.073613 0.457097 -0.104842 0.142264
    15 0.000000 -0.005608 -1.146812 0.214706 -0.205054 -0.311937
    16 0.030770 -0.240000 8.906021 -0.004138 0.000000 0.000000
    17 0.789110 -2.190617 -0.422286 0.358508 -0.166049 0.684468
    18 0.030770 -0.276858 8.905140 0.056125 0.004134 -0.000049
    19 0.342495 0.180569 0.037888 0.030278 0.097242 0.072170
    20 5.669724 4.435303 14.302868 1.689602 -1.333500 1.472011
    21 -1.044571 -2.839317 19.743267 -0.147417 -0.698424 0.082357
    22 2.655533 -1.533369 24.792658 -0.691095 0.065365 0.228483
    23 1.120163 -0.154394 9.796035 -0.028852 0.000314 -0.250592
    24 2.240311 -0.308786 19.592051 -0.191344 0.062732 -0.487749
    25 0.683151 2.877354 14.167051 -1.363541 -0.206929 1.484484
    26 0.144936 -0.145374 7.579252 -1.802287 -0.242498 0.241642
    27 0.091660 -0.906685 4.702850 -1.587439 -0.182555 0.191106
    28 0.506271 8.500866 13.617253 -1.270903 -0.273601 1.496580
    29 -0.384987 -0.460049 7.003448 -1.834670 -0.429796 0.582291
    30 0.561516 -0.596954 5.061852 -1.494372 -0.380557 0.386314
    31 -2.452171 -8.899406 11.597897 -1.534970 -0.079786 1.478169
    32 0.680496 -0.903999 6.074253 -1.784695 0.185529 -0.026649
    33 0.245514 -0.661150 3.388004 -1.484370 0.109511 -0.099205
    34 -0.717484 -3.784271 13.043911 -1.487718 -0.044609 1.471191
    35 1.099216 -1.407745 8.017889 -1.937585 0.034383 -0.023068
    36 0.068439 -0.807653 3.686054 -1.465865 0.034016 -0.009744
    37 -4.004929 6.172707 4.754754 0.186653 1.124431 2.523573
    38 0.158352 -1.149811 5.804394 -0.869542 -0.330219 0.145630
    39 -1.083523 -1.463142 5.544399 -0.797779 -0.152810 -0.023927
    40 -6.289886 0.932434 13.569063 -0.126803 0.612110 2.869610
    41 1.327774 -0.766687 12.396328 0.009442 -0.006025 0.090576
    42 -0.096140 1.828087 23.185329 0.102528 -0.198102 -2.057816
    43 2.325478 -0.000003 6.169296 -0.253032 -0.009484 1.403174
    44 0.000000 -3.152912 0.122169 1.961017 0.000000 0.000000
    45 1.068383 -10.478592 7.066338 0.292219 -1.282324 -3.141588
    46 0.000000 0.000000 2.279457 0.547137 -0.343566 0.107833
    47 2.479414 -8.323895 6.074242 -0.019621 0.069235 1.284712
    48 0.000002 -5.070313 5.929688 0.000000 0.000000 0.000000
    49 -1.068383 -10.478611 7.065971 0.292219 1.282324 3.141588
    50 -0.000488 0.000015 2.279600 0.547136 0.343566 0.107835
    51 -2.479401 -8.323895 6.074234 -0.003136 0.071001 1.288942
    52 -5.790000 4.432083 14.255558 -5.798083 0.933034 -2.112440
    53 1.044540 -2.839314 19.743252 0.042691 0.216857 -0.081704
    54 -2.655510 -1.533379 24.792648 -0.519787 -0.083565 0.221039
    55 -1.120216 -0.154385 9.795983 -0.005266 -0.000605 0.045858
    56 -2.240372 -0.308788 19.592047 0.118898 -0.197317 0.106989
    57 -0.683205 2.877342 14.167089 -1.635561 0.152702 -1.590159
    58 -0.144958 -0.145317 7.579308 -1.541391 0.304896 -0.166506
    59 -0.038551 -0.936644 4.697678 -2.189566 0.238585 -0.365176
    60 -0.506317 8.500896 13.617329 -1.440375 0.315617 -1.530010
    61 0.385056 -0.460075 7.003435 -1.471905 0.596196 -0.385484
    62 -0.456360 -0.710276 5.057732 -1.989932 0.545832 -0.699289
    63 2.452194 -8.899408 11.597939 -1.419551 0.110567 -1.352644
    64 -0.680515 -0.903999 6.074242 -1.453600 -0.173888 -0.003175
    65 -0.248295 -0.666843 3.386627 -1.668601 -0.122155 0.124625
    66 0.717491 -3.784309 13.044010 -1.725758 0.009829 -1.454343
    67 -1.099228 -1.407673 8.017876 -1.350904 -0.015601 0.007733
    68 -0.064053 -0.807640 3.686100 -1.839904 -0.037751 0.018152
    69 4.004906 6.172710 4.754800 -0.720161 -0.940295 -1.497252
    70 -0.158381 -1.149773 5.804405 -0.345801 0.685529 0.599782
    71 1.078559 -2.386406 5.215008 -1.052553 1.087659 -0.156281
    72 6.289963 0.932404 13.569109 -0.126801 -0.612098 -2.869612
    73 -1.327759 -0.766682 12.396324 -0.018981 -0.008907 0.169658
    74 0.000017 -54.999996 0.000000 0.000000 0.000000 -1.570796
  time 10
    0 0.000000 0.000000 -1.500000 0.000000 0.000000 0.000000
    1 -10.521344 -5.760963 66.994621 3.097005 -0.050653 -3.139334
    2 -7.062344 -4.924597 13.695637 -0.613610 0.451358 -0.246622
    3 -0.000034 0.000012 24.761454 -0.754225 -0.087585 0.739976
    4 0.000017 0.000000 24.344809 1.448345 -0.389629 -0.139023
    5 0.002333 -1.019846 24.031336 0.492851 -0.044244 0.012635
    6 0.000034 0.000008 13.404741 -0.000001 -0.000009 0.288449
    7 10.398263 -5.760962 66.994675 3.097005 0.050653 3.139334
    8 -5.183918 -8.931208 11.341691 0.467192 -0.131283 0.223016
    9 -0.000004 -0.000006 24.761459 -1.219717 0.141487 -0.096723
    10 -0.000007 0.000004 24.344891 1.727039 0.057199 -0.051991
    11 -0.002360 -1.019903 24.031330 0.389594 -0.042695 -0.017219
    12 0.000000 -0.000002 13.404737 0.000001 0.000005 -0.064774
    13 -0.061540 -5.245835 72.927078 0.000000 0.000000 0.000000
    14 4.997570 -9.661529 -13.659421 0.430918 -0.105599 0.174272
    15 0.000000 -0.005608 -1.146812 0.193622 -0.185887 -0.325334
    16 0.030770 -0.240000 8.906021 -0.004138 0.000000 0.000000
    17 0.753953 -2.018737 -0.363691 0.333613 -0.139462 0.663502
    18 0.030770 -0.276858 8.905140 0.056125 0.004134 -0.000049
    19 0.272180 0.102441 0.041795 0.052297 0.076074 0.073692
    20 5.669724 4.435303 14.302868 1.480868 -1.371412 1.708336
    21 -1.044571 -2.839317 19.743267 -0.087147 -0.699311 0.063604
    22 2.655533 -1.533369 24.792658 -0.576528 0.065634 0.152544
    23 1.120163 -0.154394 9.796035 -0.029344 0.000266 -0.254800
    24 2.240311 -0.308786 19.592051 -0.173153 0.061028 -0.499143
    25 0.683151 2.877354 14.167051 -1.367326 -0.207109 1.486245
    26 0.144936 -0.145374 7.579252 -1.801451 -0.242521 0.241498
    27 0.091660 -0.906685 4.702850 -1.587439 -0.182555 0.191106
    28 0.506271 8.500866 13.617253 -1.275906 -0.274524 1.498398
    29 -0.384987 -0.460049 7.003448 -1.832464 -0.430108 0.581536
    30 0.561516 -0.596954 5.061852 -1.494407 -0.380557 0.386326
    31 -2.452171 -8.899406 11.597897 -1.535679 -0.079707 1.478088
    32 0.680496 -0.903999 6.074253 -1.780650 0.185241 -0.026506
    33 0.245514 -0.661150 3.388004 -1.484423 0.109499 -0.099205
    34 -0.717484 -3.784271 13.043911 -1.490319 -0.044190 1.471053
    35 1.099216 -1.407745 8.017889 -1.933510 0.034311 -0.023128
    36 0.068439 -0.807653 3.686054 -1.465865 0.034016 -0.009744
    37 -4.004929 6.172707 4.754754 0.184761 1.124483 2.523764
    38 0.158352 -1.149811 5.804394 -0.873356 -0.331658 0.146181
    39 -1.083523 -1.463142 5.544399 -0.820380 -0.156118 -0.025985
    40 -6.289886 0.932434 13.569063 -0.126803 0.612110 2.869610
    41 1.327774 -0.766687 12.396328 0.006757 -0.004204 0.064363
    42 -0.096140 1.828087 23.185329 0.091793 -0.197975 -2.058275
    43 2.325478 -0.000003 6.169296 -0.233980 -0.012161 1.404691
    44 0.000000 -3.152912 0.122169 1.961017 0.000000 0.000000
    45 1.068383 -10.478592 7.066338 0.292219 -1.282324 -3.141588
    46 0.000000 0.000000 2.279457 0.547137 -0.343566 0.107833
    47 2.479414 -8.323895 6.074242 -0.019757 0.082759 1.281274
    48 0.000002 -5.070313 5.929688 0.000000 0.000000 0.000000
    49 -1.068383 -10.478611 7.065971 0.292219 1.282324 3.141588
    50 -0.000488 0.000015 2.279600 0.547136 0.343566 0.107835
    51 -2.479401 -8.323895 6.074234 -0.003317 0.083522 1.285301
    52 -5.790000 4.432083 14.255558 -5.693981 1.038662 -2.029272
    53 1.044540 -2.839314 19.743252 0.029612 0.294486 -0.072287
    54 -2.655510 -1.533379 24.792648 -0.556726 -0.085454 0.243531
    55 -1.120216 -0.154385 9.795983 -0.005949 -0.000665 0.051870
    56 -2.240372 -0.308788 19.592047 0.107749 -0.191822 0.118158
    57 -0.683205 2.877342 14.167089 -1.634522 0.154175 -1.595148
    58 -0.144958 -0.145317 7.579308 -1.541391 0.304896 -0.166506
    59 -0.038551 -0.936644 4.697678 -2.189566 0.238585 -0.365176
    60 -0.506317 8.500896 13.617329 -1.447841 0.314942 -1.541108
    61 0.385056 -0.460075 7.003435 -1.471905 0.596196 -0.385484
    62 -0.456360 -0.710276 5.057732 -1.989932 0.545832 -0.699272
    63 2.452194 -8.899408 11.597939 -1.419551 0.110567 -1.352644
    64 -0.680515 -0.903999 6.074242 -1.453600 -0.173888 -0.003175
    65 -0.248295 -0.666843 3.386627 -1.668601 -0.122155 0.124625
    66 0.717491 -3.784309 13.044010 -1.725758 0.009829 -1.454343
    67 -1.099228 -1.407673 8.017876 -1.350904 -0.015601 0.007733
    68 -0.064053 -0.807640 3.686100 -1.839904 -0.037751 0.018152
    69 4.004906 6.172710 4.754800 -0.720161 -0.940295 -1.497252
    70 -0.158381 -1.149773 5.804405 -0.345801 0.685529 0.599782
    71 1.078559 -2.386406 5.215008 -1.052553 1.087659 -0.156281
    72 6.289963 0.932404 13.569109 -0.126801 -0.612098 -2.869612
    73 -1.327759 -0.766682 12.396324 -0.019125 -0.008955 0.171000
    74 0.000017 -54.999996 0.000000 0.000000 0.000000 -1.570796
  time 11
    0 0.000000 0.000000 -1.500000 0.000000 0.000000 0.000000
    1 -10.521344 -5.760963 66.994621 3.097005 -0.050653 -3.139334
    2 -6.968591 -0.824082 14.435647 -0.496374 0.523980 -0.232947
    3 -0.000034 0.000012 24.761454 -0.915244 -0.106221 0.677230
    4 0.000017 0.000000 24.344809 1.549076 -0.406243 -0.144575
    5 0.002333 -1.019846 24.031336 0.477059 -0.044040 0.013342
    6 0.000034 0.000008 13.404741 -0.000001 -0.000009 0.252632
    7 10.398263 -5.760962 66.994675 3.097005 0.050653 3.139334
    8 -5.195637 -4.072843 12.465700 0.638409 -0.147561 0.179695
    9 -0.000004 -0.000006 24.761459 -1.316842 0.152704 -0.078815
    10 -0.000007 0.000004 24.344891 1.655659 0.070686 -0.050898
    11 -0.002360 -1.019903 24.031330 0.389594 -0.042695 -0.017219
    12 0.000000 -0.000002 13.404737 0.000001 0.000005 -0.042360
    13 -0.061540 -5.245835 72.927078 0.000000 0.000000 0.000000
    14 5.169450 -4.758692 -14.110043 0.378751 -0.106304 0.207902
    15 0.000000 -0.005608 -1.146812 0.155696 -0.148901 -0.336286
    16 0.030770 -0.240000 8.906021 -0.004138 0.000000 0.000000
    17 0.695357 -1.632006 -0.254312 0.275995 -0.090820 0.629439
    18 0.030770 -0.276858 8.905140 0.056125 0.004134 -0.000049
    19 0.162802 -0.014750 0.026169 0.081000 0.041781 0.074351
    20 5.669724 4.435303 14.302868 1.155852 -1.404779 2.071545
    21 -1.044571 -2.839317 19.743267 -0.032062 -0.691066 0.046429
    22 2.655533 -1.533369 24.792658 -0.436400 0.066787 0.069327
    23 1.120163 -0.154394 9.796035 -0.028577 0.000350 -0.248281
    24 2.240311 -0.308786 19.592051 -0.148870 0.049287 -0.488105
    25 0.683151 2.877354 14.167051 -1.377091 -0.207553 1.490878
    26 0.144936 -0.145374 7.579252 -1.799174 -0.242581 0.241079
    27 0.091660 -0.906685 4.702850 -1.587439 -0.182555 0.191106
    28 0.506271 8.500866 13.617253 -1.289060 -0.276941 1.503174
    29 -0.384987 -0.460049 7.003448 -1.826702 -0.430911 0.579523
    30 0.561516 -0.596954 5.061852 -1.494372 -0.380557 0.386326
    31 -2.452171 -8.899406 11.597897 -1.537704 -0.079468 1.477873
    32 0.680496 -0.903999 6.074253 -1.770221 0.184522 -0.025607
    33 0.245514 -0.661150 3.388004 -1.484370 0.109499 -0.099205
    34 -0.717484 -3.784271 13.043911 -1.497375 -0.043111 1.470684
    35 1.099216 -1.407745 8.017889 -1.923188 0.034167 -0.022733
    36 0.068439 -0.807653 3.686054 -1.465865 0.034016 -0.009744
    37 -4.004929 6.172707 4.754754 0.179627 1.124642 2.524338
    38 0.158352 -1.149811 5.804394 -0.883527 -0.335430 0.147655
    39 -1.083523 -1.463142 5.544399 -0.879133 -0.164866 -0.030971
    40 -6.289886 0.932434 13.569063 -0.126803 0.612110 2.869610
    41 1.327774 -0.766687 12.396328 0.003665 -0.002190 0.034686
    42 -0.096140 1.828087 23.185329 0.064073 -0.197815 -2.059345
    43 2.325478 -0.000003 6.169296 -0.184844 -0.019352 1.407884
    44 0.000000 -3.152912 0.122169 1.961017 0.000000 0.000000
    45 1.068383 -10.478592 7.066338 0.292219 -1.282324 -3.141588
    46 0.000000 0.000000 2.279457 0.547137 -0.343566 0.107833
    47 2.479414 -8.323895 6.074242 -0.019077 0.082102 1.300185
    48 0.000002 -5.070313 5.929688 0.000000 0.000000 0.000000
    49 -1.068383 -10.478611 7.065971 0.292219 1.282324 3.141588
    50 -0.000488 0.000015 2.279600 0.547136 0.343566 0.107835
    51 -2.479401 -8.323895 6.074234 -0.002513 0.081349 1.304271
    52 -5.790000 4.432083 14.255558 -5.383306 1.242193 -1.721035
    53 1.044540 -2.839314 19.743252 -0.052704 0.412265 -0.068967
    54 -2.655510 -1.533379 24.792648 -0.581285 -0.086335 0.243607
    55 -1.120216 -0.154385 9.795983 -0.007735 -0.000809 0.067349
    56 -2.240372 -0.308788 19.592047 0.079799 -0.176476 0.147286
    57 -0.683205 2.877342 14.167089 -1.631750 0.157975 -1.608293
    58 -0.144958 -0.145317 7.579308 -1.541391 0.304896 -0.166506
    59 -0.038551 -0.936644 4.697678 -2.189566 0.238585 -0.365176
    60 -0.506317 8.500896 13.617329 -1.467150 0.313126 -1.570088
    61 0.385056 -0.460075 7.003435 -1.471905 0.596196 -0.385484
    62 -0.456360 -0.710276 5.057732 -1.989932 0.545832 -0.699272
    63 2.452194 -8.899408 11.597939 -1.419551 0.110567 -1.352644
    64 -0.680515 -0.903999 6.074242 -1.453600 -0.173888 -0.003175
    65 -0.248295 -0.666843 3.386627 -1.668601 -0.122155 0.124625
    66 0.717491 -3.784309 13.044010 -1.725758 0.009829 -1.454343
    67 -1.099228 -1.407673 8.017876 -1.350904 -0.015601 0.007733
    68 -0.064053 -0.807640 3.686100 -1.839904 -0.037751 0.018152
    69 4.004906 6.172710 4.754800 -0.720161 -0.940295 -1.497252
    70 -0.158381 -1.149773 5.804405 -0.345801 0.685529 0.599782
    71 1.078559 -2.386406 5.215008 -1.052553 1.087659 -0.156281
    72 6.289963 0.932404 13.569109 -0.126801 -0.612098 -2.869612
    73 -1.327759 -0.766682 12.396324 -0.017615 -0.008404 0.157907
    74 0.000017 -54.999996 0.000000 0.000000 0.000000 -1.570796
  time 12
    0 0.000000 0.000000 -1.500000 0.000000 0.000000 0.000000
    1 -10.521344 -5.760963 66.994621 3.097005 -0.050653 -3.139334
    2 -6.913902 3.251879 14.615043 -0.383579 0.551509 -0.174446
    3 -0.000034 0.000012 24.761454 -0.956749 -0.111015 0.597341
    4 0.000017 0.000000 24.344809 1.602031 -0.451581 -0.133880
    5 0.002333 -1.019846 24.031336 0.455667 -0.043753 0.014301
    6 0.000034 0.000008 13.404741 -0.000001 -0.000009 0.217976
    7 10.398263 -5.760962 66.994675 3.097005 0.050653 3.139334
    8 -5.258139 0.798012 13.207546 0.783777 -0.145367 0.130185
    9 -0.000004 -0.000006 24.761459 -1.344836 0.155952 -0.049280
    10 -0.000007 0.000004 24.344891 1.543102 0.081796 -0.044656
    11 -0.002360 -1.019903 24.031330 0.389594 -0.042695 -0.017219
    12 0.000000 -0.000002 13.404737 0.000001 0.000005 -0.011938
    13 -0.061540 -5.245835 72.927078 0.000000 0.000000 0.000000
    14 5.411645 0.260603 -14.110043 0.310102 -0.106201 0.241712
    15 0.000000 -0.005608 -1.146812 0.108519 -0.100795 -0.348759
    16 0.030770 -0.240000 8.906021 -0.004138 0.000000 0.000000
    17 0.613323 -1.108553 -0.133215 0.195797 -0.034227 0.585033
    18 0.030770 -0.276858 8.905140 0.056125 0.004134 -0.000049
    19 0.022173 -0.171005 0.018356 0.115923 -0.000123 0.072362
    20 5.669724 4.435303 14.302868 0.699144 -1.412707 2.572371
    21 -1.044571 -2.839317 19.743267 0.017886 -0.681412 0.031285
    22 2.655533 -1.533369 24.792658 -0.296273 0.069861 -0.013971
    23 1.120163 -0.154394 9.796035 -0.027258 0.000494 -0.236622
    24 2.240311 -0.308786 19.592051 -0.124934 0.029948 -0.466029
    25 0.683151 2.877354 14.167051 -1.390915 -0.208140 1.497385
    26 0.144936 -0.145374 7.579252 -1.795968 -0.242641 0.240467
    27 0.091660 -0.906685 4.702850 -1.587439 -0.182555 0.191106
    28 0.506271 8.500866 13.617253 -1.307587 -0.280170 1.509954
    29 -0.384987 -0.460049 7.003448 -1.818557 -0.432037 0.576646
    30 0.561516 -0.596954 5.061852 -1.494372 -0.380557 0.386326
    31 -2.452171 -8.899406 11.597897 -1.540438 -0.079069 1.477659
    32 0.680496 -0.903999 6.074253 -1.755548 0.183479 -0.024360
    33 0.245514 -0.661150 3.388004 -1.484370 0.109499 -0.099205
    34 -0.717484 -3.784271 13.043911 -1.507296 -0.041601 1.470131
    35 1.099216 -1.407745 8.017889 -1.908635 0.033963 -0.022182
    36 0.068439 -0.807653 3.686054 -1.465865 0.034016 -0.009744
    37 -4.004929 6.172707 4.754754 0.172421 1.124871 2.524912
    38 0.158352 -1.149811 5.804394 -0.897893 -0.340728 0.149764
    39 -1.083523 -1.463142 5.544399 -0.960121 -0.177330 -0.036937
    40 -6.289886 0.932434 13.569063 -0.126803 0.612110 2.869610
    41 1.327774 -0.766687 12.396328 0.000406 -0.000249 0.004004
    42 -0.096140 1.828087 23.185329 0.026115 -0.197720 -2.060201
    43 2.325478 -0.000003 6.169296 -0.117612 -0.029654 1.410478
    44 0.000000 -3.152912 0.122169 1.961017 0.000000 0.000000
    45 1.068383 -10.478592 7.066338 0.292219 -1.282324 -3.141588
    46 0.000000 0.000000 2.279457 0.547137 -0.343566 0.107833
    47 2.479414 -8.323895 6.074242 -0.017582 0.067967 1.339820
    48 0.000002 -5.070313 5.929688 0.000000 0.000000 0.000000
    49 -1.068383 -10.478611 7.065971 0.292219 1.282324 3.141588
    50 -0.000488 0.000015 2.279600 0.547136 0.343566 0.107835
    51 -2.479401 -8.323895 6.074234 -0.000867 0.066087 1.344127
    52 -5.790000 4.432083 14.255558 -4.717575 1.351767 -1.101780
    53 1.044540 -2.839314 19.743252 -0.173033 0.489131 -0.083554
    54 -2.655510 -1.533379 24.792648 -0.593464 -0.085506 0.203242
    55 -1.120216 -0.154385 9.795983 -0.010180 -0.000953 0.088514
    56 -2.240372 -0.308788 19.592047 0.043142 -0.153357 0.186723
    57 -0.683205 2.877342 14.167089 -1.628087 0.163348 -1.626850
    58 -0.144958 -0.145317 7.579308 -1.541391 0.304896 -0.166506
    59 -0.038551 -0.936644 4.697678 -2.189566 0.238585 -0.365176
    60 -0.506317 8.500896 13.617329 -1.494227 0.310376 -1.610884
    61 0.385056 -0.460075 7.003435 -1.471905 0.596196 -0.385484
    62 -0.456360 -0.710276 5.057732 -1.989932 0.545832 -0.699289
    63 2.452194 -8.899408 11.597939 -1.419591 0.110544 -1.352620
    64 -0.680515 -0.903999 6.074242 -1.453600 -0.173888 -0.003175
    65 -0.248295 -0.666843 3.386627 -1.668601 -0.122155 0.124625
    66 0.717491 -3.784309 13.044010 -1.725758 0.009829 -1.454343
    67 -1.099228 -1.407673 8.017876 -1.350904 -0.015601 0.007733
    68 -0.064053 -0.807640 3.686100 -1.839904 -0.037751 0.018152
    69 4.004906 6.172710 4.754800 -0.720236 -0.940295 -1.497252
    70 -0.158381 -1.149773 5.804405 -0.345801 0.685529 0.599782
    71 1.078559 -2.386406 5.215008 -1.052506 1.087659 -0.156281
    72 6.289963 0.932404 13.569109 -0.126801 -0.612098 -2.869612
    73 -1.327759 -0.766682 12.396324 -0.014822 -0.007289 0.133664
    74 0.000017 -54.999996 0.000000 0.000000 0.000000 -1.570796
  time 13
    0 0.000000 0.000000 -1.500000 0.000000 0.000000 0.000000
    1 -10.521344 -5.760963 66.994621 3.097005 -0.050653 -3.139334
    2 -6.902183 7.340117 14.076854 -0.284380 0.542963 -0.099125
    3 -0.000034 0.000012 24.761454 -0.912480 -0.105897 0.521727
    4 0.000017 0.000000 24.344809 1.603881 -0.501830 -0.104193
    5 0.002333 -1.019846 24.031336 0.432482 -0.043393 0.015319
    6 0.000034 0.000008 13.404741 -0.000001 -0.000009 0.193740
    7 10.398263 -5.760962 66.994675 3.097005 0.050653 3.139334
    8 -5.387050 5.469036 13.319947 0.882481 -0.131100 0.086286
    9 -0.000004 -0.000006 24.761459 -1.294239 0.150103 -0.016442
    10 -0.000007 0.000004 24.344891 1.398210 0.089551 -0.034357
    11 -0.002360 -1.019903 24.031330 0.389594 -0.042695 -0.017219
    12 0.000000 -0.000002 13.404737 0.000001 0.000005 0.018527
    13 -0.061540 -5.245835 72.927078 0.000000 0.000000 0.000000
    14 5.688998 5.233314 -13.524235 0.234347 -0.104584 0.274261
    15 0.000000 -0.005608 -1.146812 0.058855 -0.048910 -0.365064
    16 0.030770 -0.240000 8.906021 -0.004138 0.000000 0.000000
    17 0.531289 -0.538223 -0.047275 0.105203 0.018302 0.534876
    18 0.030770 -0.276858 8.905140 0.056125 0.004134 -0.000049
    19 -0.118457 -0.346791 0.006637 0.154706 -0.043117 0.066825
    20 5.669724 4.435303 14.302868 0.288184 -1.382335 3.029210
    21 -1.044571 -2.839317 19.743267 0.061327 -0.674628 0.018144
    22 2.655533 -1.533369 24.792658 -0.182140 0.074165 -0.091123
    23 1.120163 -0.154394 9.796035 -0.025952 0.000626 -0.225343
    24 2.240311 -0.308786 19.592051 -0.107309 0.007017 -0.444151
    25 0.683151 2.877354 14.167051 -1.406659 -0.208763 1.504828
    26 0.144936 -0.145374 7.579252 -1.792297 -0.242737 0.239784
    27 0.091660 -0.906685 4.702850 -1.587439 -0.182555 0.191106
    28 0.506271 8.500866 13.617253 -1.328831 -0.283752 1.517782
    29 -0.384987 -0.460049 7.003448 -1.809273 -0.433295 0.573399
    30 0.561516 -0.596954 5.061852 -1.494407 -0.380557 0.386326
    31 -2.452171 -8.899406 11.597897 -1.543577 -0.078691 1.477336
    32 0.680496 -0.903999 6.074253 -1.738734 0.182293 -0.023270
    33 0.245514 -0.661150 3.388004 -1.484423 0.109499 -0.099205
    34 -0.717484 -3.784271 13.043911 -1.518584 -0.039875 1.469470
    35 1.099216 -1.407745 8.017889 -1.892065 0.033748 -0.021534
    36 0.068439 -0.807653 3.686054 -1.465865 0.034016 -0.009744
    37 -4.004929 6.172707 4.754754 0.164224 1.125100 2.525774
    38 0.158352 -1.149811 5.804394 -0.914251 -0.346804 0.152269
    39 -1.083523 -1.463142 5.544399 -1.049271 -0.191556 -0.042338
    40 -6.289886 0.932434 13.569063 -0.126803 0.612110 2.869610
    41 1.327774 -0.766687 12.396328 -0.002782 0.001561 -0.025774
    42 -0.096140 1.828087 23.185329 -0.015267 -0.197783 -2.060537
    43 2.325478 -0.000003 6.169296 -0.044315 -0.041272 1.410917
    44 0.000000 -3.152912 0.122169 1.961017 0.000000 0.000000
    45 1.068383 -10.478592 7.066338 0.292219 -1.282324 -3.141588
    46 0.000000 0.000000 2.279457 0.547137 -0.343566 0.107833
    47 2.479414 -8.323895 6.074242 -0.015570 0.049840 1.392254
    48 0.000002 -5.070313 5.929688 0.000000 0.000000 0.000000
    49 -1.068383 -10.478611 7.065971 0.292219 1.282324 3.141588
    50 -0.000488 0.000015 2.279600 0.547136 0.343566 0.107835
    51 -2.479401 -8.323895 6.074234 0.001323 0.047517 1.396533
    52 -5.790000 4.432083 14.255558 -4.153356 1.341466 -0.619829
    53 1.044540 -2.839314 19.743252 -0.255627 0.539414 -0.099557
    54 -2.655510 -1.533379 24.792648 -0.601717 -0.084833 0.175298
    55 -1.120216 -0.154385 9.795983 -0.012841 -0.001061 0.111556
    56 -2.240372 -0.308788 19.592047 0.005570 -0.125388 0.229597
    57 -0.683205 2.877342 14.167089 -1.624177 0.169436 -1.648023
    58 -0.144958 -0.145317 7.579308 -1.541391 0.304896 -0.166506
    59 -0.038551 -0.936644 4.697678 -2.189566 0.238585 -0.365176
    60 -0.506317 8.500896 13.617329 -1.524547 0.306978 -1.657341
    61 0.385056 -0.460075 7.003435 -1.471905 0.596196 -0.385484
    62 -0.456360 -0.710276 5.057732 -1.989932 0.545832 -0.699289
    63 2.452194 -8.899408 11.597939 -1.419551 0.110567 -1.352644
    64 -0.680515 -0.903999 6.074242 -1.453600 -0.173888 -0.003175
    65 -0.248295 -0.666843 3.386627 -1.668601 -0.122155 0.124625
    66 0.717491 -3.784309 13.044010 -1.725758 0.009829 -1.454343
    67 -1.099228 -1.407673 8.017876 -1.350904 -0.015601 0.007733
    68 -0.064053 -0.807640 3.686100 -1.839904 -0.037751 0.018152
    69 4.004906 6.172710 4.754800 -0.720161 -0.940295 -1.497252
    70 -0.158381 -1.149773 5.804405 -0.345801 0.685529 0.599782
    71 1.078559 -2.386406 5.215008 -1.052553 1.087659 -0.156281
    72 6.289963 0.932404 13.569109 -0.126801 -0.612098 -2.869612
    73 -1.327759 -0.766682 12.396324 -0.013192 -0.006606 0.119415
    74 0.000017 -54.999996 0.000000 0.000000 0.000000 -1.570796
  time 14
    0 0.000000 0.000000 -1.500000 0.000000 0.000000 0.000000
    1 -10.521344 -5.760963 66.994621 3.097005 -0.050653 -3.139334
    2 -6.945153 12.128144 13.179873 -0.172678 0.529463 -0.026293
    3 -0.000034 0.000012 24.761454 -0.867032 -0.100648 0.469934
    4 0.000017 0.000000 24.344809 1.571084 -0.529196 -0.061823
    5 0.002333 -1.019846 24.031336 0.411164 -0.043057 0.016254
    6 0.000034 0.000008 13.404741 -0.000001 -0.000009 0.180156
    7 10.398263 -5.760962 66.994675 3.097005 0.050653 3.139334
    8 -5.547211 10.577189 13.027704 0.941857 -0.118078 0.052867
    9 -0.000004 -0.000006 24.761459 -1.164665 0.135111 0.007638
    10 -0.000007 0.000004 24.344891 1.211820 0.096839 -0.020926
    11 -0.002360 -1.019903 24.031330 0.389594 -0.042695 -0.017219
    12 0.000000 -0.000002 13.404737 0.000001 0.000005 0.039653
    13 -0.061540 -5.245835 72.927078 0.000000 0.000000 0.000000
    14 5.978069 10.765019 -12.622991 0.161090 -0.101160 0.304048
    15 0.000000 -0.005608 -1.146812 0.013146 -0.001102 -0.384685
    16 0.030770 -0.240000 8.906021 -0.004138 0.000000 0.000000
    17 0.460975 -0.010863 -0.004305 0.019281 0.058828 0.486796
    18 0.030770 -0.276858 8.905140 0.056125 0.004134 -0.000049
    19 -0.239554 -0.506952 -0.012895 0.191988 -0.080598 0.058735
    20 5.669724 4.435303 14.302868 0.047772 -1.325819 3.313165
    21 -1.044571 -2.839317 19.743267 0.095865 -0.672489 0.007258
    22 2.655533 -1.533369 24.792658 -0.120126 0.078238 -0.159703
    23 1.120163 -0.154394 9.796035 -0.025365 0.000674 -0.220169
    24 2.240311 -0.308786 19.592051 -0.100912 -0.014348 -0.433548
    25 0.683151 2.877354 14.167051 -1.422293 -0.209326 1.512208
    26 0.144936 -0.145374 7.579252 -1.788719 -0.242821 0.239113
    27 0.091660 -0.906685 4.702850 -1.587439 -0.182555 0.191106
    28 0.506271 8.500866 13.617253 -1.349766 -0.287135 1.525609
    29 -0.384987 -0.460049 7.003448 -1.800060 -0.434506 0.570139
    30 0.561516 -0.596954 5.061852 -1.494372 -0.380557 0.386326
    31 -2.452171 -8.899406 11.597897 -1.546716 -0.078293 1.477014
    32 0.680496 -0.903999 6.074253 -1.722079 0.181070 -0.021808
    33 0.245514 -0.661150 3.388004 -1.484370 0.109511 -0.099205
    34 -0.717484 -3.784271 13.043911 -1.529784 -0.038186 1.468809
    35 1.099216 -1.407745 8.017889 -1.875649 0.033508 -0.020911
    36 0.068439 -0.807653 3.686054 -1.465865 0.034016 -0.009744
    37 -4.004929 6.172707 4.754754 0.156117 1.125346 2.526635
    38 0.158352 -1.149811 5.804394 -0.930482 -0.352821 0.154810
    39 -1.083523 -1.463142 5.544399 -1.132560 -0.205218 -0.046191
    40 -6.289886 0.932434 13.569063 -0.126803 0.612110 2.869610
    41 1.327774 -0.766687 12.396328 -0.005970 0.003251 -0.054899
    42 -0.096140 1.828087 23.185329 -0.053345 -0.197943 -2.060109
    43 2.325478 -0.000003 6.169296 0.022965 -0.052008 1.409121
    44 0.000000 -3.152912 0.122169 1.961017 0.000000 0.000000
    45 1.068383 -10.478592 7.066338 0.292219 -1.282324 -3.141588
    46 0.000000 0.000000 2.279457 0.547137 -0.343566 0.107833
    47 2.479414 -8.323895 6.074242 -0.013558 0.035095 1.443064
    48 0.000002 -5.070313 5.929688 0.000000 0.000000 0.000000
    49 -1.068383 -10.478611 7.065971 0.292219 1.282324 3.141588
    50 -0.000488 0.000015 2.279600 0.547136 0.343566 0.107835
    51 -2.479401 -8.323895 6.074234 0.003411 0.032822 1.447406
    52 -5.790000 4.432083 14.255558 -3.777882 1.293657 -0.340528
    53 1.044540 -2.839314 19.743252 -0.304994 0.604197 -0.116049
    54 -2.655510 -1.533379 24.792648 -0.607102 -0.084083 0.149625
    55 -1.120216 -0.154385 9.795983 -0.015273 -0.001073 0.132693
    56 -2.240372 -0.308788 19.592047 -0.026580 -0.097171 0.268605
    57 -0.683205 2.877342 14.167089 -1.620514 0.175485 -1.669030
    58 -0.144958 -0.145317 7.579308 -1.541391 0.304896 -0.166506
    59 -0.038551 -0.936644 4.697678 -2.189566 0.238585 -0.365188
    60 -0.506317 8.500896 13.617329 -1.554264 0.303398 -1.703304
    61 0.385056 -0.460075 7.003435 -1.471905 0.596196 -0.385484
    62 -0.456360 -0.710276 5.057732 -1.989932 0.545854 -0.699289
    63 2.452194 -8.899408 11.597939 -1.419551 0.110567 -1.352644
    64 -0.680515 -0.903999 6.074242 -1.453600 -0.173888 -0.003175
    65 -0.248295 -0.666843 3.386627 -1.668601 -0.122155 0.124625
    66 0.717491 -3.784309 13.044010 -1.725758 0.009829 -1.454343
    67 -1.099228 -1.407673 8.017876 -1.350904 -0.015601 0.007733
    68 -0.064053 -0.807640 3.686100 -1.839904 -0.037751 0.018152
    69 4.004906 6.172710 4.754800 -0.720161 -0.940295 -1.497252
    70 -0.158381 -1.149773 5.804405 -0.345801 0.685529 0.599782
    71 1.078559 -2.386406 5.215008 -1.052553 1.087689 -0.156281
    72 6.289963 0.932404 13.569109 -0.126801 -0.612098 -2.869612
    73 -1.327759 -0.766682 12.396324 -0.011658 -0.005947 0.105859
    74 0.000017 -54.999996 0.000000 0.000000 0.000000 -1.570796
  time 15
    0 0.000000 0.000000 -1.500000 0.000000 0.000000 0.000000
    1 -10.521344 -5.760963 66.994621 3.097005 -0.050653 -3.139334
    2 -7.027187 16.240936 12.148344 -0.092267 0.505971 0.028974
    3 -0.000034 0.000012 24.761454 -0.798738 -0.092726 0.441513
    4 0.000017 0.000000 24.344809 1.507896 -0.538001 -0.014030
    5 0.002333 -1.019846 24.031336 0.395633 -0.042818 0.016937
    6 0.000034 0.000008 13.404741 -0.000001 -0.000009 0.175895
    7 10.398263 -5.760962 66.994675 3.097005 0.050653 3.139334
    8 -5.730810 14.811086 12.420740 0.943051 -0.105823 0.033228
    9 -0.000004 -0.000006 24.761459 -0.987518 0.114593 0.023788
    10 -0.000007 0.000004 24.344891 1.034271 0.103150 -0.010479
    11 -0.002360 -1.019903 24.031330 0.389594 -0.042695 -0.017219
    12 0.000000 -0.000002 13.404737 0.000001 0.000005 0.049808
    13 -0.061540 -5.245835 72.927078 0.000000 0.000000 0.000000
    14 6.239796 15.411651 -11.586560 0.099641 -0.095998 0.329571
    15 0.000000 -0.005608 -1.146812 -0.022356 0.034692 -0.404577
    16 0.030770 -0.240000 8.906021 -0.004138 0.000000 0.000000
    17 0.421911 0.368055 0.003508 -0.044966 0.083922 0.450577
    18 0.030770 -0.276858 8.905140 0.056125 0.004134 -0.000049
    19 -0.321588 -0.628050 -0.020707 0.220441 -0.106765 0.051029
    20 5.669724 4.435303 14.302868 -0.066884 -1.259472 3.466115
    21 -1.044571 -2.839317 19.743267 0.118857 -0.676089 -0.000864
    22 2.655533 -1.533369 24.792658 -0.110579 0.081120 -0.225047
    23 1.120163 -0.154394 9.796035 -0.025413 0.000674 -0.220583
    24 2.240311 -0.308786 19.592051 -0.123411 -0.042574 -0.430027
    25 0.683151 2.877354 14.167051 -1.435678 -0.209794 1.518553
    26 0.144936 -0.145374 7.579252 -1.785606 -0.242893 0.238550
    27 0.091660 -0.906685 4.702850 -1.587439 -0.182555 0.191106
    28 0.506271 8.500866 13.617253 -1.367861 -0.289903 1.532389
    29 -0.384987 -0.460049 7.003448 -1.792164 -0.435525 0.567322
    30 0.561516 -0.596954 5.061852 -1.494372 -0.380557 0.386326
    31 -2.452171 -8.899406 11.597897 -1.549348 -0.077914 1.476773
    32 0.680496 -0.903999 6.074253 -1.707883 0.180040 -0.020621
    33 0.245514 -0.661150 3.388004 -1.484370 0.109511 -0.099205
    34 -0.717484 -3.784271 13.043911 -1.539353 -0.036736 1.468256
    35 1.099216 -1.407745 8.017889 -1.861368 0.033268 -0.020612
    36 0.068439 -0.807653 3.686054 -1.465865 0.034016 -0.009744
    37 -4.004929 6.172707 4.754754 0.149091 1.125540 2.527305
    38 0.158352 -1.149811 5.804394 -0.944424 -0.357987 0.157027
    39 -1.083523 -1.463142 5.544399 -1.196074 -0.215789 -0.048374
    40 -6.289886 0.932434 13.569063 -0.126803 0.612110 2.869610
    41 1.327774 -0.766687 12.396328 -0.009410 0.004917 -0.085782
    42 -0.096140 1.828087 23.185329 -0.081133 -0.198006 -2.059467
    43 2.325478 -0.000003 6.169296 0.072195 -0.059778 1.406487
    44 0.000000 -3.152912 0.122169 1.961017 0.000000 0.000000
    45 1.068383 -10.478592 7.066338 0.292219 -1.282324 -3.141588
    46 0.000000 0.000000 2.279457 0.547137 -0.343566 0.107833
    47 2.479414 -8.323895 6.074242 -0.012199 0.021758 1.478211
    48 0.000002 -5.070313 5.929688 0.000000 0.000000 0.000000
    49 -1.068383 -10.478611 7.065971 0.292219 1.282324 3.141588
    50 -0.000488 0.000015 2.279600 0.547136 0.343566 0.107835
    51 -2.479401 -8.323895 6.074234 0.004877 0.019781 1.482568
    52 -5.790000 4.432083 14.255558 -3.547153 1.249794 -0.215968
    53 1.044540 -2.839314 19.743252 -0.315903 0.677544 -0.129167
    54 -2.655510 -1.533379 24.792648 -0.610927 -0.082879 0.117364
    55 -1.120216 -0.154385 9.795983 -0.017047 -0.001073 0.148118
    56 -2.240372 -0.308788 19.592047 -0.048650 -0.075241 0.296959
    57 -0.683205 2.877342 14.167089 -1.617544 0.180599 -1.687099
    58 -0.144958 -0.145317 7.579308 -1.541391 0.304896 -0.166506
    59 -0.038551 -0.936644 4.697678 -2.189566 0.238585 -0.365188
    60 -0.506317 8.500896 13.617329 -1.579229 0.300129 -1.742752
    61 0.385056 -0.460075 7.003435 -1.471905 0.596196 -0.385484
    62 -0.456360 -0.710276 5.057732 -1.989932 0.545832 -0.699272
    63 2.452194 -8.899408 11.597939 -1.419551 0.110567 -1.352644
    64 -0.680515 -0.903999 6.074242 -1.453600 -0.173888 -0.003175
    65 -0.248295 -0.666843 3.386627 -1.668601 -0.122155 0.124625
    66 0.717491 -3.784309 13.044010 -1.725758 0.009829 -1.454343
    67 -1.099228 -1.407673 8.017876 -1.350904 -0.015601 0.007733
    68 -0.064053 -0.807640 3.686100 -1.839904 -0.037751 0.018152
    69 4.004906 6.172710 4.754800 -0.720161 -0.940295 -1.497252
    70 -0.158381 -1.149773 5.804405 -0.345801 0.685529 0.599782
    71 1.078559 -2.386406 5.215008 -1.052553 1.087659 -0.156281
    72 6.289963 0.932404 13.569109 -0.126801 -0.612098 -2.869612
    73 -1.327759 -0.766682 12.396324 -0.009585 -0.004988 0.087492
    74 0.000017 -54.999996 0.000000 0.000000 0.000000 -1.570796
  time 16
    0 0.000000 0.000000 -1.500000 0.000000 0.000000 0.000000
    1 -10.521344 -5.760963 66.994621 3.097005 -0.050653 -3.139334
    2 -7.136565 18.229809 11.228938 -0.069448 0.483563 0.054795
    3 -0.000034 0.000012 24.761454 -0.724753 -0.084157 0.433003
    4 0.000017 0.000000 24.344809 1.443598 -0.533859 0.020799
    5 0.002333 -1.019846 24.031336 0.389660 -0.042710 0.017213
    6 0.000034 0.000008 13.404741 -0.000001 -0.000009 0.178363
    7 10.398263 -5.760962 66.994675 3.097005 0.050653 3.139334
    8 -5.926129 16.859343 11.678894 0.906197 -0.094776 0.026627
    9 -0.000004 -0.000006 24.761459 -0.843260 0.097899 0.034410
    10 -0.000007 0.000004 24.344891 0.926232 0.106016 -0.006822
    11 -0.002360 -1.019903 24.031330 0.389594 -0.042695 -0.017219
    12 0.000000 -0.000002 13.404737 0.000001 0.000005 0.052084
    13 -0.061540 -5.245835 72.927078 0.000000 0.000000 0.000000
    14 6.446833 17.705853 -10.662785 0.059540 -0.089375 0.349929
    15 0.000000 -0.005608 -1.146812 -0.041175 0.050784 -0.420339
    16 0.030770 -0.240000 8.906021 -0.004138 0.000000 0.000000
    17 0.406286 0.520403 0.003508 -0.070134 0.092620 0.436240
    18 0.030770 -0.276858 8.905140 0.056125 0.004134 -0.000049
    19 -0.348932 -0.667113 -0.024614 0.231630 -0.116557 0.047674
    20 5.669724 4.435303 14.302868 -0.113014 -1.193619 3.542878
    21 -1.044571 -2.839317 19.743267 0.116314 -0.661582 0.002351
    22 2.655533 -1.533369 24.792658 -0.139047 0.083964 -0.332041
    23 1.120163 -0.154394 9.796035 -0.025568 0.000662 -0.221997
    24 2.240311 -0.308786 19.592051 -0.174676 -0.080976 -0.423262
    25 0.683151 2.877354 14.167051 -1.444839 -0.210069 1.522849
    26 0.144936 -0.145374 7.579252 -1.783469 -0.242941 0.238142
    27 0.091660 -0.906685 4.702850 -1.587485 -0.182555 0.191106
    28 0.506271 8.500866 13.617253 -1.380151 -0.291727 1.537012
    29 -0.384987 -0.460049 7.003448 -1.786793 -0.436208 0.565429
    30 0.561516 -0.596954 5.061852 -1.494407 -0.380557 0.386326
    31 -2.452171 -8.899406 11.597897 -1.551121 -0.077675 1.476612
    32 0.680496 -0.903999 6.074253 -1.698445 0.179321 -0.019674
    33 0.245514 -0.661150 3.388004 -1.484423 0.109499 -0.099205
    34 -0.717484 -3.784271 13.043911 -1.545923 -0.035741 1.467841
    35 1.099216 -1.407745 8.017889 -1.852016 0.033136 -0.020024
    36 0.068439 -0.807653 3.686054 -1.465865 0.034016 -0.009744
    37 -4.004929 6.172707 4.754754 0.144407 1.125681 2.527687
    38 0.158352 -1.149811 5.804394 -0.953917 -0.361494 0.158585
    39 -1.083523 -1.463142 5.544399 -1.225529 -0.220727 -0.049133
    40 -6.289886 0.932434 13.569063 -0.126803 0.612110 2.869610
    41 1.327774 -0.766687 12.396328 -0.015989 0.007745 -0.143932
    42 -0.096140 1.828087 23.185329 -0.091748 -0.197975 -2.059131
    43 2.325478 -0.000003 6.169296 0.091296 -0.062744 1.405170
    44 0.000000 -3.152912 0.122169 1.961017 0.000000 0.000000
    45 1.068383 -10.478592 7.066338 0.292219 -1.282324 -3.141588
    46 0.000000 0.000000 2.279457 0.547137 -0.343566 0.107833
    47 2.479414 -8.323895 6.074242 -0.011927 0.007717 1.484610
    48 0.000002 -5.070313 5.929688 0.000000 0.000000 0.000000
    49 -1.068383 -10.478611 7.065971 0.292219 1.282324 3.141588
    50 -0.000488 0.000015 2.279600 0.547136 0.343566 0.107835
    51 -2.479401 -8.323895 6.074234 0.005159 0.005936 1.488699
    52 -5.790000 4.432083 14.255558 -3.386878 1.232058 -0.167294
    53 1.044540 -2.839314 19.743252 -0.288186 0.738172 -0.129902
    54 -2.655510 -1.533379 24.792648 -0.614953 -0.081132 0.075561
    55 -1.120216 -0.154385 9.795983 -0.017718 -0.001073 0.154130
    56 -2.240372 -0.308788 19.592047 -0.056898 -0.066330 0.307957
    57 -0.683205 2.877342 14.167089 -1.615713 0.184081 -1.699398
    58 -0.144958 -0.145317 7.579308 -1.541391 0.304896 -0.166506
    59 -0.038551 -0.936644 4.697678 -2.189566 0.238585 -0.365188
    60 -0.506317 8.500896 13.617329 -1.595973 0.297846 -1.769440
    61 0.385056 -0.460075 7.003435 -1.471905 0.596196 -0.385484
    62 -0.456360 -0.710276 5.057732 -1.989932 0.545832 -0.699289
    63 2.452194 -8.899408 11.597939 -1.419551 0.110567 -1.352620
    64 -0.680515 -0.903999 6.074242 -1.453600 -0.173888 -0.003175
    65 -0.248295 -0.666843 3.386627 -1.668601 -0.122155 0.124625
    66 0.717491 -3.784309 13.044010 -1.725758 0.009829 -1.454343
    67 -1.099228 -1.407673 8.017876 -1.350904 -0.015601 0.007733
    68 -0.064053 -0.807640 3.686100 -1.839904 -0.037751 0.018152
    69 4.004906 6.172710 4.754800 -0.720161 -0.940295 -1.497252
    70 -0.158381 -1.149773 5.804405 -0.345801 0.685529 0.599782
    71 1.078559 -2.386406 5.215008 -1.052506 1.087659 -0.156281
    72 6.289963 0.932404 13.569109 -0.126801 -0.612098 -2.869612
    73 -1.327759 -0.766682 12.396324 -0.006769 -0.003646 0.062000
    74 0.000017 -54.999996 0.000000 0.000000 0.000000 -1.570796
  time 17
    0 0.000000 0.000000 -1.500000 0.000000 0.000000 0.000000
    1 -10.521344 -5.760963 66.994621 3.097005 -0.050653 -3.139334
    2 -7.257663 18.634949 10.466503 -0.082224 0.466834 0.061392
    3 -0.000034 0.000012 24.761454 -0.658614 -0.076511 0.435364
    4 0.000017 0.000000 24.344809 1.391507 -0.526027 0.041325
    5 0.002333 -1.019846 24.031336 0.389585 -0.042698 0.017213
    6 0.000034 0.000008 13.404741 -0.000001 -0.000009 0.184290
    7 10.398263 -5.760962 66.994675 3.097005 0.050653 3.139334
    8 -6.133166 17.346428 10.937048 0.863457 -0.084753 0.025554
    9 -0.000004 -0.000006 24.761459 -0.752514 0.087376 0.042988
    10 -0.000007 0.000004 24.344891 0.877698 0.105283 -0.006927
    11 -0.002360 -1.019903 24.031330 0.389594 -0.042695 -0.017219
    12 0.000000 -0.000002 13.404737 0.000001 0.000005 0.051998
    13 -0.061540 -5.245835 72.927078 0.000000 0.000000 0.000000
    14 6.618713 18.299783 -9.896728 0.033873 -0.081633 0.366323
    15 0.000000 -0.005608 -1.146812 -0.047491 0.053419 -0.431263
    16 0.030770 -0.240000 8.906021 -0.004138 0.000000 0.000000
    17 0.406286 0.516497 0.003508 -0.069124 0.092176 0.440194
    18 0.030770 -0.276858 8.905140 0.056125 0.004134 -0.000049
    19 -0.348932 -0.659301 -0.024614 0.228305 -0.114726 0.048536
    20 5.669724 4.435303 14.302868 -0.122202 -1.134249 3.572874
    21 -1.044571 -2.839317 19.743267 0.088233 -0.623697 0.016818
    22 2.655533 -1.533369 24.792658 -0.200887 0.085424 -0.466774
    23 1.120163 -0.154394 9.796035 -0.025832 0.000638 -0.224239
    24 2.240311 -0.308786 19.592051 -0.231555 -0.117490 -0.415745
    25 0.683151 2.877354 14.167051 -1.448295 -0.210177 1.524485
    26 0.144936 -0.145374 7.579252 -1.782632 -0.242965 0.238011
    27 0.091660 -0.906685 4.702850 -1.587439 -0.182555 0.191106
    28 0.506271 8.500866 13.617253 -1.384844 -0.292408 1.538768
    29 -0.384987 -0.460049 7.003448 -1.784730 -0.436447 0.564710
    30 0.561516 -0.596954 5.061852 -1.494372 -0.380557 0.386326
    31 -2.452171 -8.899406 11.597897 -1.551880 -0.077596 1.476504
    32 0.680496 -0.903999 6.074253 -1.694757 0.179045 -0.019399
    33 0.245514 -0.661150 3.388004 -1.484423 0.109511 -0.099205
    34 -0.717484 -3.784271 13.043911 -1.548348 -0.035369 1.467703
    35 1.099216 -1.407745 8.017889 -1.848368 0.033088 -0.019893
    36 0.068439 -0.807653 3.686054 -1.465865 0.034016 -0.009744
    37 -4.004929 6.172707 4.754754 0.142515 1.125769 2.527783
    38 0.158352 -1.149811 5.804394 -0.959553 -0.363578 0.159508
    39 -1.083523 -1.463142 5.544399 -1.230395 -0.221577 -0.050197
    40 -6.289886 0.932434 13.569063 -0.126803 0.612110 2.869610
    41 1.327774 -0.766687 12.396328 -0.024894 0.010921 -0.220361
    42 -0.096140 1.828087 23.185329 -0.091680 -0.197975 -2.059131
    43 2.325478 -0.000003 6.169296 0.091296 -0.062744 1.405170
    44 0.000000 -3.152912 0.122169 1.961017 0.000000 0.000000
    45 1.068383 -10.478592 7.066338 0.292219 -1.282324 -3.141588
    46 0.000000 0.000000 2.279457 0.547137 -0.343566 0.107833
    47 2.479414 -8.323895 6.074242 -0.012389 -0.012147 1.473149
    48 0.000002 -5.070313 5.929688 0.000000 0.000000 0.000000
    49 -1.068383 -10.478611 7.065971 0.292219 1.282324 3.141588
    50 -0.000488 0.000015 2.279600 0.547136 0.343566 0.107835
    51 -2.479401 -8.323895 6.074234 0.004657 -0.014051 1.477202
    52 -5.790000 4.432083 14.255558 -3.238778 1.231850 -0.141328
    53 1.044540 -2.839314 19.743252 -0.215666 0.766578 -0.108592
    54 -2.655510 -1.533379 24.792648 -0.654660 -0.080044 0.019370
    55 -1.120216 -0.154385 9.795983 -0.017910 -0.001049 0.154103
    56 -2.240372 -0.308788 19.592047 -0.056898 -0.066330 0.307957
    57 -0.683205 2.877342 14.167089 -1.615020 0.185414 -1.704079
    58 -0.144958 -0.145317 7.579308 -1.541391 0.304896 -0.166506
    59 -0.038551 -0.936644 4.697678 -2.189566 0.238585 -0.365176
    60 -0.506317 8.500896 13.617329 -1.602459 0.296990 -1.779189
    61 0.385056 -0.460075 7.003435 -1.471905 0.596196 -0.385484
    62 -0.456360 -0.710276 5.057732 -1.989932 0.545854 -0.699289
    63 2.452194 -8.899408 11.597939 -1.419591 0.110567 -1.352644
    64 -0.680515 -0.903999 6.074242 -1.453600 -0.173888 -0.003175
    65 -0.248295 -0.666843 3.386627 -1.668601 -0.122155 0.124625
    66 0.717491 -3.784309 13.044010 -1.725758 0.009829 -1.454343
    67 -1.099228 -1.407673 8.017876 -1.350904 -0.015601 0.007733
    68 -0.064053 -0.807640 3.686100 -1.839904 -0.037751 0.018152
    69 4.004906 6.172710 4.754800 -0.720161 -0.940295 -1.497252
    70 -0.158381 -1.149773 5.804405 -0.345801 0.685529 0.599782
    71 1.078559 -2.386406 5.215008 -1.052553 1.087659 -0.156281
    72 6.289963 0.932404 13.569109 -0.126801 -0.612098 -2.869612
    73 -1.327759 -0.766682 12.396324 -0.003341 -0.001764 0.029152
    74 0.000017 -54.999996 0.000000 0.000000 0.000000 -1.570796
end
