// Created by Crowbar 0.74
version 1
nodes
  0 "root" -1
  1 "g_r_hip_offset" 0
  2 "g_r_hip" 1
  3 "g_r_knee" 2
  4 "g_r_ankle" 3
  5 "g_r_ball" 4
  6 "g_r_thightwist" 2
  7 "g_l_hip_offset" 0
  8 "g_l_hip" 7
  9 "g_l_knee" 8
  10 "g_l_ankle" 9
  11 "g_l_ball" 10
  12 "g_l_thightwist" 8
  13 "g_spine01_offset" 0
  14 "g_spine01" 13
  15 "g_pelvis" 14
  16 "g_spine02_offset" 14
  17 "g_spine02" 16
  18 "g_spine03_offset" 17
  19 "g_spine03" 18
  20 "g_l_clavical" 19
  21 "g_l_shoulder" 20
  22 "g_l_elbow" 21
  23 "g_l_forarm" 22
  24 "g_l_wrist" 22
  25 "g_l_birdy1" 24
  26 "g_l_birdy2" 25
  27 "g_l_birdy3" 26
  28 "g_l_index1" 24
  29 "g_l_index2" 28
  30 "g_l_index3" 29
  31 "g_l_pinky1" 24
  32 "g_l_pinky2" 31
  33 "g_l_pinky3" 32
  34 "g_l_ring1" 24
  35 "g_l_ring2" 34
  36 "g_l_ring3" 35
  37 "g_l_thumb1" 24
  38 "g_l_thumb2" 37
  39 "g_l_thumb3" 38
  40 "g_l_palm" 24
  41 "g_l_biceptwist" 21
  42 "g_neck" 19
  43 "g_head" 42
  44 "g_jaw" 43
  45 "g_l_brow" 43
  46 "g_l_brow2" 45
  47 "g_l_eye" 43
  48 "g_topeyelid" 43
  49 "g_r_brow" 43
  50 "g_r_brow2" 49
  51 "g_r_eye" 43
  52 "g_r_clavical" 19
  53 "g_r_shoulder" 52
  54 "g_r_elbow" 53
  55 "g_r_forarm" 54
  56 "g_r_wrist" 54
  57 "g_r_birdy1" 56
  58 "g_r_birdy2" 57
  59 "g_r_birdy3" 58
  60 "g_r_index1" 56
  61 "g_r_index2" 60
  62 "g_r_index3" 61
  63 "g_r_pinky1" 56
  64 "g_r_pinky2" 63
  65 "g_r_pinky3" 64
  66 "g_r_ring1" 56
  67 "g_r_ring2" 66
  68 "g_r_ring3" 67
  69 "g_r_thumb1" 56
  70 "g_r_thumb2" 69
  71 "g_r_thumb3" 70
  72 "g_r_palm" 56
  73 "g_r_biceptwist" 53
  74 "g_throwable_attach_offset" 0
end
skeleton
  time 0
    0 0.000000 0.000000 -1.500000 0.000000 0.000000 0.000000
    1 -10.521344 -5.760963 66.994621 3.097005 -0.050653 -3.139334
    2 -7.378760 13.957416 11.811976 -0.026612 0.555934 0.509825
    3 -0.000034 0.000012 24.761454 -0.549507 -0.063855 0.184907
    4 0.000017 0.000000 24.344809 1.411789 -0.540287 -0.167154
    5 0.002333 -1.019846 24.031336 0.389660 -0.042710 0.017201
    6 0.000034 0.000008 13.404741 -0.000001 -0.000009 0.047964
    7 10.398263 -5.760962 66.994675 3.097005 0.050653 3.139334
    8 -2.601808 2.321715 12.780422 0.640286 -0.528620 0.497549
    9 -0.000004 -0.000006 24.761459 -1.281699 0.148641 -0.518583
    10 -0.000007 0.000004 24.344891 1.485920 0.138302 0.004276
    11 -0.002360 -1.019903 24.031330 0.389594 -0.042695 -0.017219
    12 0.000000 -0.000002 13.404737 0.000001 0.000005 -0.236594
    13 -0.061540 -5.245835 72.927078 0.000000 0.000000 0.000000
    14 4.759282 7.457642 -12.037182 0.263215 -0.023343 -0.615611
    15 0.000000 -0.005608 -1.146812 -0.065481 0.074814 0.008759
    16 0.030770 -0.240000 8.906021 -0.004138 0.000000 0.000000
    17 0.523477 -2.038269 -0.273844 0.320335 0.029874 0.105431
    18 0.030770 -0.276858 8.905140 0.056125 0.004134 -0.000049
    19 0.600315 -0.526484 -0.005082 0.294183 0.236469 0.038997
    20 5.669724 4.435303 14.302868 1.992128 -1.254680 0.922309
    21 -1.044571 -2.839317 19.743267 -0.126968 -0.433591 0.077281
    22 2.655533 -1.533369 24.792658 -0.854526 0.102332 -0.584361
    23 1.120163 -0.154394 9.796035 0.000606 -0.000093 0.005451
    24 2.240311 -0.308786 19.592051 -0.907874 -0.620536 0.107866
    25 0.683151 2.877354 14.167051 -1.511326 -0.211747 1.554295
    26 0.144936 -0.145374 7.579252 -1.768092 -0.243254 0.235289
    27 0.091660 -0.906685 4.702850 -1.587439 -0.182555 0.191106
    28 0.506271 8.500866 13.617253 -1.470526 -0.303331 1.571638
    29 -0.384987 -0.460049 7.003448 -1.747417 -0.440906 0.551335
    30 0.561516 -0.596954 5.061852 -1.494372 -0.380557 0.386326
    31 -2.452171 -8.899406 11.597897 -1.564465 -0.075967 1.475308
    32 0.680496 -0.903999 6.074253 -1.628053 0.173822 -0.014264
    33 0.245514 -0.661150 3.388004 -1.484370 0.109511 -0.099205
    34 -0.717484 -3.784271 13.043911 -1.593546 -0.028658 1.464722
    35 1.099216 -1.407745 8.017889 -1.782123 0.031968 -0.017453
    36 0.068439 -0.807653 3.686054 -1.465865 0.034016 -0.009746
    37 -4.004929 6.172707 4.754754 0.109464 1.126798 2.530885
    38 0.158352 -1.149811 5.804394 -0.869542 -0.330234 0.145630
    39 -1.083523 -1.463142 5.544399 -0.797671 -0.152790 -0.023939
    40 -6.289886 0.932434 13.569063 -0.126803 0.612110 2.869610
    41 1.327774 -0.766687 12.396328 -0.037801 0.014205 -0.328375
    42 -0.096140 1.828087 23.185329 -0.155474 -0.088322 -1.435402
    43 2.325478 -0.000003 6.169296 -0.280536 -0.016241 1.795236
    44 0.000000 -3.152912 0.122169 1.961017 0.000000 0.000000
    45 1.068383 -10.478592 7.066338 0.292219 -1.282324 -3.141588
    46 0.000000 0.000000 2.279457 0.547137 -0.343566 0.107833
    47 2.479414 -8.323895 6.074242 -0.005239 0.795939 1.684604
    48 0.000003 -5.075260 5.105362 0.000000 0.000000 0.000000
    49 -1.068383 -10.478611 7.065971 0.292219 1.282324 3.141588
    50 -0.000488 0.000015 2.279600 0.547136 0.343566 0.107835
    51 -2.479401 -8.323895 6.074234 0.018836 0.798194 1.700337
    52 -5.790000 4.432083 14.255558 -3.173212 1.363979 -0.525930
    53 1.044540 -2.839314 19.743252 -0.581718 0.811519 -0.248261
    54 -2.655510 -1.533379 24.792648 -0.703023 -0.094864 0.460422
    55 -1.120216 -0.154385 9.795983 -0.009533 -0.000917 0.082855
    56 -2.240372 -0.308788 19.592047 0.074835 0.252771 0.182083
    57 -0.683205 2.877342 14.167089 -1.535874 0.224872 -1.776922
    58 -0.144958 -0.145317 7.579308 -1.472487 0.301141 -0.149636
    59 -0.038551 -0.936644 4.697678 -2.121912 0.245453 -0.349716
    60 -0.506317 8.500896 13.617329 -1.641754 0.297949 -1.967759
    61 0.385056 -0.460075 7.003435 -1.392522 0.592120 -0.345839
    62 -0.456360 -0.710276 5.057732 -1.913318 0.555837 -0.661939
    63 2.452194 -8.899408 11.597939 -1.351245 0.111078 -1.356934
    64 -0.680515 -0.903999 6.074242 -1.387214 -0.167236 -0.007806
    65 -0.248295 -0.666843 3.386627 -1.602160 -0.124436 0.118882
    66 0.717491 -3.784309 13.044010 -1.657745 0.019347 -1.459991
    67 -1.099228 -1.407673 8.017876 -1.284892 -0.013712 0.006480
    68 -0.064053 -0.807640 3.686100 -1.773740 -0.036929 0.015860
    69 4.004906 6.172710 4.754800 -0.715719 -0.940024 -1.497416
    70 -0.158381 -1.149773 5.804405 -0.311729 0.643372 0.600882
    71 1.078559 -2.386406 5.215008 -0.955426 1.069586 -0.091538
    72 6.289963 0.932404 13.569109 -0.126801 -0.612098 -2.869612
    73 -1.327759 -0.766682 12.396324 -0.031313 -0.012742 0.274263
    74 0.000017 -54.999996 0.000000 0.000000 0.000000 -1.570796
  time 1
    0 0.000000 0.000000 -1.500000 0.000000 0.000000 0.000000
    1 -10.521344 -5.760963 66.994621 3.097005 -0.050653 -3.139334
    2 -7.378760 13.957416 11.811976 -0.026612 0.555934 0.509825
    3 -0.000034 0.000012 24.761454 -0.549507 -0.063855 0.184907
    4 0.000017 0.000000 24.344809 1.411789 -0.540287 -0.167154
    5 0.002333 -1.019846 24.031336 0.389660 -0.042710 0.017201
    6 0.000034 0.000008 13.404741 -0.000001 -0.000009 0.047964
    7 10.398263 -5.760962 66.994675 3.097005 0.050653 3.139334
    8 -2.601808 2.321715 12.780422 0.640286 -0.528620 0.497549
    9 -0.000004 -0.000006 24.761459 -1.281699 0.148641 -0.518583
    10 -0.000007 0.000004 24.344891 1.485920 0.138302 0.004276
    11 -0.002360 -1.019903 24.031330 0.389594 -0.042695 -0.017219
    12 0.000000 -0.000002 13.404737 0.000001 0.000005 -0.236594
    13 -0.061540 -5.245835 72.927078 0.000000 0.000000 0.000000
    14 4.759282 7.457642 -12.037182 0.263215 -0.023343 -0.615611
    15 0.000000 -0.005608 -1.146812 -0.065481 0.074814 0.008759
    16 0.030770 -0.240000 8.906021 -0.004138 0.000000 0.000000
    17 0.523477 -2.038269 -0.273844 0.320335 0.029874 0.105431
    18 0.030770 -0.276858 8.905140 0.056125 0.004134 -0.000049
    19 0.600315 -0.526484 -0.005082 0.294183 0.236469 0.038997
    20 5.669724 4.435303 14.302868 1.992128 -1.254680 0.922309
    21 -1.044571 -2.839317 19.743267 -0.126968 -0.433591 0.077281
    22 2.655533 -1.533369 24.792658 -0.854526 0.102332 -0.584361
    23 1.120163 -0.154394 9.796035 0.000606 -0.000093 0.005451
    24 2.240311 -0.308786 19.592051 -0.907874 -0.620536 0.107866
    25 0.683151 2.877354 14.167051 -1.511326 -0.211747 1.554295
    26 0.144936 -0.145374 7.579252 -1.768092 -0.243254 0.235289
    27 0.091660 -0.906685 4.702850 -1.587439 -0.182555 0.191106
    28 0.506271 8.500866 13.617253 -1.470526 -0.303331 1.571638
    29 -0.384987 -0.460049 7.003448 -1.747417 -0.440906 0.551335
    30 0.561516 -0.596954 5.061852 -1.494372 -0.380557 0.386326
    31 -2.452171 -8.899406 11.597897 -1.564465 -0.075967 1.475308
    32 0.680496 -0.903999 6.074253 -1.628053 0.173822 -0.014264
    33 0.245514 -0.661150 3.388004 -1.484370 0.109511 -0.099205
    34 -0.717484 -3.784271 13.043911 -1.593546 -0.028658 1.464722
    35 1.099216 -1.407745 8.017889 -1.782123 0.031968 -0.017453
    36 0.068439 -0.807653 3.686054 -1.465865 0.034016 -0.009746
    37 -4.004929 6.172707 4.754754 0.109464 1.126798 2.530885
    38 0.158352 -1.149811 5.804394 -0.869542 -0.330234 0.145630
    39 -1.083523 -1.463142 5.544399 -0.797671 -0.152790 -0.023939
    40 -6.289886 0.932434 13.569063 -0.126803 0.612110 2.869610
    41 1.327774 -0.766687 12.396328 -0.037801 0.014205 -0.328375
    42 -0.096140 1.828087 23.185329 -0.155474 -0.088322 -1.435402
    43 2.325478 -0.000003 6.169296 -0.280536 -0.016241 1.795236
    44 0.000000 -3.152912 0.122169 1.961017 0.000000 0.000000
    45 1.068383 -10.478592 7.066338 0.292219 -1.282324 -3.141588
    46 0.000000 0.000000 2.279457 0.547137 -0.343566 0.107833
    47 2.479414 -8.323895 6.074242 -0.005239 0.795939 1.684604
    48 0.000003 -5.075260 5.105362 0.000000 0.000000 0.000000
    49 -1.068383 -10.478611 7.065971 0.292219 1.282324 3.141588
    50 -0.000488 0.000015 2.279600 0.547136 0.343566 0.107835
    51 -2.479401 -8.323895 6.074234 0.018836 0.798194 1.700337
    52 -5.790000 4.432083 14.255558 -3.173212 1.363979 -0.525930
    53 1.044540 -2.839314 19.743252 -0.581718 0.811519 -0.248261
    54 -2.655510 -1.533379 24.792648 -0.703023 -0.094864 0.460422
    55 -1.120216 -0.154385 9.795983 -0.009533 -0.000917 0.082855
    56 -2.240372 -0.308788 19.592047 0.074835 0.252771 0.182083
    57 -0.683205 2.877342 14.167089 -1.535874 0.224872 -1.776922
    58 -0.144958 -0.145317 7.579308 -1.472487 0.301141 -0.149636
    59 -0.038551 -0.936644 4.697678 -2.121912 0.245453 -0.349716
    60 -0.506317 8.500896 13.617329 -1.641754 0.297949 -1.967759
    61 0.385056 -0.460075 7.003435 -1.392522 0.592120 -0.345839
    62 -0.456360 -0.710276 5.057732 -1.913318 0.555837 -0.661939
    63 2.452194 -8.899408 11.597939 -1.351245 0.111078 -1.356934
    64 -0.680515 -0.903999 6.074242 -1.387214 -0.167236 -0.007806
    65 -0.248295 -0.666843 3.386627 -1.602160 -0.124436 0.118882
    66 0.717491 -3.784309 13.044010 -1.657745 0.019347 -1.459991
    67 -1.099228 -1.407673 8.017876 -1.284892 -0.013712 0.006480
    68 -0.064053 -0.807640 3.686100 -1.773740 -0.036929 0.015860
    69 4.004906 6.172710 4.754800 -0.715719 -0.940024 -1.497416
    70 -0.158381 -1.149773 5.804405 -0.311729 0.643372 0.600882
    71 1.078559 -2.386406 5.215008 -0.955426 1.069586 -0.091538
    72 6.289963 0.932404 13.569109 -0.126801 -0.612098 -2.869612
    73 -1.327759 -0.766682 12.396324 -0.031313 -0.012742 0.274263
    74 0.000017 -54.999996 0.000000 0.000000 0.000000 -1.570796
  time 2
    0 0.000000 0.000000 -1.500000 0.000000 0.000000 0.000000
    1 -10.521344 -5.760963 66.994621 3.097005 -0.050653 -3.139334
    2 -6.437325 13.736430 11.856825 -0.040139 0.542908 0.490209
    3 -0.000034 0.000012 24.761454 -0.573653 -0.066660 0.193336
    4 0.000017 0.000000 24.344809 1.444831 -0.527543 -0.169206
    5 0.002333 -1.019846 24.031336 0.389660 -0.042710 0.017201
    6 0.000034 0.000008 13.404741 -0.000001 -0.000009 0.055979
    7 10.398263 -5.760962 66.994675 3.097005 0.050653 3.139334
    8 -1.957257 2.583992 12.847863 0.653765 -0.522877 0.461902
    9 -0.000004 -0.000006 24.761459 -1.277739 0.148198 -0.481008
    10 -0.000007 0.000004 24.344891 1.480627 0.151990 0.015016
    11 -0.002360 -1.019903 24.031330 0.389594 -0.042695 -0.017219
    12 0.000000 -0.000002 13.404737 0.000001 0.000005 -0.209607
    13 -0.061540 -5.245835 72.927078 0.000000 0.000000 0.000000
    14 4.063948 7.539162 -12.104775 0.241740 -0.019145 -0.586365
    15 0.000000 -0.005608 -1.146812 -0.060313 0.073982 0.008134
    16 0.030770 -0.240000 8.906021 -0.004138 0.000000 0.000000
    17 0.492226 -1.264808 -0.074619 0.183129 0.046472 0.082788
    18 0.030770 -0.276858 8.905140 0.056125 0.004134 -0.000049
    19 0.475312 -0.846806 -0.059771 0.385655 0.190204 0.048081
    20 5.669724 4.435303 14.302868 1.947242 -1.262678 1.056668
    21 -1.044571 -2.839317 19.743267 -0.333412 -0.495637 0.106638
    22 2.655533 -1.533369 24.792658 -0.838860 0.100180 -0.650434
    23 1.120163 -0.154394 9.796035 -0.005854 0.000650 -0.050911
    24 2.240311 -0.308786 19.592051 -0.804475 -0.666028 0.005043
    25 0.683151 2.877354 14.167051 -1.511326 -0.211747 1.554295
    26 0.144936 -0.145374 7.579252 -1.768092 -0.243254 0.235289
    27 0.091660 -0.906685 4.702850 -1.587439 -0.182555 0.191106
    28 0.506271 8.500866 13.617253 -1.470526 -0.303331 1.571638
    29 -0.384987 -0.460049 7.003448 -1.747417 -0.440906 0.551335
    30 0.561516 -0.596954 5.061852 -1.494372 -0.380557 0.386326
    31 -2.452171 -8.899406 11.597897 -1.564465 -0.075967 1.475308
    32 0.680496 -0.903999 6.074253 -1.628053 0.173822 -0.014264
    33 0.245514 -0.661150 3.388004 -1.484370 0.109511 -0.099205
    34 -0.717484 -3.784271 13.043911 -1.593546 -0.028646 1.464722
    35 1.099216 -1.407745 8.017889 -1.782123 0.031968 -0.017453
    36 0.068439 -0.807653 3.686054 -1.465865 0.034016 -0.009746
    37 -4.004929 6.172707 4.754754 0.109464 1.126798 2.530885
    38 0.158352 -1.149811 5.804394 -0.869542 -0.330219 0.145630
    39 -1.083523 -1.463142 5.544399 -0.797671 -0.152790 -0.023939
    40 -6.289886 0.932434 13.569063 -0.126803 0.612110 2.869610
    41 1.327774 -0.766687 12.396328 -0.042499 0.015044 -0.366991
    42 -0.096140 1.828087 23.185329 -0.174564 -0.150844 -1.398593
    43 2.325478 -0.000003 6.169296 -0.215834 0.033026 1.848998
    44 0.000000 -3.152912 0.122169 1.961017 0.000000 0.000000
    45 1.068383 -10.478592 7.066338 0.292219 -1.282324 -3.141588
    46 0.000000 0.000000 2.279457 0.547137 -0.343566 0.107833
    47 2.479414 -8.323895 6.074242 -0.013939 0.671495 1.502088
    48 0.000003 -5.075260 5.105362 0.000000 0.000000 0.000000
    49 -1.068383 -10.478611 7.065971 0.292219 1.282324 3.141588
    50 -0.000488 0.000015 2.279600 0.547136 0.343566 0.107835
    51 -2.479401 -8.323895 6.074234 0.007709 0.673688 1.515238
    52 -5.790000 4.432083 14.255558 -3.528940 1.354260 -0.773326
    53 1.044540 -2.839314 19.743252 -0.620622 0.686405 -0.210296
    54 -2.655510 -1.533379 24.792648 -0.808757 -0.100403 0.503891
    55 -1.120216 -0.154385 9.795983 -0.050736 0.004332 0.444779
    56 -2.240372 -0.308788 19.592047 0.207408 -0.148160 0.888349
    57 -0.683205 2.877342 14.167089 -1.373821 0.258460 -1.742475
    58 -0.144958 -0.145317 7.579308 -1.334023 0.290235 -0.116702
    59 -0.038551 -0.936644 4.697678 -1.984977 0.256119 -0.317274
    60 -0.506317 8.500896 13.617329 -1.478162 0.337202 -1.901622
    61 0.385056 -0.460075 7.003435 -1.234576 0.576195 -0.268309
    62 -0.456360 -0.710276 5.057732 -1.756836 0.568386 -0.583885
    63 2.452194 -8.899408 11.597939 -1.191706 0.113355 -1.366705
    64 -0.680515 -0.903999 6.074242 -1.253709 -0.152830 -0.016052
    65 -0.248295 -0.666843 3.386627 -1.468274 -0.128199 0.106825
    66 0.717491 -3.784309 13.044010 -1.499173 0.042849 -1.470569
    67 -1.099228 -1.407673 8.017876 -1.151690 -0.009625 0.004275
    68 -0.064053 -0.807640 3.686100 -1.640826 -0.034940 0.011474
    69 4.004906 6.172710 4.754800 -0.671598 -0.937224 -1.499053
    70 -0.158381 -1.149773 5.804405 -0.244061 0.556080 0.597835
    71 1.078559 -2.386406 5.215008 -0.771826 1.022903 0.023955
    72 6.289963 0.932404 13.569109 -0.126801 -0.612098 -2.869612
    73 -1.327759 -0.766682 12.396324 -0.035747 -0.013785 0.311414
    74 0.000017 -54.999996 0.000000 0.000000 0.000000 -1.570796
  time 3
    0 0.000000 0.000000 -1.500000 0.000000 0.000000 0.000000
    1 -10.521344 -5.760963 66.994621 3.097005 -0.050653 -3.139334
    2 -5.038845 13.380397 12.372589 -0.042667 0.531551 0.463121
    3 -0.000034 0.000012 24.761454 -0.648655 -0.075336 0.203067
    4 0.000017 0.000000 24.344809 1.518869 -0.507082 -0.181716
    5 0.002333 -1.019846 24.031336 0.389585 -0.042710 0.017201
    6 0.000034 0.000008 13.404741 -0.000001 -0.000009 0.064016
    7 10.398263 -5.760962 66.994675 3.097005 0.050653 3.139334
    8 -0.922070 2.933694 13.387387 0.687206 -0.521487 0.405213
    9 -0.000004 -0.000006 24.761459 -1.297318 0.150463 -0.427356
    10 -0.000007 0.000004 24.344891 1.485532 0.174077 0.032125
    11 -0.002360 -1.019903 24.031330 0.389594 -0.042695 -0.017219
    12 0.000000 -0.000002 13.404737 0.000001 0.000005 -0.170318
    13 -0.061540 -5.245835 72.927078 0.000000 0.000000 0.000000
    14 2.981884 7.667264 -12.577929 0.210632 -0.012883 -0.543607
    15 0.000000 -0.005608 -1.146812 -0.052786 0.072775 0.007155
    16 0.030770 -0.240000 8.906021 -0.004138 0.000000 0.000000
    17 0.437537 -0.323373 0.077729 0.018166 0.054638 0.061983
    18 0.030770 -0.276858 8.905140 0.056125 0.004134 -0.000049
    19 0.346401 -1.233537 -0.130086 0.498859 0.138282 0.051521
    20 5.669724 4.435303 14.302868 1.891063 -1.264933 1.221310
    21 -1.044571 -2.839317 19.743267 -0.555315 -0.522825 0.139323
    22 2.655533 -1.533369 24.792658 -0.854092 0.099104 -0.722572
    23 1.120163 -0.154394 9.796035 -0.015346 0.001057 -0.133246
    24 2.240311 -0.308786 19.592051 -0.635231 -0.706410 -0.174057
    25 0.683151 2.877354 14.167051 -1.511326 -0.211747 1.554295
    26 0.144936 -0.145374 7.579252 -1.768092 -0.243254 0.235289
    27 0.091660 -0.906685 4.702850 -1.587439 -0.182555 0.191106
    28 0.506271 8.500866 13.617253 -1.470526 -0.303331 1.571638
    29 -0.384987 -0.460049 7.003448 -1.747417 -0.440906 0.551335
    30 0.561516 -0.596954 5.061852 -1.494372 -0.380557 0.386326
    31 -2.452171 -8.899406 11.597897 -1.564465 -0.075967 1.475308
    32 0.680496 -0.903999 6.074253 -1.628053 0.173822 -0.014264
    33 0.245514 -0.661150 3.388004 -1.484370 0.109511 -0.099205
    34 -0.717484 -3.784271 13.043911 -1.593546 -0.028646 1.464722
    35 1.099216 -1.407745 8.017889 -1.782123 0.031968 -0.017453
    36 0.068439 -0.807653 3.686054 -1.465865 0.034016 -0.009746
    37 -4.004929 6.172707 4.754754 0.109464 1.126798 2.530885
    38 0.158352 -1.149811 5.804394 -0.869542 -0.330219 0.145630
    39 -1.083523 -1.463142 5.544399 -0.797671 -0.152790 -0.023939
    40 -6.289886 0.932434 13.569063 -0.126803 0.612110 2.869610
    41 1.327774 -0.766687 12.396328 -0.049139 0.015907 -0.421224
    42 -0.096140 1.828087 23.185329 -0.202061 -0.223022 -1.353867
    43 2.325478 -0.000003 6.169296 -0.118042 0.075362 1.909546
    44 0.000000 -3.152912 0.122169 1.961017 0.000000 0.000000
    45 1.068383 -10.478592 7.066338 0.292219 -1.282324 -3.141588
    46 0.000000 0.000000 2.279457 0.547137 -0.343566 0.107833
    47 2.479414 -8.323895 6.074242 -0.020572 0.539961 1.326831
    48 0.000003 -5.075260 5.105362 0.000000 0.000000 0.000000
    49 -1.068383 -10.478611 7.065971 0.292219 1.282324 3.141588
    50 -0.000488 0.000015 2.279600 0.547136 0.343566 0.107835
    51 -2.479401 -8.323895 6.074234 -0.001369 0.539164 1.336270
    52 -5.790000 4.432083 14.255558 -4.005256 1.318870 -1.088845
    53 1.044540 -2.839314 19.743252 -0.635649 0.545095 -0.156355
    54 -2.655510 -1.533379 24.792648 -0.953745 -0.109916 0.503891
    55 -1.120216 -0.154385 9.795983 -0.071553 0.013309 0.641111
    56 -2.240372 -0.308788 19.592047 0.057194 -0.376520 1.292863
    57 -0.683205 2.877342 14.167089 -1.182564 0.290018 -1.695666
    58 -0.144958 -0.145317 7.579308 -1.207875 0.276501 -0.088263
    59 -0.038551 -0.936644 4.697678 -1.858940 0.262015 -0.286377
    60 -0.506317 8.500896 13.617329 -1.282816 0.369087 -1.816526
    61 0.385056 -0.460075 7.003435 -1.093120 0.552875 -0.201437
    62 -0.456360 -0.710276 5.057732 -1.612013 0.570693 -0.510711
    63 2.452194 -8.899408 11.597939 -1.006492 0.117932 -1.377430
    64 -0.680515 -0.903999 6.074242 -1.131953 -0.138988 -0.021541
    65 -0.248295 -0.666843 3.386627 -1.345129 -0.129937 0.095500
    66 0.717491 -3.784309 13.044010 -1.315245 0.071791 -1.478035
    67 -1.099228 -1.407673 8.017876 -1.029863 -0.005742 0.002885
    68 -0.064053 -0.807640 3.686100 -1.518547 -0.032483 0.007747
    69 4.004906 6.172710 4.754800 -0.567018 -0.930411 -1.502164
    70 -0.158381 -1.149773 5.804405 -0.181590 0.472046 0.588751
    71 1.078559 -2.386406 5.215008 -0.618037 0.969297 0.111168
    72 6.289963 0.932404 13.569109 -0.126801 -0.612098 -2.869612
    73 -1.327759 -0.766682 12.396324 -0.037006 -0.014025 0.321407
    74 0.000017 -54.999996 0.000000 0.000000 0.000000 -1.570796
  time 4
    0 0.000000 0.000000 -1.500000 0.000000 0.000000 0.000000
    1 -10.521344 -5.760963 66.994621 3.097005 -0.050653 -3.139334
    2 -3.390357 12.901594 13.673212 -0.028867 0.527125 0.431752
    3 -0.000034 0.000012 24.761454 -0.782884 -0.090892 0.210600
    4 0.000017 0.000000 24.344809 1.637971 -0.481980 -0.205310
    5 0.002333 -1.019846 24.031336 0.389585 -0.042710 0.017213
    6 0.000034 0.000008 13.404741 -0.000001 -0.000009 0.069120
    7 10.398263 -5.760962 66.994675 3.097005 0.050653 3.139334
    8 0.406096 3.320865 14.736197 0.751871 -0.526279 0.328885
    9 -0.000004 -0.000006 24.761459 -1.359630 0.157666 -0.362758
    10 -0.000007 0.000004 24.344891 1.510315 0.202941 0.056381
    11 -0.002360 -1.019903 24.031330 0.389594 -0.042695 -0.017219
    12 0.000000 -0.000002 13.404737 0.000001 0.000005 -0.121303
    13 -0.061540 -5.245835 72.927078 0.000000 0.000000 0.000000
    14 1.641999 7.818658 -13.884732 0.173123 -0.005106 -0.492141
    15 0.000000 -0.005608 -1.146812 -0.043599 0.071285 0.005987
    16 0.030770 -0.240000 8.906021 -0.004138 0.000000 0.000000
    17 0.363316 0.477433 0.120699 -0.119524 0.052739 0.051281
    18 0.030770 -0.276858 8.905140 0.056125 0.004134 -0.000049
    19 0.240929 -1.561672 -0.200400 0.595942 0.095575 0.047350
    20 5.669724 4.435303 14.302868 1.847325 -1.260741 1.356819
    21 -1.044571 -2.839317 19.743267 -0.725069 -0.511136 0.151055
    22 2.655533 -1.533369 24.792658 -0.894798 0.100795 -0.746995
    23 1.120163 -0.154394 9.796035 -0.026839 0.000530 -0.232966
    24 2.240311 -0.308786 19.592051 -0.424080 -0.707423 -0.418436
    25 0.683151 2.877354 14.167051 -1.511326 -0.211747 1.554295
    26 0.144936 -0.145374 7.579252 -1.768092 -0.243254 0.235289
    27 0.091660 -0.906685 4.702850 -1.587439 -0.182543 0.191106
    28 0.506271 8.500866 13.617253 -1.470526 -0.303331 1.571638
    29 -0.384987 -0.460049 7.003448 -1.747417 -0.440906 0.551335
    30 0.561516 -0.596954 5.061852 -1.494372 -0.380557 0.386326
    31 -2.452171 -8.899406 11.597897 -1.564465 -0.075967 1.475308
    32 0.680496 -0.903999 6.074253 -1.628053 0.173822 -0.014264
    33 0.245514 -0.661150 3.388004 -1.484370 0.109511 -0.099205
    34 -0.717484 -3.784271 13.043911 -1.593546 -0.028646 1.464722
    35 1.099216 -1.407745 8.017889 -1.782123 0.031968 -0.017453
    36 0.068439 -0.807653 3.686054 -1.465865 0.034016 -0.009746
    37 -4.004929 6.172707 4.754754 0.109464 1.126798 2.530885
    38 0.158352 -1.149811 5.804394 -0.869542 -0.330219 0.145630
    39 -1.083523 -1.463142 5.544399 -0.797671 -0.152790 -0.023939
    40 -6.289886 0.932434 13.569063 -0.126803 0.612110 2.869610
    41 1.327774 -0.766687 12.396328 -0.053321 0.016254 -0.455220
    42 -0.096140 1.828087 23.185329 -0.229832 -0.281561 -1.314765
    43 2.325478 -0.000003 6.169296 -0.017145 0.096067 1.942673
    44 0.000000 -3.152912 0.122169 1.961017 0.000000 0.000000
    45 1.068383 -10.478592 7.066338 0.292219 -1.282324 -3.141588
    46 0.000000 0.000000 2.279457 0.547137 -0.343566 0.107833
    47 2.479414 -8.323895 6.074242 -0.024460 0.448952 1.207160
    48 0.000003 -5.075260 5.105362 0.000000 0.000000 0.000000
    49 -1.068383 -10.478611 7.065971 0.292219 1.282324 3.141588
    50 -0.000488 0.000015 2.279600 0.547136 0.343566 0.107835
    51 -2.479401 -8.323895 6.074234 -0.006791 0.443906 1.213829
    52 -5.790000 4.432083 14.255558 -4.465757 1.251705 -1.353296
    53 1.044540 -2.839314 19.743252 -0.622069 0.440332 -0.118009
    54 -2.655510 -1.533379 24.792648 -1.125707 -0.123908 0.484656
    55 -1.120216 -0.154385 9.795983 -0.076611 0.016257 0.691928
    56 -2.240372 -0.308788 19.592047 -0.021922 -0.291176 1.405677
    57 -0.683205 2.877342 14.167089 -1.023332 0.309060 -1.652794
    58 -0.144958 -0.145317 7.579308 -1.125647 0.265691 -0.070706
    59 -0.038551 -0.936644 4.697678 -1.775901 0.263837 -0.265728
    60 -0.506317 8.500896 13.617329 -1.119223 0.383070 -1.742078
    61 0.385056 -0.460075 7.003435 -1.002644 0.533373 -0.160490
    62 -0.456360 -0.710276 5.057732 -1.517035 0.567372 -0.462759
    63 2.452194 -8.899408 11.597939 -0.854515 0.123137 -1.385510
    64 -0.680515 -0.903999 6.074242 -1.052130 -0.129508 -0.024261
    65 -0.248295 -0.666843 3.386627 -1.264323 -0.130380 0.087949
    66 0.717491 -3.784309 13.044010 -1.164047 0.096288 -1.480131
    67 -1.099228 -1.407673 8.017876 -0.949785 -0.003081 0.002178
    68 -0.064053 -0.807640 3.686100 -1.438360 -0.030661 0.005470
    69 4.004906 6.172710 4.754800 -0.446025 -0.922240 -1.504293
    70 -0.158381 -1.149773 5.804405 -0.140013 0.415284 0.579491
    71 1.078559 -2.386406 5.215008 -0.524732 0.929169 0.158519
    72 6.289963 0.932404 13.569109 -0.126801 -0.612098 -2.869612
    73 -1.327759 -0.766682 12.396324 -0.036311 -0.013893 0.315994
    74 0.000017 -54.999996 0.000000 0.000000 0.000000 -1.570796
  time 5
    0 0.000000 0.000000 -1.500000 0.000000 0.000000 0.000000
    1 -10.521344 -5.760963 66.994621 3.097005 -0.050653 -3.139334
    2 -1.663742 12.312299 16.005365 -0.003725 0.529408 0.398766
    3 -0.000034 0.000012 24.761454 -0.966831 -0.112189 0.211455
    4 0.000017 0.000000 24.344809 1.798747 -0.456629 -0.236791
    5 0.002333 -1.019846 24.031336 0.389585 -0.042710 0.017201
    6 0.000034 0.000008 13.404741 -0.000001 -0.000009 0.069542
    7 10.398263 -5.760962 66.994675 3.097005 0.050653 3.139334
    8 1.913954 3.695546 17.119095 0.854670 -0.534473 0.235146
    9 -0.000004 -0.000006 24.761459 -1.473695 0.170849 -0.290445
    10 -0.000007 0.000004 24.344891 1.559559 0.237271 0.091208
    11 -0.002360 -1.019903 24.031330 0.389594 -0.042695 -0.017219
    12 0.000000 -0.000002 13.404737 0.000001 0.000005 -0.062885
    13 -0.061540 -5.245835 72.927078 0.000000 0.000000 0.000000
    14 0.173204 7.970052 -16.227967 0.132478 0.003393 -0.436952
    15 0.000000 -0.005608 -1.146812 -0.033615 0.069685 0.004655
    16 0.030770 -0.240000 8.906021 -0.004138 0.000000 0.000000
    17 0.261750 0.821193 0.120699 -0.177290 0.041800 0.056392
    18 0.030770 -0.276858 8.905140 0.056125 0.004134 -0.000049
    19 0.197959 -1.698395 -0.235558 0.639694 0.075354 0.043203
    20 5.669724 4.435303 14.302868 1.831247 -1.257429 1.411827
    21 -1.044571 -2.839317 19.743267 -0.909989 -0.530705 0.174095
    22 2.655533 -1.533369 24.792658 -0.958461 0.106751 -0.695399
    23 1.120163 -0.154394 9.796035 -0.039171 -0.001316 -0.341206
    24 2.240311 -0.308786 19.592051 -0.224766 -0.650787 -0.684178
    25 0.683151 2.877354 14.167051 -1.511326 -0.211747 1.554295
    26 0.144936 -0.145374 7.579252 -1.768092 -0.243254 0.235289
    27 0.091660 -0.906685 4.702850 -1.587439 -0.182555 0.191106
    28 0.506271 8.500866 13.617253 -1.470526 -0.303331 1.571638
    29 -0.384987 -0.460049 7.003448 -1.747417 -0.440906 0.551335
    30 0.561516 -0.596954 5.061852 -1.494372 -0.380557 0.386326
    31 -2.452171 -8.899406 11.597897 -1.564465 -0.075967 1.475308
    32 0.680496 -0.903999 6.074253 -1.628053 0.173822 -0.014264
    33 0.245514 -0.661150 3.388004 -1.484370 0.109511 -0.099205
    34 -0.717484 -3.784271 13.043911 -1.593546 -0.028646 1.464722
    35 1.099216 -1.407745 8.017889 -1.782123 0.031968 -0.017453
    36 0.068439 -0.807653 3.686054 -1.465865 0.034016 -0.009746
    37 -4.004929 6.172707 4.754754 0.109464 1.126798 2.530885
    38 0.158352 -1.149811 5.804394 -0.869542 -0.330219 0.145630
    39 -1.083523 -1.463142 5.544399 -0.797671 -0.152790 -0.023939
    40 -6.289886 0.932434 13.569063 -0.126803 0.612110 2.869610
    41 1.327774 -0.766687 12.396328 -0.053549 0.016266 -0.457028
    42 -0.096140 1.828087 23.185329 -0.242827 -0.305524 -1.297889
    43 2.325478 -0.000003 6.169296 0.053716 0.098237 1.905036
    44 0.000000 -3.152912 0.122169 1.961017 0.000000 0.000000
    45 1.068383 -10.478592 7.066338 0.292219 -1.282324 -3.141588
    46 0.000000 0.000000 2.279457 0.547137 -0.343566 0.107833
    47 2.479414 -8.323895 6.074242 -0.025629 0.432563 1.170867
    48 0.000003 -5.075260 5.105362 0.000000 0.000000 0.000000
    49 -1.068383 -10.478611 7.065971 0.292219 1.282324 3.141588
    50 -0.000488 0.000015 2.279600 0.547136 0.343566 0.107835
    51 -2.479401 -8.323895 6.074234 -0.008358 0.424486 1.177518
    52 -5.790000 4.432083 14.255558 -4.860115 1.162816 -1.532853
    53 1.044540 -2.839314 19.743252 -0.544706 0.395815 -0.102768
    54 -2.655510 -1.533379 24.792648 -1.314378 -0.141833 0.485489
    55 -1.120216 -0.154385 9.795983 -0.085923 0.022681 0.789808
    56 -2.240372 -0.308788 19.592047 -0.122039 -0.077419 1.596764
    57 -0.683205 2.877342 14.167089 -0.956709 0.315030 -1.634083
    58 -0.144958 -0.145317 7.579308 -1.095404 0.261352 -0.064498
    59 -0.038551 -0.936644 4.697678 -1.745378 0.264089 -0.258106
    60 -0.506317 8.500896 13.617329 -1.050814 0.385561 -1.710492
    61 0.385056 -0.460075 7.003435 -0.969967 0.525496 -0.146203
    62 -0.456360 -0.710276 5.057732 -1.482008 0.565044 -0.445172
    63 2.452194 -8.899408 11.597939 -0.791264 0.125646 -1.388584
    64 -0.680515 -0.903999 6.074242 -1.022810 -0.126009 -0.025040
    65 -0.248295 -0.666843 3.386627 -1.234473 -0.130356 0.085169
    66 0.717491 -3.784309 13.044010 -1.101076 0.106499 -1.479883
    67 -1.099228 -1.407673 8.017876 -0.920477 -0.002111 0.001974
    68 -0.064053 -0.807640 3.686100 -1.408648 -0.029954 0.004655
    69 4.004906 6.172710 4.754800 -0.388502 -0.918291 -1.504620
    70 -0.158381 -1.149773 5.804405 -0.124735 0.394337 0.575506
    71 1.078559 -2.386406 5.215008 -0.492293 0.913700 0.173865
    72 6.289963 0.932404 13.569109 -0.126801 -0.612098 -2.869612
    73 -1.327759 -0.766682 12.396324 -0.036407 -0.013917 0.316827
    74 0.000017 -54.999996 0.000000 0.000000 0.000000 -1.570796
  time 6
    0 0.000000 0.000000 -1.500000 0.000000 0.000000 0.000000
    1 -10.521344 -5.760963 66.994621 3.097005 -0.050653 -3.139334
    2 0.000371 11.686172 18.875706 0.052775 0.549671 0.371328
    3 -0.000034 0.000012 24.761454 -1.218014 -0.141252 0.201520
    4 0.000017 0.000000 24.344809 1.951570 -0.435646 -0.283482
    5 0.002333 -1.019846 24.031336 0.440509 -0.043525 0.014984
    6 0.000034 0.000008 13.404741 -0.000001 -0.000009 0.060704
    7 10.398263 -5.760962 66.994675 3.097005 0.050653 3.139334
    8 3.480409 4.032759 20.019038 0.975213 -0.536119 0.136126
    9 -0.000004 -0.000006 24.761459 -1.602169 0.185698 -0.212820
    10 -0.000007 0.000004 24.344891 1.615902 0.273934 0.138164
    11 -0.002360 -1.019903 24.031330 0.389594 -0.042695 -0.017219
    12 0.000000 -0.000002 13.404737 0.000001 0.000005 0.003477
    13 -0.061540 -5.245835 72.927078 0.000000 0.000000 0.000000
    14 -1.311216 8.133092 -19.134479 0.091896 0.012047 -0.382303
    15 0.000000 -0.005608 -1.146812 -0.023663 0.068038 0.003324
    16 0.030770 -0.240000 8.906021 -0.004138 0.000000 0.000000
    17 0.128933 0.528216 0.144137 -0.130110 0.018568 0.077717
    18 0.030770 -0.276858 8.905140 0.056125 0.004134 -0.000049
    19 0.233117 -1.655425 -0.231651 0.634046 0.082657 0.047518
    20 5.669724 4.435303 14.302868 1.558007 -1.293544 1.618828
    21 -1.044571 -2.839317 19.743267 -1.143339 -0.576679 0.222939
    22 2.655533 -1.533369 24.792658 -1.083530 0.114936 -0.738584
    23 1.120163 -0.154394 9.796035 -0.051227 -0.004504 -0.449342
    24 2.240311 -0.308786 19.592051 -0.085985 -0.549073 -0.926143
    25 0.683151 2.877354 14.167051 -1.511326 -0.211747 1.554295
    26 0.144936 -0.145374 7.579252 -1.768092 -0.243254 0.235289
    27 0.091660 -0.906685 4.702850 -1.587439 -0.182555 0.191106
    28 0.506271 8.500866 13.617253 -1.470526 -0.303331 1.571638
    29 -0.384987 -0.460049 7.003448 -1.747417 -0.440906 0.551335
    30 0.561516 -0.596954 5.061852 -1.494372 -0.380557 0.386326
    31 -2.452171 -8.899406 11.597897 -1.564465 -0.075967 1.475308
    32 0.680496 -0.903999 6.074253 -1.628053 0.173822 -0.014264
    33 0.245514 -0.661150 3.388004 -1.484370 0.109511 -0.099205
    34 -0.717484 -3.784271 13.043911 -1.593546 -0.028646 1.464722
    35 1.099216 -1.407745 8.017889 -1.782123 0.031968 -0.017453
    36 0.068439 -0.807653 3.686054 -1.465865 0.034016 -0.009746
    37 -4.004929 6.172707 4.754754 0.109464 1.126798 2.530885
    38 0.158352 -1.149811 5.804394 -0.869542 -0.330219 0.145630
    39 -1.083523 -1.463142 5.544399 -0.797671 -0.152790 -0.023939
    40 -6.289886 0.932434 13.569063 -0.126803 0.612110 2.869610
    41 1.327774 -0.766687 12.396328 -0.062334 0.016554 -0.528284
    42 -0.096140 1.828087 23.185329 -0.210622 -0.284907 -1.327238
    43 2.325478 -0.000003 6.169296 0.120185 0.084694 1.834351
    44 0.000000 -3.152912 0.122169 1.961017 0.000000 0.000000
    45 1.068383 -10.478592 7.066338 0.292219 -1.282324 -3.141588
    46 0.000000 0.000000 2.279457 0.547137 -0.343566 0.107833
    47 2.479414 -8.323895 6.074242 -0.027342 0.571424 1.175642
    48 0.000003 -5.075260 5.105362 0.000000 0.000000 0.000000
    49 -1.068383 -10.478611 7.065971 0.292219 1.282324 3.141588
    50 -0.000488 0.000015 2.279600 0.547136 0.343566 0.107835
    51 -2.479401 -8.323895 6.074234 -0.008679 0.565625 1.183267
    52 -5.790000 4.432083 14.255558 -5.193796 1.066118 -1.648982
    53 1.044540 -2.839314 19.743252 -0.490608 0.484722 -0.122091
    54 -2.655510 -1.533379 24.792648 -1.504608 -0.161985 0.505027
    55 -1.120216 -0.154385 9.795983 -0.091555 0.027283 0.852759
    56 -2.240372 -0.308788 19.592047 -0.142582 0.137625 1.699525
    57 -0.683205 2.877342 14.167089 -0.964876 0.314373 -1.636391
    58 -0.144958 -0.145317 7.579308 -1.099055 0.261880 -0.065229
    59 -0.038551 -0.936644 4.697678 -1.749027 0.264077 -0.259017
    60 -0.506317 8.500896 13.617329 -1.059186 0.385353 -1.714356
    61 0.385056 -0.460075 7.003435 -0.973679 0.526373 -0.147765
    62 -0.456360 -0.710276 5.057732 -1.486332 0.565432 -0.447331
    63 2.452194 -8.899408 11.597939 -0.799026 0.125321 -1.388251
    64 -0.680515 -0.903999 6.074242 -1.026367 -0.126416 -0.024992
    65 -0.248295 -0.666843 3.386627 -1.237887 -0.130416 0.085481
    66 0.717491 -3.784309 13.044010 -1.108798 0.105240 -1.479945
    67 -1.099228 -1.407673 8.017876 -0.924007 -0.002207 0.001974
    68 -0.064053 -0.807640 3.686100 -1.412137 -0.030062 0.004751
    69 4.004906 6.172710 4.754800 -0.395655 -0.918792 -1.504620
    70 -0.158381 -1.149773 5.804405 -0.126479 0.396747 0.575916
    71 1.078559 -2.386406 5.215008 -0.496211 0.915599 0.172038
    72 6.289963 0.932404 13.569109 -0.126801 -0.612098 -2.869612
    73 -1.327759 -0.766682 12.396324 -0.038012 -0.014240 0.330105
    74 0.000017 -54.999996 0.000000 0.000000 0.000000 -1.570796
  time 7
    0 0.000000 0.000000 -1.500000 0.000000 0.000000 0.000000
    1 -10.521344 -5.760963 66.994621 3.097005 -0.050653 -3.139334
    2 1.496511 11.096877 21.521801 0.133801 0.585439 0.353984
    3 -0.000034 0.000012 24.761454 -1.489807 -0.172663 0.182546
    4 0.000017 0.000000 24.344809 2.038369 -0.423650 -0.344541
    5 0.002333 -1.019846 24.031336 0.561807 -0.045011 0.009519
    6 0.000034 0.000008 13.404741 -0.000001 -0.000009 0.043956
    7 10.398263 -5.760962 66.994675 3.097005 0.050653 3.139334
    8 4.933578 4.332504 22.716658 1.082789 -0.528108 0.047916
    9 -0.000004 -0.000006 24.761459 -1.703144 0.197383 -0.136235
    10 -0.000007 0.000004 24.344891 1.659531 0.307953 0.191635
    11 -0.002360 -1.019903 24.031330 0.389594 -0.042695 -0.017219
    12 0.000000 -0.000002 13.404737 0.000001 0.000005 0.071127
    13 -0.061540 -5.245835 72.927078 0.000000 0.000000 0.000000
    14 -2.686258 8.284486 -21.815679 0.054675 0.020047 -0.332819
    15 0.000000 -0.005608 -1.146812 -0.014541 0.066563 0.002019
    16 0.030770 -0.240000 8.906021 -0.004138 0.000000 0.000000
    17 -0.027321 -0.182743 0.144137 -0.017251 -0.019604 0.106109
    18 0.030770 -0.276858 8.905140 0.056125 0.004134 -0.000049
    19 0.334682 -1.526515 -0.208213 0.614494 0.109194 0.058376
    20 5.669724 4.435303 14.302868 0.941280 -1.319794 2.109016
    21 -1.044571 -2.839317 19.743267 -1.329629 -0.524286 0.178466
    22 2.655533 -1.533369 24.792658 -1.274735 0.122852 -0.929604
    23 1.120163 -0.154394 9.796035 -0.061954 -0.008554 -0.548648
    24 2.240311 -0.308786 19.592051 -0.017618 -0.433822 -1.126369
    25 0.683151 2.877354 14.167051 -1.511326 -0.211747 1.554295
    26 0.144936 -0.145374 7.579252 -1.768092 -0.243254 0.235289
    27 0.091660 -0.906685 4.702850 -1.587485 -0.182555 0.191106
    28 0.506271 8.500866 13.617253 -1.470526 -0.303331 1.571638
    29 -0.384987 -0.460049 7.003448 -1.747417 -0.440906 0.551347
    30 0.561516 -0.596954 5.061852 -1.494407 -0.380557 0.386326
    31 -2.452171 -8.899406 11.597897 -1.564465 -0.075967 1.475308
    32 0.680496 -0.903999 6.074253 -1.628053 0.173822 -0.014264
    33 0.245514 -0.661150 3.388004 -1.484423 0.109511 -0.099205
    34 -0.717484 -3.784271 13.043911 -1.593590 -0.028646 1.464722
    35 1.099216 -1.407745 8.017889 -1.782123 0.031968 -0.017453
    36 0.068439 -0.807653 3.686054 -1.465865 0.034016 -0.009746
    37 -4.004929 6.172707 4.754754 0.109464 1.126798 2.530885
    38 0.158352 -1.149811 5.804394 -0.869542 -0.330219 0.145630
    39 -1.083523 -1.463142 5.544399 -0.797671 -0.152790 -0.023939
    40 -6.289886 0.932434 13.569063 -0.126803 0.612110 2.869610
    41 1.327774 -0.766687 12.396328 -0.083199 0.014660 -0.698265
    42 -0.096140 1.828087 23.185329 -0.139448 -0.229873 -1.396453
    43 2.325478 -0.000003 6.169296 0.215733 0.060618 1.790327
    44 0.000000 -3.152912 0.122169 1.961017 0.000000 0.000000
    45 1.068383 -10.478592 7.066338 0.292219 -1.282324 -3.141588
    46 0.000000 0.000000 2.279457 0.547137 -0.343566 0.107833
    47 2.479414 -8.323895 6.074242 -0.036694 0.872859 1.145175
    48 0.000003 -5.075260 5.105362 0.000000 0.000000 0.000000
    49 -1.068383 -10.478611 7.065971 0.292219 1.282324 3.141588
    50 -0.000488 0.000015 2.279600 0.547136 0.343566 0.107835
    51 -2.479401 -8.323895 6.074234 -0.012937 0.874410 1.154333
    52 -5.790000 4.432083 14.255558 -5.475042 0.973574 -1.726304
    53 1.044540 -2.839314 19.743252 -0.615167 0.652148 -0.195001
    54 -2.655510 -1.533379 24.792648 -1.688447 -0.181413 0.599235
    55 -1.120216 -0.154385 9.795983 -0.092562 0.028158 0.864239
    56 -2.240372 -0.308788 19.592047 -0.138229 0.278265 1.703992
    57 -0.683205 2.877342 14.167089 -0.987892 0.312383 -1.642868
    58 -0.144958 -0.145317 7.579308 -1.109245 0.263366 -0.067350
    59 -0.038551 -0.936644 4.697678 -1.759382 0.264005 -0.261605
    60 -0.506317 8.500896 13.617329 -1.082869 0.384679 -1.725274
    61 0.385056 -0.460075 7.003435 -0.985075 0.529211 -0.152757
    62 -0.456360 -0.710276 5.057732 -1.497943 0.566186 -0.453158
    63 2.452194 -8.899408 11.597939 -0.820800 0.124438 -1.387154
    64 -0.680515 -0.903999 6.074242 -1.036392 -0.127650 -0.024693
    65 -0.248295 -0.666843 3.386627 -1.248045 -0.130356 0.086439
    66 0.717491 -3.784309 13.044010 -1.130519 0.101717 -1.480069
    67 -1.099228 -1.407673 8.017876 -0.934038 -0.002578 0.002082
    68 -0.064053 -0.807640 3.686100 -1.422209 -0.030266 0.005014
    69 4.004906 6.172710 4.754800 -0.415833 -0.920172 -1.504456
    70 -0.158381 -1.149773 5.804405 -0.131746 0.403921 0.577352
    71 1.078559 -2.386406 5.215008 -0.507056 0.920837 0.166996
    72 6.289963 0.932404 13.569109 -0.126801 -0.612098 -2.869612
    73 -1.327759 -0.766682 12.396324 -0.045191 -0.015439 0.389139
    74 0.000017 -54.999996 0.000000 0.000000 0.000000 -1.570796
  time 8
    0 0.000000 0.000000 -1.500000 0.000000 0.000000 0.000000
    1 -10.521344 -5.760963 66.994621 3.097005 -0.050653 -3.139334
    2 2.734830 10.630351 23.136368 0.214076 0.626190 0.346513
    3 -0.000034 0.000012 24.761454 -1.695298 -0.196429 0.170289
    4 0.000017 0.000000 24.344809 2.034300 -0.417946 -0.402878
    5 0.002333 -1.019846 24.031336 0.706626 -0.045886 0.002820
    6 0.000034 0.000008 13.404741 -0.000001 -0.000009 0.029380
    7 10.398263 -5.760962 66.994675 3.097005 0.050653 3.139334
    8 6.109395 4.594781 24.335230 1.149928 -0.513879 -0.015374
    9 -0.000004 -0.000006 24.761459 -1.748627 0.202620 -0.071350
    10 -0.000007 0.000004 24.344891 1.678312 0.334417 0.236531
    11 -0.002360 -1.019903 24.031330 0.389594 -0.042695 -0.017219
    12 0.000000 -0.000002 13.404737 0.000001 0.000005 0.127184
    13 -0.061540 -5.245835 72.927078 0.000000 0.000000 0.000000
    14 -3.819105 8.400943 -23.437919 0.024079 0.026654 -0.292463
    15 0.000000 -0.005608 -1.146812 -0.006981 0.065324 0.000959
    16 0.030770 -0.240000 8.906021 -0.004138 0.000000 0.000000
    17 -0.191389 -1.026519 0.058197 0.115557 -0.069119 0.131188
    18 0.030770 -0.276858 8.905140 0.056125 0.004134 -0.000049
    19 0.467499 -1.378073 -0.176962 0.593047 0.146675 0.070816
    20 5.669724 4.435303 14.302868 0.602577 -1.307532 2.377638
    21 -1.044571 -2.839317 19.743267 -1.402569 -0.368100 0.062109
    22 2.655533 -1.533369 24.792658 -1.484123 0.132228 -1.103559
    23 1.120163 -0.154394 9.796035 -0.070439 -0.012677 -0.630259
    24 2.240311 -0.308786 19.592051 -0.001038 -0.334916 -1.281851
    25 0.683151 2.877354 14.167051 -1.511326 -0.211747 1.554295
    26 0.144936 -0.145374 7.579252 -1.768092 -0.243254 0.235289
    27 0.091660 -0.906685 4.702850 -1.587439 -0.182555 0.191106
    28 0.506271 8.500866 13.617253 -1.470526 -0.303331 1.571638
    29 -0.384987 -0.460049 7.003448 -1.747417 -0.440906 0.551347
    30 0.561516 -0.596954 5.061852 -1.494372 -0.380557 0.386326
    31 -2.452171 -8.899406 11.597897 -1.564465 -0.075967 1.475308
    32 0.680496 -0.903999 6.074253 -1.628053 0.173822 -0.014264
    33 0.245514 -0.661150 3.388004 -1.484370 0.109499 -0.099205
    34 -0.717484 -3.784271 13.043911 -1.593546 -0.028646 1.464722
    35 1.099216 -1.407745 8.017889 -1.782123 0.031968 -0.017453
    36 0.068439 -0.807653 3.686054 -1.465865 0.034016 -0.009746
    37 -4.004929 6.172707 4.754754 0.109464 1.126798 2.530885
    38 0.158352 -1.149811 5.804394 -0.869542 -0.330219 0.145630
    39 -1.083523 -1.463142 5.544399 -0.797671 -0.152790 -0.023939
    40 -6.289886 0.932434 13.569063 -0.126803 0.612110 2.869610
    41 1.327774 -0.766687 12.396328 -0.104903 0.008776 -0.880448
    42 -0.096140 1.828087 23.185329 -0.065912 -0.154190 -1.477163
    43 2.325478 -0.000003 6.169296 0.320163 0.033764 1.761710
    44 0.000000 -3.152912 0.122169 1.961017 0.000000 0.000000
    45 1.068383 -10.478592 7.066338 0.292219 -1.282324 -3.141588
    46 0.000000 0.000000 2.279457 0.547137 -0.343566 0.107833
    47 2.479414 -8.323895 6.074242 -0.080545 1.231774 1.001054
    48 0.000003 -5.075260 5.105362 0.000000 0.000000 0.000000
    49 -1.068383 -10.478611 7.065971 0.292219 1.282324 3.141588
    50 -0.000488 0.000015 2.279600 0.547136 0.343566 0.107835
    51 -2.479401 -8.323895 6.074234 -0.039648 1.240511 1.013305
    52 -5.790000 4.432083 14.255558 -5.703471 0.894820 -1.779865
    53 1.044540 -2.839314 19.743252 -0.896065 0.702134 -0.285274
    54 -2.655510 -1.533379 24.792648 -1.851150 -0.194809 0.771824
    55 -1.120216 -0.154385 9.795983 -0.092682 0.028253 0.865653
    56 -2.240372 -0.308788 19.592047 -0.135327 0.377619 1.691964
    57 -0.683205 2.877342 14.167089 -1.023332 0.309060 -1.652794
    58 -0.144958 -0.145317 7.579308 -1.125647 0.265691 -0.070706
    59 -0.038551 -0.936644 4.697678 -1.775901 0.263837 -0.265740
    60 -0.506317 8.500896 13.617329 -1.119223 0.383096 -1.742078
    61 0.385056 -0.460075 7.003435 -1.002644 0.533373 -0.160475
    62 -0.456360 -0.710276 5.057732 -1.517035 0.567372 -0.462759
    63 2.452194 -8.899408 11.597939 -0.854475 0.123137 -1.385510
    64 -0.680515 -0.903999 6.074242 -1.052130 -0.129520 -0.024261
    65 -0.248295 -0.666843 3.386627 -1.264323 -0.130380 0.087949
    66 0.717491 -3.784309 13.044010 -1.164047 0.096288 -1.480131
    67 -1.099228 -1.407673 8.017876 -0.949841 -0.003081 0.002178
    68 -0.064053 -0.807640 3.686100 -1.438360 -0.030661 0.005470
    69 4.004906 6.172710 4.754800 -0.446025 -0.922240 -1.504293
    70 -0.158381 -1.149773 5.804405 -0.140048 0.415257 0.579491
    71 1.078559 -2.386406 5.215008 -0.524732 0.929169 0.158556
    72 6.289963 0.932404 13.569109 -0.126801 -0.612098 -2.869612
    73 -1.327759 -0.766682 12.396324 -0.059321 -0.016517 0.503968
    74 0.000017 -54.999996 0.000000 0.000000 0.000000 -1.570796
  time 9
    0 0.000000 0.000000 -1.500000 0.000000 0.000000 0.000000
    1 -10.521344 -5.760963 66.994621 3.097005 -0.050653 -3.139334
    2 3.582512 10.335703 23.764255 0.287109 0.669446 0.350314
    3 -0.000034 0.000012 24.761454 -1.818471 -0.210642 0.171430
    4 0.000017 0.000000 24.344809 1.970619 -0.414867 -0.445788
    5 0.002333 -1.019846 24.031336 0.827924 -0.045874 -0.002849
    6 0.000034 0.000008 13.404741 -0.000001 -0.000009 0.020458
    7 10.398263 -5.760962 66.994675 3.097005 0.050653 3.139334
    8 6.886762 4.794610 24.987155 1.179871 -0.500966 -0.051929
    9 -0.000004 -0.000006 24.761459 -1.755722 0.203447 -0.027891
    10 -0.000007 0.000004 24.344891 1.680700 0.351238 0.263645
    11 -0.002360 -1.019903 24.031330 0.389594 -0.042695 -0.017219
    12 0.000000 -0.000002 13.404737 0.000001 0.000005 0.162630
    13 -0.061540 -5.245835 72.927078 0.000000 0.000000 0.000000
    14 -4.592566 8.482463 -24.068789 0.003341 0.031110 -0.265319
    15 0.000000 -0.005608 -1.146812 -0.001846 0.064477 0.000253
    16 0.030770 -0.240000 8.906021 -0.004138 0.000000 0.000000
    17 -0.324205 -1.721853 -0.082432 0.224753 -0.116116 0.147081
    18 0.030770 -0.276858 8.905140 0.056125 0.004134 -0.000049
    19 0.596409 -1.256975 -0.141805 0.578892 0.183971 0.081638
    20 5.669724 4.435303 14.302868 0.602577 -1.307532 2.377638
    21 -1.044571 -2.839317 19.743267 -1.403596 -0.207843 -0.020238
    22 2.655533 -1.533369 24.792658 -1.676413 0.147906 -1.174727
    23 1.120163 -0.154394 9.796035 -0.075988 -0.015865 -0.685655
    24 2.240311 -0.308786 19.592051 -0.008218 -0.270176 -1.385702
    25 0.683151 2.877354 14.167051 -1.511326 -0.211735 1.554295
    26 0.144936 -0.145374 7.579252 -1.768092 -0.243254 0.235289
    27 0.091660 -0.906685 4.702850 -1.587439 -0.182555 0.191106
    28 0.506271 8.500866 13.617253 -1.470526 -0.303331 1.571638
    29 -0.384987 -0.460049 7.003448 -1.747417 -0.440906 0.551347
    30 0.561516 -0.596954 5.061852 -1.494372 -0.380557 0.386326
    31 -2.452171 -8.899406 11.597897 -1.564465 -0.075967 1.475308
    32 0.680496 -0.903999 6.074253 -1.628053 0.173822 -0.014264
    33 0.245514 -0.661150 3.388004 -1.484370 0.109499 -0.099205
    34 -0.717484 -3.784271 13.043911 -1.593546 -0.028634 1.464722
    35 1.099216 -1.407745 8.017889 -1.782123 0.031968 -0.017453
    36 0.068439 -0.807653 3.686054 -1.465865 0.034016 -0.009746
    37 -4.004929 6.172707 4.754754 0.109464 1.126798 2.530885
    38 0.158352 -1.149811 5.804394 -0.869542 -0.330219 0.145630
    39 -1.083523 -1.463142 5.544399 -0.797671 -0.152790 -0.023939
    40 -6.289886 0.932434 13.569063 -0.126803 0.612110 2.869610
    41 1.327774 -0.766687 12.396328 -0.115965 0.004042 -0.977967
    42 -0.096140 1.828087 23.185329 -0.014531 -0.083382 -1.543290
    43 2.325478 -0.000003 6.169296 0.412512 0.011047 1.740875
    44 0.000000 -3.152912 0.122169 1.961017 0.000000 0.000000
    45 1.068383 -10.478592 7.066338 0.292219 -1.282324 -3.141588
    46 0.000000 0.000000 2.279457 0.547137 -0.343566 0.107833
    47 2.479414 -8.323895 6.074242 -0.397073 1.463098 -0.187636
    48 0.000003 -5.075260 5.105362 0.000000 0.000000 0.000000
    49 -1.068383 -10.478611 7.065971 0.292219 1.282324 3.141588
    50 -0.000488 0.000015 2.279600 0.547136 0.343566 0.107835
    51 -2.479401 -8.323895 6.074234 -0.402159 1.470009 -0.279225
    52 -5.790000 4.432083 14.255558 -5.871510 0.837541 -1.817712
    53 1.044540 -2.839314 19.743252 -1.124868 0.632688 -0.271966
    54 -2.655510 -1.533379 24.792648 -1.963175 -0.201163 0.907381
    55 -1.120216 -0.154385 9.795983 -0.092358 0.027990 0.861981
    56 -2.240372 -0.308788 19.592047 -0.136778 0.440489 1.673577
    57 -0.683205 2.877342 14.167089 -1.069117 0.304305 -1.665426
    58 -0.144958 -0.145317 7.579308 -1.147662 0.268735 -0.075332
    59 -0.038551 -0.936644 4.697678 -1.798140 0.263501 -0.271289
    60 -0.506317 8.500896 13.617329 -1.166287 0.380216 -1.763689
    61 0.385056 -0.460075 7.003435 -1.026687 0.538928 -0.171209
    62 -0.456360 -0.710276 5.057732 -1.542444 0.568623 -0.475537
    63 2.452194 -8.899408 11.597939 -0.898022 0.121510 -1.383270
    64 -0.680515 -0.903999 6.074242 -1.073582 -0.132109 -0.023566
    65 -0.248295 -0.666843 3.386627 -1.285846 -0.130284 0.089975
    66 0.717491 -3.784309 13.044010 -1.207339 0.089229 -1.479920
    67 -1.099228 -1.407673 8.017876 -0.971247 -0.003813 0.002333
    68 -0.064053 -0.807640 3.686100 -1.459855 -0.031177 0.006057
    69 4.004906 6.172710 4.754800 -0.483444 -0.924790 -1.503802
    70 -0.158381 -1.149773 5.804405 -0.151210 0.430399 0.582187
    71 1.078559 -2.386406 5.215008 -0.549050 0.940411 0.146718
    72 6.289963 0.932404 13.569109 -0.126801 -0.612098 -2.869612
    73 -1.327759 -0.766682 12.396324 -0.073007 -0.016038 0.614957
    74 0.000017 -54.999996 0.000000 0.000000 0.000000 -1.570796
  time 10
    0 0.000000 0.000000 -1.500000 0.000000 0.000000 0.000000
    1 -10.521344 -5.760963 66.994621 3.097005 -0.050653 -3.139334
    2 3.891115 10.212933 24.055774 0.322703 0.691853 0.355862
    3 -0.000034 0.000012 24.761454 -1.866805 -0.216227 0.172244
    4 0.000017 0.000000 24.344809 1.936343 -0.414052 -0.465817
    5 0.002333 -1.019846 24.031336 0.878773 -0.045682 -0.005222
    6 0.000034 0.000008 13.404741 -0.000001 -0.000009 0.015606
    7 10.398263 -5.760962 66.994675 3.097005 0.050653 3.139334
    8 7.179740 4.869547 25.324358 1.193606 -0.496393 -0.066204
    9 -0.000004 -0.000006 24.761459 -1.761606 0.204118 -0.011633
    10 -0.000007 0.000004 24.344891 1.683023 0.357660 0.274974
    11 -0.002360 -1.019903 24.031330 0.389594 -0.042695 -0.017219
    12 0.000000 -0.000002 13.404737 0.000001 0.000005 0.176456
    13 -0.061540 -5.245835 72.927078 0.000000 0.000000 0.000000
    14 -4.877731 8.517400 -24.384225 -0.004244 0.032744 -0.255350
    15 0.000000 -0.005608 -1.146812 0.000036 0.064179 -0.000046
    16 0.030770 -0.240000 8.906021 -0.004138 0.000000 0.000000
    17 -0.390614 -2.014831 -0.156653 0.269640 -0.140361 0.155068
    18 0.030770 -0.276858 8.905140 0.056125 0.004134 -0.000049
    19 0.678443 -1.214005 -0.133992 0.576711 0.209027 0.089823
    20 5.669724 4.435303 14.302868 0.602577 -1.307532 2.377638
    21 -1.044571 -2.839317 19.743267 -1.340342 -0.104936 -0.071620
    22 2.655533 -1.533369 24.792658 -1.827954 0.166351 -1.166559
    23 1.120163 -0.154394 9.796035 -0.077989 -0.017111 -0.706075
    24 2.240311 -0.308786 19.592051 -0.014398 -0.247430 -1.424039
    25 0.683151 2.877354 14.167051 -1.511326 -0.211747 1.554295
    26 0.144936 -0.145374 7.579252 -1.768092 -0.243254 0.235289
    27 0.091660 -0.906685 4.702850 -1.587439 -0.182555 0.191106
    28 0.506271 8.500866 13.617253 -1.470526 -0.303331 1.571638
    29 -0.384987 -0.460049 7.003448 -1.747417 -0.440906 0.551347
    30 0.561516 -0.596954 5.061852 -1.494372 -0.380557 0.386326
    31 -2.452171 -8.899406 11.597897 -1.564465 -0.075967 1.475308
    32 0.680496 -0.903999 6.074253 -1.628053 0.173822 -0.014264
    33 0.245514 -0.661150 3.388004 -1.484370 0.109511 -0.099205
    34 -0.717484 -3.784271 13.043911 -1.593590 -0.028634 1.464722
    35 1.099216 -1.407745 8.017889 -1.782123 0.031968 -0.017453
    36 0.068439 -0.807653 3.686054 -1.465865 0.034016 -0.009746
    37 -4.004929 6.172707 4.754754 0.109464 1.126798 2.530885
    38 0.158352 -1.149811 5.804394 -0.869542 -0.330234 0.145630
    39 -1.083523 -1.463142 5.544399 -0.797671 -0.152790 -0.023939
    40 -6.289886 0.932434 13.569063 -0.126803 0.612110 2.869610
    41 1.327774 -0.766687 12.396328 -0.113844 0.005061 -0.958885
    42 -0.096140 1.828087 23.185329 0.004097 -0.052026 -1.570683
    43 2.325478 -0.000003 6.169296 0.471818 0.000022 1.723793
    44 0.000000 -3.152912 0.122169 1.961017 0.000000 0.000000
    45 1.068383 -10.478592 7.066338 0.292219 -1.282324 -3.141576
    46 0.000000 0.000000 2.279457 0.547137 -0.343566 0.107833
    47 2.479414 -8.323895 6.074242 -0.065538 1.374907 -1.117691
    48 0.000003 -5.075260 5.105362 0.000000 0.000000 0.000000
    49 -1.068383 -10.478611 7.065971 0.292219 1.282324 3.141588
    50 -0.000488 0.000015 2.279600 0.547136 0.343566 0.107835
    51 -2.479401 -8.323895 6.074234 -0.142537 1.371869 -1.174924
    52 -5.790000 4.432083 14.255558 -5.967942 0.808631 -1.843487
    53 1.044540 -2.839314 19.743252 -1.232508 0.587323 -0.237974
    54 -2.655510 -1.533379 24.792648 -2.003334 -0.203403 0.949033
    55 -1.120216 -0.154385 9.795983 -0.092047 0.027690 0.858308
    56 -2.240372 -0.308788 19.592047 -0.140138 0.471577 1.659400
    57 -0.683205 2.877342 14.167089 -1.122970 0.297937 -1.679969
    58 -0.144958 -0.145317 7.579308 -1.175125 0.272366 -0.081168
    59 -0.038551 -0.936644 4.697678 -1.825902 0.262950 -0.278180
    60 -0.506317 8.500896 13.617329 -1.221572 0.375650 -1.788849
    61 0.385056 -0.460075 7.003435 -1.056904 0.545497 -0.184853
    62 -0.456360 -0.710276 5.057732 -1.574168 0.569809 -0.491544
    63 2.452194 -8.899408 11.597939 -0.949331 0.119768 -1.380553
    64 -0.680515 -0.903999 6.074242 -1.100207 -0.135309 -0.022631
    65 -0.248295 -0.666843 3.386627 -1.312948 -0.130105 0.092516
    66 0.717491 -3.784309 13.044010 -1.258502 0.080960 -1.479263
    67 -1.099228 -1.407673 8.017876 -0.998146 -0.004747 0.002621
    68 -0.064053 -0.807640 3.686100 -1.486472 -0.031692 0.006824
    69 4.004906 6.172710 4.754800 -0.524855 -0.927590 -1.503147
    70 -0.158381 -1.149773 5.804405 -0.165092 0.449566 0.585381
    71 1.078559 -2.386406 5.215008 -0.580104 0.953736 0.131007
    72 6.289963 0.932404 13.569109 -0.126801 -0.612098 -2.869612
    73 -1.327759 -0.766682 12.396324 -0.079659 -0.015235 0.669226
    74 0.000017 -54.999996 0.000000 0.000000 0.000000 -1.570796
  time 11
    0 0.000000 0.000000 -1.500000 0.000000 0.000000 0.000000
    1 -10.521344 -5.760963 66.994621 3.097005 -0.050653 -3.139334
    2 3.891115 10.212933 24.055774 0.333771 0.699090 0.359794
    3 -0.000034 0.000012 24.761454 -1.874204 -0.217090 0.173018
    4 0.000017 0.000000 24.344809 1.922781 -0.414460 -0.470160
    5 0.002333 -1.019846 24.031336 0.889600 -0.045634 -0.005701
    6 0.000034 0.000008 13.404741 -0.000001 -0.000009 0.014109
    7 10.398263 -5.760962 66.994675 3.097005 0.050653 3.139334
    8 7.179740 4.869547 25.301878 1.193521 -0.496393 -0.066204
    9 -0.000004 -0.000006 24.761459 -1.761551 0.204106 -0.011633
    10 -0.000007 0.000004 24.344891 1.683023 0.357660 0.274953
    11 -0.002360 -1.019903 24.031330 0.389594 -0.042695 -0.017219
    12 0.000000 -0.000002 13.404737 0.000001 0.000005 0.176456
    13 -0.061540 -5.245835 72.927078 0.000000 0.000000 0.000000
    14 -4.877731 8.517400 -24.384225 -0.004244 0.032744 -0.255350
    15 0.000000 -0.005608 -1.146812 0.000036 0.064179 -0.000046
    16 0.030770 -0.240000 8.906021 -0.004138 0.000000 0.000000
    17 -0.402333 -2.014831 -0.152747 0.269472 -0.143716 0.156546
    18 0.030770 -0.276858 8.905140 0.056125 0.004134 -0.000049
    19 0.709694 -1.214005 -0.141805 0.579321 0.219971 0.094389
    20 5.669724 4.435303 14.302868 0.602577 -1.307532 2.377638
    21 -1.044571 -2.839317 19.743267 -1.232179 -0.044194 -0.095478
    22 2.655533 -1.533369 24.792658 -1.914530 0.181491 -1.107360
    23 1.120163 -0.154394 9.796035 -0.077977 -0.017111 -0.706075
    24 2.240311 -0.308786 19.592051 -0.014354 -0.247430 -1.424039
    25 0.683151 2.877354 14.167051 -1.511326 -0.211747 1.554295
    26 0.144936 -0.145374 7.579252 -1.768092 -0.243254 0.235289
    27 0.091660 -0.906685 4.702850 -1.587439 -0.182555 0.191106
    28 0.506271 8.500866 13.617253 -1.470526 -0.303331 1.571638
    29 -0.384987 -0.460049 7.003448 -1.747417 -0.440906 0.551347
    30 0.561516 -0.596954 5.061852 -1.494372 -0.380557 0.386326
    31 -2.452171 -8.899406 11.597897 -1.564465 -0.075967 1.475308
    32 0.680496 -0.903999 6.074253 -1.628053 0.173822 -0.014264
    33 0.245514 -0.661150 3.388004 -1.484370 0.109511 -0.099205
    34 -0.717484 -3.784271 13.043911 -1.593546 -0.028646 1.464722
    35 1.099216 -1.407745 8.017889 -1.782123 0.031968 -0.017453
    36 0.068439 -0.807653 3.686054 -1.465865 0.034016 -0.009746
    37 -4.004929 6.172707 4.754754 0.109464 1.126798 2.530885
    38 0.158352 -1.149811 5.804394 -0.869542 -0.330219 0.145630
    39 -1.083523 -1.463142 5.544399 -0.797671 -0.152790 -0.023939
    40 -6.289886 0.932434 13.569063 -0.126803 0.612110 2.869610
    41 1.327774 -0.766687 12.396328 -0.103597 0.009231 -0.869250
    42 -0.096140 1.828087 23.185329 0.004097 -0.052026 -1.570683
    43 2.325478 -0.000003 6.169296 0.501423 0.002467 1.708745
    44 0.000000 -3.152912 0.122169 1.961017 0.000000 0.000000
    45 1.068383 -10.478592 7.066338 0.292219 -1.282324 -3.141588
    46 0.000000 0.000000 2.279457 0.547137 -0.343566 0.107833
    47 2.479414 -8.323895 6.074242 -0.049063 1.339218 -1.138512
    48 0.000003 -5.075260 5.105362 0.000000 0.000000 0.000000
    49 -1.068383 -10.478611 7.065971 0.292219 1.282324 3.141588
    50 -0.000488 0.000015 2.279600 0.547136 0.343566 0.107835
    51 -2.479401 -8.323895 6.074234 -0.116609 1.336856 -1.183929
    52 -5.790000 4.432083 14.255558 -6.010695 0.848714 -1.861883
    53 1.044540 -2.839314 19.743252 -1.248704 0.594064 -0.245621
    54 -2.655510 -1.533379 24.792648 -1.938465 -0.199792 0.880194
    55 -1.120216 -0.154385 9.795983 -0.091903 0.027558 0.856540
    56 -2.240372 -0.308788 19.592047 -0.142047 0.481874 1.653385
    57 -0.683205 2.877342 14.167089 -1.182564 0.290038 -1.695666
    58 -0.144958 -0.145317 7.579308 -1.208093 0.276537 -0.088323
    59 -0.038551 -0.936644 4.697678 -1.858644 0.261991 -0.286318
    60 -0.506317 8.500896 13.617329 -1.282816 0.369087 -1.816481
    61 0.385056 -0.460075 7.003435 -1.093336 0.552909 -0.201545
    62 -0.456360 -0.710276 5.057732 -1.611770 0.570671 -0.510553
    63 2.452194 -8.899408 11.597939 -1.006492 0.117932 -1.377430
    64 -0.680515 -0.903999 6.074242 -1.131953 -0.138988 -0.021541
    65 -0.248295 -0.666843 3.386627 -1.345045 -0.129937 0.095488
    66 0.717491 -3.784309 13.044010 -1.315245 0.071791 -1.478035
    67 -1.099228 -1.407673 8.017876 -1.029975 -0.005778 0.002897
    68 -0.064053 -0.807640 3.686100 -1.518322 -0.032459 0.007747
    69 4.004906 6.172710 4.754800 -0.566943 -0.930411 -1.502164
    70 -0.158381 -1.149773 5.804405 -0.181590 0.471964 0.588751
    71 1.078559 -2.386406 5.215008 -0.617990 0.969450 0.111314
    72 6.289963 0.932404 13.569109 -0.126801 -0.612098 -2.869612
    73 -1.327759 -0.766682 12.396324 -0.076195 -0.015690 0.640912
    74 0.000017 -54.999996 0.000000 0.000000 0.000000 -1.570796
  time 12
    0 0.000000 0.000000 -1.500000 0.000000 0.000000 0.000000
    1 -10.521344 -5.760963 66.994621 3.097005 -0.050653 -3.139334
    2 3.906741 10.237487 23.764255 0.359322 0.716570 0.369188
    3 -0.000034 0.000012 24.761454 -1.880383 -0.217797 0.181894
    4 0.000017 0.000000 24.344809 1.875066 -0.414777 -0.473768
    5 0.002333 -1.019846 24.031336 0.915622 -0.045466 -0.006912
    6 0.000034 0.000008 13.404741 -0.000001 -0.000009 0.013792
    7 10.398263 -5.760962 66.994675 3.097005 0.050653 3.139334
    8 7.160208 4.882036 24.987155 1.182345 -0.495222 -0.062326
    9 -0.000004 -0.000006 24.761459 -1.747087 0.202440 -0.012638
    10 -0.000007 0.000004 24.344891 1.676699 0.356882 0.270497
    11 -0.002360 -1.019903 24.031330 0.389594 -0.042695 -0.017219
    12 0.000000 -0.000002 13.404737 0.000001 0.000005 0.173343
    13 -0.061540 -5.245835 72.927078 0.000000 0.000000 0.000000
    14 -4.877731 8.517400 -24.068789 -0.004244 0.032744 -0.255350
    15 0.000000 -0.005608 -1.146812 0.000036 0.064179 -0.000046
    16 0.030770 -0.240000 8.906021 -0.004138 0.000000 0.000000
    17 -0.406239 -2.014831 -0.156653 0.270271 -0.142437 0.150875
    18 0.030770 -0.276858 8.905140 0.056125 0.004134 -0.000049
    19 0.721413 -1.210099 -0.141805 0.578391 0.225381 0.095564
    20 5.669724 4.435303 14.302868 0.602577 -1.307532 2.377638
    21 -1.044571 -2.839317 19.743267 -1.101464 0.021923 -0.105405
    22 2.655533 -1.533369 24.792658 -1.900687 0.183297 -1.062638
    23 1.120163 -0.154394 9.796035 -0.077977 -0.017111 -0.706075
    24 2.240311 -0.308786 19.592051 -0.014354 -0.247430 -1.423999
    25 0.683151 2.877354 14.167051 -1.511326 -0.211747 1.554295
    26 0.144936 -0.145374 7.579252 -1.768092 -0.243254 0.235289
    27 0.091660 -0.906685 4.702850 -1.587439 -0.182555 0.191106
    28 0.506271 8.500866 13.617253 -1.470526 -0.303331 1.571638
    29 -0.384987 -0.460049 7.003448 -1.747417 -0.440906 0.551347
    30 0.561516 -0.596954 5.061852 -1.494372 -0.380557 0.386326
    31 -2.452171 -8.899406 11.597897 -1.564465 -0.075967 1.475308
    32 0.680496 -0.903999 6.074253 -1.628053 0.173822 -0.014264
    33 0.245514 -0.661150 3.388004 -1.484370 0.109511 -0.099205
    34 -0.717484 -3.784271 13.043911 -1.593546 -0.028646 1.464722
    35 1.099216 -1.407745 8.017889 -1.782123 0.031968 -0.017453
    36 0.068439 -0.807653 3.686054 -1.465865 0.034016 -0.009746
    37 -4.004929 6.172707 4.754754 0.109464 1.126798 2.530885
    38 0.158352 -1.149811 5.804394 -0.869542 -0.330219 0.145630
    39 -1.083523 -1.463142 5.544399 -0.797671 -0.152790 -0.023939
    40 -6.289886 0.932434 13.569063 -0.126803 0.612110 2.869610
    41 1.327774 -0.766687 12.396328 -0.093985 0.012263 -0.787699
    42 -0.096140 1.828087 23.185329 0.004097 -0.052026 -1.570683
    43 2.325478 -0.000003 6.169296 0.517467 0.010208 1.698169
    44 0.000000 -3.152912 0.122169 1.961017 0.000000 0.000000
    45 1.068383 -10.478592 7.066338 0.292219 -1.282324 -3.141588
    46 0.000000 0.000000 2.279457 0.547137 -0.343566 0.107833
    47 2.479414 -8.323895 6.074242 -0.044143 1.327290 -1.149018
    48 0.000003 -5.075260 5.105362 0.000000 0.000000 0.000000
    49 -1.068383 -10.478611 7.065971 0.292219 1.282324 3.141588
    50 -0.000488 0.000015 2.279600 0.547136 0.343566 0.107835
    51 -2.479401 -8.323895 6.074234 -0.109861 1.325988 -1.189869
    52 -5.790000 4.432083 14.255558 -6.022294 0.967178 -1.881046
    53 1.044540 -2.839314 19.743252 -1.211803 0.607970 -0.257242
    54 -2.655510 -1.533379 24.792648 -1.771585 -0.187612 0.716238
    55 -1.120216 -0.154385 9.795983 -0.091807 0.027486 0.855588
    56 -2.240372 -0.308788 19.592047 -0.142200 0.482468 1.651323
    57 -0.683205 2.877342 14.167089 -1.245772 0.280606 -1.711761
    58 -0.144958 -0.145317 7.579308 -1.245692 0.280995 -0.096604
    59 -0.038551 -0.936644 4.697678 -1.896810 0.260637 -0.295737
    60 -0.506317 8.500896 13.617329 -1.347529 0.360370 -1.845326
    61 0.385056 -0.460075 7.003435 -1.135294 0.560717 -0.221038
    62 -0.456360 -0.710276 5.057732 -1.655591 0.570930 -0.532721
    63 2.452194 -8.899408 11.597939 -1.067354 0.116236 -1.373998
    64 -0.680515 -0.903999 6.074242 -1.168658 -0.143242 -0.020031
    65 -0.248295 -0.666843 3.386627 -1.382056 -0.129517 0.098915
    66 0.717491 -3.784309 13.044010 -1.375724 0.062144 -1.476175
    67 -1.099228 -1.407673 8.017876 -1.066624 -0.006964 0.003256
    68 -0.064053 -0.807640 3.686100 -1.555236 -0.033238 0.008837
    69 4.004906 6.172710 4.754800 -0.607148 -0.933044 -1.501100
    70 -0.158381 -1.149773 5.804405 -0.200530 0.497730 0.592150
    71 1.078559 -2.386406 5.215008 -0.662851 0.986451 0.086871
    72 6.289963 0.932404 13.569109 -0.126801 -0.612098 -2.869612
    73 -1.327759 -0.766682 12.396324 -0.064678 -0.016505 0.547318
    74 0.000017 -54.999996 0.000000 0.000000 0.000000 -1.570796
  time 13
    0 0.000000 0.000000 -1.500000 0.000000 0.000000 0.000000
    1 -10.521344 -5.760963 66.994621 3.097005 -0.050653 -3.139334
    2 3.937991 10.262041 23.113944 0.388905 0.737419 0.380765
    3 -0.000034 0.000012 24.761454 -1.877456 -0.217474 0.198833
    4 0.000017 0.000000 24.344809 1.804911 -0.414709 -0.472061
    5 0.002333 -1.019846 24.031336 0.946646 -0.045251 -0.008338
    6 0.000034 0.000008 13.404741 -0.000001 -0.000009 0.016471
    7 10.398263 -5.760962 66.994675 3.097005 0.050653 3.139334
    8 7.128957 4.907015 24.335230 1.160165 -0.492954 -0.054817
    9 -0.000004 -0.000006 24.761459 -1.717828 0.199073 -0.014792
    10 -0.000007 0.000004 24.344891 1.663855 0.355282 0.261837
    11 -0.002360 -1.019903 24.031330 0.389594 -0.042695 -0.017219
    12 0.000000 -0.000002 13.404737 0.000001 0.000005 0.167203
    13 -0.061540 -5.245835 72.927078 0.000000 0.000000 0.000000
    14 -4.877731 8.517400 -23.437919 -0.004244 0.032744 -0.255350
    15 0.000000 -0.005608 -1.146812 0.000036 0.064179 -0.000046
    16 0.030770 -0.240000 8.906021 -0.004138 0.000000 0.000000
    17 -0.398426 -2.014831 -0.152747 0.271997 -0.137487 0.138056
    18 0.030770 -0.276858 8.905140 0.056125 0.004134 -0.000049
    19 0.729226 -1.198380 -0.137898 0.574888 0.228857 0.094761
    20 5.669724 4.435303 14.302868 0.602577 -1.307532 2.377638
    21 -1.044571 -2.839317 19.743267 -0.964731 0.074107 -0.094773
    22 2.655533 -1.533369 24.792658 -1.797533 0.173229 -1.032392
    23 1.120163 -0.154394 9.796035 -0.077989 -0.017111 -0.706075
    24 2.240311 -0.308786 19.592051 -0.014398 -0.247430 -1.424039
    25 0.683151 2.877354 14.167051 -1.511326 -0.211747 1.554295
    26 0.144936 -0.145374 7.579252 -1.768092 -0.243254 0.235289
    27 0.091660 -0.906685 4.702850 -1.587439 -0.182555 0.191106
    28 0.506271 8.500866 13.617253 -1.470526 -0.303331 1.571638
    29 -0.384987 -0.460049 7.003448 -1.747417 -0.440906 0.551347
    30 0.561516 -0.596954 5.061852 -1.494372 -0.380557 0.386326
    31 -2.452171 -8.899406 11.597897 -1.564465 -0.075967 1.475308
    32 0.680496 -0.903999 6.074253 -1.628053 0.173822 -0.014264
    33 0.245514 -0.661150 3.388004 -1.484370 0.109511 -0.099205
    34 -0.717484 -3.784271 13.043911 -1.593590 -0.028646 1.464722
    35 1.099216 -1.407745 8.017889 -1.782123 0.031968 -0.017453
    36 0.068439 -0.807653 3.686054 -1.465865 0.034016 -0.009746
    37 -4.004929 6.172707 4.754754 0.109464 1.126798 2.530885
    38 0.158352 -1.149811 5.804394 -0.869542 -0.330219 0.145630
    39 -1.083523 -1.463142 5.544399 -0.797671 -0.152790 -0.023939
    40 -6.289886 0.932434 13.569063 -0.126803 0.612110 2.869610
    41 1.327774 -0.766687 12.396328 -0.086099 0.014133 -0.722067
    42 -0.096140 1.828087 23.185329 0.004097 -0.052026 -1.570683
    43 2.325478 -0.000003 6.169296 0.518709 0.016415 1.694896
    44 0.000000 -3.152912 0.122169 1.961017 0.000000 0.000000
    45 1.068383 -10.478592 7.066338 0.292219 -1.282324 -3.141588
    46 0.000000 0.000000 2.279457 0.547137 -0.343566 0.107833
    47 2.479414 -8.323895 6.074242 -0.044768 1.338842 -1.158664
    48 0.000003 -5.075260 5.105362 0.000000 0.000000 0.000000
    49 -1.068383 -10.478611 7.065971 0.292219 1.282324 3.141588
    50 -0.000488 0.000015 2.279600 0.547136 0.343566 0.107835
    51 -2.479401 -8.323895 6.074234 -0.115203 1.338746 -1.199450
    52 -5.790000 4.432083 14.255558 -5.996891 1.123855 -1.909982
    53 1.044540 -2.839314 19.743252 -1.139228 0.611065 -0.253813
    54 -2.655510 -1.533379 24.792648 -1.544617 -0.166282 0.522066
    55 -1.120216 -0.154385 9.795983 -0.091807 0.027474 0.855506
    56 -2.240372 -0.308788 19.592047 -0.141360 0.477864 1.652354
    57 -0.683205 2.877342 14.167089 -1.310217 0.269981 -1.727573
    58 -0.144958 -0.145317 7.579308 -1.288305 0.285681 -0.106240
    59 -0.038551 -0.936644 4.697678 -1.939069 0.258672 -0.306116
    60 -0.506317 8.500896 13.617329 -1.413448 0.349577 -1.874036
    61 0.385056 -0.460075 7.003435 -1.182906 0.568714 -0.243563
    62 -0.456360 -0.710276 5.057732 -1.704124 0.570240 -0.557259
    63 2.452194 -8.899408 11.597939 -1.129769 0.114703 -1.370400
    64 -0.680515 -0.903999 6.074242 -1.209674 -0.147964 -0.018125
    65 -0.248295 -0.666843 3.386627 -1.423271 -0.128894 0.102750
    66 0.717491 -3.784309 13.044010 -1.437748 0.052352 -1.473657
    67 -1.099228 -1.407673 8.017876 -1.107700 -0.008295 0.003784
    68 -0.064053 -0.807640 3.686100 -1.596090 -0.034029 0.010096
    69 4.004906 6.172710 4.754800 -0.642611 -0.935364 -1.500118
    70 -0.158381 -1.149773 5.804405 -0.221493 0.526015 0.595256
    71 1.078559 -2.386406 5.215008 -0.714400 1.004585 0.057715
    72 6.289963 0.932404 13.569109 -0.126801 -0.612098 -2.869612
    73 -1.327759 -0.766682 12.396324 -0.049302 -0.015906 0.422588
    74 0.000017 -54.999996 0.000000 0.000000 0.000000 -1.570796
  time 14
    0 0.000000 0.000000 -1.500000 0.000000 0.000000 0.000000
    1 -10.521344 -5.760963 66.994621 3.097005 -0.050653 -3.139334
    2 4.000493 10.311149 21.880594 0.407487 0.752227 0.388673
    3 -0.000034 0.000012 24.761454 -1.849488 -0.214238 0.225992
    4 0.000017 0.000000 24.344809 1.717681 -0.413351 -0.456159
    5 0.002333 -1.019846 24.031336 0.972631 -0.045011 -0.009537
    6 0.000034 0.000008 13.404741 -0.000001 -0.000009 0.026132
    7 10.398263 -5.760962 66.994675 3.097005 0.050653 3.139334
    8 7.066455 4.969462 23.098821 1.118363 -0.488857 -0.040789
    9 -0.000004 -0.000006 24.761459 -1.661346 0.192541 -0.018919
    10 -0.000007 0.000004 24.344891 1.638491 0.352371 0.246220
    11 -0.002360 -1.019903 24.031330 0.389594 -0.042695 -0.017219
    12 0.000000 -0.000002 13.404737 0.000001 0.000005 0.155781
    13 -0.061540 -5.245835 72.927078 0.000000 0.000000 0.000000
    14 -4.877731 8.517400 -22.176177 -0.004244 0.032744 -0.255350
    15 0.000000 -0.005608 -1.146812 0.000036 0.064179 -0.000046
    16 0.030770 -0.240000 8.906021 -0.004138 0.000000 0.000000
    17 -0.394520 -2.010924 -0.152747 0.274417 -0.129878 0.118649
    18 0.030770 -0.276858 8.905140 0.056125 0.004134 -0.000049
    19 0.737038 -1.186661 -0.133992 0.569634 0.234021 0.093455
    20 5.669724 4.435303 14.302868 0.602673 -1.307532 2.377638
    21 -1.044571 -2.839317 19.743267 -0.840130 0.085796 -0.066290
    22 2.655533 -1.533369 24.792658 -1.655583 0.158281 -1.009182
    23 1.120163 -0.154394 9.796035 -0.077989 -0.017111 -0.706075
    24 2.240311 -0.308786 19.592051 -0.014354 -0.247430 -1.424039
    25 0.683151 2.877354 14.167051 -1.511326 -0.211747 1.554295
    26 0.144936 -0.145374 7.579252 -1.768092 -0.243254 0.235289
    27 0.091660 -0.906685 4.702850 -1.587439 -0.182555 0.191106
    28 0.506271 8.500866 13.617253 -1.470526 -0.303331 1.571638
    29 -0.384987 -0.460049 7.003448 -1.747417 -0.440906 0.551347
    30 0.561516 -0.596954 5.061852 -1.494407 -0.380557 0.386326
    31 -2.452171 -8.899406 11.597897 -1.564465 -0.075967 1.475308
    32 0.680496 -0.903999 6.074253 -1.628053 0.173822 -0.014264
    33 0.245514 -0.661150 3.388004 -1.484423 0.109511 -0.099205
    34 -0.717484 -3.784271 13.043911 -1.593590 -0.028658 1.464722
    35 1.099216 -1.407745 8.017889 -1.782123 0.031968 -0.017453
    36 0.068439 -0.807653 3.686054 -1.465865 0.034016 -0.009746
    37 -4.004929 6.172707 4.754754 0.109464 1.126798 2.530885
    38 0.158352 -1.149811 5.804394 -0.869542 -0.330219 0.145630
    39 -1.083523 -1.463142 5.544399 -0.797671 -0.152790 -0.023939
    40 -6.289886 0.932434 13.569063 -0.126803 0.612110 2.869610
    41 1.327774 -0.766687 12.396328 -0.079819 0.015211 -0.670445
    42 -0.096140 1.828087 23.185329 0.004097 -0.052026 -1.570683
    43 2.325478 -0.000003 6.169296 0.503954 0.014737 1.702080
    44 0.000000 -3.152912 0.122169 1.961017 0.000000 0.000000
    45 1.068383 -10.478592 7.066338 0.292219 -1.282324 -3.141588
    46 0.000000 0.000000 2.279457 0.547137 -0.343566 0.107833
    47 2.479414 -8.323895 6.074242 -0.054800 1.377208 -1.162580
    48 0.000003 -5.075260 5.105362 0.000000 0.000000 0.000000
    49 -1.068383 -10.478611 7.065971 0.292219 1.282324 3.141588
    50 -0.000488 0.000015 2.279600 0.547136 0.343566 0.107835
    51 -2.479401 -8.323895 6.074234 -0.140910 1.377964 -1.210468
    52 -5.790000 4.432083 14.255558 -5.928545 1.279825 -1.960285
    53 1.044540 -2.839314 19.743252 -1.083182 0.591647 -0.231442
    54 -2.655510 -1.533379 24.792648 -1.298676 -0.140138 0.344782
    55 -1.120216 -0.154385 9.795983 -0.091879 0.027546 0.856377
    56 -2.240372 -0.308788 19.592047 -0.140367 0.472666 1.655447
    57 -0.683205 2.877342 14.167089 -1.373870 0.258480 -1.742475
    58 -0.144958 -0.145317 7.579308 -1.333969 0.290235 -0.116702
    59 -0.038551 -0.936644 4.697678 -1.984977 0.256107 -0.317274
    60 -0.506317 8.500896 13.617329 -1.478162 0.337228 -1.901622
    61 0.385056 -0.460075 7.003435 -1.234576 0.576195 -0.268309
    62 -0.456360 -0.710276 5.057732 -1.756836 0.568386 -0.583885
    63 2.452194 -8.899408 11.597939 -1.191706 0.113355 -1.366705
    64 -0.680515 -0.903999 6.074242 -1.253979 -0.152914 -0.015908
    65 -0.248295 -0.666843 3.386627 -1.468066 -0.128079 0.106837
    66 0.717491 -3.784309 13.044010 -1.499223 0.042849 -1.470569
    67 -1.099228 -1.407673 8.017876 -1.151858 -0.009685 0.004359
    68 -0.064053 -0.807640 3.686100 -1.640601 -0.034880 0.011486
    69 4.004906 6.172710 4.754800 -0.671598 -0.937224 -1.499053
    70 -0.158381 -1.149773 5.804405 -0.244061 0.556080 0.597864
    71 1.078559 -2.386406 5.215008 -0.771826 1.022903 0.023955
    72 6.289963 0.932404 13.569109 -0.126801 -0.612098 -2.869612
    73 -1.327759 -0.766682 12.396324 -0.034657 -0.013521 0.302207
    74 0.000017 -54.999996 0.000000 0.000000 0.000000 -1.570796
  time 15
    0 0.000000 0.000000 -1.500000 0.000000 0.000000 0.000000
    1 -10.521344 -5.760963 66.994621 3.097005 -0.050653 -3.139334
    2 4.094246 10.397088 20.019357 0.399084 0.750557 0.386096
    3 -0.000034 0.000012 24.761454 -1.786804 -0.206987 0.258566
    4 0.000017 0.000000 24.344809 1.629957 -0.410250 -0.423836
    5 0.002333 -1.019846 24.031336 0.983570 -0.044891 -0.010028
    6 0.000034 0.000008 13.404741 -0.000001 -0.000009 0.043555
    7 10.398263 -5.760962 66.994675 3.097005 0.050653 3.139334
    8 6.972703 5.031909 21.255447 1.054466 -0.482931 -0.020160
    9 -0.000004 -0.000006 24.761459 -1.571865 0.182186 -0.025594
    10 -0.000007 0.000004 24.344891 1.597508 0.348083 0.224130
    11 -0.002360 -1.019903 24.031330 0.389594 -0.042695 -0.017219
    12 0.000000 -0.000002 13.404737 0.000001 0.000005 0.138799
    13 -0.061540 -5.245835 72.927078 0.000000 0.000000 0.000000
    14 -4.877731 8.517400 -20.351158 -0.004244 0.032744 -0.255350
    15 0.000000 -0.005608 -1.146812 0.000036 0.064179 -0.000046
    16 0.030770 -0.240000 8.906021 -0.004138 0.000000 0.000000
    17 -0.386707 -2.010924 -0.156653 0.277405 -0.120559 0.092772
    18 0.030770 -0.276858 8.905140 0.056125 0.004134 -0.000049
    19 0.752664 -1.171035 -0.137898 0.563307 0.244533 0.092963
    20 5.669724 4.435303 14.302868 0.602577 -1.307532 2.377638
    21 -1.044571 -2.839317 19.743267 -0.749872 0.032673 -0.029403
    22 2.655533 -1.533369 24.792658 -1.524482 0.145562 -0.979744
    23 1.120163 -0.154394 9.796035 -0.077977 -0.017111 -0.706075
    24 2.240311 -0.308786 19.592051 -0.014354 -0.247430 -1.423999
    25 0.683151 2.877354 14.167051 -1.511326 -0.211747 1.554295
    26 0.144936 -0.145374 7.579252 -1.768092 -0.243254 0.235289
    27 0.091660 -0.906685 4.702850 -1.587439 -0.182555 0.191106
    28 0.506271 8.500866 13.617253 -1.470526 -0.303331 1.571638
    29 -0.384987 -0.460049 7.003448 -1.747453 -0.440906 0.551335
    30 0.561516 -0.596954 5.061852 -1.494372 -0.380557 0.386314
    31 -2.452171 -8.899406 11.597897 -1.564465 -0.075967 1.475308
    32 0.680496 -0.903999 6.074253 -1.628053 0.173822 -0.014264
    33 0.245514 -0.661150 3.388004 -1.484370 0.109511 -0.099205
    34 -0.717484 -3.784271 13.043911 -1.593590 -0.028658 1.464722
    35 1.099216 -1.407745 8.017889 -1.782123 0.031968 -0.017453
    36 0.068439 -0.807653 3.686054 -1.465865 0.034016 -0.009746
    37 -4.004929 6.172707 4.754754 0.109464 1.126798 2.530885
    38 0.158352 -1.149811 5.804394 -0.869542 -0.330219 0.145630
    39 -1.083523 -1.463142 5.544399 -0.797671 -0.152790 -0.023939
    40 -6.289886 0.932434 13.569063 -0.126803 0.612110 2.869610
    41 1.327774 -0.766687 12.396328 -0.074522 0.015883 -0.627260
    42 -0.096140 1.828087 23.185329 0.004097 -0.052026 -1.570683
    43 2.325478 -0.000003 6.169296 0.471818 0.000022 1.723793
    44 0.000000 -3.152912 0.122169 1.961017 0.000000 0.000000
    45 1.068383 -10.478592 7.066338 0.292219 -1.282324 -3.141588
    46 0.000000 0.000000 2.279457 0.547137 -0.343566 0.107833
    47 2.479414 -8.323895 6.074242 -0.108791 1.443610 -1.135456
    48 0.000003 -5.075260 5.105362 0.000000 0.000000 0.000000
    49 -1.068383 -10.478611 7.065971 0.292219 1.282324 3.141588
    50 -0.000488 0.000015 2.279600 0.547136 0.343566 0.107835
    51 -2.479401 -8.323895 6.074234 -0.241088 1.444730 -1.209318
    52 -5.790000 4.432083 14.255558 -5.786675 1.399036 -2.021032
    53 1.044540 -2.839314 19.743252 -1.128375 0.577444 -0.222733
    54 -2.655510 -1.533379 24.792648 -1.069997 -0.115624 0.194533
    55 -1.120216 -0.154385 9.795983 -0.092047 0.027690 0.858308
    56 -2.240372 -0.308788 19.592047 -0.140138 0.471577 1.659400
    57 -0.683205 2.877342 14.167089 -1.434158 0.246660 -1.755941
    58 -0.144958 -0.145317 7.579308 -1.381813 0.294502 -0.127908
    59 -0.038551 -0.936644 4.697678 -2.032463 0.252919 -0.328671
    60 -0.506317 8.500896 13.617329 -1.539330 0.323867 -1.927052
    61 0.385056 -0.460075 7.003435 -1.288923 0.582902 -0.294770
    62 -0.456360 -0.710276 5.057732 -1.811053 0.565173 -0.611126
    63 2.452194 -8.899408 11.597939 -1.250817 0.112333 -1.363131
    64 -0.680515 -0.903999 6.074242 -1.300115 -0.157983 -0.013355
    65 -0.248295 -0.666843 3.386627 -1.514318 -0.127061 0.111044
    66 0.717491 -3.784309 13.044010 -1.557959 0.033932 -1.467097
    67 -1.099228 -1.407673 8.017876 -1.197977 -0.011111 0.005042
    68 -0.064053 -0.807640 3.686100 -1.686519 -0.035647 0.012972
    69 4.004906 6.172710 4.754800 -0.693282 -0.938603 -1.498317
    70 -0.158381 -1.149773 5.804405 -0.267431 0.586747 0.599710
    71 1.078559 -2.386406 5.215008 -0.833361 1.040455 -0.013641
    72 6.289963 0.932404 13.569109 -0.126801 -0.612098 -2.869612
    73 -1.327759 -0.766682 12.396324 -0.022876 -0.010273 0.203108
    74 0.000017 -54.999996 0.000000 0.000000 0.000000 -1.570796
  time 16
    0 0.000000 0.000000 -1.500000 0.000000 0.000000 0.000000
    1 -10.521344 -5.760963 66.994621 3.097005 -0.050653 -3.139334
    2 3.035620 10.863614 17.866601 0.357204 0.725422 0.392343
    3 -0.000034 0.000012 24.761454 -1.656517 -0.191934 0.265000
    4 0.000017 0.000000 24.344809 1.593277 -0.415999 -0.385874
    5 0.002333 -1.019846 24.031336 0.921745 -0.045430 -0.007200
    6 0.000034 0.000008 13.404741 -0.000001 -0.000009 0.052119
    7 10.398263 -5.760962 66.994675 3.097005 0.050653 3.139334
    8 5.875013 4.832079 19.074870 0.967791 -0.492186 0.045523
    9 -0.000004 -0.000006 24.761459 -1.488214 0.172527 -0.085383
    10 -0.000007 0.000004 24.344891 1.559430 0.322441 0.181441
    11 -0.002360 -1.019903 24.031330 0.389594 -0.042695 -0.017219
    12 0.000000 -0.000002 13.404737 0.000001 0.000005 0.086435
    13 -0.061540 -5.245835 72.927078 0.000000 0.000000 0.000000
    14 -3.854262 8.400943 -18.165641 0.024367 0.026654 -0.292463
    15 0.000000 -0.005608 -1.146812 -0.006981 0.065324 0.000959
    16 0.030770 -0.240000 8.906021 -0.004138 0.000000 0.000000
    17 -0.292954 -2.042175 -0.176185 0.288790 -0.101328 0.079114
    18 0.030770 -0.276858 8.905140 0.056125 0.004134 -0.000049
    19 0.764383 -1.077282 -0.118367 0.528170 0.257205 0.088158
    20 5.669724 4.435303 14.302868 0.732259 -1.329518 2.235996
    21 -1.044571 -2.839317 19.743267 -0.658684 -0.084532 0.017608
    22 2.655533 -1.533369 24.792658 -1.398849 0.137454 -0.891594
    23 1.120163 -0.154394 9.796035 -0.070403 -0.012653 -0.629914
    24 2.240311 -0.308786 19.592051 -0.000863 -0.333719 -1.281020
    25 0.683151 2.877354 14.167051 -1.511326 -0.211747 1.554295
    26 0.144936 -0.145374 7.579252 -1.768092 -0.243254 0.235289
    27 0.091660 -0.906685 4.702850 -1.587439 -0.182555 0.191106
    28 0.506271 8.500866 13.617253 -1.470526 -0.303331 1.571638
    29 -0.384987 -0.460049 7.003448 -1.747417 -0.440906 0.551347
    30 0.561516 -0.596954 5.061852 -1.494372 -0.380557 0.386326
    31 -2.452171 -8.899406 11.597897 -1.564465 -0.075967 1.475308
    32 0.680496 -0.903999 6.074253 -1.628053 0.173822 -0.014264
    33 0.245514 -0.661150 3.388004 -1.484370 0.109499 -0.099205
    34 -0.717484 -3.784271 13.043911 -1.593590 -0.028646 1.464722
    35 1.099216 -1.407745 8.017889 -1.782123 0.031968 -0.017453
    36 0.068439 -0.807653 3.686054 -1.465865 0.034016 -0.009746
    37 -4.004929 6.172707 4.754754 0.109464 1.126798 2.530885
    38 0.158352 -1.149811 5.804394 -0.869542 -0.330219 0.145630
    39 -1.083523 -1.463142 5.544399 -0.797671 -0.152790 -0.023939
    40 -6.289886 0.932434 13.569063 -0.126803 0.612110 2.869610
    41 1.327774 -0.766687 12.396328 -0.065174 0.016506 -0.551283
    42 -0.096140 1.828087 23.185329 -0.011295 -0.054479 -1.558301
    43 2.325478 -0.000003 6.169296 0.369584 -0.019164 1.742352
    44 0.000000 -3.152912 0.122169 1.961017 0.000000 0.000000
    45 1.068383 -10.478592 7.066338 0.292219 -1.282324 -3.141588
    46 0.000000 0.000000 2.279457 0.547137 -0.343566 0.107833
    47 2.479414 -8.323895 6.074242 -0.899690 1.546076 0.392860
    48 0.000003 -5.075260 5.105362 0.000000 0.000000 0.000000
    49 -1.068383 -10.478611 7.065971 0.292219 1.282324 3.141588
    50 -0.000488 0.000015 2.279600 0.547136 0.343566 0.107835
    51 -2.479401 -8.323895 6.074234 -0.649249 1.555628 0.493745
    52 -5.790000 4.432083 14.255558 -5.352057 1.471477 -1.868303
    53 1.044540 -2.839314 19.743252 -1.133384 0.588637 -0.232939
    54 -2.655510 -1.533379 24.792648 -0.790841 -0.092262 0.119939
    55 -1.120216 -0.154385 9.795983 -0.083394 0.020799 0.762577
    56 -2.240372 -0.308788 19.592047 -0.170150 0.427568 1.469086
    57 -0.683205 2.877342 14.167089 -1.488951 0.235219 -1.767521
    58 -0.144958 -0.145317 7.579308 -1.428948 0.298193 -0.139138
    59 -0.038551 -0.936644 4.697678 -2.079111 0.249252 -0.339745
    60 -0.506317 8.500896 13.617329 -1.594690 0.310402 -1.949337
    61 0.385056 -0.460075 7.003435 -1.342665 0.588251 -0.321139
    62 -0.456360 -0.710276 5.057732 -1.864542 0.560861 -0.637840
    63 2.452194 -8.899408 11.597939 -1.304793 0.111566 -1.359818
    64 -0.680515 -0.903999 6.074242 -1.345767 -0.162873 -0.010623
    65 -0.248295 -0.666843 3.386627 -1.559821 -0.125838 0.115131
    66 0.717491 -3.784309 13.044010 -1.611613 0.025986 -1.463451
    67 -1.099228 -1.407673 8.017876 -1.243200 -0.012477 0.005749
    68 -0.064053 -0.807640 3.686100 -1.732043 -0.036342 0.014470
    69 4.004906 6.172710 4.754800 -0.707663 -0.939501 -1.497744
    70 -0.158381 -1.149773 5.804405 -0.290522 0.616511 0.600706
    71 1.078559 -2.386406 5.215008 -0.896089 1.056261 -0.053065
    72 6.289963 0.932404 13.569109 -0.126801 -0.612098 -2.869612
    73 -1.327759 -0.766682 12.396324 -0.015697 -0.007649 0.141298
    74 0.000017 -54.999996 0.000000 0.000000 0.000000 -1.570796
  time 17
    0 0.000000 0.000000 -1.500000 0.000000 0.000000 0.000000
    1 -10.521344 -5.760963 66.994621 3.097005 -0.050653 -3.139334
    2 0.262098 11.833496 15.736270 0.287861 0.684978 0.424936
    3 -0.000034 0.000012 24.761454 -1.432245 -0.166024 0.239022
    4 0.000017 0.000000 24.344809 1.593955 -0.438249 -0.344822
    5 0.002333 -1.019846 24.031336 0.774499 -0.045970 -0.000356
    6 0.000034 0.000008 13.404741 -0.000001 -0.000009 0.045664
    7 10.398263 -5.760962 66.994675 3.097005 0.050653 3.139334
    8 3.417907 4.170142 16.871814 0.861580 -0.515049 0.174579
    9 -0.000004 -0.000006 24.761459 -1.425407 0.165264 -0.214435
    10 -0.000007 0.000004 24.344891 1.534002 0.268357 0.119205
    11 -0.002360 -1.019903 24.031330 0.389594 -0.042695 -0.017219
    12 0.000000 -0.000002 13.404737 0.000001 0.000005 -0.010478
    13 -0.061540 -5.245835 72.927078 0.000000 0.000000 0.000000
    14 -1.416688 8.133092 -15.957593 0.092857 0.012047 -0.382303
    15 0.000000 -0.005608 -1.146812 -0.023663 0.068038 0.003324
    16 0.030770 -0.240000 8.906021 -0.004138 0.000000 0.000000
    17 -0.070291 -2.132022 -0.223061 0.312043 -0.069297 0.088059
    18 0.030770 -0.276858 8.905140 0.056125 0.004134 -0.000049
    19 0.756570 -0.893683 -0.075397 0.453749 0.265886 0.075130
    20 5.669724 4.435303 14.302868 1.130586 -1.357776 1.810207
    21 -1.044571 -2.839317 19.743267 -0.505074 -0.207582 0.063970
    22 2.655533 -1.533369 24.792658 -1.255510 0.129346 -0.762603
    23 1.120163 -0.154394 9.796035 -0.051108 -0.004456 -0.448204
    24 2.240311 -0.308786 19.592051 -0.084636 -0.545804 -0.923888
    25 0.683151 2.877354 14.167051 -1.511326 -0.211747 1.554295
    26 0.144936 -0.145374 7.579252 -1.768092 -0.243254 0.235289
    27 0.091660 -0.906685 4.702850 -1.587439 -0.182555 0.191106
    28 0.506271 8.500866 13.617253 -1.470526 -0.303331 1.571638
    29 -0.384987 -0.460049 7.003448 -1.747417 -0.440906 0.551347
    30 0.561516 -0.596954 5.061852 -1.494372 -0.380557 0.386326
    31 -2.452171 -8.899406 11.597897 -1.564465 -0.075967 1.475308
    32 0.680496 -0.903999 6.074253 -1.628053 0.173822 -0.014264
    33 0.245514 -0.661150 3.388004 -1.484370 0.109499 -0.099205
    34 -0.717484 -3.784271 13.043911 -1.593590 -0.028646 1.464722
    35 1.099216 -1.407745 8.017889 -1.782123 0.031968 -0.017453
    36 0.068439 -0.807653 3.686054 -1.465865 0.034016 -0.009746
    37 -4.004929 6.172707 4.754754 0.109464 1.126798 2.530885
    38 0.158352 -1.149811 5.804394 -0.869542 -0.330219 0.145630
    39 -1.083523 -1.463142 5.544399 -0.797671 -0.152790 -0.023939
    40 -6.289886 0.932434 13.569063 -0.126803 0.612110 2.869610
    41 1.327774 -0.766687 12.396328 -0.053154 0.016242 -0.453814
    42 -0.096140 1.828087 23.185329 -0.048397 -0.058909 -1.528707
    43 2.325478 -0.000003 6.169296 0.184361 -0.032779 1.748778
    44 0.000000 -3.152912 0.122169 1.961017 0.000000 0.000000
    45 1.068383 -10.478592 7.066338 0.292219 -1.282324 -3.141588
    46 0.000000 0.000000 2.279457 0.547137 -0.343566 0.107833
    47 2.479414 -8.323895 6.074242 -0.021850 1.368192 1.649075
    48 0.000003 -5.075260 5.105362 0.000000 0.000000 0.000000
    49 -1.068383 -10.478611 7.065971 0.292219 1.282324 3.141588
    50 -0.000488 0.000015 2.279600 0.547136 0.343566 0.107835
    51 -2.479401 -8.323895 6.074234 0.057095 1.369081 1.699666
    52 -5.790000 4.432083 14.255558 -4.310084 1.491040 -1.134549
    53 1.044540 -2.839314 19.743252 -0.969921 0.604875 -0.229673
    54 -2.655510 -1.533379 24.792648 -0.619835 -0.084600 0.149853
    55 -1.120216 -0.154385 9.795983 -0.059904 0.007700 0.529520
    56 -2.240372 -0.308788 19.592047 -0.193213 0.333462 1.018863
    57 -0.683205 2.877342 14.167089 -1.535825 0.224892 -1.776922
    58 -0.144958 -0.145317 7.579308 -1.472378 0.301141 -0.149624
    59 -0.038551 -0.936644 4.697678 -2.121863 0.245453 -0.349728
    60 -0.506317 8.500896 13.617329 -1.641754 0.297949 -1.967759
    61 0.385056 -0.460075 7.003435 -1.392522 0.592120 -0.345824
    62 -0.456360 -0.710276 5.057732 -1.913318 0.555794 -0.661939
    63 2.452194 -8.899408 11.597939 -1.351205 0.111078 -1.356934
    64 -0.680515 -0.903999 6.074242 -1.387268 -0.167224 -0.007854
    65 -0.248295 -0.666843 3.386627 -1.602077 -0.124520 0.118858
    66 0.717491 -3.784309 13.044010 -1.657745 0.019347 -1.459991
    67 -1.099228 -1.407673 8.017876 -1.284892 -0.013724 0.006480
    68 -0.064053 -0.807640 3.686100 -1.773740 -0.036929 0.015860
    69 4.004906 6.172710 4.754800 -0.715719 -0.940024 -1.497334
    70 -0.158381 -1.149773 5.804405 -0.311799 0.643509 0.600911
    71 1.078559 -2.386406 5.215008 -0.955283 1.069463 -0.091465
    72 6.289963 0.932404 13.569109 -0.126801 -0.612098 -2.869612
    73 -1.327759 -0.766682 12.396324 -0.015637 -0.007625 0.140789
    74 0.000017 -54.999996 0.000000 0.000000 0.000000 -1.570796
  time 18
    0 0.000000 0.000000 -1.500000 0.000000 0.000000 0.000000
    1 -10.521344 -5.760963 66.994621 3.097005 -0.050653 -3.139334
    2 -3.249728 12.901594 13.807760 0.191052 0.639245 0.469631
    3 -0.000034 0.000012 24.761454 -1.122850 -0.130238 0.206814
    4 0.000017 0.000000 24.344809 1.567632 -0.474352 -0.291714
    5 0.002333 -1.019846 24.031336 0.598656 -0.045323 0.007805
    6 0.000034 0.000008 13.404741 -0.000001 -0.000009 0.037501
    7 10.398263 -5.760962 66.994675 3.097005 0.050653 3.139334
    8 0.550632 3.320865 14.848598 0.754004 -0.531327 0.327730
    9 -0.000004 -0.000006 24.761459 -1.365240 0.158313 -0.363010
    10 -0.000007 0.000004 24.344891 1.513607 0.206207 0.059302
    11 -0.002360 -1.019903 24.031330 0.389594 -0.042695 -0.017219
    12 0.000000 -0.000002 13.404737 0.000001 0.000005 -0.120488
    13 -0.061540 -5.245835 72.927078 0.000000 0.000000 0.000000
    14 1.493557 7.818658 -14.042450 0.174499 -0.005106 -0.492141
    15 0.000000 -0.005608 -1.146812 -0.043599 0.071285 0.005987
    16 0.030770 -0.240000 8.906021 -0.004138 0.000000 0.000000
    17 0.195342 -2.225775 -0.289470 0.340810 -0.033493 0.107068
    18 0.030770 -0.276858 8.905140 0.056125 0.004134 -0.000049
    19 0.733132 -0.674926 -0.032426 0.365888 0.269733 0.058304
    20 5.669724 4.435303 14.302868 1.629499 -1.335649 1.280823
    21 -1.044571 -2.839317 19.743267 -0.304892 -0.294677 0.084557
    22 2.655533 -1.533369 24.792658 -1.114428 0.120277 -0.649302
    23 1.120163 -0.154394 9.796035 -0.026635 0.000566 -0.231207
    24 2.240311 -0.308786 19.592051 -0.420033 -0.703648 -0.416260
    25 0.683151 2.877354 14.167051 -1.511326 -0.211747 1.554295
    26 0.144936 -0.145374 7.579252 -1.768092 -0.243254 0.235289
    27 0.091660 -0.906685 4.702850 -1.587439 -0.182555 0.191106
    28 0.506271 8.500866 13.617253 -1.470526 -0.303331 1.571638
    29 -0.384987 -0.460049 7.003448 -1.747417 -0.440906 0.551347
    30 0.561516 -0.596954 5.061852 -1.494372 -0.380557 0.386326
    31 -2.452171 -8.899406 11.597897 -1.564465 -0.075967 1.475308
    32 0.680496 -0.903999 6.074253 -1.628053 0.173822 -0.014264
    33 0.245514 -0.661150 3.388004 -1.484370 0.109487 -0.099205
    34 -0.717484 -3.784271 13.043911 -1.593590 -0.028634 1.464722
    35 1.099216 -1.407745 8.017889 -1.782123 0.031968 -0.017453
    36 0.068439 -0.807653 3.686054 -1.465865 0.034016 -0.009746
    37 -4.004929 6.172707 4.754754 0.109464 1.126798 2.530885
    38 0.158352 -1.149811 5.804394 -0.869542 -0.330234 0.145630
    39 -1.083523 -1.463142 5.544399 -0.797671 -0.152790 -0.023939
    40 -6.289886 0.932434 13.569063 -0.126803 0.612110 2.869610
    41 1.327774 -0.766687 12.396328 -0.043686 0.015211 -0.376582
    42 -0.096140 1.828087 23.185329 -0.092947 -0.061331 -1.493519
    43 2.325478 -0.000003 6.169296 -0.026075 -0.042690 1.755842
    44 0.000000 -3.152912 0.122169 1.961017 0.000000 0.000000
    45 1.068383 -10.478592 7.066338 0.292219 -1.282324 -3.141588
    46 0.000000 0.000000 2.279457 0.547137 -0.343566 0.107833
    47 2.479414 -8.323895 6.074242 -0.005457 1.150204 1.718318
    48 0.000003 -5.075260 5.105362 0.000000 0.000000 0.000000
    49 -1.068383 -10.478611 7.065971 0.292219 1.282324 3.141588
    50 -0.000488 0.000015 2.279600 0.547136 0.343566 0.107835
    51 -2.479401 -8.323895 6.074234 0.034742 1.151065 1.744504
    52 -5.790000 4.432083 14.255558 -3.518970 1.445973 -0.625866
    53 1.044540 -2.839314 19.743252 -0.751692 0.671990 -0.234109
    54 -2.655510 -1.533379 24.792648 -0.628742 -0.087305 0.214375
    55 -1.120216 -0.154385 9.795983 -0.028540 -0.000390 0.248011
    56 -2.240372 -0.308788 19.592047 -0.176183 0.276879 0.476275
    57 -0.683205 2.877342 14.167089 -1.572353 0.216535 -1.783924
    58 -0.144958 -0.145317 7.579308 -1.508288 0.303251 -0.158385
    59 -0.038551 -0.936644 4.697678 -2.157169 0.242013 -0.357818
    60 -0.506317 8.500896 13.617329 -1.678184 0.287598 -1.981732
    61 0.385056 -0.460075 7.003435 -1.433789 0.594562 -0.366389
    62 -0.456360 -0.710276 5.057732 -1.953252 0.550921 -0.681544
    63 2.452194 -8.899408 11.597939 -1.387548 0.110753 -1.354670
    64 -0.680515 -0.903999 6.074242 -1.421655 -0.170711 -0.005493
    65 -0.248295 -0.666843 3.386627 -1.636714 -0.123321 0.121878
    66 0.717491 -3.784309 13.044010 -1.693863 0.014241 -1.457064
    67 -1.099228 -1.407673 8.017876 -1.319243 -0.014719 0.007115
    68 -0.064053 -0.807640 3.686100 -1.808179 -0.037373 0.017047
    69 4.004906 6.172710 4.754800 -0.719257 -0.940233 -1.497252
    70 -0.158381 -1.149773 5.804405 -0.329413 0.665469 0.600560
    71 1.078559 -2.386406 5.215008 -1.005399 1.079327 -0.124567
    72 6.289963 0.932404 13.569109 -0.126801 -0.612098 -2.869612
    73 -1.327759 -0.766682 12.396324 -0.018609 -0.008775 0.166605
    74 0.000017 -54.999996 0.000000 0.000000 0.000000 -1.570796
  time 19
    0 0.000000 0.000000 -1.500000 0.000000 0.000000 0.000000
    1 -10.521344 -5.760963 66.994621 3.097005 -0.050653 -3.139334
    2 -6.335760 13.724153 12.417438 0.067122 0.591341 0.505325
    3 -0.000034 0.000012 24.761454 -0.767559 -0.089131 0.185925
    4 0.000017 0.000000 24.344809 1.483792 -0.517924 -0.220781
    5 0.002333 -1.019846 24.031336 0.451373 -0.043693 0.014493
    6 0.000034 0.000008 13.404741 -0.000001 -0.000009 0.038155
    7 10.398263 -5.760962 66.994675 3.097005 0.050653 3.139334
    8 -1.793190 2.559013 13.387387 0.670059 -0.534729 0.456538
    9 -0.000004 -0.000006 24.761459 -1.311288 0.152069 -0.483484
    10 -0.000007 0.000004 24.344891 1.497020 0.155545 0.017055
    11 -0.002360 -1.019903 24.031330 0.389594 -0.042695 -0.017219
    12 0.000000 -0.000002 13.404737 0.000001 0.000005 -0.209929
    13 -0.061540 -5.245835 72.927078 0.000000 0.000000 0.000000
    14 3.927225 7.539162 -12.622991 0.243021 -0.019145 -0.586365
    15 0.000000 -0.005608 -1.146812 -0.060313 0.073982 0.008134
    16 0.030770 -0.240000 8.906021 -0.004138 0.000000 0.000000
    17 0.425817 -2.307808 -0.348065 0.366147 -0.002575 0.122882
    18 0.030770 -0.276858 8.905140 0.056125 0.004134 -0.000049
    19 0.697975 -0.483514 -0.001176 0.291753 0.268334 0.043095
    20 5.669724 4.435303 14.302868 1.922359 -1.279450 0.964189
    21 -1.044571 -2.839317 19.743267 -0.120510 -0.341538 0.079255
    22 2.655533 -1.533369 24.792658 -0.992137 0.111977 -0.574899
    23 1.120163 -0.154394 9.796035 -0.005650 0.000626 -0.049290
    24 2.240311 -0.308786 19.592051 -0.800123 -0.663680 0.006784
    25 0.683151 2.877354 14.167051 -1.511326 -0.211747 1.554295
    26 0.144936 -0.145374 7.579252 -1.768092 -0.243254 0.235289
    27 0.091660 -0.906685 4.702850 -1.587485 -0.182555 0.191106
    28 0.506271 8.500866 13.617253 -1.470526 -0.303331 1.571638
    29 -0.384987 -0.460049 7.003448 -1.747417 -0.440906 0.551347
    30 0.561516 -0.596954 5.061852 -1.494372 -0.380557 0.386326
    31 -2.452171 -8.899406 11.597897 -1.564465 -0.075967 1.475308
    32 0.680496 -0.903999 6.074253 -1.628053 0.173822 -0.014264
    33 0.245514 -0.661150 3.388004 -1.484423 0.109499 -0.099205
    34 -0.717484 -3.784271 13.043911 -1.593590 -0.028634 1.464722
    35 1.099216 -1.407745 8.017889 -1.782123 0.031968 -0.017453
    36 0.068439 -0.807653 3.686054 -1.465865 0.034016 -0.009746
    37 -4.004929 6.172707 4.754754 0.109464 1.126798 2.530885
    38 0.158352 -1.149811 5.804394 -0.869542 -0.330219 0.145630
    39 -1.083523 -1.463142 5.544399 -0.797671 -0.152790 -0.023939
    40 -6.289886 0.932434 13.569063 -0.126803 0.612110 2.869610
    41 1.327774 -0.766687 12.396328 -0.038161 0.014277 -0.331237
    42 -0.096140 1.828087 23.185329 -0.130374 -0.060980 -1.464384
    43 2.325478 -0.000003 6.169296 -0.203706 -0.047074 1.765860
    44 0.000000 -3.152912 0.122169 1.961017 0.000000 0.000000
    45 1.068383 -10.478592 7.066338 0.292219 -1.282324 -3.141588
    46 0.000000 0.000000 2.279457 0.547137 -0.343566 0.107833
    47 2.479414 -8.323895 6.074242 -0.001841 0.961566 1.750122
    48 0.000003 -5.075260 5.105362 0.000000 0.000000 0.000000
    49 -1.068383 -10.478611 7.065971 0.292219 1.282324 3.141588
    50 -0.000488 0.000015 2.279600 0.547136 0.343566 0.107835
    51 -2.479401 -8.323895 6.074234 0.027150 0.963478 1.769318
    52 -5.790000 4.432083 14.255558 -3.177429 1.392764 -0.489616
    53 1.044540 -2.839314 19.743252 -0.574371 0.786293 -0.236232
    54 -2.655510 -1.533379 24.792648 -0.639663 -0.089764 0.285107
    55 -1.120216 -0.154385 9.795983 -0.000856 -0.000126 0.007391
    56 -2.240372 -0.308788 19.592047 -0.171143 0.282374 0.000447
    57 -0.683205 2.877342 14.167089 -1.596063 0.210944 -1.788297
    58 -0.144958 -0.145317 7.579308 -1.532537 0.304473 -0.164305
    59 -0.038551 -0.936644 4.697678 -2.180937 0.239520 -0.363235
    60 -0.506317 8.500896 13.617329 -1.701867 0.280619 -1.990583
    61 0.385056 -0.460075 7.003435 -1.461761 0.595835 -0.380370
    62 -0.456360 -0.710276 5.057732 -1.980167 0.547234 -0.694638
    63 2.452194 -8.899408 11.597939 -1.411112 0.110590 -1.353168
    64 -0.680515 -0.903999 6.074242 -1.445101 -0.173048 -0.003816
    65 -0.248295 -0.666843 3.386627 -1.660027 -0.122471 0.123879
    66 0.717491 -3.784309 13.044010 -1.717327 0.010994 -1.455055
    67 -1.099228 -1.407673 8.017876 -1.342555 -0.015378 0.007583
    68 -0.064053 -0.807640 3.686100 -1.831363 -0.037636 0.017850
    69 4.004906 6.172710 4.754800 -0.720086 -0.940295 -1.497252
    70 -0.158381 -1.149773 5.804405 -0.341447 0.680173 0.600003
    71 1.078559 -2.386406 5.215008 -1.039845 1.085545 -0.147694
    72 6.289963 0.932404 13.569109 -0.126801 -0.612098 -2.869612
    73 -1.327759 -0.766682 12.396324 -0.020946 -0.009614 0.186730
    74 0.000017 -54.999996 0.000000 0.000000 0.000000 -1.570796
end
