// Created by Crowbar 0.74
version 1
nodes
  0 "root" -1
  1 "g_r_hip_offset" 0
  2 "g_r_hip" 1
  3 "g_r_knee" 2
  4 "g_r_ankle" 3
  5 "g_r_ball" 4
  6 "g_r_thightwist" 2
  7 "g_l_hip_offset" 0
  8 "g_l_hip" 7
  9 "g_l_knee" 8
  10 "g_l_ankle" 9
  11 "g_l_ball" 10
  12 "g_l_thightwist" 8
  13 "g_spine01_offset" 0
  14 "g_spine01" 13
  15 "g_pelvis" 14
  16 "g_spine02_offset" 14
  17 "g_spine02" 16
  18 "g_spine03_offset" 17
  19 "g_spine03" 18
  20 "g_l_clavical" 19
  21 "g_l_shoulder" 20
  22 "g_l_elbow" 21
  23 "g_l_forarm" 22
  24 "g_l_wrist" 22
  25 "g_l_birdy1" 24
  26 "g_l_birdy2" 25
  27 "g_l_birdy3" 26
  28 "g_l_index1" 24
  29 "g_l_index2" 28
  30 "g_l_index3" 29
  31 "g_l_pinky1" 24
  32 "g_l_pinky2" 31
  33 "g_l_pinky3" 32
  34 "g_l_ring1" 24
  35 "g_l_ring2" 34
  36 "g_l_ring3" 35
  37 "g_l_thumb1" 24
  38 "g_l_thumb2" 37
  39 "g_l_thumb3" 38
  40 "g_l_palm" 24
  41 "g_l_biceptwist" 21
  42 "g_neck" 19
  43 "g_head" 42
  44 "g_jaw" 43
  45 "g_l_brow" 43
  46 "g_l_brow2" 45
  47 "g_l_eye" 43
  48 "g_topeyelid" 43
  49 "g_r_brow" 43
  50 "g_r_brow2" 49
  51 "g_r_eye" 43
  52 "g_r_clavical" 19
  53 "g_r_shoulder" 52
  54 "g_r_elbow" 53
  55 "g_r_forarm" 54
  56 "g_r_wrist" 54
  57 "g_r_birdy1" 56
  58 "g_r_birdy2" 57
  59 "g_r_birdy3" 58
  60 "g_r_index1" 56
  61 "g_r_index2" 60
  62 "g_r_index3" 61
  63 "g_r_pinky1" 56
  64 "g_r_pinky2" 63
  65 "g_r_pinky3" 64
  66 "g_r_ring1" 56
  67 "g_r_ring2" 66
  68 "g_r_ring3" 67
  69 "g_r_thumb1" 56
  70 "g_r_thumb2" 69
  71 "g_r_thumb3" 70
  72 "g_r_palm" 56
  73 "g_r_biceptwist" 53
  74 "g_throwable_attach_offset" 0
end
skeleton
  time 0
    0 0.000000 0.000000 -1.500000 0.000000 0.000000 0.000000
    1 -10.521344 -5.760963 66.994621 3.097005 -0.050653 -3.139334
    2 -9.257813 11.484375 -7.625000 0.990043 0.900018 1.448363
    3 -0.000034 0.000012 24.761454 -1.771395 -0.205220 0.194171
    4 0.000017 0.000000 24.344809 0.773271 -0.125516 -0.057968
    5 0.002333 -1.019846 24.031336 0.389586 -0.042687 0.017205
    6 0.000034 0.000008 13.404741 -0.000002 -0.000004 0.122163
    7 10.398263 -5.760962 66.994675 3.097005 0.050653 3.139334
    8 10.484375 -2.748047 7.609375 -0.135977 0.563048 1.544271
    9 -0.000004 -0.000006 24.761459 -1.138916 0.132119 -0.704651
    10 -0.000007 0.000004 24.344891 0.815039 0.177442 0.063228
    11 -0.002360 -1.019903 24.031330 0.099304 -0.045860 -0.004486
    12 0.000000 -0.000002 13.404737 0.000006 0.000001 -0.338211
    13 -0.061540 -5.245835 72.927078 0.000000 0.000000 0.000000
    14 0.459717 -0.343018 -2.140625 0.026377 0.563867 -1.495002
    15 0.000000 -0.005608 -1.146812 0.000000 0.299558 0.000000
    16 0.030770 -0.240000 8.906021 -0.004138 0.000000 0.000000
    17 0.217896 0.291992 0.072876 -0.080143 0.052342 -0.088053
    18 0.030770 -0.276858 8.905140 0.056125 0.004134 -0.000049
    19 -0.648438 -1.009766 -0.113281 0.381434 -0.229837 -0.054767
    20 5.669724 4.435303 14.302868 2.717452 -1.259952 0.409841
    21 -1.044571 -2.839317 19.743267 0.274501 -0.460581 0.002965
    22 2.655533 -1.533369 24.792658 -1.447963 0.146014 0.000054
    23 1.120163 -0.154394 9.796035 -0.077990 -0.017130 -0.706084
    24 2.240311 -0.308786 19.592051 -0.014311 -0.247437 -1.424034
    25 0.683151 2.877354 14.167051 -1.511395 -0.211766 1.554307
    26 0.144936 -0.145374 7.579252 -1.768092 -0.243254 0.235289
    27 0.091660 -0.906685 4.702850 -1.587476 -0.182564 0.191122
    28 0.506271 8.500866 13.617253 -1.470528 -0.303331 1.571637
    29 -0.384987 -0.460049 7.003448 -1.747475 -0.440888 0.551346
    30 0.561516 -0.596954 5.061852 -1.494426 -0.380566 0.386319
    31 -2.452171 -8.899406 11.597897 -1.564465 -0.075967 1.475308
    32 0.680496 -0.903999 6.074253 -1.628053 0.173822 -0.014264
    33 0.245514 -0.661150 3.388004 -1.484463 0.109509 -0.099209
    34 -0.717484 -3.784271 13.043911 -1.593614 -0.028639 1.464727
    35 1.099216 -1.407745 8.017889 -1.782123 0.031968 -0.017453
    36 0.068439 -0.807653 3.686054 -1.465863 0.034016 -0.009746
    37 -4.004929 6.172707 4.754754 0.109467 1.126800 2.530891
    38 0.158352 -1.149811 5.804394 -0.869601 -0.330359 0.145702
    39 -1.083523 -1.463142 5.544399 -0.797667 -0.152646 -0.023898
    40 -6.289886 0.932434 13.569063 -0.126803 0.612110 2.869610
    41 1.327774 -0.766687 12.396328 -0.007320 0.003909 -0.067160
    42 -0.096140 1.828087 23.185329 0.106644 -0.462102 -1.585506
    43 2.325478 -0.000003 6.169296 -0.027200 0.176598 2.832052
    44 0.000000 -3.152912 0.122169 1.961017 0.000000 0.000000
    45 1.068383 -10.478592 7.066338 0.292219 -1.282324 -3.141588
    46 0.000000 0.000000 2.279457 0.547137 -0.343566 0.107833
    47 2.479414 -8.323895 6.074242 0.011070 0.172505 2.043735
    48 0.000003 -5.075260 5.105362 0.000000 0.000000 0.000000
    49 -1.068383 -10.478611 7.065971 0.292219 1.282324 3.141588
    50 -0.000488 0.000015 2.279600 0.547136 0.343566 0.107835
    51 -2.479401 -8.323895 6.074234 0.026394 0.144194 2.048138
    52 -5.790000 4.432083 14.255558 -0.811310 1.489492 2.052204
    53 1.044540 -2.839314 19.743252 -0.351936 0.554525 -0.117878
    54 -2.655510 -1.533379 24.792648 -0.480643 -0.070700 -0.026153
    55 -1.120216 -0.154385 9.795983 -0.062946 0.009006 0.557986
    56 -2.240372 -0.308788 19.592047 -0.334164 0.396631 1.009157
    57 -0.683205 2.877342 14.167089 -1.604572 0.208963 -1.789832
    58 -0.144958 -0.145317 7.579308 -1.541391 0.304896 -0.166506
    59 -0.038551 -0.936644 4.697678 -2.189644 0.238601 -0.365186
    60 -0.506317 8.500896 13.617329 -1.710308 0.278123 -1.993722
    61 0.385056 -0.460075 7.003435 -1.471935 0.596211 -0.385485
    62 -0.456360 -0.710276 5.057732 -1.989931 0.545820 -0.699364
    63 2.452194 -8.899408 11.597939 -1.419606 0.110527 -1.352657
    64 -0.680515 -0.903999 6.074242 -1.453600 -0.173887 -0.003174
    65 -0.248295 -0.666843 3.386627 -1.668601 -0.122156 0.124627
    66 0.717491 -3.784309 13.044010 -1.725758 0.009829 -1.454343
    67 -1.099228 -1.407673 8.017876 -1.350904 -0.015601 0.007733
    68 -0.064053 -0.807640 3.686100 -1.839907 -0.037750 0.018150
    69 4.004906 6.172710 4.754800 -0.720265 -0.940278 -1.497143
    70 -0.158381 -1.149773 5.804405 -0.345802 0.685530 0.599784
    71 1.078559 -2.386406 5.215008 -1.052492 1.087707 -0.156299
    72 6.289963 0.932404 13.569109 -0.126801 -0.612098 -2.869612
    73 -1.327759 -0.766682 12.396324 -0.001794 -0.001011 0.016648
    74 0.000017 -54.999996 0.000000 0.000000 0.000000 -1.570796
  time 1
    0 0.000000 0.000000 -1.500000 0.000000 0.000000 0.000000
    1 -10.521344 -5.760963 66.994621 3.097005 -0.050653 -3.139334
    2 -9.257813 11.484375 -7.625000 0.990043 0.900018 1.448363
    3 -0.000034 0.000012 24.761454 -1.771395 -0.205220 0.194171
    4 0.000017 0.000000 24.344809 0.773271 -0.125516 -0.057968
    5 0.002333 -1.019846 24.031336 0.389586 -0.042687 0.017205
    6 0.000034 0.000008 13.404741 -0.000002 -0.000004 0.122163
    7 10.398263 -5.760962 66.994675 3.097005 0.050653 3.139334
    8 10.484375 -2.748047 7.609375 -0.135977 0.563048 1.544271
    9 -0.000004 -0.000006 24.761459 -1.138916 0.132119 -0.704651
    10 -0.000007 0.000004 24.344891 0.815039 0.177442 0.063228
    11 -0.002360 -1.019903 24.031330 0.099304 -0.045860 -0.004486
    12 0.000000 -0.000002 13.404737 0.000006 0.000001 -0.338211
    13 -0.061540 -5.245835 72.927078 0.000000 0.000000 0.000000
    14 0.459717 -0.343018 -2.140625 0.026377 0.563867 -1.495002
    15 0.000000 -0.005608 -1.146812 0.000000 0.299558 0.000000
    16 0.030770 -0.240000 8.906021 -0.004138 0.000000 0.000000
    17 0.217896 0.291992 0.072876 -0.080143 0.052342 -0.088053
    18 0.030770 -0.276858 8.905140 0.056125 0.004134 -0.000049
    19 -0.648438 -1.009766 -0.113281 0.381434 -0.229837 -0.054767
    20 5.669724 4.435303 14.302868 2.717452 -1.259952 0.409841
    21 -1.044571 -2.839317 19.743267 0.274501 -0.460581 0.002965
    22 2.655533 -1.533369 24.792658 -1.447963 0.146014 0.000054
    23 1.120163 -0.154394 9.796035 -0.077990 -0.017130 -0.706084
    24 2.240311 -0.308786 19.592051 -0.014311 -0.247437 -1.424034
    25 0.683151 2.877354 14.167051 -1.511395 -0.211766 1.554307
    26 0.144936 -0.145374 7.579252 -1.768092 -0.243254 0.235289
    27 0.091660 -0.906685 4.702850 -1.587476 -0.182564 0.191122
    28 0.506271 8.500866 13.617253 -1.470528 -0.303331 1.571637
    29 -0.384987 -0.460049 7.003448 -1.747475 -0.440888 0.551346
    30 0.561516 -0.596954 5.061852 -1.494426 -0.380566 0.386319
    31 -2.452171 -8.899406 11.597897 -1.564465 -0.075967 1.475308
    32 0.680496 -0.903999 6.074253 -1.628053 0.173822 -0.014264
    33 0.245514 -0.661150 3.388004 -1.484463 0.109509 -0.099209
    34 -0.717484 -3.784271 13.043911 -1.593614 -0.028639 1.464727
    35 1.099216 -1.407745 8.017889 -1.782123 0.031968 -0.017453
    36 0.068439 -0.807653 3.686054 -1.465863 0.034016 -0.009746
    37 -4.004929 6.172707 4.754754 0.109467 1.126800 2.530891
    38 0.158352 -1.149811 5.804394 -0.869601 -0.330359 0.145702
    39 -1.083523 -1.463142 5.544399 -0.797667 -0.152646 -0.023898
    40 -6.289886 0.932434 13.569063 -0.126803 0.612110 2.869610
    41 1.327774 -0.766687 12.396328 -0.007320 0.003909 -0.067160
    42 -0.096140 1.828087 23.185329 0.106644 -0.462102 -1.585506
    43 2.325478 -0.000003 6.169296 -0.027200 0.176598 2.832052
    44 0.000000 -3.152912 0.122169 1.961017 0.000000 0.000000
    45 1.068383 -10.478592 7.066338 0.292219 -1.282324 -3.141588
    46 0.000000 0.000000 2.279457 0.547137 -0.343566 0.107833
    47 2.479414 -8.323895 6.074242 0.011070 0.172505 2.043735
    48 0.000003 -5.075260 5.105362 0.000000 0.000000 0.000000
    49 -1.068383 -10.478611 7.065971 0.292219 1.282324 3.141588
    50 -0.000488 0.000015 2.279600 0.547136 0.343566 0.107835
    51 -2.479401 -8.323895 6.074234 0.026394 0.144194 2.048138
    52 -5.790000 4.432083 14.255558 -0.811310 1.489492 2.052204
    53 1.044540 -2.839314 19.743252 -0.351936 0.554525 -0.117878
    54 -2.655510 -1.533379 24.792648 -0.480643 -0.070700 -0.026153
    55 -1.120216 -0.154385 9.795983 -0.062946 0.009006 0.557986
    56 -2.240372 -0.308788 19.592047 -0.334164 0.396631 1.009157
    57 -0.683205 2.877342 14.167089 -1.604572 0.208963 -1.789832
    58 -0.144958 -0.145317 7.579308 -1.541391 0.304896 -0.166506
    59 -0.038551 -0.936644 4.697678 -2.189644 0.238601 -0.365186
    60 -0.506317 8.500896 13.617329 -1.710308 0.278123 -1.993722
    61 0.385056 -0.460075 7.003435 -1.471935 0.596211 -0.385485
    62 -0.456360 -0.710276 5.057732 -1.989931 0.545820 -0.699364
    63 2.452194 -8.899408 11.597939 -1.419606 0.110527 -1.352657
    64 -0.680515 -0.903999 6.074242 -1.453600 -0.173887 -0.003174
    65 -0.248295 -0.666843 3.386627 -1.668601 -0.122156 0.124627
    66 0.717491 -3.784309 13.044010 -1.725758 0.009829 -1.454343
    67 -1.099228 -1.407673 8.017876 -1.350904 -0.015601 0.007733
    68 -0.064053 -0.807640 3.686100 -1.839907 -0.037750 0.018150
    69 4.004906 6.172710 4.754800 -0.720265 -0.940278 -1.497143
    70 -0.158381 -1.149773 5.804405 -0.345802 0.685530 0.599784
    71 1.078559 -2.386406 5.215008 -1.052492 1.087707 -0.156299
    72 6.289963 0.932404 13.569109 -0.126801 -0.612098 -2.869612
    73 -1.327759 -0.766682 12.396324 -0.001794 -0.001011 0.016648
    74 0.000017 -54.999996 0.000000 0.000000 0.000000 -1.570796
end
