// Created by Crowbar 0.74
version 1
nodes
  0 "root" -1
  1 "g_r_hip_offset" 0
  2 "g_r_hip" 1
  3 "g_r_knee" 2
  4 "g_r_ankle" 3
  5 "g_r_ball" 4
  6 "g_r_thightwist" 2
  7 "g_l_hip_offset" 0
  8 "g_l_hip" 7
  9 "g_l_knee" 8
  10 "g_l_ankle" 9
  11 "g_l_ball" 10
  12 "g_l_thightwist" 8
  13 "g_spine01_offset" 0
  14 "g_spine01" 13
  15 "g_pelvis" 14
  16 "g_spine02_offset" 14
  17 "g_spine02" 16
  18 "g_spine03_offset" 17
  19 "g_spine03" 18
  20 "g_l_clavical" 19
  21 "g_l_shoulder" 20
  22 "g_l_elbow" 21
  23 "g_l_forarm" 22
  24 "g_l_wrist" 22
  25 "g_l_birdy1" 24
  26 "g_l_birdy2" 25
  27 "g_l_birdy3" 26
  28 "g_l_index1" 24
  29 "g_l_index2" 28
  30 "g_l_index3" 29
  31 "g_l_pinky1" 24
  32 "g_l_pinky2" 31
  33 "g_l_pinky3" 32
  34 "g_l_ring1" 24
  35 "g_l_ring2" 34
  36 "g_l_ring3" 35
  37 "g_l_thumb1" 24
  38 "g_l_thumb2" 37
  39 "g_l_thumb3" 38
  40 "g_l_palm" 24
  41 "g_l_biceptwist" 21
  42 "g_neck" 19
  43 "g_head" 42
  44 "g_jaw" 43
  45 "g_l_brow" 43
  46 "g_l_brow2" 45
  47 "g_l_eye" 43
  48 "g_topeyelid" 43
  49 "g_r_brow" 43
  50 "g_r_brow2" 49
  51 "g_r_eye" 43
  52 "g_r_clavical" 19
  53 "g_r_shoulder" 52
  54 "g_r_elbow" 53
  55 "g_r_forarm" 54
  56 "g_r_wrist" 54
  57 "g_r_birdy1" 56
  58 "g_r_birdy2" 57
  59 "g_r_birdy3" 58
  60 "g_r_index1" 56
  61 "g_r_index2" 60
  62 "g_r_index3" 61
  63 "g_r_pinky1" 56
  64 "g_r_pinky2" 63
  65 "g_r_pinky3" 64
  66 "g_r_ring1" 56
  67 "g_r_ring2" 66
  68 "g_r_ring3" 67
  69 "g_r_thumb1" 56
  70 "g_r_thumb2" 69
  71 "g_r_thumb3" 70
  72 "g_r_palm" 56
  73 "g_r_biceptwist" 53
  74 "g_throwable_attach_offset" 0
end
skeleton
  time 0
    0 0.000000 0.000000 -1.500000 0.000000 0.000000 0.000000
    1 -10.521344 -5.760963 66.994621 3.097005 -0.050653 -3.139334
    2 -0.968408 6.910423 22.665453 0.933544 0.218602 0.227501
    3 -0.000034 0.000012 24.761454 -1.877252 -0.217450 -0.110543
    4 0.000017 0.000000 24.344809 1.945837 -0.198773 -0.093822
    5 0.002333 -1.019846 24.031336 0.389660 -0.042710 0.017201
    6 0.000034 0.000008 13.404741 -0.000001 -0.000009 -0.142003
    7 10.398263 -5.760962 66.994675 3.097005 0.050653 3.139334
    8 1.667853 3.670567 23.728266 1.504988 -0.652592 -0.311856
    9 -0.000004 -0.000006 24.761459 -1.518023 0.175966 -0.581494
    10 -0.000007 0.000004 24.344891 0.973733 0.122059 0.017875
    11 -0.002360 -1.019903 24.031330 0.389594 -0.042695 -0.017219
    12 0.000000 -0.000002 13.404737 0.000001 0.000005 -0.304480
    13 -0.061540 -5.245835 72.927078 0.000000 0.000000 0.000000
    14 0.005230 5.966993 -22.964765 0.013870 0.012219 0.003600
    15 0.000000 -0.005608 -1.146812 0.050083 0.044808 -0.156956
    16 0.030770 -0.240000 8.906021 -0.004138 0.000000 0.000000
    17 -0.214827 -3.307839 -1.070743 0.519768 -0.053484 0.010988
    18 0.030770 -0.276858 8.905140 0.056125 0.004134 -0.000049
    19 0.135457 -1.194473 -0.368374 0.564058 0.062908 -0.038532
    20 5.669724 4.435303 14.302868 0.425522 -1.321872 2.323204
    21 -1.044571 -2.839317 19.743267 -0.649683 -0.331832 0.083401
    22 2.655533 -1.533369 24.792658 -1.433653 0.126003 -1.114881
    23 1.120163 -0.154394 9.796035 -0.030338 0.000134 -0.263596
    24 2.240311 -0.308786 19.592051 -0.205139 -0.002146 -0.505948
    25 0.683151 2.877354 14.167051 -1.709525 -0.207397 1.590337
    26 0.144936 -0.145374 7.579252 -1.595959 -0.243925 0.203084
    27 0.091660 -0.906685 4.702850 -1.417417 -0.179860 0.158257
    28 0.506271 8.500866 13.617253 -1.613964 -0.240865 1.579486
    29 -0.384987 -0.460049 7.003448 -1.757448 -0.386771 0.547979
    30 0.561516 -0.596954 5.061852 -1.314527 -0.374734 0.318107
    31 -2.452171 -8.899406 11.597897 -1.694526 -0.119320 1.270057
    32 0.680496 -0.903999 6.074253 -1.459886 0.159236 -0.002977
    33 0.245514 -0.661150 3.388004 -1.316247 0.113247 -0.085963
    34 -0.717484 -3.784271 13.043911 -1.784842 -0.001913 1.448919
    35 1.099216 -1.407745 8.017889 -1.614781 0.028416 -0.011660
    36 0.068439 -0.807653 3.686054 -1.298544 0.029359 -0.005367
    37 -4.004929 6.172707 4.754754 -0.005300 1.045494 2.635522
    38 0.158352 -1.149811 5.804394 -1.116691 -0.455950 0.152796
    39 -1.083523 -1.463142 5.544399 -1.096299 -0.298246 -0.042610
    40 -6.289886 0.932434 13.569063 -0.126803 0.612110 2.869610
    41 1.327774 -0.766687 12.396328 -0.079939 0.015199 -0.671500
    42 -0.096140 1.828087 23.185329 -0.004686 -0.123502 -1.568696
    43 2.325478 -0.000003 6.169296 -0.890451 0.012031 1.607806
    44 0.000000 -3.152912 0.122169 1.961017 0.000000 0.000000
    45 1.068383 -10.478592 7.066338 0.292219 -1.282324 -3.141588
    46 0.000000 0.000000 2.279457 0.547137 -0.343566 0.107833
    47 2.479414 -8.323895 6.074242 -0.008855 0.007342 1.561876
    48 0.000003 -5.075260 5.105362 0.000000 0.000000 0.000000
    49 -1.068383 -10.478611 7.065971 0.292219 1.282324 3.141588
    50 -0.000488 0.000015 2.279600 0.547136 0.343566 0.107835
    51 -2.479401 -8.323895 6.074234 0.008854 0.007354 1.579716
    52 -5.790000 4.432083 14.255558 -5.206545 1.051871 -1.417300
    53 1.044540 -2.839314 19.743252 -0.345011 0.851839 -0.168901
    54 -2.655510 -1.533379 24.792648 -1.705608 -0.160575 0.978946
    55 -1.120216 -0.154385 9.795983 -0.025101 -0.000701 0.218060
    56 -2.240372 -0.308788 19.592047 -0.131814 0.057132 0.423176
    57 -0.683205 2.877342 14.167089 -1.813697 0.202332 -1.608736
    58 -0.144958 -0.145317 7.579308 -1.703914 0.309303 -0.206994
    59 -0.038551 -0.936644 4.697678 -1.518641 0.258934 -0.201852
    60 -0.506317 8.500896 13.617329 -1.648180 0.227614 -1.751390
    61 0.385056 -0.460075 7.003435 -1.902894 0.582723 -0.590092
    62 -0.456360 -0.710276 5.057732 -1.410495 0.559028 -0.409524
    63 2.452194 -8.899408 11.597939 -1.843283 0.075632 -1.305522
    64 -0.680515 -0.903999 6.074242 -1.562167 -0.184086 0.005449
    65 -0.248295 -0.666843 3.386627 -1.419544 -0.128984 0.102399
    66 0.717491 -3.784309 13.044010 -1.885663 -0.010806 -1.438623
    67 -1.099228 -1.407673 8.017876 -1.717045 -0.024302 0.016738
    68 -0.064053 -0.807640 3.686100 -1.400717 -0.029761 0.004448
    69 4.004906 6.172710 4.754800 -0.120553 -0.991438 -2.751499
    70 -0.158381 -1.149773 5.804405 -0.965763 0.641115 0.235790
    71 1.078559 -2.386406 5.215008 -1.032246 0.626656 0.155506
    72 6.289963 0.932404 13.569109 -0.126801 -0.612098 -2.869612
    73 -1.327759 -0.766682 12.396324 -0.064618 -0.016505 0.546809
    74 0.000017 -54.999996 0.000000 0.000000 0.000000 -1.570796
  time 1
    0 0.000000 0.000000 -1.500000 0.000000 0.000000 0.000000
    1 -10.521344 -5.760963 66.994621 3.097005 -0.050653 -3.139334
    2 -0.944970 7.254178 14.570194 0.350646 0.223556 0.263414
    3 -0.000034 0.000012 24.761454 -1.290942 -0.149689 -0.234082
    4 0.000017 0.000000 24.344809 1.908417 -0.185237 -0.079605
    5 0.002333 -1.019846 24.031336 0.418071 -0.043177 0.015967
    6 0.000034 0.000008 13.404741 -0.000001 -0.000009 -0.162991
    7 10.398263 -5.760962 66.994675 3.097005 0.050653 3.139334
    8 1.218621 2.096906 15.095880 0.928378 -0.643776 0.037024
    9 -0.000004 -0.000006 24.761459 -1.398844 0.162196 -0.563011
    10 -0.000007 0.000004 24.344891 1.328249 0.150812 0.050201
    11 -0.002360 -1.019903 24.031330 0.389594 -0.042695 -0.017219
    12 0.000000 -0.000002 13.404737 0.000001 0.000005 -0.263409
    13 -0.061540 -5.245835 72.927078 0.000000 0.000000 0.000000
    14 0.005230 4.511281 -14.628259 0.049683 0.007591 0.002279
    15 0.000000 -0.005608 -1.146812 0.103703 0.016826 -0.251716
    16 0.030770 -0.240000 8.906021 -0.004138 0.000000 0.000000
    17 -0.207014 -3.550034 -1.152777 0.563055 -0.065448 0.025084
    18 0.030770 -0.276858 8.905140 0.056125 0.004134 -0.000049
    19 0.154989 -1.018687 -0.243370 0.499967 0.063998 -0.040809
    20 5.669724 4.435303 14.302868 0.403605 -1.476658 2.587130
    21 -1.044571 -2.839317 19.743267 -0.859894 -0.657460 0.248123
    22 2.655533 -1.533369 24.792658 -1.425104 0.145908 -0.776028
    23 1.120163 -0.154394 9.796035 -0.031561 -0.000009 -0.274151
    24 2.240311 -0.308786 19.592051 -0.206967 0.013003 -0.528538
    25 0.683151 2.877354 14.167051 -1.709525 -0.207385 1.590337
    26 0.144936 -0.145374 7.579252 -1.595959 -0.243925 0.203084
    27 0.091660 -0.906685 4.702850 -1.417417 -0.179860 0.158257
    28 0.506271 8.500866 13.617253 -1.613964 -0.240865 1.579486
    29 -0.384987 -0.460049 7.003448 -1.757448 -0.386771 0.547979
    30 0.561516 -0.596954 5.061852 -1.314527 -0.374734 0.318107
    31 -2.452171 -8.899406 11.597897 -1.694526 -0.119320 1.270057
    32 0.680496 -0.903999 6.074253 -1.459886 0.159236 -0.002977
    33 0.245514 -0.661150 3.388004 -1.316247 0.113247 -0.085963
    34 -0.717484 -3.784271 13.043911 -1.784842 -0.001913 1.448919
    35 1.099216 -1.407745 8.017889 -1.614781 0.028416 -0.011660
    36 0.068439 -0.807653 3.686054 -1.298544 0.029359 -0.005367
    37 -4.004929 6.172707 4.754754 -0.005300 1.045494 2.635522
    38 0.158352 -1.149811 5.804394 -1.116691 -0.455950 0.152796
    39 -1.083523 -1.463142 5.544399 -1.096299 -0.298246 -0.042610
    40 -6.289886 0.932434 13.569063 -0.126803 0.612110 2.869610
    41 1.327774 -0.766687 12.396328 -0.058906 0.016518 -0.500565
    42 -0.096140 1.828087 23.185329 0.010518 -0.165917 -1.567931
    43 2.325478 -0.000003 6.169296 -0.900526 0.024995 1.586373
    44 0.000000 -3.152912 0.122169 1.961017 0.000000 0.000000
    45 1.068383 -10.478592 7.066338 0.292219 -1.282324 -3.141588
    46 0.000000 0.000000 2.279457 0.547137 -0.343566 0.107833
    47 2.479414 -8.323895 6.074242 -0.008855 0.007342 1.561876
    48 0.000003 -5.075260 5.105362 0.000000 0.000000 0.000000
    49 -1.068383 -10.478611 7.065971 0.292219 1.282324 3.141588
    50 -0.000488 0.000015 2.279600 0.547136 0.343566 0.107835
    51 -2.479401 -8.323895 6.074234 0.008854 0.007354 1.579716
    52 -5.790000 4.432083 14.255558 -4.946962 1.213034 -1.344481
    53 1.044540 -2.839314 19.743252 -0.539196 1.058652 -0.317796
    54 -2.655510 -1.533379 24.792648 -1.464046 -0.147852 0.688218
    55 -1.120216 -0.154385 9.795983 -0.025077 -0.000713 0.217788
    56 -2.240372 -0.308788 19.592047 -0.131738 0.059310 0.422575
    57 -0.683205 2.877342 14.167089 -1.813697 0.202332 -1.608736
    58 -0.144958 -0.145317 7.579308 -1.703914 0.309303 -0.206994
    59 -0.038551 -0.936644 4.697678 -1.518641 0.258934 -0.201852
    60 -0.506317 8.500896 13.617329 -1.648180 0.227614 -1.751390
    61 0.385056 -0.460075 7.003435 -1.902894 0.582723 -0.590092
    62 -0.456360 -0.710276 5.057732 -1.410495 0.559028 -0.409524
    63 2.452194 -8.899408 11.597939 -1.843283 0.075632 -1.305522
    64 -0.680515 -0.903999 6.074242 -1.562167 -0.184086 0.005449
    65 -0.248295 -0.666843 3.386627 -1.419544 -0.128984 0.102399
    66 0.717491 -3.784309 13.044010 -1.885663 -0.010806 -1.438623
    67 -1.099228 -1.407673 8.017876 -1.717045 -0.024302 0.016738
    68 -0.064053 -0.807640 3.686100 -1.400717 -0.029761 0.004448
    69 4.004906 6.172710 4.754800 -0.120553 -0.991438 -2.751499
    70 -0.158381 -1.149773 5.804405 -0.965763 0.641115 0.235790
    71 1.078559 -2.386406 5.215008 -1.032246 0.626656 0.155506
    72 6.289963 0.932404 13.569109 -0.126801 -0.612098 -2.869612
    73 -1.327759 -0.766682 12.396324 -0.044256 -0.015307 0.381459
    74 0.000017 -54.999996 0.000000 0.000000 0.000000 -1.570796
  time 2
    0 0.000000 0.000000 -1.500000 0.000000 0.000000 0.000000
    1 -10.521344 -5.760963 66.994621 3.097005 -0.050653 -3.139334
    2 -0.234011 6.566667 2.752462 -0.153002 0.253368 0.174243
    3 -0.000034 0.000012 24.761454 -0.608979 -0.070746 -0.174023
    4 0.000017 0.000000 24.344809 1.247006 -0.111085 -0.026108
    5 0.002333 -1.019846 24.031336 0.402652 -0.042938 0.016638
    6 0.000034 0.000008 13.404741 -0.000001 -0.000009 -0.094206
    7 10.398263 -5.760962 66.994675 3.097005 0.050653 3.139334
    8 0.605321 2.071928 3.720913 0.582872 -0.470714 0.148256
    9 -0.000004 -0.000006 24.761459 -1.017327 0.118057 -0.458794
    10 -0.000007 0.000004 24.344891 0.984382 0.158989 0.055918
    11 -0.002360 -1.019903 24.031330 0.712610 -0.035073 -0.029623
    12 0.000000 -0.000002 13.404737 0.000001 0.000005 -0.200483
    13 -0.061540 -5.245835 72.927078 0.000000 0.000000 0.000000
    14 0.005230 3.288483 -3.047273 0.121564 -0.000358 -0.000663
    15 0.000000 -0.005608 -1.146812 0.086096 0.031209 -0.218807
    16 0.030770 -0.240000 8.906021 -0.004138 0.000000 0.000000
    17 -0.207014 -3.686757 -1.098088 0.583173 -0.063093 0.021131
    18 0.030770 -0.276858 8.905140 0.056125 0.004134 -0.000049
    19 0.162802 -0.780398 -0.032426 0.402633 0.063443 -0.046861
    20 5.669724 4.435303 14.302868 4.673418 -1.423982 -1.312146
    21 -1.044571 -2.839317 19.743267 -0.763325 -0.935548 0.380695
    22 2.655533 -1.533369 24.792658 -1.367864 0.144755 -0.199653
    23 1.120163 -0.154394 9.796035 -0.030937 0.000074 -0.268908
    24 2.240311 -0.308786 19.592051 -0.205966 0.005451 -0.517223
    25 0.683151 2.877354 14.167051 -1.709525 -0.207373 1.590337
    26 0.144936 -0.145374 7.579252 -1.595959 -0.243925 0.203084
    27 0.091660 -0.906685 4.702850 -1.417417 -0.179860 0.158257
    28 0.506271 8.500866 13.617253 -1.613964 -0.240865 1.579486
    29 -0.384987 -0.460049 7.003448 -1.757448 -0.386771 0.547979
    30 0.561516 -0.596954 5.061852 -1.314527 -0.374734 0.318107
    31 -2.452171 -8.899406 11.597897 -1.694526 -0.119320 1.270057
    32 0.680496 -0.903999 6.074253 -1.459886 0.159236 -0.002977
    33 0.245514 -0.661150 3.388004 -1.316247 0.113247 -0.085963
    34 -0.717484 -3.784271 13.043911 -1.784842 -0.001913 1.448919
    35 1.099216 -1.407745 8.017889 -1.614781 0.028416 -0.011660
    36 0.068439 -0.807653 3.686054 -1.298544 0.029359 -0.005367
    37 -4.004929 6.172707 4.754754 -0.005300 1.045494 2.635522
    38 0.158352 -1.149811 5.804394 -1.116691 -0.455950 0.152796
    39 -1.083523 -1.463142 5.544399 -1.096299 -0.298246 -0.042610
    40 -6.289886 0.932434 13.569063 -0.126803 0.612110 2.869610
    41 1.327774 -0.766687 12.396328 -0.020939 0.009615 -0.186716
    42 -0.096140 1.828087 23.185329 0.018428 -0.220887 -1.543015
    43 2.325478 -0.000003 6.169296 -0.878752 0.045990 1.564701
    44 0.000000 -3.152912 0.122169 1.961017 0.000000 0.000000
    45 1.068383 -10.478592 7.066338 0.292219 -1.282324 -3.141588
    46 0.000000 0.000000 2.279457 0.547137 -0.343566 0.107833
    47 2.479414 -8.323895 6.074242 -0.008855 0.007342 1.561876
    48 0.000003 -5.075260 5.105362 0.000000 0.000000 0.000000
    49 -1.068383 -10.478611 7.065971 0.292219 1.282324 3.141588
    50 -0.000488 0.000015 2.279600 0.547136 0.343566 0.107835
    51 -2.479401 -8.323895 6.074234 0.008854 0.007354 1.579716
    52 -5.790000 4.432083 14.255558 -4.367503 1.462422 -1.140202
    53 1.044540 -2.839314 19.743252 -0.228411 1.214207 -0.153987
    54 -2.655510 -1.533379 24.792648 -0.977549 -0.092482 -0.033642
    55 -1.120216 -0.154385 9.795983 -0.025089 -0.000713 0.217924
    56 -2.240372 -0.308788 19.592047 -0.131814 0.058221 0.422832
    57 -0.683205 2.877342 14.167089 -1.813697 0.202332 -1.608736
    58 -0.144958 -0.145317 7.579308 -1.703914 0.309303 -0.206994
    59 -0.038551 -0.936644 4.697678 -1.518641 0.258934 -0.201852
    60 -0.506317 8.500896 13.617329 -1.648180 0.227614 -1.751390
    61 0.385056 -0.460075 7.003435 -1.902894 0.582723 -0.590092
    62 -0.456360 -0.710276 5.057732 -1.410495 0.559028 -0.409524
    63 2.452194 -8.899408 11.597939 -1.843283 0.075632 -1.305522
    64 -0.680515 -0.903999 6.074242 -1.562167 -0.184086 0.005449
    65 -0.248295 -0.666843 3.386627 -1.419544 -0.128984 0.102399
    66 0.717491 -3.784309 13.044010 -1.885663 -0.010806 -1.438623
    67 -1.099228 -1.407673 8.017876 -1.717045 -0.024302 0.016738
    68 -0.064053 -0.807640 3.686100 -1.400717 -0.029761 0.004448
    69 4.004906 6.172710 4.754800 -0.120553 -0.991438 -2.751499
    70 -0.158381 -1.149773 5.804405 -0.965763 0.641115 0.235790
    71 1.078559 -2.386406 5.215008 -1.032246 0.626656 0.155506
    72 6.289963 0.932404 13.569109 -0.126801 -0.612098 -2.869612
    73 -1.327759 -0.766682 12.396324 0.002148 0.001268 -0.020166
    74 0.000017 -54.999996 0.000000 0.000000 0.000000 -1.570796
  time 3
    0 0.000000 0.000000 -1.500000 0.000000 0.000000 0.000000
    1 -10.521344 -5.760963 66.994621 3.097005 -0.050653 -3.139334
    2 0.488667 6.124695 -8.011317 -0.468568 0.218657 0.088261
    3 -0.000034 0.000012 24.761454 -0.302185 -0.035188 -0.144543
    4 0.000017 0.000000 24.344809 0.581588 -0.015430 0.000165
    5 0.002333 -1.019846 24.031336 0.389660 -0.042722 0.017189
    6 0.000034 0.000008 13.404741 -0.000001 -0.000009 -0.068366
    7 10.398263 -5.760962 66.994675 3.097005 0.050653 3.139334
    8 0.027178 2.996141 -6.687406 0.055230 -0.181728 0.182253
    9 -0.000004 -0.000006 24.761459 -0.000260 0.000128 -0.354827
    10 -0.000007 0.000004 24.344891 0.198548 0.210540 -0.004678
    11 -0.002360 -1.019903 24.031330 1.022583 -0.022165 -0.038612
    12 0.000000 -0.000002 13.404737 0.000001 0.000005 -0.167677
    13 -0.061540 -5.245835 72.927078 0.000000 0.000000 0.000000
    14 0.005230 2.764427 7.519812 0.200167 -0.004573 -0.002765
    15 0.000000 -0.005608 -1.146812 0.050083 0.044808 -0.156956
    16 0.030770 -0.240000 8.906021 -0.004138 0.000000 0.000000
    17 -0.214827 -3.776603 -1.031680 0.596788 -0.061308 0.017617
    18 0.030770 -0.276858 8.905140 0.056125 0.004134 -0.000049
    19 0.174521 -0.499140 0.139454 0.291073 0.062867 -0.053572
    20 5.669724 4.435303 14.302868 4.800994 -1.305911 -1.201650
    21 -1.044571 -2.839317 19.743267 -0.450039 -0.924120 0.230807
    22 2.655533 -1.533369 24.792658 -1.331411 0.127002 0.111784
    23 1.120163 -0.154394 9.796035 -0.030338 0.000134 -0.263596
    24 2.240311 -0.308786 19.592051 -0.205139 -0.002146 -0.505948
    25 0.683151 2.877354 14.167051 -1.709525 -0.207385 1.590337
    26 0.144936 -0.145374 7.579252 -1.595959 -0.243925 0.203084
    27 0.091660 -0.906685 4.702850 -1.417417 -0.179860 0.158257
    28 0.506271 8.500866 13.617253 -1.613964 -0.240865 1.579486
    29 -0.384987 -0.460049 7.003448 -1.757448 -0.386771 0.547979
    30 0.561516 -0.596954 5.061852 -1.314527 -0.374734 0.318107
    31 -2.452171 -8.899406 11.597897 -1.694526 -0.119320 1.270057
    32 0.680496 -0.903999 6.074253 -1.459886 0.159236 -0.002977
    33 0.245514 -0.661150 3.388004 -1.316247 0.113247 -0.085963
    34 -0.717484 -3.784271 13.043911 -1.784842 -0.001913 1.448919
    35 1.099216 -1.407745 8.017889 -1.614781 0.028416 -0.011660
    36 0.068439 -0.807653 3.686054 -1.298544 0.029359 -0.005367
    37 -4.004929 6.172707 4.754754 -0.005390 1.045494 2.635522
    38 0.158352 -1.149811 5.804394 -1.116691 -0.455950 0.152796
    39 -1.083523 -1.463142 5.544399 -1.096299 -0.298246 -0.042610
    40 -6.289886 0.932434 13.569063 -0.126803 0.612110 2.869610
    41 1.327774 -0.766687 12.396328 -0.000649 0.000387 -0.006039
    42 -0.096140 1.828087 23.185329 0.019352 -0.246890 -1.526017
    43 2.325478 -0.000003 6.169296 -0.849386 0.054874 1.554164
    44 0.000000 -3.152912 0.122169 1.961017 0.000000 0.000000
    45 1.068383 -10.478592 7.066338 0.292219 -1.282324 -3.141588
    46 0.000000 0.000000 2.279457 0.547137 -0.343566 0.107833
    47 2.479414 -8.323895 6.074242 -0.008855 0.007342 1.561876
    48 0.000003 -5.075260 5.105362 0.000000 0.000000 0.000000
    49 -1.068383 -10.478611 7.065971 0.292219 1.282324 3.141588
    50 -0.000488 0.000015 2.279600 0.547136 0.343566 0.107835
    51 -2.479401 -8.323895 6.074234 0.008854 0.007354 1.579716
    52 -5.790000 4.432083 14.255558 -1.742057 1.518081 1.223657
    53 1.044540 -2.839314 19.743252 -0.029662 1.044364 -0.025722
    54 -2.655510 -1.533379 24.792648 -0.704130 -0.044995 -0.406461
    55 -1.120216 -0.154385 9.795983 -0.025113 -0.000701 0.218060
    56 -2.240372 -0.308788 19.592047 -0.131814 0.057132 0.423176
    57 -0.683205 2.877342 14.167089 -1.813697 0.202332 -1.608736
    58 -0.144958 -0.145317 7.579308 -1.703914 0.309291 -0.206994
    59 -0.038551 -0.936644 4.697678 -1.518641 0.258934 -0.201852
    60 -0.506317 8.500896 13.617329 -1.648180 0.227614 -1.751390
    61 0.385056 -0.460075 7.003435 -1.902894 0.582723 -0.590092
    62 -0.456360 -0.710276 5.057732 -1.410495 0.559028 -0.409524
    63 2.452194 -8.899408 11.597939 -1.843283 0.075632 -1.305522
    64 -0.680515 -0.903999 6.074242 -1.562167 -0.184086 0.005449
    65 -0.248295 -0.666843 3.386627 -1.419544 -0.128984 0.102399
    66 0.717491 -3.784309 13.044010 -1.885663 -0.010794 -1.438623
    67 -1.099228 -1.407673 8.017876 -1.717045 -0.024302 0.016738
    68 -0.064053 -0.807640 3.686100 -1.400717 -0.029761 0.004448
    69 4.004906 6.172710 4.754800 -0.120553 -0.991438 -2.751499
    70 -0.158381 -1.149773 5.804405 -0.965763 0.641115 0.235790
    71 1.078559 -2.386406 5.215008 -1.032246 0.626656 0.155506
    72 6.289963 0.932404 13.569109 -0.126801 -0.612098 -2.869612
    73 -1.327759 -0.766682 12.396324 0.020700 0.015002 -0.207076
    74 0.000017 -54.999996 0.000000 0.000000 0.000000 -1.570796
  time 4
    0 0.000000 0.000000 -1.500000 0.000000 0.000000 0.000000
    1 -10.521344 -5.760963 66.994621 3.097005 -0.050653 -3.139334
    2 1.301192 9.439483 -21.735136 -0.437893 0.198644 -0.002308
    3 -0.000034 0.000012 24.761454 -0.717396 -0.083306 -0.028089
    4 0.000017 0.000000 24.344809 0.459712 0.024611 0.023932
    5 0.002333 -1.019846 24.031336 0.214974 -0.039067 0.024488
    6 0.000034 0.000008 13.404741 -0.000001 -0.000009 -0.018016
    7 10.398263 -5.760962 66.994675 3.097005 0.050653 3.139334
    8 -0.734564 8.029358 -20.355350 -0.125030 -0.182898 0.144378
    9 -0.000004 -0.000006 24.761459 -0.596872 0.069351 -0.218382
    10 -0.000007 0.000004 24.344891 0.407011 0.134725 0.032672
    11 -0.002360 -1.019903 24.031330 0.332328 -0.043606 -0.014786
    12 0.000000 -0.000002 13.404737 0.000001 0.000005 -0.090151
    13 -0.061540 -5.245835 72.927078 0.000000 0.000000 0.000000
    14 0.005230 5.582685 21.241252 0.367581 0.004804 0.002820
    15 0.000000 -0.005608 -1.146812 0.006193 0.036652 -0.086110
    16 0.030770 -0.240000 8.906021 -0.004138 0.000000 0.000000
    17 -0.199202 -3.546127 -0.789485 0.552196 -0.059751 0.023407
    18 0.030770 -0.276858 8.905140 0.056125 0.004134 -0.000049
    19 0.174521 -0.284289 0.252738 0.200531 0.057292 -0.057995
    20 5.669724 4.435303 14.302868 5.016332 -1.356015 -1.347317
    21 -1.044571 -2.839317 19.743267 -0.215269 -0.898341 0.119357
    22 2.655533 -1.533369 24.792658 -1.223831 0.108980 0.203493
    23 1.120163 -0.154394 9.796035 -0.030326 0.000134 -0.263527
    24 2.240311 -0.308786 19.592051 -0.205052 -0.002330 -0.505750
    25 0.683151 2.877354 14.167051 -1.709525 -0.207385 1.590337
    26 0.144936 -0.145374 7.579252 -1.595959 -0.243925 0.203084
    27 0.091660 -0.906685 4.702850 -1.417417 -0.179860 0.158257
    28 0.506271 8.500866 13.617253 -1.613964 -0.240865 1.579486
    29 -0.384987 -0.460049 7.003448 -1.757448 -0.386771 0.547991
    30 0.561516 -0.596954 5.061852 -1.314527 -0.374734 0.318107
    31 -2.452171 -8.899406 11.597897 -1.694526 -0.119320 1.270057
    32 0.680496 -0.903999 6.074253 -1.459886 0.159236 -0.002977
    33 0.245514 -0.661150 3.388004 -1.316247 0.113247 -0.085963
    34 -0.717484 -3.784271 13.043911 -1.784842 -0.001913 1.448919
    35 1.099216 -1.407745 8.017889 -1.614781 0.028416 -0.011660
    36 0.068439 -0.807653 3.686054 -1.298544 0.029359 -0.005367
    37 -4.004929 6.172707 4.754754 -0.005300 1.045494 2.635522
    38 0.158352 -1.149811 5.804394 -1.116691 -0.455950 0.152808
    39 -1.083523 -1.463142 5.544399 -1.096299 -0.298246 -0.042610
    40 -6.289886 0.932434 13.569063 -0.126803 0.612110 2.869610
    41 1.327774 -0.766687 12.396328 0.006386 -0.003952 0.060748
    42 -0.096140 1.828087 23.185329 0.013086 -0.204157 -1.526353
    43 2.325478 -0.000003 6.169296 -0.886106 0.035963 1.553006
    44 0.000000 -3.152912 0.122169 1.961017 0.000000 0.000000
    45 1.068383 -10.478592 7.066338 0.292219 -1.282324 -3.141588
    46 0.000000 0.000000 2.279457 0.547137 -0.343566 0.107833
    47 2.479414 -8.323895 6.074242 -0.008855 0.007342 1.561876
    48 0.000003 -5.075260 5.105362 0.000000 0.000000 0.000000
    49 -1.068383 -10.478611 7.065971 0.292219 1.282324 3.141588
    50 -0.000488 0.000015 2.279600 0.547136 0.343566 0.107835
    51 -2.479401 -8.323895 6.074234 0.008854 0.007354 1.579716
    52 -5.790000 4.432083 14.255558 -1.141604 1.492370 1.704362
    53 1.044540 -2.839314 19.743252 0.008407 1.000271 -0.007515
    54 -2.655510 -1.533379 24.792648 -0.678816 -0.037178 -0.472195
    55 -1.120216 -0.154385 9.795983 -0.025077 -0.000713 0.217815
    56 -2.240372 -0.308788 19.592047 -0.131585 0.057033 0.422746
    57 -0.683205 2.877342 14.167089 -1.813697 0.202332 -1.608736
    58 -0.144958 -0.145317 7.579308 -1.703914 0.309303 -0.206994
    59 -0.038551 -0.936644 4.697678 -1.518641 0.258934 -0.201852
    60 -0.506317 8.500896 13.617329 -1.648180 0.227614 -1.751390
    61 0.385056 -0.460075 7.003435 -1.902894 0.582723 -0.590092
    62 -0.456360 -0.710276 5.057732 -1.410544 0.559028 -0.409524
    63 2.452194 -8.899408 11.597939 -1.843283 0.075632 -1.305522
    64 -0.680515 -0.903999 6.074242 -1.562167 -0.184086 0.005449
    65 -0.248295 -0.666843 3.386627 -1.419544 -0.128984 0.102399
    66 0.717491 -3.784309 13.044010 -1.885663 -0.010806 -1.438635
    67 -1.099228 -1.407673 8.017876 -1.717045 -0.024302 0.016738
    68 -0.064053 -0.807640 3.686100 -1.400717 -0.029761 0.004448
    69 4.004906 6.172710 4.754800 -0.120553 -0.991438 -2.751499
    70 -0.158381 -1.149773 5.804405 -0.965763 0.641115 0.235790
    71 1.078559 -2.386406 5.215008 -1.032246 0.626656 0.155506
    72 6.289963 0.932404 13.569109 -0.126801 -0.612098 -2.869612
    73 -1.327759 -0.766682 12.396324 0.023864 0.017938 -0.241913
    74 0.000017 -54.999996 0.000000 0.000000 0.000000 -1.570796
  time 5
    0 0.000000 0.000000 -1.500000 0.000000 0.000000 0.000000
    1 -10.521344 -5.760963 66.994621 3.097005 -0.050653 -3.139334
    2 1.816833 12.226360 -32.005575 -0.446433 0.206299 -0.116557
    3 -0.000034 0.000012 24.761454 -1.058092 -0.122747 0.105751
    4 0.000017 0.000000 24.344809 0.505762 0.034638 0.059150
    5 0.002333 -1.019846 24.031336 0.043648 -0.034309 0.030899
    6 0.000034 0.000008 13.404741 -0.000001 -0.000009 0.041193
    7 10.398263 -5.760962 66.994675 3.097005 0.050653 3.139334
    8 -1.371302 12.575489 -31.303193 -0.117011 -0.214979 0.078282
    9 -0.000004 -0.000006 24.761459 -0.868669 0.100847 -0.147038
    10 -0.000007 0.000004 24.344891 0.497302 0.083307 0.015626
    11 -0.002360 -1.019903 24.031330 0.206205 -0.045116 -0.009273
    12 0.000000 -0.000002 13.404737 0.000001 0.000005 -0.047212
    13 -0.061540 -5.245835 72.927078 0.000000 0.000000 0.000000
    14 0.005230 8.249549 31.830869 0.504431 0.013991 0.011708
    15 0.000000 -0.005608 -1.146812 -0.043822 0.020606 -0.004095
    16 0.030770 -0.240000 8.906021 -0.004138 0.000000 0.000000
    17 -0.160138 -2.846887 -0.336346 0.427511 -0.049483 0.032112
    18 0.030770 -0.276858 8.905140 0.056125 0.004134 -0.000049
    19 0.143270 -0.206162 0.330866 0.143483 0.043982 -0.059265
    20 5.669724 4.435303 14.302868 -0.441284 -1.446638 -2.116189
    21 -1.044571 -2.839317 19.743267 0.061621 -0.779936 0.005087
    22 2.655533 -1.533369 24.792658 -1.002682 0.082273 0.261559
    23 1.120163 -0.154394 9.796035 -0.030314 0.000146 -0.263389
    24 2.240311 -0.308786 19.592051 -0.204965 -0.002653 -0.505473
    25 0.683151 2.877354 14.167051 -1.709525 -0.207385 1.590337
    26 0.144936 -0.145374 7.579252 -1.595959 -0.243925 0.203084
    27 0.091660 -0.906685 4.702850 -1.417417 -0.179860 0.158257
    28 0.506271 8.500866 13.617253 -1.613964 -0.240865 1.579486
    29 -0.384987 -0.460049 7.003448 -1.757448 -0.386771 0.547991
    30 0.561516 -0.596954 5.061852 -1.314527 -0.374734 0.318107
    31 -2.452171 -8.899406 11.597897 -1.694526 -0.119320 1.270057
    32 0.680496 -0.903999 6.074253 -1.459886 0.159236 -0.002977
    33 0.245514 -0.661150 3.388004 -1.316247 0.113247 -0.085963
    34 -0.717484 -3.784271 13.043911 -1.784842 -0.001913 1.448919
    35 1.099216 -1.407745 8.017889 -1.614781 0.028416 -0.011660
    36 0.068439 -0.807653 3.686054 -1.298544 0.029359 -0.005367
    37 -4.004929 6.172707 4.754754 -0.005300 1.045494 2.635522
    38 0.158352 -1.149811 5.804394 -1.116691 -0.455950 0.152808
    39 -1.083523 -1.463142 5.544399 -1.096299 -0.298246 -0.042610
    40 -6.289886 0.932434 13.569063 -0.126803 0.612110 2.869610
    41 1.327774 -0.766687 12.396328 0.011431 -0.007463 0.110562
    42 -0.096140 1.828087 23.185329 -0.000714 -0.112923 -1.529135
    43 2.325478 -0.000003 6.169296 -0.850675 0.003104 1.554763
    44 0.000000 -3.152912 0.122169 1.961017 0.000000 0.000000
    45 1.068383 -10.478592 7.066338 0.292219 -1.282324 -3.141588
    46 0.000000 0.000000 2.279457 0.547137 -0.343566 0.107833
    47 2.479414 -8.323895 6.074242 -0.008855 0.007342 1.561876
    48 0.000003 -5.075260 5.105362 0.000000 0.000000 0.000000
    49 -1.068383 -10.478611 7.065971 0.292219 1.282324 3.141588
    50 -0.000488 0.000015 2.279600 0.547136 0.343566 0.107835
    51 -2.479401 -8.323895 6.074234 0.008854 0.007354 1.579716
    52 -5.790000 4.432083 14.255558 -0.577386 1.461342 2.154694
    53 1.044540 -2.839314 19.743252 0.017646 0.932902 -0.008576
    54 -2.655510 -1.533379 24.792648 -0.686516 -0.041371 -0.433800
    55 -1.120216 -0.154385 9.795983 -0.025029 -0.000713 0.217434
    56 -2.240372 -0.308788 19.592047 -0.131127 0.056835 0.421973
    57 -0.683205 2.877342 14.167089 -1.813697 0.202332 -1.608736
    58 -0.144958 -0.145317 7.579308 -1.703914 0.309303 -0.207006
    59 -0.038551 -0.936644 4.697678 -1.518641 0.258934 -0.201852
    60 -0.506317 8.500896 13.617329 -1.648180 0.227614 -1.751390
    61 0.385056 -0.460075 7.003435 -1.902894 0.582723 -0.590092
    62 -0.456360 -0.710276 5.057732 -1.410544 0.559028 -0.409524
    63 2.452194 -8.899408 11.597939 -1.843283 0.075632 -1.305522
    64 -0.680515 -0.903999 6.074242 -1.562167 -0.184086 0.005460
    65 -0.248295 -0.666843 3.386627 -1.419544 -0.128984 0.102399
    66 0.717491 -3.784309 13.044010 -1.885663 -0.010806 -1.438635
    67 -1.099228 -1.407673 8.017876 -1.717045 -0.024302 0.016738
    68 -0.064053 -0.807640 3.686100 -1.400717 -0.029761 0.004448
    69 4.004906 6.172710 4.754800 -0.120553 -0.991438 -2.751499
    70 -0.158381 -1.149773 5.804405 -0.965763 0.641115 0.235790
    71 1.078559 -2.386406 5.215008 -1.032246 0.626656 0.155506
    72 6.289963 0.932404 13.569109 -0.126801 -0.612098 -2.869612
    73 -1.327759 -0.766682 12.396324 0.021994 0.016177 -0.221094
    74 0.000017 -54.999996 0.000000 0.000000 0.000000 -1.570796
end
