// Created by Crowbar 0.74
version 1
nodes
  0 "root" -1
  1 "g_r_hip_offset" 0
  2 "g_r_hip" 1
  3 "g_r_knee" 2
  4 "g_r_ankle" 3
  5 "g_r_ball" 4
  6 "g_r_thightwist" 2
  7 "g_l_hip_offset" 0
  8 "g_l_hip" 7
  9 "g_l_knee" 8
  10 "g_l_ankle" 9
  11 "g_l_ball" 10
  12 "g_l_thightwist" 8
  13 "g_spine01_offset" 0
  14 "g_spine01" 13
  15 "g_pelvis" 14
  16 "g_spine02_offset" 14
  17 "g_spine02" 16
  18 "g_spine03_offset" 17
  19 "g_spine03" 18
  20 "g_l_clavical" 19
  21 "g_l_shoulder" 20
  22 "g_l_elbow" 21
  23 "g_l_forarm" 22
  24 "g_l_wrist" 22
  25 "g_l_birdy1" 24
  26 "g_l_birdy2" 25
  27 "g_l_birdy3" 26
  28 "g_l_index1" 24
  29 "g_l_index2" 28
  30 "g_l_index3" 29
  31 "g_l_pinky1" 24
  32 "g_l_pinky2" 31
  33 "g_l_pinky3" 32
  34 "g_l_ring1" 24
  35 "g_l_ring2" 34
  36 "g_l_ring3" 35
  37 "g_l_thumb1" 24
  38 "g_l_thumb2" 37
  39 "g_l_thumb3" 38
  40 "g_l_palm" 24
  41 "g_l_biceptwist" 21
  42 "g_neck" 19
  43 "g_head" 42
  44 "g_jaw" 43
  45 "g_l_brow" 43
  46 "g_l_brow2" 45
  47 "g_l_eye" 43
  48 "g_topeyelid" 43
  49 "g_r_brow" 43
  50 "g_r_brow2" 49
  51 "g_r_eye" 43
  52 "g_r_clavical" 19
  53 "g_r_shoulder" 52
  54 "g_r_elbow" 53
  55 "g_r_forarm" 54
  56 "g_r_wrist" 54
  57 "g_r_birdy1" 56
  58 "g_r_birdy2" 57
  59 "g_r_birdy3" 58
  60 "g_r_index1" 56
  61 "g_r_index2" 60
  62 "g_r_index3" 61
  63 "g_r_pinky1" 56
  64 "g_r_pinky2" 63
  65 "g_r_pinky3" 64
  66 "g_r_ring1" 56
  67 "g_r_ring2" 66
  68 "g_r_ring3" 67
  69 "g_r_thumb1" 56
  70 "g_r_thumb2" 69
  71 "g_r_thumb3" 70
  72 "g_r_palm" 56
  73 "g_r_biceptwist" 53
  74 "g_throwable_attach_offset" 0
end
skeleton
  time 0
    0 0.000000 0.000000 -1.500000 0.000000 0.000000 0.000000
    1 -10.521344 -5.760963 66.994621 3.097005 -0.050653 -3.139334
    2 1.449634 6.836761 -39.428097 1.289691 0.687176 0.304789
    3 -0.000034 0.000012 24.761454 -1.677656 -0.194379 0.632033
    4 0.000017 0.000000 24.344809 1.339723 -0.106128 0.013129
    5 0.002333 -1.019846 24.031336 0.485123 -0.044148 0.012994
    6 0.000034 0.000008 13.404741 -0.000001 -0.000009 0.277712
    7 10.398263 -5.760962 66.994675 3.097005 0.050653 3.139334
    8 -1.972883 11.601318 -39.058852 0.708960 -0.089618 -0.292217
    9 -0.000004 -0.000006 24.761459 -2.170622 0.251325 0.154491
    10 -0.000007 0.000004 24.344891 0.817741 0.089062 -0.149013
    11 -0.002360 -1.019903 24.031330 -0.149880 -0.045559 0.006750
    12 0.000000 -0.000002 13.404737 0.000001 0.000005 0.122654
    13 -0.061540 -5.245835 72.927078 0.000000 0.000000 0.000000
    14 0.005230 8.051572 39.468912 0.201927 0.005217 0.032306
    15 0.000000 -0.005608 -1.146812 -0.378968 0.040275 0.193985
    16 0.030770 -0.240000 8.906021 -0.004138 0.000000 0.000000
    17 0.003930 0.442276 0.144137 -0.086338 0.001425 0.038302
    18 0.030770 -0.276858 8.905140 0.056125 0.004134 -0.000049
    19 0.033892 -0.014750 0.139454 -0.061086 0.003395 -0.059636
    20 5.669724 4.435303 14.302868 0.791213 -0.980203 2.033883
    21 -1.044571 -2.839317 19.743267 -0.264532 -0.428581 0.092284
    22 2.655533 -1.533369 24.792658 -0.728416 0.054721 -0.140293
    23 1.120163 -0.154394 9.796035 -0.037337 -0.000944 -0.325201
    24 2.240311 -0.308786 19.592051 -0.268502 0.121716 -0.640580
    25 0.683151 2.877354 14.167051 -1.709525 -0.207397 1.590337
    26 0.144936 -0.145374 7.579252 -1.595959 -0.243923 0.203089
    27 0.091660 -0.906685 4.702850 -1.417420 -0.179862 0.158257
    28 0.506271 8.500866 13.617253 -1.613964 -0.240865 1.579486
    29 -0.384987 -0.460049 7.003448 -1.757448 -0.386771 0.547991
    30 0.561516 -0.596954 5.061852 -1.314510 -0.374732 0.318097
    31 -2.452171 -8.899406 11.597897 -1.694526 -0.119320 1.270057
    32 0.680496 -0.903999 6.074253 -1.459886 0.159236 -0.002977
    33 0.245514 -0.661150 3.388004 -1.316247 0.113247 -0.085963
    34 -0.717484 -3.784271 13.043911 -1.784844 -0.001913 1.448921
    35 1.099216 -1.407745 8.017889 -1.614752 0.028415 -0.011647
    36 0.068439 -0.807653 3.686054 -1.298547 0.029359 -0.005367
    37 -4.004929 6.172707 4.754754 -0.005300 1.045494 2.635522
    38 0.158352 -1.149811 5.804394 -1.116691 -0.455950 0.152808
    39 -1.083523 -1.463142 5.544399 -1.096304 -0.298267 -0.042600
    40 -6.289886 0.932434 13.569063 -0.126803 0.612110 2.869610
    41 1.327774 -0.766687 12.396328 -0.017272 0.008248 -0.155080
    42 -0.096140 1.828087 23.185329 0.019592 -0.113687 -1.579977
    43 2.325478 -0.000003 6.169296 0.166550 0.009123 1.582661
    44 0.000000 -3.152912 0.122169 1.961017 0.000000 0.000000
    45 1.068383 -10.478592 7.066338 0.292219 -1.282324 -3.141588
    46 0.000000 0.000000 2.279457 0.547137 -0.343566 0.107833
    47 2.479414 -8.323895 6.074242 -0.008855 0.007342 1.561876
    48 0.000003 -5.075260 5.105362 0.000000 0.000000 0.000000
    49 -1.068383 -10.478611 7.065971 0.292219 1.282324 3.141588
    50 -0.000488 0.000015 2.279600 0.547136 0.343566 0.107835
    51 -2.479401 -8.323895 6.074234 0.008854 0.007354 1.579716
    52 -5.790000 4.432083 14.255558 -5.374392 0.745578 -2.169546
    53 1.044540 -2.839314 19.743252 0.010188 0.432955 -0.058326
    54 -2.655510 -1.533379 24.792648 -0.843733 -0.088134 0.074198
    55 -1.120216 -0.154385 9.795983 -0.045846 0.002894 0.400790
    56 -2.240372 -0.308788 19.592047 -0.326397 0.183862 0.733864
    57 -0.683205 2.877342 14.167089 -1.813699 0.202332 -1.608735
    58 -0.144958 -0.145317 7.579308 -1.703914 0.309303 -0.206994
    59 -0.038551 -0.936644 4.697678 -1.518550 0.258923 -0.201838
    60 -0.506317 8.500896 13.617329 -1.648180 0.227612 -1.751388
    61 0.385056 -0.460075 7.003435 -1.902834 0.582713 -0.590082
    62 -0.456360 -0.710276 5.057732 -1.410495 0.559028 -0.409524
    63 2.452194 -8.899408 11.597939 -1.843283 0.075630 -1.305524
    64 -0.680515 -0.903999 6.074242 -1.562256 -0.184087 0.005460
    65 -0.248295 -0.666843 3.386627 -1.419544 -0.128984 0.102399
    66 0.717491 -3.784309 13.044010 -1.885663 -0.010794 -1.438623
    67 -1.099228 -1.407673 8.017876 -1.717045 -0.024302 0.016738
    68 -0.064053 -0.807640 3.686100 -1.400717 -0.029763 0.004447
    69 4.004906 6.172710 4.754800 -0.120557 -0.991437 -2.751497
    70 -0.158381 -1.149773 5.804405 -0.965762 0.641116 0.235792
    71 1.078559 -2.386406 5.215008 -1.032248 0.626656 0.155505
    72 6.289963 0.932404 13.569109 -0.126801 -0.612098 -2.869612
    73 -1.327759 -0.766682 12.396324 -0.010795 -0.005564 0.098272
    74 0.000017 -54.999996 0.000000 0.000000 0.000000 -1.570796
  time 1
    0 0.000000 0.000000 -1.500000 0.000000 0.000000 0.000000
    1 -10.521344 -5.760963 66.994621 3.097005 -0.050653 -3.139334
    2 0.402727 5.216198 -30.974046 1.222056 0.610046 0.242967
    3 -0.000034 0.000012 24.761454 -1.472571 -0.170686 0.588261
    4 0.000017 0.000000 24.344809 1.358402 -0.107124 -0.007116
    5 0.002333 -1.019846 24.031336 0.695351 -0.045850 0.003347
    6 0.000034 0.000008 13.404741 -0.000001 -0.000009 0.239048
    7 10.398263 -5.760962 66.994675 3.097005 0.050653 3.139334
    8 -1.984602 10.826977 -32.247360 0.775673 -0.041698 -0.266637
    9 -0.000004 -0.000006 24.761459 -2.201200 0.254861 0.166979
    10 -0.000007 0.000004 24.344891 1.104232 0.090084 -0.158787
    11 -0.002360 -1.019903 24.031330 -0.009608 -0.046075 0.000422
    12 0.000000 -0.000002 13.404737 0.000001 0.000005 0.110717
    13 -0.061540 -5.245835 72.927078 0.000000 0.000000 0.000000
    14 0.005230 7.387768 31.740744 0.065973 -0.014638 0.077947
    15 0.000000 -0.005608 -1.146812 -0.278173 -0.049945 0.194746
    16 0.030770 -0.240000 8.906021 -0.004138 0.000000 0.000000
    17 0.214874 0.219613 0.476179 -0.056856 0.033165 0.009111
    18 0.030770 -0.276858 8.905140 0.056125 0.004134 -0.000049
    19 -0.040329 -0.186630 0.479308 0.011548 -0.011787 -0.061518
    20 5.669724 4.435303 14.302868 0.726995 -1.029497 2.045862
    21 -1.044571 -2.839317 19.743267 -0.319763 -0.468554 0.101675
    22 2.655533 -1.533369 24.792658 -0.804794 0.062944 -0.158732
    23 1.120163 -0.154394 9.796035 -0.039974 -0.001472 -0.348415
    24 2.240311 -0.308786 19.592051 -0.298399 0.120243 -0.684732
    25 0.683151 2.877354 14.167051 -1.709525 -0.207397 1.590337
    26 0.144936 -0.145374 7.579252 -1.595959 -0.243923 0.203089
    27 0.091660 -0.906685 4.702850 -1.417420 -0.179862 0.158257
    28 0.506271 8.500866 13.617253 -1.613964 -0.240865 1.579486
    29 -0.384987 -0.460049 7.003448 -1.757448 -0.386771 0.547991
    30 0.561516 -0.596954 5.061852 -1.314510 -0.374720 0.318097
    31 -2.452171 -8.899406 11.597897 -1.694526 -0.119320 1.270057
    32 0.680496 -0.903999 6.074253 -1.459886 0.159236 -0.002977
    33 0.245514 -0.661150 3.388004 -1.316247 0.113247 -0.085963
    34 -0.717484 -3.784271 13.043911 -1.784844 -0.001913 1.448921
    35 1.099216 -1.407745 8.017889 -1.614752 0.028415 -0.011647
    36 0.068439 -0.807653 3.686054 -1.298547 0.029359 -0.005367
    37 -4.004929 6.172707 4.754754 -0.005300 1.045494 2.635522
    38 0.158352 -1.149811 5.804394 -1.116691 -0.455950 0.152808
    39 -1.083523 -1.463142 5.544399 -1.096357 -0.298267 -0.042600
    40 -6.289886 0.932434 13.569063 -0.126803 0.612110 2.869610
    41 1.327774 -0.766687 12.396328 -0.018242 0.008632 -0.163617
    42 -0.096140 1.828087 23.185329 0.025379 -0.066844 -1.618742
    43 2.325478 -0.000003 6.169296 0.134748 0.015460 1.622414
    44 0.000000 -3.152912 0.122169 1.961017 0.000000 0.000000
    45 1.068383 -10.478592 7.066338 0.292219 -1.282324 -3.141588
    46 0.000000 0.000000 2.279457 0.547137 -0.343566 0.107833
    47 2.479414 -8.323895 6.074242 -0.008855 0.007342 1.561876
    48 0.000003 -5.075260 5.105362 0.000000 0.000000 0.000000
    49 -1.068383 -10.478611 7.065971 0.292219 1.282324 3.141588
    50 -0.000488 0.000015 2.279600 0.547136 0.343566 0.107835
    51 -2.479401 -8.323895 6.074234 0.008854 0.007354 1.579716
    52 -5.790000 4.432083 14.255558 -5.539650 0.890334 -2.308574
    53 1.044540 -2.839314 19.743252 -0.258076 0.433930 -0.091991
    54 -2.655510 -1.533379 24.792648 -0.979864 -0.106189 0.378028
    55 -1.120216 -0.154385 9.795983 -0.051035 0.004428 0.447608
    56 -2.240372 -0.308788 19.592047 -0.372828 0.186040 0.810334
    57 -0.683205 2.877342 14.167089 -1.813699 0.202332 -1.608735
    58 -0.144958 -0.145317 7.579308 -1.703914 0.309303 -0.206994
    59 -0.038551 -0.936644 4.697678 -1.518550 0.258923 -0.201838
    60 -0.506317 8.500896 13.617329 -1.648180 0.227612 -1.751388
    61 0.385056 -0.460075 7.003435 -1.902834 0.582713 -0.590082
    62 -0.456360 -0.710276 5.057732 -1.410544 0.559028 -0.409524
    63 2.452194 -8.899408 11.597939 -1.843283 0.075630 -1.305524
    64 -0.680515 -0.903999 6.074242 -1.562256 -0.184087 0.005460
    65 -0.248295 -0.666843 3.386627 -1.419544 -0.128984 0.102399
    66 0.717491 -3.784309 13.044010 -1.885663 -0.010806 -1.438623
    67 -1.099228 -1.407673 8.017876 -1.717045 -0.024302 0.016738
    68 -0.064053 -0.807640 3.686100 -1.400717 -0.029763 0.004447
    69 4.004906 6.172710 4.754800 -0.120557 -0.991437 -2.751497
    70 -0.158381 -1.149773 5.804405 -0.965762 0.641116 0.235792
    71 1.078559 -2.386406 5.215008 -1.032248 0.626656 0.155505
    72 6.289963 0.932404 13.569109 -0.126801 -0.612098 -2.869612
    73 -1.327759 -0.766682 12.396324 -0.028173 -0.011903 0.248031
    74 0.000017 -54.999996 0.000000 0.000000 0.000000 -1.570796
  time 2
    0 0.000000 0.000000 -1.500000 0.000000 0.000000 0.000000
    1 -10.521344 -5.760963 66.994621 3.097005 -0.050653 -3.139334
    2 -0.862936 3.325541 -20.344814 1.123540 0.529575 0.168476
    3 -0.000034 0.000012 24.761454 -1.255779 -0.145602 0.520669
    4 0.000017 0.000000 24.344809 1.378438 -0.118079 -0.027750
    5 0.002333 -1.019846 24.031336 0.905467 -0.045538 -0.006445
    6 0.000034 0.000008 13.404741 -0.000001 -0.000009 0.184543
    7 10.398263 -5.760962 66.994675 3.097005 0.050653 3.139334
    8 -1.812722 9.715423 -23.367693 0.920188 -0.033760 -0.225461
    9 -0.000004 -0.000006 24.761459 -2.256198 0.261201 0.125852
    10 -0.000007 0.000004 24.344891 1.466558 0.086840 -0.189936
    11 -0.002360 -1.019903 24.031330 0.181824 -0.045332 -0.008207
    12 0.000000 -0.000002 13.404737 0.000001 0.000005 0.063935
    13 -0.061540 -5.245835 72.927078 0.000000 0.000000 0.000000
    14 0.005230 6.456112 21.781998 -0.063996 -0.033924 0.127190
    15 0.000000 -0.005608 -1.146812 -0.174060 -0.143506 0.171022
    16 0.030770 -0.240000 8.906021 -0.004138 0.000000 0.000000
    17 0.429724 -0.030395 0.855097 -0.028110 0.065045 -0.018643
    18 0.030770 -0.276858 8.905140 0.056125 0.004134 -0.000049
    19 -0.114550 -0.397574 0.869945 0.099373 -0.023965 -0.064898
    20 5.669724 4.435303 14.302868 0.656938 -1.082031 2.069245
    21 -1.044571 -2.839317 19.743267 -0.386100 -0.509727 0.115606
    22 2.655533 -1.533369 24.792658 -0.892151 0.074818 -0.212189
    23 1.120163 -0.154394 9.796035 -0.042371 -0.002023 -0.369594
    24 2.240311 -0.308786 19.592051 -0.326164 0.113980 -0.723820
    25 0.683151 2.877354 14.167051 -1.709525 -0.207385 1.590337
    26 0.144936 -0.145374 7.579252 -1.595959 -0.243923 0.203089
    27 0.091660 -0.906685 4.702850 -1.417420 -0.179862 0.158257
    28 0.506271 8.500866 13.617253 -1.613964 -0.240865 1.579486
    29 -0.384987 -0.460049 7.003448 -1.757412 -0.386771 0.547979
    30 0.561516 -0.596954 5.061852 -1.314510 -0.374720 0.318097
    31 -2.452171 -8.899406 11.597897 -1.694526 -0.119320 1.270057
    32 0.680496 -0.903999 6.074253 -1.459886 0.159236 -0.002977
    33 0.245514 -0.661150 3.388004 -1.316247 0.113247 -0.085963
    34 -0.717484 -3.784271 13.043911 -1.784844 -0.001913 1.448921
    35 1.099216 -1.407745 8.017889 -1.614752 0.028415 -0.011647
    36 0.068439 -0.807653 3.686054 -1.298547 0.029359 -0.005367
    37 -4.004929 6.172707 4.754754 -0.005300 1.045494 2.635522
    38 0.158352 -1.149811 5.804394 -1.116691 -0.455965 0.152808
    39 -1.083523 -1.463142 5.544399 -1.096357 -0.298267 -0.042600
    40 -6.289886 0.932434 13.569063 -0.126803 0.612110 2.869610
    41 1.327774 -0.766687 12.396328 -0.021311 0.009735 -0.189779
    42 -0.096140 1.828087 23.185329 0.026766 -0.020573 -1.655887
    43 2.325478 -0.000003 6.169296 0.084420 0.026254 1.662167
    44 0.000000 -3.152912 0.122169 1.961017 0.000000 0.000000
    45 1.068383 -10.478592 7.066338 0.292219 -1.282324 -3.141588
    46 0.000000 0.000000 2.279457 0.547137 -0.343566 0.107833
    47 2.479414 -8.323895 6.074242 -0.008855 0.007342 1.561876
    48 0.000003 -5.075260 5.105362 0.000000 0.000000 0.000000
    49 -1.068383 -10.478611 7.065971 0.292219 1.282324 3.141588
    50 -0.000488 0.000015 2.279600 0.547136 0.343566 0.107835
    51 -2.479401 -8.323895 6.074234 0.008854 0.007354 1.579716
    52 -5.790000 4.432083 14.255558 -5.781020 1.010708 -2.511990
    53 1.044540 -2.839314 19.743252 -0.457604 0.307502 -0.084153
    54 -2.655510 -1.533379 24.792648 -1.127871 -0.113527 0.726386
    55 -1.120216 -0.154385 9.795983 -0.055566 0.005986 0.489013
    56 -2.240372 -0.308788 19.592047 -0.417197 0.190396 0.875375
    57 -0.683205 2.877342 14.167089 -1.813699 0.202332 -1.608735
    58 -0.144958 -0.145317 7.579308 -1.703914 0.309303 -0.206994
    59 -0.038551 -0.936644 4.697678 -1.518550 0.258923 -0.201838
    60 -0.506317 8.500896 13.617329 -1.648180 0.227612 -1.751388
    61 0.385056 -0.460075 7.003435 -1.902834 0.582696 -0.590097
    62 -0.456360 -0.710276 5.057732 -1.410544 0.559028 -0.409524
    63 2.452194 -8.899408 11.597939 -1.843283 0.075630 -1.305524
    64 -0.680515 -0.903999 6.074242 -1.562256 -0.184087 0.005460
    65 -0.248295 -0.666843 3.386627 -1.419544 -0.128984 0.102399
    66 0.717491 -3.784309 13.044010 -1.885663 -0.010806 -1.438635
    67 -1.099228 -1.407673 8.017876 -1.717045 -0.024302 0.016738
    68 -0.064053 -0.807640 3.686100 -1.400717 -0.029763 0.004447
    69 4.004906 6.172710 4.754800 -0.120557 -0.991437 -2.751497
    70 -0.158381 -1.149773 5.804405 -0.965762 0.641116 0.235792
    71 1.078559 -2.386406 5.215008 -1.032248 0.626656 0.155505
    72 6.289963 0.932404 13.569109 -0.126801 -0.612098 -2.869612
    73 -1.327759 -0.766682 12.396324 -0.051040 -0.016086 0.436699
    74 0.000017 -54.999996 0.000000 0.000000 0.000000 -1.570796
  time 3
    0 0.000000 0.000000 -1.500000 0.000000 0.000000 0.000000
    1 -10.521344 -5.760963 66.994621 3.097005 -0.050653 -3.139334
    2 -1.734057 1.717255 -9.894979 0.973852 0.454030 0.087694
    3 -0.000034 0.000012 24.761454 -1.020571 -0.118409 0.445870
    4 0.000017 0.000000 24.344809 1.359635 -0.133041 -0.041211
    5 0.002333 -1.019846 24.031336 1.001005 -0.044711 -0.010831
    6 0.000034 0.000008 13.404741 -0.000001 -0.000009 0.140922
    7 10.398263 -5.760962 66.994675 3.097005 0.050653 3.139334
    8 -1.449429 8.279145 -13.746180 1.245134 -0.076522 -0.206565
    9 -0.000004 -0.000006 24.761459 -2.267252 0.262483 0.021850
    10 -0.000007 0.000004 24.344891 1.691155 0.077241 -0.216251
    11 -0.002360 -1.019903 24.031330 0.389594 -0.042695 -0.017219
    12 0.000000 -0.000002 13.404737 0.000001 0.000005 -0.007966
    13 -0.061540 -5.245835 72.927078 0.000000 0.000000 0.000000
    14 0.005230 5.466228 11.597941 -0.141671 -0.042630 0.152533
    15 0.000000 -0.005608 -1.146812 -0.114698 -0.186279 0.139499
    16 0.030770 -0.240000 8.906021 -0.004138 0.000000 0.000000
    17 0.543009 -0.303841 1.167606 0.000826 0.079782 -0.031222
    18 0.030770 -0.276858 8.905140 0.056125 0.004134 -0.000049
    19 -0.145801 -0.581173 1.178548 0.176439 -0.025322 -0.067187
    20 5.669724 4.435303 14.302868 0.599515 -1.127308 2.101445
    21 -1.044571 -2.839317 19.743267 -0.439716 -0.519433 0.124461
    22 2.655533 -1.533369 24.792658 -0.991312 0.089805 -0.322983
    23 1.120163 -0.154394 9.796035 -0.043318 -0.002239 -0.378113
    24 2.240311 -0.308786 19.592051 -0.339002 0.106521 -0.737746
    25 0.683151 2.877354 14.167051 -1.709525 -0.207385 1.590337
    26 0.144936 -0.145374 7.579252 -1.595959 -0.243923 0.203089
    27 0.091660 -0.906685 4.702850 -1.417420 -0.179862 0.158257
    28 0.506271 8.500866 13.617253 -1.613964 -0.240865 1.579486
    29 -0.384987 -0.460049 7.003448 -1.757448 -0.386771 0.547979
    30 0.561516 -0.596954 5.061852 -1.314510 -0.374732 0.318097
    31 -2.452171 -8.899406 11.597897 -1.694526 -0.119320 1.270057
    32 0.680496 -0.903999 6.074253 -1.459886 0.159236 -0.002977
    33 0.245514 -0.661150 3.388004 -1.316247 0.113247 -0.085963
    34 -0.717484 -3.784271 13.043911 -1.784844 -0.001913 1.448921
    35 1.099216 -1.407745 8.017889 -1.614752 0.028415 -0.011659
    36 0.068439 -0.807653 3.686054 -1.298547 0.029359 -0.005367
    37 -4.004929 6.172707 4.754754 -0.005390 1.045494 2.635522
    38 0.158352 -1.149811 5.804394 -1.116691 -0.455950 0.152808
    39 -1.083523 -1.463142 5.544399 -1.096357 -0.298267 -0.042600
    40 -6.289886 0.932434 13.569063 -0.126803 0.612110 2.869610
    41 1.327774 -0.766687 12.396328 -0.027842 0.011808 -0.245368
    42 -0.096140 1.828087 23.185329 0.025773 0.000490 -1.672732
    43 2.325478 -0.000003 6.169296 0.026164 0.031203 1.681605
    44 0.000000 -3.152912 0.122169 1.961017 0.000000 0.000000
    45 1.068383 -10.478592 7.066338 0.292219 -1.282324 -3.141588
    46 0.000000 0.000000 2.279457 0.547137 -0.343566 0.107833
    47 2.479414 -8.323895 6.074242 -0.008855 0.007342 1.561876
    48 0.000003 -5.075260 5.105362 0.000000 0.000000 0.000000
    49 -1.068383 -10.478611 7.065971 0.292219 1.282324 3.141588
    50 -0.000488 0.000015 2.279600 0.547136 0.343566 0.107835
    51 -2.479401 -8.323895 6.074234 0.008854 0.007354 1.579716
    52 -5.790000 4.432083 14.255558 -5.927874 1.058683 -2.633388
    53 1.044540 -2.839314 19.743252 -0.511813 0.258957 -0.072913
    54 -2.655510 -1.533379 24.792648 -1.264153 -0.114278 0.962513
    55 -1.120216 -0.154385 9.795983 -0.057196 0.006609 0.504274
    56 -2.240372 -0.308788 19.592047 -0.435220 0.189505 0.899261
    57 -0.683205 2.877342 14.167089 -1.813699 0.202332 -1.608735
    58 -0.144958 -0.145317 7.579308 -1.703914 0.309303 -0.206994
    59 -0.038551 -0.936644 4.697678 -1.518649 0.258923 -0.201838
    60 -0.506317 8.500896 13.617329 -1.648180 0.227612 -1.751388
    61 0.385056 -0.460075 7.003435 -1.902834 0.582713 -0.590097
    62 -0.456360 -0.710276 5.057732 -1.410495 0.559028 -0.409524
    63 2.452194 -8.899408 11.597939 -1.843283 0.075630 -1.305524
    64 -0.680515 -0.903999 6.074242 -1.562256 -0.184087 0.005460
    65 -0.248295 -0.666843 3.386627 -1.419544 -0.128984 0.102399
    66 0.717491 -3.784309 13.044010 -1.885663 -0.010806 -1.438635
    67 -1.099228 -1.407673 8.017876 -1.717045 -0.024302 0.016738
    68 -0.064053 -0.807640 3.686100 -1.400717 -0.029763 0.004447
    69 4.004906 6.172710 4.754800 -0.120557 -0.991437 -2.751497
    70 -0.158381 -1.149773 5.804405 -0.965762 0.641116 0.235792
    71 1.078559 -2.386406 5.215008 -1.032248 0.626656 0.155505
    72 6.289963 0.932404 13.569109 -0.126801 -0.612098 -2.869612
    73 -1.327759 -0.766682 12.396324 -0.068190 -0.016386 0.575771
    74 0.000017 -54.999996 0.000000 0.000000 0.000000 -1.570796
  time 4
    0 0.000000 0.000000 -1.500000 0.000000 0.000000 0.000000
    1 -10.521344 -5.760963 66.994621 3.097005 -0.050653 -3.139334
    2 -1.976251 -3.316311 6.205841 0.607730 0.415896 0.028800
    3 -0.000034 0.000012 24.761454 -0.645443 -0.074989 0.418344
    4 0.000017 0.000000 24.344809 1.274069 -0.208121 -0.060614
    5 0.002333 -1.019846 24.031336 0.733581 -0.045946 0.001549
    6 0.000034 0.000008 13.404741 -0.000001 -0.000009 0.145288
    7 10.398263 -5.760962 66.994675 3.097005 0.050653 3.139334
    8 -0.617373 1.634800 2.911627 1.698215 -0.137685 -0.219355
    9 -0.000004 -0.000006 24.761459 -1.518353 0.176002 -0.072104
    10 -0.000007 0.000004 24.344891 1.377428 -0.037415 -0.136150
    11 -0.002360 -1.019903 24.031330 0.817647 -0.031777 -0.033063
    12 0.000000 -0.000002 13.404737 0.000001 0.000005 -0.062842
    13 -0.061540 -5.245835 72.927078 0.000000 0.000000 0.000000
    14 0.005230 0.493517 -4.984948 -0.165418 -0.030277 0.119744
    15 0.000000 -0.005608 -1.146812 -0.085002 -0.160979 0.090040
    16 0.030770 -0.240000 8.906021 -0.004138 0.000000 0.000000
    17 0.355503 -0.674946 1.316048 0.038115 0.043408 0.002122
    18 0.030770 -0.276858 8.905140 0.056125 0.004134 -0.000049
    19 0.119832 -1.081189 1.241050 0.371642 0.071548 -0.047592
    20 5.669724 4.435303 14.302868 0.563912 -1.170575 2.137095
    21 -1.044571 -2.839317 19.743267 -0.484479 -0.386260 0.099278
    22 2.655533 -1.533369 24.792658 -1.104577 0.105291 -0.525001
    23 1.120163 -0.154394 9.796035 -0.041808 -0.001879 -0.364765
    24 2.240311 -0.308786 19.592051 -0.322160 0.093582 -0.709063
    25 0.683151 2.877354 14.167051 -1.709525 -0.207385 1.590337
    26 0.144936 -0.145374 7.579252 -1.595959 -0.243923 0.203089
    27 0.091660 -0.906685 4.702850 -1.417420 -0.179862 0.158257
    28 0.506271 8.500866 13.617253 -1.613964 -0.240865 1.579486
    29 -0.384987 -0.460049 7.003448 -1.757448 -0.386771 0.547991
    30 0.561516 -0.596954 5.061852 -1.314510 -0.374732 0.318097
    31 -2.452171 -8.899406 11.597897 -1.694526 -0.119320 1.270057
    32 0.680496 -0.903999 6.074253 -1.459886 0.159236 -0.002977
    33 0.245514 -0.661150 3.388004 -1.316247 0.113247 -0.085963
    34 -0.717484 -3.784271 13.043911 -1.784844 -0.001913 1.448921
    35 1.099216 -1.407745 8.017889 -1.614752 0.028415 -0.011647
    36 0.068439 -0.807653 3.686054 -1.298547 0.029359 -0.005367
    37 -4.004929 6.172707 4.754754 -0.005300 1.045494 2.635522
    38 0.158352 -1.149811 5.804394 -1.116691 -0.455950 0.152796
    39 -1.083523 -1.463142 5.544399 -1.096357 -0.298267 -0.042600
    40 -6.289886 0.932434 13.569063 -0.126803 0.612110 2.869610
    41 1.327774 -0.766687 12.396328 -0.039995 0.014612 -0.346503
    42 -0.096140 1.828087 23.185329 0.023341 -0.013117 -1.661543
    43 2.325478 -0.000003 6.169296 -0.167081 -0.051270 1.676257
    44 0.000000 -3.152912 0.122169 1.961017 0.000000 0.000000
    45 1.068383 -10.478592 7.066338 0.292219 -1.282324 -3.141588
    46 0.000000 0.000000 2.279457 0.547137 -0.343566 0.107833
    47 2.479414 -8.323895 6.074242 -0.008855 0.007342 1.561876
    48 0.000003 -5.075260 5.105362 0.000000 0.000000 0.000000
    49 -1.068383 -10.478611 7.065971 0.292219 1.282324 3.141588
    50 -0.000488 0.000015 2.279600 0.547136 0.343566 0.107835
    51 -2.479401 -8.323895 6.074234 0.008854 0.007354 1.579716
    52 -5.790000 4.432083 14.255558 -5.871510 1.094737 -2.518889
    53 1.044540 -2.839314 19.743252 -0.431501 0.405948 -0.101244
    54 -2.655510 -1.533379 24.792648 -1.393540 -0.114343 1.138889
    55 -1.120216 -0.154385 9.795983 -0.053528 0.005255 0.470378
    56 -2.240372 -0.308788 19.592047 -0.404062 0.157179 0.850029
    57 -0.683205 2.877342 14.167089 -1.813699 0.202332 -1.608735
    58 -0.144958 -0.145317 7.579308 -1.703914 0.309303 -0.206994
    59 -0.038551 -0.936644 4.697678 -1.518550 0.258923 -0.201838
    60 -0.506317 8.500896 13.617329 -1.648180 0.227612 -1.751388
    61 0.385056 -0.460075 7.003435 -1.902877 0.582713 -0.590082
    62 -0.456360 -0.710276 5.057732 -1.410495 0.559028 -0.409524
    63 2.452194 -8.899408 11.597939 -1.843283 0.075630 -1.305524
    64 -0.680515 -0.903999 6.074242 -1.562256 -0.184087 0.005460
    65 -0.248295 -0.666843 3.386627 -1.419544 -0.128984 0.102399
    66 0.717491 -3.784309 13.044010 -1.885663 -0.010794 -1.438635
    67 -1.099228 -1.407673 8.017876 -1.717045 -0.024302 0.016738
    68 -0.064053 -0.807640 3.686100 -1.400717 -0.029763 0.004447
    69 4.004906 6.172710 4.754800 -0.120557 -0.991437 -2.751497
    70 -0.158381 -1.149773 5.804405 -0.965762 0.641116 0.235792
    71 1.078559 -2.386406 5.215008 -1.032248 0.626656 0.155505
    72 6.289963 0.932404 13.569109 -0.126801 -0.612098 -2.869612
    73 -1.327759 -0.766682 12.396324 -0.078257 -0.015439 0.657613
    74 0.000017 -54.999996 0.000000 0.000000 0.000000 -1.570796
  time 5
    0 0.000000 0.000000 -1.500000 0.000000 0.000000 0.000000
    1 -10.521344 -5.760963 66.994621 3.097005 -0.050653 -3.139334
    2 -1.819997 -2.788400 19.503593 1.141849 0.404651 0.242137
    3 -0.000034 0.000012 24.761454 -1.637289 -0.189717 0.177212
    4 0.000017 0.000000 24.344809 1.439715 -0.158437 -0.049832
    5 0.002333 -1.019846 24.031336 0.389660 -0.042710 0.017201
    6 0.000034 0.000008 13.404741 -0.000001 -0.000009 -0.022214
    7 10.398263 -5.760962 66.994675 3.097005 0.050653 3.139334
    8 0.308437 -0.550840 17.321417 1.307922 -0.212126 -0.208215
    9 -0.000004 -0.000006 24.761459 -0.828301 0.096173 -0.222976
    10 -0.000007 0.000004 24.344891 0.935461 -0.035593 -0.036311
    11 -0.002360 -1.019903 24.031330 0.738420 -0.034306 -0.030498
    12 0.000000 -0.000002 13.404737 0.000001 0.000005 -0.134206
    13 -0.061540 -5.245835 72.927078 0.000000 0.000000 0.000000
    14 0.005230 0.039334 -18.683857 -0.129413 -0.017322 0.082751
    15 0.000000 -0.005608 -1.146812 -0.042068 -0.099792 0.008188
    16 0.030770 -0.240000 8.906021 -0.004138 0.000000 0.000000
    17 0.121121 -1.264808 -0.058994 0.153920 0.013238 0.007074
    18 0.030770 -0.276858 8.905140 0.056125 0.004134 -0.000049
    19 0.151083 -1.139784 -0.071490 0.439558 0.079859 -0.040617
    20 5.669724 4.435303 14.302868 0.534244 -1.220749 2.180125
    21 -1.044571 -2.839317 19.743267 -0.495926 -0.386364 0.099560
    22 2.655533 -1.533369 24.792658 -1.216844 0.116895 -0.714484
    23 1.120163 -0.154394 9.796035 -0.038392 -0.001160 -0.334411
    24 2.240311 -0.308786 19.592051 -0.282341 0.068764 -0.647108
    25 0.683151 2.877354 14.167051 -1.709525 -0.207385 1.590337
    26 0.144936 -0.145374 7.579252 -1.595959 -0.243923 0.203089
    27 0.091660 -0.906685 4.702850 -1.417420 -0.179862 0.158257
    28 0.506271 8.500866 13.617253 -1.613964 -0.240865 1.579486
    29 -0.384987 -0.460049 7.003448 -1.757448 -0.386771 0.547979
    30 0.561516 -0.596954 5.061852 -1.314510 -0.374720 0.318097
    31 -2.452171 -8.899406 11.597897 -1.694526 -0.119320 1.270057
    32 0.680496 -0.903999 6.074253 -1.459886 0.159236 -0.002977
    33 0.245514 -0.661150 3.388004 -1.316247 0.113247 -0.085963
    34 -0.717484 -3.784271 13.043911 -1.784844 -0.001913 1.448921
    35 1.099216 -1.407745 8.017889 -1.614752 0.028415 -0.011647
    36 0.068439 -0.807653 3.686054 -1.298547 0.029359 -0.005367
    37 -4.004929 6.172707 4.754754 -0.005300 1.045494 2.635618
    38 0.158352 -1.149811 5.804394 -1.116691 -0.455950 0.152796
    39 -1.083523 -1.463142 5.544399 -1.096304 -0.298267 -0.042600
    40 -6.289886 0.932434 13.569063 -0.126803 0.612110 2.869610
    41 1.327774 -0.766687 12.396328 -0.051787 0.016134 -0.442867
    42 -0.096140 1.828087 23.185329 0.017058 -0.046513 -1.633906
    43 2.325478 -0.000003 6.169296 -0.349058 -0.050764 1.667675
    44 0.000000 -3.152912 0.122169 1.961017 0.000000 0.000000
    45 1.068383 -10.478592 7.066338 0.292219 -1.282324 -3.141588
    46 0.000000 0.000000 2.279457 0.547137 -0.343566 0.107833
    47 2.479414 -8.323895 6.074242 -0.008855 0.007342 1.561876
    48 0.000003 -5.075260 5.105362 0.000000 0.000000 0.000000
    49 -1.068383 -10.478611 7.065971 0.292219 1.282324 3.141588
    50 -0.000488 0.000015 2.279600 0.547136 0.343566 0.107835
    51 -2.479401 -8.323895 6.074234 0.008854 0.007354 1.579716
    52 -5.790000 4.432083 14.255558 -5.669825 1.138683 -2.187943
    53 1.044540 -2.839314 19.743252 -0.396827 0.598346 -0.133957
    54 -2.655510 -1.533379 24.792648 -1.502796 -0.127363 1.119880
    55 -1.120216 -0.154385 9.795983 -0.045163 0.002714 0.394642
    56 -2.240372 -0.308788 19.592047 -0.327390 0.102032 0.731888
    57 -0.683205 2.877342 14.167089 -1.813699 0.202332 -1.608735
    58 -0.144958 -0.145317 7.579308 -1.703914 0.309303 -0.207006
    59 -0.038551 -0.936644 4.697678 -1.518550 0.258923 -0.201838
    60 -0.506317 8.500896 13.617329 -1.648180 0.227612 -1.751388
    61 0.385056 -0.460075 7.003435 -1.902834 0.582713 -0.590082
    62 -0.456360 -0.710276 5.057732 -1.410495 0.559028 -0.409524
    63 2.452194 -8.899408 11.597939 -1.843283 0.075630 -1.305524
    64 -0.680515 -0.903999 6.074242 -1.562256 -0.184087 0.005460
    65 -0.248295 -0.666843 3.386627 -1.419544 -0.128984 0.102399
    66 0.717491 -3.784309 13.044010 -1.885663 -0.010794 -1.438635
    67 -1.099228 -1.407673 8.017876 -1.717045 -0.024302 0.016738
    68 -0.064053 -0.807640 3.686100 -1.400717 -0.029763 0.004447
    69 4.004906 6.172710 4.754800 -0.120557 -0.991437 -2.751497
    70 -0.158381 -1.149773 5.804405 -0.965762 0.641116 0.235792
    71 1.078559 -2.386406 5.215008 -1.032248 0.626656 0.155505
    72 6.289963 0.932404 13.569109 -0.126801 -0.612098 -2.869612
    73 -1.327759 -0.766682 12.396324 -0.075500 -0.015774 0.635221
    74 0.000017 -54.999996 0.000000 0.000000 0.000000 -1.570796
  time 6
    0 0.000000 0.000000 -1.500000 0.000000 0.000000 0.000000
    1 -10.521344 -5.760963 66.994621 3.097005 -0.050653 -3.139334
    2 -1.300450 1.471716 22.777575 1.095460 0.305336 0.234797
    3 -0.000034 0.000012 24.761454 -1.865098 -0.216024 0.024763
    4 0.000017 0.000000 24.344809 1.739011 -0.187568 -0.077423
    5 0.002333 -1.019846 24.031336 0.351430 -0.042027 0.018855
    6 0.000034 0.000008 13.404741 -0.000001 -0.000009 -0.091590
    7 10.398263 -5.760962 66.994675 3.097005 0.050653 3.139334
    8 1.007677 0.698097 22.087213 1.498675 -0.431902 -0.284873
    9 -0.000004 -0.000006 24.761459 -1.248536 0.144794 -0.416446
    10 -0.000007 0.000004 24.344891 0.953532 0.040000 -0.029817
    11 -0.002360 -1.019903 24.031330 0.564018 -0.039088 -0.024218
    12 0.000000 -0.000002 13.404737 0.000001 0.000005 -0.229015
    13 -0.061540 -5.245835 72.927078 0.000000 0.000000 0.000000
    14 0.005230 2.391765 -22.401488 -0.057756 -0.002612 0.042095
    15 0.000000 -0.005608 -1.146812 0.005395 -0.023955 -0.080811
    16 0.030770 -0.240000 8.906021 -0.004138 0.000000 0.000000
    17 -0.066385 -2.307808 -0.551196 0.338685 -0.020250 0.009031
    18 0.030770 -0.276858 8.905140 0.056125 0.004134 -0.000049
    19 0.143270 -1.155410 -0.294153 0.500074 0.071157 -0.039011
    20 5.669724 4.435303 14.302868 0.494430 -1.272967 2.238583
    21 -1.044571 -2.839317 19.743267 -0.549494 -0.373631 0.097191
    22 2.655533 -1.533369 24.792658 -1.329892 0.123121 -0.932030
    23 1.120163 -0.154394 9.796035 -0.034185 -0.000405 -0.297330
    24 2.240311 -0.308786 19.592051 -0.238605 0.034230 -0.572769
    25 0.683151 2.877354 14.167051 -1.709525 -0.207385 1.590337
    26 0.144936 -0.145374 7.579252 -1.595959 -0.243923 0.203089
    27 0.091660 -0.906685 4.702850 -1.417420 -0.179862 0.158257
    28 0.506271 8.500866 13.617253 -1.613964 -0.240865 1.579486
    29 -0.384987 -0.460049 7.003448 -1.757448 -0.386771 0.547991
    30 0.561516 -0.596954 5.061852 -1.314510 -0.374720 0.318097
    31 -2.452171 -8.899406 11.597897 -1.694526 -0.119320 1.270057
    32 0.680496 -0.903999 6.074253 -1.459886 0.159236 -0.002977
    33 0.245514 -0.661150 3.388004 -1.316247 0.113247 -0.085963
    34 -0.717484 -3.784271 13.043911 -1.784844 -0.001913 1.448921
    35 1.099216 -1.407745 8.017889 -1.614752 0.028415 -0.011647
    36 0.068439 -0.807653 3.686054 -1.298547 0.029359 -0.005367
    37 -4.004929 6.172707 4.754754 -0.005300 1.045494 2.635522
    38 0.158352 -1.149811 5.804394 -1.116691 -0.455950 0.152796
    39 -1.083523 -1.463142 5.544399 -1.096304 -0.298267 -0.042600
    40 -6.289886 0.932434 13.569063 -0.126803 0.612110 2.869610
    41 1.327774 -0.766687 12.396328 -0.066313 0.016470 -0.560473
    42 -0.096140 1.828087 23.185329 0.006888 -0.087206 -1.599696
    43 2.325478 -0.000003 6.169296 -0.618083 -0.023678 1.644446
    44 0.000000 -3.152912 0.122169 1.961017 0.000000 0.000000
    45 1.068383 -10.478592 7.066338 0.292219 -1.282324 -3.141588
    46 0.000000 0.000000 2.279457 0.547137 -0.343566 0.107833
    47 2.479414 -8.323895 6.074242 -0.008855 0.007342 1.561876
    48 0.000003 -5.075260 5.105362 0.000000 0.000000 0.000000
    49 -1.068383 -10.478611 7.065971 0.292219 1.282324 3.141588
    50 -0.000488 0.000015 2.279600 0.547136 0.343566 0.107835
    51 -2.479401 -8.323895 6.074234 0.008854 0.007354 1.579716
    52 -5.790000 4.432083 14.255558 -5.391167 1.123232 -1.749588
    53 1.044540 -2.839314 19.743252 -0.363656 0.752502 -0.156682
    54 -2.655510 -1.533379 24.792648 -1.607474 -0.143011 1.067551
    55 -1.120216 -0.154385 9.795983 -0.034724 0.000473 0.302175
    56 -2.240372 -0.308788 19.592047 -0.225822 0.063518 0.574998
    57 -0.683205 2.877342 14.167089 -1.813699 0.202332 -1.608735
    58 -0.144958 -0.145317 7.579308 -1.703914 0.309291 -0.206994
    59 -0.038551 -0.936644 4.697678 -1.518550 0.258923 -0.201850
    60 -0.506317 8.500896 13.617329 -1.648180 0.227612 -1.751388
    61 0.385056 -0.460075 7.003435 -1.902834 0.582696 -0.590082
    62 -0.456360 -0.710276 5.057732 -1.410495 0.559028 -0.409524
    63 2.452194 -8.899408 11.597939 -1.843283 0.075630 -1.305524
    64 -0.680515 -0.903999 6.074242 -1.562256 -0.184087 0.005460
    65 -0.248295 -0.666843 3.386627 -1.419544 -0.128984 0.102399
    66 0.717491 -3.784309 13.044010 -1.885663 -0.010806 -1.438623
    67 -1.099228 -1.407673 8.017876 -1.717045 -0.024302 0.016738
    68 -0.064053 -0.807640 3.686100 -1.400717 -0.029763 0.004447
    69 4.004906 6.172710 4.754800 -0.120557 -0.991437 -2.751497
    70 -0.158381 -1.149773 5.804405 -0.965762 0.641116 0.235792
    71 1.078559 -2.386406 5.215008 -1.032248 0.626656 0.155505
    72 6.289963 0.932404 13.569109 -0.126801 -0.612098 -2.869612
    73 -1.327759 -0.766682 12.396324 -0.070982 -0.016206 0.598394
    74 0.000017 -54.999996 0.000000 0.000000 0.000000 -1.570796
end
