// Created by Crowbar 0.74
version 1
nodes
  0 "root" -1
  1 "g_r_hip_offset" 0
  2 "g_r_hip" 1
  3 "g_r_knee" 2
  4 "g_r_ankle" 3
  5 "g_r_ball" 4
  6 "g_r_thightwist" 2
  7 "g_l_hip_offset" 0
  8 "g_l_hip" 7
  9 "g_l_knee" 8
  10 "g_l_ankle" 9
  11 "g_l_ball" 10
  12 "g_l_thightwist" 8
  13 "g_spine01_offset" 0
  14 "g_spine01" 13
  15 "g_pelvis" 14
  16 "g_spine02_offset" 14
  17 "g_spine02" 16
  18 "g_spine03_offset" 17
  19 "g_spine03" 18
  20 "g_l_clavical" 19
  21 "g_l_shoulder" 20
  22 "g_l_elbow" 21
  23 "g_l_forarm" 22
  24 "g_l_wrist" 22
  25 "g_l_birdy1" 24
  26 "g_l_birdy2" 25
  27 "g_l_birdy3" 26
  28 "g_l_index1" 24
  29 "g_l_index2" 28
  30 "g_l_index3" 29
  31 "g_l_pinky1" 24
  32 "g_l_pinky2" 31
  33 "g_l_pinky3" 32
  34 "g_l_ring1" 24
  35 "g_l_ring2" 34
  36 "g_l_ring3" 35
  37 "g_l_thumb1" 24
  38 "g_l_thumb2" 37
  39 "g_l_thumb3" 38
  40 "g_l_palm" 24
  41 "g_l_biceptwist" 21
  42 "g_neck" 19
  43 "g_head" 42
  44 "g_jaw" 43
  45 "g_l_brow" 43
  46 "g_l_brow2" 45
  47 "g_l_eye" 43
  48 "g_topeyelid" 43
  49 "g_r_brow" 43
  50 "g_r_brow2" 49
  51 "g_r_eye" 43
  52 "g_r_clavical" 19
  53 "g_r_shoulder" 52
  54 "g_r_elbow" 53
  55 "g_r_forarm" 54
  56 "g_r_wrist" 54
  57 "g_r_birdy1" 56
  58 "g_r_birdy2" 57
  59 "g_r_birdy3" 58
  60 "g_r_index1" 56
  61 "g_r_index2" 60
  62 "g_r_index3" 61
  63 "g_r_pinky1" 56
  64 "g_r_pinky2" 63
  65 "g_r_pinky3" 64
  66 "g_r_ring1" 56
  67 "g_r_ring2" 66
  68 "g_r_ring3" 67
  69 "g_r_thumb1" 56
  70 "g_r_thumb2" 69
  71 "g_r_thumb3" 70
  72 "g_r_palm" 56
  73 "g_r_biceptwist" 53
  74 "g_throwable_attach_offset" 0
end
skeleton
  time 0
    0 0.000000 0.000000 -1.500000 0.000000 0.000000 0.000000
    1 -10.521344 -5.760963 66.994621 3.097005 -0.050653 -3.139334
    2 -3.542706 2.539814 16.969620 -0.046288 0.513848 0.393654
    3 -0.000034 0.000012 24.761454 -1.100532 -0.127661 -0.234815
    4 0.000017 0.000000 24.344809 1.717496 -0.167944 -0.152051
    5 0.002333 -1.019846 24.031336 0.880528 -0.045682 -0.005294
    6 0.000034 0.000008 13.404741 -0.000001 -0.000009 -0.139472
    7 10.398263 -5.760962 66.994675 3.097005 0.050653 3.139334
    8 0.546725 -6.957888 18.108223 0.836243 -0.635582 0.316920
    9 -0.000004 -0.000006 24.761459 -1.802304 0.208816 -0.716467
    10 -0.000007 0.000004 24.344891 1.774153 0.097528 -0.097055
    11 -0.002360 -1.019903 24.031330 0.389594 -0.042695 -0.017219
    12 0.000000 -0.000002 13.404737 0.000001 0.000005 -0.381083
    13 -0.061540 -5.245835 72.927078 0.000000 0.000000 0.000000
    14 1.567778 -2.557655 -17.715019 -0.000948 0.000124 -0.002465
    15 0.000000 -0.005608 -1.146812 0.219331 0.067630 -0.467026
    16 0.030770 -0.240000 8.906021 -0.004138 0.000000 0.000000
    17 -0.437490 -2.202336 -0.324627 0.343925 -0.014489 -0.161246
    18 0.030770 -0.276858 8.905140 0.056125 0.004134 -0.000049
    19 0.194053 -0.631956 0.018356 0.332895 0.073523 -0.010236
    20 5.669724 4.435303 14.302868 2.673170 -1.380397 0.923172
    21 -1.044571 -2.839317 19.743267 -0.347159 -0.762819 0.153198
    22 2.655533 -1.533369 24.792658 -0.492512 0.082965 -0.227231
    23 1.120163 -0.154394 9.796035 -0.036702 -0.000836 -0.319406
    24 2.240311 -0.308786 19.592051 -0.143778 -0.078535 -0.624636
    25 0.683151 2.877354 14.167051 -0.179011 -0.120029 1.380629
    26 0.144936 -0.145374 7.579252 -1.577116 -0.243672 0.199564
    27 0.091660 -0.906685 4.702850 -0.679287 -0.108430 0.037368
    28 0.506271 8.500866 13.617253 0.076004 0.176807 1.339103
    29 -0.384987 -0.460049 7.003448 -1.140172 -0.446970 0.324814
    30 0.561516 -0.596954 5.061852 -0.977173 -0.333121 0.196873
    31 -2.452171 -8.899406 11.597897 -0.580412 -0.358518 1.079644
    32 0.680496 -0.903999 6.074253 -1.235709 0.137207 0.007938
    33 0.245514 -0.661150 3.388004 -0.624427 0.104813 -0.031036
    34 -0.717484 -3.784271 13.043911 -0.676853 -0.187921 1.367604
    35 1.099216 -1.407745 8.017889 -1.353233 0.021080 -0.004001
    36 0.068439 -0.807653 3.686054 -0.728469 0.009440 0.002736
    37 -4.004929 6.172707 4.754754 0.512369 1.025795 2.908889
    38 0.158352 -1.149811 5.804394 -0.217894 -0.190502 0.237851
    39 -1.083523 -1.463142 5.544399 -1.613517 -0.368197 0.249174
    40 -6.289886 0.932434 13.569063 -0.126803 0.612110 2.869610
    41 1.327774 -0.766687 12.396328 -0.014635 0.007206 -0.132031
    42 -0.096140 1.828087 23.185329 0.001683 -0.065760 -1.568879
    43 2.325478 -0.000003 6.169296 -0.767016 0.027976 1.703477
    44 0.000000 -3.152912 0.122169 2.038617 0.000000 0.000000
    45 1.068383 -10.478592 7.066338 0.292219 -1.282324 -3.141588
    46 0.000000 0.000000 2.279457 0.547137 -0.343566 0.107833
    47 2.479414 -8.323895 6.074242 -0.008855 0.007342 1.561876
    48 0.000003 -5.075260 5.105362 0.000000 0.000000 0.000000
    49 -1.068383 -10.478611 7.065971 0.292219 1.282324 3.141588
    50 -0.000488 0.000015 2.279600 0.547136 0.343566 0.107835
    51 -2.479401 -8.323895 6.074234 0.008854 0.007354 1.579716
    52 -5.790000 4.432083 14.255558 -2.894362 1.405516 -0.294920
    53 1.044540 -2.839314 19.743252 -0.601810 0.766154 -0.237402
    54 -2.655510 -1.533379 24.792648 -0.634781 -0.091926 0.482308
    55 -1.120216 -0.154385 9.795983 -0.017047 -0.001073 0.148118
    56 -2.240372 -0.308788 19.592047 -0.070644 0.164951 0.292405
    57 -0.683205 2.877342 14.167089 -0.354577 0.202666 -1.419491
    58 -0.144958 -0.145317 7.579308 -1.520222 0.303862 -0.161297
    59 -0.038551 -0.936644 4.697678 -1.063563 0.212411 -0.099130
    60 -0.506317 8.500896 13.617329 -0.010728 -0.114059 -1.333983
    61 0.385056 -0.460075 7.003435 -1.270059 0.580701 -0.285521
    62 -0.456360 -0.710276 5.057732 -1.300506 0.545250 -0.355674
    63 2.452194 -8.899408 11.597939 -0.917646 0.438795 -1.163408
    64 -0.680515 -0.903999 6.074242 -1.406564 -0.169177 -0.006596
    65 -0.248295 -0.666843 3.386627 -0.797345 -0.121356 0.045584
    66 0.717491 -3.784309 13.044010 -0.873407 0.202028 -1.408090
    67 -1.099228 -1.407673 8.017876 -1.514256 -0.019872 0.011286
    68 -0.064053 -0.807640 3.686100 -0.573178 -0.002965 -0.007222
    69 4.004906 6.172710 4.754800 0.470800 -1.049650 -2.824505
    70 -0.158381 -1.149773 5.804405 -0.442530 0.112992 0.245527
    71 1.078559 -2.386406 5.215008 -1.254977 0.852344 -0.042871
    72 6.289963 0.932404 13.569109 -0.126801 -0.612098 -2.869612
    73 -1.327759 -0.766682 12.396324 -0.032715 -0.013090 0.286107
    74 0.000017 -54.999996 0.000000 0.000000 0.000000 -1.570796
end
