// Created by Crowbar 0.74
version 1
nodes
  0 "root" -1
  1 "g_r_hip_offset" 0
  2 "g_r_hip" 1
  3 "g_r_knee" 2
  4 "g_r_ankle" 3
  5 "g_r_ball" 4
  6 "g_r_thightwist" 2
  7 "g_l_hip_offset" 0
  8 "g_l_hip" 7
  9 "g_l_knee" 8
  10 "g_l_ankle" 9
  11 "g_l_ball" 10
  12 "g_l_thightwist" 8
  13 "g_spine01_offset" 0
  14 "g_spine01" 13
  15 "g_pelvis" 14
  16 "g_spine02_offset" 14
  17 "g_spine02" 16
  18 "g_spine03_offset" 17
  19 "g_spine03" 18
  20 "g_l_clavical" 19
  21 "g_l_shoulder" 20
  22 "g_l_elbow" 21
  23 "g_l_forarm" 22
  24 "g_l_wrist" 22
  25 "g_l_birdy1" 24
  26 "g_l_birdy2" 25
  27 "g_l_birdy3" 26
  28 "g_l_index1" 24
  29 "g_l_index2" 28
  30 "g_l_index3" 29
  31 "g_l_pinky1" 24
  32 "g_l_pinky2" 31
  33 "g_l_pinky3" 32
  34 "g_l_ring1" 24
  35 "g_l_ring2" 34
  36 "g_l_ring3" 35
  37 "g_l_thumb1" 24
  38 "g_l_thumb2" 37
  39 "g_l_thumb3" 38
  40 "g_l_palm" 24
  41 "g_l_biceptwist" 21
  42 "g_neck" 19
  43 "g_head" 42
  44 "g_jaw" 43
  45 "g_l_brow" 43
  46 "g_l_brow2" 45
  47 "g_l_eye" 43
  48 "g_topeyelid" 43
  49 "g_r_brow" 43
  50 "g_r_brow2" 49
  51 "g_r_eye" 43
  52 "g_r_clavical" 19
  53 "g_r_shoulder" 52
  54 "g_r_elbow" 53
  55 "g_r_forarm" 54
  56 "g_r_wrist" 54
  57 "g_r_birdy1" 56
  58 "g_r_birdy2" 57
  59 "g_r_birdy3" 58
  60 "g_r_index1" 56
  61 "g_r_index2" 60
  62 "g_r_index3" 61
  63 "g_r_pinky1" 56
  64 "g_r_pinky2" 63
  65 "g_r_pinky3" 64
  66 "g_r_ring1" 56
  67 "g_r_ring2" 66
  68 "g_r_ring3" 67
  69 "g_r_thumb1" 56
  70 "g_r_thumb2" 69
  71 "g_r_thumb3" 70
  72 "g_r_palm" 56
  73 "g_r_biceptwist" 53
  74 "g_throwable_attach_offset" 0
end
skeleton
  time 0
    0 -11.320313 -0.000002 -1.500000 0.000000 0.000000 0.000000
    1 -10.521344 -5.760963 66.994621 3.097005 -0.050653 -3.139334
    2 0.207409 -0.799528 2.303971 0.234982 -0.043075 -0.222243
    3 -0.000034 0.000012 24.761454 -0.152386 -0.017822 0.220088
    4 0.000017 0.000000 24.344809 1.078771 0.059944 0.006539
    5 0.002333 -1.019846 24.031336 0.764979 -0.045970 0.000087
    6 0.000034 0.000008 13.404741 -0.000001 -0.000009 0.133413
    7 10.398263 -5.760962 66.994675 3.097005 0.050653 3.139334
    8 0.902205 3.458248 2.664345 -0.221345 -0.028199 -0.183460
    9 -0.000004 -0.000006 24.761459 -1.590949 0.184391 0.008105
    10 -0.000007 0.000004 24.344891 1.042016 -0.169092 -0.292423
    11 -0.002360 -1.019903 24.031330 0.389594 -0.042695 -0.017219
    12 0.000000 -0.000002 13.404737 0.000001 0.000005 0.016101
    13 -0.061540 -5.245835 72.927078 0.000000 0.000000 0.000000
    14 -0.322905 -0.007248 -2.461465 0.246573 0.000021 0.115300
    15 0.000000 -0.005608 -1.146812 0.000036 0.032966 0.085610
    16 0.030770 -0.240000 8.906021 -0.004138 0.000000 0.000000
    17 0.308626 -1.225744 -0.094151 0.152152 0.124018 -0.278970
    18 0.030770 -0.276858 8.905140 0.056125 0.004134 -0.000049
    19 -0.376277 -0.690552 -0.024614 0.311984 -0.107485 -0.046382
    20 5.669724 4.435303 14.302868 3.007278 -1.516966 0.299583
    21 -1.044571 -2.839317 19.743267 -0.336592 -1.045917 0.199843
    22 2.655533 -1.533369 24.792658 -1.297388 0.136570 -0.172561
    23 1.120163 -0.154394 9.796035 0.002859 -0.000453 0.025181
    24 2.240311 -0.308786 19.592051 -0.190691 0.004208 0.072537
    25 0.683151 2.877354 14.167051 -0.168314 -0.189168 1.389746
    26 0.144936 -0.145374 7.579252 -1.138466 -0.219959 0.121618
    27 0.091660 -0.906685 4.702850 -0.964407 -0.146637 0.077552
    28 0.506271 8.500866 13.617253 -0.198340 0.123530 1.276104
    29 -0.384987 -0.460049 7.003448 -0.883432 -0.412081 0.234719
    30 0.561516 -0.596954 5.061852 -0.844258 -0.305975 0.153753
    31 -2.452171 -8.899406 11.597897 -0.519087 -0.538554 1.305444
    32 0.680496 -0.903999 6.074253 -1.013951 0.113583 0.013502
    33 0.245514 -0.661150 3.388004 -0.865456 0.111926 -0.049375
    34 -0.717484 -3.784271 13.043911 -0.399716 -0.301109 1.456531
    35 1.099216 -1.407745 8.017889 -1.168629 0.014968 -0.000058
    36 0.068439 -0.807653 3.686054 -0.850581 0.013833 0.001939
    37 -4.004929 6.172707 4.754754 0.009397 1.111060 2.645667
    38 0.158352 -1.149811 5.804394 -0.341469 -0.212149 0.213570
    39 -1.083523 -1.463142 5.544399 -1.251539 -0.225073 -0.049693
    40 -6.289886 0.932434 13.569063 -0.126803 0.612110 2.869610
    41 1.327774 -0.766687 12.396328 -0.012610 0.006343 -0.114104
    42 -0.096140 1.828087 23.185329 0.004138 0.081544 -1.570175
    43 2.325478 -0.000003 6.169296 -0.519144 0.084810 1.797870
    44 0.000000 -3.152912 0.122169 1.961017 0.000000 0.000000
    45 1.068383 -10.478592 7.066338 0.292219 -1.282324 -3.141588
    46 0.000000 0.000000 2.279457 0.547137 -0.343566 0.107833
    47 2.479414 -8.323895 6.074242 -0.009072 0.093654 1.556814
    48 0.000003 -5.075260 5.105362 0.000000 0.000000 0.000000
    49 -1.068383 -10.478611 7.065971 0.292219 1.282324 3.141588
    50 -0.000488 0.000015 2.279600 0.547136 0.343566 0.107835
    51 -2.479401 -8.323895 6.074234 0.008171 0.093634 1.562470
    52 -5.790000 4.432083 14.255558 -5.991044 1.425163 -3.059574
    53 1.044540 -2.839314 19.743252 -0.076970 0.988103 -0.054107
    54 -2.655510 -1.533379 24.792648 -0.702016 -0.040452 -0.508167
    55 -1.120216 -0.154385 9.795983 -0.004931 -0.000581 0.042838
    56 -2.240372 -0.308788 19.592047 0.106909 -0.015787 0.098225
    57 -0.683205 2.877342 14.167089 -0.307703 0.098819 -1.379504
    58 -0.144958 -0.145317 7.579308 -0.904288 0.229583 -0.028435
    59 -0.038551 -0.936644 4.697678 -0.433376 0.082810 -0.010924
    60 -0.506317 8.500896 13.617329 -0.144672 -0.284002 -1.238792
    61 0.385056 -0.460075 7.003435 -0.751952 0.460346 -0.057477
    62 -0.456360 -0.710276 5.057732 -0.324447 0.189855 -0.015745
    63 2.452194 -8.899408 11.597939 -0.585489 0.225409 -1.500852
    64 -0.680515 -0.903999 6.074242 -0.911320 -0.112355 -0.027213
    65 -0.248295 -0.666843 3.386627 -0.631954 -0.113548 0.032216
    66 0.717491 -3.784309 13.044010 -0.575794 0.186025 -1.453549
    67 -1.099228 -1.407673 8.017876 -0.987831 -0.004354 0.002463
    68 -0.064053 -0.807640 3.686100 -0.515716 -0.000806 -0.007141
    69 4.004906 6.172710 4.754800 -0.004746 -1.074234 -2.731660
    70 -0.158381 -1.149773 5.804405 -0.177093 0.103148 0.161381
    71 1.078559 -2.386406 5.215008 -0.852229 0.507308 0.170742
    72 6.289963 0.932404 13.569109 -0.126801 -0.612098 -2.869612
    73 -1.327759 -0.766682 12.396324 0.024931 0.018981 -0.253803
    74 0.000017 -54.999996 0.000000 0.000000 0.000000 -1.570796
  time 1
    0 -11.320308 -20.263160 -1.500000 0.000000 0.000000 0.000000
    1 -10.521344 -5.760963 66.994621 3.097005 -0.050653 -3.139334
    2 0.207409 -0.799528 2.303971 0.234982 -0.043075 -0.222243
    3 -0.000034 0.000012 24.761454 -0.152386 -0.017822 0.220088
    4 0.000017 0.000000 24.344809 1.078771 0.059944 0.006539
    5 0.002333 -1.019846 24.031336 0.764979 -0.045970 0.000087
    6 0.000034 0.000008 13.404741 -0.000001 -0.000009 0.133413
    7 10.398263 -5.760962 66.994675 3.097005 0.050653 3.139334
    8 0.906111 3.458248 2.664345 -0.221345 -0.028199 -0.183460
    9 -0.000004 -0.000006 24.761459 -1.590949 0.184391 0.008105
    10 -0.000007 0.000004 24.344891 1.042016 -0.169092 -0.292423
    11 -0.002360 -1.019903 24.031330 0.389594 -0.042695 -0.017219
    12 0.000000 -0.000002 13.404737 0.000001 0.000005 0.016101
    13 -0.061540 -5.245835 72.927078 0.000000 0.000000 0.000000
    14 -0.322905 -0.007248 -2.461465 0.246573 0.000021 0.115300
    15 0.000000 -0.005608 -1.146812 0.000036 0.032966 0.085610
    16 0.030770 -0.240000 8.906021 -0.004138 0.000000 0.000000
    17 0.308626 -1.225744 -0.094151 0.152152 0.124018 -0.278970
    18 0.030770 -0.276858 8.905140 0.056125 0.004134 -0.000049
    19 -0.376277 -0.690552 -0.024614 0.311984 -0.107485 -0.046382
    20 5.669724 4.435303 14.302868 3.007278 -1.516966 0.299583
    21 -1.044571 -2.839317 19.743267 -0.336592 -1.045917 0.199843
    22 2.655533 -1.533369 24.792658 -1.297388 0.136570 -0.172561
    23 1.120163 -0.154394 9.796035 0.002859 -0.000453 0.025181
    24 2.240311 -0.308786 19.592051 -0.190691 0.004208 0.072537
    25 0.683151 2.877354 14.167051 -0.168314 -0.189168 1.389746
    26 0.144936 -0.145374 7.579252 -1.138466 -0.219959 0.121618
    27 0.091660 -0.906685 4.702850 -0.964407 -0.146637 0.077552
    28 0.506271 8.500866 13.617253 -0.198340 0.123530 1.276104
    29 -0.384987 -0.460049 7.003448 -0.883432 -0.412081 0.234719
    30 0.561516 -0.596954 5.061852 -0.844258 -0.305975 0.153753
    31 -2.452171 -8.899406 11.597897 -0.519087 -0.538554 1.305444
    32 0.680496 -0.903999 6.074253 -1.013951 0.113583 0.013502
    33 0.245514 -0.661150 3.388004 -0.865456 0.111926 -0.049375
    34 -0.717484 -3.784271 13.043911 -0.399716 -0.301109 1.456531
    35 1.099216 -1.407745 8.017889 -1.168629 0.014968 -0.000058
    36 0.068439 -0.807653 3.686054 -0.850581 0.013833 0.001939
    37 -4.004929 6.172707 4.754754 0.009397 1.111060 2.645667
    38 0.158352 -1.149811 5.804394 -0.341469 -0.212149 0.213570
    39 -1.083523 -1.463142 5.544399 -1.251539 -0.225073 -0.049693
    40 -6.289886 0.932434 13.569063 -0.126803 0.612110 2.869610
    41 1.327774 -0.766687 12.396328 -0.012610 0.006343 -0.114104
    42 -0.096140 1.828087 23.185329 0.004138 0.081544 -1.570175
    43 2.325478 -0.000003 6.169296 -0.519144 0.084810 1.797870
    44 0.000000 -3.152912 0.122169 1.961017 0.000000 0.000000
    45 1.068383 -10.478592 7.066338 0.292219 -1.282324 -3.141588
    46 0.000000 0.000000 2.279457 0.547137 -0.343566 0.107833
    47 2.479414 -8.323895 6.074242 -0.009072 0.093654 1.556814
    48 0.000003 -5.075260 5.105362 0.000000 0.000000 0.000000
    49 -1.068383 -10.478611 7.065971 0.292219 1.282324 3.141588
    50 -0.000488 0.000015 2.279600 0.547136 0.343566 0.107835
    51 -2.479401 -8.323895 6.074234 0.008171 0.093634 1.562470
    52 -5.790000 4.432083 14.255558 -5.991044 1.425163 -3.059574
    53 1.044540 -2.839314 19.743252 -0.076970 0.988103 -0.054107
    54 -2.655510 -1.533379 24.792648 -0.702016 -0.040452 -0.508167
    55 -1.120216 -0.154385 9.795983 -0.004931 -0.000581 0.042838
    56 -2.240372 -0.308788 19.592047 0.106909 -0.015787 0.098225
    57 -0.683205 2.877342 14.167089 -0.307703 0.098819 -1.379504
    58 -0.144958 -0.145317 7.579308 -0.904288 0.229583 -0.028435
    59 -0.038551 -0.936644 4.697678 -0.433376 0.082810 -0.010924
    60 -0.506317 8.500896 13.617329 -0.144672 -0.284002 -1.238792
    61 0.385056 -0.460075 7.003435 -0.751952 0.460346 -0.057477
    62 -0.456360 -0.710276 5.057732 -0.324447 0.189855 -0.015745
    63 2.452194 -8.899408 11.597939 -0.585489 0.225409 -1.500852
    64 -0.680515 -0.903999 6.074242 -0.911320 -0.112355 -0.027213
    65 -0.248295 -0.666843 3.386627 -0.631954 -0.113548 0.032216
    66 0.717491 -3.784309 13.044010 -0.575794 0.186025 -1.453549
    67 -1.099228 -1.407673 8.017876 -0.987831 -0.004354 0.002463
    68 -0.064053 -0.807640 3.686100 -0.515716 -0.000806 -0.007141
    69 4.004906 6.172710 4.754800 -0.004746 -1.074234 -2.731660
    70 -0.158381 -1.149773 5.804405 -0.177093 0.103148 0.161381
    71 1.078559 -2.386406 5.215008 -0.852229 0.507308 0.170742
    72 6.289963 0.932404 13.569109 -0.126801 -0.612098 -2.869612
    73 -1.327759 -0.766682 12.396324 0.024931 0.018981 -0.253803
    74 0.000017 -54.999996 0.000000 0.000000 0.000000 -1.570796
  time 2
    0 -11.320303 -40.526318 -1.500000 0.000000 0.000000 0.000000
    1 -10.521344 -5.760963 66.994621 3.097005 -0.050653 -3.139334
    2 0.176158 -0.382110 7.057973 0.415412 -0.021531 -0.165140
    3 -0.000034 0.000012 24.761454 -0.741542 -0.086111 0.195331
    4 0.000017 0.000000 24.344809 1.311920 0.114154 0.060252
    5 0.002333 -1.019846 24.031336 0.627664 -0.045538 0.006487
    6 0.000034 0.000008 13.404741 -0.000001 -0.000009 0.122402
    7 10.398263 -5.760962 66.994675 3.097005 0.050653 3.139334
    8 1.136587 2.633949 7.452622 -0.246000 -0.051794 -0.117777
    9 -0.000004 -0.000006 24.761459 -1.816714 0.210482 -0.114739
    10 -0.000007 0.000004 24.344891 1.136631 -0.145894 -0.363718
    11 -0.002360 -1.019903 24.031330 0.389594 -0.042695 -0.017219
    12 0.000000 -0.000002 13.404737 0.000001 0.000005 -0.042725
    13 -0.061540 -5.245835 72.927078 0.000000 0.000000 0.000000
    14 -0.451815 -0.007248 -7.260589 0.246573 0.000021 0.096683
    15 0.000000 -0.005608 -1.146812 0.000036 0.027665 0.044603
    16 0.030770 -0.240000 8.906021 -0.004138 0.000000 0.000000
    17 0.257844 -1.229650 -0.098058 0.162821 0.104964 -0.234884
    18 0.030770 -0.276858 8.905140 0.056125 0.004134 -0.000049
    19 -0.317681 -0.628050 -0.016801 0.284925 -0.091151 -0.037369
    20 5.669724 4.435303 14.302868 3.154856 -1.443678 0.249941
    21 -1.044571 -2.839317 19.743267 -0.008678 -1.039133 0.014026
    22 2.655533 -1.533369 24.792658 -1.244661 0.121891 0.044661
    23 1.120163 -0.154394 9.796035 0.005256 -0.000836 0.046291
    24 2.240311 -0.308786 19.592051 -0.215627 0.013924 0.117124
    25 0.683151 2.877354 14.167051 -0.168314 -0.189156 1.389746
    26 0.144936 -0.145374 7.579252 -1.138466 -0.219959 0.121618
    27 0.091660 -0.906685 4.702850 -0.964407 -0.146637 0.077552
    28 0.506271 8.500866 13.617253 -0.198340 0.123530 1.276104
    29 -0.384987 -0.460049 7.003448 -0.883432 -0.412081 0.234719
    30 0.561516 -0.596954 5.061852 -0.844258 -0.305975 0.153753
    31 -2.452171 -8.899406 11.597897 -0.519087 -0.538554 1.305444
    32 0.680496 -0.903999 6.074253 -1.013951 0.113583 0.013502
    33 0.245514 -0.661150 3.388004 -0.865456 0.111926 -0.049375
    34 -0.717484 -3.784271 13.043911 -0.399716 -0.301109 1.456531
    35 1.099216 -1.407745 8.017889 -1.168591 0.014968 -0.000058
    36 0.068439 -0.807653 3.686054 -0.850581 0.013833 0.001939
    37 -4.004929 6.172707 4.754754 0.009397 1.111060 2.645667
    38 0.158352 -1.149811 5.804394 -0.341469 -0.212149 0.213570
    39 -1.083523 -1.463142 5.544399 -1.251539 -0.225073 -0.049693
    40 -6.289886 0.932434 13.569063 -0.126803 0.612110 2.869610
    41 1.327774 -0.766687 12.396328 0.002563 -0.001519 0.024191
    42 -0.096140 1.828087 23.185329 0.004138 0.081544 -1.570175
    43 2.325478 -0.000003 6.169296 -0.525161 0.068634 1.762787
    44 0.000000 -3.152912 0.122169 1.961017 0.000000 0.000000
    45 1.068383 -10.478592 7.066338 0.292219 -1.282324 -3.141588
    46 0.000000 0.000000 2.279457 0.547137 -0.343566 0.107833
    47 2.479414 -8.323895 6.074242 -0.009127 0.120703 1.555668
    48 0.000003 -5.075260 5.105362 0.000000 0.000000 0.000000
    49 -1.068383 -10.478611 7.065971 0.292219 1.282324 3.141588
    50 -0.000488 0.000015 2.279600 0.547136 0.343566 0.107835
    51 -2.479401 -8.323895 6.074234 0.008131 0.120709 1.561321
    52 -5.790000 4.432083 14.255558 -5.688805 1.487053 -2.658971
    53 1.044540 -2.839314 19.743252 -0.259301 0.924338 -0.142176
    54 -2.655510 -1.533379 24.792648 -0.716611 -0.060255 -0.307709
    55 -1.120216 -0.154385 9.795983 -0.007088 -0.000761 0.061582
    56 -2.240372 -0.308788 19.592047 0.131270 -0.025341 0.138092
    57 -0.683205 2.877342 14.167089 -0.307703 0.098819 -1.379504
    58 -0.144958 -0.145317 7.579308 -0.904288 0.229583 -0.028435
    59 -0.038551 -0.936644 4.697678 -0.433425 0.082810 -0.010924
    60 -0.506317 8.500896 13.617329 -0.144672 -0.284002 -1.238792
    61 0.385056 -0.460075 7.003435 -0.751952 0.460346 -0.057477
    62 -0.456360 -0.710276 5.057732 -0.324447 0.189855 -0.015745
    63 2.452194 -8.899408 11.597939 -0.585489 0.225409 -1.500852
    64 -0.680515 -0.903999 6.074242 -0.911320 -0.112355 -0.027213
    65 -0.248295 -0.666843 3.386627 -0.631954 -0.113548 0.032216
    66 0.717491 -3.784309 13.044010 -0.575794 0.186025 -1.453549
    67 -1.099228 -1.407673 8.017876 -0.987831 -0.004354 0.002463
    68 -0.064053 -0.807640 3.686100 -0.515716 -0.000806 -0.007141
    69 4.004906 6.172710 4.754800 -0.004746 -1.074234 -2.731660
    70 -0.158381 -1.149773 5.804405 -0.177093 0.103148 0.161381
    71 1.078559 -2.386406 5.215008 -0.852229 0.507308 0.170742
    72 6.289963 0.932404 13.569109 -0.126801 -0.612098 -2.869612
    73 -1.327759 -0.766682 12.396324 0.013701 0.009190 -0.133515
    74 0.000017 -54.999996 0.000000 0.000000 0.000000 -1.570796
  time 3
    0 -11.320299 -60.789476 -1.500000 0.000000 0.000000 0.000000
    1 -10.521344 -5.760963 66.994621 3.097005 -0.050653 -3.139334
    2 0.156626 0.244016 10.331956 0.335069 -0.085245 -0.100697
    3 -0.000034 0.000012 24.761454 -0.962562 -0.111710 0.145126
    4 0.000017 0.000000 24.344809 1.618429 0.151230 0.110141
    5 0.002333 -1.019846 24.031336 0.571999 -0.045119 0.009052
    6 0.000034 0.000008 13.404741 -0.000001 -0.000009 0.098292
    7 10.398263 -5.760962 66.994675 3.097005 0.050653 3.139334
    8 1.285029 1.747204 10.734727 -0.178690 -0.062256 -0.045740
    9 -0.000004 -0.000006 24.761459 -1.945628 0.225367 -0.226313
    10 -0.000007 0.000004 24.344891 1.106620 -0.136228 -0.420342
    11 -0.002360 -1.019903 24.031330 0.389594 -0.042695 -0.017219
    12 0.000000 -0.000002 13.404737 0.000001 0.000005 -0.095969
    13 -0.061540 -5.245835 72.927078 0.000000 0.000000 0.000000
    14 -0.549474 -0.007248 -10.550130 0.246573 0.000021 0.069359
    15 0.000000 -0.005608 -1.146812 0.000036 0.019853 -0.000046
    16 0.030770 -0.240000 8.906021 -0.004138 0.000000 0.000000
    17 0.187529 -1.210119 -0.090245 0.165389 0.075908 -0.167755
    18 0.030770 -0.276858 8.905140 0.056125 0.004134 -0.000049
    19 -0.227835 -0.659301 -0.016801 0.301582 -0.066157 -0.027686
    20 5.669724 4.435303 14.302868 3.282240 -1.390756 0.228091
    21 -1.044571 -2.839317 19.743267 0.191162 -0.959657 -0.085072
    22 2.655533 -1.533369 24.792658 -1.154136 0.100910 0.228725
    23 1.120163 -0.154394 9.796035 0.006814 -0.001148 0.059881
    24 2.240311 -0.308786 19.592051 -0.223156 0.020462 0.144857
    25 0.683151 2.877354 14.167051 -0.168314 -0.189156 1.389746
    26 0.144936 -0.145374 7.579252 -1.138466 -0.219959 0.121618
    27 0.091660 -0.906685 4.702850 -0.964407 -0.146637 0.077552
    28 0.506271 8.500866 13.617253 -0.198340 0.123530 1.276104
    29 -0.384987 -0.460049 7.003448 -0.883432 -0.412081 0.234719
    30 0.561516 -0.596954 5.061852 -0.844258 -0.305975 0.153753
    31 -2.452171 -8.899406 11.597897 -0.519087 -0.538554 1.305444
    32 0.680496 -0.903999 6.074253 -1.013951 0.113583 0.013502
    33 0.245514 -0.661150 3.388004 -0.865456 0.111926 -0.049375
    34 -0.717484 -3.784271 13.043911 -0.399716 -0.301109 1.456531
    35 1.099216 -1.407745 8.017889 -1.168591 0.014968 -0.000046
    36 0.068439 -0.807653 3.686054 -0.850581 0.013833 0.001939
    37 -4.004929 6.172707 4.754754 0.009397 1.111060 2.645667
    38 0.158352 -1.149811 5.804394 -0.341511 -0.212149 0.213570
    39 -1.083523 -1.463142 5.544399 -1.251539 -0.225073 -0.049693
    40 -6.289886 0.932434 13.569063 -0.126803 0.612110 2.869610
    41 1.327774 -0.766687 12.396328 0.013768 -0.009237 0.134113
    42 -0.096140 1.828087 23.185329 0.004138 0.081544 -1.570175
    43 2.325478 -0.000003 6.169296 -0.558156 0.052530 1.708306
    44 0.000000 -3.152912 0.122169 1.961017 0.000000 0.000000
    45 1.068383 -10.478592 7.066338 0.292219 -1.282324 -3.141588
    46 0.000000 0.000000 2.279457 0.547137 -0.343566 0.107833
    47 2.479414 -8.323895 6.074242 -0.009127 0.149255 1.555477
    48 0.000003 -5.075260 5.105362 0.000000 0.000000 0.000000
    49 -1.068383 -10.478611 7.065971 0.292219 1.282324 3.141588
    50 -0.000488 0.000015 2.279600 0.547136 0.343566 0.107835
    51 -2.479401 -8.323895 6.074234 0.008151 0.149249 1.561129
    52 -5.790000 4.432083 14.255558 -5.061512 1.506617 -1.925504
    53 1.044540 -2.839314 19.743252 -0.399443 0.833099 -0.186700
    54 -2.655510 -1.533379 24.792648 -0.748014 -0.077417 -0.107554
    55 -1.120216 -0.154385 9.795983 -0.008790 -0.000869 0.076571
    56 -2.240372 -0.308788 19.592047 0.138296 -0.031974 0.168766
    57 -0.683205 2.877342 14.167089 -0.307703 0.098819 -1.379504
    58 -0.144958 -0.145317 7.579308 -0.904288 0.229583 -0.028435
    59 -0.038551 -0.936644 4.697678 -0.433425 0.082810 -0.010924
    60 -0.506317 8.500896 13.617329 -0.144672 -0.284002 -1.238792
    61 0.385056 -0.460075 7.003435 -0.751952 0.460346 -0.057477
    62 -0.456360 -0.710276 5.057732 -0.324447 0.189855 -0.015745
    63 2.452194 -8.899408 11.597939 -0.585489 0.225409 -1.500852
    64 -0.680515 -0.903999 6.074242 -0.911320 -0.112355 -0.027213
    65 -0.248295 -0.666843 3.386627 -0.631954 -0.113548 0.032216
    66 0.717491 -3.784309 13.044010 -0.575794 0.186025 -1.453549
    67 -1.099228 -1.407673 8.017876 -0.987831 -0.004354 0.002463
    68 -0.064053 -0.807640 3.686100 -0.515716 -0.000806 -0.007141
    69 4.004906 6.172710 4.754800 -0.004746 -1.074234 -2.731660
    70 -0.158381 -1.149773 5.804405 -0.177093 0.103148 0.161381
    71 1.078559 -2.386406 5.215008 -0.852229 0.507308 0.170742
    72 6.289963 0.932404 13.569109 -0.126801 -0.612098 -2.869612
    73 -1.327759 -0.766682 12.396324 0.001764 0.001016 -0.016465
    74 0.000017 -54.999996 0.000000 0.000000 0.000000 -1.570796
  time 4
    0 -11.320294 -81.052634 -1.500000 0.000000 0.000000 0.000000
    1 -10.521344 -5.760963 66.994621 3.097005 -0.050653 -3.139334
    2 0.109750 1.005190 11.632579 0.090555 -0.117924 -0.007070
    3 -0.000034 0.000012 24.761454 -0.863536 -0.100240 0.054487
    4 0.000017 0.000000 24.344809 1.753929 0.149736 0.092618
    5 0.002333 -1.019846 24.031336 0.561434 -0.045011 0.009531
    6 0.000034 0.000008 13.404741 -0.000001 -0.000009 0.041425
    7 10.398263 -5.760962 66.994675 3.097005 0.050653 3.139334
    8 1.312374 0.872948 11.993616 0.039874 -0.106408 0.027287
    9 -0.000004 -0.000006 24.761459 -2.047923 0.237172 -0.363978
    10 -0.000007 0.000004 24.344891 1.062475 -0.191823 -0.479572
    11 -0.002360 -1.019903 24.031330 0.389594 -0.042695 -0.017219
    12 0.000000 -0.000002 13.404737 0.000001 0.000005 -0.163018
    13 -0.061540 -5.245835 72.927078 0.000000 0.000000 0.000000
    14 -0.592444 -0.007248 -11.811871 0.246573 0.000021 0.036089
    15 0.000000 -0.005608 -1.146812 0.000036 0.010348 -0.044668
    16 0.030770 -0.240000 8.906021 -0.004138 0.000000 0.000000
    17 0.101589 -1.151523 -0.055087 0.156992 0.039838 -0.086890
    18 0.030770 -0.276858 8.905140 0.056125 0.004134 -0.000049
    19 -0.118457 -0.827275 -0.036333 0.364744 -0.034868 -0.016037
    20 5.669724 4.435303 14.302868 3.411922 -1.373385 0.203558
    21 -1.044571 -2.839317 19.743267 0.247567 -0.876006 -0.094604
    22 2.655533 -1.533369 24.792658 -1.040524 0.079237 0.365156
    23 1.120163 -0.154394 9.796035 0.007701 -0.001328 0.067711
    24 2.240311 -0.308786 19.592051 -0.209143 0.022212 0.159021
    25 0.683151 2.877354 14.167051 -0.168314 -0.189156 1.389746
    26 0.144936 -0.145374 7.579252 -1.138466 -0.219959 0.121618
    27 0.091660 -0.906685 4.702850 -0.964407 -0.146625 0.077552
    28 0.506271 8.500866 13.617253 -0.198340 0.123530 1.276104
    29 -0.384987 -0.460049 7.003448 -0.883432 -0.412081 0.234719
    30 0.561516 -0.596954 5.061852 -0.844258 -0.305975 0.153753
    31 -2.452171 -8.899406 11.597897 -0.519087 -0.538554 1.305444
    32 0.680496 -0.903999 6.074253 -1.013951 0.113583 0.013502
    33 0.245514 -0.661150 3.388004 -0.865456 0.111926 -0.049375
    34 -0.717484 -3.784271 13.043911 -0.399716 -0.301109 1.456531
    35 1.099216 -1.407745 8.017889 -1.168591 0.014968 -0.000058
    36 0.068439 -0.807653 3.686054 -0.850581 0.013833 0.001939
    37 -4.004929 6.172707 4.754754 0.009397 1.111060 2.645667
    38 0.158352 -1.149811 5.804394 -0.341469 -0.212149 0.213570
    39 -1.083523 -1.463142 5.544399 -1.251539 -0.225073 -0.049693
    40 -6.289886 0.932434 13.569063 -0.126803 0.612110 2.869610
    41 1.327774 -0.766687 12.396328 0.020743 -0.015050 0.207529
    42 -0.096140 1.828087 23.185329 0.004138 0.081544 -1.570175
    43 2.325478 -0.000003 6.169296 -0.614215 0.032100 1.642371
    44 0.000000 -3.152912 0.122169 1.961017 0.000000 0.000000
    45 1.068383 -10.478592 7.066338 0.292219 -1.282324 -3.141588
    46 0.000000 0.000000 2.279457 0.547137 -0.343566 0.107833
    47 2.479414 -8.323895 6.074242 -0.009236 0.177618 1.554044
    48 0.000003 -5.075260 5.105362 0.000000 0.000000 0.000000
    49 -1.068383 -10.478611 7.065971 0.292219 1.282324 3.141588
    50 -0.000488 0.000015 2.279600 0.547136 0.343566 0.107835
    51 -2.479401 -8.323895 6.074234 0.008131 0.177694 1.559980
    52 -5.790000 4.432083 14.255558 -4.877561 1.499888 -1.635759
    53 1.044540 -2.839314 19.743252 -0.519271 0.757081 -0.207846
    54 -2.655510 -1.533379 24.792648 -0.811877 -0.092314 0.090102
    55 -1.120216 -0.154385 9.795983 -0.010060 -0.000953 0.087616
    56 -2.240372 -0.308788 19.592047 0.124168 -0.032915 0.189558
    57 -0.683205 2.877342 14.167089 -0.307703 0.098819 -1.379504
    58 -0.144958 -0.145317 7.579308 -0.904288 0.229583 -0.028435
    59 -0.038551 -0.936644 4.697678 -0.433376 0.082810 -0.010924
    60 -0.506317 8.500896 13.617329 -0.144672 -0.284002 -1.238792
    61 0.385056 -0.460075 7.003435 -0.751952 0.460346 -0.057477
    62 -0.456360 -0.710276 5.057732 -0.324447 0.189855 -0.015728
    63 2.452194 -8.899408 11.597939 -0.585489 0.225409 -1.500852
    64 -0.680515 -0.903999 6.074242 -0.911320 -0.112355 -0.027213
    65 -0.248295 -0.666843 3.386627 -0.631954 -0.113548 0.032216
    66 0.717491 -3.784309 13.044010 -0.575794 0.186025 -1.453549
    67 -1.099228 -1.407673 8.017876 -0.987831 -0.004354 0.002463
    68 -0.064053 -0.807640 3.686100 -0.515716 -0.000806 -0.007141
    69 4.004906 6.172710 4.754800 -0.004746 -1.074234 -2.731660
    70 -0.158381 -1.149773 5.804405 -0.177093 0.103148 0.161381
    71 1.078559 -2.386406 5.215008 -0.852229 0.507308 0.170742
    72 6.289963 0.932404 13.569109 -0.126801 -0.612098 -2.869612
    73 -1.327759 -0.766682 12.396324 -0.010592 -0.005468 0.096329
    74 0.000017 -54.999996 0.000000 0.000000 0.000000 -1.570796
  time 5
    0 -11.320290 -101.315792 -1.500000 0.000000 0.000000 0.000000
    1 -10.521344 -5.760963 66.994621 3.097005 -0.050653 -3.139334
    2 0.039435 1.901410 10.309532 -0.296814 -0.107959 0.100582
    3 -0.000034 0.000012 24.761454 -0.391943 -0.045615 -0.058221
    4 0.000017 0.000000 24.344809 1.606840 0.127622 0.028923
    5 0.002333 -1.019846 24.031336 0.595333 -0.045311 0.007973
    6 0.000034 0.000008 13.404741 -0.000001 -0.000009 -0.027255
    7 10.398263 -5.760962 66.994675 3.097005 0.050653 3.139334
    8 1.179557 0.123586 10.622326 0.379152 -0.193872 0.079025
    9 -0.000004 -0.000006 24.761459 -2.092856 0.242361 -0.513343
    10 -0.000007 0.000004 24.344891 1.051697 -0.254061 -0.523543
    11 -0.002360 -1.019903 24.031330 0.389594 -0.042695 -0.017219
    12 0.000000 -0.000002 13.404737 0.000001 0.000005 -0.254950
    13 -0.061540 -5.245835 72.927078 0.000000 0.000000 0.000000
    14 -0.561193 -0.007248 -10.482536 0.246573 0.000021 -0.000063
    15 0.000000 -0.005608 -1.146812 0.000036 0.000028 -0.085675
    16 0.030770 -0.240000 8.906021 -0.004138 0.000000 0.000000
    17 0.000023 -1.100740 -0.031649 0.146512 0.000476 -0.001591
    18 0.030770 -0.276858 8.905140 0.056125 0.004134 -0.000049
    19 0.002641 -0.987436 -0.059771 0.425403 -0.000452 -0.000145
    20 5.669724 4.435303 14.302868 3.532128 -1.367078 0.179983
    21 -1.044571 -2.839317 19.743267 0.221590 -0.781866 -0.060368
    22 2.655533 -1.533369 24.792658 -0.916106 0.059870 0.461151
    23 1.120163 -0.154394 9.796035 0.008084 -0.001412 0.071195
    24 2.240311 -0.308786 19.592051 -0.176156 0.019357 0.162977
    25 0.683151 2.877354 14.167051 -0.168314 -0.189156 1.389746
    26 0.144936 -0.145374 7.579252 -1.138466 -0.219959 0.121618
    27 0.091660 -0.906685 4.702850 -0.964407 -0.146625 0.077552
    28 0.506271 8.500866 13.617253 -0.198340 0.123530 1.276104
    29 -0.384987 -0.460049 7.003448 -0.883432 -0.412081 0.234719
    30 0.561516 -0.596954 5.061852 -0.844258 -0.305975 0.153753
    31 -2.452171 -8.899406 11.597897 -0.519087 -0.538554 1.305444
    32 0.680496 -0.903999 6.074253 -1.013951 0.113583 0.013502
    33 0.245514 -0.661150 3.388004 -0.865456 0.111926 -0.049375
    34 -0.717484 -3.784271 13.043911 -0.399716 -0.301109 1.456531
    35 1.099216 -1.407745 8.017889 -1.168629 0.014968 -0.000046
    36 0.068439 -0.807653 3.686054 -0.850581 0.013833 0.001939
    37 -4.004929 6.172707 4.754754 0.009397 1.111060 2.645667
    38 0.158352 -1.149811 5.804394 -0.341469 -0.212149 0.213570
    39 -1.083523 -1.463142 5.544399 -1.251539 -0.225073 -0.049693
    40 -6.289886 0.932434 13.569063 -0.126803 0.612110 2.869610
    41 1.327774 -0.766687 12.396328 0.024507 -0.018549 0.248957
    42 -0.096140 1.828087 23.185329 0.004138 0.081544 -1.570175
    43 2.325478 -0.000003 6.169296 -0.651652 0.001715 1.573841
    44 0.000000 -3.152912 0.122169 1.961017 0.000000 0.000000
    45 1.068383 -10.478592 7.066338 0.292219 -1.282324 -3.141588
    46 0.000000 0.000000 2.279457 0.547137 -0.343566 0.107833
    47 2.479414 -8.323895 6.074242 -0.009426 0.190955 1.549078
    48 0.000003 -5.075260 5.105362 0.000000 0.000000 0.000000
    49 -1.068383 -10.478611 7.065971 0.292219 1.282324 3.141588
    50 -0.000488 0.000015 2.279600 0.547136 0.343566 0.107835
    51 -2.479401 -8.323895 6.074234 0.007950 0.191018 1.555093
    52 -5.790000 4.432083 14.255558 -4.884942 1.493450 -1.546076
    53 1.044540 -2.839314 19.743252 -0.593962 0.697174 -0.207819
    54 -2.655510 -1.533379 24.792648 -0.913484 -0.105011 0.262236
    55 -1.120216 -0.154385 9.795983 -0.010851 -0.000977 0.094417
    56 -2.240372 -0.308788 19.592047 0.092781 -0.027668 0.200642
    57 -0.683205 2.877342 14.167089 -0.307703 0.098819 -1.379504
    58 -0.144958 -0.145317 7.579308 -0.904288 0.229583 -0.028435
    59 -0.038551 -0.936644 4.697678 -0.433376 0.082810 -0.010924
    60 -0.506317 8.500896 13.617329 -0.144672 -0.284002 -1.238792
    61 0.385056 -0.460075 7.003435 -0.751952 0.460346 -0.057477
    62 -0.456360 -0.710276 5.057732 -0.324447 0.189855 -0.015745
    63 2.452194 -8.899408 11.597939 -0.585489 0.225409 -1.500852
    64 -0.680515 -0.903999 6.074242 -0.911320 -0.112355 -0.027213
    65 -0.248295 -0.666843 3.386627 -0.631954 -0.113548 0.032216
    66 0.717491 -3.784309 13.044010 -0.575794 0.186025 -1.453549
    67 -1.099228 -1.407673 8.017876 -0.987831 -0.004354 0.002463
    68 -0.064053 -0.807640 3.686100 -0.515716 -0.000806 -0.007141
    69 4.004906 6.172710 4.754800 -0.004746 -1.074234 -2.731660
    70 -0.158381 -1.149773 5.804405 -0.177093 0.103148 0.161381
    71 1.078559 -2.386406 5.215008 -0.852229 0.507308 0.170742
    72 6.289963 0.932404 13.569109 -0.126801 -0.612098 -2.869612
    73 -1.327759 -0.766682 12.396324 -0.021773 -0.009902 0.193855
    74 0.000017 -54.999996 0.000000 0.000000 0.000000 -1.570796
  time 6
    0 -11.320285 -121.578950 -1.500000 0.000000 0.000000 0.000000
    1 -10.521344 -5.760963 66.994621 3.097005 -0.050653 -3.139334
    2 0.074592 2.859016 4.725821 -0.478679 -0.069463 0.170573
    3 -0.000034 0.000012 24.761454 -0.111938 -0.013124 -0.140308
    4 0.000017 0.000000 24.344809 1.147569 0.106435 0.008181
    5 0.002333 -1.019846 24.031336 0.913606 -0.045490 -0.006804
    6 0.000034 0.000008 13.404741 -0.000001 -0.000009 -0.071931
    7 10.398263 -5.760962 66.994675 3.097005 0.050653 3.139334
    8 0.820171 -0.388479 4.934843 0.686012 -0.270326 0.108318
    9 -0.000004 -0.000006 24.761459 -1.898330 0.219902 -0.563442
    10 -0.000007 0.000004 24.344891 1.246671 -0.170936 -0.456179
    11 -0.002360 -1.019903 24.031330 0.389594 -0.042695 -0.017219
    12 0.000000 -0.000002 13.404737 0.000001 0.000005 -0.316374
    13 -0.061540 -5.245835 72.927078 0.000000 0.000000 0.000000
    14 -0.463534 -0.007248 -4.827230 0.246573 0.000021 -0.036155
    15 0.000000 -0.005608 -1.146812 0.000036 -0.010309 -0.119454
    16 0.030770 -0.240000 8.906021 -0.004138 0.000000 0.000000
    17 -0.113261 -1.081208 -0.012117 0.138979 -0.038607 0.081990
    18 0.030770 -0.276858 8.905140 0.056125 0.004134 -0.000049
    19 0.131551 -1.069469 -0.083209 0.456787 0.033820 0.018048
    20 5.669724 4.435303 14.302868 3.645348 -1.385154 0.146345
    21 -1.044571 -2.839317 19.743267 0.156869 -0.702338 -0.018546
    22 2.655533 -1.533369 24.792658 -0.793337 0.044000 0.530378
    23 1.120163 -0.154394 9.796035 0.008168 -0.001412 0.072023
    24 2.240311 -0.308786 19.592051 -0.129373 0.013694 0.160010
    25 0.683151 2.877354 14.167051 -0.168314 -0.189156 1.389746
    26 0.144936 -0.145374 7.579252 -1.138466 -0.219959 0.121618
    27 0.091660 -0.906685 4.702850 -0.964407 -0.146637 0.077552
    28 0.506271 8.500866 13.617253 -0.198340 0.123530 1.276104
    29 -0.384987 -0.460049 7.003448 -0.883432 -0.412081 0.234719
    30 0.561516 -0.596954 5.061852 -0.844258 -0.305975 0.153753
    31 -2.452171 -8.899406 11.597897 -0.519087 -0.538554 1.305444
    32 0.680496 -0.903999 6.074253 -1.013951 0.113583 0.013502
    33 0.245514 -0.661150 3.388004 -0.865456 0.111926 -0.049375
    34 -0.717484 -3.784271 13.043911 -0.399716 -0.301109 1.456531
    35 1.099216 -1.407745 8.017889 -1.168629 0.014968 -0.000046
    36 0.068439 -0.807653 3.686054 -0.850581 0.013833 0.001939
    37 -4.004929 6.172707 4.754754 0.009397 1.111060 2.645667
    38 0.158352 -1.149811 5.804394 -0.341511 -0.212149 0.213570
    39 -1.083523 -1.463142 5.544399 -1.251539 -0.225073 -0.049693
    40 -6.289886 0.932434 13.569063 -0.126803 0.612110 2.869610
    41 1.327774 -0.766687 12.396328 0.026556 -0.020598 0.272408
    42 -0.096140 1.828087 23.185329 0.004138 0.081544 -1.570175
    43 2.325478 -0.000003 6.169296 -0.628206 -0.033792 1.507825
    44 0.000000 -3.152912 0.122169 1.961017 0.000000 0.000000
    45 1.068383 -10.478592 7.066338 0.292219 -1.282324 -3.141588
    46 0.000000 0.000000 2.279457 0.547137 -0.343566 0.107833
    47 2.479414 -8.323895 6.074242 -0.009725 0.186775 1.542392
    48 0.000003 -5.075260 5.105362 0.000000 0.000000 0.000000
    49 -1.068383 -10.478611 7.065971 0.292219 1.282324 3.141588
    50 -0.000488 0.000015 2.279600 0.547136 0.343566 0.107835
    51 -2.479401 -8.323895 6.074234 0.007669 0.186813 1.548291
    52 -5.790000 4.432083 14.255558 -5.187182 1.493533 -1.768272
    53 1.044540 -2.839314 19.743252 -0.616392 0.672456 -0.203519
    54 -2.655510 -1.533379 24.792648 -1.039097 -0.116647 0.411576
    55 -1.120216 -0.154385 9.795983 -0.011127 -0.001001 0.096702
    56 -2.240372 -0.308788 19.592047 0.048870 -0.017668 0.201158
    57 -0.683205 2.877342 14.167089 -0.307703 0.098819 -1.379504
    58 -0.144958 -0.145317 7.579308 -0.904288 0.229583 -0.028435
    59 -0.038551 -0.936644 4.697678 -0.433425 0.082810 -0.010924
    60 -0.506317 8.500896 13.617329 -0.144672 -0.284002 -1.238792
    61 0.385056 -0.460075 7.003435 -0.751952 0.460346 -0.057477
    62 -0.456360 -0.710276 5.057732 -0.324447 0.189855 -0.015745
    63 2.452194 -8.899408 11.597939 -0.585489 0.225409 -1.500852
    64 -0.680515 -0.903999 6.074242 -0.911320 -0.112355 -0.027213
    65 -0.248295 -0.666843 3.386627 -0.631954 -0.113548 0.032216
    66 0.717491 -3.784309 13.044010 -0.575794 0.186025 -1.453549
    67 -1.099228 -1.407673 8.017876 -0.987831 -0.004354 0.002463
    68 -0.064053 -0.807640 3.686100 -0.515716 -0.000806 -0.007141
    69 4.004906 6.172710 4.754800 -0.004746 -1.074234 -2.731660
    70 -0.158381 -1.149773 5.804405 -0.177093 0.103148 0.161381
    71 1.078559 -2.386406 5.215008 -0.852229 0.507308 0.170742
    72 6.289963 0.932404 13.569109 -0.126801 -0.612098 -2.869612
    73 -1.327759 -0.766682 12.396324 -0.031589 -0.012814 0.276669
    74 0.000017 -54.999996 0.000000 0.000000 0.000000 -1.570796
  time 7
    0 -11.320281 -141.842108 -1.500000 0.000000 0.000000 0.000000
    1 -10.521344 -5.760963 66.994621 3.097005 -0.050653 -3.139334
    2 0.008184 3.644743 -0.050606 -0.518919 -0.025344 0.211423
    3 -0.000034 0.000012 24.761454 -0.219501 -0.025612 -0.187501
    4 0.000017 0.000000 24.344809 1.027296 0.106164 0.013669
    5 0.002333 -1.019846 24.031336 0.660481 -0.045706 0.004965
    6 0.000034 0.000008 13.404741 -0.000001 -0.000009 -0.096273
    7 10.398263 -5.760962 66.994675 3.097005 0.050653 3.139334
    8 0.484223 -0.763160 0.034165 0.895192 -0.311259 0.132413
    9 -0.000004 -0.000006 24.761459 -1.569775 0.181959 -0.543812
    10 -0.000007 0.000004 24.344891 1.284233 -0.094832 -0.348059
    11 -0.002360 -1.019903 24.031330 0.389594 -0.042695 -0.017219
    12 0.000000 -0.000002 13.404737 0.000001 0.000005 -0.333056
    13 -0.061540 -5.245835 72.927078 0.000000 0.000000 0.000000
    14 -0.322905 -0.007248 -0.005575 0.246573 0.000021 -0.069365
    15 0.000000 -0.005608 -1.146812 0.000036 -0.019814 -0.142363
    16 0.030770 -0.240000 8.906021 -0.004138 0.000000 0.000000
    17 -0.218733 -1.081208 -0.008211 0.132581 -0.074146 0.158822
    18 0.030770 -0.276858 8.905140 0.056125 0.004134 -0.000049
    19 0.237023 -1.096814 -0.091022 0.469262 0.064780 0.035210
    20 5.669724 4.435303 14.302868 3.764310 -1.429901 0.081370
    21 -1.044571 -2.839317 19.743267 0.057218 -0.672019 0.019751
    22 2.655533 -1.533369 24.792658 -0.685844 0.032318 0.577041
    23 1.120163 -0.154394 9.796035 0.007054 -0.001196 0.062020
    24 2.240311 -0.308786 19.592051 -0.076063 0.005636 0.134215
    25 0.683151 2.877354 14.167051 -0.168314 -0.189156 1.389746
    26 0.144936 -0.145374 7.579252 -1.138466 -0.219959 0.121618
    27 0.091660 -0.906685 4.702850 -0.964407 -0.146637 0.077552
    28 0.506271 8.500866 13.617253 -0.198340 0.123530 1.276104
    29 -0.384987 -0.460049 7.003448 -0.883432 -0.412081 0.234719
    30 0.561516 -0.596954 5.061852 -0.844258 -0.305975 0.153753
    31 -2.452171 -8.899406 11.597897 -0.519087 -0.538554 1.305444
    32 0.680496 -0.903999 6.074253 -1.013951 0.113583 0.013502
    33 0.245514 -0.661150 3.388004 -0.865456 0.111926 -0.049375
    34 -0.717484 -3.784271 13.043911 -0.399716 -0.301109 1.456531
    35 1.099216 -1.407745 8.017889 -1.168629 0.014968 -0.000058
    36 0.068439 -0.807653 3.686054 -0.850581 0.013833 0.001939
    37 -4.004929 6.172707 4.754754 0.009397 1.111060 2.645667
    38 0.158352 -1.149811 5.804394 -0.341511 -0.212149 0.213570
    39 -1.083523 -1.463142 5.544399 -1.251539 -0.225073 -0.049693
    40 -6.289886 0.932434 13.569063 -0.126803 0.612110 2.869610
    41 1.327774 -0.766687 12.396328 0.027635 -0.021701 0.284811
    42 -0.096140 1.828087 23.185329 0.004138 0.081544 -1.570175
    43 2.325478 -0.000003 6.169296 -0.616794 -0.066940 1.447477
    44 0.000000 -3.152912 0.122169 1.961017 0.000000 0.000000
    45 1.068383 -10.478592 7.066338 0.292219 -1.282324 -3.141588
    46 0.000000 0.000000 2.279457 0.547137 -0.343566 0.107833
    47 2.479414 -8.323895 6.074242 -0.009915 0.150569 1.535802
    48 0.000003 -5.075260 5.105362 0.000000 0.000000 0.000000
    49 -1.068383 -10.478611 7.065971 0.292219 1.282324 3.141588
    50 -0.000488 0.000015 2.279600 0.547136 0.343566 0.107835
    51 -2.479401 -8.323895 6.074234 0.007368 0.150619 1.541776
    52 -5.790000 4.432083 14.255558 -5.776898 1.483398 -2.303783
    53 1.044540 -2.839314 19.743252 -0.612997 0.707222 -0.216882
    54 -2.655510 -1.533379 24.792648 -1.175630 -0.127803 0.543271
    55 -1.120216 -0.154385 9.795983 -0.010120 -0.000953 0.088106
    56 -2.240372 -0.308788 19.592047 -0.001532 -0.004995 0.178389
    57 -0.683205 2.877342 14.167089 -0.307703 0.098819 -1.379504
    58 -0.144958 -0.145317 7.579308 -0.904288 0.229583 -0.028435
    59 -0.038551 -0.936644 4.697678 -0.433376 0.082810 -0.010924
    60 -0.506317 8.500896 13.617329 -0.144672 -0.284002 -1.238792
    61 0.385056 -0.460075 7.003435 -0.751952 0.460346 -0.057477
    62 -0.456360 -0.710276 5.057732 -0.324496 0.189855 -0.015745
    63 2.452194 -8.899408 11.597939 -0.585489 0.225409 -1.500852
    64 -0.680515 -0.903999 6.074242 -0.911320 -0.112355 -0.027213
    65 -0.248295 -0.666843 3.386627 -0.631954 -0.113548 0.032216
    66 0.717491 -3.784309 13.044010 -0.575794 0.186025 -1.453549
    67 -1.099228 -1.407673 8.017876 -0.987831 -0.004354 0.002463
    68 -0.064053 -0.807640 3.686100 -0.515716 -0.000806 -0.007141
    69 4.004906 6.172710 4.754800 -0.004746 -1.074234 -2.731660
    70 -0.158381 -1.149773 5.804405 -0.177093 0.103148 0.161381
    71 1.078559 -2.386406 5.215008 -0.852229 0.507308 0.170742
    72 6.289963 0.932404 13.569109 -0.126801 -0.612098 -2.869612
    73 -1.327759 -0.766682 12.396324 -0.039954 -0.014612 0.346020
    74 0.000017 -54.999996 0.000000 0.000000 0.000000 -1.570796
  time 8
    0 -11.320276 -162.105266 -1.500000 0.000000 0.000000 0.000000
    1 -10.521344 -5.760963 66.994621 3.097005 -0.050653 -3.139334
    2 -0.140258 4.160377 -3.279739 -0.505665 0.010145 0.233399
    3 -0.000034 0.000012 24.761454 -0.475684 -0.055298 -0.200449
    4 0.000017 0.000000 24.344809 1.018049 0.117436 0.034065
    5 0.002333 -1.019846 24.031336 0.392908 -0.042770 0.017045
    6 0.000034 0.000008 13.404741 -0.000001 -0.000009 -0.103170
    7 10.398263 -5.760962 66.994675 3.097005 0.050653 3.139334
    8 0.187339 -1.000458 -3.292900 0.860727 -0.271533 0.184316
    9 -0.000004 -0.000006 24.761459 -1.067374 0.123833 -0.473687
    10 -0.000007 0.000004 24.344891 1.178647 -0.080433 -0.173142
    11 -0.002360 -1.019903 24.031330 0.389594 -0.042695 -0.017219
    12 0.000000 -0.000002 13.404737 0.000001 0.000005 -0.289430
    13 -0.061540 -5.245835 72.927078 0.000000 0.000000 0.000000
    14 -0.162744 -0.007248 3.283966 0.246573 0.000021 -0.096749
    15 0.000000 -0.005608 -1.146812 0.000036 -0.027641 -0.150842
    16 0.030770 -0.240000 8.906021 -0.004138 0.000000 0.000000
    17 -0.296861 -1.112459 -0.023836 0.130203 -0.102986 0.223514
    18 0.030770 -0.276858 8.905140 0.056125 0.004134 -0.000049
    19 0.330776 -1.061657 -0.083209 0.454571 0.089672 0.047949
    20 5.669724 4.435303 14.302868 3.922799 -1.483000 -0.057301
    21 -1.044571 -2.839317 19.743267 -0.073155 -0.694093 0.059317
    22 2.655533 -1.533369 24.792658 -0.607513 0.025017 0.606317
    23 1.120163 -0.154394 9.796035 0.004273 -0.000681 0.037564
    24 2.240311 -0.308786 19.592051 -0.022187 -0.000258 0.078709
    25 0.683151 2.877354 14.167051 -0.168314 -0.189156 1.389746
    26 0.144936 -0.145374 7.579252 -1.138466 -0.219959 0.121618
    27 0.091660 -0.906685 4.702850 -0.964407 -0.146637 0.077552
    28 0.506271 8.500866 13.617253 -0.198340 0.123530 1.276104
    29 -0.384987 -0.460049 7.003448 -0.883432 -0.412081 0.234719
    30 0.561516 -0.596954 5.061852 -0.844294 -0.305975 0.153753
    31 -2.452171 -8.899406 11.597897 -0.519087 -0.538554 1.305444
    32 0.680496 -0.903999 6.074253 -1.013951 0.113583 0.013502
    33 0.245514 -0.661150 3.388004 -0.865456 0.111926 -0.049375
    34 -0.717484 -3.784271 13.043911 -0.399716 -0.301109 1.456531
    35 1.099216 -1.407745 8.017889 -1.168629 0.014968 -0.000058
    36 0.068439 -0.807653 3.686054 -0.850581 0.013833 0.001939
    37 -4.004929 6.172707 4.754754 0.009397 1.111060 2.645667
    38 0.158352 -1.149811 5.804394 -0.341511 -0.212149 0.213570
    39 -1.083523 -1.463142 5.544399 -1.251539 -0.225073 -0.049693
    40 -6.289886 0.932434 13.569063 -0.126803 0.612110 2.869610
    41 1.327774 -0.766687 12.396328 0.028090 -0.022180 0.290184
    42 -0.096140 1.828087 23.185329 0.004138 0.081544 -1.570175
    43 2.325478 -0.000003 6.169296 -0.590054 -0.090611 1.395751
    44 0.000000 -3.152912 0.122169 1.961017 0.000000 0.000000
    45 1.068383 -10.478592 7.066338 0.292219 -1.282324 -3.141588
    46 0.000000 0.000000 2.279457 0.547137 -0.343566 0.107833
    47 2.479414 -8.323895 6.074242 -0.010106 0.116242 1.531600
    48 0.000003 -5.075260 5.105362 0.000000 0.000000 0.000000
    49 -1.068383 -10.478611 7.065971 0.292219 1.282324 3.141588
    50 -0.000488 0.000015 2.279600 0.547136 0.343566 0.107835
    51 -2.479401 -8.323895 6.074234 0.007167 0.116220 1.537273
    52 -5.790000 4.432083 14.255558 0.069462 1.448964 -2.720484
    53 1.044540 -2.839314 19.743252 -0.601754 0.824196 -0.260590
    54 -2.655510 -1.533379 24.792648 -1.305722 -0.138779 0.622333
    55 -1.120216 -0.154385 9.795983 -0.007567 -0.000797 0.065934
    56 -2.240372 -0.308788 19.592047 -0.054149 0.005450 0.127438
    57 -0.683205 2.877342 14.167089 -0.307703 0.098819 -1.379504
    58 -0.144958 -0.145317 7.579308 -0.904288 0.229583 -0.028435
    59 -0.038551 -0.936644 4.697678 -0.433376 0.082810 -0.010924
    60 -0.506317 8.500896 13.617329 -0.144672 -0.284002 -1.238792
    61 0.385056 -0.460075 7.003435 -0.751952 0.460346 -0.057477
    62 -0.456360 -0.710276 5.057732 -0.324447 0.189855 -0.015745
    63 2.452194 -8.899408 11.597939 -0.585489 0.225409 -1.500852
    64 -0.680515 -0.903999 6.074242 -0.911320 -0.112355 -0.027213
    65 -0.248295 -0.666843 3.386627 -0.631954 -0.113548 0.032216
    66 0.717491 -3.784309 13.044010 -0.575794 0.186025 -1.453549
    67 -1.099228 -1.407673 8.017876 -0.987831 -0.004354 0.002463
    68 -0.064053 -0.807640 3.686100 -0.515716 -0.000806 -0.007141
    69 4.004906 6.172710 4.754800 -0.004746 -1.074234 -2.731660
    70 -0.158381 -1.149773 5.804405 -0.177093 0.103148 0.161381
    71 1.078559 -2.386406 5.215008 -0.852229 0.507308 0.170742
    72 6.289963 0.932404 13.569109 -0.126801 -0.612098 -2.869612
    73 -1.327759 -0.766682 12.396324 -0.043861 -0.015235 0.378128
    74 0.000017 -54.999996 0.000000 0.000000 0.000000 -1.570796
  time 9
    0 -11.320272 -182.368423 -1.500000 0.000000 0.000000 0.000000
    1 -10.521344 -5.760963 66.994621 3.097005 -0.050653 -3.139334
    2 -0.319951 4.332254 -4.513089 -0.316353 0.007390 0.244802
    3 -0.000034 0.000012 24.761454 -0.951261 -0.110379 -0.165065
    4 0.000017 0.000000 24.344809 0.969964 0.157115 0.111653
    5 0.002333 -1.019846 24.031336 0.389361 -0.042710 0.017201
    6 0.000034 0.000008 13.404741 -0.000001 -0.000009 -0.087519
    7 10.398263 -5.760962 66.994675 3.097005 0.050653 3.139334
    8 -0.070481 -1.075394 -4.686671 0.668523 -0.159670 0.238034
    9 -0.000004 -0.000006 24.761459 -0.665563 0.077309 -0.366849
    10 -0.000007 0.000004 24.344891 1.200525 -0.062813 -0.061218
    11 -0.002360 -1.019903 24.031330 0.389594 -0.042695 -0.017219
    12 0.000000 -0.000002 13.404737 0.000001 0.000005 -0.216112
    13 -0.061540 -5.245835 72.927078 0.000000 0.000000 0.000000
    14 0.001324 -0.007248 4.590769 0.246573 0.000021 -0.115245
    15 0.000000 -0.005608 -1.146812 0.000036 -0.032927 -0.142363
    16 0.030770 -0.240000 8.906021 -0.004138 0.000000 0.000000
    17 -0.343737 -1.147617 -0.047275 0.133865 -0.122446 0.269797
    18 0.030770 -0.276858 8.905140 0.056125 0.004134 -0.000049
    19 0.385465 -0.948372 -0.063677 0.411856 0.106417 0.053702
    20 5.669724 4.435303 14.302868 4.229918 -1.525140 -0.384381
    21 -1.044571 -2.839317 19.743267 -0.218156 -0.753791 0.108387
    22 2.655533 -1.533369 24.792658 -0.558475 0.021866 0.614404
    23 1.120163 -0.154394 9.796035 0.000822 -0.000129 0.007210
    24 2.240311 -0.308786 19.592051 0.028773 0.000340 0.011373
    25 0.683151 2.877354 14.167051 -0.168314 -0.189156 1.389746
    26 0.144936 -0.145374 7.579252 -1.138466 -0.219959 0.121618
    27 0.091660 -0.906685 4.702850 -0.964407 -0.146625 0.077552
    28 0.506271 8.500866 13.617253 -0.198340 0.123530 1.276104
    29 -0.384987 -0.460049 7.003448 -0.883432 -0.412081 0.234719
    30 0.561516 -0.596954 5.061852 -0.844258 -0.305975 0.153753
    31 -2.452171 -8.899406 11.597897 -0.519087 -0.538554 1.305444
    32 0.680496 -0.903999 6.074253 -1.013951 0.113583 0.013502
    33 0.245514 -0.661150 3.388004 -0.865456 0.111926 -0.049375
    34 -0.717484 -3.784271 13.043911 -0.399716 -0.301109 1.456531
    35 1.099216 -1.407745 8.017889 -1.168591 0.014968 -0.000058
    36 0.068439 -0.807653 3.686054 -0.850581 0.013833 0.001939
    37 -4.004929 6.172707 4.754754 0.009397 1.111060 2.645667
    38 0.158352 -1.149811 5.804394 -0.341469 -0.212149 0.213570
    39 -1.083523 -1.463142 5.544399 -1.251539 -0.225073 -0.049693
    40 -6.289886 0.932434 13.569063 -0.126803 0.612110 2.869610
    41 1.327774 -0.766687 12.396328 0.027802 -0.021905 0.286920
    42 -0.096140 1.828087 23.185329 0.004138 0.081544 -1.570175
    43 2.325478 -0.000003 6.169296 -0.558395 -0.099683 1.357355
    44 0.000000 -3.152912 0.122169 1.961017 0.000000 0.000000
    45 1.068383 -10.478592 7.066338 0.292219 -1.282324 -3.141588
    46 0.000000 0.000000 2.279457 0.547137 -0.343566 0.107833
    47 2.479414 -8.323895 6.074242 -0.010133 0.082055 1.530358
    48 0.000003 -5.075260 5.105362 0.000000 0.000000 0.000000
    49 -1.068383 -10.478611 7.065971 0.292219 1.282324 3.141588
    50 -0.000488 0.000015 2.279600 0.547136 0.343566 0.107835
    51 -2.479401 -8.323895 6.074234 0.007107 0.082058 1.536219
    52 -5.790000 4.432083 14.255558 -0.109313 1.410542 -2.919397
    53 1.044540 -2.839314 19.743252 -0.596689 1.013669 -0.333227
    54 -2.655510 -1.533379 24.792648 -1.415532 -0.150428 0.610292
    55 -1.120216 -0.154385 9.795983 -0.004128 -0.000510 0.035928
    56 -2.240372 -0.308788 19.592047 -0.105773 0.009163 0.060248
    57 -0.683205 2.877342 14.167089 -0.307703 0.098819 -1.379504
    58 -0.144958 -0.145317 7.579308 -0.904288 0.229583 -0.028435
    59 -0.038551 -0.936644 4.697678 -0.433425 0.082810 -0.010924
    60 -0.506317 8.500896 13.617329 -0.144672 -0.284002 -1.238792
    61 0.385056 -0.460075 7.003435 -0.751952 0.460346 -0.057477
    62 -0.456360 -0.710276 5.057732 -0.324447 0.189855 -0.015728
    63 2.452194 -8.899408 11.597939 -0.585489 0.225409 -1.500852
    64 -0.680515 -0.903999 6.074242 -0.911320 -0.112355 -0.027213
    65 -0.248295 -0.666843 3.386627 -0.631954 -0.113548 0.032216
    66 0.717491 -3.784309 13.044010 -0.575794 0.186025 -1.453549
    67 -1.099228 -1.407673 8.017876 -0.987831 -0.004354 0.002463
    68 -0.064053 -0.807640 3.686100 -0.515716 -0.000806 -0.007141
    69 4.004906 6.172710 4.754800 -0.004746 -1.074234 -2.731660
    70 -0.158381 -1.149773 5.804405 -0.177093 0.103148 0.161381
    71 1.078559 -2.386406 5.215008 -0.852229 0.507308 0.170742
    72 6.289963 0.932404 13.569109 -0.126801 -0.612098 -2.869612
    73 -1.327759 -0.766682 12.396324 -0.040086 -0.014636 0.347130
    74 0.000017 -54.999996 0.000000 0.000000 0.000000 -1.570796
  time 10
    0 -11.320267 -202.631581 -1.500000 0.000000 0.000000 0.000000
    1 -10.521344 -5.760963 66.994621 3.097005 -0.050653 -3.139334
    2 -0.530895 4.123546 -3.481560 -0.246668 0.010145 0.228157
    3 -0.000034 0.000012 24.761454 -1.202404 -0.139442 -0.117262
    4 0.000017 0.000000 24.344809 0.935689 0.186246 0.184596
    5 0.002333 -1.019846 24.031336 0.389361 -0.042710 0.017201
    6 0.000034 0.000008 13.404741 -0.000001 -0.000009 -0.066257
    7 10.398263 -5.760962 66.994675 3.097005 0.050653 3.139334
    8 -0.257987 -0.962990 -3.764984 0.420698 -0.040271 0.254290
    9 -0.000004 -0.000006 24.761459 -0.328869 0.038287 -0.275731
    10 -0.000007 0.000004 24.344891 1.180066 -0.057769 -0.012182
    11 -0.002360 -1.019903 24.031330 0.389594 -0.042695 -0.017219
    12 0.000000 -0.000002 13.404737 0.000001 0.000005 -0.162224
    13 -0.061540 -5.245835 72.927078 0.000000 0.000000 0.000000
    14 0.173204 -0.007248 3.644463 0.246573 0.000021 -0.122152
    15 0.000000 -0.005608 -1.146812 0.000036 -0.034903 -0.119454
    16 0.030770 -0.240000 8.906021 -0.004138 0.000000 0.000000
    17 -0.347644 -1.186680 -0.074619 0.142325 -0.129764 0.289085
    18 0.030770 -0.276858 8.905140 0.056125 0.004134 -0.000049
    19 0.404997 -0.811649 -0.044146 0.358989 0.112794 0.052599
    20 5.669724 4.435303 14.302868 4.528137 -1.540996 -0.736570
    21 -1.044571 -2.839317 19.743267 -0.381110 -0.807958 0.174152
    22 2.655533 -1.533369 24.792658 -0.530788 0.027361 0.553022
    23 1.120163 -0.154394 9.796035 -0.002366 0.000278 -0.020695
    24 2.240311 -0.308786 19.592051 0.072465 0.006741 -0.049870
    25 0.683151 2.877354 14.167051 -0.168314 -0.189156 1.389746
    26 0.144936 -0.145374 7.579252 -1.138466 -0.219959 0.121618
    27 0.091660 -0.906685 4.702850 -0.964407 -0.146637 0.077552
    28 0.506271 8.500866 13.617253 -0.198340 0.123530 1.276104
    29 -0.384987 -0.460049 7.003448 -0.883432 -0.412081 0.234719
    30 0.561516 -0.596954 5.061852 -0.844258 -0.305975 0.153753
    31 -2.452171 -8.899406 11.597897 -0.519087 -0.538554 1.305444
    32 0.680496 -0.903999 6.074253 -1.013951 0.113583 0.013502
    33 0.245514 -0.661150 3.388004 -0.865456 0.111926 -0.049375
    34 -0.717484 -3.784271 13.043911 -0.399716 -0.301109 1.456531
    35 1.099216 -1.407745 8.017889 -1.168591 0.014956 -0.000046
    36 0.068439 -0.807653 3.686054 -0.850581 0.013833 0.001939
    37 -4.004929 6.172707 4.754754 0.009397 1.111060 2.645667
    38 0.158352 -1.149811 5.804394 -0.341511 -0.212149 0.213570
    39 -1.083523 -1.463142 5.544399 -1.251539 -0.225073 -0.049693
    40 -6.289886 0.932434 13.569063 -0.126803 0.612110 2.869610
    41 1.327774 -0.766687 12.396328 0.024447 -0.018489 0.248254
    42 -0.096140 1.828087 23.185329 0.004138 0.081544 -1.570175
    43 2.325478 -0.000003 6.169296 -0.533804 -0.095516 1.340073
    44 0.000000 -3.152912 0.122169 1.961017 0.000000 0.000000
    45 1.068383 -10.478592 7.066338 0.292219 -1.282324 -3.141588
    46 0.000000 0.000000 2.279457 0.547137 -0.343566 0.107833
    47 2.479414 -8.323895 6.074242 -0.010051 0.061627 1.531409
    48 0.000003 -5.075260 5.105362 0.000000 0.000000 0.000000
    49 -1.068383 -10.478611 7.065971 0.292219 1.282324 3.141588
    50 -0.000488 0.000015 2.279600 0.547136 0.343566 0.107835
    51 -2.479401 -8.323895 6.074234 0.007127 0.061692 1.537082
    52 -5.790000 4.432083 14.255558 -0.125417 1.392515 -2.989917
    53 1.044540 -2.839314 19.743252 -0.511869 1.232141 -0.357122
    54 -2.655510 -1.533379 24.792648 -1.484428 -0.159979 0.481551
    55 -1.120216 -0.154385 9.795983 -0.000425 -0.000066 0.003664
    56 -2.240372 -0.308788 19.592047 -0.152815 0.005054 -0.010293
    57 -0.683205 2.877342 14.167089 -0.307703 0.098819 -1.379504
    58 -0.144958 -0.145317 7.579308 -0.904288 0.229583 -0.028435
    59 -0.038551 -0.936644 4.697678 -0.433376 0.082810 -0.010924
    60 -0.506317 8.500896 13.617329 -0.144672 -0.284002 -1.238792
    61 0.385056 -0.460075 7.003435 -0.751952 0.460346 -0.057477
    62 -0.456360 -0.710276 5.057732 -0.324447 0.189855 -0.015745
    63 2.452194 -8.899408 11.597939 -0.585489 0.225409 -1.500852
    64 -0.680515 -0.903999 6.074242 -0.911320 -0.112355 -0.027213
    65 -0.248295 -0.666843 3.386627 -0.631954 -0.113548 0.032216
    66 0.717491 -3.784309 13.044010 -0.575794 0.186025 -1.453549
    67 -1.099228 -1.407673 8.017876 -0.987831 -0.004354 0.002463
    68 -0.064053 -0.807640 3.686100 -0.515716 -0.000806 -0.007141
    69 4.004906 6.172710 4.754800 -0.004746 -1.074234 -2.731660
    70 -0.158381 -1.149773 5.804405 -0.177093 0.103148 0.161381
    71 1.078559 -2.386406 5.215008 -0.852229 0.507308 0.170742
    72 6.289963 0.932404 13.569109 -0.126801 -0.612098 -2.869612
    73 -1.327759 -0.766682 12.396324 -0.026699 -0.011496 0.235678
    74 0.000017 -54.999996 0.000000 0.000000 0.000000 -1.570796
  time 11
    0 -11.320263 -222.894739 -1.500000 0.000000 0.000000 0.000000
    1 -10.521344 -5.760963 66.994621 3.097005 -0.050653 -3.139334
    2 -0.913719 3.448311 2.662764 -0.221390 0.028210 0.183637
    3 -0.000034 0.000012 24.761454 -1.590825 -0.184348 -0.008178
    4 0.000017 0.000000 24.344809 1.041968 0.169089 0.292411
    5 0.002333 -1.019846 24.031336 0.389436 -0.042710 0.017201
    6 0.000034 0.000008 13.404741 -0.000001 -0.000009 -0.016139
    7 10.398263 -5.760962 66.994675 3.097005 0.050653 3.139334
    8 -0.207204 -0.813117 2.304663 0.234637 0.043572 0.222356
    9 -0.000004 -0.000006 24.761459 -0.146883 0.017182 -0.219890
    10 -0.000007 0.000004 24.344891 1.073834 -0.059613 -0.006423
    11 -0.002360 -1.019903 24.031330 0.764714 -0.033491 -0.031385
    12 0.000000 -0.000002 13.404737 0.000001 0.000005 -0.133369
    13 -0.061540 -5.245835 72.927078 0.000000 0.000000 0.000000
    14 0.337272 -0.007248 -2.461465 0.246573 0.000021 -0.115245
    15 0.000000 -0.005608 -1.146812 0.000036 -0.032927 -0.085675
    16 0.030770 -0.240000 8.906021 -0.004138 0.000000 0.000000
    17 -0.316393 -1.217931 -0.094151 0.154067 -0.123041 0.274789
    18 0.030770 -0.276858 8.905140 0.056125 0.004134 -0.000049
    19 0.381559 -0.686645 -0.024614 0.310411 0.107178 0.046128
    20 5.669724 4.435303 14.302868 3.811684 -1.514359 -0.099947
    21 -1.044571 -2.839317 19.743267 -0.541618 -0.778057 0.222178
    22 2.655533 -1.533369 24.792658 -0.525320 0.041579 0.411172
    23 1.120163 -0.154394 9.796035 -0.004919 0.000566 -0.042874
    24 2.240311 -0.308786 19.592051 0.107019 0.015812 -0.098136
    25 0.683151 2.877354 14.167051 -0.168314 -0.189156 1.389746
    26 0.144936 -0.145374 7.579252 -1.138466 -0.219959 0.121618
    27 0.091660 -0.906685 4.702850 -0.964407 -0.146637 0.077552
    28 0.506271 8.500866 13.617253 -0.198340 0.123530 1.276104
    29 -0.384987 -0.460049 7.003448 -0.883432 -0.412081 0.234719
    30 0.561516 -0.596954 5.061852 -0.844258 -0.305975 0.153753
    31 -2.452171 -8.899406 11.597897 -0.519087 -0.538554 1.305444
    32 0.680496 -0.903999 6.074253 -1.013951 0.113583 0.013502
    33 0.245514 -0.661150 3.388004 -0.865456 0.111926 -0.049375
    34 -0.717484 -3.784271 13.043911 -0.399716 -0.301109 1.456531
    35 1.099216 -1.407745 8.017889 -1.168591 0.014968 -0.000046
    36 0.068439 -0.807653 3.686054 -0.850581 0.013833 0.001939
    37 -4.004929 6.172707 4.754754 0.009397 1.111060 2.645667
    38 0.158352 -1.149811 5.804394 -0.341469 -0.212149 0.213570
    39 -1.083523 -1.463142 5.544399 -1.251539 -0.225073 -0.049693
    40 -6.289886 0.932434 13.569063 -0.126803 0.612110 2.869610
    41 1.327774 -0.766687 12.396328 0.017100 -0.011910 0.168662
    42 -0.096140 1.828087 23.185329 0.004138 0.081544 -1.570175
    43 2.325478 -0.000003 6.169296 -0.520195 -0.082335 1.350170
    44 0.000000 -3.152912 0.122169 1.961017 0.000000 0.000000
    45 1.068383 -10.478592 7.066338 0.292219 -1.282324 -3.141588
    46 0.000000 0.000000 2.279457 0.547137 -0.343566 0.107833
    47 2.479414 -8.323895 6.074242 -0.010024 0.093983 1.532364
    48 0.000003 -5.075260 5.105362 0.000000 0.000000 0.000000
    49 -1.068383 -10.478611 7.065971 0.292219 1.282324 3.141588
    50 -0.000488 0.000015 2.279600 0.547136 0.343566 0.107835
    51 -2.479401 -8.323895 6.074234 0.007187 0.093918 1.538136
    52 -5.790000 4.432083 14.255558 0.037062 1.424914 -2.907611
    53 1.044540 -2.839314 19.743252 0.157788 1.364929 0.149354
    54 -2.655510 -1.533379 24.792648 -1.485837 -0.158310 0.223690
    55 -1.120216 -0.154385 9.795983 0.002859 0.000413 -0.025226
    56 -2.240372 -0.308788 19.592047 -0.190693 -0.004203 -0.072499
    57 -0.683205 2.877342 14.167089 -0.307703 0.098819 -1.379504
    58 -0.144958 -0.145317 7.579308 -0.904288 0.229583 -0.028435
    59 -0.038551 -0.936644 4.697678 -0.433425 0.082810 -0.010924
    60 -0.506317 8.500896 13.617329 -0.144672 -0.284002 -1.238792
    61 0.385056 -0.460075 7.003435 -0.751952 0.460346 -0.057477
    62 -0.456360 -0.710276 5.057732 -0.324447 0.189855 -0.015745
    63 2.452194 -8.899408 11.597939 -0.585489 0.225409 -1.500852
    64 -0.680515 -0.903999 6.074242 -0.911320 -0.112355 -0.027213
    65 -0.248295 -0.666843 3.386627 -0.631954 -0.113548 0.032216
    66 0.717491 -3.784309 13.044010 -0.575794 0.186025 -1.453549
    67 -1.099228 -1.407673 8.017876 -0.987831 -0.004354 0.002463
    68 -0.064053 -0.807640 3.686100 -0.515716 -0.000806 -0.007141
    69 4.004906 6.172710 4.754800 -0.004746 -1.074234 -2.731660
    70 -0.158381 -1.149773 5.804405 -0.177093 0.103148 0.161381
    71 1.078559 -2.386406 5.215008 -0.852229 0.507308 0.170742
    72 6.289963 0.932404 13.569109 -0.126801 -0.612098 -2.869612
    73 -1.327759 -0.766682 12.396324 -0.004803 -0.002639 0.044327
    74 0.000017 -54.999996 0.000000 0.000000 0.000000 -1.570796
  time 12
    0 -11.320258 -243.157897 -1.500000 0.000000 0.000000 0.000000
    1 -10.521344 -5.760963 66.994621 3.097005 -0.050653 -3.139334
    2 -1.163727 2.638030 7.461615 -0.245848 0.052037 0.117840
    3 -0.000034 0.000012 24.761454 -1.816764 -0.210463 0.114261
    4 0.000017 0.000000 24.344809 1.136473 0.145594 0.363322
    5 0.002333 -1.019846 24.031336 0.389436 -0.042710 0.017189
    6 0.000034 0.000008 13.404741 -0.000001 -0.000009 0.042458
    7 10.398263 -5.760962 66.994675 3.097005 0.050653 3.139334
    8 -0.195485 -0.400968 7.047979 0.415835 0.021770 0.165337
    9 -0.000004 -0.000006 24.761459 -0.742120 0.086190 -0.195522
    10 -0.000007 0.000004 24.344891 1.312114 -0.114497 -0.060483
    11 -0.002360 -1.019903 24.031330 0.627529 -0.037482 -0.026603
    12 0.000000 -0.000002 13.404737 0.000001 0.000005 -0.122570
    13 -0.061540 -5.245835 72.927078 0.000000 0.000000 0.000000
    14 0.473995 -0.007248 -7.260589 0.246573 0.000021 -0.096749
    15 0.000000 -0.005608 -1.146812 0.000036 -0.027641 -0.044668
    16 0.030770 -0.240000 8.906021 -0.004138 0.000000 0.000000
    17 -0.261703 -1.225744 -0.101964 0.164610 -0.103873 0.230503
    18 0.030770 -0.276858 8.905140 0.056125 0.004134 -0.000049
    19 0.315150 -0.624143 -0.012895 0.282816 0.090803 0.037091
    20 5.669724 4.435303 14.302868 3.456425 -1.443713 0.158803
    21 -1.044571 -2.839317 19.743267 -0.655749 -0.670349 0.211687
    22 2.655533 -1.533369 24.792658 -0.538252 0.056604 0.249509
    23 1.120163 -0.154394 9.796035 -0.007076 0.000746 -0.061604
    24 2.240311 -0.308786 19.592051 0.131258 0.025343 -0.138055
    25 0.683151 2.877354 14.167051 -0.168314 -0.189156 1.389746
    26 0.144936 -0.145374 7.579252 -1.138466 -0.219959 0.121618
    27 0.091660 -0.906685 4.702850 -0.964407 -0.146637 0.077552
    28 0.506271 8.500866 13.617253 -0.198340 0.123530 1.276104
    29 -0.384987 -0.460049 7.003448 -0.883432 -0.412081 0.234719
    30 0.561516 -0.596954 5.061852 -0.844258 -0.305975 0.153753
    31 -2.452171 -8.899406 11.597897 -0.519087 -0.538554 1.305444
    32 0.680496 -0.903999 6.074253 -1.013951 0.113583 0.013502
    33 0.245514 -0.661150 3.388004 -0.865456 0.111926 -0.049375
    34 -0.717484 -3.784271 13.043911 -0.399716 -0.301109 1.456531
    35 1.099216 -1.407745 8.017889 -1.168629 0.014968 -0.000058
    36 0.068439 -0.807653 3.686054 -0.850581 0.013833 0.001939
    37 -4.004929 6.172707 4.754754 0.009397 1.111060 2.645667
    38 0.158352 -1.149811 5.804394 -0.341469 -0.212149 0.213570
    39 -1.083523 -1.463142 5.544399 -1.251539 -0.225073 -0.049693
    40 -6.289886 0.932434 13.569063 -0.126803 0.612110 2.869610
    41 1.327774 -0.766687 12.396328 0.008843 -0.005618 0.084751
    42 -0.096140 1.828087 23.185329 0.004138 0.081544 -1.570175
    43 2.325478 -0.000003 6.169296 -0.525304 -0.066072 1.385214
    44 0.000000 -3.152912 0.122169 1.961017 0.000000 0.000000
    45 1.068383 -10.478592 7.066338 0.292219 -1.282324 -3.141588
    46 0.000000 0.000000 2.279457 0.547137 -0.343566 0.107833
    47 2.479414 -8.323895 6.074242 -0.010024 0.120985 1.532937
    48 0.000003 -5.075260 5.105362 0.000000 0.000000 0.000000
    49 -1.068383 -10.478611 7.065971 0.292219 1.282324 3.141588
    50 -0.000488 0.000015 2.279600 0.547136 0.343566 0.107835
    51 -2.479401 -8.323895 6.074234 0.007207 0.121040 1.538710
    52 -5.790000 4.432083 14.255558 -5.774693 1.482692 -2.533357
    53 1.044540 -2.839314 19.743252 0.850432 1.244097 0.654360
    54 -2.655510 -1.533379 24.792648 -1.423081 -0.138727 -0.083926
    55 -1.120216 -0.154385 9.795983 0.005256 0.000845 -0.046282
    56 -2.240372 -0.308788 19.592047 -0.215665 -0.013906 -0.117092
    57 -0.683205 2.877342 14.167089 -0.307703 0.098819 -1.379504
    58 -0.144958 -0.145317 7.579308 -0.904288 0.229583 -0.028435
    59 -0.038551 -0.936644 4.697678 -0.433376 0.082810 -0.010924
    60 -0.506317 8.500896 13.617329 -0.144672 -0.284002 -1.238792
    61 0.385056 -0.460075 7.003435 -0.751952 0.460346 -0.057477
    62 -0.456360 -0.710276 5.057732 -0.324447 0.189855 -0.015745
    63 2.452194 -8.899408 11.597939 -0.585489 0.225409 -1.500852
    64 -0.680515 -0.903999 6.074242 -0.911320 -0.112355 -0.027213
    65 -0.248295 -0.666843 3.386627 -0.631954 -0.113548 0.032216
    66 0.717491 -3.784309 13.044010 -0.575794 0.186025 -1.453549
    67 -1.099228 -1.407673 8.017876 -0.987831 -0.004354 0.002463
    68 -0.064053 -0.807640 3.686100 -0.515716 -0.000806 -0.007141
    69 4.004906 6.172710 4.754800 -0.004746 -1.074234 -2.731660
    70 -0.158381 -1.149773 5.804405 -0.177093 0.103148 0.161381
    71 1.078559 -2.386406 5.215008 -0.852229 0.507308 0.170742
    72 6.289963 0.932404 13.569109 -0.126801 -0.612098 -2.869612
    73 -1.327759 -0.766682 12.396324 0.016697 0.011562 -0.164466
    74 0.000017 -54.999996 0.000000 0.000000 0.000000 -1.570796
  time 13
    0 -11.320254 -263.421055 -1.500000 0.000000 0.000000 0.000000
    1 -10.521344 -5.760963 66.994621 3.097005 -0.050653 -3.139334
    2 -1.304356 1.754086 10.735598 -0.178827 0.061974 0.045882
    3 -0.000034 0.000012 24.761454 -1.945587 -0.225324 0.226684
    4 0.000017 0.000000 24.344809 1.106759 0.136540 0.420752
    5 0.002333 -1.019846 24.031336 0.389436 -0.042710 0.017201
    6 0.000034 0.000008 13.404741 -0.000001 -0.000009 0.096162
    7 10.398263 -5.760962 66.994675 3.097005 0.050653 3.139334
    8 -0.164234 0.198522 10.330084 0.335473 0.085383 0.100809
    9 -0.000004 -0.000006 24.761459 -0.963264 0.111801 -0.145351
    10 -0.000007 0.000004 24.344891 1.618807 -0.151427 -0.110360
    11 -0.002360 -1.019903 24.031330 0.571923 -0.038896 -0.024530
    12 0.000000 -0.000002 13.404737 0.000001 0.000005 -0.098438
    13 -0.061540 -5.245835 72.927078 0.000000 0.000000 0.000000
    14 0.563841 -0.007248 -10.550130 0.246573 0.000021 -0.069365
    15 0.000000 -0.005608 -1.146812 0.000036 -0.019814 -0.000046
    16 0.030770 -0.240000 8.906021 -0.004138 0.000000 0.000000
    17 -0.195295 -1.202306 -0.090245 0.166630 -0.074779 0.163654
    18 0.030770 -0.276858 8.905140 0.056125 0.004134 -0.000049
    19 0.225304 -0.663207 -0.012895 0.300081 0.065644 0.027456
    20 5.669724 4.435303 14.302868 3.282240 -1.390756 0.228091
    21 -1.044571 -2.839317 19.743267 -0.739012 -0.556432 0.173108
    22 2.655533 -1.533369 24.792658 -0.565896 0.069208 0.095691
    23 1.120163 -0.154394 9.796035 -0.008802 0.000865 -0.076574
    24 2.240311 -0.308786 19.592051 0.138308 0.032020 -0.168637
    25 0.683151 2.877354 14.167051 -0.168314 -0.189156 1.389746
    26 0.144936 -0.145374 7.579252 -1.138466 -0.219959 0.121618
    27 0.091660 -0.906685 4.702850 -0.964407 -0.146625 0.077552
    28 0.506271 8.500866 13.617253 -0.198340 0.123530 1.276104
    29 -0.384987 -0.460049 7.003448 -0.883432 -0.412081 0.234719
    30 0.561516 -0.596954 5.061852 -0.844258 -0.305975 0.153753
    31 -2.452171 -8.899406 11.597897 -0.519087 -0.538554 1.305444
    32 0.680496 -0.903999 6.074253 -1.013951 0.113583 0.013502
    33 0.245514 -0.661150 3.388004 -0.865456 0.111926 -0.049375
    34 -0.717484 -3.784271 13.043911 -0.399716 -0.301109 1.456531
    35 1.099216 -1.407745 8.017889 -1.168629 0.014968 -0.000058
    36 0.068439 -0.807653 3.686054 -0.850581 0.013833 0.001939
    37 -4.004929 6.172707 4.754754 0.009397 1.111060 2.645667
    38 0.158352 -1.149811 5.804394 -0.341469 -0.212149 0.213570
    39 -1.083523 -1.463142 5.544399 -1.251539 -0.225073 -0.049693
    40 -6.289886 0.932434 13.569063 -0.126803 0.612110 2.869610
    41 1.327774 -0.766687 12.396328 0.001101 -0.000632 0.010331
    42 -0.096140 1.828087 23.185329 0.004138 0.081544 -1.570175
    43 2.325478 -0.000003 6.169296 -0.558538 -0.049809 1.439655
    44 0.000000 -3.152912 0.122169 1.961017 0.000000 0.000000
    45 1.068383 -10.478592 7.066338 0.292219 -1.282324 -3.141588
    46 0.000000 0.000000 2.279457 0.547137 -0.343566 0.107833
    47 2.479414 -8.323895 6.074242 -0.010051 0.149114 1.532555
    48 0.000003 -5.075260 5.105362 0.000000 0.000000 0.000000
    49 -1.068383 -10.478611 7.065971 0.292219 1.282324 3.141588
    50 -0.000488 0.000015 2.279600 0.547136 0.343566 0.107835
    51 -2.479401 -8.323895 6.074234 0.007207 0.149107 1.538231
    52 -5.790000 4.432083 14.255558 -5.061512 1.506617 -1.925504
    53 1.044540 -2.839314 19.743252 0.947107 1.074000 0.605781
    54 -2.655510 -1.533379 24.792648 -1.327261 -0.109878 -0.339440
    55 -1.120216 -0.154385 9.795983 0.006826 0.001132 -0.059912
    56 -2.240372 -0.308788 19.592047 -0.223149 -0.020490 -0.144844
    57 -0.683205 2.877342 14.167089 -0.307703 0.098819 -1.379504
    58 -0.144958 -0.145317 7.579308 -0.904288 0.229583 -0.028435
    59 -0.038551 -0.936644 4.697678 -0.433376 0.082810 -0.010936
    60 -0.506317 8.500896 13.617329 -0.144672 -0.284002 -1.238792
    61 0.385056 -0.460075 7.003435 -0.751952 0.460346 -0.057477
    62 -0.456360 -0.710276 5.057732 -0.324447 0.189855 -0.015728
    63 2.452194 -8.899408 11.597939 -0.585489 0.225409 -1.500852
    64 -0.680515 -0.903999 6.074242 -0.911320 -0.112355 -0.027213
    65 -0.248295 -0.666843 3.386627 -0.631954 -0.113548 0.032216
    66 0.717491 -3.784309 13.044010 -0.575794 0.186025 -1.453549
    67 -1.099228 -1.407673 8.017876 -0.987831 -0.004354 0.002463
    68 -0.064053 -0.807640 3.686100 -0.515716 -0.000806 -0.007141
    69 4.004906 6.172710 4.754800 -0.004746 -1.074234 -2.731660
    70 -0.158381 -1.149773 5.804405 -0.177093 0.103148 0.161381
    71 1.078559 -2.386406 5.215008 -0.852229 0.507308 0.170742
    72 6.289963 0.932404 13.569109 -0.126801 -0.612098 -2.869612
    73 -1.327759 -0.766682 12.396324 0.030599 0.024925 -0.320147
    74 0.000017 -54.999996 0.000000 0.000000 0.000000 -1.570796
  time 14
    0 -11.320249 -283.684213 -1.500000 0.000000 0.000000 0.000000
    1 -10.521344 -5.760963 66.994621 3.097005 -0.050653 -3.139334
    2 -1.319981 0.882420 11.991372 0.039999 0.104144 -0.026949
    3 -0.000034 0.000012 24.761454 -2.047784 -0.237116 0.363049
    4 0.000017 0.000000 24.344809 1.062743 0.192516 0.480731
    5 0.002333 -1.019846 24.031336 0.389473 -0.042710 0.017201
    6 0.000034 0.000008 13.404741 -0.000001 -0.000009 0.162690
    7 10.398263 -5.760962 66.994675 3.097005 0.050653 3.139334
    8 -0.113451 0.972863 11.633934 0.091060 0.117903 0.007153
    9 -0.000004 -0.000006 24.761459 -0.864709 0.100367 -0.054663
    10 -0.000007 0.000004 24.344891 1.754791 -0.149738 -0.092830
    11 -0.002360 -1.019903 24.031330 0.561299 -0.039160 -0.024110
    12 0.000000 -0.000002 13.404737 0.000001 0.000005 -0.041523
    13 -0.061540 -5.245835 72.927078 0.000000 0.000000 0.000000
    14 0.602905 -0.007248 -11.811871 0.246573 0.000021 -0.036155
    15 0.000000 -0.005608 -1.146812 0.000036 -0.010309 0.044630
    16 0.030770 -0.240000 8.906021 -0.004138 0.000000 0.000000
    17 -0.109355 -1.147617 -0.055087 0.157602 -0.038772 0.083227
    18 0.030770 -0.276858 8.905140 0.056125 0.004134 -0.000049
    19 0.127645 -0.827275 -0.032426 0.363922 0.034149 0.015807
    20 5.669724 4.435303 14.302868 3.143180 -1.373103 0.262399
    21 -1.044571 -2.839317 19.743267 -0.811267 -0.477895 0.140141
    22 2.655533 -1.533369 24.792658 -0.624568 0.080467 -0.052709
    23 1.120163 -0.154394 9.796035 -0.010072 0.000925 -0.087577
    24 2.240311 -0.308786 19.592051 0.124209 0.032894 -0.189605
    25 0.683151 2.877354 14.167051 -0.168314 -0.189156 1.389746
    26 0.144936 -0.145374 7.579252 -1.138466 -0.219959 0.121618
    27 0.091660 -0.906685 4.702850 -0.964407 -0.146637 0.077552
    28 0.506271 8.500866 13.617253 -0.198340 0.123530 1.276104
    29 -0.384987 -0.460049 7.003448 -0.883432 -0.412081 0.234719
    30 0.561516 -0.596954 5.061852 -0.844258 -0.305975 0.153753
    31 -2.452171 -8.899406 11.597897 -0.519087 -0.538554 1.305444
    32 0.680496 -0.903999 6.074253 -1.013951 0.113583 0.013502
    33 0.245514 -0.661150 3.388004 -0.865456 0.111926 -0.049375
    34 -0.717484 -3.784271 13.043911 -0.399716 -0.301109 1.456531
    35 1.099216 -1.407745 8.017889 -1.168629 0.014968 -0.000046
    36 0.068439 -0.807653 3.686054 -0.850581 0.013833 0.001939
    37 -4.004929 6.172707 4.754754 0.009397 1.111060 2.645667
    38 0.158352 -1.149811 5.804394 -0.341469 -0.212149 0.213570
    39 -1.083523 -1.463142 5.544399 -1.251539 -0.225073 -0.049693
    40 -6.289886 0.932434 13.569063 -0.126803 0.612110 2.869610
    41 1.327774 -0.766687 12.396328 -0.007121 0.003802 -0.065143
    42 -0.096140 1.828087 23.185329 0.004138 0.081544 -1.570175
    43 2.325478 -0.000003 6.169296 -0.614406 -0.029046 1.505470
    44 0.000000 -3.152912 0.122169 1.961017 0.000000 0.000000
    45 1.068383 -10.478592 7.066338 0.292219 -1.282324 -3.141588
    46 0.000000 0.000000 2.279457 0.547137 -0.343566 0.107833
    47 2.479414 -8.323895 6.074242 -0.010106 0.177524 1.532937
    48 0.000003 -5.075260 5.105362 0.000000 0.000000 0.000000
    49 -1.068383 -10.478611 7.065971 0.292219 1.282324 3.141588
    50 -0.000488 0.000015 2.279600 0.547136 0.343566 0.107835
    51 -2.479401 -8.323895 6.074234 0.007267 0.177552 1.538806
    52 -5.790000 4.432083 14.255558 -4.708181 1.511103 -1.677630
    53 1.044540 -2.839314 19.743252 0.886664 0.942823 0.471583
    54 -2.655510 -1.533379 24.792648 -1.212217 -0.080950 -0.521344
    55 -1.120216 -0.154385 9.795983 0.007677 0.001312 -0.067692
    56 -2.240372 -0.308788 19.592047 -0.209021 -0.022173 -0.159021
    57 -0.683205 2.877342 14.167089 -0.307703 0.098819 -1.379504
    58 -0.144958 -0.145317 7.579308 -0.904288 0.229583 -0.028435
    59 -0.038551 -0.936644 4.697678 -0.433425 0.082810 -0.010924
    60 -0.506317 8.500896 13.617329 -0.144672 -0.284002 -1.238792
    61 0.385056 -0.460075 7.003435 -0.751952 0.460346 -0.057477
    62 -0.456360 -0.710276 5.057732 -0.324447 0.189855 -0.015745
    63 2.452194 -8.899408 11.597939 -0.585489 0.225409 -1.500852
    64 -0.680515 -0.903999 6.074242 -0.911320 -0.112355 -0.027213
    65 -0.248295 -0.666843 3.386627 -0.631954 -0.113548 0.032216
    66 0.717491 -3.784309 13.044010 -0.575794 0.186025 -1.453549
    67 -1.099228 -1.407673 8.017876 -0.987831 -0.004354 0.002463
    68 -0.064053 -0.807640 3.686100 -0.515716 -0.000806 -0.007141
    69 4.004906 6.172710 4.754800 -0.004746 -1.074234 -2.731660
    70 -0.158381 -1.149773 5.804405 -0.177093 0.103148 0.161381
    71 1.078559 -2.386406 5.215008 -0.852229 0.507308 0.170742
    72 6.289963 0.932404 13.569109 -0.126801 -0.612098 -2.869612
    73 -1.327759 -0.766682 12.396324 0.037790 0.033806 -0.412399
    74 0.000017 -54.999996 0.000000 0.000000 0.000000 -1.570796
  time 15
    0 -11.320245 -303.947371 -1.500000 0.000000 0.000000 0.000000
    1 -10.521344 -5.760963 66.994621 3.097005 -0.050653 -3.139334
    2 -1.183259 0.133523 10.601051 0.377768 0.197364 -0.078852
    3 -0.000034 0.000012 24.761454 -2.092866 -0.242342 0.516638
    4 0.000017 0.000000 24.344809 1.050660 0.252656 0.520724
    5 0.002333 -1.019846 24.031336 0.389548 -0.042698 0.017201
    6 0.000034 0.000008 13.404741 -0.000001 -0.000009 0.256387
    7 10.398263 -5.760962 66.994675 3.097005 0.050653 3.139334
    8 -0.039230 1.859608 10.307604 -0.247109 0.107990 -0.096983
    9 -0.000004 -0.000006 24.761459 -0.488417 0.056779 0.052821
    10 -0.000007 0.000004 24.344891 1.632747 -0.132584 -0.038855
    11 -0.002360 -1.019903 24.031330 0.617067 -0.037745 -0.026208
    12 0.000000 -0.000002 13.404737 0.000001 0.000005 0.023723
    13 -0.061540 -5.245835 72.927078 0.000000 0.000000 0.000000
    14 0.563841 -0.007248 -10.482536 0.246573 0.000021 -0.000063
    15 0.000000 -0.005608 -1.146812 0.000036 0.000028 0.085610
    16 0.030770 -0.240000 8.906021 -0.004138 0.000000 0.000000
    17 0.000023 -1.100740 -0.027743 0.146512 0.000476 -0.001591
    18 0.030770 -0.276858 8.905140 0.056125 0.004134 -0.000049
    19 0.002641 -0.987436 -0.059771 0.425403 -0.000452 -0.000145
    20 5.669724 4.435303 14.302868 3.020390 -1.366832 0.288562
    21 -1.044571 -2.839317 19.743267 -0.851822 -0.426285 0.115014
    22 2.655533 -1.533369 24.792658 -0.721082 0.090612 -0.183075
    23 1.120163 -0.154394 9.796035 -0.010851 0.000961 -0.094407
    24 2.240311 -0.308786 19.592051 0.092832 0.027737 -0.200564
    25 0.683151 2.877354 14.167051 -0.168314 -0.189168 1.389746
    26 0.144936 -0.145374 7.579252 -1.138466 -0.219959 0.121618
    27 0.091660 -0.906685 4.702850 -0.964452 -0.146637 0.077552
    28 0.506271 8.500866 13.617253 -0.198340 0.123530 1.276104
    29 -0.384987 -0.460049 7.003448 -0.883432 -0.412081 0.234719
    30 0.561516 -0.596954 5.061852 -0.844258 -0.305975 0.153753
    31 -2.452171 -8.899406 11.597897 -0.519087 -0.538554 1.305444
    32 0.680496 -0.903999 6.074253 -1.013951 0.113583 0.013502
    33 0.245514 -0.661150 3.388004 -0.865456 0.111926 -0.049375
    34 -0.717484 -3.784271 13.043911 -0.399716 -0.301109 1.456531
    35 1.099216 -1.407745 8.017889 -1.168629 0.014968 -0.000046
    36 0.068439 -0.807653 3.686054 -0.850581 0.013833 0.001939
    37 -4.004929 6.172707 4.754754 0.009397 1.111060 2.645667
    38 0.158352 -1.149811 5.804394 -0.341469 -0.212149 0.213570
    39 -1.083523 -1.463142 5.544399 -1.251539 -0.225073 -0.049693
    40 -6.289886 0.932434 13.569063 -0.126803 0.612110 2.869610
    41 1.327774 -0.766687 12.396328 -0.015438 0.007517 -0.139061
    42 -0.096140 1.828087 23.185329 0.004138 0.081544 -1.570175
    43 2.325478 -0.000003 6.169296 -0.651652 0.001715 1.573841
    44 0.000000 -3.152912 0.122169 1.961017 0.000000 0.000000
    45 1.068383 -10.478592 7.066338 0.292219 -1.282324 -3.141588
    46 0.000000 0.000000 2.279457 0.547137 -0.343566 0.107833
    47 2.479414 -8.323895 6.074242 -0.009915 0.190861 1.537235
    48 0.000003 -5.075260 5.105362 0.000000 0.000000 0.000000
    49 -1.068383 -10.478611 7.065971 0.292219 1.282324 3.141588
    50 -0.000488 0.000015 2.279600 0.547136 0.343566 0.107835
    51 -2.479401 -8.323895 6.074234 0.007448 0.190924 1.543213
    52 -5.790000 4.432083 14.255558 -4.526051 1.515215 -1.592450
    53 1.044540 -2.839314 19.743252 0.769897 0.824747 0.332921
    54 -2.655510 -1.533379 24.792648 -1.087963 -0.055492 -0.647889
    55 -1.120216 -0.154385 9.795983 0.008097 0.001408 -0.071229
    56 -2.240372 -0.308788 19.592047 -0.176107 -0.019401 -0.162887
    57 -0.683205 2.877342 14.167089 -0.307703 0.098819 -1.379504
    58 -0.144958 -0.145317 7.579308 -0.904288 0.229583 -0.028435
    59 -0.038551 -0.936644 4.697678 -0.433376 0.082810 -0.010924
    60 -0.506317 8.500896 13.617329 -0.144672 -0.284002 -1.238792
    61 0.385056 -0.460075 7.003435 -0.751952 0.460346 -0.057477
    62 -0.456360 -0.710276 5.057732 -0.324496 0.189855 -0.015745
    63 2.452194 -8.899408 11.597939 -0.585489 0.225409 -1.500852
    64 -0.680515 -0.903999 6.074242 -0.911320 -0.112355 -0.027213
    65 -0.248295 -0.666843 3.386627 -0.631954 -0.113548 0.032216
    66 0.717491 -3.784309 13.044010 -0.575794 0.186025 -1.453549
    67 -1.099228 -1.407673 8.017876 -0.987831 -0.004354 0.002463
    68 -0.064053 -0.807640 3.686100 -0.515716 -0.000806 -0.007141
    69 4.004906 6.172710 4.754800 -0.004746 -1.074234 -2.731660
    70 -0.158381 -1.149773 5.804405 -0.177093 0.103148 0.161381
    71 1.078559 -2.386406 5.215008 -0.852229 0.507308 0.170742
    72 6.289963 0.932404 13.569109 -0.126801 -0.612098 -2.869612
    73 -1.327759 -0.766682 12.396324 0.041062 0.038468 -0.458201
    74 0.000017 -54.999996 0.000000 0.000000 0.000000 -1.570796
  time 16
    0 -11.320240 -324.210529 -1.500000 0.000000 0.000000 0.000000
    1 -10.521344 -5.760963 66.994621 3.097005 -0.050653 -3.139334
    2 -0.827779 -0.357556 4.927642 0.685888 0.269957 -0.108256
    3 -0.000034 0.000012 24.761454 -1.898310 -0.219871 0.563626
    4 0.000017 0.000000 24.344809 1.246944 0.171239 0.456618
    5 0.002333 -1.019846 24.031336 0.389548 -0.042710 0.017201
    6 0.000034 0.000008 13.404741 -0.000001 -0.000009 0.316566
    7 10.398263 -5.760962 66.994675 3.097005 0.050653 3.139334
    8 -0.078294 2.858758 4.732521 -0.461066 0.070422 -0.169845
    9 -0.000004 -0.000006 24.761459 -0.145398 0.017027 0.138736
    10 -0.000007 0.000004 24.344891 1.160705 -0.108364 -0.009954
    11 -0.002360 -1.019903 24.031330 0.916393 -0.028361 -0.035951
    12 0.000000 -0.000002 13.404737 0.000001 0.000005 0.070762
    13 -0.061540 -5.245835 72.927078 0.000000 0.000000 0.000000
    14 0.473995 -0.007248 -4.827230 0.246573 0.000021 0.036089
    15 0.000000 -0.005608 -1.146812 0.000036 0.010348 0.119389
    16 0.030770 -0.240000 8.906021 -0.004138 0.000000 0.000000
    17 0.113308 -1.085115 -0.012117 0.138368 0.039534 -0.084933
    18 0.030770 -0.276858 8.905140 0.056125 0.004134 -0.000049
    19 -0.126269 -1.069469 -0.083209 0.457538 -0.034724 -0.018326
    20 5.669724 4.435303 14.302868 2.917698 -1.384907 0.311370
    21 -1.044571 -2.839317 19.743267 -0.844435 -0.408125 0.106328
    22 2.655533 -1.533369 24.792658 -0.842766 0.100987 -0.300986
    23 1.120163 -0.154394 9.796035 -0.011127 0.000973 -0.096753
    24 2.240311 -0.308786 19.592051 0.049009 0.017746 -0.201078
    25 0.683151 2.877354 14.167051 -0.168314 -0.189156 1.389746
    26 0.144936 -0.145374 7.579252 -1.138466 -0.219959 0.121618
    27 0.091660 -0.906685 4.702850 -0.964407 -0.146637 0.077552
    28 0.506271 8.500866 13.617253 -0.198340 0.123530 1.276104
    29 -0.384987 -0.460049 7.003448 -0.883432 -0.412081 0.234719
    30 0.561516 -0.596954 5.061852 -0.844258 -0.305975 0.153753
    31 -2.452171 -8.899406 11.597897 -0.519087 -0.538554 1.305444
    32 0.680496 -0.903999 6.074253 -1.013951 0.113583 0.013502
    33 0.245514 -0.661150 3.388004 -0.865456 0.111926 -0.049375
    34 -0.717484 -3.784271 13.043911 -0.399716 -0.301109 1.456531
    35 1.099216 -1.407745 8.017889 -1.168591 0.014956 -0.000046
    36 0.068439 -0.807653 3.686054 -0.850581 0.013833 0.001939
    37 -4.004929 6.172707 4.754754 0.009397 1.111060 2.645667
    38 0.158352 -1.149811 5.804394 -0.341511 -0.212149 0.213570
    39 -1.083523 -1.463142 5.544399 -1.251539 -0.225073 -0.049693
    40 -6.289886 0.932434 13.569063 -0.126803 0.612110 2.869610
    41 1.327774 -0.766687 12.396328 -0.023971 0.010621 -0.212577
    42 -0.096140 1.828087 23.185329 0.004138 0.081544 -1.570175
    43 2.325478 -0.000003 6.169296 -0.628015 0.037323 1.639776
    44 0.000000 -3.152912 0.122169 1.961017 0.000000 0.000000
    45 1.068383 -10.478592 7.066338 0.292219 -1.282324 -3.141588
    46 0.000000 0.000000 2.279457 0.547137 -0.343566 0.107833
    47 2.479414 -8.323895 6.074242 -0.009671 0.186822 1.544207
    48 0.000003 -5.075260 5.105362 0.000000 0.000000 0.000000
    49 -1.068383 -10.478611 7.065971 0.292219 1.282324 3.141588
    50 -0.000488 0.000015 2.279600 0.547136 0.343566 0.107835
    51 -2.479401 -8.323895 6.074234 0.007729 0.186813 1.550207
    52 -5.790000 4.432083 14.255558 -4.828099 1.521238 -1.974754
    53 1.044540 -2.839314 19.743252 0.645171 0.737790 0.227516
    54 -2.655510 -1.533379 24.792648 -0.966276 -0.035249 -0.731344
    55 -1.120216 -0.154385 9.795983 0.008168 0.001420 -0.072045
    56 -2.240372 -0.308788 19.592047 -0.129218 -0.013708 -0.159880
    57 -0.683205 2.877342 14.167089 -0.307703 0.098819 -1.379504
    58 -0.144958 -0.145317 7.579308 -0.904288 0.229583 -0.028435
    59 -0.038551 -0.936644 4.697678 -0.433376 0.082810 -0.010924
    60 -0.506317 8.500896 13.617329 -0.144672 -0.284002 -1.238792
    61 0.385056 -0.460075 7.003435 -0.751952 0.460346 -0.057477
    62 -0.456360 -0.710276 5.057732 -0.324496 0.189855 -0.015745
    63 2.452194 -8.899408 11.597939 -0.585489 0.225409 -1.500852
    64 -0.680515 -0.903999 6.074242 -0.911320 -0.112355 -0.027213
    65 -0.248295 -0.666843 3.386627 -0.631954 -0.113548 0.032216
    66 0.717491 -3.784309 13.044010 -0.575794 0.186025 -1.453549
    67 -1.099228 -1.407673 8.017876 -0.987831 -0.004354 0.002463
    68 -0.064053 -0.807640 3.686100 -0.515716 -0.000806 -0.007141
    69 4.004906 6.172710 4.754800 -0.004746 -1.074234 -2.731660
    70 -0.158381 -1.149773 5.804405 -0.177093 0.103148 0.161381
    71 1.078559 -2.386406 5.215008 -0.852229 0.507308 0.170742
    72 6.289963 0.932404 13.569109 -0.126801 -0.612098 -2.869612
    73 -1.327759 -0.766682 12.396324 0.042212 0.040230 -0.475180
    74 0.000017 -54.999996 0.000000 0.000000 0.000000 -1.570796
  time 17
    0 -11.320236 -344.473687 -1.500000 0.000000 0.000000 0.000000
    1 -10.521344 -5.760963 66.994621 3.097005 -0.050653 -3.139334
    2 -0.487925 -0.738143 0.039092 0.895285 0.311265 -0.132198
    3 -0.000034 0.000012 24.761454 -1.569727 -0.181903 0.543715
    4 0.000017 0.000000 24.344809 1.284303 0.094824 0.348047
    5 0.002333 -1.019846 24.031336 0.389585 -0.042710 0.017201
    6 0.000034 0.000008 13.404741 -0.000001 -0.000009 0.332998
    7 10.398263 -5.760962 66.994675 3.097005 0.050653 3.139334
    8 -0.011886 3.658078 -0.055755 -0.518821 0.025354 -0.211268
    9 -0.000004 -0.000006 24.761459 -0.219535 0.025620 0.187435
    10 -0.000007 0.000004 24.344891 1.027301 -0.106164 -0.013716
    11 -0.002360 -1.019903 24.031330 0.660322 -0.036583 -0.027778
    12 0.000000 -0.000002 13.404737 0.000001 0.000005 0.096225
    13 -0.061540 -5.245835 72.927078 0.000000 0.000000 0.000000
    14 0.337272 -0.007248 -0.005575 0.246573 0.000021 0.069359
    15 0.000000 -0.005608 -1.146812 0.000036 0.019853 0.142298
    16 0.030770 -0.240000 8.906021 -0.004138 0.000000 0.000000
    17 0.214874 -1.089021 -0.008211 0.131508 0.074971 -0.161565
    18 0.030770 -0.276858 8.905140 0.056125 0.004134 -0.000049
    19 -0.239554 -1.100720 -0.091022 0.470692 -0.065581 -0.035523
    20 5.669724 4.435303 14.302868 2.834434 -1.430254 0.339833
    21 -1.044571 -2.839317 19.743267 -0.802070 -0.445645 0.124433
    22 2.655533 -1.533369 24.792658 -0.976384 0.111631 -0.408869
    23 1.120163 -0.154394 9.796035 -0.010072 0.000925 -0.088060
    24 2.240311 -0.308786 19.592051 -0.001429 0.004991 -0.178290
    25 0.683151 2.877354 14.167051 -0.168314 -0.189168 1.389746
    26 0.144936 -0.145374 7.579252 -1.138466 -0.219959 0.121618
    27 0.091660 -0.906685 4.702850 -0.964407 -0.146637 0.077552
    28 0.506271 8.500866 13.617253 -0.198340 0.123530 1.276104
    29 -0.384987 -0.460049 7.003448 -0.883432 -0.412081 0.234719
    30 0.561516 -0.596954 5.061852 -0.844258 -0.305975 0.153753
    31 -2.452171 -8.899406 11.597897 -0.519087 -0.538554 1.305444
    32 0.680496 -0.903999 6.074253 -1.013951 0.113583 0.013502
    33 0.245514 -0.661150 3.388004 -0.865456 0.111926 -0.049375
    34 -0.717484 -3.784271 13.043911 -0.399716 -0.301109 1.456531
    35 1.099216 -1.407745 8.017889 -1.168629 0.014968 -0.000046
    36 0.068439 -0.807653 3.686054 -0.850581 0.013833 0.001939
    37 -4.004929 6.172707 4.754754 0.009397 1.111060 2.645667
    38 0.158352 -1.149811 5.804394 -0.341469 -0.212149 0.213570
    39 -1.083523 -1.463142 5.544399 -1.251539 -0.225073 -0.049693
    40 -6.289886 0.932434 13.569063 -0.126803 0.612110 2.869610
    41 1.327774 -0.766687 12.396328 -0.032205 0.012958 -0.282327
    42 -0.096140 1.828087 23.185329 0.004138 0.081544 -1.570175
    43 2.325478 -0.000003 6.169296 -0.616364 0.070486 1.700124
    44 0.000000 -3.152912 0.122169 1.961017 0.000000 0.000000
    45 1.068383 -10.478592 7.066338 0.292219 -1.282324 -3.141588
    46 0.000000 0.000000 2.279457 0.547137 -0.343566 0.107833
    47 2.479414 -8.323895 6.074242 -0.009290 0.150663 1.551370
    48 0.000003 -5.075260 5.105362 0.000000 0.000000 0.000000
    49 -1.068383 -10.478611 7.065971 0.292219 1.282324 3.141588
    50 -0.000488 0.000015 2.279600 0.547136 0.343566 0.107835
    51 -2.479401 -8.323895 6.074234 0.007990 0.150666 1.557393
    52 -5.790000 4.432083 14.255558 -5.509838 1.500802 -2.711765
    53 1.044540 -2.839314 19.743252 0.517440 0.716507 0.162880
    54 -2.655510 -1.533379 24.792648 -0.860139 -0.021879 -0.773601
    55 -1.120216 -0.154385 9.795983 0.007042 0.001180 -0.062034
    56 -2.240372 -0.308788 19.592047 -0.075990 -0.005589 -0.134190
    57 -0.683205 2.877342 14.167089 -0.307703 0.098819 -1.379504
    58 -0.144958 -0.145317 7.579308 -0.904288 0.229583 -0.028435
    59 -0.038551 -0.936644 4.697678 -0.433376 0.082810 -0.010924
    60 -0.506317 8.500896 13.617329 -0.144672 -0.284002 -1.238792
    61 0.385056 -0.460075 7.003435 -0.751952 0.460346 -0.057477
    62 -0.456360 -0.710276 5.057732 -0.324447 0.189855 -0.015745
    63 2.452194 -8.899408 11.597939 -0.585489 0.225409 -1.500852
    64 -0.680515 -0.903999 6.074242 -0.911320 -0.112355 -0.027213
    65 -0.248295 -0.666843 3.386627 -0.631954 -0.113548 0.032216
    66 0.717491 -3.784309 13.044010 -0.575794 0.186025 -1.453549
    67 -1.099228 -1.407673 8.017876 -0.987831 -0.004354 0.002463
    68 -0.064053 -0.807640 3.686100 -0.515716 -0.000806 -0.007141
    69 4.004906 6.172710 4.754800 -0.004746 -1.074234 -2.731660
    70 -0.158381 -1.149773 5.804405 -0.177093 0.103148 0.161381
    71 1.078559 -2.386406 5.215008 -0.852229 0.507308 0.170742
    72 6.289963 0.932404 13.569109 -0.126801 -0.612098 -2.869612
    73 -1.327759 -0.766682 12.396324 0.041853 0.039654 -0.469767
    74 0.000017 -54.999996 0.000000 0.000000 0.000000 -1.570796
  time 18
    0 -11.320231 -364.736845 -1.500000 0.000000 0.000000 0.000000
    1 -10.521344 -5.760963 66.994621 3.097005 -0.050653 -3.139334
    2 -0.187134 -0.995960 -3.302164 0.834413 0.267090 -0.188034
    3 -0.000034 0.000012 24.761454 -1.119435 -0.129842 0.474209
    4 0.000017 0.000000 24.344809 1.255452 0.070899 0.176428
    5 0.002333 -1.019846 24.031336 0.389585 -0.042710 0.017201
    6 0.000034 0.000008 13.404741 -0.000001 -0.000009 0.286129
    7 10.398263 -5.760962 66.994675 3.097005 0.050653 3.139334
    8 0.140463 4.157653 -3.292900 -0.548253 -0.013567 -0.231650
    9 -0.000004 -0.000006 24.761459 -0.366928 0.042710 0.203800
    10 -0.000007 0.000004 24.344891 0.951209 -0.111897 -0.024142
    11 -0.002360 -1.019903 24.031330 0.392866 -0.042635 -0.017351
    12 0.000000 -0.000002 13.404737 0.000001 0.000005 0.104684
    13 -0.061540 -5.245835 72.927078 0.000000 0.000000 0.000000
    14 0.173204 -0.007248 3.283966 0.246573 0.000021 0.096683
    15 0.000000 -0.005608 -1.146812 0.000036 0.027665 0.150777
    16 0.030770 -0.240000 8.906021 -0.004138 0.000000 0.000000
    17 0.289095 -1.112459 -0.023836 0.128646 0.103774 -0.226458
    18 0.030770 -0.276858 8.905140 0.056125 0.004134 -0.000049
    19 -0.333307 -1.061657 -0.083209 0.456537 -0.090349 -0.048287
    20 5.669724 4.435303 14.302868 2.766674 -1.485184 0.386791
    21 -1.044571 -2.839317 19.743267 -0.739110 -0.557736 0.173757
    22 2.655533 -1.533369 24.792658 -1.104794 0.122122 -0.473729
    23 1.120163 -0.154394 9.796035 -0.007556 0.000782 -0.065950
    24 2.240311 -0.308786 19.592051 -0.054086 -0.005415 -0.127294
    25 0.683151 2.877354 14.167051 -0.168314 -0.189156 1.389746
    26 0.144936 -0.145374 7.579252 -1.138466 -0.219959 0.121618
    27 0.091660 -0.906685 4.702850 -0.964407 -0.146637 0.077552
    28 0.506271 8.500866 13.617253 -0.198340 0.123530 1.276104
    29 -0.384987 -0.460049 7.003448 -0.883432 -0.412081 0.234719
    30 0.561516 -0.596954 5.061852 -0.844258 -0.305975 0.153753
    31 -2.452171 -8.899406 11.597897 -0.519087 -0.538554 1.305444
    32 0.680496 -0.903999 6.074253 -1.013951 0.113583 0.013502
    33 0.245514 -0.661150 3.388004 -0.865456 0.111926 -0.049375
    34 -0.717484 -3.784271 13.043911 -0.399716 -0.301109 1.456531
    35 1.099216 -1.407745 8.017889 -1.168591 0.014968 -0.000046
    36 0.068439 -0.807653 3.686054 -0.850581 0.013833 0.001939
    37 -4.004929 6.172707 4.754754 0.009397 1.111060 2.645667
    38 0.158352 -1.149811 5.804394 -0.341511 -0.212149 0.213570
    39 -1.083523 -1.463142 5.544399 -1.251539 -0.225073 -0.049693
    40 -6.289886 0.932434 13.569063 -0.126803 0.612110 2.869610
    41 1.327774 -0.766687 12.396328 -0.037118 0.014073 -0.323052
    42 -0.096140 1.828087 23.185329 0.004138 0.081544 -1.570175
    43 2.325478 -0.000003 6.169296 -0.589433 0.094012 1.751851
    44 0.000000 -3.152912 0.122169 1.961017 0.000000 0.000000
    45 1.068383 -10.478592 7.066338 0.292219 -1.282324 -3.141588
    46 0.000000 0.000000 2.279457 0.547137 -0.343566 0.107833
    47 2.479414 -8.323895 6.074242 -0.009072 0.116336 1.556623
    48 0.000003 -5.075260 5.105362 0.000000 0.000000 0.000000
    49 -1.068383 -10.478611 7.065971 0.292219 1.282324 3.141588
    50 -0.000488 0.000015 2.279600 0.547136 0.343566 0.107835
    51 -2.479401 -8.323895 6.074234 0.008171 0.116362 1.562566
    52 -5.790000 4.432083 14.255558 -5.816966 1.453616 -3.039741
    53 1.044540 -2.839314 19.743252 0.386258 0.762889 0.124806
    54 -2.655510 -1.533379 24.792648 -0.783091 -0.014994 -0.785415
    55 -1.120216 -0.154385 9.795983 0.004273 0.000665 -0.037577
    56 -2.240372 -0.308788 19.592047 -0.022151 0.000252 -0.078599
    57 -0.683205 2.877342 14.167089 -0.307703 0.098819 -1.379504
    58 -0.144958 -0.145317 7.579308 -0.904288 0.229583 -0.028435
    59 -0.038551 -0.936644 4.697678 -0.433376 0.082810 -0.010924
    60 -0.506317 8.500896 13.617329 -0.144672 -0.284002 -1.238792
    61 0.385056 -0.460075 7.003435 -0.751952 0.460346 -0.057477
    62 -0.456360 -0.710276 5.057732 -0.324447 0.189855 -0.015745
    63 2.452194 -8.899408 11.597939 -0.585489 0.225409 -1.500852
    64 -0.680515 -0.903999 6.074242 -0.911320 -0.112355 -0.027213
    65 -0.248295 -0.666843 3.386627 -0.631954 -0.113548 0.032216
    66 0.717491 -3.784309 13.044010 -0.575794 0.186025 -1.453549
    67 -1.099228 -1.407673 8.017876 -0.987831 -0.004354 0.002463
    68 -0.064053 -0.807640 3.686100 -0.515716 -0.000806 -0.007141
    69 4.004906 6.172710 4.754800 -0.004746 -1.074234 -2.731660
    70 -0.158381 -1.149773 5.804405 -0.177093 0.103148 0.161381
    71 1.078559 -2.386406 5.215008 -0.852229 0.507308 0.170742
    72 6.289963 0.932404 13.569109 -0.126801 -0.612098 -2.869612
    73 -1.327759 -0.766682 12.396324 0.040547 0.037713 -0.450891
    74 0.000017 -54.999996 0.000000 0.000000 0.000000 -1.570796
  time 19
    0 -11.320227 -385.000002 -1.500000 0.000000 0.000000 0.000000
    1 -10.521344 -5.760963 66.994621 3.097005 -0.050653 -3.139334
    2 0.207409 -0.799528 2.303971 0.234982 -0.043075 -0.222243
    3 -0.000034 0.000012 24.761454 -0.152386 -0.017822 0.220088
    4 0.000017 0.000000 24.344809 1.078771 0.059944 0.006539
    5 0.002333 -1.019846 24.031336 0.764979 -0.045970 0.000087
    6 0.000034 0.000008 13.404741 -0.000001 -0.000009 0.133413
    7 10.398263 -5.760962 66.994675 3.097005 0.050653 3.139334
    8 0.902205 3.458248 2.664345 -0.221345 -0.028199 -0.183460
    9 -0.000004 -0.000006 24.761459 -1.590949 0.184391 0.008105
    10 -0.000007 0.000004 24.344891 1.042016 -0.169092 -0.292423
    11 -0.002360 -1.019903 24.031330 0.389594 -0.042695 -0.017219
    12 0.000000 -0.000002 13.404737 0.000001 0.000005 0.016101
    13 -0.061540 -5.245835 72.927078 0.000000 0.000000 0.000000
    14 -0.322905 -0.007248 -2.461465 0.246573 0.000021 0.115300
    15 0.000000 -0.005608 -1.146812 0.000036 0.032966 0.085610
    16 0.030770 -0.240000 8.906021 -0.004138 0.000000 0.000000
    17 0.308626 -1.225744 -0.094151 0.152152 0.124018 -0.278970
    18 0.030770 -0.276858 8.905140 0.056125 0.004134 -0.000049
    19 -0.376277 -0.690552 -0.024614 0.311984 -0.107485 -0.046382
    20 5.669724 4.435303 14.302868 3.007278 -1.516966 0.299583
    21 -1.044571 -2.839317 19.743267 -0.336592 -1.045917 0.199843
    22 2.655533 -1.533369 24.792658 -1.297388 0.136570 -0.172561
    23 1.120163 -0.154394 9.796035 0.002859 -0.000453 0.025181
    24 2.240311 -0.308786 19.592051 -0.190691 0.004208 0.072537
    25 0.683151 2.877354 14.167051 -0.168314 -0.189168 1.389746
    26 0.144936 -0.145374 7.579252 -1.138466 -0.219959 0.121618
    27 0.091660 -0.906685 4.702850 -0.964407 -0.146637 0.077552
    28 0.506271 8.500866 13.617253 -0.198340 0.123530 1.276104
    29 -0.384987 -0.460049 7.003448 -0.883432 -0.412081 0.234719
    30 0.561516 -0.596954 5.061852 -0.844258 -0.305975 0.153753
    31 -2.452171 -8.899406 11.597897 -0.519087 -0.538554 1.305444
    32 0.680496 -0.903999 6.074253 -1.013951 0.113583 0.013502
    33 0.245514 -0.661150 3.388004 -0.865456 0.111926 -0.049375
    34 -0.717484 -3.784271 13.043911 -0.399716 -0.301109 1.456531
    35 1.099216 -1.407745 8.017889 -1.168629 0.014968 -0.000058
    36 0.068439 -0.807653 3.686054 -0.850581 0.013833 0.001939
    37 -4.004929 6.172707 4.754754 0.009397 1.111060 2.645667
    38 0.158352 -1.149811 5.804394 -0.341469 -0.212149 0.213570
    39 -1.083523 -1.463142 5.544399 -1.251539 -0.225073 -0.049693
    40 -6.289886 0.932434 13.569063 -0.126803 0.612110 2.869610
    41 1.327774 -0.766687 12.396328 -0.012610 0.006343 -0.114104
    42 -0.096140 1.828087 23.185329 0.004138 0.081544 -1.570175
    43 2.325478 -0.000003 6.169296 -0.519144 0.084810 1.797870
    44 0.000000 -3.152912 0.122169 1.961017 0.000000 0.000000
    45 1.068383 -10.478592 7.066338 0.292219 -1.282324 -3.141588
    46 0.000000 0.000000 2.279457 0.547137 -0.343566 0.107833
    47 2.479414 -8.323895 6.074242 -0.009072 0.093654 1.556814
    48 0.000003 -5.075260 5.105362 0.000000 0.000000 0.000000
    49 -1.068383 -10.478611 7.065971 0.292219 1.282324 3.141588
    50 -0.000488 0.000015 2.279600 0.547136 0.343566 0.107835
    51 -2.479401 -8.323895 6.074234 0.008171 0.093634 1.562470
    52 -5.790000 4.432083 14.255558 -5.991044 1.425163 -3.059574
    53 1.044540 -2.839314 19.743252 -0.076970 0.988103 -0.054107
    54 -2.655510 -1.533379 24.792648 -0.702016 -0.040452 -0.508167
    55 -1.120216 -0.154385 9.795983 -0.004931 -0.000581 0.042838
    56 -2.240372 -0.308788 19.592047 0.106909 -0.015787 0.098225
    57 -0.683205 2.877342 14.167089 -0.307703 0.098819 -1.379504
    58 -0.144958 -0.145317 7.579308 -0.904288 0.229583 -0.028435
    59 -0.038551 -0.936644 4.697678 -0.433376 0.082810 -0.010924
    60 -0.506317 8.500896 13.617329 -0.144672 -0.284002 -1.238792
    61 0.385056 -0.460075 7.003435 -0.751952 0.460346 -0.057477
    62 -0.456360 -0.710276 5.057732 -0.324447 0.189855 -0.015745
    63 2.452194 -8.899408 11.597939 -0.585489 0.225409 -1.500852
    64 -0.680515 -0.903999 6.074242 -0.911320 -0.112355 -0.027213
    65 -0.248295 -0.666843 3.386627 -0.631954 -0.113548 0.032216
    66 0.717491 -3.784309 13.044010 -0.575794 0.186025 -1.453549
    67 -1.099228 -1.407673 8.017876 -0.987831 -0.004354 0.002463
    68 -0.064053 -0.807640 3.686100 -0.515716 -0.000806 -0.007141
    69 4.004906 6.172710 4.754800 -0.004746 -1.074234 -2.731660
    70 -0.158381 -1.149773 5.804405 -0.177093 0.103148 0.161381
    71 1.078559 -2.386406 5.215008 -0.852229 0.507308 0.170742
    72 6.289963 0.932404 13.569109 -0.126801 -0.612098 -2.869612
    73 -1.327759 -0.766682 12.396324 0.024931 0.018981 -0.253803
    74 0.000017 -54.999996 0.000000 0.000000 0.000000 -1.570796
end
