// Created by Crowbar 0.74
version 1
nodes
  0 "root" -1
  1 "g_r_hip_offset" 0
  2 "g_r_hip" 1
  3 "g_r_knee" 2
  4 "g_r_ankle" 3
  5 "g_r_ball" 4
  6 "g_r_thightwist" 2
  7 "g_l_hip_offset" 0
  8 "g_l_hip" 7
  9 "g_l_knee" 8
  10 "g_l_ankle" 9
  11 "g_l_ball" 10
  12 "g_l_thightwist" 8
  13 "g_spine01_offset" 0
  14 "g_spine01" 13
  15 "g_pelvis" 14
  16 "g_spine02_offset" 14
  17 "g_spine02" 16
  18 "g_spine03_offset" 17
  19 "g_spine03" 18
  20 "g_l_clavical" 19
  21 "g_l_shoulder" 20
  22 "g_l_elbow" 21
  23 "g_l_forarm" 22
  24 "g_l_wrist" 22
  25 "g_l_birdy1" 24
  26 "g_l_birdy2" 25
  27 "g_l_birdy3" 26
  28 "g_l_index1" 24
  29 "g_l_index2" 28
  30 "g_l_index3" 29
  31 "g_l_pinky1" 24
  32 "g_l_pinky2" 31
  33 "g_l_pinky3" 32
  34 "g_l_ring1" 24
  35 "g_l_ring2" 34
  36 "g_l_ring3" 35
  37 "g_l_thumb1" 24
  38 "g_l_thumb2" 37
  39 "g_l_thumb3" 38
  40 "g_l_palm" 24
  41 "g_l_biceptwist" 21
  42 "g_neck" 19
  43 "g_head" 42
  44 "g_jaw" 43
  45 "g_l_brow" 43
  46 "g_l_brow2" 45
  47 "g_l_eye" 43
  48 "g_topeyelid" 43
  49 "g_r_brow" 43
  50 "g_r_brow2" 49
  51 "g_r_eye" 43
  52 "g_r_clavical" 19
  53 "g_r_shoulder" 52
  54 "g_r_elbow" 53
  55 "g_r_forarm" 54
  56 "g_r_wrist" 54
  57 "g_r_birdy1" 56
  58 "g_r_birdy2" 57
  59 "g_r_birdy3" 58
  60 "g_r_index1" 56
  61 "g_r_index2" 60
  62 "g_r_index3" 61
  63 "g_r_pinky1" 56
  64 "g_r_pinky2" 63
  65 "g_r_pinky3" 64
  66 "g_r_ring1" 56
  67 "g_r_ring2" 66
  68 "g_r_ring3" 67
  69 "g_r_thumb1" 56
  70 "g_r_thumb2" 69
  71 "g_r_thumb3" 70
  72 "g_r_palm" 56
  73 "g_r_biceptwist" 53
  74 "g_throwable_attach_offset" 0
end
skeleton
  time 0
    0 0.000000 0.000000 0.000000 0.000000 0.000000 1.570796
    1 -10.521344 -5.760963 66.994621 3.097005 -0.050653 -3.139334
    2 -3.542706 2.539814 16.969620 -0.046288 0.513848 0.393654
    3 -0.000034 0.000012 24.761454 -1.100532 -0.127661 -0.234815
    4 0.000017 0.000000 24.344809 1.717496 -0.167944 -0.152051
    5 0.002333 -1.019846 24.031336 0.880528 -0.045682 -0.005294
    6 0.000034 0.000008 13.404741 -0.000001 -0.000009 -0.139472
    7 10.398263 -5.760962 66.994675 3.097005 0.050653 3.139334
    8 0.546725 -6.957888 18.108223 0.836243 -0.635582 0.316920
    9 -0.000004 -0.000006 24.761459 -1.802304 0.208816 -0.716467
    10 -0.000007 0.000004 24.344891 1.774153 0.097528 -0.097055
    11 -0.002360 -1.019903 24.031330 0.389594 -0.042695 -0.017219
    12 0.000000 -0.000002 13.404737 0.000001 0.000005 -0.381083
    13 -0.061540 -5.245835 72.927078 0.000000 0.000000 0.000000
    14 1.567778 -2.557655 -17.715019 -0.000948 0.000124 -0.002465
    15 0.000000 -0.005608 -1.146812 0.219331 0.067630 -0.467026
    16 0.030770 -0.240000 8.906021 -0.004138 0.000000 0.000000
    17 -0.437490 -2.202336 -0.324627 0.343925 -0.014489 -0.161246
    18 0.030770 -0.276858 8.905140 0.056125 0.004134 -0.000049
    19 0.194053 -0.631956 0.018356 0.332895 0.073523 -0.010236
    20 5.669724 4.435303 14.302868 2.673170 -1.380397 0.923172
    21 -1.044571 -2.839317 19.743267 -0.347159 -0.762819 0.153198
    22 2.655533 -1.533369 24.792658 -0.492512 0.082965 -0.227231
    23 1.120163 -0.154394 9.796035 -0.036702 -0.000836 -0.319406
    24 2.240311 -0.308786 19.592051 -0.143778 -0.078535 -0.624636
    25 0.683151 2.877354 14.167051 -0.179011 -0.120029 1.380629
    26 0.144936 -0.145374 7.579252 -1.577116 -0.243672 0.199564
    27 0.091660 -0.906685 4.702850 -0.679287 -0.108430 0.037368
    28 0.506271 8.500866 13.617253 0.076004 0.176807 1.339103
    29 -0.384987 -0.460049 7.003448 -1.140172 -0.446970 0.324814
    30 0.561516 -0.596954 5.061852 -0.977173 -0.333121 0.196873
    31 -2.452171 -8.899406 11.597897 -0.580412 -0.358518 1.079644
    32 0.680496 -0.903999 6.074253 -1.235709 0.137207 0.007938
    33 0.245514 -0.661150 3.388004 -0.624427 0.104813 -0.031036
    34 -0.717484 -3.784271 13.043911 -0.676853 -0.187921 1.367604
    35 1.099216 -1.407745 8.017889 -1.353233 0.021080 -0.004001
    36 0.068439 -0.807653 3.686054 -0.728469 0.009440 0.002736
    37 -4.004929 6.172707 4.754754 0.512369 1.025795 2.908889
    38 0.158352 -1.149811 5.804394 -0.217894 -0.190502 0.237851
    39 -1.083523 -1.463142 5.544399 -1.613517 -0.368197 0.249174
    40 -6.289886 0.932434 13.569063 -0.126803 0.612110 2.869610
    41 1.327774 -0.766687 12.396328 -0.014635 0.007206 -0.132031
    42 -0.096140 1.828087 23.185329 0.001683 -0.065760 -1.568879
    43 2.325478 -0.000003 6.169296 -0.767016 0.027976 1.703477
    44 0.000000 -3.152912 0.122169 2.038617 0.000000 0.000000
    45 1.068383 -10.478592 7.066338 0.292219 -1.282324 -3.141588
    46 0.000000 0.000000 2.279457 0.547137 -0.343566 0.107833
    47 2.479414 -8.323895 6.074242 -0.008855 0.007342 1.561876
    48 0.000003 -5.075260 5.105362 0.000000 0.000000 0.000000
    49 -1.068383 -10.478611 7.065971 0.292219 1.282324 3.141588
    50 -0.000488 0.000015 2.279600 0.547136 0.343566 0.107835
    51 -2.479401 -8.323895 6.074234 0.008854 0.007354 1.579716
    52 -5.790000 4.432083 14.255558 -2.894362 1.405516 -0.294920
    53 1.044540 -2.839314 19.743252 -0.601810 0.766154 -0.237402
    54 -2.655510 -1.533379 24.792648 -0.634781 -0.091926 0.482308
    55 -1.120216 -0.154385 9.795983 -0.017047 -0.001073 0.148118
    56 -2.240372 -0.308788 19.592047 -0.070644 0.164951 0.292405
    57 -0.683205 2.877342 14.167089 -0.354577 0.202666 -1.419491
    58 -0.144958 -0.145317 7.579308 -1.520222 0.303862 -0.161297
    59 -0.038551 -0.936644 4.697678 -1.063563 0.212411 -0.099130
    60 -0.506317 8.500896 13.617329 -0.010728 -0.114059 -1.333983
    61 0.385056 -0.460075 7.003435 -1.270059 0.580701 -0.285521
    62 -0.456360 -0.710276 5.057732 -1.300506 0.545250 -0.355674
    63 2.452194 -8.899408 11.597939 -0.917646 0.438795 -1.163408
    64 -0.680515 -0.903999 6.074242 -1.406564 -0.169177 -0.006596
    65 -0.248295 -0.666843 3.386627 -0.797345 -0.121356 0.045584
    66 0.717491 -3.784309 13.044010 -0.873407 0.202028 -1.408090
    67 -1.099228 -1.407673 8.017876 -1.514256 -0.019872 0.011286
    68 -0.064053 -0.807640 3.686100 -0.573178 -0.002965 -0.007222
    69 4.004906 6.172710 4.754800 0.470800 -1.049650 -2.824505
    70 -0.158381 -1.149773 5.804405 -0.442530 0.112992 0.245527
    71 1.078559 -2.386406 5.215008 -1.254977 0.852344 -0.042871
    72 6.289963 0.932404 13.569109 -0.126801 -0.612098 -2.869612
    73 -1.327759 -0.766682 12.396324 -0.032715 -0.013090 0.286107
    74 0.000017 -54.999996 0.000000 0.000000 0.000000 -1.570796
end
triangles
  phy
    13 8.250000 -2.750000 66.000000 -0.408248 0.816497 0.408248 0 0
    13 13.750001 -2.750000 66.000000 -0.816496 0.408248 -0.408249 0 0
    13 8.250000 -2.750000 71.500000 -0.577350 -0.577350 0.577350 0 0
  phy
    13 8.250000 -2.750000 71.500000 -0.577350 -0.577350 0.577350 0 0
    13 13.750001 -2.750000 66.000000 -0.816496 0.408248 -0.408249 0 0
    13 13.750001 -2.750000 71.500000 -0.408248 -0.408248 -0.816497 0 0
  phy
    13 13.750001 -2.750000 66.000000 -0.816496 0.408248 -0.408249 0 0
    13 8.250000 -2.750000 66.000000 -0.408248 0.816497 0.408248 0 0
    13 13.750001 2.750000 66.000000 0.333334 0.666667 -0.666667 0 0
  phy
    13 13.750001 -2.750000 71.500000 -0.408248 -0.408248 -0.816497 0 0
    13 13.750001 -2.750000 66.000000 -0.816496 0.408248 -0.408249 0 0
    13 13.750001 2.750000 66.000000 0.333334 0.666667 -0.666667 0 0
  phy
    13 8.250000 2.750000 71.500000 0.577350 -0.577350 0.577350 0 0
    13 13.750001 2.750000 71.500000 0.666667 -0.666667 -0.333333 0 0
    13 8.250000 2.750000 66.000000 0.666666 0.333333 0.666667 0 0
  phy
    13 13.750001 2.750000 71.500000 0.666667 -0.666667 -0.333333 0 0
    13 13.750001 2.750000 66.000000 0.333334 0.666667 -0.666667 0 0
    13 8.250000 2.750000 66.000000 0.666666 0.333333 0.666667 0 0
  phy
    13 8.250000 -2.750000 71.500000 -0.577350 -0.577350 0.577350 0 0
    13 13.750001 2.750000 71.500000 0.666667 -0.666667 -0.333333 0 0
    13 8.250000 2.750000 71.500000 0.577350 -0.577350 0.577350 0 0
  phy
    13 8.250000 -2.750000 71.500000 -0.577350 -0.577350 0.577350 0 0
    13 13.750001 -2.750000 71.500000 -0.408248 -0.408248 -0.816497 0 0
    13 13.750001 2.750000 71.500000 0.666667 -0.666667 -0.333333 0 0
  phy
    13 8.250000 2.750000 66.000000 0.666666 0.333333 0.666667 0 0
    13 8.250000 -2.750000 71.500000 -0.577350 -0.577350 0.577350 0 0
    13 8.250000 2.750000 71.500000 0.577350 -0.577350 0.577350 0 0
  phy
    13 8.250000 -2.750000 66.000000 -0.408248 0.816497 0.408248 0 0
    13 8.250000 2.750000 66.000000 0.666666 0.333333 0.666667 0 0
    13 13.750001 2.750000 66.000000 0.333334 0.666667 -0.666667 0 0
  phy
    13 8.250000 -2.750000 66.000000 -0.408248 0.816497 0.408248 0 0
    13 8.250000 -2.750000 71.500000 -0.577350 -0.577350 0.577350 0 0
    13 8.250000 2.750000 66.000000 0.666666 0.333333 0.666667 0 0
  phy
    13 13.750001 2.750000 71.500000 0.666667 -0.666667 -0.333333 0 0
    13 13.750001 -2.750000 71.500000 -0.408248 -0.408248 -0.816497 0 0
    13 13.750001 2.750000 66.000000 0.333334 0.666667 -0.666667 0 0
  phy
    14 11.388686 -6.599999 49.499997 -0.815437 0.408738 -0.409873 0 0
    14 11.388686 -6.600000 62.700001 -0.331771 -0.665992 -0.668118 0 0
    14 -1.811313 -6.600000 62.700001 -0.668350 -0.333881 0.664705 0 0
  phy
    14 -1.811313 -6.600000 49.499997 -0.409152 0.816161 0.408015 0 0
    14 11.388686 -6.599999 49.499997 -0.815437 0.408738 -0.409873 0 0
    14 -1.811313 -6.600000 62.700001 -0.668350 -0.333881 0.664705 0 0
  phy
    14 11.388686 -6.600000 62.700001 -0.331771 -0.665992 -0.668118 0 0
    14 11.388686 -6.599999 49.499997 -0.815437 0.408738 -0.409873 0 0
    14 11.388686 6.600001 49.499997 0.578843 0.577824 -0.575378 0 0
  phy
    14 11.388686 -6.599999 49.499997 -0.815437 0.408738 -0.409873 0 0
    14 -1.811313 -6.600000 49.499997 -0.409152 0.816161 0.408015 0 0
    14 11.388686 6.600001 49.499997 0.578843 0.577824 -0.575378 0 0
  phy
    14 -1.811313 6.600001 49.499997 0.406285 0.407423 0.817887 0 0
    14 -1.811313 -6.600000 62.700001 -0.668350 -0.333881 0.664705 0 0
    14 -1.811313 6.600001 62.700001 0.665760 -0.667066 0.334344 0 0
  phy
    14 -1.811313 -6.600000 49.499997 -0.409152 0.816161 0.408015 0 0
    14 -1.811313 -6.600000 62.700001 -0.668350 -0.333881 0.664705 0 0
    14 -1.811313 6.600001 49.499997 0.406285 0.407423 0.817887 0 0
  phy
    14 -1.811313 6.600001 62.700001 0.665760 -0.667066 0.334344 0 0
    14 11.388686 6.600001 49.499997 0.578843 0.577824 -0.575378 0 0
    14 -1.811313 6.600001 49.499997 0.406285 0.407423 0.817887 0 0
  phy
    14 -1.811313 -6.600000 49.499997 -0.409152 0.816161 0.408015 0 0
    14 -1.811313 6.600001 49.499997 0.406285 0.407423 0.817887 0 0
    14 11.388686 6.600001 49.499997 0.578843 0.577824 -0.575378 0 0
  phy
    14 11.388686 6.600001 62.700000 0.578700 -0.576876 -0.576472 0 0
    14 -1.811313 6.600001 62.700001 0.665760 -0.667066 0.334344 0 0
    14 11.388686 -6.600000 62.700001 -0.331771 -0.665992 -0.668118 0 0
  phy
    14 -1.811313 6.600001 62.700001 0.665760 -0.667066 0.334344 0 0
    14 -1.811313 -6.600000 62.700001 -0.668350 -0.333881 0.664705 0 0
    14 11.388686 -6.600000 62.700001 -0.331771 -0.665992 -0.668118 0 0
  phy
    14 11.388686 6.600001 62.700000 0.578700 -0.576876 -0.576472 0 0
    14 11.388686 -6.600000 62.700001 -0.331771 -0.665992 -0.668118 0 0
    14 11.388686 6.600001 49.499997 0.578843 0.577824 -0.575378 0 0
  phy
    14 11.388686 6.600001 62.700000 0.578700 -0.576876 -0.576472 0 0
    14 11.388686 6.600001 49.499997 0.578843 0.577824 -0.575378 0 0
    14 -1.811313 6.600001 62.700001 0.665760 -0.667066 0.334344 0 0
  phy
    17 0.550001 -8.250001 60.499979 -0.519679 0.687741 0.506898 0 0
    17 0.550001 8.250000 60.499979 0.528371 0.840694 0.118566 0 0
    17 17.049997 -8.250000 60.499985 -0.446430 0.415811 -0.792339 0 0
  phy
    17 17.049997 -8.250000 60.499985 -0.446430 0.415811 -0.792339 0 0
    17 0.550001 8.250000 60.499979 0.528371 0.840694 0.118566 0 0
    17 17.049995 8.250002 60.499985 0.598921 0.488166 -0.634813 0 0
  phy
    17 0.549997 8.250001 73.699982 0.265339 -0.179239 0.947348 0 0
    17 17.049993 8.250003 73.699984 0.619030 -0.760891 -0.194543 0 0
    17 0.550001 8.250000 60.499979 0.528371 0.840694 0.118566 0 0
  phy
    17 17.049993 8.250003 73.699984 0.619030 -0.760891 -0.194543 0 0
    17 17.049995 8.250002 60.499985 0.598921 0.488166 -0.634813 0 0
    17 0.550001 8.250000 60.499979 0.528371 0.840694 0.118566 0 0
  phy
    17 0.550001 -8.250001 60.499979 -0.519679 0.687741 0.506898 0 0
    17 0.549997 8.250001 73.699982 0.265339 -0.179239 0.947348 0 0
    17 0.550001 8.250000 60.499979 0.528371 0.840694 0.118566 0 0
  phy
    17 0.550001 -8.250001 60.499979 -0.519679 0.687741 0.506898 0 0
    17 0.549996 -8.250002 73.699983 -0.625499 -0.646506 0.436784 0 0
    17 0.549997 8.250001 73.699982 0.265339 -0.179239 0.947348 0 0
  phy
    17 17.049996 -8.250001 73.699985 -0.426320 -0.833246 -0.352069 0 0
    17 17.049997 -8.250000 60.499985 -0.446430 0.415811 -0.792339 0 0
    17 17.049993 8.250003 73.699984 0.619030 -0.760891 -0.194543 0 0
  phy
    17 17.049993 8.250003 73.699984 0.619030 -0.760891 -0.194543 0 0
    17 17.049997 -8.250000 60.499985 -0.446430 0.415811 -0.792339 0 0
    17 17.049995 8.250002 60.499985 0.598921 0.488166 -0.634813 0 0
  phy
    17 0.549996 -8.250002 73.699983 -0.625499 -0.646506 0.436784 0 0
    17 17.049997 -8.250000 60.499985 -0.446430 0.415811 -0.792339 0 0
    17 17.049996 -8.250001 73.699985 -0.426320 -0.833246 -0.352069 0 0
  phy
    17 17.049997 -8.250000 60.499985 -0.446430 0.415811 -0.792339 0 0
    17 0.549996 -8.250002 73.699983 -0.625499 -0.646506 0.436784 0 0
    17 0.550001 -8.250001 60.499979 -0.519679 0.687741 0.506898 0 0
  phy
    17 0.549996 -8.250002 73.699983 -0.625499 -0.646506 0.436784 0 0
    17 17.049993 8.250003 73.699984 0.619030 -0.760891 -0.194543 0 0
    17 0.549997 8.250001 73.699982 0.265339 -0.179239 0.947348 0 0
  phy
    17 17.049996 -8.250001 73.699985 -0.426320 -0.833246 -0.352069 0 0
    17 17.049993 8.250003 73.699984 0.619030 -0.760891 -0.194543 0 0
    17 0.549996 -8.250002 73.699983 -0.625499 -0.646506 0.436784 0 0
  phy
    19 16.596676 4.400003 91.014904 0.300108 -0.952424 -0.053139 0 0
    19 19.729620 -9.492007 83.089201 -0.321789 -0.744669 -0.584739 0 0
    19 18.965583 12.478231 82.237569 0.792903 -0.597802 -0.118056 0 0
  phy
    19 18.965583 12.478231 82.237569 0.792903 -0.597802 -0.118056 0 0
    19 19.729620 -9.492007 83.089201 -0.321789 -0.744669 -0.584739 0 0
    19 18.918239 11.837475 65.750090 0.751809 -0.039542 -0.658195 0 0
  phy
    19 18.965583 12.478231 82.237569 0.792903 -0.597802 -0.118056 0 0
    19 18.918239 11.837475 65.750090 0.751809 -0.039542 -0.658195 0 0
    19 -3.021059 11.717216 82.330281 0.694243 0.133322 0.707285 0 0
  phy
    19 18.965583 12.478231 82.237569 0.792903 -0.597802 -0.118056 0 0
    19 7.796676 4.399999 91.014904 0.234143 -0.428149 0.872849 0 0
    19 16.596676 4.400003 91.014904 0.300108 -0.952424 -0.053139 0 0
  phy
    19 18.965583 12.478231 82.237569 0.792903 -0.597802 -0.118056 0 0
    19 -3.021059 11.717216 82.330281 0.694243 0.133322 0.707285 0 0
    19 7.796676 4.399999 91.014904 0.234143 -0.428149 0.872849 0 0
  phy
    19 16.596676 4.400003 91.014904 0.300108 -0.952424 -0.053139 0 0
    19 16.596680 -4.400000 91.014903 -0.579611 -0.747015 0.325607 0 0
    19 19.729620 -9.492007 83.089201 -0.321789 -0.744669 -0.584739 0 0
  phy
    19 7.796676 4.399999 91.014904 0.234143 -0.428149 0.872849 0 0
    19 16.596680 -4.400000 91.014903 -0.579611 -0.747015 0.325607 0 0
    19 16.596676 4.400003 91.014904 0.300108 -0.952424 -0.053139 0 0
  phy
    19 7.673800 -4.400000 91.014902 -0.382266 -0.501566 0.776083 0 0
    19 16.596680 -4.400000 91.014903 -0.579611 -0.747015 0.325607 0 0
    19 7.796676 4.399999 91.014904 0.234143 -0.428149 0.872849 0 0
  phy
    19 7.796676 4.399999 91.014904 0.234143 -0.428149 0.872849 0 0
    19 -2.257022 -10.253022 83.181913 -0.781681 0.133717 0.609176 0 0
    19 7.673800 -4.400000 91.014902 -0.382266 -0.501566 0.776083 0 0
  phy
    19 16.596680 -4.400000 91.014903 -0.579611 -0.747015 0.325607 0 0
    19 7.673800 -4.400000 91.014902 -0.382266 -0.501566 0.776083 0 0
    19 -2.257022 -10.253022 83.181913 -0.781681 0.133717 0.609176 0 0
  phy
    19 19.682276 -10.132760 66.601724 -0.498014 0.321563 -0.805344 0 0
    19 -2.304366 -10.893776 66.694431 -0.582458 0.797418 -0.157694 0 0
    19 -3.068402 11.076460 65.842797 0.197614 0.978990 -0.050275 0 0
  phy
    19 19.682276 -10.132760 66.601724 -0.498014 0.321563 -0.805344 0 0
    19 -3.068402 11.076460 65.842797 0.197614 0.978990 -0.050275 0 0
    19 18.918239 11.837475 65.750090 0.751809 -0.039542 -0.658195 0 0
  phy
    19 -2.304366 -10.893776 66.694431 -0.582458 0.797418 -0.157694 0 0
    19 -2.257022 -10.253022 83.181913 -0.781681 0.133717 0.609176 0 0
    19 -3.068402 11.076460 65.842797 0.197614 0.978990 -0.050275 0 0
  phy
    19 -2.304366 -10.893776 66.694431 -0.582458 0.797418 -0.157694 0 0
    19 19.682276 -10.132760 66.601724 -0.498014 0.321563 -0.805344 0 0
    19 -2.257022 -10.253022 83.181913 -0.781681 0.133717 0.609176 0 0
  phy
    19 19.682276 -10.132760 66.601724 -0.498014 0.321563 -0.805344 0 0
    19 19.729620 -9.492007 83.089201 -0.321789 -0.744669 -0.584739 0 0
    19 -2.257022 -10.253022 83.181913 -0.781681 0.133717 0.609176 0 0
  phy
    19 19.729620 -9.492007 83.089201 -0.321789 -0.744669 -0.584739 0 0
    19 16.596680 -4.400000 91.014903 -0.579611 -0.747015 0.325607 0 0
    19 -2.257022 -10.253022 83.181913 -0.781681 0.133717 0.609176 0 0
  phy
    19 19.729620 -9.492007 83.089201 -0.321789 -0.744669 -0.584739 0 0
    19 19.682276 -10.132760 66.601724 -0.498014 0.321563 -0.805344 0 0
    19 18.918239 11.837475 65.750090 0.751809 -0.039542 -0.658195 0 0
  phy
    19 -3.021059 11.717216 82.330281 0.694243 0.133322 0.707285 0 0
    19 -2.257022 -10.253022 83.181913 -0.781681 0.133717 0.609176 0 0
    19 7.796676 4.399999 91.014904 0.234143 -0.428149 0.872849 0 0
  phy
    19 -3.021059 11.717216 82.330281 0.694243 0.133322 0.707285 0 0
    19 18.918239 11.837475 65.750090 0.751809 -0.039542 -0.658195 0 0
    19 -3.068402 11.076460 65.842797 0.197614 0.978990 -0.050275 0 0
  phy
    19 -3.068402 11.076460 65.842797 0.197614 0.978990 -0.050275 0 0
    19 -2.257022 -10.253022 83.181913 -0.781681 0.133717 0.609176 0 0
    19 -3.021059 11.717216 82.330281 0.694243 0.133322 0.707285 0 0
  phy
    52 17.600000 -11.000016 91.299971 0.008472 -0.992527 -0.121734 0 0
    52 17.599995 -2.200008 82.499985 0.982642 0.030825 -0.182935 0 0
    52 17.600005 -11.000007 82.499978 0.679215 -0.623407 0.387338 0 0
  phy
    52 17.600000 -11.000016 91.299971 0.008472 -0.992527 -0.121734 0 0
    52 17.599989 -2.200017 91.299978 -0.185321 0.118071 -0.975559 0 0
    52 17.599995 -2.200008 82.499985 0.982642 0.030825 -0.182935 0 0
  phy
    52 17.600000 -11.000016 91.299971 0.008472 -0.992527 -0.121734 0 0
    52 26.400002 -11.000006 91.299974 -0.958957 -0.283427 0.008372 0 0
    52 17.599989 -2.200017 91.299978 -0.185321 0.118071 -0.975559 0 0
  phy
    52 17.599989 -2.200017 91.299978 -0.185321 0.118071 -0.975559 0 0
    52 26.400002 -11.000006 91.299974 -0.958957 -0.283427 0.008372 0 0
    52 26.399992 -2.200006 91.299982 -0.724805 0.686490 -0.058212 0 0
  phy
    52 17.600005 -11.000007 82.499978 0.679215 -0.623407 0.387338 0 0
    52 26.400007 -10.999997 82.499980 -0.012414 0.071465 0.997366 0 0
    52 17.600000 -11.000016 91.299971 0.008472 -0.992527 -0.121734 0 0
  phy
    52 26.400007 -10.999997 82.499980 -0.012414 0.071465 0.997366 0 0
    52 26.400002 -11.000006 91.299974 -0.958957 -0.283427 0.008372 0 0
    52 17.600000 -11.000016 91.299971 0.008472 -0.992527 -0.121734 0 0
  phy
    52 17.599995 -2.200008 82.499985 0.982642 0.030825 -0.182935 0 0
    52 17.599989 -2.200017 91.299978 -0.185321 0.118071 -0.975559 0 0
    52 26.399996 -2.199996 82.499987 0.234152 0.969917 -0.066584 0 0
  phy
    52 26.399996 -2.199996 82.499987 0.234152 0.969917 -0.066584 0 0
    52 17.599989 -2.200017 91.299978 -0.185321 0.118071 -0.975559 0 0
    52 26.399992 -2.200006 91.299982 -0.724805 0.686490 -0.058212 0 0
  phy
    52 26.399992 -2.200006 91.299982 -0.724805 0.686490 -0.058212 0 0
    52 26.400007 -10.999997 82.499980 -0.012414 0.071465 0.997366 0 0
    52 26.399996 -2.199996 82.499987 0.234152 0.969917 -0.066584 0 0
  phy
    52 26.400007 -10.999997 82.499980 -0.012414 0.071465 0.997366 0 0
    52 26.399992 -2.200006 91.299982 -0.724805 0.686490 -0.058212 0 0
    52 26.400002 -11.000006 91.299974 -0.958957 -0.283427 0.008372 0 0
  phy
    52 17.600005 -11.000007 82.499978 0.679215 -0.623407 0.387338 0 0
    52 17.599995 -2.200008 82.499985 0.982642 0.030825 -0.182935 0 0
    52 26.400007 -10.999997 82.499980 -0.012414 0.071465 0.997366 0 0
  phy
    52 26.400007 -10.999997 82.499980 -0.012414 0.071465 0.997366 0 0
    52 17.599995 -2.200008 82.499985 0.982642 0.030825 -0.182935 0 0
    52 26.399996 -2.199996 82.499987 0.234152 0.969917 -0.066584 0 0
  phy
    53 3.656334 -15.605024 93.276925 -0.128155 0.458444 -0.879435 0 0
    53 15.085373 -4.555063 88.858164 0.179392 0.756473 -0.628941 0 0
    53 2.635031 -16.667640 87.978084 0.535740 -0.567263 -0.625455 0 0
  phy
    53 15.085373 -4.555063 88.858164 0.179392 0.756473 -0.628941 0 0
    53 3.656334 -15.605024 93.276925 -0.128155 0.458444 -0.879435 0 0
    53 8.256155 -20.337649 93.339424 -0.835023 0.520943 -0.177071 0 0
  phy
    53 3.656334 -15.605024 93.276925 -0.128155 0.458444 -0.879435 0 0
    53 2.635031 -16.667640 87.978084 0.535740 -0.567263 -0.625455 0 0
    53 8.256155 -20.337649 93.339424 -0.835023 0.520943 -0.177071 0 0
  phy
    53 7.234854 -21.400268 88.040582 -0.104956 -0.698270 0.708098 0 0
    53 14.064070 -5.617680 83.559322 0.769241 -0.630048 0.106337 0 0
    53 18.663894 -10.350308 83.621821 0.259030 -0.284297 0.923081 0 0
  phy
    53 7.234854 -21.400268 88.040582 -0.104956 -0.698270 0.708098 0 0
    53 2.635031 -16.667640 87.978084 0.535740 -0.567263 -0.625455 0 0
    53 14.064070 -5.617680 83.559322 0.769241 -0.630048 0.106337 0 0
  phy
    53 18.663894 -10.350308 83.621821 0.259030 -0.284297 0.923081 0 0
    53 19.685195 -9.287689 88.920663 -0.663008 0.489539 0.566368 0 0
    53 7.234854 -21.400268 88.040582 -0.104956 -0.698270 0.708098 0 0
  phy
    53 19.685195 -9.287689 88.920663 -0.663008 0.489539 0.566368 0 0
    53 8.256155 -20.337649 93.339424 -0.835023 0.520943 -0.177071 0 0
    53 7.234854 -21.400268 88.040582 -0.104956 -0.698270 0.708098 0 0
  phy
    53 2.635031 -16.667640 87.978084 0.535740 -0.567263 -0.625455 0 0
    53 7.234854 -21.400268 88.040582 -0.104956 -0.698270 0.708098 0 0
    53 8.256155 -20.337649 93.339424 -0.835023 0.520943 -0.177071 0 0
  phy
    53 15.085373 -4.555063 88.858164 0.179392 0.756473 -0.628941 0 0
    53 19.685195 -9.287689 88.920663 -0.663008 0.489539 0.566368 0 0
    53 18.663894 -10.350308 83.621821 0.259030 -0.284297 0.923081 0 0
  phy
    53 18.663894 -10.350308 83.621821 0.259030 -0.284297 0.923081 0 0
    53 14.064070 -5.617680 83.559322 0.769241 -0.630048 0.106337 0 0
    53 15.085373 -4.555063 88.858164 0.179392 0.756473 -0.628941 0 0
  phy
    53 2.635031 -16.667640 87.978084 0.535740 -0.567263 -0.625455 0 0
    53 15.085373 -4.555063 88.858164 0.179392 0.756473 -0.628941 0 0
    53 14.064070 -5.617680 83.559322 0.769241 -0.630048 0.106337 0 0
  phy
    53 19.685195 -9.287689 88.920663 -0.663008 0.489539 0.566368 0 0
    53 15.085373 -4.555063 88.858164 0.179392 0.756473 -0.628941 0 0
    53 8.256155 -20.337649 93.339424 -0.835023 0.520943 -0.177071 0 0
  phy
    42 19.656842 2.750000 89.716530 -0.921010 -0.116551 0.371694 0 0
    42 19.656843 -2.750001 89.716531 -0.622588 0.300659 -0.722488 0 0
    42 29.534602 -2.750000 94.556965 -0.275095 -0.613265 -0.740425 0 0
  phy
    42 19.656842 2.750000 89.716530 -0.921010 -0.116551 0.371694 0 0
    42 29.534602 -2.750000 94.556965 -0.275095 -0.613265 -0.740425 0 0
    42 29.534602 2.750001 94.556966 -0.371666 -0.327140 0.868817 0 0
  phy
    42 32.438868 -2.750000 88.630317 0.921010 0.116551 -0.371694 0 0
    42 32.438868 2.750001 88.630316 0.622588 -0.300659 0.722488 0 0
    42 29.534602 -2.750000 94.556965 -0.275095 -0.613265 -0.740425 0 0
  phy
    42 32.438868 2.750001 88.630316 0.622588 -0.300659 0.722488 0 0
    42 29.534602 2.750001 94.556966 -0.371666 -0.327140 0.868817 0 0
    42 29.534602 -2.750000 94.556965 -0.275095 -0.613265 -0.740425 0 0
  phy
    42 29.534602 -2.750000 94.556965 -0.275095 -0.613265 -0.740425 0 0
    42 19.656843 -2.750001 89.716531 -0.622588 0.300659 -0.722488 0 0
    42 22.561110 -2.750002 83.789874 0.371667 0.327140 -0.868817 0 0
  phy
    42 29.534602 -2.750000 94.556965 -0.275095 -0.613265 -0.740425 0 0
    42 22.561110 -2.750002 83.789874 0.371667 0.327140 -0.868817 0 0
    42 32.438868 -2.750000 88.630317 0.921010 0.116551 -0.371694 0 0
  phy
    42 32.438868 2.750001 88.630316 0.622588 -0.300659 0.722488 0 0
    42 22.561109 2.750000 83.789874 0.275095 0.613265 0.740425 0 0
    42 29.534602 2.750001 94.556966 -0.371666 -0.327140 0.868817 0 0
  phy
    42 22.561109 2.750000 83.789874 0.275095 0.613265 0.740425 0 0
    42 19.656842 2.750000 89.716530 -0.921010 -0.116551 0.371694 0 0
    42 29.534602 2.750001 94.556966 -0.371666 -0.327140 0.868817 0 0
  phy
    42 19.656843 -2.750001 89.716531 -0.622588 0.300659 -0.722488 0 0
    42 22.561109 2.750000 83.789874 0.275095 0.613265 0.740425 0 0
    42 22.561110 -2.750002 83.789874 0.371667 0.327140 -0.868817 0 0
  phy
    42 22.561109 2.750000 83.789874 0.275095 0.613265 0.740425 0 0
    42 19.656843 -2.750001 89.716531 -0.622588 0.300659 -0.722488 0 0
    42 19.656842 2.750000 89.716530 -0.921010 -0.116551 0.371694 0 0
  phy
    42 32.438868 2.750001 88.630316 0.622588 -0.300659 0.722488 0 0
    42 32.438868 -2.750000 88.630317 0.921010 0.116551 -0.371694 0 0
    42 22.561109 2.750000 83.789874 0.275095 0.613265 0.740425 0 0
  phy
    42 22.561109 2.750000 83.789874 0.275095 0.613265 0.740425 0 0
    42 32.438868 -2.750000 88.630317 0.921010 0.116551 -0.371694 0 0
    42 22.561110 -2.750002 83.789874 0.371667 0.327140 -0.868817 0 0
  phy
    43 41.249964 -8.249997 104.499958 -0.397923 -0.770325 -0.498253 0 0
    43 24.749962 8.250002 104.499939 0.566017 -0.633559 0.527473 0 0
    43 24.749966 -8.249999 104.499939 -0.824231 -0.447626 0.346807 0 0
  phy
    43 41.249964 -8.249997 104.499958 -0.397923 -0.770325 -0.498253 0 0
    43 41.249963 8.250005 104.499957 0.426308 -0.322700 -0.845060 0 0
    43 24.749962 8.250002 104.499939 0.566017 -0.633559 0.527473 0 0
  phy
    43 41.249964 -8.249997 104.499958 -0.397923 -0.770325 -0.498253 0 0
    43 24.749966 -8.249999 104.499939 -0.824231 -0.447626 0.346807 0 0
    43 41.249989 -8.249999 87.999959 -0.652951 0.399986 -0.643169 0 0
  phy
    43 41.249964 -8.249997 104.499958 -0.397923 -0.770325 -0.498253 0 0
    43 41.249989 -8.249999 87.999959 -0.652951 0.399986 -0.643169 0 0
    43 41.249963 8.250005 104.499957 0.426308 -0.322700 -0.845060 0 0
  phy
    43 24.749962 8.250002 104.499939 0.566017 -0.633559 0.527473 0 0
    43 41.249988 8.250003 87.999957 0.672353 0.697069 -0.249071 0 0
    43 24.749988 8.249999 87.999946 0.563837 0.515084 0.645582 0 0
  phy
    43 24.749988 8.249999 87.999946 0.563837 0.515084 0.645582 0 0
    43 24.749992 -8.250002 87.999947 -0.348708 0.595068 0.724084 0 0
    43 24.749962 8.250002 104.499939 0.566017 -0.633559 0.527473 0 0
  phy
    43 24.749988 8.249999 87.999946 0.563837 0.515084 0.645582 0 0
    43 41.249988 8.250003 87.999957 0.672353 0.697069 -0.249071 0 0
    43 24.749992 -8.250002 87.999947 -0.348708 0.595068 0.724084 0 0
  phy
    43 41.249989 -8.249999 87.999959 -0.652951 0.399986 -0.643169 0 0
    43 24.749966 -8.249999 104.499939 -0.824231 -0.447626 0.346807 0 0
    43 24.749992 -8.250002 87.999947 -0.348708 0.595068 0.724084 0 0
  phy
    43 24.749962 8.250002 104.499939 0.566017 -0.633559 0.527473 0 0
    43 24.749992 -8.250002 87.999947 -0.348708 0.595068 0.724084 0 0
    43 24.749966 -8.249999 104.499939 -0.824231 -0.447626 0.346807 0 0
  phy
    43 41.249989 -8.249999 87.999959 -0.652951 0.399986 -0.643169 0 0
    43 41.249988 8.250003 87.999957 0.672353 0.697069 -0.249071 0 0
    43 41.249963 8.250005 104.499957 0.426308 -0.322700 -0.845060 0 0
  phy
    43 41.249988 8.250003 87.999957 0.672353 0.697069 -0.249071 0 0
    43 41.249989 -8.249999 87.999959 -0.652951 0.399986 -0.643169 0 0
    43 24.749992 -8.250002 87.999947 -0.348708 0.595068 0.724084 0 0
  phy
    43 24.749962 8.250002 104.499939 0.566017 -0.633559 0.527473 0 0
    43 41.249963 8.250005 104.499957 0.426308 -0.322700 -0.845060 0 0
    43 41.249988 8.250003 87.999957 0.672353 0.697069 -0.249071 0 0
  phy
    44 35.199990 3.300003 92.399955 0.156894 -0.193153 -0.968543 0 0
    44 35.199991 -3.300000 92.399956 -0.280093 0.207540 -0.937270 0 0
    44 35.199989 3.300002 94.599952 0.296730 0.610516 0.734317 0 0
  phy
    44 35.199989 3.300002 94.599952 0.296730 0.610516 0.734317 0 0
    44 35.199991 -3.300000 92.399956 -0.280093 0.207540 -0.937270 0 0
    44 35.199990 -3.299998 94.599953 -0.538576 0.525762 0.658414 0 0
  phy
    44 35.199990 -3.299998 94.599953 -0.538576 0.525762 0.658414 0 0
    44 41.799988 -3.299997 94.599956 -0.156894 0.193153 0.968543 0 0
    44 35.199989 3.300002 94.599952 0.296730 0.610516 0.734317 0 0
  phy
    44 41.799988 -3.299997 94.599956 -0.156894 0.193153 0.968543 0 0
    44 41.799987 3.300004 94.599955 0.280092 -0.207540 0.937270 0 0
    44 35.199989 3.300002 94.599952 0.296730 0.610516 0.734317 0 0
  phy
    44 41.799988 -3.299997 94.599956 -0.156894 0.193153 0.968543 0 0
    44 35.199990 -3.299998 94.599953 -0.538576 0.525762 0.658414 0 0
    44 41.799993 -3.299998 92.399959 -0.296730 -0.610516 -0.734317 0 0
  phy
    44 41.799993 -3.299998 92.399959 -0.296730 -0.610516 -0.734317 0 0
    44 35.199990 -3.299998 94.599953 -0.538576 0.525762 0.658414 0 0
    44 35.199991 -3.300000 92.399956 -0.280093 0.207540 -0.937270 0 0
  phy
    44 41.799993 3.300004 92.399958 0.538577 -0.525762 -0.658414 0 0
    44 35.199990 3.300003 92.399955 0.156894 -0.193153 -0.968543 0 0
    44 35.199989 3.300002 94.599952 0.296730 0.610516 0.734317 0 0
  phy
    44 35.199989 3.300002 94.599952 0.296730 0.610516 0.734317 0 0
    44 41.799987 3.300004 94.599955 0.280092 -0.207540 0.937270 0 0
    44 41.799993 3.300004 92.399958 0.538577 -0.525762 -0.658414 0 0
  phy
    44 35.199990 3.300003 92.399955 0.156894 -0.193153 -0.968543 0 0
    44 41.799993 3.300004 92.399958 0.538577 -0.525762 -0.658414 0 0
    44 41.799993 -3.299998 92.399959 -0.296730 -0.610516 -0.734317 0 0
  phy
    44 41.799993 3.300004 92.399958 0.538577 -0.525762 -0.658414 0 0
    44 41.799987 3.300004 94.599955 0.280092 -0.207540 0.937270 0 0
    44 41.799993 -3.299998 92.399959 -0.296730 -0.610516 -0.734317 0 0
  phy
    44 41.799993 -3.299998 92.399959 -0.296730 -0.610516 -0.734317 0 0
    44 41.799987 3.300004 94.599955 0.280092 -0.207540 0.937270 0 0
    44 41.799988 -3.299997 94.599956 -0.156894 0.193153 0.968543 0 0
  phy
    44 35.199990 3.300003 92.399955 0.156894 -0.193153 -0.968543 0 0
    44 41.799993 -3.299998 92.399959 -0.296730 -0.610516 -0.734317 0 0
    44 35.199991 -3.300000 92.399956 -0.280093 0.207540 -0.937270 0 0
  phy
    20 17.599990 11.000003 83.090636 -0.866777 -0.424185 0.262230 0 0
    20 17.599989 11.000006 91.890623 -0.041079 -0.865884 -0.498555 0 0
    20 26.399988 10.999991 83.090631 -0.038703 -0.610710 0.790908 0 0
  phy
    20 17.599989 11.000006 91.890623 -0.041079 -0.865884 -0.498555 0 0
    20 26.399990 10.999994 91.890618 0.950993 -0.186935 0.246309 0 0
    20 26.399988 10.999991 83.090631 -0.038703 -0.610710 0.790908 0 0
  phy
    20 17.599990 11.000003 83.090636 -0.866777 -0.424185 0.262230 0 0
    20 26.399988 10.999991 83.090631 -0.038703 -0.610710 0.790908 0 0
    20 26.399976 2.199990 83.090629 -0.205362 0.584221 0.785183 0 0
  phy
    20 26.399988 10.999991 83.090631 -0.038703 -0.610710 0.790908 0 0
    20 26.399990 10.999994 91.890618 0.950993 -0.186935 0.246309 0 0
    20 26.399976 2.199990 83.090629 -0.205362 0.584221 0.785183 0 0
  phy
    20 17.599990 11.000003 83.090636 -0.866777 -0.424185 0.262230 0 0
    20 26.399976 2.199990 83.090629 -0.205362 0.584221 0.785183 0 0
    20 17.599978 2.200002 83.090634 -0.704553 0.468598 -0.532937 0 0
  phy
    20 17.599989 11.000006 91.890623 -0.041079 -0.865884 -0.498555 0 0
    20 17.599990 11.000003 83.090636 -0.866777 -0.424185 0.262230 0 0
    20 17.599978 2.200002 83.090634 -0.704553 0.468598 -0.532937 0 0
  phy
    20 26.399976 2.199990 83.090629 -0.205362 0.584221 0.785183 0 0
    20 26.399990 10.999994 91.890618 0.950993 -0.186935 0.246309 0 0
    20 26.399978 2.199993 91.890623 0.495307 0.853997 -0.159251 0 0
  phy
    20 26.399976 2.199990 83.090629 -0.205362 0.584221 0.785183 0 0
    20 26.399978 2.199993 91.890623 0.495307 0.853997 -0.159251 0 0
    20 17.599978 2.200002 83.090634 -0.704553 0.468598 -0.532937 0 0
  phy
    20 17.599977 2.200005 91.890628 0.410174 0.180898 -0.893887 0 0
    20 26.399990 10.999994 91.890618 0.950993 -0.186935 0.246309 0 0
    20 17.599989 11.000006 91.890623 -0.041079 -0.865884 -0.498555 0 0
  phy
    20 17.599977 2.200005 91.890628 0.410174 0.180898 -0.893887 0 0
    20 17.599989 11.000006 91.890623 -0.041079 -0.865884 -0.498555 0 0
    20 17.599978 2.200002 83.090634 -0.704553 0.468598 -0.532937 0 0
  phy
    20 26.399978 2.199993 91.890623 0.495307 0.853997 -0.159251 0 0
    20 26.399990 10.999994 91.890618 0.950993 -0.186935 0.246309 0 0
    20 17.599977 2.200005 91.890628 0.410174 0.180898 -0.893887 0 0
  phy
    20 26.399978 2.199993 91.890623 0.495307 0.853997 -0.159251 0 0
    20 17.599977 2.200005 91.890628 0.410174 0.180898 -0.893887 0 0
    20 17.599978 2.200002 83.090634 -0.704553 0.468598 -0.532937 0 0
  phy
    21 8.681190 23.822348 92.508497 0.128710 0.296482 -0.946326 0 0
    21 14.623946 26.658144 92.957843 0.890677 0.454215 0.019587 0 0
    21 8.681192 24.683085 87.076284 -0.578003 -0.788091 -0.211721 0 0
  phy
    21 14.623946 26.658144 92.957843 0.890677 0.454215 0.019587 0 0
    21 14.623947 27.518884 87.525608 0.183964 -0.630359 0.754192 0 0
    21 8.681192 24.683085 87.076284 -0.578003 -0.788091 -0.211721 0 0
  phy
    21 8.681190 23.822348 92.508497 0.128710 0.296482 -0.946326 0 0
    21 8.681192 24.683085 87.076284 -0.578003 -0.788091 -0.211721 0 0
    21 15.859136 9.148509 90.183425 -0.108325 0.559963 -0.821405 0 0
  phy
    21 15.859136 9.148509 90.183425 -0.108325 0.559963 -0.821405 0 0
    21 8.681192 24.683085 87.076284 -0.578003 -0.788091 -0.211721 0 0
    21 15.859136 10.009253 84.751198 -0.961975 -0.263944 0.070268 0 0
  phy
    21 14.623947 27.518884 87.525608 0.183964 -0.630359 0.754192 0 0
    21 21.801893 12.845055 85.200522 -0.051749 -0.389034 0.919769 0 0
    21 8.681192 24.683085 87.076284 -0.578003 -0.788091 -0.211721 0 0
  phy
    21 21.801893 12.845055 85.200522 -0.051749 -0.389034 0.919769 0 0
    21 15.859136 10.009253 84.751198 -0.961975 -0.263944 0.070268 0 0
    21 8.681192 24.683085 87.076284 -0.578003 -0.788091 -0.211721 0 0
  phy
    21 8.681190 23.822348 92.508497 0.128710 0.296482 -0.946326 0 0
    21 15.859136 9.148509 90.183425 -0.108325 0.559963 -0.821405 0 0
    21 14.623946 26.658144 92.957843 0.890677 0.454215 0.019587 0 0
  phy
    21 15.859136 9.148509 90.183425 -0.108325 0.559963 -0.821405 0 0
    21 15.859136 10.009253 84.751198 -0.961975 -0.263944 0.070268 0 0
    21 21.801894 11.984307 90.632773 0.387418 0.877461 0.282789 0 0
  phy
    21 21.801894 11.984307 90.632773 0.387418 0.877461 0.282789 0 0
    21 15.859136 10.009253 84.751198 -0.961975 -0.263944 0.070268 0 0
    21 21.801893 12.845055 85.200522 -0.051749 -0.389034 0.919769 0 0
  phy
    21 15.859136 9.148509 90.183425 -0.108325 0.559963 -0.821405 0 0
    21 21.801894 11.984307 90.632773 0.387418 0.877461 0.282789 0 0
    21 14.623946 26.658144 92.957843 0.890677 0.454215 0.019587 0 0
  phy
    21 14.623947 27.518884 87.525608 0.183964 -0.630359 0.754192 0 0
    21 14.623946 26.658144 92.957843 0.890677 0.454215 0.019587 0 0
    21 21.801893 12.845055 85.200522 -0.051749 -0.389034 0.919769 0 0
  phy
    21 21.801893 12.845055 85.200522 -0.051749 -0.389034 0.919769 0 0
    21 14.623946 26.658144 92.957843 0.890677 0.454215 0.019587 0 0
    21 21.801894 11.984307 90.632773 0.387418 0.877461 0.282789 0 0
  phy
    22 9.221444 34.483708 78.306544 -0.557550 0.010318 0.830079 0 0
    22 5.247939 33.002801 79.480509 -0.932172 0.292579 -0.213199 0 0
    22 3.552095 43.825095 70.901345 -0.598923 -0.584167 0.547759 0 0
  phy
    22 3.552095 43.825095 70.901345 -0.598923 -0.584167 0.547759 0 0
    22 5.247939 33.002801 79.480509 -0.932172 0.292579 -0.213199 0 0
    22 -0.421405 42.344192 72.075305 -0.546589 0.285442 -0.787251 0 0
  phy
    22 -0.421405 42.344192 72.075305 -0.546589 0.285442 -0.787251 0 0
    22 -0.421402 45.077544 75.523307 0.557551 -0.010319 -0.830078 0 0
    22 3.552095 43.825095 70.901345 -0.598923 -0.584167 0.547759 0 0
  phy
    22 -0.421402 45.077544 75.523307 0.557551 -0.010319 -0.830078 0 0
    22 3.552099 46.558449 74.349348 0.932172 -0.292578 0.213197 0 0
    22 3.552095 43.825095 70.901345 -0.598923 -0.584167 0.547759 0 0
  phy
    22 3.552095 43.825095 70.901345 -0.598923 -0.584167 0.547759 0 0
    22 3.552099 46.558449 74.349348 0.932172 -0.292578 0.213197 0 0
    22 9.221449 37.217077 81.754565 0.546589 -0.285442 0.787250 0 0
  phy
    22 3.552095 43.825095 70.901345 -0.598923 -0.584167 0.547759 0 0
    22 9.221449 37.217077 81.754565 0.546589 -0.285442 0.787250 0 0
    22 9.221444 34.483708 78.306544 -0.557550 0.010318 0.830079 0 0
  phy
    22 -0.421402 45.077544 75.523307 0.557551 -0.010319 -0.830078 0 0
    22 5.247942 35.736168 82.928528 0.598923 0.584167 -0.547759 0 0
    22 3.552099 46.558449 74.349348 0.932172 -0.292578 0.213197 0 0
  phy
    22 5.247942 35.736168 82.928528 0.598923 0.584167 -0.547759 0 0
    22 9.221449 37.217077 81.754565 0.546589 -0.285442 0.787250 0 0
    22 3.552099 46.558449 74.349348 0.932172 -0.292578 0.213197 0 0
  phy
    22 -0.421402 45.077544 75.523307 0.557551 -0.010319 -0.830078 0 0
    22 -0.421405 42.344192 72.075305 -0.546589 0.285442 -0.787251 0 0
    22 5.247942 35.736168 82.928528 0.598923 0.584167 -0.547759 0 0
  phy
    22 9.221449 37.217077 81.754565 0.546589 -0.285442 0.787250 0 0
    22 5.247942 35.736168 82.928528 0.598923 0.584167 -0.547759 0 0
    22 9.221444 34.483708 78.306544 -0.557550 0.010318 0.830079 0 0
  phy
    22 9.221444 34.483708 78.306544 -0.557550 0.010318 0.830079 0 0
    22 5.247942 35.736168 82.928528 0.598923 0.584167 -0.547759 0 0
    22 5.247939 33.002801 79.480509 -0.932172 0.292579 -0.213199 0 0
  phy
    22 5.247942 35.736168 82.928528 0.598923 0.584167 -0.547759 0 0
    22 -0.421405 42.344192 72.075305 -0.546589 0.285442 -0.787251 0 0
    22 5.247939 33.002801 79.480509 -0.932172 0.292579 -0.213199 0 0
  phy
    24 1.877118 58.230314 61.943161 -0.004774 -0.070652 -0.997490 0 0
    24 4.077118 58.230309 61.943162 -0.797808 -0.464089 0.384869 0 0
    24 1.877108 48.675340 67.393162 -0.102857 0.240977 -0.965065 0 0
  phy
    24 1.877118 58.230314 61.943161 -0.004774 -0.070652 -0.997490 0 0
    24 1.877121 59.865318 64.809650 0.895892 0.152460 -0.417294 0 0
    24 4.077118 58.230309 61.943162 -0.797808 -0.464089 0.384869 0 0
  phy
    24 1.877118 58.230314 61.943161 -0.004774 -0.070652 -0.997490 0 0
    24 1.877108 48.675340 67.393162 -0.102857 0.240977 -0.965065 0 0
    24 1.877121 59.865318 64.809650 0.895892 0.152460 -0.417294 0 0
  phy
    24 4.077118 58.230309 61.943162 -0.797808 -0.464089 0.384869 0 0
    24 4.077111 50.310342 70.259654 0.004774 0.070652 0.997490 0 0
    24 4.077108 48.675337 67.393162 -0.895892 -0.152460 0.417294 0 0
  phy
    24 4.077118 58.230309 61.943162 -0.797808 -0.464089 0.384869 0 0
    24 4.077121 59.865314 64.809652 0.102857 -0.240977 0.965065 0 0
    24 4.077111 50.310342 70.259654 0.004774 0.070652 0.997490 0 0
  phy
    24 1.877108 48.675340 67.393162 -0.102857 0.240977 -0.965065 0 0
    24 4.077118 58.230309 61.943162 -0.797808 -0.464089 0.384869 0 0
    24 4.077108 48.675337 67.393162 -0.895892 -0.152460 0.417294 0 0
  phy
    24 4.077118 58.230309 61.943162 -0.797808 -0.464089 0.384869 0 0
    24 1.877121 59.865318 64.809650 0.895892 0.152460 -0.417294 0 0
    24 4.077121 59.865314 64.809652 0.102857 -0.240977 0.965065 0 0
  phy
    24 1.877108 48.675340 67.393162 -0.102857 0.240977 -0.965065 0 0
    24 4.077111 50.310342 70.259654 0.004774 0.070652 0.997490 0 0
    24 1.877111 50.310344 70.259653 0.797808 0.464089 -0.384869 0 0
  phy
    24 4.077111 50.310342 70.259654 0.004774 0.070652 0.997490 0 0
    24 1.877108 48.675340 67.393162 -0.102857 0.240977 -0.965065 0 0
    24 4.077108 48.675337 67.393162 -0.895892 -0.152460 0.417294 0 0
  phy
    24 1.877108 48.675340 67.393162 -0.102857 0.240977 -0.965065 0 0
    24 1.877111 50.310344 70.259653 0.797808 0.464089 -0.384869 0 0
    24 1.877121 59.865318 64.809650 0.895892 0.152460 -0.417294 0 0
  phy
    24 4.077121 59.865314 64.809652 0.102857 -0.240977 0.965065 0 0
    24 1.877121 59.865318 64.809650 0.895892 0.152460 -0.417294 0 0
    24 4.077111 50.310342 70.259654 0.004774 0.070652 0.997490 0 0
  phy
    24 4.077111 50.310342 70.259654 0.004774 0.070652 0.997490 0 0
    24 1.877121 59.865318 64.809650 0.895892 0.152460 -0.417294 0 0
    24 1.877111 50.310344 70.259653 0.797808 0.464089 -0.384869 0 0
  phy
    41 8.088707 34.886221 81.642397 0.949282 -0.204237 0.239062 0 0
    41 9.559980 32.418109 78.310162 0.070674 -0.224342 0.971944 0 0
    41 4.309273 32.633251 81.642399 0.515854 -0.251425 -0.818950 0 0
  phy
    41 4.309273 32.633251 81.642399 0.515854 -0.251425 -0.818950 0 0
    41 14.487092 24.152748 92.417499 0.957547 0.166248 0.235513 0 0
    41 8.088707 34.886221 81.642397 0.949282 -0.204237 0.239062 0 0
  phy
    41 8.088707 34.886221 81.642397 0.949282 -0.204237 0.239062 0 0
    41 14.487092 24.152748 92.417499 0.957547 0.166248 0.235513 0 0
    41 9.559980 32.418109 78.310162 0.070674 -0.224342 0.971944 0 0
  phy
    41 12.178934 19.431649 89.085269 -0.899937 0.370847 -0.229315 0 0
    41 10.707658 21.899771 92.417506 -0.074785 0.110629 -0.991044 0 0
    41 5.780545 30.165135 78.310163 -0.968026 -0.074594 -0.239504 0 0
  phy
    41 5.780545 30.165135 78.310163 -0.968026 -0.074594 -0.239504 0 0
    41 10.707658 21.899771 92.417506 -0.074785 0.110629 -0.991044 0 0
    41 4.309273 32.633251 81.642399 0.515854 -0.251425 -0.818950 0 0
  phy
    41 10.707658 21.899771 92.417506 -0.074785 0.110629 -0.991044 0 0
    41 14.487092 24.152748 92.417499 0.957547 0.166248 0.235513 0 0
    41 4.309273 32.633251 81.642399 0.515854 -0.251425 -0.818950 0 0
  phy
    41 9.559980 32.418109 78.310162 0.070674 -0.224342 0.971944 0 0
    41 5.780545 30.165135 78.310163 -0.968026 -0.074594 -0.239504 0 0
    41 4.309273 32.633251 81.642399 0.515854 -0.251425 -0.818950 0 0
  phy
    41 10.707658 21.899771 92.417506 -0.074785 0.110629 -0.991044 0 0
    41 12.178934 19.431649 89.085269 -0.899937 0.370847 -0.229315 0 0
    41 14.487092 24.152748 92.417499 0.957547 0.166248 0.235513 0 0
  phy
    41 5.780545 30.165135 78.310163 -0.968026 -0.074594 -0.239504 0 0
    41 9.559980 32.418109 78.310162 0.070674 -0.224342 0.971944 0 0
    41 15.958370 21.684629 89.085263 -0.529233 0.138276 0.837133 0 0
  phy
    41 5.780545 30.165135 78.310163 -0.968026 -0.074594 -0.239504 0 0
    41 15.958370 21.684629 89.085263 -0.529233 0.138276 0.837133 0 0
    41 12.178934 19.431649 89.085269 -0.899937 0.370847 -0.229315 0 0
  phy
    41 9.559980 32.418109 78.310162 0.070674 -0.224342 0.971944 0 0
    41 14.487092 24.152748 92.417499 0.957547 0.166248 0.235513 0 0
    41 15.958370 21.684629 89.085263 -0.529233 0.138276 0.837133 0 0
  phy
    41 12.178934 19.431649 89.085269 -0.899937 0.370847 -0.229315 0 0
    41 15.958370 21.684629 89.085263 -0.529233 0.138276 0.837133 0 0
    41 14.487092 24.152748 92.417499 0.957547 0.166248 0.235513 0 0
  phy
    23 0.739746 50.661414 66.408538 -0.663553 -0.279120 -0.694111 0 0
    23 0.548624 42.975158 70.689291 -0.723388 0.383225 -0.574325 0 0
    23 0.207424 44.578690 73.553245 0.570040 0.376589 -0.730229 0 0
  phy
    23 0.739746 50.661414 66.408538 -0.663553 -0.279120 -0.694111 0 0
    23 0.207424 44.578690 73.553245 0.570040 0.376589 -0.730229 0 0
    23 0.398547 52.264945 69.272488 0.967591 -0.101500 -0.231226 0 0
  phy
    23 4.923999 43.113516 71.133084 -0.970255 -0.062157 0.233971 0 0
    23 0.548624 42.975158 70.689291 -0.723388 0.383225 -0.574325 0 0
    23 0.739746 50.661414 66.408538 -0.663553 -0.279120 -0.694111 0 0
  phy
    23 4.923999 43.113516 71.133084 -0.970255 -0.062157 0.233971 0 0
    23 0.739746 50.661414 66.408538 -0.663553 -0.279120 -0.694111 0 0
    23 5.115120 50.799785 66.852324 -0.493370 -0.541860 0.680422 0 0
  phy
    23 0.398547 52.264945 69.272488 0.967591 -0.101500 -0.231226 0 0
    23 5.115120 50.799785 66.852324 -0.493370 -0.541860 0.680422 0 0
    23 0.739746 50.661414 66.408538 -0.663553 -0.279120 -0.694111 0 0
  phy
    23 0.398547 52.264945 69.272488 0.967591 -0.101500 -0.231226 0 0
    23 4.773921 52.403321 69.716283 0.741890 -0.148703 0.653825 0 0
    23 5.115120 50.799785 66.852324 -0.493370 -0.541860 0.680422 0 0
  phy
    23 5.115120 50.799785 66.852324 -0.493370 -0.541860 0.680422 0 0
    23 4.582799 44.717055 73.997047 0.609608 0.410020 0.678426 0 0
    23 4.923999 43.113516 71.133084 -0.970255 -0.062157 0.233971 0 0
  phy
    23 5.115120 50.799785 66.852324 -0.493370 -0.541860 0.680422 0 0
    23 4.773921 52.403321 69.716283 0.741890 -0.148703 0.653825 0 0
    23 4.582799 44.717055 73.997047 0.609608 0.410020 0.678426 0 0
  phy
    23 0.398547 52.264945 69.272488 0.967591 -0.101500 -0.231226 0 0
    23 4.582799 44.717055 73.997047 0.609608 0.410020 0.678426 0 0
    23 4.773921 52.403321 69.716283 0.741890 -0.148703 0.653825 0 0
  phy
    23 0.398547 52.264945 69.272488 0.967591 -0.101500 -0.231226 0 0
    23 0.207424 44.578690 73.553245 0.570040 0.376589 -0.730229 0 0
    23 4.582799 44.717055 73.997047 0.609608 0.410020 0.678426 0 0
  phy
    23 0.207424 44.578690 73.553245 0.570040 0.376589 -0.730229 0 0
    23 0.548624 42.975158 70.689291 -0.723388 0.383225 -0.574325 0 0
    23 4.582799 44.717055 73.997047 0.609608 0.410020 0.678426 0 0
  phy
    23 4.582799 44.717055 73.997047 0.609608 0.410020 0.678426 0 0
    23 0.548624 42.975158 70.689291 -0.723388 0.383225 -0.574325 0 0
    23 4.923999 43.113516 71.133084 -0.970255 -0.062157 0.233971 0 0
  phy
    54 -6.888421 -33.543934 76.981884 0.794726 -0.566368 0.218263 0 0
    54 -2.471129 -22.139297 83.616772 0.908904 0.394323 -0.135659 0 0
    54 0.846701 -25.024422 83.449166 0.360644 -0.441855 0.821401 0 0
  phy
    54 -10.206252 -30.658817 77.149486 0.518509 0.353071 -0.778774 0 0
    54 -2.471129 -22.139297 83.616772 0.908904 0.394323 -0.135659 0 0
    54 -6.888421 -33.543934 76.981884 0.794726 -0.566368 0.218263 0 0
  phy
    54 -11.511629 -32.382585 80.981525 -0.595438 0.093853 -0.797901 0 0
    54 -10.206252 -30.658817 77.149486 0.518509 0.353071 -0.778774 0 0
    54 -6.888421 -33.543934 76.981884 0.794726 -0.566368 0.218263 0 0
  phy
    54 -6.888421 -33.543934 76.981884 0.794726 -0.566368 0.218263 0 0
    54 -8.193800 -35.267705 80.813931 -0.772895 -0.433662 0.463218 0 0
    54 -11.511629 -32.382585 80.981525 -0.595438 0.093853 -0.797901 0 0
  phy
    54 0.846701 -25.024422 83.449166 0.360644 -0.441855 0.821401 0 0
    54 -8.193800 -35.267705 80.813931 -0.772895 -0.433662 0.463218 0 0
    54 -6.888421 -33.543934 76.981884 0.794726 -0.566368 0.218263 0 0
  phy
    54 -11.511629 -32.382585 80.981525 -0.595438 0.093853 -0.797901 0 0
    54 -8.193800 -35.267705 80.813931 -0.772895 -0.433662 0.463218 0 0
    54 -3.776510 -23.863070 87.448818 -0.622869 0.574617 -0.530895 0 0
  phy
    54 -3.776510 -23.863070 87.448818 -0.622869 0.574617 -0.530895 0 0
    54 -8.193800 -35.267705 80.813931 -0.772895 -0.433662 0.463218 0 0
    54 -0.458682 -26.748198 87.281220 -0.675815 0.034528 0.736262 0 0
  phy
    54 -10.206252 -30.658817 77.149486 0.518509 0.353071 -0.778774 0 0
    54 -11.511629 -32.382585 80.981525 -0.595438 0.093853 -0.797901 0 0
    54 -3.776510 -23.863070 87.448818 -0.622869 0.574617 -0.530895 0 0
  phy
    54 -0.458682 -26.748198 87.281220 -0.675815 0.034528 0.736262 0 0
    54 0.846701 -25.024422 83.449166 0.360644 -0.441855 0.821401 0 0
    54 -2.471129 -22.139297 83.616772 0.908904 0.394323 -0.135659 0 0
  phy
    54 -0.458682 -26.748198 87.281220 -0.675815 0.034528 0.736262 0 0
    54 -8.193800 -35.267705 80.813931 -0.772895 -0.433662 0.463218 0 0
    54 0.846701 -25.024422 83.449166 0.360644 -0.441855 0.821401 0 0
  phy
    54 -10.206252 -30.658817 77.149486 0.518509 0.353071 -0.778774 0 0
    54 -3.776510 -23.863070 87.448818 -0.622869 0.574617 -0.530895 0 0
    54 -2.471129 -22.139297 83.616772 0.908904 0.394323 -0.135659 0 0
  phy
    54 -3.776510 -23.863070 87.448818 -0.622869 0.574617 -0.530895 0 0
    54 -0.458682 -26.748198 87.281220 -0.675815 0.034528 0.736262 0 0
    54 -2.471129 -22.139297 83.616772 0.908904 0.394323 -0.135659 0 0
  phy
    73 -5.744086 -26.390110 82.228586 0.929698 -0.287841 -0.229801 0 0
    73 -3.239046 -29.927410 82.985055 0.422397 -0.459127 0.781526 0 0
    73 -7.699977 -26.940601 86.131333 0.107914 -0.058625 -0.992430 0 0
  phy
    73 -3.239046 -29.927410 82.985055 0.422397 -0.459127 0.781526 0 0
    73 -5.194940 -30.477904 86.887810 -0.983753 0.018489 0.178572 0 0
    73 -7.699977 -26.940601 86.131333 0.107914 -0.058625 -0.992430 0 0
  phy
    73 3.710917 -17.347299 93.203136 -0.422396 0.459127 -0.781526 0 0
    73 -7.699977 -26.940601 86.131333 0.107914 -0.058625 -0.992430 0 0
    73 -5.194940 -30.477904 86.887810 -0.983753 0.018489 0.178572 0 0
  phy
    73 3.710917 -17.347299 93.203136 -0.422396 0.459127 -0.781526 0 0
    73 -5.194940 -30.477904 86.887810 -0.983753 0.018489 0.178572 0 0
    73 6.215956 -20.884604 93.959613 -0.929698 0.287842 0.229801 0 0
  phy
    73 -7.699977 -26.940601 86.131333 0.107914 -0.058625 -0.992430 0 0
    73 3.710917 -17.347299 93.203136 -0.422396 0.459127 -0.781526 0 0
    73 5.666808 -16.796807 89.300389 0.983753 -0.018489 -0.178572 0 0
  phy
    73 -5.744086 -26.390110 82.228586 0.929698 -0.287841 -0.229801 0 0
    73 -7.699977 -26.940601 86.131333 0.107914 -0.058625 -0.992430 0 0
    73 5.666808 -16.796807 89.300389 0.983753 -0.018489 -0.178572 0 0
  phy
    73 -3.239046 -29.927410 82.985055 0.422397 -0.459127 0.781526 0 0
    73 8.171850 -20.334110 90.056858 -0.107914 0.058624 0.992430 0 0
    73 -5.194940 -30.477904 86.887810 -0.983753 0.018489 0.178572 0 0
  phy
    73 8.171850 -20.334110 90.056858 -0.107914 0.058624 0.992430 0 0
    73 6.215956 -20.884604 93.959613 -0.929698 0.287842 0.229801 0 0
    73 -5.194940 -30.477904 86.887810 -0.983753 0.018489 0.178572 0 0
  phy
    73 -5.744086 -26.390110 82.228586 0.929698 -0.287841 -0.229801 0 0
    73 5.666808 -16.796807 89.300389 0.983753 -0.018489 -0.178572 0 0
    73 -3.239046 -29.927410 82.985055 0.422397 -0.459127 0.781526 0 0
  phy
    73 -3.239046 -29.927410 82.985055 0.422397 -0.459127 0.781526 0 0
    73 5.666808 -16.796807 89.300389 0.983753 -0.018489 -0.178572 0 0
    73 8.171850 -20.334110 90.056858 -0.107914 0.058624 0.992430 0 0
  phy
    73 8.171850 -20.334110 90.056858 -0.107914 0.058624 0.992430 0 0
    73 3.710917 -17.347299 93.203136 -0.422396 0.459127 -0.781526 0 0
    73 6.215956 -20.884604 93.959613 -0.929698 0.287842 0.229801 0 0
  phy
    73 3.710917 -17.347299 93.203136 -0.422396 0.459127 -0.781526 0 0
    73 8.171850 -20.334110 90.056858 -0.107914 0.058624 0.992430 0 0
    73 5.666808 -16.796807 89.300389 0.983753 -0.018489 -0.178572 0 0
  phy
    56 -11.025618 -52.278266 72.387938 -0.800109 0.059482 -0.596899 0 0
    56 -8.932420 -51.126741 69.222100 0.737092 -0.569852 0.363269 0 0
    56 -8.826993 -52.284754 72.310455 -0.017342 -0.070797 0.997340 0 0
  phy
    56 -11.025618 -52.278266 72.387938 -0.800109 0.059482 -0.596899 0 0
    56 -11.131044 -51.120255 69.299589 0.268972 -0.223619 -0.936829 0 0
    56 -8.932420 -51.126741 69.222100 0.737092 -0.569852 0.363269 0 0
  phy
    56 -10.964741 -40.819808 73.156189 -0.227679 0.163596 -0.959895 0 0
    56 -8.766117 -40.826293 73.078700 0.919603 -0.124475 0.372609 0 0
    56 -11.131044 -51.120255 69.299589 0.268972 -0.223619 -0.936829 0 0
  phy
    56 -8.766117 -40.826293 73.078700 0.919603 -0.124475 0.372609 0 0
    56 -8.932420 -51.126741 69.222100 0.737092 -0.569852 0.363269 0 0
    56 -11.131044 -51.120255 69.299589 0.268972 -0.223619 -0.936829 0 0
  phy
    56 -10.964741 -40.819808 73.156189 -0.227679 0.163596 -0.959895 0 0
    56 -11.131044 -51.120255 69.299589 0.268972 -0.223619 -0.936829 0 0
    56 -11.025618 -52.278266 72.387938 -0.800109 0.059482 -0.596899 0 0
  phy
    56 -8.826993 -52.284754 72.310455 -0.017342 -0.070797 0.997340 0 0
    56 -8.766117 -40.826293 73.078700 0.919603 -0.124475 0.372609 0 0
    56 -8.660690 -41.984320 76.167053 0.059482 0.163904 0.984681 0 0
  phy
    56 -8.826993 -52.284754 72.310455 -0.017342 -0.070797 0.997340 0 0
    56 -8.932420 -51.126741 69.222100 0.737092 -0.569852 0.363269 0 0
    56 -8.766117 -40.826293 73.078700 0.919603 -0.124475 0.372609 0 0
  phy
    56 -8.826993 -52.284754 72.310455 -0.017342 -0.070797 0.997340 0 0
    56 -10.859316 -41.977832 76.244536 -0.850426 0.523624 -0.050918 0 0
    56 -11.025618 -52.278266 72.387938 -0.800109 0.059482 -0.596899 0 0
  phy
    56 -10.859316 -41.977832 76.244536 -0.850426 0.523624 -0.050918 0 0
    56 -8.826993 -52.284754 72.310455 -0.017342 -0.070797 0.997340 0 0
    56 -8.660690 -41.984320 76.167053 0.059482 0.163904 0.984681 0 0
  phy
    56 -8.766117 -40.826293 73.078700 0.919603 -0.124475 0.372609 0 0
    56 -10.964741 -40.819808 73.156189 -0.227679 0.163596 -0.959895 0 0
    56 -10.859316 -41.977832 76.244536 -0.850426 0.523624 -0.050918 0 0
  phy
    56 -8.766117 -40.826293 73.078700 0.919603 -0.124475 0.372609 0 0
    56 -10.859316 -41.977832 76.244536 -0.850426 0.523624 -0.050918 0 0
    56 -8.660690 -41.984320 76.167053 0.059482 0.163904 0.984681 0 0
  phy
    56 -10.859316 -41.977832 76.244536 -0.850426 0.523624 -0.050918 0 0
    56 -10.964741 -40.819808 73.156189 -0.227679 0.163596 -0.959895 0 0
    56 -11.025618 -52.278266 72.387938 -0.800109 0.059482 -0.596899 0 0
  phy
    55 -7.929555 -42.565282 76.582661 -0.201009 -0.142492 0.969171 0 0
    55 -12.329553 -42.565287 76.582660 -0.959301 -0.178832 -0.218544 0 0
    55 -7.929556 -41.304844 73.532872 0.763495 -0.605151 0.225538 0 0
  phy
    55 -12.329553 -42.565287 76.582660 -0.959301 -0.178832 -0.218544 0 0
    55 -12.329555 -41.304849 73.532871 0.683878 -0.285785 -0.671295 0 0
    55 -7.929556 -41.304844 73.532872 0.763495 -0.605151 0.225538 0 0
  phy
    55 -7.929555 -42.565282 76.582661 -0.201009 -0.142492 0.969171 0 0
    55 -7.929567 -33.172036 76.894032 0.959301 0.178832 0.218544 0 0
    55 -7.929567 -34.432478 79.943829 -0.683878 0.285784 0.671296 0 0
  phy
    55 -7.929555 -42.565282 76.582661 -0.201009 -0.142492 0.969171 0 0
    55 -7.929556 -41.304844 73.532872 0.763495 -0.605151 0.225538 0 0
    55 -7.929567 -33.172036 76.894032 0.959301 0.178832 0.218544 0 0
  phy
    55 -12.329553 -42.565287 76.582660 -0.959301 -0.178832 -0.218544 0 0
    55 -7.929555 -42.565282 76.582661 -0.201009 -0.142492 0.969171 0 0
    55 -7.929567 -34.432478 79.943829 -0.683878 0.285784 0.671296 0 0
  phy
    55 -12.329553 -42.565287 76.582660 -0.959301 -0.178832 -0.218544 0 0
    55 -7.929567 -34.432478 79.943829 -0.683878 0.285784 0.671296 0 0
    55 -12.329566 -34.432484 79.943827 -0.763495 0.605151 -0.225539 0 0
  phy
    55 -7.929556 -41.304844 73.532872 0.763495 -0.605151 0.225538 0 0
    55 -12.329555 -41.304849 73.532871 0.683878 -0.285785 -0.671295 0 0
    55 -7.929567 -33.172036 76.894032 0.959301 0.178832 0.218544 0 0
  phy
    55 -12.329555 -41.304849 73.532871 0.683878 -0.285785 -0.671295 0 0
    55 -12.329568 -33.172042 76.894030 0.201009 0.142492 -0.969171 0 0
    55 -7.929567 -33.172036 76.894032 0.959301 0.178832 0.218544 0 0
  phy
    55 -7.929567 -34.432478 79.943829 -0.683878 0.285784 0.671296 0 0
    55 -7.929567 -33.172036 76.894032 0.959301 0.178832 0.218544 0 0
    55 -12.329566 -34.432484 79.943827 -0.763495 0.605151 -0.225539 0 0
  phy
    55 -12.329566 -34.432484 79.943827 -0.763495 0.605151 -0.225539 0 0
    55 -7.929567 -33.172036 76.894032 0.959301 0.178832 0.218544 0 0
    55 -12.329568 -33.172042 76.894030 0.201009 0.142492 -0.969171 0 0
  phy
    55 -12.329568 -33.172042 76.894030 0.201009 0.142492 -0.969171 0 0
    55 -12.329555 -41.304849 73.532871 0.683878 -0.285785 -0.671295 0 0
    55 -12.329553 -42.565287 76.582660 -0.959301 -0.178832 -0.218544 0 0
  phy
    55 -12.329568 -33.172042 76.894030 0.201009 0.142492 -0.969171 0 0
    55 -12.329553 -42.565287 76.582660 -0.959301 -0.178832 -0.218544 0 0
    55 -12.329566 -34.432484 79.943827 -0.763495 0.605151 -0.225539 0 0
  phy
    8 13.199994 4.399995 44.354346 0.620520 -0.691883 -0.369123 0 0
    8 13.199994 13.199994 44.354342 -0.017066 -0.972867 0.230737 0 0
    8 13.199997 4.399999 53.154342 -0.095217 -0.036448 -0.994789 0 0
  phy
    8 13.199994 13.199994 44.354342 -0.017066 -0.972867 0.230737 0 0
    8 13.199998 13.199999 53.154338 -0.965778 -0.238815 0.101190 0 0
    8 13.199997 4.399999 53.154342 -0.095217 -0.036448 -0.994789 0 0
  phy
    8 13.199994 13.199994 44.354342 -0.017066 -0.972867 0.230737 0 0
    8 4.399990 4.399997 44.354350 0.942284 0.237306 0.236193 0 0
    8 4.399991 13.199996 44.354347 -0.232155 -0.045242 0.971626 0 0
  phy
    8 13.199994 4.399995 44.354346 0.620520 -0.691883 -0.369123 0 0
    8 4.399990 4.399997 44.354350 0.942284 0.237306 0.236193 0 0
    8 13.199994 13.199994 44.354342 -0.017066 -0.972867 0.230737 0 0
  phy
    8 13.199994 13.199994 44.354342 -0.017066 -0.972867 0.230737 0 0
    8 4.399991 13.199996 44.354347 -0.232155 -0.045242 0.971626 0 0
    8 13.199998 13.199999 53.154338 -0.965778 -0.238815 0.101190 0 0
  phy
    8 13.199997 4.399999 53.154342 -0.095217 -0.036448 -0.994789 0 0
    8 4.399990 4.399997 44.354350 0.942284 0.237306 0.236193 0 0
    8 13.199994 4.399995 44.354346 0.620520 -0.691883 -0.369123 0 0
  phy
    8 4.399993 4.400001 53.154349 0.226546 0.892742 -0.389473 0 0
    8 4.399990 4.399997 44.354350 0.942284 0.237306 0.236193 0 0
    8 13.199997 4.399999 53.154342 -0.095217 -0.036448 -0.994789 0 0
  phy
    8 4.399993 4.400001 53.154349 0.226546 0.892742 -0.389473 0 0
    8 13.199997 4.399999 53.154342 -0.095217 -0.036448 -0.994789 0 0
    8 4.399995 13.200000 53.154346 -0.471988 0.856901 0.207239 0 0
  phy
    8 4.399995 13.200000 53.154346 -0.471988 0.856901 0.207239 0 0
    8 13.199997 4.399999 53.154342 -0.095217 -0.036448 -0.994789 0 0
    8 13.199998 13.199999 53.154338 -0.965778 -0.238815 0.101190 0 0
  phy
    8 4.399995 13.200000 53.154346 -0.471988 0.856901 0.207239 0 0
    8 4.399991 13.199996 44.354347 -0.232155 -0.045242 0.971626 0 0
    8 4.399990 4.399997 44.354350 0.942284 0.237306 0.236193 0 0
  phy
    8 4.399991 13.199996 44.354347 -0.232155 -0.045242 0.971626 0 0
    8 4.399995 13.200000 53.154346 -0.471988 0.856901 0.207239 0 0
    8 13.199998 13.199999 53.154338 -0.965778 -0.238815 0.101190 0 0
  phy
    8 4.399993 4.400001 53.154349 0.226546 0.892742 -0.389473 0 0
    8 4.399995 13.200000 53.154346 -0.471988 0.856901 0.207239 0 0
    8 4.399990 4.399997 44.354350 0.942284 0.237306 0.236193 0 0
  phy
    9 34.289034 13.199978 32.499723 0.611014 0.116186 -0.783047 0 0
    9 15.940548 13.199976 23.814407 0.843731 -0.257697 0.470861 0 0
    9 19.552529 13.199974 19.666684 0.607437 -0.202709 -0.768068 0 0
  phy
    9 34.289034 13.199978 32.499723 0.611014 0.116186 -0.783047 0 0
    9 30.677050 13.199980 36.647446 0.393268 0.264756 0.880480 0 0
    9 15.940548 13.199976 23.814407 0.843731 -0.257697 0.470861 0 0
  phy
    9 34.289034 13.199978 32.499723 0.611014 0.116186 -0.783047 0 0
    9 19.552529 13.199974 19.666684 0.607437 -0.202709 -0.768068 0 0
    9 19.552529 19.799972 19.666680 -0.393268 -0.264756 -0.880480 0 0
  phy
    9 19.552529 13.199974 19.666684 0.607437 -0.202709 -0.768068 0 0
    9 15.940548 13.199976 23.814407 0.843731 -0.257697 0.470861 0 0
    9 19.552529 19.799972 19.666680 -0.393268 -0.264756 -0.880480 0 0
  phy
    9 19.552529 19.799972 19.666680 -0.393268 -0.264756 -0.880480 0 0
    9 15.940548 19.799974 23.814403 -0.611014 -0.116186 0.783047 0 0
    9 34.289034 19.799977 32.499720 -0.843731 0.257697 -0.470861 0 0
  phy
    9 34.289034 19.799977 32.499720 -0.843731 0.257697 -0.470861 0 0
    9 15.940548 19.799974 23.814403 -0.611014 -0.116186 0.783047 0 0
    9 30.677051 19.799979 36.647443 -0.607437 0.202709 0.768068 0 0
  phy
    9 15.940548 13.199976 23.814407 0.843731 -0.257697 0.470861 0 0
    9 30.677050 13.199980 36.647446 0.393268 0.264756 0.880480 0 0
    9 15.940548 19.799974 23.814403 -0.611014 -0.116186 0.783047 0 0
  phy
    9 30.677050 13.199980 36.647446 0.393268 0.264756 0.880480 0 0
    9 30.677051 19.799979 36.647443 -0.607437 0.202709 0.768068 0 0
    9 15.940548 19.799974 23.814403 -0.611014 -0.116186 0.783047 0 0
  phy
    9 19.552529 19.799972 19.666680 -0.393268 -0.264756 -0.880480 0 0
    9 15.940548 13.199976 23.814407 0.843731 -0.257697 0.470861 0 0
    9 15.940548 19.799974 23.814403 -0.611014 -0.116186 0.783047 0 0
  phy
    9 34.289034 13.199978 32.499723 0.611014 0.116186 -0.783047 0 0
    9 34.289034 19.799977 32.499720 -0.843731 0.257697 -0.470861 0 0
    9 30.677050 13.199980 36.647446 0.393268 0.264756 0.880480 0 0
  phy
    9 30.677050 13.199980 36.647446 0.393268 0.264756 0.880480 0 0
    9 34.289034 19.799977 32.499720 -0.843731 0.257697 -0.470861 0 0
    9 30.677051 19.799979 36.647443 -0.607437 0.202709 0.768068 0 0
  phy
    9 34.289034 13.199978 32.499723 0.611014 0.116186 -0.783047 0 0
    9 19.552529 19.799972 19.666680 -0.393268 -0.264756 -0.880480 0 0
    9 34.289034 19.799977 32.499720 -0.843731 0.257697 -0.470861 0 0
  phy
    10 29.336347 13.199968 4.523859 0.665355 -0.178164 0.724955 0 0
    10 11.220256 19.799969 17.006134 -0.745504 0.123022 0.655049 0 0
    10 29.336347 19.799965 4.523855 -0.710934 -0.290310 0.640541 0 0
  phy
    10 11.220256 13.199972 17.006137 0.630786 0.235168 0.739463 0 0
    10 11.220256 19.799969 17.006134 -0.745504 0.123022 0.655049 0 0
    10 29.336347 13.199968 4.523859 0.665355 -0.178164 0.724955 0 0
  phy
    10 29.336347 13.199968 4.523859 0.665355 -0.178164 0.724955 0 0
    10 33.081037 13.199970 9.958681 0.745504 -0.123022 -0.655049 0 0
    10 14.964942 13.199974 22.440963 0.710934 0.290310 -0.640541 0 0
  phy
    10 29.336347 13.199968 4.523859 0.665355 -0.178164 0.724955 0 0
    10 14.964942 13.199974 22.440963 0.710934 0.290310 -0.640541 0 0
    10 11.220256 13.199972 17.006137 0.630786 0.235168 0.739463 0 0
  phy
    10 29.336347 19.799965 4.523855 -0.710934 -0.290310 0.640541 0 0
    10 33.081036 19.799970 9.958676 -0.630786 -0.235168 -0.739463 0 0
    10 29.336347 13.199968 4.523859 0.665355 -0.178164 0.724955 0 0
  phy
    10 33.081036 19.799970 9.958676 -0.630786 -0.235168 -0.739463 0 0
    10 33.081037 13.199970 9.958681 0.745504 -0.123022 -0.655049 0 0
    10 29.336347 13.199968 4.523859 0.665355 -0.178164 0.724955 0 0
  phy
    10 33.081036 19.799970 9.958676 -0.630786 -0.235168 -0.739463 0 0
    10 29.336347 19.799965 4.523855 -0.710934 -0.290310 0.640541 0 0
    10 11.220256 19.799969 17.006134 -0.745504 0.123022 0.655049 0 0
  phy
    10 33.081036 19.799970 9.958676 -0.630786 -0.235168 -0.739463 0 0
    10 11.220256 19.799969 17.006134 -0.745504 0.123022 0.655049 0 0
    10 14.964940 19.799973 22.440959 -0.665356 0.178164 -0.724955 0 0
  phy
    10 33.081037 13.199970 9.958681 0.745504 -0.123022 -0.655049 0 0
    10 33.081036 19.799970 9.958676 -0.630786 -0.235168 -0.739463 0 0
    10 14.964942 13.199974 22.440963 0.710934 0.290310 -0.640541 0 0
  phy
    10 14.964942 13.199974 22.440963 0.710934 0.290310 -0.640541 0 0
    10 33.081036 19.799970 9.958676 -0.630786 -0.235168 -0.739463 0 0
    10 14.964940 19.799973 22.440959 -0.665356 0.178164 -0.724955 0 0
  phy
    10 14.964940 19.799973 22.440959 -0.665356 0.178164 -0.724955 0 0
    10 11.220256 19.799969 17.006134 -0.745504 0.123022 0.655049 0 0
    10 14.964942 13.199974 22.440963 0.710934 0.290310 -0.640541 0 0
  phy
    10 14.964942 13.199974 22.440963 0.710934 0.290310 -0.640541 0 0
    10 11.220256 19.799969 17.006134 -0.745504 0.123022 0.655049 0 0
    10 11.220256 13.199972 17.006137 0.630786 0.235168 0.739463 0 0
  phy
    11 43.052723 10.101459 0.119658 0.694264 -0.250264 0.674807 0 0
    11 15.552710 10.101455 6.719693 0.386169 0.388173 -0.836777 0 0
    11 15.552704 10.101450 0.119693 0.194149 0.013608 0.980878 0 0
  phy
    11 43.052723 10.101459 0.119658 0.694264 -0.250264 0.674807 0 0
    11 43.052726 10.101464 6.719657 0.428829 -0.120397 -0.895327 0 0
    11 15.552710 10.101455 6.719693 0.386169 0.388173 -0.836777 0 0
  phy
    11 43.052726 10.101464 6.719657 0.428829 -0.120397 -0.895327 0 0
    11 43.052720 24.401459 6.719647 -0.214950 0.097358 -0.971760 0 0
    11 15.552710 10.101455 6.719693 0.386169 0.388173 -0.836777 0 0
  phy
    11 15.552710 10.101455 6.719693 0.386169 0.388173 -0.836777 0 0
    11 43.052720 24.401459 6.719647 -0.214950 0.097358 -0.971760 0 0
    11 15.552704 24.401451 6.719683 -0.689055 0.398955 -0.605011 0 0
  phy
    11 43.052726 10.101464 6.719657 0.428829 -0.120397 -0.895327 0 0
    11 43.052717 24.401455 0.119647 -0.364045 -0.483485 0.796061 0 0
    11 43.052720 24.401459 6.719647 -0.214950 0.097358 -0.971760 0 0
  phy
    11 43.052726 10.101464 6.719657 0.428829 -0.120397 -0.895327 0 0
    11 43.052723 10.101459 0.119658 0.694264 -0.250264 0.674807 0 0
    11 43.052717 24.401455 0.119647 -0.364045 -0.483485 0.796061 0 0
  phy
    11 15.552704 10.101450 0.119693 0.194149 0.013608 0.980878 0 0
    11 15.552710 10.101455 6.719693 0.386169 0.388173 -0.836777 0 0
    11 15.552704 24.401451 6.719683 -0.689055 0.398955 -0.605011 0 0
  phy
    11 43.052720 24.401459 6.719647 -0.214950 0.097358 -0.971760 0 0
    11 43.052717 24.401455 0.119647 -0.364045 -0.483485 0.796061 0 0
    11 15.552704 24.401451 6.719683 -0.689055 0.398955 -0.605011 0 0
  phy
    11 15.552697 24.401446 0.119682 -0.426054 -0.075613 0.901532 0 0
    11 43.052717 24.401455 0.119647 -0.364045 -0.483485 0.796061 0 0
    11 15.552704 10.101450 0.119693 0.194149 0.013608 0.980878 0 0
  phy
    11 43.052717 24.401455 0.119647 -0.364045 -0.483485 0.796061 0 0
    11 43.052723 10.101459 0.119658 0.694264 -0.250264 0.674807 0 0
    11 15.552704 10.101450 0.119693 0.194149 0.013608 0.980878 0 0
  phy
    11 15.552697 24.401446 0.119682 -0.426054 -0.075613 0.901532 0 0
    11 15.552704 10.101450 0.119693 0.194149 0.013608 0.980878 0 0
    11 15.552704 24.401451 6.719683 -0.689055 0.398955 -0.605011 0 0
  phy
    11 43.052717 24.401455 0.119647 -0.364045 -0.483485 0.796061 0 0
    11 15.552697 24.401446 0.119682 -0.426054 -0.075613 0.901532 0 0
    11 15.552704 24.401451 6.719683 -0.689055 0.398955 -0.605011 0 0
  phy
    12 36.438287 9.899981 35.206282 -0.036662 -0.032989 -0.998783 0 0
    12 13.816212 9.899990 50.842534 0.453817 0.376187 -0.807796 0 0
    12 33.311038 9.899978 30.681874 0.948150 -0.112636 0.297195 0 0
  phy
    12 13.816212 9.899990 50.842534 0.453817 0.376187 -0.807796 0 0
    12 10.688962 9.899986 46.318121 0.586151 0.136286 0.798657 0 0
    12 33.311038 9.899978 30.681874 0.948150 -0.112636 0.297195 0 0
  phy
    12 36.438287 9.899981 35.206282 -0.036662 -0.032989 -0.998783 0 0
    12 36.438287 18.699982 35.206273 -0.870492 -0.364799 -0.330400 0 0
    12 13.816207 18.699991 50.842528 -0.616588 0.050841 -0.785643 0 0
  phy
    12 36.438287 9.899981 35.206282 -0.036662 -0.032989 -0.998783 0 0
    12 13.816207 18.699991 50.842528 -0.616588 0.050841 -0.785643 0 0
    12 13.816212 9.899990 50.842534 0.453817 0.376187 -0.807796 0 0
  phy
    12 36.438287 9.899981 35.206282 -0.036662 -0.032989 -0.998783 0 0
    12 33.311038 9.899978 30.681874 0.948150 -0.112636 0.297195 0 0
    12 36.438287 18.699982 35.206273 -0.870492 -0.364799 -0.330400 0 0
  phy
    12 10.688962 9.899986 46.318121 0.586151 0.136286 0.798657 0 0
    12 10.688958 18.699985 46.318115 -0.531475 0.101249 0.841001 0 0
    12 33.311038 18.699976 30.681864 0.067099 -0.154138 0.985768 0 0
  phy
    12 33.311038 18.699976 30.681864 0.067099 -0.154138 0.985768 0 0
    12 33.311038 9.899978 30.681874 0.948150 -0.112636 0.297195 0 0
    12 10.688962 9.899986 46.318121 0.586151 0.136286 0.798657 0 0
  phy
    12 33.311038 18.699976 30.681864 0.067099 -0.154138 0.985768 0 0
    12 10.688958 18.699985 46.318115 -0.531475 0.101249 0.841001 0 0
    12 36.438287 18.699982 35.206273 -0.870492 -0.364799 -0.330400 0 0
  phy
    12 36.438287 18.699982 35.206273 -0.870492 -0.364799 -0.330400 0 0
    12 33.311038 9.899978 30.681874 0.948150 -0.112636 0.297195 0 0
    12 33.311038 18.699976 30.681864 0.067099 -0.154138 0.985768 0 0
  phy
    12 10.688962 9.899986 46.318121 0.586151 0.136286 0.798657 0 0
    12 13.816212 9.899990 50.842534 0.453817 0.376187 -0.807796 0 0
    12 10.688958 18.699985 46.318115 -0.531475 0.101249 0.841001 0 0
  phy
    12 10.688958 18.699985 46.318115 -0.531475 0.101249 0.841001 0 0
    12 13.816212 9.899990 50.842534 0.453817 0.376187 -0.807796 0 0
    12 13.816207 18.699991 50.842528 -0.616588 0.050841 -0.785643 0 0
  phy
    12 36.438287 18.699982 35.206273 -0.870492 -0.364799 -0.330400 0 0
    12 10.688958 18.699985 46.318115 -0.531475 0.101249 0.841001 0 0
    12 13.816207 18.699991 50.842528 -0.616588 0.050841 -0.785643 0 0
  phy
    2 5.856415 -11.978974 53.544382 0.287505 0.364740 -0.885610 0 0
    2 -2.943584 -11.978978 53.544383 0.943588 0.050715 0.327215 0 0
    2 5.856413 -11.978969 44.744383 0.051523 -0.787045 -0.614740 0 0
  phy
    2 5.856413 -11.978969 44.744383 0.051523 -0.787045 -0.614740 0 0
    2 -2.943584 -11.978978 53.544383 0.943588 0.050715 0.327215 0 0
    2 -2.943587 -11.978973 44.744384 0.313117 -0.914154 0.257448 0 0
  phy
    2 -2.943587 -11.978973 44.744384 0.313117 -0.914154 0.257448 0 0
    2 -2.943587 -3.178971 44.744389 -0.585592 -0.360786 0.725890 0 0
    2 5.856413 -11.978969 44.744383 0.051523 -0.787045 -0.614740 0 0
  phy
    2 -2.943587 -3.178971 44.744389 -0.585592 -0.360786 0.725890 0 0
    2 5.856412 -3.178969 44.744388 -0.793788 0.073766 -0.603704 0 0
    2 5.856413 -11.978969 44.744383 0.051523 -0.787045 -0.614740 0 0
  phy
    2 5.856415 -11.978974 53.544382 0.287505 0.364740 -0.885610 0 0
    2 5.856413 -11.978969 44.744383 0.051523 -0.787045 -0.614740 0 0
    2 5.856412 -3.178969 44.744388 -0.793788 0.073766 -0.603704 0 0
  phy
    2 -2.943587 -3.178971 44.744389 -0.585592 -0.360786 0.725890 0 0
    2 -2.943584 -3.178976 53.544388 0.044879 0.604084 0.795656 0 0
    2 5.856414 -3.178973 53.544387 -0.258212 0.966065 0.006730 0 0
  phy
    2 -2.943587 -3.178971 44.744389 -0.585592 -0.360786 0.725890 0 0
    2 -2.943584 -11.978978 53.544383 0.943588 0.050715 0.327215 0 0
    2 -2.943584 -3.178976 53.544388 0.044879 0.604084 0.795656 0 0
  phy
    2 5.856414 -3.178973 53.544387 -0.258212 0.966065 0.006730 0 0
    2 -2.943584 -3.178976 53.544388 0.044879 0.604084 0.795656 0 0
    2 -2.943584 -11.978978 53.544383 0.943588 0.050715 0.327215 0 0
  phy
    2 5.856415 -11.978974 53.544382 0.287505 0.364740 -0.885610 0 0
    2 5.856414 -3.178973 53.544387 -0.258212 0.966065 0.006730 0 0
    2 -2.943584 -11.978978 53.544383 0.943588 0.050715 0.327215 0 0
  phy
    2 5.856414 -3.178973 53.544387 -0.258212 0.966065 0.006730 0 0
    2 5.856415 -11.978974 53.544382 0.287505 0.364740 -0.885610 0 0
    2 5.856412 -3.178969 44.744388 -0.793788 0.073766 -0.603704 0 0
  phy
    2 -2.943587 -11.978973 44.744384 0.313117 -0.914154 0.257448 0 0
    2 -2.943584 -11.978978 53.544383 0.943588 0.050715 0.327215 0 0
    2 -2.943587 -3.178971 44.744389 -0.585592 -0.360786 0.725890 0 0
  phy
    2 -2.943587 -3.178971 44.744389 -0.585592 -0.360786 0.725890 0 0
    2 5.856414 -3.178973 53.544387 -0.258212 0.966065 0.006730 0 0
    2 5.856412 -3.178969 44.744388 -0.793788 0.073766 -0.603704 0 0
  phy
    3 -23.276349 -17.370042 21.181553 -0.888261 -0.217427 -0.404621 0 0
    3 -24.750343 -17.496584 26.478852 -0.509119 -0.328830 0.795405 0 0
    3 -4.209570 -16.891281 26.498381 -0.913007 0.096707 -0.396316 0 0
  phy
    3 -4.209570 -16.891281 26.498381 -0.913007 0.096707 -0.396316 0 0
    3 -24.750343 -17.496584 26.478852 -0.509119 -0.328830 0.795405 0 0
    3 -5.683559 -17.017822 31.795676 0.056896 0.204166 0.977281 0 0
  phy
    3 -4.209570 -16.891281 26.498381 -0.913007 0.096707 -0.396316 0 0
    3 -5.683559 -17.017822 31.795676 0.056896 0.204166 0.977281 0 0
    3 -4.015090 -23.487608 26.394924 0.200244 0.440906 -0.874931 0 0
  phy
    3 -4.015090 -23.487608 26.394924 0.200244 0.440906 -0.874931 0 0
    3 -5.683559 -17.017822 31.795676 0.056896 0.204166 0.977281 0 0
    3 -5.489078 -23.614149 31.692219 0.982002 0.168131 0.086049 0 0
  phy
    3 -24.750343 -17.496584 26.478852 -0.509119 -0.328830 0.795405 0 0
    3 -24.555866 -24.092911 26.375394 0.752910 -0.134548 0.644223 0 0
    3 -5.683559 -17.017822 31.795676 0.056896 0.204166 0.977281 0 0
  phy
    3 -5.683559 -17.017822 31.795676 0.056896 0.204166 0.977281 0 0
    3 -24.555866 -24.092911 26.375394 0.752910 -0.134548 0.644223 0 0
    3 -5.489078 -23.614149 31.692219 0.982002 0.168131 0.086049 0 0
  phy
    3 -4.015090 -23.487608 26.394924 0.200244 0.440906 -0.874931 0 0
    3 -5.489078 -23.614149 31.692219 0.982002 0.168131 0.086049 0 0
    3 -23.081871 -23.966370 21.078095 0.232345 -0.156257 -0.960000 0 0
  phy
    3 -4.015090 -23.487608 26.394924 0.200244 0.440906 -0.874931 0 0
    3 -23.081871 -23.966370 21.078095 0.232345 -0.156257 -0.960000 0 0
    3 -4.209570 -16.891281 26.498381 -0.913007 0.096707 -0.396316 0 0
  phy
    3 -23.276349 -17.370042 21.181553 -0.888261 -0.217427 -0.404621 0 0
    3 -23.081871 -23.966370 21.078095 0.232345 -0.156257 -0.960000 0 0
    3 -24.750343 -17.496584 26.478852 -0.509119 -0.328830 0.795405 0 0
  phy
    3 -23.081871 -23.966370 21.078095 0.232345 -0.156257 -0.960000 0 0
    3 -24.555866 -24.092911 26.375394 0.752910 -0.134548 0.644223 0 0
    3 -24.750343 -17.496584 26.478852 -0.509119 -0.328830 0.795405 0 0
  phy
    3 -23.081871 -23.966370 21.078095 0.232345 -0.156257 -0.960000 0 0
    3 -23.276349 -17.370042 21.181553 -0.888261 -0.217427 -0.404621 0 0
    3 -4.209570 -16.891281 26.498381 -0.913007 0.096707 -0.396316 0 0
  phy
    3 -5.489078 -23.614149 31.692219 0.982002 0.168131 0.086049 0 0
    3 -24.555866 -24.092911 26.375394 0.752910 -0.134548 0.644223 0 0
    3 -23.081871 -23.966370 21.078095 0.232345 -0.156257 -0.960000 0 0
  phy
    4 -25.217053 -17.483938 26.014214 -0.367560 0.094480 -0.925188 0 0
    4 -17.652321 -23.378920 6.214612 -0.372726 -0.218023 -0.901965 0 0
    4 -22.550042 -20.014599 3.341692 -0.972691 -0.222835 0.064942 0 0
  phy
    4 -25.217053 -17.483938 26.014214 -0.367560 0.094480 -0.925188 0 0
    4 -22.550042 -20.014599 3.341692 -0.972691 -0.222835 0.064942 0 0
    4 -30.114778 -14.119615 23.141301 -0.726020 0.301665 0.617975 0 0
  phy
    4 -17.652321 -23.378920 6.214612 -0.372726 -0.218023 -0.901965 0 0
    4 -21.449959 -28.774642 6.370152 0.726020 -0.301666 -0.617975 0 0
    4 -22.550042 -20.014599 3.341692 -0.972691 -0.222835 0.064942 0 0
  phy
    4 -21.449959 -28.774642 6.370152 0.726020 -0.301666 -0.617975 0 0
    4 -26.347681 -25.410323 3.497231 0.367560 -0.094480 0.925188 0 0
    4 -22.550042 -20.014599 3.341692 -0.972691 -0.222835 0.064942 0 0
  phy
    4 -17.652321 -23.378920 6.214612 -0.372726 -0.218023 -0.901965 0 0
    4 -25.217053 -17.483938 26.014214 -0.367560 0.094480 -0.925188 0 0
    4 -21.449959 -28.774642 6.370152 0.726020 -0.301666 -0.617975 0 0
  phy
    4 -29.014689 -22.879659 26.169751 0.972691 0.222835 -0.064942 0 0
    4 -26.347681 -25.410323 3.497231 0.367560 -0.094480 0.925188 0 0
    4 -21.449959 -28.774642 6.370152 0.726020 -0.301666 -0.617975 0 0
  phy
    4 -29.014689 -22.879659 26.169751 0.972691 0.222835 -0.064942 0 0
    4 -33.912414 -19.515337 23.296837 0.372726 0.218023 0.901965 0 0
    4 -26.347681 -25.410323 3.497231 0.367560 -0.094480 0.925188 0 0
  phy
    4 -30.114778 -14.119615 23.141301 -0.726020 0.301665 0.617975 0 0
    4 -26.347681 -25.410323 3.497231 0.367560 -0.094480 0.925188 0 0
    4 -33.912414 -19.515337 23.296837 0.372726 0.218023 0.901965 0 0
  phy
    4 -30.114778 -14.119615 23.141301 -0.726020 0.301665 0.617975 0 0
    4 -22.550042 -20.014599 3.341692 -0.972691 -0.222835 0.064942 0 0
    4 -26.347681 -25.410323 3.497231 0.367560 -0.094480 0.925188 0 0
  phy
    4 -30.114778 -14.119615 23.141301 -0.726020 0.301665 0.617975 0 0
    4 -33.912414 -19.515337 23.296837 0.372726 0.218023 0.901965 0 0
    4 -29.014689 -22.879659 26.169751 0.972691 0.222835 -0.064942 0 0
  phy
    4 -21.449959 -28.774642 6.370152 0.726020 -0.301666 -0.617975 0 0
    4 -25.217053 -17.483938 26.014214 -0.367560 0.094480 -0.925188 0 0
    4 -29.014689 -22.879659 26.169751 0.972691 0.222835 -0.064942 0 0
  phy
    4 -25.217053 -17.483938 26.014214 -0.367560 0.094480 -0.925188 0 0
    4 -30.114778 -14.119615 23.141301 -0.726020 0.301665 0.617975 0 0
    4 -29.014689 -22.879659 26.169751 0.972691 0.222835 -0.064942 0 0
  phy
    5 -8.915925 -21.296680 -4.902907 -0.620038 -0.037751 0.783663 0 0
    5 -12.704372 -35.500979 0.748266 0.847635 -0.374652 -0.375699 0 0
    5 -15.705040 -33.882305 -4.902918 0.157759 0.127786 0.979175 0 0
  phy
    5 -5.915254 -22.915349 0.748276 0.081599 -0.421617 -0.903095 0 0
    5 -12.704372 -35.500979 0.748266 0.847635 -0.374652 -0.375699 0 0
    5 -8.915925 -21.296680 -4.902907 -0.620038 -0.037751 0.783663 0 0
  phy
    5 -15.705040 -33.882305 -4.902918 0.157759 0.127786 0.979175 0 0
    5 -36.428733 -22.703247 9.302983 0.121738 0.435327 0.892003 0 0
    5 -8.915925 -21.296680 -4.902907 -0.620038 -0.037751 0.783663 0 0
  phy
    5 -36.428733 -22.703247 9.302983 0.121738 0.435327 0.892003 0 0
    5 -29.639619 -10.117617 9.302996 -0.653250 0.527666 0.542986 0 0
    5 -8.915925 -21.296680 -4.902907 -0.620038 -0.037751 0.783663 0 0
  phy
    5 -5.915254 -22.915349 0.748276 0.081599 -0.421617 -0.903095 0 0
    5 -8.915925 -21.296680 -4.902907 -0.620038 -0.037751 0.783663 0 0
    5 -26.638950 -11.736286 14.954181 -0.445906 -0.171749 -0.878448 0 0
  phy
    5 -26.638950 -11.736286 14.954181 -0.445906 -0.171749 -0.878448 0 0
    5 -8.915925 -21.296680 -4.902907 -0.620038 -0.037751 0.783663 0 0
    5 -29.639619 -10.117617 9.302996 -0.653250 0.527666 0.542986 0 0
  phy
    5 -15.705040 -33.882305 -4.902918 0.157759 0.127786 0.979175 0 0
    5 -12.704372 -35.500979 0.748266 0.847635 -0.374652 -0.375699 0 0
    5 -36.428733 -22.703247 9.302983 0.121738 0.435327 0.892003 0 0
  phy
    5 -36.428733 -22.703247 9.302983 0.121738 0.435327 0.892003 0 0
    5 -12.704372 -35.500979 0.748266 0.847635 -0.374652 -0.375699 0 0
    5 -33.428066 -24.321921 14.954169 0.455165 -0.003886 -0.890399 0 0
  phy
    5 -36.428733 -22.703247 9.302983 0.121738 0.435327 0.892003 0 0
    5 -33.428066 -24.321921 14.954169 0.455165 -0.003886 -0.890399 0 0
    5 -29.639619 -10.117617 9.302996 -0.653250 0.527666 0.542986 0 0
  phy
    5 -5.915254 -22.915349 0.748276 0.081599 -0.421617 -0.903095 0 0
    5 -26.638950 -11.736286 14.954181 -0.445906 -0.171749 -0.878448 0 0
    5 -33.428066 -24.321921 14.954169 0.455165 -0.003886 -0.890399 0 0
  phy
    5 -5.915254 -22.915349 0.748276 0.081599 -0.421617 -0.903095 0 0
    5 -33.428066 -24.321921 14.954169 0.455165 -0.003886 -0.890399 0 0
    5 -12.704372 -35.500979 0.748266 0.847635 -0.374652 -0.375699 0 0
  phy
    5 -33.428066 -24.321921 14.954169 0.455165 -0.003886 -0.890399 0 0
    5 -26.638950 -11.736286 14.954181 -0.445906 -0.171749 -0.878448 0 0
    5 -29.639619 -10.117617 9.302996 -0.653250 0.527666 0.542986 0 0
  phy
    6 -9.878651 -23.550472 31.215765 0.970820 0.027259 0.238254 0 0
    6 4.732337 -13.715570 41.802740 0.108164 -0.107933 -0.988257 0 0
    6 0.220552 -13.463610 44.938070 0.603596 0.510193 0.612678 0 0
  phy
    6 -9.878651 -23.550472 31.215765 0.970820 0.027259 0.238254 0 0
    6 -5.366867 -23.802431 28.080437 0.175456 -0.609848 -0.772852 0 0
    6 4.732337 -13.715570 41.802740 0.108164 -0.107933 -0.988257 0 0
  phy
    6 -5.366867 -23.802431 28.080437 0.175456 -0.609848 -0.772852 0 0
    6 -7.643079 -16.240697 24.197257 -0.638013 -0.397055 -0.659763 0 0
    6 4.732337 -13.715570 41.802740 0.108164 -0.107933 -0.988257 0 0
  phy
    6 4.732337 -13.715570 41.802740 0.108164 -0.107933 -0.988257 0 0
    6 -7.643079 -16.240697 24.197257 -0.638013 -0.397055 -0.659763 0 0
    6 2.456127 -6.153839 37.919564 -0.954536 0.131275 -0.267633 0 0
  phy
    6 4.732337 -13.715570 41.802740 0.108164 -0.107933 -0.988257 0 0
    6 2.456127 -6.153839 37.919564 -0.954536 0.131275 -0.267633 0 0
    6 0.220552 -13.463610 44.938070 0.603596 0.510193 0.612678 0 0
  phy
    6 0.220552 -13.463610 44.938070 0.603596 0.510193 0.612678 0 0
    6 2.456127 -6.153839 37.919564 -0.954536 0.131275 -0.267633 0 0
    6 -2.055659 -5.901876 41.054894 -0.155676 0.436020 0.886370 0 0
  phy
    6 2.456127 -6.153839 37.919564 -0.954536 0.131275 -0.267633 0 0
    6 -7.643079 -16.240697 24.197257 -0.638013 -0.397055 -0.659763 0 0
    6 -12.154866 -15.988737 27.332584 -0.089456 -0.004295 0.995982 0 0
  phy
    6 2.456127 -6.153839 37.919564 -0.954536 0.131275 -0.267633 0 0
    6 -12.154866 -15.988737 27.332584 -0.089456 -0.004295 0.995982 0 0
    6 -2.055659 -5.901876 41.054894 -0.155676 0.436020 0.886370 0 0
  phy
    6 0.220552 -13.463610 44.938070 0.603596 0.510193 0.612678 0 0
    6 -12.154866 -15.988737 27.332584 -0.089456 -0.004295 0.995982 0 0
    6 -9.878651 -23.550472 31.215765 0.970820 0.027259 0.238254 0 0
  phy
    6 0.220552 -13.463610 44.938070 0.603596 0.510193 0.612678 0 0
    6 -2.055659 -5.901876 41.054894 -0.155676 0.436020 0.886370 0 0
    6 -12.154866 -15.988737 27.332584 -0.089456 -0.004295 0.995982 0 0
  phy
    6 -12.154866 -15.988737 27.332584 -0.089456 -0.004295 0.995982 0 0
    6 -7.643079 -16.240697 24.197257 -0.638013 -0.397055 -0.659763 0 0
    6 -5.366867 -23.802431 28.080437 0.175456 -0.609848 -0.772852 0 0
  phy
    6 -5.366867 -23.802431 28.080437 0.175456 -0.609848 -0.772852 0 0
    6 -9.878651 -23.550472 31.215765 0.970820 0.027259 0.238254 0 0
    6 -12.154866 -15.988737 27.332584 -0.089456 -0.004295 0.995982 0 0
end
